<svg width="275" height="62" fill="none" xmlns="http://www.w3.org/2000/svg"><path d="M41.811 36.564l.387.922.613-.257v-.665h-1zm0-11.523h1v-.665l-.613-.257-.387.922zM1.703 8.201l.387-.923-1.387-.582V8.2h1zm0 12.602h-1v.694l.65.243.35-.937zm26.093 9.75h1v-.694l-.65-.243-.35.937zm0 .499l.35.936.65-.243v-.693h-1zM1.703 40.83l-.35-.937-.65.243v.694h1zm0 12.575h-1v1.504l1.387-.582-.387-.922zm41.108-16.841V25.04h-2v11.523h2zm-.613-12.445L2.09 7.28l-.774 1.843 40.108 16.841.774-1.844zM.703 8.2v12.603h2V8.2h-2zm.65 13.54l26.092 9.75.7-1.873-26.092-9.75-.7 1.873zm25.443 8.813v.499h2v-.499h-2zm.649-.438L1.352 39.893l.702 1.873 26.092-9.778-.701-1.873zM.703 40.83v12.575h2V40.83h-2zM2.09 54.327l40.108-16.841-.774-1.844-40.108 16.84.774 1.845zM71.9 59l-.893-.45-.732 1.45H71.9v-1zm14.099 0v1h.616l.277-.55-.893-.45zm22.962-45.592l.893.45.107-.213v-.237h-1zm0-11.135h1v-1h-1v1zm-40.939 0v-1h-1v1h1zm0 11.052h-1v1h1v-1zm26.757 0h1v-1h-1v1zm0 .36l.893.45.107-.212v-.238h-1zM71.9 60h14.099v-2h-14.1v2zm14.992-.55l22.962-45.593-1.786-.9L85.105 58.55l1.786.9zm23.069-46.042V2.273h-2v11.135h2zm-1-12.135h-40.94v2h40.939v-2zm-41.939 1v11.052h2V2.273h-2zm1 12.052h26.757v-2H68.021v2zm25.757-1v.36h2v-.36h-2zm.108-.091l-22.88 45.315 1.786.902L95.67 14.135l-1.785-.901zm44.843 47.15l.002-1h-.002v1zm23.988-29.665l-1-.001 1 .002zm-47.947 0l1 .003v-.001l-1-.002zm14.099 0l1 .005v-.002l-1-.003zm19.749 0l1-.002-1 .003zm-9.89 30.666c7.691.014 13.98-2.832 18.327-8.17 4.327-5.31 6.648-12.983 6.662-22.494l-2-.003c-.014 9.213-2.264 16.387-6.212 21.235-3.928 4.82-9.619 7.445-16.774 7.432l-.003 2zm24.989-30.664c.014-9.46-2.308-17.02-6.648-22.233-4.359-5.236-10.66-7.99-18.34-7.99v2c7.168 0 12.874 2.549 16.803 7.27 3.95 4.744 6.198 11.795 6.185 20.95l2 .003zM138.729.497c-7.679 0-13.96 2.748-18.306 7.982-4.325 5.21-6.639 12.77-6.653 22.239l2 .003c.014-9.172 2.256-16.223 6.192-20.964 3.916-4.717 9.6-7.26 16.767-7.26v-2zm-24.959 30.22c-.028 9.486 2.286 17.153 6.616 22.468 4.351 5.34 10.652 8.2 18.343 8.2v-2c-7.155 0-12.861-2.638-16.792-7.463-3.952-4.851-6.194-12.017-6.167-21.2l-2-.006zm24.959 17.45c-2.544 0-4.713-1.247-6.294-4.024-1.612-2.83-2.594-7.242-2.566-13.42l-2-.008c-.028 6.343.97 11.155 2.828 14.418 1.888 3.317 4.677 5.034 8.032 5.034v-2zm-8.86-17.445c.013-6.053 1.001-10.375 2.604-13.147 1.571-2.718 3.72-3.943 6.256-3.943v-2c-3.335 0-6.103 1.684-7.987 4.942-1.853 3.203-2.859 7.926-2.873 14.143l2 .005zm8.86-17.09c2.552 0 4.707 1.227 6.281 3.944 1.607 2.772 2.594 7.093 2.608 13.146l2-.005c-.014-6.217-1.021-10.94-2.877-14.144-1.888-3.26-4.664-4.94-8.012-4.94v2zm8.889 17.09c.014 6.178-.968 10.59-2.58 13.421-1.581 2.776-3.75 4.024-6.309 4.024v2c3.369 0 6.158-1.716 8.047-5.034 1.857-3.263 2.856-8.075 2.842-14.416l-2 .005zm46.412 29.663l.002-1h-.002v1zm23.987-29.665l-1-.002 1 .002zm-47.946 0l1 .002v-.001l-1-.002zm14.098 0l1 .004v-.002l-1-.003zm19.75 0l1-.003-1 .003zm-9.891 30.665c7.692.014 13.98-2.832 18.328-8.17 4.327-5.31 6.647-12.983 6.661-22.494l-2-.003c-.013 9.213-2.263 16.387-6.211 21.235-3.928 4.82-9.619 7.445-16.774 7.432l-.004 2zm24.989-30.664c.014-9.46-2.307-17.02-6.647-22.233-4.359-5.236-10.66-7.99-18.34-7.99v2c7.167 0 12.873 2.549 16.803 7.27 3.949 4.744 6.198 11.795 6.184 20.95l2 .003zM194.03.497c-7.679 0-13.96 2.748-18.306 7.982-4.325 5.21-6.639 12.77-6.653 22.239l2 .003c.013-9.172 2.256-16.223 6.192-20.964 3.915-4.717 9.6-7.26 16.767-7.26v-2zm-24.959 30.22c-.028 9.486 2.286 17.153 6.616 22.468 4.351 5.34 10.652 8.2 18.343 8.2v-2c-7.155 0-12.861-2.638-16.793-7.463-3.951-4.851-6.194-12.017-6.166-21.2l-2-.006zm24.959 17.45c-2.544 0-4.713-1.247-6.294-4.024-1.612-2.83-2.594-7.242-2.567-13.42l-2-.008c-.028 6.343.971 11.155 2.829 14.418 1.888 3.317 4.677 5.034 8.032 5.034v-2zm-8.861-17.445c.014-6.053 1.002-10.375 2.605-13.147 1.571-2.718 3.72-3.943 6.256-3.943v-2c-3.336 0-6.104 1.684-7.988 4.942-1.852 3.203-2.859 7.926-2.873 14.143l2 .005zm8.861-17.09c2.552 0 4.707 1.227 6.281 3.944 1.606 2.772 2.594 7.093 2.608 13.146l2-.005c-.014-6.217-1.021-10.94-2.877-14.144-1.889-3.26-4.664-4.94-8.012-4.94v2zm8.889 17.09c.013 6.178-.969 10.59-2.58 13.421-1.581 2.776-3.75 4.024-6.309 4.024v2c3.369 0 6.158-1.716 8.047-5.034 1.857-3.263 2.856-8.075 2.842-14.416l-2 .005zm46.412 29.663l.002-1h-.002v1zm23.987-29.665l-1-.002 1 .002zm-47.947 0l1 .002v-.001l-1-.002zm14.099 0l1 .004v-.002l-1-.003zm19.749 0l1-.003-1 .003zm-9.89 30.665c7.692.014 13.98-2.832 18.328-8.17 4.326-5.31 6.647-12.983 6.661-22.494l-2-.003c-.013 9.213-2.263 16.387-6.212 21.235-3.927 4.82-9.618 7.445-16.773 7.432l-.004 2zm24.989-30.664c.014-9.46-2.307-17.02-6.647-22.233-4.359-5.236-10.661-7.99-18.34-7.99v2c7.167 0 12.873 2.549 16.803 7.27 3.949 4.744 6.198 11.795 6.184 20.95l2 .003zM249.331.497c-7.679 0-13.961 2.748-18.306 7.982-4.325 5.21-6.639 12.77-6.654 22.239l2 .003c.014-9.172 2.256-16.223 6.193-20.964 3.915-4.717 9.6-7.26 16.767-7.26v-2zm-24.96 30.22c-.028 9.486 2.286 17.153 6.617 22.468 4.35 5.34 10.652 8.2 18.343 8.2v-2c-7.155 0-12.861-2.638-16.793-7.463-3.951-4.851-6.194-12.017-6.167-21.2l-2-.006zm24.96 17.45c-2.544 0-4.714-1.247-6.295-4.024-1.611-2.83-2.593-7.242-2.566-13.42l-2-.008c-.028 6.343.971 11.155 2.828 14.418 1.889 3.317 4.677 5.034 8.033 5.034v-2zm-8.861-17.445c.014-6.053 1.001-10.375 2.605-13.147 1.571-2.718 3.72-3.943 6.256-3.943v-2c-3.336 0-6.104 1.684-7.988 4.942-1.852 3.203-2.859 7.926-2.873 14.143l2 .005zm8.861-17.09c2.552 0 4.707 1.227 6.281 3.944 1.606 2.772 2.594 7.093 2.607 13.146l2-.005c-.014-6.217-1.02-10.94-2.876-14.144-1.889-3.26-4.664-4.94-8.012-4.94v2zm8.888 17.09c.014 6.178-.968 10.59-2.58 13.421-1.58 2.776-3.749 4.024-6.308 4.024v2c3.368 0 6.158-1.716 8.046-5.034 1.858-3.263 2.856-8.075 2.842-14.416l-2 .005z" fill="#1E1E1E"/></svg>