<svg width="280" height="62" fill="none" xmlns="http://www.w3.org/2000/svg"><path d="M41.811 36.564l.387.922.613-.257v-.665h-1zm0-11.523h1v-.665l-.613-.257-.387.922zM1.703 8.201l.387-.923-1.387-.582V8.2h1zm0 12.602h-1v.694l.65.243.35-.937zm26.093 9.75h1v-.694l-.65-.243-.35.937zm0 .499l.35.936.65-.243v-.693h-1zM1.703 40.83l-.35-.937-.65.243v.694h1zm0 12.575h-1v1.504l1.387-.582-.387-.922zm41.108-16.841V25.04h-2v11.523h2zm-.613-12.445L2.09 7.28l-.774 1.843 40.108 16.841.774-1.844zM.703 8.2v12.603h2V8.2h-2zm.65 13.54l26.092 9.75.7-1.873-26.092-9.75-.7 1.873zm25.443 8.813v.499h2v-.499h-2zm.649-.438L1.352 39.893l.702 1.873 26.092-9.778-.701-1.873zM.703 40.83v12.575h2V40.83h-2zM2.09 54.327l40.108-16.841-.774-1.844-40.108 16.84.774 1.845zm81.692-27.624v1h.565l.292-.484-.857-.516zm-.333 0l-.995-.097-.107 1.097h1.102v-1zm1.302-13.378v-1h-.907l-.088.903.995.097zm25.123 0v1h1v-1h-1zm0-11.052h1v-1h-1v1zm-36.396 0v-1h-.923l-.074.92.997.08zm-2.465 30.58l-.997-.081-.073.897.885.166.185-.983zm12.104 2.27l-.184.983.685.129.357-.598-.858-.513zm8.005-4.099l-.008 1h.008v-1zm8.891 9.14l-1-.004v.01l1-.005zm-17.035 2.161l1-.046-.045-.954h-.955v1zm-13.295 0v-1h-1.016l.016 1.017 1-.017zm21.522 18.45c6.816 0 12.575-2.145 16.641-5.879 4.072-3.739 6.38-9.011 6.38-15.119h-2c0 5.581-2.097 10.308-5.732 13.646-3.642 3.344-8.893 5.353-15.289 5.353v2zm23.021-20.998c0-11.32-7.948-19.503-18.728-19.503v2c9.607 0 16.728 7.218 16.728 17.503h2zM95.498 20.274c-5.612 0-10.458 2.398-12.573 5.913l1.714 1.032c1.651-2.745 5.725-4.945 10.86-4.945v-2zm-11.716 5.43h-.333v2h.333v-2zm.663 1.096l1.302-13.379-1.991-.193-1.302 13.378 1.99.194zm.306-12.475h25.123v-2H84.751v2zm26.123-1V2.273h-2v11.052h2zm-1-12.052H73.478v2h36.396v-2zm-37.393.92l-2.465 30.579 1.993.16 2.466-30.579-1.994-.16zm-1.653 31.642l12.105 2.271.368-1.965-12.104-2.272-.369 1.966zm13.147 1.802c1.31-2.192 4.104-3.638 7.139-3.613l.016-2c-3.613-.03-7.134 1.681-8.871 4.587l1.716 1.026zm7.147-3.613c2.361 0 4.326.831 5.696 2.225 1.37 1.394 2.208 3.416 2.195 5.91l2 .01c.015-2.961-.988-5.51-2.769-7.322-1.78-1.812-4.276-2.823-7.122-2.823v2zm7.891 8.146c.013 2.484-.813 4.491-2.166 5.874-1.352 1.382-3.294 2.206-5.642 2.206v2c2.832 0 5.308-1.004 7.072-2.807 1.763-1.803 2.751-4.338 2.736-7.283l-2 .01zm-7.808 8.08c-4.02 0-7.065-2.46-7.228-5.971l-1.997.093c.225 4.854 4.436 7.878 9.225 7.878v-2zm-8.227-6.925H69.683v2h13.295v-2zm-14.295 1.017c.178 10.909 9.755 18.434 22.522 18.434v-2c-12.05 0-20.368-6.99-20.522-16.467l-2 .033zm75.531 18.043l.002-1h-.002v1zm23.987-29.665l-1-.002 1 .002zm-47.947 0l1 .002v-.001l-1-.002zm14.099 0l1 .004v-.002l-1-.003zm19.749 0l1-.003-1 .003zm-9.89 30.665c7.692.014 13.98-2.832 18.328-8.17 4.326-5.31 6.647-12.983 6.661-22.494l-2-.003c-.014 9.213-2.263 16.387-6.212 21.235-3.927 4.82-9.618 7.445-16.773 7.432l-.004 2zm24.989-30.664c.014-9.46-2.308-17.02-6.647-22.233-4.359-5.236-10.661-7.99-18.34-7.99v2c7.167 0 12.873 2.549 16.803 7.27 3.949 4.744 6.198 11.795 6.184 20.95l2 .003zM144.214.497c-7.679 0-13.961 2.748-18.306 7.982-4.326 5.21-6.64 12.77-6.654 22.239l2 .003c.014-9.172 2.256-16.223 6.192-20.964 3.916-4.717 9.6-7.26 16.768-7.26v-2zm-24.96 30.22c-.028 9.486 2.286 17.153 6.616 22.468 4.351 5.34 10.653 8.2 18.344 8.2v-2c-7.156 0-12.862-2.638-16.793-7.463-3.952-4.851-6.194-12.017-6.167-21.2l-2-.006zm24.96 17.45c-2.545 0-4.714-1.247-6.295-4.024-1.611-2.83-2.593-7.242-2.566-13.42l-2-.008c-.028 6.343.971 11.155 2.828 14.418 1.888 3.317 4.677 5.034 8.033 5.034v-2zm-8.861-17.445c.014-6.053 1.001-10.375 2.604-13.147 1.572-2.718 3.72-3.943 6.257-3.943v-2c-3.336 0-6.104 1.684-7.988 4.942-1.852 3.203-2.859 7.926-2.873 14.143l2 .005zm8.861-17.09c2.552 0 4.707 1.227 6.281 3.944 1.606 2.772 2.594 7.093 2.607 13.146l2-.005c-.014-6.217-1.02-10.94-2.877-14.144-1.888-3.26-4.663-4.94-8.011-4.94v2zm8.888 17.09c.014 6.178-.968 10.59-2.58 13.421-1.58 2.776-3.749 4.024-6.308 4.024v2c3.368 0 6.157-1.716 8.046-5.034 1.858-3.263 2.856-8.075 2.842-14.416l-2 .005zm46.413 29.663l.001-1h-.001v1zm23.987-29.665l-1-.002 1 .002zm-47.947 0l1 .002v-.001l-1-.002zm14.099 0l1 .004v-.002l-1-.003zm19.749 0l1-.003-1 .003zm-9.89 30.665c7.691.014 13.98-2.832 18.328-8.17 4.326-5.31 6.647-12.983 6.661-22.494l-2-.003c-.014 9.213-2.263 16.387-6.212 21.235-3.927 4.82-9.619 7.445-16.774 7.432l-.003 2zm24.989-30.664c.014-9.46-2.308-17.02-6.647-22.233-4.36-5.236-10.661-7.99-18.34-7.99v2c7.167 0 12.873 2.549 16.802 7.27 3.95 4.744 6.198 11.795 6.185 20.95l2 .003zM199.515.497c-7.68 0-13.961 2.748-18.307 7.982-4.325 5.21-6.639 12.77-6.653 22.239l2 .003c.014-9.172 2.256-16.223 6.192-20.964 3.916-4.717 9.6-7.26 16.768-7.26v-2zm-24.96 30.22c-.028 9.486 2.286 17.153 6.616 22.468 4.351 5.34 10.652 8.2 18.344 8.2v-2c-7.156 0-12.862-2.638-16.793-7.463-3.952-4.851-6.194-12.017-6.167-21.2l-2-.006zm24.96 17.45c-2.545 0-4.714-1.247-6.295-4.024-1.612-2.83-2.594-7.242-2.566-13.42l-2-.008c-.028 6.343.97 11.155 2.828 14.418 1.888 3.317 4.677 5.034 8.033 5.034v-2zm-8.861-17.445c.013-6.053 1.001-10.375 2.604-13.147 1.572-2.718 3.72-3.943 6.257-3.943v-2c-3.336 0-6.104 1.684-7.988 4.942-1.853 3.203-2.859 7.926-2.873 14.143l2 .005zm8.861-17.09c2.552 0 4.707 1.227 6.281 3.944 1.606 2.772 2.593 7.093 2.607 13.146l2-.005c-.014-6.217-1.021-10.94-2.877-14.144-1.888-3.26-4.664-4.94-8.011-4.94v2zm8.888 17.09c.014 6.178-.968 10.59-2.58 13.421-1.58 2.776-3.749 4.024-6.308 4.024v2c3.368 0 6.157-1.716 8.046-5.034 1.858-3.263 2.856-8.075 2.842-14.416l-2 .005zm46.412 29.663l.002-1h-.002v1zm23.988-29.665l-1-.002 1 .002zm-47.947 0l1 .002v-.001l-1-.002zm14.099 0l1 .004v-.002l-1-.003zm19.749 0l1-.003-1 .003zm-9.891 30.665c7.692.014 13.981-2.832 18.328-8.17 4.327-5.31 6.647-12.983 6.662-22.494l-2-.003c-.014 9.213-2.264 16.387-6.212 21.235-3.928 4.82-9.619 7.445-16.774 7.432l-.004 2zm24.99-30.664c.014-9.46-2.308-17.02-6.648-22.233-4.359-5.236-10.66-7.99-18.34-7.99v2c7.168 0 12.873 2.549 16.803 7.27 3.95 4.744 6.198 11.795 6.185 20.95l2 .003zM254.815.497c-7.679 0-13.96 2.748-18.306 7.982-4.325 5.21-6.639 12.77-6.653 22.239l2 .003c.013-9.172 2.256-16.223 6.192-20.964 3.915-4.717 9.6-7.26 16.767-7.26v-2zm-24.959 30.22c-.028 9.486 2.286 17.153 6.616 22.468 4.351 5.34 10.652 8.2 18.343 8.2v-2c-7.155 0-12.861-2.638-16.792-7.463-3.952-4.851-6.194-12.017-6.167-21.2l-2-.006zm24.959 17.45c-2.544 0-4.713-1.247-6.294-4.024-1.612-2.83-2.594-7.242-2.566-13.42l-2-.008c-.029 6.343.97 11.155 2.828 14.418 1.888 3.317 4.677 5.034 8.032 5.034v-2zm-8.86-17.445c.013-6.053 1.001-10.375 2.604-13.147 1.571-2.718 3.72-3.943 6.256-3.943v-2c-3.335 0-6.103 1.684-7.987 4.942-1.853 3.203-2.859 7.926-2.873 14.143l2 .005zm8.86-17.09c2.552 0 4.707 1.227 6.281 3.944 1.606 2.772 2.594 7.093 2.608 13.146l2-.005c-.014-6.217-1.021-10.94-2.877-14.144-1.888-3.26-4.664-4.94-8.012-4.94v2zm8.889 17.09c.013 6.178-.968 10.59-2.58 13.421-1.581 2.776-3.75 4.024-6.309 4.024v2c3.369 0 6.158-1.716 8.047-5.034 1.857-3.263 2.856-8.075 2.842-14.416l-2 .005z" fill="#1E1E1E"/></svg>