<svg width="697" height="438" fill="none" xmlns="http://www.w3.org/2000/svg"><g filter="url(#filter0_d)"><path fill-rule="evenodd" clip-rule="evenodd" d="M82.66 20h568.68c8.649 0 15.66 7.01 15.66 15.66v346.153c0 8.649-7.011 15.66-15.659 15.66H82.659c-8.648 0-15.659-7.011-15.659-15.66V35.659C67 27.011 74.01 20 82.66 20z" fill="url(#paint0_linear)"/></g><path d="M70.297 35.66c0-6.828 5.535-12.363 12.362-12.363h568.682c6.827 0 12.362 5.535 12.362 12.362v346.154c0 6.828-5.535 12.363-12.362 12.363H82.659c-6.827 0-12.362-5.535-12.362-12.363V35.659z" fill="url(#paint1_linear)"/><path fill-rule="evenodd" clip-rule="evenodd" d="M82.66 20h568.68c8.649 0 15.66 7.01 15.66 15.66v346.153c0 8.649-7.011 15.66-15.659 15.66H82.659c-8.648 0-15.659-7.011-15.659-15.66V35.659C67 27.011 74.01 20 82.66 20zm0 3.297c-6.828 0-12.363 5.535-12.363 12.362v346.154c0 6.828 5.535 12.363 12.362 12.363h568.682c6.827 0 12.362-5.535 12.362-12.363V35.659c0-6.827-5.535-12.362-12.362-12.362H82.659z" fill="url(#paint2_linear)"/><mask id="a" maskUnits="userSpaceOnUse" x="70" y="23" width="594" height="371"><path d="M70 35.363C70 28.535 75.535 23 82.363 23h568.681c6.828 0 12.363 5.535 12.363 12.363v346.154c0 6.827-5.535 12.362-12.363 12.362H82.363c-6.828 0-12.363-5.535-12.363-12.362V35.363z" fill="#181818"/></mask><g mask="url(#a)"><path fill="#fff" d="M48.773-1.073h672v450h-672z"/><path fill-rule="evenodd" clip-rule="evenodd" d="M565.209 159.732c28.035 0 50.761-22.727 50.761-50.762s-22.726-50.761-50.761-50.761c-28.035 0-50.762 22.726-50.762 50.761 0 28.035 22.727 50.762 50.762 50.762zm51.97-50.762c0 28.703-23.268 51.971-51.97 51.971-28.703 0-51.971-23.268-51.971-51.971 0-28.702 23.268-51.97 51.971-51.97 28.702 0 51.97 23.268 51.97 51.97z" fill="#A7A9AC"/><path fill-rule="evenodd" clip-rule="evenodd" d="M473.414 159.732c28.035 0 50.762-22.727 50.762-50.762s-22.727-50.761-50.762-50.761-50.762 22.726-50.762 50.761c0 28.035 22.727 50.762 50.762 50.762zm51.971-50.762c0 28.703-23.268 51.971-51.971 51.971-28.702 0-51.97-23.268-51.97-51.971 0-28.702 23.268-51.97 51.97-51.97 28.703 0 51.971 23.268 51.971 51.97z" fill="#A7A9AC"/><path fill-rule="evenodd" clip-rule="evenodd" d="M381.559 159.732c28.035 0 50.762-22.727 50.762-50.762s-22.727-50.761-50.762-50.761-50.761 22.726-50.761 50.761c0 28.035 22.726 50.762 50.761 50.762zm51.971-50.762c0 28.703-23.268 51.971-51.971 51.971-28.702 0-51.97-23.268-51.97-51.971 0-28.702 23.268-51.97 51.97-51.97 28.703 0 51.971 23.268 51.971 51.97zm39.884 142.557c28.035 0 50.762-22.727 50.762-50.762s-22.727-50.762-50.762-50.762-50.762 22.727-50.762 50.762 22.727 50.762 50.762 50.762zm51.971-50.762c0 28.702-23.268 51.97-51.971 51.97-28.702 0-51.97-23.268-51.97-51.97 0-28.703 23.268-51.971 51.97-51.971 28.703 0 51.971 23.268 51.971 51.971z" fill="#A7A9AC"/><path d="M441.149 111.63h2.299c1.505 0 2.475-.824 2.475-2.016 0-1.196-.97-1.968-2.475-1.968h-.812v-.962h2.716v-1.207h-4.203v6.153zm1.487-1.178v-1.653h.812c.649 0 1.003.349 1.003.803 0 .474-.354.85-1.003.85h-.812zm4.898 2.908c1.057 0 1.583-.535 1.838-1.289l1.74-5.053-1.547-.003-.863 3.293h-.048l-.85-3.293h-1.538l1.64 4.783-.057.138c-.141.345-.46.351-.892.21l-.325 1.067c.223.09.55.147.902.147zm5.391-6.345h-1.49l1.274 2.307-1.34 2.308h1.49l.826-1.533.847 1.533h1.469l-1.337-2.308 1.289-2.307h-1.481l-.787 1.52-.76-1.52zm6.962 0h-3.263v4.615h1.421v-3.492h1.842v-1.123zm1.855 4.693c.643 0 1.088-.25 1.34-.721h.036v.643h1.382v-3.137c0-.976-.868-1.538-2.043-1.538-1.241 0-1.944.625-2.061 1.466l1.355.048c.063-.295.306-.475.694-.475.361 0 .589.174.589.484v.015c0 .282-.307.342-1.094.412-.934.078-1.715.423-1.715 1.445 0 .913.634 1.358 1.517 1.358zm.454-.962c-.34 0-.58-.162-.58-.468 0-.298.234-.478.652-.541.273-.039.61-.099.775-.187v.439c0 .451-.379.757-.847.757zm2.977.884h.433c.964 0 1.562-.601 1.64-2.164l.072-1.328h.956v3.492h1.391v-4.615h-3.654l-.075 2.043c-.039 1.039-.225 1.439-.625 1.439h-.147l.009 1.133zm4.99-3.492h1.457v3.492h1.394v-3.492h1.475v-1.123h-4.326v1.123zm7.043 3.579c1.21 0 2.006-.586 2.175-1.494l-1.349-.039c-.114.307-.415.472-.799.472-.565 0-.914-.375-.914-.94v-.039h3.077v-.367c0-1.52-.926-2.355-2.236-2.355-1.394 0-2.289.955-2.289 2.385 0 1.478.883 2.377 2.335 2.377zm-.887-2.894c.021-.459.385-.808.871-.808.484 0 .833.337.839.808h-1.71zm3.827 4.537h1.469v-2.479h.03c.186.427.601.815 1.298.815 1.022 0 1.845-.8 1.845-2.371 0-1.628-.871-2.37-1.836-2.37-.73 0-1.13.426-1.307.85h-.045v-.79h-1.454v6.345zm1.439-4.038c0-.754.313-1.22.85-1.22.544 0 .845.478.845 1.22 0 .745-.301 1.229-.845 1.229-.537 0-.85-.481-.85-1.229zm6.127 2.395c1.298 0 2.103-.754 2.142-1.896h-1.373c-.054.49-.349.757-.751.757-.517 0-.853-.436-.853-1.256 0-.814.339-1.25.853-1.25.42 0 .694.286.751.757h1.373c-.033-1.135-.862-1.874-2.145-1.874-1.451 0-2.329.967-2.329 2.382 0 1.409.872 2.38 2.332 2.38zm2.894-.087h1.469v-1.533h.427l1.012 1.533h1.722l-1.569-2.305 1.553-2.31h-1.7l-1.121 1.718h-.324v-1.718h-1.469v4.615zm6.48-1.902v-2.713h-1.391v4.615h1.415l1.472-2.722v2.722h1.391v-4.615h-1.412l-1.475 2.713zm5.98 1.989c1.21 0 2.007-.586 2.175-1.494l-1.349-.039c-.114.307-.415.472-.799.472-.565 0-.914-.375-.914-.94v-.039h3.077v-.367c0-1.52-.926-2.355-2.235-2.355-1.394 0-2.29.955-2.29 2.385 0 1.478.884 2.377 2.335 2.377zm-.887-2.894c.021-.459.385-.808.872-.808.483 0 .832.337.838.808h-1.71zm-47.687 16.623h1.47v-2.478h.03c.186.426.601.814 1.298.814 1.021 0 1.844-.799 1.844-2.371 0-1.628-.871-2.37-1.835-2.37-.731 0-1.13.426-1.307.85h-.045v-.79h-1.455v6.345zm1.44-4.038c0-.754.312-1.219.85-1.219.544 0 .844.477.844 1.219 0 .745-.3 1.229-.844 1.229-.538 0-.85-.481-.85-1.229zm6.129 2.395c1.211 0 2.007-.586 2.175-1.493l-1.349-.039c-.114.306-.414.471-.799.471-.565 0-.913-.375-.913-.94v-.039h3.076v-.367c0-1.52-.925-2.355-2.235-2.355-1.394 0-2.289.955-2.289 2.385 0 1.478.883 2.377 2.334 2.377zm-.886-2.893c.021-.46.384-.809.871-.809.484 0 .832.337.838.809h-1.709zm3.827-1.809v4.615h6.486v-4.615h-1.391v3.482h-1.157v-3.482h-1.391v3.482h-1.156v-3.482h-1.391zm9.535 4.702c1.211 0 2.007-.586 2.175-1.493l-1.349-.039c-.114.306-.415.471-.799.471-.565 0-.913-.375-.913-.94v-.039h3.076v-.367c0-1.52-.925-2.355-2.235-2.355-1.394 0-2.29.955-2.29 2.385 0 1.478.884 2.377 2.335 2.377zm-.886-2.893c.021-.46.384-.809.871-.809.484 0 .832.337.838.809h-1.709zm5.217-1.809h-1.391v4.615h1.391v-1.761h1.367v1.761h1.382v-4.615h-1.382v1.733h-1.367v-1.733zm5.032 2.713v-2.713h-1.391v4.615h1.415l1.472-2.722v2.722h1.391v-4.615h-1.412l-1.475 2.713zm6.502 1.902h1.367v-4.615h-2.112c-1.262 0-2.058.643-2.049 1.562-.006.544.31.98.859 1.229l-.949 1.824h1.376l.832-1.596h.676v1.596zm0-2.527h-.733c-.454 0-.676-.225-.67-.478-.006-.243.213-.489.658-.489h.745v.967zm-132.515-15.076c-1.505 0-2.604.989-2.604 2.545 0 1.511 1.081 2.458 2.604 2.458h.054v.766h1.397v-.766h.061c1.514 0 2.595-.959 2.595-2.449 0-1.559-1.081-2.554-2.595-2.554h-.061v-.745h-1.397v.745h-.054zm0 1.229h.054v2.545h-.054c-.691 0-1.243-.37-1.243-1.229 0-.916.534-1.316 1.243-1.316zm1.451 0h.07c.7 0 1.216.409 1.216 1.325 0 .829-.516 1.22-1.216 1.22h-.07v-2.545zm4.912 2.386v-2.713h-1.391v4.614h1.415l1.472-2.722v2.722h1.391v-4.614h-1.412l-1.475 2.713zm5.213-2.713h-1.391v4.614h1.391v-1.76h1.367v1.76h1.382v-4.614h-1.382v1.733h-1.367v-1.733zm4.942 4.692c.643 0 1.087-.249 1.34-.721h.036v.643h1.382v-3.136c0-.977-.869-1.539-2.043-1.539-1.241 0-1.944.625-2.061 1.467l1.355.048c.063-.295.306-.475.694-.475.36 0 .589.174.589.484v.015c0 .282-.307.342-1.094.411-.934.078-1.716.424-1.716 1.445 0 .914.634 1.358 1.518 1.358zm.453-.961c-.339 0-.58-.162-.58-.469 0-.297.235-.477.652-.54.274-.04.61-.1.776-.187v.439c0 .451-.379.757-.848.757zm4.594-3.731h-1.391v4.614h1.391v-1.76h1.367v1.76h1.382v-4.614h-1.382v1.733h-1.367v-1.733zm5.795 4.701c1.298 0 2.103-.754 2.142-1.895h-1.373c-.054.489-.349.757-.751.757-.517 0-.854-.436-.854-1.256 0-.814.34-1.25.854-1.25.42 0 .694.286.751.757h1.373c-.033-1.135-.862-1.875-2.145-1.875-1.451 0-2.329.968-2.329 2.383 0 1.409.872 2.379 2.332 2.379zm5.048 0c1.451 0 2.331-.958 2.331-2.379 0-1.424-.88-2.383-2.331-2.383s-2.332.959-2.332 2.383c0 1.421.881 2.379 2.332 2.379zm.009-1.108c-.544 0-.844-.517-.844-1.28 0-.766.3-1.286.844-1.286.526 0 .826.52.826 1.286 0 .763-.3 1.28-.826 1.28zm3.075 1.021h2.301c1.226 0 1.896-.45 1.896-1.268 0-.567-.457-1.078-1.394-1.129.709-.12 1.111-.484 1.111-.962 0-.82-.733-1.255-1.922-1.255h-1.992v4.614zm1.367-1.063v-.869h.934c.31 0 .502.172.502.451 0 .261-.192.418-.502.418h-.934zm0-1.665v-.796h.625c.339 0 .549.15.549.394 0 .252-.192.402-.51.402h-.664zm4.948-.552v-1.334h-1.391v4.614h2.262c1.268 0 2.031-.634 2.037-1.625-.006-1.016-.769-1.655-2.037-1.655h-.871zm3.323 3.28h1.469v-4.614h-1.469v4.614zm-3.323-2.157h.871c.385 0 .658.219.664.529-.006.297-.279.505-.664.505h-.871v-1.034zm7.88 2.244c1.21 0 2.007-.585 2.175-1.493l-1.349-.039c-.114.307-.415.472-.799.472-.565 0-.914-.376-.914-.941v-.039h3.077v-.366c0-1.52-.925-2.356-2.235-2.356-1.394 0-2.29.956-2.29 2.386 0 1.478.884 2.376 2.335 2.376zm-.887-2.893c.021-.459.385-.808.872-.808.483 0 .832.337.838.808h-1.71zm-42.841 16.623h1.469v-2.479h.03c.187.427.601.815 1.298.815 1.022 0 1.845-.8 1.845-2.371 0-1.628-.871-2.37-1.836-2.37-.73 0-1.129.426-1.307.85h-.045v-.79h-1.454v6.345zm1.439-4.038c0-.754.313-1.22.851-1.22.543 0 .844.478.844 1.22 0 .745-.301 1.229-.844 1.229-.538 0-.851-.481-.851-1.229zm6.13 2.395c1.211 0 2.007-.586 2.175-1.494l-1.349-.039c-.114.307-.414.472-.799.472-.565 0-.913-.376-.913-.94v-.039h3.076v-.367c0-1.52-.925-2.355-2.235-2.355-1.394 0-2.289.955-2.289 2.385 0 1.478.883 2.377 2.334 2.377zm-.886-2.894c.021-.459.384-.808.871-.808.484 0 .832.337.838.808h-1.709zm3.826-1.808v4.614h6.487v-4.614h-1.391v3.482h-1.157v-3.482h-1.391v3.482h-1.157v-3.482h-1.391zm9.536 4.702c1.21 0 2.007-.586 2.175-1.494l-1.349-.039c-.114.307-.415.472-.799.472-.565 0-.914-.376-.914-.94v-.039h3.077v-.367c0-1.52-.926-2.355-2.235-2.355-1.394 0-2.29.955-2.29 2.385 0 1.478.883 2.377 2.335 2.377zm-.887-2.894c.021-.459.385-.808.872-.808.483 0 .832.337.838.808h-1.71zm5.218-1.808h-1.391v4.614h1.391v-1.76h1.367v1.76h1.382v-4.614h-1.382v1.733h-1.367v-1.733zm5.032 2.713v-2.713h-1.391v4.614h1.415l1.472-2.722v2.722h1.391v-4.614h-1.412l-1.475 2.713zm6.502 1.901h1.367v-4.614h-2.112c-1.262 0-2.058.643-2.049 1.562-.006.544.309.979.859 1.229l-.949 1.823h1.376l.832-1.595h.676v1.595zm0-2.526h-.733c-.454 0-.676-.226-.67-.478-.006-.243.213-.49.658-.49h.745v.968zm141.737-9.559h1.487v-2.473h2.425v2.473h1.484v-6.153h-1.484v2.469h-2.425v-2.469h-1.487v6.153zm7.63.078c.643 0 1.087-.25 1.34-.721h.036v.643h1.382v-3.137c0-.976-.868-1.538-2.043-1.538-1.241 0-1.944.625-2.061 1.466l1.355.048c.063-.295.306-.475.694-.475.36 0 .589.174.589.484v.015c0 .282-.307.342-1.094.412-.934.078-1.715.423-1.715 1.445 0 .913.634 1.358 1.517 1.358zm.454-.962c-.34 0-.58-.162-.58-.468 0-.298.234-.478.652-.541.273-.039.61-.099.775-.187v.439c0 .451-.379.757-.847.757zm2.977.884h.433c.964 0 1.562-.601 1.64-2.164l.072-1.328h.955v3.492h1.391v-4.615h-3.653l-.075 2.043c-.039 1.039-.225 1.439-.625 1.439h-.147l.009 1.133zm7.543.087c1.451 0 2.332-.959 2.332-2.38 0-1.424-.881-2.382-2.332-2.382-1.451 0-2.331.958-2.331 2.382 0 1.421.88 2.38 2.331 2.38zm.009-1.109c-.544 0-.844-.517-.844-1.28 0-.766.3-1.286.844-1.286.526 0 .826.52.826 1.286 0 .763-.3 1.28-.826 1.28zm6.338-3.593h-3.263v4.615h1.421v-3.492h1.842v-1.123zm2.708 4.702c1.451 0 2.332-.959 2.332-2.38 0-1.424-.881-2.382-2.332-2.382-1.451 0-2.331.958-2.331 2.382 0 1.421.88 2.38 2.331 2.38zm.009-1.109c-.543 0-.844-.517-.844-1.28 0-.766.301-1.286.844-1.286.526 0 .827.52.827 1.286 0 .763-.301 1.28-.827 1.28zm3.075 1.022h2.302c1.225 0 1.895-.451 1.895-1.268 0-.568-.456-1.079-1.394-1.13.709-.12 1.112-.484 1.112-.961 0-.821-.733-1.256-1.923-1.256h-1.992v4.615zm1.367-1.064v-.868h.935c.309 0 .501.171.501.45 0 .262-.192.418-.501.418h-.935zm0-1.664v-.797h.625c.34 0 .55.151.55.394 0 .252-.192.403-.511.403h-.664zm4.948-.553v-1.334h-1.391v4.615h2.263c1.268 0 2.031-.634 2.037-1.626-.006-1.015-.769-1.655-2.037-1.655h-.872zm3.323 3.281h1.469v-4.615h-1.469v4.615zm-3.323-2.158h.872c.384 0 .658.22.664.529-.006.298-.28.505-.664.505h-.872v-1.034zm7.88 2.245c1.211 0 2.007-.586 2.175-1.494l-1.349-.039c-.114.307-.414.472-.799.472-.565 0-.913-.375-.913-.94v-.039h3.076v-.367c0-1.52-.925-2.355-2.235-2.355-1.394 0-2.289.955-2.289 2.385 0 1.478.883 2.377 2.334 2.377zm-.886-2.894c.021-.459.384-.808.871-.808.484 0 .832.337.838.808h-1.709zm-39.198 16.623h1.469v-2.478h.03c.187.426.601.814 1.298.814 1.022 0 1.845-.799 1.845-2.371 0-1.628-.871-2.37-1.836-2.37-.73 0-1.129.426-1.307.85h-.045v-.79h-1.454v6.345zm1.439-4.038c0-.754.313-1.219.851-1.219.543 0 .844.477.844 1.219 0 .745-.301 1.229-.844 1.229-.538 0-.851-.481-.851-1.229zm6.13 2.395c1.211 0 2.007-.586 2.175-1.493l-1.349-.039c-.114.306-.414.471-.799.471-.565 0-.913-.375-.913-.94v-.039h3.076v-.367c0-1.52-.925-2.355-2.235-2.355-1.394 0-2.289.955-2.289 2.385 0 1.478.883 2.377 2.334 2.377zm-.886-2.893c.021-.46.384-.809.871-.809.484 0 .832.337.838.809h-1.709zm3.827-1.809v4.615h6.486v-4.615h-1.391v3.482h-1.157v-3.482h-1.391v3.482h-1.156v-3.482h-1.391zm9.535 4.702c1.21 0 2.007-.586 2.175-1.493l-1.349-.039c-.114.306-.415.471-.799.471-.565 0-.914-.375-.914-.94v-.039h3.077v-.367c0-1.52-.926-2.355-2.235-2.355-1.394 0-2.29.955-2.29 2.385 0 1.478.884 2.377 2.335 2.377zm-.887-2.893c.021-.46.385-.809.872-.809.483 0 .832.337.838.809h-1.71zm5.218-1.809h-1.391v4.615h1.391v-1.761h1.367v1.761h1.382v-4.615h-1.382v1.733h-1.367v-1.733zm5.032 2.713v-2.713h-1.391v4.615h1.415l1.472-2.722v2.722h1.391v-4.615h-1.412l-1.475 2.713zm6.502 1.902h1.367v-4.615h-2.112c-1.262 0-2.058.643-2.049 1.562-.006.544.309.98.859 1.229l-.949 1.824h1.376l.832-1.596h.676v1.596zm0-2.527h-.733c-.454 0-.676-.225-.67-.478-.006-.243.213-.489.658-.489h.745v.967zm-143.779 82.379h.481c1.033 0 1.484-.64 1.814-1.361l2.115-4.876h-1.502l-1.099 2.764-1.367-2.764h-1.527l2.272 4.336-.069.189c-.121.387-.289.535-.803.535h-.315v1.177zm4.7-.084h1.373v-3.491h1.403v3.491h1.391v-4.614h-4.167v4.614zm5.097 1.731h1.469v-2.479h.03c.187.427.601.814 1.298.814 1.022 0 1.845-.799 1.845-2.37 0-1.628-.871-2.371-1.836-2.371-.73 0-1.129.427-1.307.851h-.045v-.79h-1.454v6.345zm1.439-4.038c0-.754.313-1.22.851-1.22.543 0 .844.478.844 1.22 0 .745-.301 1.229-.844 1.229-.538 0-.851-.481-.851-1.229zm5.274 2.385c.643 0 1.087-.249 1.34-.721h.036v.643h1.382v-3.136c0-.977-.868-1.539-2.043-1.539-1.241 0-1.944.625-2.061 1.467l1.355.048c.063-.295.306-.475.694-.475.36 0 .589.174.589.484v.015c0 .282-.307.342-1.094.411-.934.078-1.715.424-1.715 1.445 0 .914.634 1.358 1.517 1.358zm.453-.961c-.339 0-.579-.162-.579-.469 0-.297.234-.477.652-.541.273-.039.609-.099.775-.186v.439c0 .451-.379.757-.848.757zm3.203.883h2.301c1.226 0 1.896-.45 1.896-1.268 0-.567-.456-1.078-1.394-1.129.709-.12 1.112-.484 1.112-.962 0-.82-.733-1.255-1.923-1.255h-1.992v4.614zm1.367-1.063v-.869h.934c.31 0 .502.172.502.451 0 .261-.192.418-.502.418h-.934zm0-1.665v-.796h.625c.34 0 .55.15.55.394 0 .252-.192.402-.511.402h-.664zm3.332 2.728h.433c.964 0 1.562-.601 1.64-2.163l.072-1.328h.955v3.491h1.391v-4.614h-3.653l-.075 2.043c-.039 1.039-.225 1.439-.625 1.439h-.147l.009 1.132zm7.546.087c1.211 0 2.007-.585 2.175-1.493l-1.349-.039c-.114.307-.414.472-.799.472-.565 0-.913-.376-.913-.941v-.039h3.076v-.366c0-1.52-.925-2.356-2.235-2.356-1.394 0-2.289.956-2.289 2.386 0 1.478.883 2.376 2.334 2.376zm-.886-2.893c.021-.459.384-.808.871-.808.484 0 .832.336.838.808h-1.709zm5.218-1.808h-1.391v4.614h1.391v-1.76h1.367v1.76h1.382v-4.614h-1.382v1.733h-1.367v-1.733zm7.795 0h-1.382v2.16a2.684 2.684 0 01-.504.051c-.709 0-.896-.132-.896-.61v-1.604h-1.373v1.604c0 1.226.851 1.733 2.269 1.733.144 0 .324-.018.504-.051v1.331h1.382v-4.614zm3.051 4.701c1.21 0 2.006-.585 2.175-1.493l-1.349-.039c-.114.307-.415.472-.799.472-.565 0-.914-.376-.914-.941v-.039h3.077v-.366c0-1.52-.926-2.356-2.236-2.356-1.394 0-2.289.956-2.289 2.386 0 1.478.883 2.376 2.335 2.376zm-.887-2.893c.021-.459.385-.808.871-.808.484 0 .833.336.839.808h-1.71zm5.981 2.893c1.298 0 2.103-.754 2.142-1.895h-1.373c-.054.489-.348.757-.751.757-.517 0-.853-.436-.853-1.256 0-.814.339-1.25.853-1.25.421 0 .694.285.751.757h1.373c-.033-1.135-.862-1.875-2.145-1.875-1.451 0-2.328.968-2.328 2.383 0 1.409.871 2.379 2.331 2.379zm2.894-.087h1.469v-1.532h.427l1.012 1.532h1.722l-1.568-2.304 1.553-2.31h-1.701l-1.12 1.718h-.325v-1.718h-1.469v4.614zm6.481-1.902v-2.712h-1.391v4.614h1.415l1.472-2.722v2.722h1.391v-4.614h-1.412l-1.475 2.712zm5.979 1.989c1.211 0 2.007-.585 2.175-1.493l-1.349-.039c-.114.307-.414.472-.799.472-.565 0-.913-.376-.913-.941v-.039h3.076v-.366c0-1.52-.925-2.356-2.235-2.356-1.394 0-2.289.956-2.289 2.386 0 1.478.883 2.376 2.334 2.376zm-.886-2.893c.021-.459.384-.808.871-.808.484 0 .832.336.838.808h-1.709zm-51.137 16.623h1.47v-2.479h.03c.186.427.6.815 1.298.815 1.021 0 1.844-.8 1.844-2.371 0-1.628-.871-2.37-1.835-2.37-.731 0-1.13.426-1.307.85h-.045v-.79h-1.455v6.345zm1.44-4.038c0-.754.312-1.22.85-1.22.544 0 .844.478.844 1.22 0 .745-.3 1.229-.844 1.229-.538 0-.85-.481-.85-1.229zm6.129 2.395c1.211 0 2.007-.586 2.175-1.494l-1.349-.039c-.114.307-.414.472-.799.472-.565 0-.913-.376-.913-.94v-.039h3.076v-.367c0-1.52-.925-2.355-2.235-2.355-1.394 0-2.289.955-2.289 2.385 0 1.478.883 2.377 2.334 2.377zm-.886-2.894c.021-.459.384-.808.871-.808.484 0 .832.337.838.808h-1.709zm3.827-1.808v4.614h6.486v-4.614h-1.391v3.482h-1.157v-3.482h-1.391v3.482h-1.156v-3.482h-1.391zm9.535 4.702c1.211 0 2.007-.586 2.175-1.494l-1.349-.039c-.114.307-.415.472-.799.472-.565 0-.913-.376-.913-.94v-.039h3.076v-.367c0-1.52-.925-2.355-2.235-2.355-1.394 0-2.29.955-2.29 2.385 0 1.478.884 2.377 2.335 2.377zm-.886-2.894c.021-.459.384-.808.871-.808.484 0 .832.337.838.808h-1.709zm5.217-1.808h-1.391v4.614h1.391v-1.76h1.367v1.76h1.382v-4.614h-1.382v1.733h-1.367v-1.733zm5.032 2.713v-2.713h-1.391v4.614h1.415l1.472-2.722v2.722h1.391v-4.614h-1.412l-1.475 2.713zm6.502 1.901h1.367v-4.614h-2.112c-1.262 0-2.058.643-2.049 1.562-.006.544.31.979.859 1.229l-.949 1.823h1.376l.832-1.595h.676v1.595zm0-2.526h-.733c-.454 0-.676-.226-.67-.478-.006-.243.213-.49.658-.49h.745v.968z" fill="#1E1E1E"/><g clip-path="url(#clip0)" fill="#8A2C5B"><path d="M377.556 91.914a.567.567 0 00.4-.166l3.188-3.188 1.299 1.3a.568.568 0 00.801 0l3.565-3.566v1.276a.568.568 0 00.967.4.568.568 0 00.166-.4v-2.644a.563.563 0 00-.566-.566h-2.644a.57.57 0 00-.567.566.567.567 0 00.567.567h1.276l-3.164 3.165-1.299-1.3a.579.579 0 00-.401-.166.566.566 0 00-.401.167l-3.588 3.588a.569.569 0 00.086.871.567.567 0 00.315.096zm9.82 1.133h-9.82a.568.568 0 000 1.133h9.82a.565.565 0 00.4-.967.565.565 0 00-.4-.166z"/></g><g clip-path="url(#clip1)" fill="#8A2C5B"><path d="M478.414 91.536a.472.472 0 00.472-.472v-5.949a1.89 1.89 0 00-1.888-1.888h-6.563a1.89 1.89 0 00-1.888 1.888v8.31a1.89 1.89 0 001.888 1.888h6.563a1.89 1.89 0 001.888-1.889.472.472 0 10-.944 0 .946.946 0 01-.944.945h-6.563a.945.945 0 01-.944-.945v-8.309c0-.52.424-.944.944-.944h6.563c.52 0 .944.424.944.944v5.949c0 .26.211.472.472.472z"/><path d="M476.525 92.48h-1.888a.472.472 0 100 .944h1.888a.473.473 0 100-.944zm-5.618-3.588a.473.473 0 000 .944c.261 0 .498-.211.498-.472 0-.26-.237-.472-.498-.472zm1.889.944a.472.472 0 100-.943.472.472 0 000 .943zm1.865 0a.473.473 0 10-.001-.945.473.473 0 00.001.945zm-3.754.85a.472.472 0 000 .944c.261 0 .496-.21.496-.472 0-.26-.235-.472-.496-.472zm1.889.944a.472.472 0 100-.943.472.472 0 000 .944zm1.865 0a.473.473 0 10-.001-.945.473.473 0 00.001.945zm1.864-1.794a.473.473 0 100-.945.473.473 0 000 .945zm-5.618 3.588a.472.472 0 100-.943.472.472 0 000 .944zm5.618-1.794a.473.473 0 100-.945.473.473 0 000 .945zm-3.753 1.794a.472.472 0 100-.943.472.472 0 000 .944zm3.753-8.309h-5.618a.473.473 0 00-.472.472v1.889c0 .26.212.472.472.472h5.618a.473.473 0 00.473-.472v-1.889a.473.473 0 00-.473-.472zm-.472 1.889h-4.674v-.945h4.674v.945z"/></g><g clip-path="url(#clip2)" fill="#8A2C5B"><path d="M567.824 83.62a.689.689 0 00-.926.302l-5.121 10.072a.689.689 0 001.228.624l5.121-10.072a.689.689 0 00-.302-.926zm-3.677 3.317a2.615 2.615 0 00-2.612-2.612 2.614 2.614 0 00-2.611 2.612 2.614 2.614 0 002.611 2.612 2.615 2.615 0 002.612-2.612zm-2.612 1.234c-.68 0-1.234-.553-1.234-1.234a1.236 1.236 0 012.469 0c0 .68-.554 1.234-1.235 1.234zm6.864.821a2.615 2.615 0 00-2.612 2.611 2.614 2.614 0 002.612 2.612 2.615 2.615 0 002.611-2.612 2.614 2.614 0 00-2.611-2.611zm0 3.846a1.236 1.236 0 01-1.235-1.235c0-.68.554-1.234 1.235-1.234.68 0 1.234.554 1.234 1.234 0 .68-.554 1.235-1.234 1.235z"/></g><g clip-path="url(#clip3)"><path d="M477.342 178.807l-.667.667 1.265 1.265h-1.408c-.923 0-1.759.38-2.358.993v-4.848l1.293 1.293.667-.667-2.418-2.417-2.417 2.417.667.667 1.264-1.265v4.82a3.288 3.288 0 00-2.358-.993h-1.37l1.256-1.256-.667-.667-2.418 2.418 2.418 2.417.667-.667-1.303-1.302h1.417a2.36 2.36 0 012.358 2.358v3.118h.944v-3.118a2.36 2.36 0 012.358-2.358h1.436l-1.293 1.293.667.667 2.418-2.417-2.418-2.418z" fill="#8A2C5B"/></g><path d="M667.3 290.815H280.486v68.309H667.3v-68.309z" fill="#E1E1E1"/><path d="M425.498 258.825l4.067-6.796s-3.881-17.23-6.327-25.779c-2.18-7.672-7.284-9.557-11.085-8.468l-27.115 4.592c-.213-.026-.399-.026-.585-.053-4.758-.106-12.6 17.071-14.461 27.053 2.472-.797 8.028-1.62 15.099-.664.213-.425.957-1.672 1.967-3.451.107.212.24.398.346.584 1.675 2.787 6.22 12.239 9.277 13.194l28.843.903-.345-1.115h.319z" fill="#1E1E1E"/><path d="M397.187 209.074l-.798.505s-4.732 2.575-6.22-2.204c-1.117-3.61 2.339-4.752 4.094-5.097" fill="#fff"/><path d="M393.678 211.092c-.532 0-1.117-.08-1.675-.319-1.223-.504-2.1-1.566-2.605-3.133-.426-1.354-.319-2.548.266-3.557.957-1.593 2.924-2.283 4.412-2.575a.788.788 0 01.931.637.787.787 0 01-.638.929c-.957.186-2.659.664-3.35 1.832-.372.61-.398 1.354-.133 2.256.346 1.115.904 1.832 1.675 2.124 1.409.584 3.164-.265 3.376-.398l.771-.504a.781.781 0 011.09.239.779.779 0 01-.239 1.088l-.798.504c-.026 0-.026.027-.053.027-.026.106-1.409.85-3.03.85z" fill="#1E1E1E"/><path d="M408.166 215.525l-1.808 4.009 2.685-.584c.292.531 3.775 8.044-4.679 9.982-5.556 1.274-11.962-3.239-14.86-7.327l4.679-.85 3.828-9.212 10.155 3.982z" fill="#fff"/><path d="M402.424 229.941c-5.477 0-11.032-4.328-13.558-7.885a.792.792 0 01-.08-.77.823.823 0 01.585-.478l4.254-.77 3.668-8.814c.16-.398.611-.584 1.037-.424l10.128 3.982a.758.758 0 01.452.451c.08.212.08.425 0 .637l-1.17 2.575 1.143-.239a.804.804 0 01.878.399c.026.026 1.993 3.796.505 7.141-.904 1.991-2.818 3.345-5.689 4.009-.718.106-1.436.186-2.153.186zm-11.484-7.779c2.897 3.425 8.347 7.115 13.265 6 2.366-.531 3.907-1.593 4.599-3.106.85-1.912.186-4.168-.213-5.177l-2.047.451a.879.879 0 01-.797-.265c-.187-.239-.24-.558-.107-.823l1.462-3.239-8.639-3.398-3.536 8.495a.822.822 0 01-.585.478l-3.402.584z" fill="#1E1E1E"/><path d="M414.12 200.074c.638 2.177 2.473 12.584-4.173 15.133-6.646 2.548-12.92-2.602-15.286-9-2.365-6.398-.877-12.637 3.297-14.363 4.173-1.725 11.484-7.593 16.162 8.23z" fill="#fff"/><path d="M406.411 216.667c-1.489 0-2.977-.319-4.439-.982-3.509-1.593-6.54-5.018-8.082-9.186-2.498-6.717-.85-13.486 3.749-15.398.452-.186.957-.425 1.488-.69 2.366-1.142 5.583-2.708 8.773-1.301 2.924 1.301 5.21 4.805 6.965 10.752.983 3.345 2.233 13.46-4.652 16.088-1.25.478-2.526.717-3.802.717zm-1.196-26.522c-1.834 0-3.695.903-5.37 1.699-.558.266-1.09.531-1.595.744-3.801 1.566-5.051 7.433-2.844 13.353 1.409 3.797 4.12 6.876 7.257 8.31 2.286 1.035 4.705 1.115 7.018.212 5.875-2.256 4.413-11.734 3.695-14.176-1.595-5.39-3.642-8.655-6.088-9.743a5.734 5.734 0 00-2.073-.399z" fill="#1E1E1E"/><path d="M407.288 208.517a4.716 4.716 0 002.951-.425.406.406 0 01.558.186.234.234 0 01.027.132c.133.823.106 2.257-1.701 2.682-1.888.451-2.286-1.195-2.366-2.124a.404.404 0 01.399-.451h.132zm1.17-2.177a.821.821 0 01-.771-.584.816.816 0 01.558-.983l1.223-.318-2.552-7.089a.758.758 0 01.479-1.008.76.76 0 011.01.477l2.871 7.912a.761.761 0 01-.053.637.845.845 0 01-.505.398l-2.074.531c-.053.027-.133.027-.186.027zm-6.885-5.894a.614.614 0 01-.372-.106.767.767 0 01-.319-1.062c.478-.903 1.861-2.416 3.668-1.593a.806.806 0 01.399 1.062.807.807 0 01-1.063.398c-.877-.398-1.569.823-1.595.876a.839.839 0 01-.718.425zm6.38-4.646a.725.725 0 01-.452-.159c-.345-.266-.452-.744-.186-1.115.611-.823 2.18-2.124 3.855-1.062a.779.779 0 01.239 1.088.781.781 0 01-1.09.239c-.824-.531-1.648.611-1.701.637a.734.734 0 01-.665.372zm-1.899 7.413c.388-.08.602-.633.478-1.236-.124-.604-.54-1.028-.928-.948-.389.08-.603.633-.478 1.236.124.604.54 1.028.928.948zm6.805-1.356c.388-.079.602-.633.478-1.236s-.54-1.028-.928-.948c-.388.08-.602.634-.478 1.237.124.603.54 1.027.928.947z" fill="#1E1E1E"/><path d="M403.7 208.623c-2.526 0-4.918-2.443-5.477-5.761-.611-3.611 1.143-6.956 3.908-7.407 2.765-.478 5.529 2.097 6.141 5.708.611 3.61-1.143 6.955-3.908 7.407-.239.026-.452.053-.664.053zm-1.383-12.026c-2.126.371-3.429 3.079-2.924 6.026.505 2.973 2.632 5.097 4.758 4.752 2.127-.372 3.43-3.079 2.925-6.026-.505-2.974-2.632-5.098-4.759-4.752zm13.026 9.796c-2.525 0-4.918-2.443-5.476-5.761-.611-3.611 1.143-6.956 3.908-7.407 1.382-.239 2.764.265 3.934 1.38 1.117 1.089 1.887 2.628 2.18 4.328.292 1.725.08 3.424-.638 4.805-.744 1.433-1.888 2.362-3.27 2.601-.213.027-.425.054-.638.054zm-1.382-12.027c-2.127.372-3.429 3.08-2.924 6.027.505 2.946 2.631 5.097 4.758 4.752.984-.16 1.834-.876 2.393-1.965.584-1.168.77-2.602.531-4.088-.239-1.46-.904-2.788-1.834-3.69-.904-.823-1.941-1.195-2.924-1.036z" fill="#8A2C5B"/><path d="M407.448 200.127a.599.599 0 01-.585-.478.6.6 0 01.478-.69l2.765-.531a.6.6 0 01.691.478.599.599 0 01-.478.69l-2.765.531h-.106zm-15.073 3.213a.6.6 0 01-.186-1.168l6.247-2.098a.603.603 0 01.771.372.602.602 0 01-.372.77l-6.247 2.097c-.08.027-.133.027-.213.027z" fill="#8A2C5B"/><path d="M416.061 188.154c-5.078-10.407-13.824-4.486-19.645 1.434-4.546-.08-10.315 4.513-11.537 8.203-1.489 4.434-.957 10.805 2.126 14.894 5.955 6.531 11.032 5.124 14.674 1.991-2.126-1.115-3.961-2.92-5.343-5.071-.532.266-4.758 2.257-6.167-2.23-.612-1.938.106-3.159 1.143-3.929.425.133.957.053 1.674-.265 3.483-1.593 4.759-5.549 5.237-8.045l16.588-4.3a1.92 1.92 0 001.383-2.337 1.882 1.882 0 00-.133-.345z" fill="#1E1E1E"/><path d="M407.368 251.949c-7.098-.345-23.393-2.602-23.393-2.602l.266-.716c-5.902-.691-10.687-.16-13.345.531-.824 2.336-1.143 4.327-.691 5.654.584 1.753 2.605 3.239 4.439 3.505 15.259 2.203 33.415.557 33.415.557l5.157-3.929c.027-.053-5.529-3-5.848-3z" fill="#fff"/><path d="M393.013 260.232c-5.742 0-12.335-.265-18.475-1.142-2.233-.318-4.413-2.044-5.078-4.035-.478-1.433-.266-3.451.691-6.159a.768.768 0 01.559-.504c1.355-.346 6.326-1.407 13.637-.558a.79.79 0 01.585.372c.079.159.133.318.106.478 3.589.477 16.349 2.177 22.33 2.469.239 0 .665.106 6.221 3.053a.827.827 0 01.425.637.786.786 0 01-.319.69l-5.157 3.929a.754.754 0 01-.426.159c-.053.027-6.619.611-15.099.611zm-21.479-10.407c-.878 2.628-.798 4.009-.559 4.726.479 1.407 2.18 2.734 3.802 2.973 14.089 2.044 30.863.743 33.016.558l3.988-3.053c-2.047-1.089-4.041-2.098-4.519-2.284-7.098-.371-23.208-2.601-23.367-2.601a.792.792 0 01-.585-.372.67.67 0 01-.106-.451c-5.902-.584-10.049.133-11.67.504z" fill="#1E1E1E"/><path d="M405.826 251.949a40.326 40.326 0 017.151.398c2.207.346 5.928.903 6.3 1.407.878 1.195-2.472 1.779-4.067.797" fill="#fff"/><path d="M417.284 255.852c-.904 0-1.808-.186-2.499-.611-.372-.239-.505-.717-.266-1.088.239-.372.718-.505 1.09-.266.744.452 1.94.425 2.605.266-1.223-.345-4.067-.797-5.263-.983l-.107-.026a38.598 38.598 0 00-6.991-.398c-.452.026-.798-.319-.824-.77-.027-.452.319-.797.771-.823 2.445-.08 4.891.053 7.283.398l.133.027c4.892.743 6.247 1.088 6.699 1.699.426.557.399 1.247-.053 1.725-.478.558-1.515.85-2.578.85z" fill="#1E1E1E"/><path d="M413.854 255.984c3.111.823 4.732.929 4.068-.265-.399-.69-5.583-3.053-6.593-3.319-1.01-.265-6.566-.637-6.566-.637" fill="#fff"/><path d="M417.23 257.418c-.797 0-1.914-.212-3.588-.664a.783.783 0 01-.559-.982c.133-.425.559-.69.984-.557 1.356.371 2.18.504 2.685.584-1.382-.85-4.812-2.416-5.636-2.629-.691-.185-4.306-.451-6.433-.61a.784.784 0 01-.744-.85.784.784 0 01.85-.743c.585.026 5.663.372 6.726.637.611.159 6.46 2.602 7.098 3.717.452.796.186 1.327 0 1.566-.239.345-.691.531-1.383.531z" fill="#1E1E1E"/><path d="M409.973 254.1a37.09 37.09 0 013.748 1.38c1.622.743 2.606 1.54 2.499 1.858-.106.319-1.329.956-2.392.585-1.489-.823-4.838-1.673-4.838-1.673.345-.08 2.685.876 3.961 1.301 1.276.425 2.312 1.619-.798 1.46l-4.679-.159" fill="#fff"/><path d="M412.738 259.807c-.239 0-.479 0-.638-.026l-4.679-.159c-.452-.027-.797-.372-.771-.823a.8.8 0 01.824-.77l4.679.159h.266c-.426-.133-.904-.319-1.356-.478a29.098 29.098 0 00-.851-.318 63.14 63.14 0 00-1.435-.399.82.82 0 01-.612-.77c0-.371.266-.69.612-.769.345-.08.744.026 1.914.424 1.09.319 2.525.797 3.429 1.275.319.106.665.053.931-.027a10.507 10.507 0 00-1.675-.929 35.024 35.024 0 00-3.642-1.327c-.425-.133-.665-.585-.532-.983s.585-.663.984-.531c1.302.399 2.578.876 3.828 1.407 1.568.691 3.323 1.753 2.924 2.868-.213.584-1.063 1.061-2.02 1.194-.213.85-1.356.982-2.18.982z" fill="#1E1E1E"/><path d="M449.396 231.56s4.972-.132 8.215-2.044c1.94-1.141 4.439-2.681 4.572-3.345.239-1.248-2.844.027-3.323.186" fill="#fff"/><path d="M449.396 232.357a.812.812 0 01-.797-.77c0-.451.346-.797.771-.823.053 0 4.811-.159 7.842-1.938 1.914-1.115 2.977-1.832 3.536-2.283-.346.079-.771.239-1.383.451-.106.053-.212.08-.266.106-.425.133-.877-.079-1.01-.504s.08-.876.505-1.009c.053-.027.133-.053.213-.08 1.808-.663 3.057-.982 3.775-.398.319.266.478.69.399 1.168-.107.584-.559 1.328-4.945 3.903-3.429 1.991-8.427 2.177-8.64 2.177z" fill="#1E1E1E"/><path d="M452.905 228.056s2.659-1.381 3.828-2.788c1.17-1.407 1.968-2.495 1.755-2.761-.213-.265-1.728-.239-2.525.558-1.011 1.433-4.121 2.973-4.121 2.973.346-.053 2.366-1.433 3.35-2.363.983-.929 1.435-2.628-1.276-1.247 0 0-2.871 1.539-3.961 1.964 0 0-4.519.558-5.982 2.098-.983 1.035-8.666 8.84-14.408 13.751-3.323 2.151-12.441 18-3.775 18.08 1.782.079 4.094-1.115 5.025-2.416l17.252-24.053c2.765-.451 4.732-1.141 6.061-1.858 1.728-.929 6.938-5.257 7.045-5.814.266-1.513-2.313-1.46-4.227.956" fill="#fff"/><path d="M425.923 259.144h-.159c-2.791-.027-3.828-1.54-4.174-2.788-1.409-4.885 4.785-14.893 7.523-16.699 5.53-4.752 13.053-12.371 14.329-13.672 1.542-1.593 5.529-2.203 6.353-2.31 1.064-.451 3.749-1.884 3.775-1.884.585-.292 2.26-1.142 3.004-.107.027.027.053.08.08.107a3.696 3.696 0 011.462-.213c.505.027.851.186 1.063.452.107.159.186.318.213.477.664-.185 1.249-.159 1.701.053.691.319 1.037.983.904 1.779-.053.292-.133.717-3.19 3.239-1.329 1.115-3.243 2.602-4.253 3.133-1.569.823-3.616 1.486-5.982 1.885l-17.066 23.787c-1.143 1.513-3.615 2.761-5.583 2.761zm28.923-36.238c-.159.053-.346.159-.585.265-.106.053-2.924 1.566-4.014 1.991-.053.027-.133.027-.186.053-1.17.16-4.466.77-5.503 1.859-.079.079-8.214 8.468-14.461 13.805-.027.026-.053.053-.08.053-2.233 1.46-8.081 10.911-6.885 14.946.213.691.718 1.646 2.685 1.646 1.489.053 3.562-.929 4.36-2.07l17.279-24.053c.133-.159.319-.292.532-.319 2.95-.477 4.785-1.221 5.795-1.778 1.621-.876 5.901-4.46 6.619-5.336-.346-.133-1.648.212-2.791 1.646a.631.631 0 01-.239.212c-1.276 1.487-3.935 2.867-4.041 2.947a.767.767 0 01-1.064-.345.764.764 0 01.346-1.062c.027 0 2.525-1.328 3.589-2.602.611-.717.983-1.221 1.223-1.566a1.98 1.98 0 00-.798.371c-.824 1.115-2.552 2.177-3.562 2.761-.425.266-.824.478-1.037.505a.795.795 0 01-.877-.558.824.824 0 01.399-.956c.186-.079.452-.238.744-.398.691-.451 1.755-1.221 2.393-1.805.026-.08.106-.159.159-.212zm-60.325-3.175c2.066-3.684 1.147-8.126-2.054-9.921-3.2-1.795-7.469-.264-9.535 3.421-2.067 3.684-1.147 8.126 2.053 9.921s7.469.264 9.536-3.421z" fill="#1E1E1E"/><path d="M401.702 223.517c.519-3.02-1.195-5.834-3.828-6.286-2.634-.451-5.19 1.631-5.709 4.651-.519 3.02 1.195 5.835 3.828 6.286 2.634.452 5.19-1.631 5.709-4.651z" fill="#1E1E1E"/><path d="M405.139 233.241c1.553-2.243 1.226-5.156-.731-6.507-1.956-1.351-4.801-.628-6.354 1.615-1.553 2.244-1.226 5.157.731 6.508 1.956 1.351 4.801.627 6.354-1.616z" fill="#1E1E1E"/><path d="M408.074 240.021c1.721-1.442 2.091-3.831.827-5.336-1.265-1.506-3.685-1.557-5.406-.116-1.721 1.442-2.092 3.831-.827 5.337 1.264 1.505 3.685 1.557 5.406.115zm-1.503 6.22c1.781.929 2.047 2.204 1.914 3.186a.531.531 0 00.425.584.536.536 0 00.399-.106c2.02-1.832 5.13-5.363 2.578-8.203-1.196-1.354-3.376-1.514-4.997-.239-1.622 1.274-1.914 3.929-.319 4.778z" fill="#1E1E1E"/><path d="M392.189 223.835a.956.956 0 01-.585-.186 1.061 1.061 0 01-.292-1.46l2.871-4.327a1.064 1.064 0 011.462-.292c.478.318.611.982.292 1.46l-2.871 4.327a1.03 1.03 0 01-.877.478zm5.795 6.026c-.319 0-.664-.159-.877-.451a1.062 1.062 0 01.239-1.487l3.589-2.575a1.066 1.066 0 111.25 1.726l-3.589 2.575a.908.908 0 01-.612.212zm5.503 5.735a1.064 1.064 0 01-.478-2.018l1.222-.611a1.067 1.067 0 011.436.478 1.064 1.064 0 01-.479 1.434l-1.222.61c-.133.08-.319.107-.479.107zm3.695 6.584a1.064 1.064 0 01-.478-2.018l1.223-.611a1.066 1.066 0 011.435.478 1.064 1.064 0 01-.478 1.434l-1.223.61c-.16.08-.319.107-.479.107zm-6.034 87.635l-5.53 17.946s9.73 2.389 8.72 10.646l-23.952-.133 6.859-30.636 13.903 2.177zm32.511-.664l-5.715 18.531s10.075 2.522 9.012 11.097l-24.829-.133 7.097-31.751 14.435 2.256z" fill="#8A2C5B"/><path d="M426.083 260.577h-16.695l-.611-.955-6.513.955h-2.924l-.08.452-28.683 4.274c-.213.717-7.364 13.3-.559 22.274 2.712 3.584 12.415 4.513 23.075 4.327l-9.916 49.778h25.44l7.098-30.77-4.226 30.929h25.44l2.153-70.99c.027.027.027-11.203-12.999-10.274z" fill="#4E2D5E"/><path d="M326.687 317.258l-5.263 29.096.106 12.876h6.088l.345-12.716s2.473 12.451 10.979 13.008c8.507.558 15.871-1.779 15.817-2.097-.026-.159.266-2.681.532-5.097.239-2.124-1.781-4.195-3.961-4.062-3.27.186-7.576-.08-10.181-2.23-4.652-3.876 2.02-29.469 2.02-29.469l-16.482.691zm31.236 1.141l.372 40.831h6.088l.372-12.717s2.472 12.452 10.979 13.009c8.506.558 15.87-1.779 15.817-2.097-.027-.16.266-2.682.531-5.098.24-2.123-1.781-4.194-3.96-4.061-3.27.185-7.577-.08-10.182-2.23-4.652-3.876-4.067-32.017-4.067-32.017l-15.95 4.38z" fill="#1E1E1E"/><path d="M351.888 260.631l1.914-.186c5.583 2.256 11.963.717 17.705-2.735-.718-.61-2.047-2.177-2.047-3.053 0-5.522 1.196-10.539 5.45-16.99l-8.534 5.442s-3.588-5.575-6.805-11.495c-.319-4.009-1.143-7.54-2.765-9.876-4.944-5.867-16.109-5.151-16.109-5.151l-18.422-1.38-.107-.053c-3.429 0-8.081 3.637-8.586 7.593-.957 7.327 1.355 17.097 2.339 25.565-.159.876-.319 1.567-.399 2.018 0 0-19.379 26.92-5.821 40.459.079.107 21.293-.132 21.293-.132l-8.507 47.653 52.742.956s5.742-47.601 4.545-52.884c-2.392-10.672-27.886-25.751-27.886-25.751z" fill="#8A2C5B"/><path d="M334.609 215.791c-2.02 0-3.908-2.204-4.36-5.204a7.463 7.463 0 01.505-4.3.8.8 0 011.064-.399.798.798 0 01.399 1.062 5.733 5.733 0 00-.399 3.398c.372 2.496 1.834 4.009 2.924 3.876a.8.8 0 01.877.691.8.8 0 01-.691.876h-.319zm23.473-.823c-2.02 0-3.908-2.203-4.359-5.203a7.45 7.45 0 01.505-4.301c.186-.398.638-.584 1.063-.398a.796.796 0 01.399 1.061 5.735 5.735 0 00-.399 3.399c.372 2.495 1.834 4.008 2.924 3.876a.799.799 0 01.877.69.797.797 0 01-.691.876h-.319z" fill="#8A2C5B"/><path d="M333.041 187.172c3.269-3.08 3.961-17.23-6.939-25.353-11.005-8.204-18.023 2.415-19.538 5.176-1.516 2.761-2.021 9.903 7.284 15.451 9.304 5.549 15.471 8.257 19.193 4.726z" fill="#1E1E1E"/><path d="M338.995 192.694l-.212.159c-1.276 1.009-3.111.877-4.201-.318l-3.057-3.345c-1.063-1.089-1.01-2.841.08-3.903l.133-.133.213-.185c1.276-1.009 3.11-.876 4.2.318l3.057 3.345c1.063 1.089 1.01 2.841-.08 3.903-.026.08-.08.106-.133.159z" fill="#8A2C5B"/><path d="M336.435 204.842c.757-1.589.018-3.522-1.651-4.318-1.67-.796-3.637-.154-4.395 1.435-.757 1.589-.017 3.522 1.652 4.318 1.669.796 3.637.154 4.394-1.435z" fill="#fff"/><path d="M333.545 207.402a4.04 4.04 0 01-1.834-.425c-2.047-.982-2.977-3.398-2.02-5.363.93-1.964 3.376-2.787 5.449-1.805.984.478 1.755 1.274 2.127 2.283.399 1.009.346 2.097-.106 3.08-.452.955-1.276 1.672-2.313 2.017-.425.16-.877.213-1.303.213zm-2.419-5.098c-.558 1.195 0 2.629 1.276 3.239a2.595 2.595 0 001.941.133c.611-.212 1.116-.637 1.382-1.195a2.3 2.3 0 00.053-1.831c-.239-.611-.717-1.115-1.329-1.434-1.276-.558-2.765-.106-3.323 1.088z" fill="#1E1E1E"/><path d="M359.389 203.776c.757-1.589.018-3.522-1.651-4.318-1.67-.796-3.637-.154-4.394 1.435-.758 1.589-.018 3.522 1.651 4.318 1.669.796 3.637.154 4.394-1.435z" fill="#fff"/><path d="M356.487 206.34c-.612 0-1.25-.133-1.834-.425-.984-.478-1.755-1.274-2.127-2.283-.399-1.009-.346-2.098.106-3.08.931-1.964 3.376-2.787 5.45-1.805.983.478 1.754 1.274 2.126 2.283.399 1.009.346 2.097-.106 3.08-.664 1.407-2.1 2.23-3.615 2.23zm-.239-6.425c-.904 0-1.782.478-2.18 1.327a2.302 2.302 0 00-.053 1.832c.239.611.717 1.115 1.329 1.434 1.276.61 2.764.133 3.323-1.062a2.31 2.31 0 00.053-1.832c-.239-.611-.718-1.115-1.329-1.434a2.581 2.581 0 00-1.143-.265z" fill="#1E1E1E"/><path d="M346.997 212.844l.186 4.752 3.987.876c.213.637.479 11.814-9.756 10.433-6.725-.902-9.862-6.902-11.643-12.397l5.689.398.026-13.327 11.511 9.265z" fill="#fff"/><path d="M343.089 229.808a14.27 14.27 0 01-1.808-.132c-5.688-.77-9.703-5.018-12.308-12.956a.84.84 0 01.133-.743.765.765 0 01.691-.292l4.839.345.026-12.478c0-.318.186-.584.452-.716a.772.772 0 01.851.106l11.51 9.292a.74.74 0 01.293.584l.159 4.115 3.376.743a.807.807 0 01.585.504c.213.584.372 5.496-2.313 8.735-1.541 1.911-3.721 2.893-6.486 2.893zm-12.202-12.451c2.393 6.664 5.795 10.089 10.607 10.726 2.871.398 5.077-.239 6.593-1.859 2.1-2.256 2.339-5.84 2.312-7.141l-3.429-.743a.823.823 0 01-.638-.744l-.159-4.38-9.942-8.018-.027 11.681c0 .213-.08.425-.266.585a.731.731 0 01-.611.212l-4.44-.319z" fill="#1E1E1E"/><path d="M347.468 215.483c5.732-1.053 9.284-7.869 7.933-15.224-1.351-7.355-7.093-12.463-12.826-11.41-5.732 1.054-9.283 7.87-7.932 15.224 1.351 7.355 7.093 12.463 12.825 11.41z" fill="#fff"/><path d="M345.987 216.428c-5.583 0-10.82-5.124-12.122-12.213-1.436-7.778 2.419-15.026 8.56-16.167 3.03-.558 6.114.424 8.745 2.734 2.552 2.283 4.334 5.575 5.025 9.319 1.435 7.778-2.419 15.026-8.56 16.167-.558.133-1.117.16-1.648.16zm-1.914-26.92c-.452 0-.904.053-1.356.133-5.29.982-8.56 7.38-7.284 14.309 1.17 6.318 5.716 10.911 10.554 10.911.452 0 .904-.053 1.355-.132 5.291-.983 8.56-7.381 7.284-14.31-.611-3.398-2.233-6.371-4.519-8.416-1.834-1.646-3.934-2.495-6.034-2.495z" fill="#1E1E1E"/><path d="M345.987 206.18a.812.812 0 01-.798-.77c-.026-.451.319-.796.771-.823l1.409-.053-1.303-4.885a.816.816 0 01.559-.982.816.816 0 01.983.558l1.436 5.469a.747.747 0 01.026.239c0 .292-.106.584-.292.796-.213.212-.479.345-.771.345l-2.02.08v.026zm-5.583-8.601c-.213 0-.452-.08-.585-.266a.794.794 0 01.053-1.115c.798-.717 2.739-1.699 4.334-.265a.794.794 0 01.053 1.115.797.797 0 01-1.117.053c-.904-.823-2.073.159-2.206.265a.72.72 0 01-.532.213zm11.325.372a.839.839 0 01-.718-.425c-.585-1.115-2.18-.505-2.207-.505a.796.796 0 01-1.036-.477.796.796 0 01.478-1.036c1.01-.372 3.19-.61 4.174 1.274a.8.8 0 01-.346 1.089.819.819 0 01-.345.08zm-7.514 3.332c.021-.659-.318-1.205-.758-1.22-.44-.014-.815.509-.836 1.169-.022.659.318 1.205.758 1.22.44.014.815-.509.836-1.169zm6.778 1.471c.439-.032.756-.591.709-1.249-.048-.659-.443-1.166-.882-1.135-.439.032-.757.591-.709 1.25.047.658.442 1.165.882 1.134z" fill="#1E1E1E"/><path d="M341.202 185.712l-.027.026c-3.429.505-7.284 2.071-9.41 4.354-3.775 4.062-2.047 12.797 1.807 13.381.319.053.638.079.957.106l-.079-.664a18.021 18.021 0 01-.107-2.389c5.264-1.965 5.237-9.823 5.237-10.487 1.117.876 2.579 2.416 2.207 4.062l11.616.743a17.038 17.038 0 012.18 6.611v.106c1.09-1.566 1.143-3.982.24-6.531l3.934.239c-.027-.026 3.589-13.274-18.555-9.557z" fill="#1E1E1E"/><path d="M358.401 214.941h-.053a.783.783 0 01-.798-.796.8.8 0 01.798-.797c1.196-.239 1.967-2.336 1.621-4.539-.186-1.248-.611-2.39-1.169-3.186-.346-.478-.877-1.009-1.489-.929a.787.787 0 01-.904-.664.787.787 0 01.665-.903c1.116-.186 2.206.398 3.057 1.567.691.982 1.223 2.362 1.435 3.849.506 3.239-.824 6.026-3.003 6.372-.08.026-.133.026-.16.026zm-23.473.85h-.053a.784.784 0 01-.798-.797.8.8 0 01.798-.796c.718-.133 1.116-.876 1.302-1.301.373-.903.505-2.044.319-3.239-.239-1.513-.93-2.841-1.807-3.504-.399-.292-.798-.399-1.17-.346a.786.786 0 01-.904-.663.785.785 0 01.665-.903c.797-.133 1.621.106 2.339.637 1.223.903 2.153 2.602 2.446 4.54.239 1.487.08 2.947-.426 4.115-.558 1.301-1.462 2.097-2.578 2.257h-.133z" fill="#8A2C5B"/><path d="M344.179 210.799c-.478 0-.984-.106-1.462-.345-1.223-.663-1.887-2.123-1.967-4.407 0-.292.159-.584.425-.716a.82.82 0 01.851.053l4.811 3.345a.828.828 0 01.346.663c0 .266-.16.505-.372.664-.08.027-1.276.743-2.632.743zm-1.595-3.079c.16.584.452 1.115.904 1.354.345.186.797.186 1.196.106l-2.1-1.46zm-15.338 39.238a.612.612 0 01-.373-.106.792.792 0 01-.319-1.089c1.755-3.212 5.025-2.761 6.487-2.097a.806.806 0 01.399 1.062c-.187.398-.665.584-1.064.398-.292-.132-3.004-1.247-4.439 1.407a.797.797 0 01-.691.425z" fill="#1E1E1E"/><path d="M325.438 244.888a.744.744 0 01-.505-.186.797.797 0 01-.133-1.115c1.435-1.779 2.977-2.708 4.599-2.735 2.126-.026 3.509 1.514 3.589 1.593a.773.773 0 01-.08 1.115.775.775 0 01-1.117-.079c-.026-.027-.983-1.062-2.366-1.036-1.116.027-2.259.744-3.376 2.151a.72.72 0 01-.611.292z" fill="#1E1E1E"/><path d="M354.733 238.675l4.173-1.592s3.27-3.611 4.706-4.673c1.435-1.062 4.28-.956 2.366.717-1.914 1.672-2.18 2.681-2.18 2.681s5.024-1.46 7.789-3.185c2.817-1.753 2.206 1.274 2.206 1.274s2.127.292 1.303 1.38c0 0 1.621.93 0 1.859 0 0 2.312.239.983 1.619-.957 1.965-7.656 5.708-11.776 5.389l-2.286 1.009-2.898 1.434" fill="#fff"/><path d="M359.172 247.383a.784.784 0 01-.718-.451.795.795 0 01.373-1.062l2.897-1.434s.027 0 .027-.026l2.286-1.009a.582.582 0 01.372-.053c3.855.292 10.208-3.345 10.979-4.965.027-.079.08-.132.133-.212a.458.458 0 00.106-.133c-.159-.079-.425-.132-.611-.159a.762.762 0 01-.691-.637.768.768 0 01.372-.85 1.29 1.29 0 00.292-.212 1.397 1.397 0 00-.292-.266.764.764 0 01-.372-.531c-.027-.185 0-.371.079-.557a3.16 3.16 0 00-.717-.212.793.793 0 01-.532-.319.73.73 0 01-.133-.611c.053-.292.053-.69 0-.849-.106 0-.399.053-1.01.425-2.818 1.752-7.789 3.212-8.002 3.265a.808.808 0 01-.771-.186.774.774 0 01-.212-.77c.053-.212.425-1.327 2.419-3.079-.399.053-.957.212-1.383.531-1.355 1.035-4.572 4.539-4.598 4.593a.976.976 0 01-.319.212l-4.174 1.593a.817.817 0 01-1.037-.452.814.814 0 01.452-1.035l3.988-1.513c.638-.69 3.349-3.637 4.705-4.646 1.196-.903 3.296-1.221 4.041-.319.239.292.664 1.115-.665 2.257a6.07 6.07 0 00-.585.557c1.648-.584 3.802-1.433 5.264-2.336.425-.265 1.754-1.088 2.764-.398.612.425.745 1.142.745 1.726.505.159 1.09.478 1.329 1.035.053.159.133.398.08.717.292.292.558.69.558 1.221 0 .159-.027.345-.107.531.293.186.559.425.692.796.133.372.159.983-.479 1.673-1.276 2.257-7.948 5.947-12.281 5.734l-2.1.93-2.871 1.407c-.054.053-.187.079-.293.079z" fill="#1E1E1E"/><path d="M367.014 236.817s5.104-1.248 6.805-2.921l-6.805 2.921z" fill="#fff"/><path d="M367.014 237.613a.793.793 0 01-.771-.61.792.792 0 01.585-.956c1.356-.345 5.184-1.487 6.433-2.708a.795.795 0 011.117 0 .793.793 0 010 1.115c-1.808 1.779-6.646 3-7.178 3.133-.053.026-.133.026-.186.026z" fill="#1E1E1E"/><path d="M367.679 238.569c.558-.239 4.625-.982 7.204-3.478l-7.204 3.478z" fill="#fff"/><path d="M367.705 239.366a.818.818 0 01-.744-.478.8.8 0 01.399-1.036c.159-.079.372-.132.744-.239 1.276-.371 4.28-1.194 6.247-3.106a.772.772 0 011.117.027.77.77 0 01-.027 1.115c-2.259 2.177-5.529 3.079-6.912 3.478a7.647 7.647 0 00-.531.159.61.61 0 01-.293.08z" fill="#1E1E1E"/><path d="M368.343 240.374c1.17-.504 3.695-.345 6.805-3.106l-6.805 3.106z" fill="#fff"/><path d="M368.343 241.171a.818.818 0 01-.744-.478c-.16-.398.027-.876.425-1.036.372-.159.771-.239 1.276-.345 1.329-.292 3.164-.69 5.317-2.601a.774.774 0 011.116.079.772.772 0 01-.079 1.115c-2.499 2.204-4.626 2.655-6.035 2.974-.398.079-.771.159-.983.265-.08.027-.186.027-.293.027zm-40.699 19.008c-1.675 0-3.296-.265-4.811-.849-3.244-1.301-5.636-4.036-7.125-8.204a.779.779 0 01.479-1.009.78.78 0 011.01.478c1.329 3.69 3.403 6.133 6.22 7.248 5.742 2.283 13.664-1.142 19.14-3.903 8.481-4.3 13.585-6.796 15.392-7.699l-3.828-6.61-21.08 5.734c-.24.053-.479.027-.665-.132a.78.78 0 01-.319-.611c0-.08-.452-8.071-2.313-15.345-.106-.425.16-.849.585-.982.425-.106.851.159.984.584 1.515 5.92 2.126 12.292 2.286 14.681l20.735-5.655a.787.787 0 01.904.372l4.545 7.858a.878.878 0 01.08.637.693.693 0 01-.425.478c-.053.027-5.343 2.575-16.136 8.044-4.386 2.283-10.288 4.885-15.658 4.885zm203.603 73.405v25.115h-32.512s-.106-9.212 14.887-10.911v-13.434l17.625-.77z" fill="#1E1E1E"/><path d="M504.371 333.584v25.115h-32.538s-.107-9.212 14.886-10.911v-13.434l17.652-.77z" fill="#1E1E1E"/><path d="M514.154 268.489l-24.803 16.22a19.214 19.214 0 00-4.785 12.106l-1.595 44.814h20.469s28.312.504 28.312-1.54c0-1.646 1.674-31.592 2.339-43.433a5.292 5.292 0 015.024-4.991c4.838-.239 12.016-.584 15.179-.664 24.776-.876 18.157-11.07 15.233-18.344a981.402 981.402 0 00-3.084-7.513" fill="#fff"/><path d="M510.777 342.478c-4.173 0-7.337-.053-7.363-.053h-20.443a.829.829 0 01-.585-.239.703.703 0 01-.212-.584l1.621-44.813c.133-4.646 1.914-9.106 4.971-12.611.054-.053.107-.106.16-.132l24.802-16.221c.372-.239.851-.133 1.117.239.239.371.133.849-.24 1.115l-24.722 16.168a18.373 18.373 0 00-4.519 11.521l-1.595 43.964h19.645c12.202.212 25.546-.106 27.514-1.035.079-2.416.85-16.938 2.339-43.194a6.073 6.073 0 015.795-5.734c2.632-.133 11.484-.558 15.206-.664 9.198-.319 14.807-1.991 16.694-4.991 1.834-2.867.106-6.876-1.409-10.434-.266-.637-.531-1.247-.771-1.858a440.97 440.97 0 00-3.083-7.486c-.16-.399.026-.877.425-1.036.399-.159.877.027 1.037.425.771 1.805 1.807 4.327 3.11 7.513.239.584.505 1.168.771 1.805 1.675 3.903 3.589 8.31 1.302 11.894-2.233 3.504-8.107 5.363-17.996 5.708-3.696.106-12.548.531-15.18.663a4.491 4.491 0 00-4.279 4.248c-1.941 34.433-2.34 42.61-2.34 43.406a.994.994 0 01-.345.77c-.452.451-1.383 1.354-15.339 1.566-2.127.054-4.227.08-6.088.08z" fill="#1E1E1E"/><path d="M505.727 342.425c-.479-.026-.824-.371-.798-.823l1.595-50.043.027-.69c.159-4.566.372-10.832 4.12-13.115a.207.207 0 01.107-.053l28.47-11.761c.399-.159.877.027 1.037.425.159.398-.027.876-.425 1.035l-28.391 11.735c-2.978 1.858-3.164 7.592-3.323 11.787l-.027.69-1.595 50.043c0 .425-.372.77-.797.77z" fill="#1E1E1E"/><path d="M573.408 248.179c-7.364-43.857-19.353-37.672-25.494-37.459l-13.929.557c0-.186-.027-.371-.054-.557-.106-.505-.664-.903-1.355-1.248v-.027c1.781-.451 5.183-1.433 5.157-2.203-.053-1.088-6.859-.558-8.959-.425-1.063.053-3.137.69-4.891 1.301a8.652 8.652 0 00-5.131 4.673c-.372.849-1.515 3.743-1.861 4.592l-4.412-1.991s-8.427 19.221-10.368 24.212a19.839 19.839 0 00-.558 1.912c-4.121 12.318 4.572 18.716 4.572 18.716l42.348.425-4.918 4.168c-.718.823 23.101-1.036 23.925-.929.425.053-1.728-3.213-3.908-6.398 5.13-2.151 10.155-5.257 9.836-9.319z" fill="#4E2D5E"/><path d="M554.267 242.498c-.053 0-.106 0-.186-.026a.81.81 0 01-.505-.372c-.239-.425-6.167-10.566-5.502-16.194a.799.799 0 01.877-.691.8.8 0 01.691.876c-.505 4.301 3.562 12.08 4.891 14.469 5.29-3.239 9.145-1.513 9.331-1.434a.806.806 0 01.399 1.062c-.186.399-.665.558-1.064.399-.159-.08-3.615-1.54-8.48 1.778a.893.893 0 01-.452.133z" fill="#1E1E1E"/><path d="M533.293 252.242a.768.768 0 01-.691-.425c-.213-.372-.08-.876.319-1.062.585-.319 19.087-8.761 21.187-9.717a.807.807 0 011.063.398.806.806 0 01-.398 1.062c-8.188 3.744-20.549 9.372-21.081 9.664-.159.053-.292.08-.399.08zm-16.535-7.54a.96.96 0 01-.265-.053c-.426-.16-.638-.611-.479-1.009l7.895-22.433-1.834-.823a.798.798 0 01-.399-1.062.8.8 0 011.064-.399l2.525 1.115a.8.8 0 01.425.983l-8.161 23.15a.835.835 0 01-.771.531z" fill="#1E1E1E"/><path d="M547.197 212.764l-4.839-12.371-10.66 6.769 1.303 6-.346 12.717 14.542-13.115z" fill="#fff"/><path d="M532.655 226.675a.817.817 0 01-.345-.079.752.752 0 01-.452-.744l.345-12.636-1.276-5.894c-.079-.319.08-.664.346-.85l10.66-6.769a.746.746 0 01.665-.08c.239.08.398.239.505.478l4.864 12.398a.773.773 0 01-.212.876l-14.541 13.115a.89.89 0 01-.559.185zm-.053-19.141l1.17 5.443a.457.457 0 01.026.185l-.292 10.885 12.76-11.495-4.306-10.965-9.358 5.947zm-5.13-20.734s9.011 5.734 4.598 11.071c0 0-1.967 2.23-3.588 1.778 0 0 1.196-1.885-.16-2.893 0 0-.452 5.681-5.104 4.513 0 0 1.728-2.522 1.276-5.549-.93-6.292.532-10.061 2.978-8.92z" fill="#1E1E1E"/><path d="M546.186 195.906s1.808-11.097-9.437-13.088c-1.036-.186-8.241-1.328-9.596 4.646-.904 3.982-1.117 8.283-1.01 11.654 0 .027.053 6.345 2.525 9.876 2.472 3.531 8.028 3.239 10.952 1.54 2.924-1.699 3.483-2.602 4.333-4.646.851-2.044 2.233-9.955 2.233-9.982z" fill="#fff"/><path d="M534.729 212.498c-2.526 0-5.131-.849-6.699-3.106-2.605-3.716-2.685-10.247-2.685-10.327-.053-2.416 0-7.221 1.037-11.814 1.143-5.044 6.167-6 10.5-5.23 11.883 2.097 10.102 13.885 10.075 14.018v.053c-.08.504-1.409 7.991-2.259 10.061-.878 2.177-1.569 3.239-4.652 5.045-1.383.769-3.323 1.3-5.317 1.3zm-.425-29.123c-2.393 0-5.556.69-6.354 4.221-1.01 4.434-1.063 9.08-1.01 11.443 0 .079.08 6.132 2.392 9.424 2.18 3.106 7.231 2.841 9.916 1.301 2.791-1.619 3.217-2.363 3.988-4.248.797-1.938 2.153-9.663 2.153-9.743v-.026c.106-.638 1.409-10.354-8.773-12.159-.505-.08-1.355-.213-2.312-.213z" fill="#1E1E1E"/><path d="M529.651 202.915a.825.825 0 01-.584-.239.788.788 0 01-.213-.717l1.143-5.442a.785.785 0 01.957-.611c.425.08.718.505.611.956l-.903 4.327.85-.132a.785.785 0 01.904.663.785.785 0 01-.664.903l-1.994.318c-.027-.053-.08-.026-.107-.026zm-.826-6.633c.045-.482-.167-.896-.474-.924-.307-.029-.592.338-.637.82-.045.482.167.896.474.924.307.029.592-.338.637-.82zm4.899 1.426c.306-.029.518-.444.472-.925-.046-.482-.332-.849-.639-.82-.307.03-.518.444-.472.926.046.481.332.848.639.819zm3.131-3.979c-.239 0-.505-.106-.638-.319a1.803 1.803 0 00-1.674-.743.8.8 0 01-.878-.69.799.799 0 01.692-.876 3.357 3.357 0 013.163 1.38.783.783 0 01-.186 1.115c-.16.08-.319.133-.479.133zm-10.181-1.247a.799.799 0 01-.638-1.275c.984-1.327 2.845-.955 3.775-.504a.806.806 0 01.399 1.062.809.809 0 01-1.064.398c-.026 0-1.382-.584-1.834.027a.852.852 0 01-.638.292z" fill="#1E1E1E"/><path d="M537.414 187.57s-4.36 14.867 5.556 16.46c0 0 5.768 1.062 7.097-.956 0 0-4.173-2.257-3.615-4.619 0 0 4.679 5.177 8.799 1.513 0 0-6.832-1.195-6.167-7.327.425-4.434-10.128-8.655-11.67-5.071z" fill="#1E1E1E"/><path d="M555.517 189.774l-6.034-.956c-.585-4.062-2.924-9.903-11.245-10.938-13.026-1.593-13.504 11.044-13.504 11.044l30.172 4.726c1.09.132 2.073-.638 2.206-1.699.133-1.009-.558-1.965-1.595-2.177z" fill="#8A2C5B"/><path d="M532.842 205.463c-.293 0-.585-.026-.904-.08a.82.82 0 01-.665-.902.822.822 0 01.904-.664c2.073.345 2.685-.982 2.685-1.009a.813.813 0 011.037-.424.81.81 0 01.425 1.035c-.292.796-1.436 2.044-3.482 2.044z" fill="#1E1E1E"/><path d="M515.323 216.826c.133-.345.266-.664.372-.956.558-1.46 1.037-2.628 1.462-3.557a8.652 8.652 0 015.131-4.673c1.754-.61 3.801-1.221 4.891-1.3 2.1-.133 8.906-.638 8.959.424.053.77-3.376 1.753-5.157 2.204l-1.409 5.416s-1.675.212-2.473.637c-1.674.902-3.322 2.416-4.545 2.283 0 0-.08.876-.346 2.363" fill="#fff"/><path d="M522.181 220.516h-.132a.792.792 0 01-.638-.929c.239-1.434.345-2.283.345-2.31a.822.822 0 01.293-.531.908.908 0 01.584-.185c.532.053 1.569-.611 2.473-1.195.505-.345 1.063-.69 1.595-.982.638-.345 1.621-.558 2.233-.664l1.276-4.911a.811.811 0 01.584-.584c1.888-.478 3.137-.903 3.855-1.222-1.01-.106-3.03-.132-6.912.133l-.531.027c-.798.053-2.446.504-4.679 1.247-2.073.717-3.775 2.257-4.652 4.248-.425.956-.93 2.124-1.436 3.478-.106.345-.265.69-.372 1.009-.159.398-.638.61-1.036.424-.399-.159-.612-.637-.426-1.035.107-.292.239-.611.346-.903 0-.026 0-.026.026-.053a63.647 63.647 0 011.489-3.584 9.492 9.492 0 015.609-5.097c2.419-.823 4.121-1.274 5.078-1.327l.505-.027c5.768-.372 8.108-.239 8.905.451.239.213.372.478.372.77.053.903-.93 1.461-2.419 2.018-.983.372-2.1.69-2.871.876l-1.302 4.965a.764.764 0 01-.665.584c-.585.079-1.701.292-2.206.557-.506.266-1.011.611-1.489.929-.931.611-1.834 1.222-2.712 1.407-.053.399-.133 1.009-.265 1.753-.107.371-.452.663-.825.663z" fill="#1E1E1E"/><path d="M527.02 207.985s4.918.638 5.29 2.283c.372 1.646-1.037 1.753-1.037 1.753" fill="#fff"/><path d="M531.273 212.791a.789.789 0 01-.797-.744.783.783 0 01.744-.849c.026 0 .213-.053.266-.16.079-.106.079-.345.026-.637-.133-.557-2.366-1.38-4.625-1.646a.807.807 0 01-.691-.902c.053-.452.452-.744.903-.691 1.276.16 5.53.85 5.982 2.894.212.956-.053 1.593-.293 1.938-.531.69-1.355.77-1.435.77-.027.027-.053.027-.08.027z" fill="#1E1E1E"/><path d="M526.834 209.95s4.333.929 4.599 2.602c.265 1.672-1.144 1.672-1.144 1.672" fill="#fff"/><path d="M530.263 215.021a.8.8 0 01-.798-.797c0-.425.372-.796.798-.796.026 0 .212-.027.292-.133.08-.106.107-.319.08-.611-.106-.637-2.18-1.539-3.961-1.938a.782.782 0 01-.611-.955.784.784 0 01.957-.611c1.143.239 4.918 1.195 5.21 3.266.133.982-.16 1.566-.452 1.911-.585.637-1.382.664-1.515.664z" fill="#1E1E1E"/><path d="M526.541 212.392s5.21 1.195 3.217 3.027c-1.994 1.831-3.004 1.619-3.004 1.619s-1.436-.903.877-2.31" fill="#fff"/><path d="M526.86 217.861c-.106 0-.213 0-.266-.026a.814.814 0 01-.266-.106c-.079-.053-.824-.531-.797-1.461 0-.796.558-1.513 1.701-2.203a.783.783 0 011.09.265.78.78 0 01-.266 1.089c-.584.372-.824.637-.903.796.372-.106 1.036-.424 2.073-1.38.186-.159.186-.239.186-.266-.08-.345-1.462-1.062-3.057-1.407a.792.792 0 11.372-1.539c.877.212 3.802.982 4.227 2.575.106.451.106 1.115-.665 1.832-1.754 1.592-2.897 1.831-3.429 1.831z" fill="#1E1E1E"/><path d="M533.612 251.524l-2.685.505c-.319.053-5.795 3.531-5.795 3.531l5.636 3.637s.399.398 8.932-.133c-.585-2.15-3.775-5.389-6.088-7.54z" fill="#fff"/><path d="M532.974 260.126c-2.02 0-2.472-.16-2.684-.292l-5.583-3.611a.789.789 0 01-.372-.664c0-.265.133-.531.372-.663 5.583-3.558 5.875-3.611 6.061-3.637l2.685-.505a.822.822 0 01.691.186c3.695 3.425 5.822 6.08 6.327 7.911a.907.907 0 01-.106.691.903.903 0 01-.612.345c-3.27.159-5.396.239-6.779.239zm-1.728-1.567l.08.08c-.026-.053-.053-.053-.08-.08zm-.132-.106c.292.053 1.701.213 7.416-.133-.797-1.46-2.605-3.531-5.183-5.946l-2.207.424c-.452.213-2.632 1.567-4.519 2.761l4.493 2.894z" fill="#1E1E1E"/><path d="M532.523 251.922a40.43 40.43 0 00-7.337 1.009c-2.233.531-6.035 1.434-6.38 1.991-.798 1.301 2.711 1.62 4.253.478" fill="#fff"/><path d="M520.56 256.887c-.904 0-1.754-.212-2.206-.637-.505-.478-.585-1.142-.213-1.752.399-.664 1.808-1.142 6.805-2.31l.08-.027a44.382 44.382 0 017.497-1.035.768.768 0 01.824.77.768.768 0 01-.771.823 41.225 41.225 0 00-7.204.982l-.054.027c-1.249.292-4.306 1.035-5.502 1.486.691.133 2.02.08 2.791-.478a.804.804 0 011.116.16.801.801 0 01-.159 1.115c-.798.584-1.941.876-3.004.876z" fill="#1E1E1E"/><path d="M524.601 256.728c-3.137 1.115-4.812 1.38-4.227.079.345-.743 5.503-3.637 6.513-3.982 1.01-.345 6.725-1.195 6.725-1.195" fill="#fff"/><path d="M520.932 258.48c-.558 0-.904-.16-1.17-.425-.212-.213-.505-.717-.106-1.567.532-1.168 6.194-4.141 6.992-4.407 1.063-.371 6.273-1.141 6.858-1.221.425-.053.851.239.904.664.053.425-.239.849-.665.903-2.259.345-5.875.929-6.592 1.168-.851.292-4.387 2.283-5.663 3.239.505-.107 1.383-.319 2.845-.85a.78.78 0 011.01.478c.133.398-.08.876-.479 1.009-1.887.69-3.11 1.009-3.934 1.009z" fill="#1E1E1E"/><path d="M528.429 254.498a39.731 39.731 0 00-3.749 1.725c-1.621.903-2.552 1.805-2.419 2.124.133.319 1.436.876 2.499.398 1.462-.982 4.865-2.124 4.865-2.124-.372-.053-2.685 1.142-3.988 1.673-1.302.531-2.259 1.885.957 1.434l4.839-.558" fill="#fff"/><path d="M525.531 260.604c-.771 0-1.595-.159-1.834-.903-.984-.053-1.888-.478-2.153-1.035-.506-1.089 1.222-2.31 2.764-3.159a41.7 41.7 0 013.828-1.779.794.794 0 011.037.451.794.794 0 01-.452 1.036 38.128 38.128 0 00-3.668 1.699c-.798.451-1.356.849-1.675 1.141.292.08.664.106 1.01-.026.904-.584 2.366-1.195 3.456-1.62 1.143-.504 1.542-.637 1.887-.584.372.053.638.345.691.717.027.372-.186.717-.531.823-.027 0-.612.212-1.436.531-.292.133-.585.265-.85.398-.559.266-1.117.505-1.569.717.133 0 .293-.027.452-.053l4.865-.558a.8.8 0 01.877.691.8.8 0 01-.691.876l-4.838.557c-.293.027-.718.08-1.17.08z" fill="#1E1E1E"/><path d="M587.922 323.868l.346 21.663s-12.494 2.921-15.791 13.301l27.647-.027 4.413-40.22-16.615 5.283zm-29.321 1.089l-3.164 21.132s-11.749 2.814-14.86 12.557l25.972-.026 8.215-36.185-16.163 2.522z" fill="#8A2C5B"/><path d="M647.761 279.718l-1.329-16.911-51.465-.079-.984 5.787-7.948-.212c-20.15-.903-23.367 14.256-23.367 14.256l-16.561 64.618 24.642.133 12.548-45.636-5.689 45.211 25.041.372 4.892-46.486c5.901-1.354 25.068-5.841 29.986-8.469 4.944-1.858 10.474-8.15 10.234-12.584z" fill="#1E1E1E"/><path d="M647.017 235.781a58.854 58.854 0 00-17.891-17.681c3.111-5.07 2.552-10.194-10.527-11.256-21.16-.743-23.313 4.938-23.34 9.345-6.965 5.548-11.218 11.442-13.743 17.044-3.031-2.788-8.64-7.938-10.076-8.894-1.993-1.327-3.269 1.009-4.864.186-1.595-.823-2.154-1.062-2.154-1.062s-1.408 4.938-5.369 6.292c0 0 .079.743.957 2.283.877 1.54-1.037 2.655.398 4.566 1.436 1.912 13.744 17.655 13.744 17.655 1.489 1.46 4.944 6.637 8.693 5.07v-.345l.159.186 26.61.133-.718 4.407c33.708 3.239 31.342 18.557 40.673 12.504l-.984-20.389c3.19-3.796 4.52-10.619-1.568-20.044z" fill="#8A2C5B"/><path d="M621.045 212.525l3.376 2.257s-12.574 7.672-14.222 27.424c-1.09 13.115-1.329 28.353-1.329 28.353l-5.848.823s1.94-35.84-.346-42.503c-2.286-6.664-.186-14.15 1.356-15.371 1.542-1.222 17.013-.983 17.013-.983zm-61.727 6.478c-.212-.133-6.273-3.982-7.842-4.381-1.568-.398-1.781 1.487 3.084 4.169-1.489 1.566-1.887 3.876-.957 5.84.452 1.035 4.572 5.124 5.981 5.283 1.409.159 6.726-1.221 5.609-4.513-1.09-3.319-3.004-4.487-5.875-6.398z" fill="#fff"/><path d="M559.85 230.711c-.133 0-.239 0-.345-.027-1.861-.212-6.141-4.646-6.62-5.761a6.03 6.03 0 01.479-5.946c-2.765-1.673-4.041-3.266-3.589-4.434.213-.504.824-1.009 1.914-.717 1.781.452 7.949 4.407 8.081 4.487l.293.186c2.765 1.832 4.732 3.159 5.901 6.61.399 1.142.186 2.257-.558 3.186-1.356 1.673-4.147 2.416-5.556 2.416zm-8.374-15.265c.373.531 1.33 1.46 3.483 2.628.213.133.372.345.399.584a.847.847 0 01-.213.664 4.363 4.363 0 00-.798 4.938c.399.876 4.333 4.699 5.37 4.831.798.08 3.43-.531 4.466-1.778.426-.505.505-1.036.293-1.673-.984-2.92-2.606-4.009-5.29-5.787l-.293-.186c-.691-.451-5.822-3.664-7.417-4.221z" fill="#1E1E1E"/><path d="M562.322 221.206s-5.236-2.07-5.768-1.752c-.744.425.08 2.549 2.392 3.584 0 0-1.621 2.098-.717 3.717" fill="#fff"/><path d="M558.229 227.525a.766.766 0 01-.692-.425c-.744-1.38-.186-2.894.293-3.796-1.462-.903-2.286-2.257-2.313-3.239-.027-.611.213-1.089.665-1.354.319-.186.877-.478 6.459 1.726a.813.813 0 01.452 1.035.805.805 0 01-1.036.451c-1.782-.717-3.935-1.46-4.892-1.672.186.504.824 1.433 2.127 2.017.213.107.399.292.452.531a.915.915 0 01-.133.691c0 .026-1.276 1.725-.665 2.84a.791.791 0 01-.319 1.089.756.756 0 01-.398.106zm1.355 4.513c-1.037-1.566-1.196-2.283-1.196-2.283 3.801-.85 5.689-6.451 5.689-6.451s.744.186 2.419 1.141c.691.372 1.302.08 1.781 0 .691 5.257-6.061 9.372-8.4 10.487-.266-1.089.505-1.699-.293-2.894z" fill="#1E1E1E"/><path d="M604.218 245.79a42.885 42.885 0 00-7.364-.797c-2.313-.026-6.22-.079-6.672.372-1.09 1.062 2.233 2.23 4.014 1.487" fill="#fff"/><path d="M592.867 247.887c-1.409 0-2.951-.531-3.483-1.354-.372-.584-.292-1.247.24-1.752.558-.531 2.02-.664 7.097-.611h.133c2.526.054 5.051.319 7.523.797.426.08.718.504.638.929a.807.807 0 01-.93.637c-2.366-.478-4.812-.717-7.231-.77h-.133c-1.409 0-4.413-.053-5.635.133.638.292 1.94.558 2.817.212.399-.159.878.027 1.037.425.16.398-.026.876-.425 1.036-.479.239-1.063.318-1.648.318z" fill="#1E1E1E"/><path d="M609.216 245.87a353 353 0 00-6.593-.372c-.319-.026-6.46 2.044-6.46 2.044l4.599 4.885s.266.452 7.523 1.806" fill="#fff"/><path d="M608.312 255.002c-.053 0-.107 0-.16-.027-6.858-1.274-7.762-1.778-8.001-2.07l-4.546-4.832a.757.757 0 01-.186-.743.754.754 0 01.532-.558c6.273-2.097 6.592-2.097 6.752-2.071 2.339.133 4.572.266 6.592.372a.786.786 0 01.745.85.786.786 0 01-.851.743c-1.994-.133-4.174-.239-6.486-.372-.505.106-2.951.903-5.051 1.593l3.668 3.903c.266.106 1.595.61 7.151 1.646a.806.806 0 01.638.929c-.106.372-.425.637-.797.637zm-6.912-3.08c.027.027.053.054.053.08 0-.026-.026-.053-.053-.08z" fill="#1E1E1E"/><path d="M595.366 248.551c-3.323.319-4.998.16-4.121-.955.505-.638 6.221-2.204 7.284-2.31 1.063-.106 6.805.451 6.805.451" fill="#fff"/><path d="M592.867 249.507c-1.489 0-2.207-.266-2.526-.85-.159-.265-.319-.823.266-1.54.771-.982 6.992-2.522 7.842-2.601 1.117-.107 6.38.398 6.965.451.425.053.771.425.718.876-.053.425-.425.77-.877.717-2.18-.213-5.928-.531-6.673-.451-.904.079-4.811 1.168-6.3 1.805.532.026 1.409.026 2.977-.133.426-.053.824.266.878.717.053.451-.266.823-.718.876-1.01.08-1.861.133-2.552.133z" fill="#1E1E1E"/><path d="M599.619 247.303a41.954 41.954 0 00-4.041.77c-1.781.478-2.924 1.142-2.844 1.46.08.319 1.196 1.195 2.339.983 1.675-.585 5.237-.903 5.237-.903-.345-.133-2.897.451-4.28.664-1.382.212-2.632 1.274.585 1.619l4.812.637" fill="#fff"/><path d="M601.427 253.33h-.107l-4.811-.637c-.718-.08-2.606-.266-2.712-1.487-.957-.292-1.728-.956-1.834-1.513-.239-1.168 1.728-1.965 3.429-2.416a38.098 38.098 0 014.147-.797c.425-.053.851.239.904.691.053.424-.239.849-.691.902-1.329.186-2.659.425-3.961.77-.877.239-1.515.505-1.888.69.266.133.638.266.984.213 1.01-.345 2.552-.584 3.748-.744 1.223-.212 1.675-.239 1.994-.132a.805.805 0 01.505.849.766.766 0 01-.718.664c-.026 0-.664.053-1.515.159-.319.053-.638.106-.93.159-.585.107-1.197.239-1.675.293.133.026.266.026.452.053l4.838.637a.809.809 0 01.691.902c-.133.452-.478.744-.85.744zm7.337 1.991c-1.569-.584-2.074-1.062-2.074-1.062 2.047-3.186 0-8.469 0-8.469s.532-.133 2.18-.478a1.862 1.862 0 001.249-.876c3.403 3.85 1.356 10.593.452 13.035-.797-.69-.611-1.699-1.807-2.15zm17.837-9.69c-.053 0-.107 0-.16-.027a.808.808 0 01-.638-.929c.957-4.938 4.759-5.363 4.945-5.389.425-.054.824.265.877.716.053.425-.266.823-.718.876-.133.027-2.791.372-3.535 4.115-.053.372-.399.638-.771.638zm-13.983-5.443h-.08c-.425-.053-.771-.425-.717-.876.478-4.938 3.854-12 3.987-12.292a.797.797 0 011.436.69c-.027.08-3.403 7.089-3.828 11.735-.054.425-.399.743-.798.743zm-10.979 0h-.08a.84.84 0 01-.717-.876c.505-4.672-1.037-11.363-1.037-11.442a.793.793 0 011.542-.372c.079.292 1.621 7.035 1.09 11.973-.054.399-.399.717-.798.717z" fill="#1E1E1E"/><path d="M631.678 260.179h-.053c-.744-.053-18.05-1.221-20.097-1.752-1.462-.372-1.861-1.221-2.153-1.832-.213-.425-.292-.611-.638-.743-1.542-.584-2.1-1.089-2.18-1.168a.844.844 0 01-.133-1.009c1.648-2.655-.053-7.248-.08-7.301-.079-.212-.079-.451.027-.637a.757.757 0 01.505-.398c.027 0 .532-.133 2.074-.452.372-.079.478-.239.771-.637.398-.557.93-1.327 2.445-1.46 2.1-.186 18.183 1.646 19.991 1.832a.799.799 0 01.691.876.799.799 0 01-.877.69c-4.918-.557-18.05-1.991-19.672-1.832-.771.08-.957.346-1.276.77-.319.452-.744 1.062-1.754 1.275-.479.106-.878.185-1.17.239.425 1.513 1.116 4.672.027 7.168.265.132.638.318 1.169.53.957.372 1.276 1.036 1.515 1.54.24.478.373.797 1.117.983 1.595.398 14.833 1.38 19.805 1.699.451.026.77.398.744.849a.794.794 0 01-.798.77zm-42.267-20.124a.831.831 0 01-.665-.345c-2.472-3.637-6.778-5.84-6.805-5.867a.77.77 0 01-.346-1.062.774.774 0 011.064-.345c.186.106 4.705 2.416 7.416 6.398.24.372.16.85-.212 1.115-.16.053-.319.106-.452.106zm39.795-22.114c-3.057 5.097-9.889 10.141-11.51 10.885v.026c4.572.213 15.258-5.681 17.066-6.716-2.206-1.646-4.041-3.186-5.556-4.195zm-33.84.61c-.027-.743-.107-1.619-.107-2.522h-.026c-1.303 1.036-2.552 2.071-3.696 3.133 1.383 2.681 4.174 6.743 7.231 8.628-.877-1.911-3.216-4.46-3.402-9.239z" fill="#1E1E1E"/><path d="M620.141 198.402s3.988.079 3.27 3.637c-.718 3.557-5.131 1.513-5.131 1.513l.585-5.07 1.276-.08z" fill="#fff"/><path d="M620.832 204.959c-1.382 0-2.685-.584-2.871-.664a.765.765 0 01-.452-.823l.585-5.07c.053-.372.346-.691.745-.691l1.249-.079h.053c.08 0 2.26.053 3.429 1.513.638.797.851 1.858.612 3.08-.293 1.407-1.064 2.07-1.675 2.362-.505.266-1.09.372-1.675.372zm-1.674-1.911c.744.239 1.914.504 2.658.106.425-.213.691-.637.824-1.248.159-.77.053-1.354-.292-1.779-.638-.796-1.994-.902-2.207-.902l-.558.026-.425 3.797z" fill="#1E1E1E"/><path d="M608.79 187.172c-1.063-.079-8.241-.531-9.038 5.469-.798 6 .053 12.61.718 15.637.664 3.026 14.434 1.619 15.232 1.354.797-.266 1.701-1.168 1.701-1.168l1.888-9.212c0-.027.771-11.124-10.501-12.08z" fill="#fff"/><path d="M607.966 210.985c-2.791 0-5.582-.239-7.045-1.062-.691-.371-1.089-.876-1.222-1.46-.665-3-1.569-9.743-.745-15.929.665-5.07 5.556-6.504 9.889-6.159 11.936 1.009 11.245 12.796 11.245 12.903 0 .026 0 .079-.026.106l-1.888 9.212a.727.727 0 01-.212.398c-.107.106-1.09 1.036-1.994 1.354-.372.16-4.2.637-8.002.637zm-.345-23.07c-2.34 0-6.54.611-7.098 4.805-.798 5.974.079 12.478.718 15.372.026.159.265.318.372.398 2.631 1.593 12.813.664 13.823.372.399-.133.93-.558 1.223-.823l1.834-8.894c.053-.85.293-10.327-9.783-11.177a11.142 11.142 0 00-1.089-.053z" fill="#1E1E1E"/><path d="M618.653 203.26l.239 7.46 2.127 2.416c-4.546 3-8.64 6.584-12.229 10.672 0 0-4.891-5.15-5.768-13.247l11.484 1.434.903-4.487 3.244-4.248z" fill="#fff"/><path d="M608.817 224.631a.821.821 0 01-.585-.239c-.213-.212-5.104-5.442-5.981-13.725a.8.8 0 01.239-.664c.186-.159.425-.265.664-.212l10.74 1.327.744-3.743a.73.73 0 01.16-.319l3.243-4.247a.796.796 0 01.877-.266.835.835 0 01.559.743l.239 7.195 1.94 2.204c.16.185.213.398.187.637a.786.786 0 01-.346.557 60.758 60.758 0 00-12.069 10.513.966.966 0 01-.611.239zm-4.838-13.141c.85 5.575 3.641 9.584 4.838 11.123a61.193 61.193 0 0111.005-9.61l-1.542-1.752a.701.701 0 01-.186-.505l-.186-5.229-1.754 2.336-.851 4.301a.813.813 0 01-.877.637l-10.447-1.301z" fill="#1E1E1E"/><path d="M617.935 199.171c-.691.664-2.526 4.46-2.951 6.239 0 0-4.519-1.487-11.032-1.593 0 0-3.536.08-4.945.478 0 0 .319 6.292 3.164 9.557 2.844 3.266 8.932 2.337 11.776.399 2.845-1.938 3.323-2.894 3.988-4.991.664-2.098 2.392-9.903 2.392-9.903l-2.392-.186z" fill="#A7A9AC"/><path d="M619.796 200.499s1.861-2.894 2.605-5.92c.718-2.814-.638-5.761-3.27-7.062-2.206-1.062-3.828-.239-3.828-.239s2.339-3.956-1.17-7.46a6.268 6.268 0 00-4.678-1.858 6.136 6.136 0 00-5.583 3.716s-4.572-8.389-13.929-3.424c-.957.504-2.021 1.884-2.526 2.84-3.083 5.681 7.098 12.425 12.415 12.956 5.821.584 9.251-.372 11.111-1.806-1.382.903.187 9.611 8.853 8.257zm-16.243 7.194a.993.993 0 01-.532-.185.815.815 0 01-.265-.691l.638-5.469a.799.799 0 01.877-.69.799.799 0 01.691.876l-.505 4.328.824-.213a.793.793 0 11.372 1.54l-1.94.504c-.027-.026-.107 0-.16 0zm-1.675-5.787c.309 0 .559-.392.559-.876s-.25-.876-.559-.876c-.308 0-.558.392-.558.876s.25.876.558.876zm5.184-.159c.308 0 .558-.392.558-.876s-.25-.876-.558-.876c-.308 0-.558.392-.558.876s.25.876.558.876z" fill="#1E1E1E"/><path d="M610.013 198.189a.793.793 0 01-.638-.318 1.772 1.772 0 00-1.675-.664.786.786 0 01-.904-.664.786.786 0 01.665-.902 3.393 3.393 0 013.19 1.247.797.797 0 01-.133 1.115c-.186.133-.346.186-.505.186zm-9.57-.186c-.08 0-.16 0-.239-.026-.426-.133-.665-.584-.532-.982.452-1.46 1.994-1.646 2.924-1.407a.82.82 0 01.585.982.793.793 0 01-.957.584c-.133-.027-.824-.186-.984.319a.87.87 0 01-.797.53zm6.513 12.398c-.16 0-.292-.026-.452-.053a.793.793 0 01-.638-.929.807.807 0 01.93-.637c.612.106.825-.425.878-.744a.794.794 0 01.93-.637c.425.08.718.478.665.903-.027.106-.213 1.115-1.01 1.699a2.29 2.29 0 01-1.303.398zm45.378 149.466H293.937a.783.783 0 01-.798-.796V259.86c0-.451.346-.796.798-.796h358.397c.451 0 .797.345.797.796v99.211a.799.799 0 01-.797.796zm-357.6-1.593h356.802v-97.617H294.734v97.617z" fill="#1E1E1E"/><path d="M652.759 259.648H293.246v12.77h359.513v-12.77zM685.031 360H261.798a.783.783 0 01-.798-.796c0-.452.346-.797.798-.797h423.233c.452 0 .798.345.798.797a.783.783 0 01-.798.796zM107.703 164.252h5.071V159h12.411v5.241h5.071v-9.353h-2.343v-17.706h-14.926l-.682 9.236c-.394 5.519-1.576 7.447-3.1 8.47h-1.502v9.364zm7.553-9.364c1.012-1.715 1.833-4.304 2.12-8.47l.341-4.954h5.125v13.424h-7.586zm25.057 4.421c5.146 0 8.267-3.398 8.267-8.438 0-5.049-3.121-8.448-8.267-8.448-5.145 0-8.267 3.399-8.267 8.448 0 5.04 3.122 8.438 8.267 8.438zm.032-3.931c-1.928 0-2.993-1.833-2.993-4.539 0-2.716 1.065-4.559 2.993-4.559 1.865 0 2.93 1.843 2.93 4.559 0 2.706-1.065 4.539-2.93 4.539zm10.904 9.758h5.209v-8.789h.107c.66 1.513 2.131 2.887 4.602 2.887 3.622 0 6.541-2.833 6.541-8.405 0-5.774-3.089-8.406-6.509-8.406-2.589 0-4.005 1.513-4.634 3.015h-.16v-2.802h-5.156v22.5zm5.103-14.318c0-2.674 1.108-4.325 3.015-4.325 1.928 0 2.993 1.694 2.993 4.325 0 2.642-1.065 4.357-2.993 4.357-1.907 0-3.015-1.704-3.015-4.357zm21.725 8.491c5.145 0 8.267-3.398 8.267-8.438 0-5.049-3.122-8.448-8.267-8.448-5.146 0-8.267 3.399-8.267 8.448 0 5.04 3.121 8.438 8.267 8.438zm.032-3.931c-1.928 0-2.994-1.833-2.994-4.539 0-2.716 1.066-4.559 2.994-4.559 1.864 0 2.93 1.843 2.93 4.559 0 2.706-1.066 4.539-2.93 4.539zM187.34 159h6.062l3.771-6.179h.426V159h5.21v-6.179h.426l3.761 6.179h6.061l-5.412-8.587 5.402-7.777h-5.924l-3.845 6.201h-.469v-6.201h-5.21v6.201h-.479l-3.846-6.201h-5.923l5.412 7.777L187.34 159zm32.855-16.364h-4.932V159h4.932v-6.243h4.847V159h4.901v-16.364h-4.901v6.147h-4.847v-6.147zm17.522 16.641c2.28 0 3.857-.884 4.752-2.557h.128V159h4.9v-11.122c0-3.463-3.079-5.455-7.244-5.455-4.4 0-6.893 2.216-7.308 5.199l4.804.171c.224-1.044 1.087-1.684 2.461-1.684 1.279 0 2.088.618 2.088 1.716v.053c0 1.001-1.086 1.214-3.878 1.459-3.313.277-6.083 1.502-6.083 5.125 0 3.238 2.248 4.815 5.38 4.815zm1.609-3.409c-1.204 0-2.056-.575-2.056-1.662 0-1.055.831-1.694 2.312-1.918.969-.138 2.162-.351 2.748-.66v1.555c0 1.598-1.342 2.685-3.004 2.685zM260.185 159h4.848v-16.364h-7.49c-4.474 0-7.297 2.28-7.265 5.54-.022 1.928 1.097 3.473 3.047 4.357L249.958 159h4.879l2.951-5.657h2.397V159zm0-8.96h-2.599c-1.609 0-2.397-.799-2.376-1.693-.021-.863.757-1.737 2.333-1.737h2.642v3.43zM108.651 199h5.21v-5.433h1.513l3.59 5.433h6.104l-5.561-8.171 5.508-8.193h-6.03l-3.974 6.094h-1.15v-6.094h-5.21V199zm22.66.277c2.28 0 3.857-.884 4.751-2.557h.128V199h4.901v-11.122c0-3.463-3.079-5.455-7.244-5.455-4.4 0-6.893 2.216-7.309 5.199l4.805.171c.224-1.044 1.087-1.684 2.461-1.684 1.278 0 2.088.618 2.088 1.716v.053c0 1.001-1.087 1.214-3.878 1.459-3.313.277-6.083 1.502-6.083 5.125 0 3.238 2.248 4.815 5.38 4.815zm1.609-3.409c-1.204 0-2.056-.575-2.056-1.662 0-1.055.831-1.694 2.311-1.918.97-.138 2.163-.351 2.749-.66v1.555c0 1.598-1.342 2.685-3.004 2.685zm11.356 9.268h5.21v-8.789h.106c.661 1.513 2.131 2.887 4.603 2.887 3.622 0 6.541-2.833 6.541-8.405 0-5.774-3.09-8.406-6.509-8.406-2.589 0-4.006 1.513-4.635 3.015h-.159v-2.802h-5.157v22.5zm5.103-14.318c0-2.674 1.108-4.325 3.015-4.325 1.928 0 2.994 1.694 2.994 4.325 0 2.642-1.066 4.357-2.994 4.357-1.907 0-3.015-1.704-3.015-4.357zm12.67-4.197h5.167V199h4.943v-12.379h5.231v-3.985h-15.341v3.985zm21.938 12.656c2.28 0 3.856-.884 4.751-2.557h.128V199h4.901v-11.122c0-3.463-3.079-5.455-7.245-5.455-4.399 0-6.892 2.216-7.308 5.199l4.805.171c.224-1.044 1.086-1.684 2.461-1.684 1.278 0 2.088.618 2.088 1.716v.053c0 1.001-1.087 1.214-3.878 1.459-3.313.277-6.083 1.502-6.083 5.125 0 3.238 2.248 4.815 5.38 4.815zm1.609-3.409c-1.204 0-2.057-.575-2.057-1.662 0-1.055.831-1.694 2.312-1.918.97-.138 2.163-.351 2.749-.66v1.555c0 1.598-1.343 2.685-3.004 2.685z" fill="#1E1E1E"/><path d="M108.651 245.136h5.21v-8.789h.106c.661 1.513 2.131 2.887 4.603 2.887 3.622 0 6.541-2.833 6.541-8.405 0-5.774-3.09-8.406-6.509-8.406-2.589 0-4.006 1.513-4.635 3.015h-.159v-2.802h-5.157v22.5zm5.103-14.318c0-2.674 1.108-4.325 3.015-4.325 1.928 0 2.994 1.694 2.994 4.325 0 2.642-1.066 4.357-2.994 4.357-1.907 0-3.015-1.704-3.015-4.357zm18.7 8.459c2.279 0 3.856-.884 4.751-2.557h.128V239h4.9v-11.122c0-3.463-3.078-5.455-7.244-5.455-4.4 0-6.893 2.216-7.308 5.199l4.805.171c.223-1.044 1.086-1.684 2.461-1.684 1.278 0 2.088.618 2.088 1.716v.053c0 1.001-1.087 1.214-3.878 1.459-3.313.277-6.083 1.502-6.083 5.125 0 3.238 2.248 4.815 5.38 4.815zm1.608-3.409c-1.204 0-2.056-.575-2.056-1.662 0-1.055.831-1.694 2.312-1.918.969-.138 2.163-.351 2.749-.66v1.555c0 1.598-1.343 2.685-3.005 2.685zm10.579-1.662c.117 3.377 3.111 5.103 7.191 5.103 4.176 0 7.17-1.779 7.17-4.837 0-2.354-1.779-3.718-3.825-3.835v-.17c2.195-.501 3.409-1.716 3.409-3.42 0-2.93-2.556-4.624-6.754-4.624-3.75 0-6.722 1.843-6.743 4.89h4.964c.011-.831.852-1.417 2.003-1.417 1.161 0 1.928.671 1.928 1.652 0 .863-.746 1.502-1.949 1.502h-2.195v3.206h2.195c1.214 0 2.056.714 2.056 1.737 0 1.119-.97 1.79-2.269 1.79-1.29 0-2.195-.618-2.216-1.577h-4.965zm16.92 4.794h8.161c4.347 0 6.722-1.598 6.722-4.496 0-2.013-1.619-3.824-4.943-4.005 2.514-.427 3.942-1.716 3.942-3.41 0-2.908-2.6-4.453-6.818-4.453h-7.064V239zm4.848-3.771v-3.079h3.313c1.097 0 1.779.607 1.779 1.598 0 .927-.682 1.481-1.779 1.481h-3.313zm0-5.902v-2.823h2.216c1.203 0 1.949.532 1.949 1.395 0 .895-.682 1.428-1.811 1.428h-2.354zm17.546 2.929v-9.62h-4.933V239h5.018l5.22-9.652V239h4.933v-16.364h-5.007l-5.231 9.62zm12.137-5.635h5.167V239h4.943v-12.379h5.231v-3.985h-15.341v3.985zm22.755 5.635v-9.62h-4.932V239h5.018l5.22-9.652V239h4.932v-16.364h-5.007l-5.231 9.62zM241.904 239h4.847v-16.364h-7.489c-4.474 0-7.298 2.28-7.266 5.54-.021 1.928 1.098 3.473 3.047 4.357L231.677 239h4.879l2.951-5.657h2.397V239zm0-8.96h-2.599c-1.609 0-2.397-.799-2.376-1.693-.021-.863.756-1.737 2.333-1.737h2.642v3.43zm-119.158 26.63c-.81.512-2.131.512-3.91.512h-1.14c-6.285.021-9.609 3.729-9.609 11.825v1.193c0 5.924 3.11 9.109 8.256 9.109 5.135 0 8.235-3.185 8.235-8.139 0-4.666-2.748-7.575-7.042-7.575-2.748 0-4.421 1.204-5.358 3.186h-.139c.405-3.953 1.918-5.391 5.838-5.412 3.462-.032 4.922-.213 6.275-1.257l-1.406-3.442zm-6.371 18.708c-1.854 0-2.972-1.502-2.972-4.006.01-2.525 1.118-3.952 2.961-3.952 1.79 0 2.909 1.427 2.909 3.952 0 2.514-1.108 4.006-2.898 4.006zm15.871-3.122v-9.62h-4.933V279h5.018l5.22-9.652V279h4.933v-16.364h-5.007l-5.231 9.62zm12.776 1.95c.117 3.377 3.111 5.103 7.191 5.103 4.176 0 7.17-1.779 7.17-4.837 0-2.354-1.779-3.718-3.825-3.835v-.17c2.195-.501 3.409-1.716 3.409-3.42 0-2.93-2.556-4.624-6.754-4.624-3.75 0-6.722 1.843-6.744 4.89h4.965c.011-.831.852-1.417 2.003-1.417 1.161 0 1.928.671 1.928 1.652 0 .863-.746 1.502-1.95 1.502h-2.194v3.206h2.194c1.215 0 2.057.714 2.057 1.737 0 1.119-.97 1.79-2.27 1.79-1.289 0-2.194-.618-2.215-1.577h-4.965zm21.853-11.57h-4.933V279h4.933v-6.243h4.847V279h4.901v-16.364h-4.901v6.147h-4.847v-6.147zm20.558 16.673c4.294 0 7.117-2.077 7.713-5.295l-4.783-.138c-.405 1.086-1.47 1.672-2.834 1.672-2.003 0-3.239-1.331-3.239-3.334v-.139h10.91v-1.299c0-5.391-3.282-8.353-7.927-8.353-4.943 0-8.117 3.388-8.117 8.459 0 5.242 3.132 8.427 8.277 8.427zm-3.143-10.259c.075-1.63 1.364-2.866 3.09-2.866 1.715 0 2.951 1.193 2.972 2.866h-6.062zm21.209 10.259c4.602 0 7.457-2.674 7.596-6.722h-4.869c-.192 1.736-1.236 2.684-2.663 2.684-1.833 0-3.026-1.544-3.026-4.453 0-2.887 1.204-4.432 3.026-4.432 1.491 0 2.461 1.012 2.663 2.685h4.869c-.118-4.027-3.058-6.648-7.607-6.648-5.145 0-8.256 3.431-8.256 8.448 0 4.997 3.089 8.438 8.267 8.438zm14.875-.032c2.279 0 3.856-.884 4.751-2.557h.128V279h4.9v-11.122c0-3.463-3.078-5.455-7.244-5.455-4.4 0-6.893 2.216-7.308 5.199l4.805.171c.223-1.044 1.086-1.684 2.46-1.684 1.279 0 2.089.618 2.089 1.716v.053c0 1.001-1.087 1.214-3.878 1.459-3.314.277-6.083 1.502-6.083 5.125 0 3.238 2.247 4.815 5.38 4.815zm1.608-3.409c-1.204 0-2.056-.575-2.056-1.662 0-1.055.831-1.694 2.312-1.918.969-.138 2.163-.351 2.749-.66v1.555c0 1.598-1.343 2.685-3.005 2.685z" fill="#8A2C5B"/></g><g filter="url(#filter1_d)"><circle cx="70" cy="90" r="40" fill="#fff"/><circle cx="70" cy="90" r="39" stroke="#8A2C5B" stroke-width="2"/></g><path d="M83.63 77.77l-6.547-6.548a.757.757 0 00-.535-.222H56.904a.757.757 0 00-.757.757v36.486c0 .418.34.757.757.757h26.192a.757.757 0 00.757-.757V78.305a.758.758 0 00-.222-.536zm-6.325-4.185l3.963 3.963h-3.963v-3.963zm5.034 33.901H57.66V72.514h18.13v5.79c0 .419.339.758.757.758h5.79v28.424z" fill="#8A2C5B"/><path d="M71.93 104.761H59.858a.757.757 0 000 1.514H71.93a.757.757 0 000-1.514zm3.861 0h-.821a.757.757 0 000 1.514h.821a.757.757 0 000-1.514zM74.126 90.53l5.621-6.942a.757.757 0 00-.588-1.233h-6.305a.757.757 0 00-.588.28L70 85.434l-2.266-2.799a.757.757 0 00-.588-.28H60.84a.757.757 0 00-.588 1.233l5.621 6.942-5.62 6.942a.757.757 0 00.587 1.233h6.306a.757.757 0 00.588-.28l2.266-2.8 2.266 2.798c.143.178.36.281.588.281h6.305a.757.757 0 00.588-1.233l-5.62-6.942zm-.91-6.662h4.356l-4.42 5.459-2.178-2.69 2.241-2.769zm-6.431 13.323h-4.358l4.42-5.458 2.179 2.69-2.242 2.768zm6.43 0L62.427 83.868h4.357l10.788 13.323h-4.357z" fill="#8A2C5B"/><defs><clipPath id="clip0"><path fill="#fff" transform="translate(376.423 83.227)" d="M0 0h12.086v12.086H0z"/></clipPath><clipPath id="clip1"><path fill="#fff" transform="translate(467.673 83.227)" d="M0 0h12.086v12.086H0z"/></clipPath><clipPath id="clip2"><path fill="#fff" transform="translate(558.924 83.227)" d="M0 0h12.086v12.086H0z"/></clipPath><clipPath id="clip3"><path fill="#fff" transform="translate(467.673 175.082)" d="M0 0h12.086v12.086H0z"/></clipPath><linearGradient id="paint0_linear" x1="333.209" y1="23.297" x2="330.773" y2="394.176" gradientUnits="userSpaceOnUse"><stop/><stop offset="1" stop-color="#121212"/></linearGradient><linearGradient id="paint1_linear" x1="70.297" y1="23.297" x2="360.17" y2="218.86" gradientUnits="userSpaceOnUse"><stop stop-color="#2C2C2C"/><stop offset="1" stop-color="#121212"/></linearGradient><linearGradient id="paint2_linear" x1="333.209" y1="23.297" x2="330.773" y2="394.176" gradientUnits="userSpaceOnUse"><stop/><stop offset="1" stop-color="#121212"/></linearGradient><filter id="filter0_d" x="37" y="0" width="660" height="437.473" filterUnits="userSpaceOnUse" color-interpolation-filters="sRGB"><feFlood flood-opacity="0" result="BackgroundImageFix"/><feColorMatrix in="SourceAlpha" values="0 0 0 0 0 0 0 0 0 0 0 0 0 0 0 0 0 0 127 0"/><feOffset dy="10"/><feGaussianBlur stdDeviation="15"/><feColorMatrix values="0 0 0 0 0 0 0 0 0 0 0 0 0 0 0 0 0 0 0.25 0"/><feBlend in2="BackgroundImageFix" result="effect1_dropShadow"/><feBlend in="SourceGraphic" in2="effect1_dropShadow" result="shape"/></filter><filter id="filter1_d" x="0" y="30" width="140" height="140" filterUnits="userSpaceOnUse" color-interpolation-filters="sRGB"><feFlood flood-opacity="0" result="BackgroundImageFix"/><feColorMatrix in="SourceAlpha" values="0 0 0 0 0 0 0 0 0 0 0 0 0 0 0 0 0 0 127 0"/><feOffset dy="10"/><feGaussianBlur stdDeviation="15"/><feColorMatrix values="0 0 0 0 0.541176 0 0 0 0 0.172549 0 0 0 0 0.356863 0 0 0 0.15 0"/><feBlend in2="BackgroundImageFix" result="effect1_dropShadow"/><feBlend in="SourceGraphic" in2="effect1_dropShadow" result="shape"/></filter></defs></svg>