<svg width="172" height="62" fill="none" xmlns="http://www.w3.org/2000/svg"><path d="M26.898 59l-.986-.162-.19 1.162h1.176v-1zm9.972 0v1h.85l.137-.838L36.87 59zm2.216-13.517v-1h-.85l-.137.838.987.162zm7.506 0v1h.845l.141-.833-.986-.167zm1.69-9.972l.986.167.198-1.167h-1.184v1zm-7.562 0l-.986-.162-.192 1.162h1.178v-1zm1.607-9.75v-1h-.849l-.138.838.987.162zm7.506 0v1h.845l.141-.833-.986-.167zm1.69-9.971l.986.167.197-1.167h-1.183v1zm-7.562 0l-.987-.162-.19 1.162h1.177v-1zm2.216-13.517l.987.161.19-1.161h-1.177v1zm-9.972 0v-1h-.85l-.137.838.987.162zM33.99 15.79v1h.85l.137-.838-.987-.162zm-9.971 0l-.987-.162-.19 1.162h1.177v-1zm2.216-13.517l.986.161.19-1.161h-1.176v1zm-9.972 0v-1h-.85l-.137.838.987.162zM14.046 15.79v1h.85l.137-.838-.987-.162zm-7.506 0v-1h-.845l-.141.833.986.167zm-1.69 9.97l-.986-.167-.198 1.167H4.85v-1zm7.562 0l.987.163.191-1.163h-1.178v1zm-1.607 9.75v1h.85l.137-.837-.987-.163zm-7.506 0v-1h-.845l-.14.833.985.167zm-1.69 9.972l-.986-.167-.197 1.167h1.183v-1zm7.562 0l.987.162.19-1.162H9.171v1zM6.955 59l-.987-.162L5.778 60h1.177v-1zm9.972 0v1h.85l.137-.838-.987-.162zm2.216-13.517v-1h-.85l-.137.838.987.162zm9.971 0l.987.162.19-1.162h-1.177v1zm-8.337-9.972l-.987-.162-.191 1.162h1.178v-1zm1.607-9.75v-1h-.85l-.137.838.987.162zm9.971 0l.987.163.191-1.163h-1.178v1zm-1.606 9.75v1h.848l.138-.837-.986-.163zM26.899 60h9.971v-2h-9.972v2zm10.958-.838l2.216-13.517-1.974-.324-2.216 13.517 1.974.324zm1.229-12.679h7.506v-2h-7.506v2zm8.492-.833l1.69-9.972-1.972-.334-1.69 9.972 1.972.334zm.704-11.139H40.72v2h7.562v-2zm-6.575 1.163l1.606-9.75-1.973-.325-1.607 9.75 1.974.325zm.62-8.913h7.506v-2h-7.506v2zm8.492-.833l1.69-9.971-1.972-.334-1.69 9.971 1.972.334zm.704-11.138H43.96v2h7.562v-2zm-6.575 1.162l2.216-13.518-1.974-.323-2.216 13.517 1.974.323zm1.229-14.68h-9.972v2h9.972v-2zm-10.959.839l-2.216 13.517 1.974.323 2.216-13.517-1.974-.323zM33.99 14.79h-9.971v2h9.971v-2zm-8.984 1.162L27.22 2.433l-1.974-.323-2.216 13.517 1.974.323zm1.229-14.68h-9.972v2h9.972v-2zm-10.959.839L13.06 15.628l1.974.323L17.25 2.434l-1.974-.323zm-1.23 12.679H6.54v2h7.506v-2zm-8.492.833l-1.69 9.971 1.972.334 1.69-9.971-1.972-.334zM4.85 26.76h7.562v-2H4.85v2zm6.575-1.162l-1.606 9.75 1.973.325 1.607-9.75-1.974-.325zm-.62 8.912H3.3v2h7.506v-2zm-8.492.833l-1.69 9.972 1.972.334 1.69-9.972-1.972-.334zm-.703 11.14h7.562v-2H1.61v2zm6.575-1.162L5.968 58.838l1.974.324 2.216-13.517-1.974-.324zM6.955 60h9.972v-2H6.955v2zm10.959-.838l2.216-13.517-1.974-.324-2.216 13.517 1.974.324zm1.229-12.679h9.971v-2h-9.971v2zm8.985-1.162l-2.216 13.517 1.973.324 2.216-13.517-1.973-.324zm-6.364-9.647l1.606-9.75-1.973-.325-1.607 9.75 1.974.325zm.62-8.913h9.971v-2h-9.971v2zm8.984-1.162l-1.606 9.75 1.973.325 1.607-9.75-1.974-.325zm-.62 8.912h-9.971v2h9.972v-2zm65.765 25.874l.001-1h-.001v1zM120.5 30.72l-1-.002 1 .002zm-47.947 0l1 .002v-.001l-1-.002zm14.099 0l1 .004v-.002l-1-.003zm19.749 0l1-.003-1 .003zm-9.89 30.665c7.691.014 13.98-2.832 18.328-8.17 4.326-5.31 6.647-12.983 6.661-22.494l-2-.003c-.014 9.213-2.263 16.387-6.212 21.235-3.927 4.82-9.619 7.445-16.773 7.432l-.004 2zM121.5 30.72c.014-9.46-2.308-17.02-6.647-22.233-4.359-5.236-10.661-7.99-18.34-7.99v2c7.167 0 12.873 2.549 16.802 7.27 3.95 4.744 6.198 11.795 6.185 20.95l2 .003zM96.513.497c-7.68 0-13.961 2.748-18.307 7.982-4.325 5.21-6.639 12.77-6.653 22.239l2 .003c.014-9.172 2.256-16.223 6.192-20.964 3.916-4.717 9.6-7.26 16.768-7.26v-2zm-24.96 30.22c-.028 9.486 2.286 17.153 6.616 22.468 4.35 5.34 10.652 8.2 18.344 8.2v-2c-7.156 0-12.862-2.638-16.793-7.463-3.952-4.851-6.194-12.017-6.167-21.2l-2-.006zm24.96 17.45c-2.545 0-4.714-1.247-6.295-4.024-1.612-2.83-2.594-7.242-2.566-13.42l-2-.008c-.028 6.343.97 11.155 2.828 14.418 1.888 3.317 4.677 5.034 8.033 5.034v-2zm-8.861-17.445c.013-6.053 1.001-10.375 2.604-13.147 1.572-2.718 3.72-3.943 6.257-3.943v-2c-3.336 0-6.104 1.684-7.988 4.942-1.853 3.203-2.86 7.926-2.873 14.143l2 .005zm8.86-17.09c2.553 0 4.708 1.227 6.282 3.944 1.606 2.772 2.593 7.093 2.607 13.146l2-.005c-.014-6.217-1.021-10.94-2.877-14.144-1.888-3.26-4.663-4.94-8.011-4.94v2zm8.889 17.09c.014 6.178-.968 10.59-2.58 13.421-1.58 2.776-3.75 4.024-6.308 4.024v2c3.368 0 6.157-1.716 8.046-5.034 1.858-3.263 2.856-8.075 2.842-14.416l-2 .005zM128.352 59h-1v1h1v-1zm41.992 0v1h1v-1h-1zm0-11.052h1v-1h-1v1zm-22.99 0h-1v1h1v-1zm0-.36l-.678-.735-.322.297v.438h1zm6.786-6.26l-.657-.754-.011.01-.01.01.678.734zm-26.619-21.051l-1 .002.003.998h.997v-1zm12.991 0v1h1v-1h-1zm8.532 10.747l.658.753.01-.01-.668-.743zM128.352 49.14l-.658-.752-.342.299v.453h1zm0 10.861h41.992v-2h-41.992v2zm42.992-1V47.948h-2V59h2zm-1-12.052h-22.99v2h22.99v-2zm-21.99 1v-.36h-2v.36h2zm-.322.375l6.786-6.26-1.356-1.47-6.786 6.26 1.356 1.47zm6.765-6.241c12.309-10.729 15.854-16.449 15.854-23.44h-2c0 6.029-2.88 11.222-15.168 21.932l1.314 1.508zm15.854-23.44c0-5.405-2.215-9.978-6.147-13.18-3.913-3.188-9.459-4.965-16.07-4.965v2c6.269 0 11.332 1.685 14.807 4.516 3.458 2.815 5.41 6.815 5.41 11.63h2zM148.434.498c-6.461 0-11.951 1.863-15.836 5.31-3.898 3.46-6.091 8.44-6.077 14.472l2-.004c-.013-5.517 1.977-9.929 5.405-12.971 3.441-3.055 8.421-4.807 14.508-4.807v-2zm-20.913 20.78h12.991v-2h-12.991v2zm13.991-1c0-2.354.721-4.102 1.876-5.26 1.155-1.158 2.848-1.828 4.991-1.828v-2c-2.566 0-4.807.812-6.407 2.416-1.602 1.606-2.46 3.902-2.46 6.672h2zm6.867-7.088c2.109 0 3.848.649 5.047 1.749 1.19 1.09 1.93 2.697 1.93 4.785h2c0-2.593-.936-4.754-2.578-6.26-1.633-1.496-3.883-2.274-6.399-2.274v2zm6.977 6.534c0 3.735-2.284 6.336-6.981 10.557l1.337 1.488c4.61-4.144 7.644-7.304 7.644-12.045h-2zm-6.971 10.549l-20.691 18.115 1.317 1.505 20.691-18.116-1.317-1.504zM127.352 49.14V59h2v-9.86h-2z" fill="#1E1E1E"/></svg>