<svg width="174" height="62" fill="none" xmlns="http://www.w3.org/2000/svg"><path d="M26.898 59l-.986-.162-.19 1.162h1.176v-1zm9.972 0v1h.85l.137-.838L36.87 59zm2.216-13.517v-1h-.85l-.137.838.987.162zm7.506 0v1h.845l.141-.833-.986-.167zm1.69-9.972l.986.167.198-1.167h-1.184v1zm-7.562 0l-.986-.162-.192 1.162h1.178v-1zm1.607-9.75v-1h-.849l-.138.838.987.162zm7.506 0v1h.845l.141-.833-.986-.167zm1.69-9.971l.986.167.197-1.167h-1.183v1zm-7.562 0l-.987-.162-.19 1.162h1.177v-1zm2.216-13.517l.987.161.19-1.161h-1.177v1zm-9.972 0v-1h-.85l-.137.838.987.162zM33.99 15.79v1h.85l.137-.838-.987-.162zm-9.971 0l-.987-.162-.19 1.162h1.177v-1zm2.216-13.517l.986.161.19-1.161h-1.176v1zm-9.972 0v-1h-.85l-.137.838.987.162zM14.046 15.79v1h.85l.137-.838-.987-.162zm-7.506 0v-1h-.845l-.141.833.986.167zm-1.69 9.97l-.986-.167-.198 1.167H4.85v-1zm7.562 0l.987.163.191-1.163h-1.178v1zm-1.607 9.75v1h.85l.137-.837-.987-.163zm-7.506 0v-1h-.845l-.14.833.985.167zm-1.69 9.972l-.986-.167-.197 1.167h1.183v-1zm7.562 0l.987.162.19-1.162H9.171v1zM6.955 59l-.987-.162L5.778 60h1.177v-1zm9.972 0v1h.85l.137-.838-.987-.162zm2.216-13.517v-1h-.85l-.137.838.987.162zm9.971 0l.987.162.19-1.162h-1.177v1zm-8.337-9.972l-.987-.162-.191 1.162h1.178v-1zm1.607-9.75v-1h-.85l-.137.838.987.162zm9.971 0l.987.163.191-1.163h-1.178v1zm-1.606 9.75v1h.848l.138-.837-.986-.163zM26.899 60h9.971v-2h-9.972v2zm10.958-.838l2.216-13.517-1.974-.324-2.216 13.517 1.974.324zm1.229-12.679h7.506v-2h-7.506v2zm8.492-.833l1.69-9.972-1.972-.334-1.69 9.972 1.972.334zm.704-11.139H40.72v2h7.562v-2zm-6.575 1.163l1.606-9.75-1.973-.325-1.607 9.75 1.974.325zm.62-8.913h7.506v-2h-7.506v2zm8.492-.833l1.69-9.971-1.972-.334-1.69 9.971 1.972.334zm.704-11.138H43.96v2h7.562v-2zm-6.575 1.162l2.216-13.518-1.974-.323-2.216 13.517 1.974.323zm1.229-14.68h-9.972v2h9.972v-2zm-10.959.839l-2.216 13.517 1.974.323 2.216-13.517-1.974-.323zM33.99 14.79h-9.971v2h9.971v-2zm-8.984 1.162L27.22 2.433l-1.974-.323-2.216 13.517 1.974.323zm1.229-14.68h-9.972v2h9.972v-2zm-10.959.839L13.06 15.628l1.974.323L17.25 2.434l-1.974-.323zm-1.23 12.679H6.54v2h7.506v-2zm-8.492.833l-1.69 9.971 1.972.334 1.69-9.971-1.972-.334zM4.85 26.76h7.562v-2H4.85v2zm6.575-1.162l-1.606 9.75 1.973.325 1.607-9.75-1.974-.325zm-.62 8.912H3.3v2h7.506v-2zm-8.492.833l-1.69 9.972 1.972.334 1.69-9.972-1.972-.334zm-.703 11.14h7.562v-2H1.61v2zm6.575-1.162L5.968 58.838l1.974.324 2.216-13.517-1.974-.324zM6.955 60h9.972v-2H6.955v2zm10.959-.838l2.216-13.517-1.974-.324-2.216 13.517 1.974.324zm1.229-12.679h9.971v-2h-9.971v2zm8.985-1.162l-2.216 13.517 1.973.324 2.216-13.517-1.973-.324zm-6.364-9.647l1.606-9.75-1.973-.325-1.607 9.75 1.974.325zm.62-8.913h9.971v-2h-9.971v2zm8.984-1.162l-1.606 9.75 1.973.325 1.607-9.75-1.974-.325zm-.62 8.912h-9.971v2h9.972v-2zm65.765 25.874l.001-1h-.001v1zM120.5 30.72l-1-.002 1 .002zm-47.947 0l1 .002v-.001l-1-.002zm14.099 0l1 .004v-.002l-1-.003zm19.749 0l1-.003-1 .003zm-9.89 30.665c7.691.014 13.98-2.832 18.328-8.17 4.326-5.31 6.647-12.983 6.661-22.494l-2-.003c-.014 9.213-2.263 16.387-6.212 21.235-3.927 4.82-9.619 7.445-16.773 7.432l-.004 2zM121.5 30.72c.014-9.46-2.308-17.02-6.647-22.233-4.359-5.236-10.661-7.99-18.34-7.99v2c7.167 0 12.873 2.549 16.802 7.27 3.95 4.744 6.198 11.795 6.185 20.95l2 .003zM96.513.497c-7.68 0-13.961 2.748-18.307 7.982-4.325 5.21-6.639 12.77-6.653 22.239l2 .003c.014-9.172 2.256-16.223 6.192-20.964 3.916-4.717 9.6-7.26 16.768-7.26v-2zm-24.96 30.22c-.028 9.486 2.286 17.153 6.616 22.468 4.35 5.34 10.652 8.2 18.344 8.2v-2c-7.156 0-12.862-2.638-16.793-7.463-3.952-4.851-6.194-12.017-6.167-21.2l-2-.006zm24.96 17.45c-2.545 0-4.714-1.247-6.295-4.024-1.612-2.83-2.594-7.242-2.566-13.42l-2-.008c-.028 6.343.97 11.155 2.828 14.418 1.888 3.317 4.677 5.034 8.033 5.034v-2zm-8.861-17.445c.013-6.053 1.001-10.375 2.604-13.147 1.572-2.718 3.72-3.943 6.257-3.943v-2c-3.336 0-6.104 1.684-7.988 4.942-1.853 3.203-2.86 7.926-2.873 14.143l2 .005zm8.86-17.09c2.553 0 4.708 1.227 6.282 3.944 1.606 2.772 2.593 7.093 2.607 13.146l2-.005c-.014-6.217-1.021-10.94-2.877-14.144-1.888-3.26-4.663-4.94-8.011-4.94v2zm8.889 17.09c.014 6.178-.968 10.59-2.58 13.421-1.58 2.776-3.75 4.024-6.308 4.024v2c3.368 0 6.157-1.716 8.046-5.034 1.858-3.263 2.856-8.075 2.842-14.416l-2 .005zm67.242 12.157l-1-.004v.007l1-.003zm-13.296-12.99h-1v.89l.884.103.116-.994zm0-.444l-.142-.99-.858.123v.867h1zm11.191-11.716l-1-.003v.007l1-.004zm-41.77.942l-1-.011-.011 1.01h1.011v-1zm13.101 0v1h.972l.028-.972-1-.029zm15.456-.056l-1-.007v.014l1-.007zm-14.015 6.648v-1h-1v1h1zm0 9.75h-1v1h1v-1zm14.93 6.814l-1-.014-.001.014.001.014 1-.014zm-16.814.498l1-.037-.036-.963h-.964v1zm-13.794 0v-1h-1.011l.011 1.011 1-.01zm22.298 18.45c6.815 0 12.722-1.802 16.95-4.948 4.243-3.157 6.778-7.667 6.763-12.95l-2 .005c.013 4.577-2.161 8.516-5.957 11.341-3.813 2.837-9.275 4.553-15.756 4.553v2zm23.713-17.892c.015-3.72-1.202-6.979-3.646-9.437-2.432-2.448-5.996-4.02-10.533-4.55l-.233 1.986c4.216.493 7.314 1.927 9.348 3.974 2.023 2.035 3.077 4.76 3.064 8.02l2 .007zm-13.296-12.995v-.443h-2v.444h2zm-.858.547c6.942-.996 12.079-5.73 12.049-12.71l-2 .008c.025 5.762-4.144 9.835-10.333 10.722l.284 1.98zm12.049-12.703c.03-10-9.002-17.235-21.497-17.235v2c11.824 0 19.522 6.726 19.497 15.229l2 .006zM150.041.497c-12.589 0-22.154 7.35-22.273 18.163l2 .021c.103-9.351 8.375-16.184 20.273-16.184v-2zm-21.273 19.174h13.101v-2h-13.101v2zm14.101-.972c.09-3.146 2.928-5.51 7.172-5.51v-2c-4.898 0-9.039 2.843-9.171 7.453l1.999.057zm7.172-5.51c1.975 0 3.554.596 4.621 1.54 1.057.933 1.675 2.26 1.663 3.879l2 .014c.016-2.176-.833-4.062-2.339-5.392-1.495-1.322-3.572-2.041-5.945-2.041v2zm6.284 5.433c.012 1.64-.698 3.014-1.966 4.004-1.286 1.004-3.187 1.637-5.537 1.637v2c2.691 0 5.056-.724 6.768-2.06 1.73-1.352 2.752-3.301 2.735-5.595l-2 .014zm-7.503 5.64h-5.512v2h5.512v-2zm-6.512 1v9.75h2v-9.75h-2zm1 10.75h5.512v-2h-5.512v2zm5.512 0c2.714 0 4.858.67 6.289 1.719 1.408 1.031 2.151 2.44 2.129 4.082l1.999.028c.033-2.348-1.065-4.346-2.946-5.724-1.859-1.361-4.452-2.104-7.471-2.104v2zm8.418 5.828c.023 1.695-.68 3.113-1.914 4.127-1.249 1.027-3.088 1.674-5.341 1.674v2c2.622 0 4.938-.753 6.611-2.129 1.689-1.388 2.675-3.377 2.643-5.7l-1.999.029zm-7.255 5.8c-4.575 0-7.449-2.38-7.559-5.352l-1.999.074c.167 4.508 4.439 7.279 9.558 7.279v-2zm-8.559-6.315h-13.794v2h13.794v-2zm-14.794 1.011c.119 11.002 10.017 18.44 23.298 18.44v-2c-12.646 0-21.195-6.966-21.298-16.462l-2 .022z" fill="#1E1E1E"/></svg>