<svg width="248" height="174" fill="none" xmlns="http://www.w3.org/2000/svg"><g clip-path="url(#clip0)"><path d="M171.242 118.446c.437 0 .83-.326.873-.782.372-3.603 2.904-11.18 2.926-11.267a.871.871 0 00-.546-1.107.88.88 0 00-1.113.543c-.109.325-2.62 7.859-3.013 11.636a.876.876 0 00.786.955c.022.022.065.022.087.022zm-29.166.326c.458 0 .83-.348.873-.804.393-4.862.48-9.812.24-14.675a.874.874 0 00-1.746.087c.24 4.798.153 9.66-.24 14.458-.044.478.327.89.807.934h.066zM108.653 93.09c6.724 0 8.448-8.055 9.278-11.94.175-.782.349-1.672.48-1.89a.642.642 0 00-.043-.89.636.636 0 00-.917.022c-.328.326-.459.956-.808 2.497-.83 3.82-2.336 10.92-8.012 10.92h-.153c-.349 0-.655.282-.655.63a.67.67 0 00.633.672c.088-.021.131-.021.197-.021zm97.497-10.312c3.58 1.563 8.732 4.624 12.88 10.941-5.85-2.388-25.957 15.5-40.234 11.441 6.658-.695 20.848-11.05 27.354-22.382z" fill="#1E1E1E"/><path d="M209.97 174c9.344-.152 17.094-1.628 23.098-4.342 5.697-2.583 9.802-6.317 12.247-11.072 3.012-5.926 3.384-13.264 1.091-21.839-2.183-8.163-6.658-17.02-13.273-26.333-14.103-19.778-21.787-25.704-25.891-26.92 3.078-5.558 3.885-10.79 2.401-15.587-1.747-5.666-6.724-10.486-14.78-14.285a.656.656 0 00-.873.304.648.648 0 00.306.868c7.706 3.648 12.443 8.185 14.103 13.504 1.44 4.645.524 9.79-2.729 15.305a.666.666 0 00-.022.607.689.689 0 00.48.37c2.947.455 10.217 4.537 25.935 26.593 6.55 9.183 10.938 17.911 13.077 25.9 2.205 8.249 1.878 15.283-.982 20.906-4.738 9.313-16.548 14.393-34.166 14.697a.629.629 0 00-.633.673c-.044.369.24.651.611.651zm-97.933-47.456c3.973 0 8.295-.218 12.989-.652a.571.571 0 00.328.087.64.64 0 00.654-.651v-.13a.655.655 0 00-.218-.478.823.823 0 00-.502-.174c-22.006 2.084-35.89-.564-42.44-8.054-6.265-7.164-5.348-17.78-2.052-31.5L94.484 40.01c1.158-2.475 2.14-2.67 2.926-2.8.546-.109 1.2-.217 1.615-.977 1.07-1.932 1.725-3.213 2.096-3.908 5.851 4.255 15.631 3.191 18.382 2.8.044.695.087 1.955.153 3.995.043 1.889 1.048 2.822 1.943 3.647 1.026.955 1.899 1.759 1.681 4.017l-6.004 31.956a.601.601 0 00.197.586.649.649 0 00.589.174l16.679-3.54a.651.651 0 00.502-.52c.917-4.95 3.427-14.133 10.108-19.82a.63.63 0 00.065-.913.638.638 0 00-.917-.065c-6.789 5.775-9.453 14.915-10.457 20.146l-15.303 3.235 5.829-31.022v-.066c.283-2.93-1.026-4.146-2.074-5.123-.83-.781-1.485-1.39-1.528-2.713-.088-3.54-.197-4.733-.197-4.777a.658.658 0 00-.262-.456.735.735 0 00-.524-.13c-.131.022-12.575 2.236-18.665-2.887a.62.62 0 00-.546-.13.683.683 0 00-.459.347c0 .022-.72 1.433-2.445 4.58-.109.196-.218.24-.72.326-.983.174-2.445.456-3.886 3.582-.022.022-.022.066-.022.087L79.53 84.688v.043c-1.31 5.471-2.663 11.875-2.598 17.802.066 6.274 1.681 11.159 4.934 14.893 5.37 6.078 15.304 9.118 30.171 9.118zm10.893 47.348c.35 0 .655-.283.655-.652l.262-18.561a.641.641 0 00-.655-.651.655.655 0 00-.655.651l-.262 18.561c0 .348.284.652.655.652z" fill="#1E1E1E"/><path d="M126.816 76.938c2.642-1.086 6.156-1.498 8.449-1.867a29.204 29.204 0 00-.568 6.621c.502 11.44 4.999 15.891 6.069 20.103-13.841-5.058-14.91-18.475-13.95-24.857z" fill="#1E1E1E"/><path d="M147.556 143.781c.283 2.409.851 3.43 6.549 6.339 1.463.738 4.519 2.344 8.601 4.407a931.318 931.318 0 00-1.31 18.127l-17.05.239s.481-17.454.83-35.191c.939 1.911 2.205 4.624 2.38 6.079zm-2.009-40.336c-.218-9.357 3.384-18.54 6.877-24.662.568 8.532 2.401 18.431 4.344 21.666 9.169-6.317 16.046-9.943 21.547-12.83 3.472-5.558 6.397-10.53 7.663-14.133a41.293 41.293 0 01-.044-1.65l.59.065c-1.528 5.015-4.825 12.136-11.658 21.688a46.012 46.012 0 00-3.82 5.123c-1.638 2.54-3.122 9.726-4.432 18.67-7.597-1.042-13.47-1.259-14.539.348l-6.593 1.259c.262-12.527.196-10.442.065-15.544z" fill="#8A2C5B"/><path d="M146.922 137.811a.652.652 0 00.634-.521.645.645 0 00-.503-.76l-10.151-2.062c-.349-.066-.699.152-.764.499a.645.645 0 00.502.76l10.151 2.062c.044 0 .088.022.131.022z" fill="#1E1E1E"/><path d="M120.682 159.672c.676 0 2.226-.543 4.693-9.921a.665.665 0 00-.458-.803.67.67 0 00-.808.456c-1.55 5.905-2.882 8.531-3.449 8.922-.175-.239-.655-1.346-.59-6.013.044-3.192.306-6.752.481-8.901l.065-.825c.131-1.976 1.55-8.293 2.62-11.332.24-.695 6.2-16.955 21.154-11.897.022 0 .044.022.066.022l9.889 2.409a.648.648 0 10.306-1.259l-9.89-2.41c-6.047-2.04-11.636-1.02-16.198 2.975-4.323 3.755-6.244 8.77-6.572 9.747-1.135 3.191-2.554 9.596-2.707 11.68l-.065.803c-.546 7.359-.873 14.372.48 15.913.284.326.611.412.852.434h.131z" fill="#1E1E1E"/><path d="M136.051 143.151c.24 0 .458-.13.567-.325 1.485-2.649.873-6.34.48-8.771a22.055 22.055 0 01-.218-1.563c-.043-.347-.349-.63-.72-.586-.35.043-.633.347-.59.716.044.478.131 1.021.24 1.65.393 2.388.917 5.688-.349 7.924a.65.65 0 00.262.89.887.887 0 00.328.065zm-8.012 9.683c.698 0 1.288-.174 1.768-.543 1.026-.738 1.135-1.997 1.135-2.041a.641.641 0 00-.611-.694.656.656 0 00-.699.607s-.065.717-.611 1.108c-.415.304-1.026.347-1.834.173-1.899-.434-3.231-5.883-3.624-9.204a.655.655 0 00-.72-.565.655.655 0 00-.568.717c.109.976 1.223 9.552 4.628 10.333.393.065.765.109 1.136.109z" fill="#1E1E1E"/><path d="M132.056 151.162c.829 0 1.528-.217 2.052-.673.96-.825.96-2.062.96-2.106a.641.641 0 00-.655-.651.641.641 0 00-.655.651s-.021.717-.524 1.129c-.393.326-1.004.434-1.812.304-1.921-.282-3.602-5.036-4.191-7.945a.633.633 0 00-.764-.5.63.63 0 00-.502.76c.174.868 1.834 8.445 5.283 8.988.262.021.546.043.808.043z" fill="#1E1E1E"/><path d="M135.112 148.926c.567 0 1.266-.239 2.03-1.02 3.559-3.778 3.275-5.84 3.231-6.057a.662.662 0 00-.087-.217c-.262-.413-.961-1.129-1.965-1.129-1.157 0-2.314.911-3.427 2.692a.619.619 0 00.218.89c.305.195.72.108.895-.217 1.135-1.802 1.943-2.084 2.314-2.084s.633.238.786.39c-.022.456-.306 2.063-2.904 4.798-.698.738-1.135.63-1.266.586-1.31-.369-2.663-3.864-3.187-6.23a.683.683 0 00-.786-.5.68.68 0 00-.502.782c.153.673 1.528 6.491 4.126 7.207.153.065.327.109.524.109zm12.291-6.665c7.706-6.23 10.326-21.904 7.073-25.335-.131-1.085-2.642.76-4.148.912-3.646.413-5.218.521-5.218.521 1.485 4.516-.174 9.987-1.855 13.872a42.777 42.777 0 01-2.511 4.994c.284.152 1.463.716 4.257 1.932 1.594.716 1.943 1.91 2.402 3.104zm45.67-19.147a.671.671 0 00.611-.391c1.114-2.562 3.45-3.994 6.921-4.32 2.816-.261 5.807.304 7.663.933.349.109.72-.065.829-.412a.647.647 0 00-.415-.825c-4.366-1.433-13.338-2.431-16.198 4.103a.62.62 0 00.349.847.445.445 0 00.24.065z" fill="#1E1E1E"/><path d="M210.8 174a.677.677 0 00.655-.543.644.644 0 00-.546-.738c-18.731-2.93-44.077-16.499-53.617-21.622-1.244-.673-2.248-1.194-2.903-1.541-5.567-2.844-5.938-3.734-6.178-5.84-.262-2.236-2.751-6.947-3.406-8.163l7.881-17.519c.349-.456 1.987-1.303 9.606-.543 4.802.478 11.242 1.52 19.145 3.104 13.492 2.692 26.743 6.079 26.874 6.101.35.087.699-.131.808-.478.109-.347-.131-.695-.48-.803-.131-.044-13.405-3.409-26.94-6.122-7.946-1.585-14.452-2.649-19.276-3.126-8.384-.825-10.217.173-10.872 1.15a.164.164 0 00-.044.087l-8.034 17.867c-.087.195-.065.391.022.586.873 1.585 3.187 6.079 3.406 7.967.327 2.779 1.222 3.951 6.898 6.839.655.325 1.638.868 2.882 1.519 9.606 5.145 35.082 18.801 54.032 21.753.021.065.043.065.087.065zm-54.032-72.921a.74.74 0 00.371-.109c9.257-6.382 16.308-10.095 21.482-12.787a.43.43 0 00.24-.238c3.733-5.992 6.484-10.725 7.728-14.263a.771.771 0 00.044-.24c-.153-4.688-.306-9.595-.393-12.091-.022-.37-.306-.652-.677-.63-.371.022-.655.304-.633.673.088 2.475.24 7.316.393 11.962-1.222 3.387-3.864 7.967-7.466 13.742-5.065 2.67-11.92 6.274-20.849 12.374-1.681-3.473-3.362-12.265-3.929-20.754a.644.644 0 00-.699-.608.642.642 0 00-.611.695c.524 7.967 2.27 18.388 4.432 21.97a.66.66 0 00.414.304h.153zm32.703-42.963c1.201 0 2.423-.217 3.449-.868 1.332-.825 2.205-2.171 2.576-4.038.437-2.193.131-4.038-.96-5.471-1.725-2.301-4.868-2.8-6.135-2.91a.675.675 0 00-.72.587.688.688 0 00.589.716c.852.066 3.755.478 5.196 2.389.852 1.107 1.092 2.605.721 4.428-.306 1.498-.961 2.584-1.987 3.191-1.703 1.042-4.104.695-5.807.218a.671.671 0 00-.808.455c-.087.348.109.717.459.804 1.026.26 2.226.499 3.427.499zm-44.142 1.281h.087a.663.663 0 00.568-.738c-.677-5.167-1.594-15.327-.284-25.227a.67.67 0 00-.568-.738.673.673 0 00-.742.565c-1.332 10.051-.393 20.341.284 25.573.065.326.327.565.655.565z" fill="#1E1E1E"/><path d="M146.595 66.778c.044 0 .087 0 .131-.022a.679.679 0 00.502-.781c-.458-2.04-.895-4.646-1.244-7.338a.665.665 0 00-.742-.564.662.662 0 00-.568.738c.458 3.495.939 5.991 1.266 7.446a.653.653 0 00.655.521z" fill="#1E1E1E"/><path d="M163.012 82.973c4.825 0 9.736-1.563 12.902-3.82 5.829-4.169 6.899-6.275 8.274-10.79 1.332-4.364 4.715-20.147 4.846-20.82a.641.641 0 00-.109-.52.666.666 0 00-.48-.261l-4.846-.39a.656.656 0 00-.699.607c-.022.37.24.673.611.695l4.104.325c-.698 3.213-3.514 16.196-4.671 19.995-1.332 4.407-2.227 6.143-7.772 10.116-2.904 2.084-7.314 3.452-11.505 3.582-4.89.152-8.929-1.367-11.374-4.277-5.589-6.578-6.244-19.495-6.244-19.625a.67.67 0 00-.677-.63.67.67 0 00-.633.674c.022.542.699 13.481 6.55 20.406 2.838 3.387 7.248 4.733 11.723 4.733z" fill="#1E1E1E"/><path d="M158.93 68.19s-3.559-.717-5.022.716l5.022-.717z" fill="#fff"/><path d="M153.908 69.557a.63.63 0 00.459-.196c.982-.955 3.602-.694 4.432-.542a.647.647 0 00.764-.521.644.644 0 00-.524-.76c-.393-.087-3.952-.717-5.611.868a.627.627 0 000 .912.58.58 0 00.48.239zm-.851-5.71c.044 0 .109 0 .153-.022l4.082-1.042a.646.646 0 00.48-.781.65.65 0 00-.785-.478l-3.144.803 1.222-10.55a.653.653 0 00-.567-.717.657.657 0 00-.721.565l-1.331 11.484a.664.664 0 00.218.564c.087.13.24.174.393.174zm-2.947-9.009c-.651 0-1.179-.817-1.179-1.824 0-1.007.528-1.823 1.179-1.823s1.179.816 1.179 1.823c0 1.007-.528 1.824-1.179 1.824zm11.396-.218c-.651 0-1.179-.816-1.179-1.823 0-1.007.528-1.823 1.179-1.823s1.178.816 1.178 1.823c0 1.007-.527 1.824-1.178 1.824zm5.13-10.658a.656.656 0 00.393-.13.65.65 0 00.109-.913 6.096 6.096 0 00-5.763-2.257c-.35.065-.612.39-.546.738a.674.674 0 00.742.543 4.795 4.795 0 014.519 1.758c.175.174.349.26.546.26zm-20.106-.392a.656.656 0 00.633-.455c.633-2.041 3.209-1.411 3.318-1.39a.671.671 0 00.808-.456.666.666 0 00-.459-.803c-1.331-.347-4.082-.325-4.89 2.258a.658.658 0 00.437.825c.022 0 .087.022.153.022z" fill="#1E1E1E"/><path d="M137.535 31.479c.284-.847-.044-1.867-.633-2.888l.153-.173.742 2.062s2.314.999 3.078-1.954c.24-.89-.305-1.997-1.157-3.083l.022-.021c3.231.738 9.518 1.954 10.086.694.808-1.78-10.544-6.512-14.016-8.032-1.768-.782-7.902-2.453-11.221-2.93a28.078 28.078 0 00-6.614-.066 9.493 9.493 0 011.135-5.861c1.069-1.976 3.318-4.885 5.305-5.949 19.713-10.399 29.319 7.164 29.319 7.164s2.794-7.511 11.767-7.793a13.419 13.419 0 019.845 3.907c7.357 7.338 2.445 15.631 2.445 15.631s3.428-1.737 8.056.478c5.523 2.648 8.296 8.879 6.855 14.805-1.528 6.296-4.344 12.288-4.344 12.288-17.945 2.757-22.53-14.74-19.888-17.02-3.974 2.93-11.134 4.884-23.25 3.669-2.773-.283-6.179-1.368-9.65-3.018.699-.065 1.485-.5 1.965-1.91zm-19.67 10.398a.61.61 0 00.328-.087.657.657 0 00.306-.412l2.838-11.42a.647.647 0 00-.481-.78.651.651 0 00-.786.477l-2.685 10.768-15.543-4.58a.632.632 0 00-.808.433.627.627 0 00.436.803l16.221 4.777c.043 0 .109.021.174.021z" fill="#1E1E1E"/><path d="M115.53 41.856a.656.656 0 00.633-.456.628.628 0 00-.437-.804l-14.801-4.363 2.161-7.99c0-.02.022-.043.022-.064 2.336-14.915 20.63-12.461 21.416-12.353 3.362.478 9.431 2.171 11.046 2.866.284.13.655.282 1.048.456 2.052.89 5.152 2.236 7.838 3.603 3.864 1.976 4.606 2.866 4.759 3.127-.699.369-4.083.13-9.278-1.064a.65.65 0 00-.786.477.647.647 0 00.48.782c9.933 2.301 10.588.868 10.828.325.087-.195.153-.52 0-.933-.677-1.737-5.807-4.255-13.317-7.511a85.151 85.151 0 00-1.048-.456c-1.899-.825-8.099-2.497-11.374-2.974-1.048-.152-6.614-.825-12.181 1.02-6.048 1.997-9.759 6.274-10.719 12.374l-2.314 8.575a.672.672 0 00.436.804l15.413 4.537a.428.428 0 00.175.022z" fill="#1E1E1E"/><path d="M128.344 32.608h.153a.629.629 0 00.633-.673.656.656 0 00-.677-.63c-3.121.065-9.78-2.93-11.745-4.233-.305-.196-.698-.109-.917.195-.196.304-.109.695.197.912 1.615 1.02 8.514 4.429 12.356 4.429zm10.304-1.303c.35 0 .765-.065 1.179-.26.808-.391 1.376-1.173 1.66-2.345.851-3.3-6.091-8.12-6.899-8.662a.668.668 0 00-.917.174.66.66 0 00.175.911c2.707 1.846 6.833 5.45 6.374 7.273-.196.76-.524 1.28-.96 1.498-.568.282-1.223.022-1.223.022-.327-.13-.72.021-.851.347a.655.655 0 00.349.847c.022 0 .502.195 1.113.195z" fill="#1E1E1E"/><path d="M135.352 34.084c.306 0 .633-.044.961-.174.829-.326 1.44-1.064 1.833-2.193 1.092-3.213-4.759-8.076-5.414-8.618-.283-.217-.698-.196-.917.087-.218.282-.196.694.088.911 2.27 1.846 5.61 5.406 5.021 7.186-.262.76-.611 1.216-1.07 1.411-.589.239-1.222-.065-1.222-.065-.328-.152-.721-.043-.874.282-.152.326-.043.717.284.869 0 0 .568.304 1.31.304z" fill="#1E1E1E"/><path d="M128.563 35.994c1.004 0 2.336-.152 4.104-.651 1.419-.391 1.877-1.194 2.008-1.78.568-2.562-3.907-6.383-4.41-6.817a.636.636 0 00-.916.087.628.628 0 00.087.912c1.812 1.52 4.257 4.255 3.973 5.535-.022.13-.109.543-1.07.804-3.58.998-5.086.499-5.479.325-.066-.173-.153-.52 0-.825.174-.325.764-.89 2.838-1.042a.655.655 0 00.611-.695.656.656 0 00-.698-.607c-2.074.152-3.384.76-3.908 1.758-.459.869-.153 1.802.087 2.215.044.065.087.13.153.173.087.087.829.608 2.62.608zm-6.288 6.47c-3.1 4.08-24.08.998-27.55-4.277 1.659-2.258 2.969-.977 3.71-2.301 1.747-3.192 2.468-4.603 2.468-4.603 3.646 3.061 9.365 3.626 13.622 3.539a44.032 44.032 0 005.611-.413c.022.326.109 1.629.196 4.646.022 1.759 1.005 2.54 1.943 3.409zM7.728 112.758h84.88a2.4 2.4 0 012.335 1.846l11.789 49.67h30.781s1.703 8.749-8.23 8.749H20.914a2.4 2.4 0 01-2.336-1.845L5.392 115.689c-.305-1.281.502-2.562 1.79-2.866.175-.043.372-.065.546-.065z" fill="#1E1E1E"/><path d="M.655 174h256.69a.641.641 0 00.655-.651.641.641 0 00-.655-.651H.655a.641.641 0 00-.655.651c0 .369.284.651.655.651z" fill="#1E1E1E"/><path d="M44.762 137.832h1.048l-.895-4.211c-.983-4.624 2.008-8.402 6.658-8.402s9.257 3.778 10.239 8.402l.895 4.211h1.048c1.746 0 3.471 1.411 3.842 3.148l3.122 14.697c.371 1.737-.742 3.148-2.489 3.148H49.215c-1.746 0-3.47-1.411-3.842-3.148l-3.122-14.697c-.37-1.737.765-3.148 2.511-3.148zm14.234-4.19c-.655-3.082-3.712-5.601-6.833-5.601-3.1 0-5.109 2.519-4.454 5.601l.895 4.212H59.87l-.873-4.212zm-3.842 15.002l.676 3.191c.175.781.917 1.411 1.703 1.411s1.266-.63 1.114-1.411l-.677-3.191c.742-.478 1.113-1.39.895-2.41-.328-1.542-1.856-2.801-3.406-2.801s-2.554 1.259-2.227 2.801c.219 1.042.983 1.932 1.922 2.41z" fill="#fff"/></g><defs><clipPath id="clip0"><path fill="#fff" transform="matrix(-1 0 0 1 248 0)" d="M0 0h248v174H0z"/></clipPath></defs></svg>