<svg width="268" height="187" fill="none" xmlns="http://www.w3.org/2000/svg"><g clip-path="url(#clip0)"><path d="M112.421 123.542c-2.542-1.345-4.713-.712-7.096 1.819 1.086-6.116 1.059-13.525-3.812-14.764-5.004-1.292-7.838 1.819-10.776 9.333.106-6.433-1.165-14.737-6.514-15.08-6.037-.369-8.022 4.561-9.505 15.502-1.88-6.117-7.043-16.847-13.106-14.711-5.957 2.082-5.587 7.803-2.25 19.456-3.257-5.035-9.797-12.523-14.166-9.675-4.157 2.689-3.018 7.092 1.589 15.265-3.045-1.319-6.196-1.45-8.738 1.054-5.692 5.589-2.938 10.888 4.925 20.696 7.864 9.807 64.525-7.567 67.225-11.996 2.701-4.429 6.858-14.447 2.224-16.899z" fill="#fff"/><path d="M53.748 156.154c-5.878 0-9.717-1.081-11.438-3.269-7.202-8.964-11.412-15.317-4.872-21.777 2.04-2.003 4.634-2.636 7.626-1.898-3.733-6.96-4.793-11.626-.345-14.526 1.086-.712 2.357-.923 3.734-.633 3.336.712 6.725 4.218 9.002 7.039-2.25-9.122-1.906-14.263 3.866-16.293 1.509-.527 3.044-.395 4.58.369 4.104 2.057 7.017 8.094 8.5 11.838 1.482-8.78 3.785-13.42 9.875-13.024 5.349.343 6.805 7.382 7.175 12.259 2.41-4.983 5.349-7.751 10.3-6.485 3.998 1.028 5.693 5.905 4.713 13.498 2.092-1.503 4.157-1.635 6.354-.475 1.112.58 1.854 1.556 2.224 2.874 1.218 4.429-2.224 11.811-4.209 15.107-1.351 2.214-11.73 5.958-20.202 8.515-12.312 3.691-24.36 6.117-33.07 6.697-1.377.158-2.621.184-3.813.184zm-11.014-25.626c-1.615 0-2.992.58-4.184 1.74-5.19 5.089-2.78 9.966 5.005 19.642 1.72 2.135 6.513 3.032 13.873 2.531 20.044-1.319 50.413-11.811 52.028-14.448 2.171-3.585 5.03-10.229 4.024-13.867-.238-.897-.715-1.529-1.429-1.899-2.145-1.16-3.946-.659-6.143 1.661-.238.264-.609.317-.927.159a.795.795 0 01-.423-.844c.661-3.744 1.694-12.602-3.231-13.868-4.289-1.107-6.857 1.213-9.85 8.832-.132.369-.502.554-.9.501a.795.795 0 01-.635-.791c.106-6.722-1.35-13.999-5.772-14.289-4.977-.316-7.096 3.296-8.684 14.817a.787.787 0 01-.715.685.805.805 0 01-.82-.554c-1.272-4.165-4.555-11.784-8.765-13.92-1.138-.58-2.25-.685-3.336-.29-4.898 1.714-5.295 6.038-1.774 18.508a.773.773 0 01-.45.923c-.37.158-.768.026-1.006-.29-2.648-4.061-6.99-9.096-10.538-9.834-.98-.211-1.8-.079-2.542.395-3.415 2.215-2.965 5.669 1.854 14.237a.798.798 0 01-.106.923c-.238.263-.583.342-.9.184-1.298-.554-2.516-.844-3.654-.844z" fill="#8A2C5B"/><path d="M112.871 140.23l.053-.131-76.174.237.053.132c-4.157.817-6.91 4.745-6.275 8.884l5.692 36.594 77.207-.238 5.693-36.593a7.789 7.789 0 00-6.249-8.885z" fill="#8A2C5B"/><path d="M214.04 127.048c-1.192 0-2.357.079-3.548.211-6.328-8.7-13.583-16.082-21.208-20.775-19.858-12.18-47.129-8.7-72.574.686-17.5 6.459-39.662 27.207-53.88 41.919-18.534 1.397-32.779 13.946-31.931 28.315a21.009 21.009 0 002.541 8.805l62.195.422c.106-.158.212-.343.317-.501l92.273-.316c.106.131.212.263.318.422l51.074-.106c4.739-6.248 7.572-14.237 7.572-22.963-.026-19.958-14.854-36.119-33.149-36.119z" fill="#4E2D5E"/><path d="M191.111 107.644c-23.485 14.474-44.587 14.817-58.223 12.471-12.656-2.162-21.791-7.013-24.756-8.911-.503.29-1.006.58-1.536.87 2.436 1.661 11.968 7.144 25.736 9.543a78.11 78.11 0 0013.583 1.187c4.66 0 9.293-.422 13.874-1.213 11.12-1.977 22.134-6.327 32.725-12.945-.476-.369-.953-.685-1.403-1.002zm-2.436 24.941c3.733-5.22 8.34-8.147 13.715-8.727a17.302 17.302 0 015.825.369c-.503-.632-1.006-1.265-1.509-1.871a18.84 18.84 0 00-4.395-.053c-4.051.422-9.929 2.373-14.933 9.385-.265.37-.159.844.185 1.108a.722.722 0 00.45.158c.291-.053.503-.158.662-.369zm.291 18.534c.45 0 .794-.343.821-.791.053-2.32.98-7.593 4.236-12.55 3.76-5.747 9.32-9.306 16.469-10.572-.344-.474-.688-.949-1.059-1.423-7.149 1.45-12.921 5.273-16.76 11.125-3.23 4.931-4.422 10.282-4.501 13.393-.027.449.344.791.794.818-.026 0 0 0 0 0zm-112.183-7.804a37.966 37.966 0 00-8.975.685c-.795.791-1.59 1.582-2.357 2.373 2.939-1.608 19.672-3.612 26.583 4.218a.86.86 0 00.609.264c.185 0 .37-.079.53-.211.317-.29.37-.791.079-1.107-4.475-5.036-12.233-6.064-16.469-6.222z" fill="#fff"/><path d="M90.392 154.625c-9.346-7.039-20.996-7.461-25.92-7.25l-1.642 1.687c2.833-.237 16.39-.87 26.61 6.829a.803.803 0 001.111-.159c.265-.342.186-.843-.159-1.107zm-40.377 31.321s8.684-25.574 33.123-20.933c24.438 4.64 57.878 14.605 57.878 14.605v6.407l-91.001-.079z" fill="#fff"/><path d="M141.016 186.842l-90.975-.106a.745.745 0 01-.635-.342.766.766 0 01-.106-.712c.08-.264 2.277-6.617 7.546-12.47 4.898-5.458 13.477-11.442 26.45-8.964 24.2 4.587 57.614 14.526 57.959 14.632a.768.768 0 01.556.765v6.406c0 .211-.08.422-.239.554-.159.131-.344.237-.556.237zm-89.836-1.687l89.042.105v-5.035c-4.501-1.319-34.844-10.177-57.217-14.422-9.85-1.871-18.242.976-24.967 8.463-3.866 4.245-6.01 8.859-6.858 10.889z" fill="#1E1E1E"/><path d="M242.979 91.51a4.247 4.247 0 01-2.197-3.217c-.265-2.267 1.271-11.995 3.706-13.366 2.436-1.371 13.663-7.409 15.728-7.277 2.038.132 2.912 18.007-17.237 23.86z" fill="#fff"/><path d="M244.171 75.981c4.183-14.58 7.599-17.848 9.584-16.425 1.801 1.292-1.853 10.572-2.912 15.397" fill="#fff"/><path d="M244.171 76.772c-.08 0-.159 0-.212-.026a.809.809 0 01-.556-.976c2.992-10.44 5.904-16.214 8.631-17.163.768-.263 1.536-.158 2.171.317 1.642 1.186.609 5.035-1.218 11.204-.556 1.872-1.059 3.612-1.376 4.983a.829.829 0 01-.953.607.824.824 0 01-.609-.95c.317-1.423.847-3.216 1.403-5.114.662-2.215 1.324-4.482 1.694-6.354.556-2.715.133-3.137.133-3.137-.239-.158-.45-.185-.742-.106-.794.264-3.653 2.241-7.625 16.082-.079.422-.397.633-.741.633z" fill="#1E1E1E"/><path d="M262.625 72.818c2.092-3.401 5.56-3.217 3.76 2.557-1.774 5.642-3.071 12.971-6.381 16.293-3.31 3.322-4.501 4.825-4.501 4.825s-6.619 24.597-10.379 45.056c-5.428 29.58-15.701 35.275-25.286 31.874-9.584-3.401-11.358-16.768 1.721-42.736 13.08-25.969 19.99-41.128 19.99-41.128" fill="#fff"/><path d="M224.604 175.057c-1.615 0-3.309-.316-5.03-.923-3.31-1.16-5.64-3.4-6.964-6.643-3.045-7.567-.185-20.406 8.261-37.2 12.947-25.678 19.911-40.943 19.99-41.101a.799.799 0 011.456.66c-.079.157-7.069 15.448-20.016 41.153-10.406 20.669-10.194 30.925-8.208 35.881 1.138 2.795 3.151 4.746 6.01 5.748 3.628 1.292 6.99 1.054 9.982-.659 6.381-3.691 11.173-13.973 14.245-30.609 3.706-20.248 10.326-44.871 10.379-45.109a.625.625 0 01.158-.29c.053-.053 1.245-1.555 4.554-4.877 2.41-2.4 3.734-7.224 5.005-11.864.397-1.45.767-2.795 1.191-4.113.847-2.715.344-3.612.08-3.743-.398-.185-1.483.369-2.41 1.819-.238.369-.715.5-1.085.263a.803.803 0 01-.265-1.08c1.271-2.03 3.071-3.032 4.421-2.426.662.316 2.092 1.45.768 5.642-.397 1.292-.768 2.636-1.165 4.06-1.324 4.85-2.727 9.86-5.401 12.576-2.701 2.715-3.998 4.191-4.342 4.613-.583 2.188-6.778 25.521-10.326 44.819-3.151 17.11-8.208 27.761-15.013 31.69a12.086 12.086 0 01-6.275 1.713z" fill="#1E1E1E"/><path d="M241.788 90.007c-1.906-1.292-1.668-8.727-3.813-11.97-2.648-4.033-5.242-8.225-.344-7.592 4.21.527 5.534 4.218 6.513 5.536" fill="#fff"/><path d="M241.788 90.798a.893.893 0 01-.45-.132c-1.245-.844-1.668-3.085-2.171-5.906-.424-2.267-.901-4.824-1.854-6.274-2.356-3.586-3.945-6.249-2.912-7.883.794-1.266 2.727-1.028 3.336-.95 3.839.502 5.507 3.323 6.513 5.01.212.343.371.633.53.844a.795.795 0 01-.159 1.107.802.802 0 01-1.112-.158c-.212-.264-.397-.607-.609-.976-.98-1.634-2.304-3.849-5.349-4.244-1.138-.159-1.668.026-1.8.21-.556.897 1.774 4.456 2.913 6.17 1.138 1.713 1.615 4.323 2.065 6.854.37 2.057.821 4.403 1.509 4.878.371.237.45.738.212 1.107a.83.83 0 01-.662.343z" fill="#1E1E1E"/><path d="M260.189 79.013s3.734-9.043 4.978-13.208c1.377-4.561-3.442-5.22-5.772 1.344" fill="#fff"/><path d="M260.189 79.804a.95.95 0 01-.291-.053c-.397-.158-.609-.632-.424-1.028.027-.079 3.734-9.043 4.952-13.13.37-1.265.238-2.267-.371-2.451-.847-.29-2.701.896-3.892 4.271-.159.422-.609.633-1.006.475-.424-.159-.636-.607-.477-1.002 1.483-4.219 4.078-5.827 5.878-5.247 1.138.37 2.198 1.74 1.403 4.403-1.244 4.166-4.845 12.918-5.004 13.287a.917.917 0 01-.768.475z" fill="#1E1E1E"/><path d="M255.794 76.64s7.334-16.53 4.051-18.006c-2.992-1.345-5.269 4.693-9.029 16.346" fill="#fff"/><path d="M255.794 77.431a.709.709 0 01-.318-.079.791.791 0 01-.397-1.055c.027-.052 1.827-4.165 3.23-8.383 2.595-7.857 1.271-8.542 1.218-8.569a.988.988 0 00-.9-.026c-2.065.923-4.421 7.725-7.043 15.898-.132.421-.582.632-1.006.5-.423-.131-.635-.58-.503-1.001 3.548-10.968 5.428-15.74 7.917-16.847.715-.316 1.456-.316 2.197.026 1.88.844 1.748 4.087-.37 10.52-1.43 4.297-3.257 8.489-3.284 8.515a.797.797 0 01-.741.501z" fill="#1E1E1E"/><path d="M135.933 88.636l1.032 18.639s-1.747 10.071 12.286 8.2c13.979-1.846 12.258-10.098 12.258-10.098l-4.315-23.174-21.261 6.433z" fill="#fff"/><path d="M146.021 116.503c-3.495 0-6.117-.897-7.838-2.663-2.462-2.531-2.118-5.958-2.012-6.591l-1.033-18.56a.77.77 0 01.556-.791l21.261-6.433a.884.884 0 01.636.08c.185.105.318.315.371.526l4.315 23.148c.027.105.556 2.795-1.429 5.589-2.039 2.874-5.931 4.693-11.518 5.457a24.616 24.616 0 01-3.309.238zm-9.267-27.287l1.006 18.033v.185c0 .026-.503 3.19 1.588 5.351 1.854 1.899 5.163 2.558 9.797 1.951 5.136-.685 8.658-2.293 10.432-4.798 1.588-2.214 1.165-4.35 1.165-4.35l-4.157-22.304-19.831 5.932z" fill="#1E1E1E"/><path d="M162.569 58.74s10.855-4.061 11.279 7.196c.423 11.258-11.279 8.331-11.279 8.331" fill="#fff"/><path d="M165.719 75.401c-1.827 0-3.203-.343-3.336-.369a.786.786 0 11.371-1.529c.053 0 5.084 1.213 8.075-1.186 1.589-1.292 2.33-3.428 2.225-6.354-.106-3.006-1.007-5.088-2.675-6.196-2.965-1.977-7.493-.316-7.546-.316-.397.158-.873-.053-1.032-.475a.79.79 0 01.476-1.028c.212-.079 5.322-1.95 8.976.475 2.118 1.397 3.257 3.902 3.389 7.434.133 3.454-.821 6.038-2.833 7.646-1.827 1.53-4.183 1.898-6.09 1.898z" fill="#1E1E1E"/><path d="M134.556 41.023h18.64c5.692 0 10.326 4.613 10.326 10.281v21.777c0 11.706-9.532 21.197-21.288 21.197-11.755 0-21.287-9.491-21.287-21.197V54.574c-.027-7.462 6.09-13.551 13.609-13.551z" fill="#fff"/><path d="M142.208 95.095c-12.18 0-22.082-9.86-22.082-21.988v-18.48c0-7.91 6.46-14.37 14.43-14.37h18.64c6.142 0 11.12 4.957 11.12 11.074v21.776c0 12.128-9.902 21.988-22.108 21.988zm-7.652-53.282c-7.069 0-12.841 5.748-12.841 12.787v18.48c0 11.257 9.187 20.406 20.493 20.406s20.493-9.148 20.493-20.406V51.304c0-5.246-4.263-9.49-9.532-9.49h-18.613z" fill="#1E1E1E"/><path d="M168.473 83.152c0-4.614-.424-9.227-1.297-13.762v-.263a3.011 3.011 0 00-3.019-3.006v3.006l.08 3.005a3.048 3.048 0 001.694-.58c.98 6.064 2.913 24.15-5.242 39.52a2713.38 2713.38 0 01-4.263 7.935c-7.678 14.263-12.762 23.702-12.656 32.112 0 .448.344.791.794.791a.78.78 0 00.795-.791c-.106-8.015 4.898-17.295 12.444-31.347a3147.83 3147.83 0 004.263-7.936c5.374-10.097 6.46-21.17 6.407-28.684zm-49.618-10.704a2.85 2.85 0 001.218.37v-5.985c-1.377.132-2.515 1.186-2.701 2.557a.89.89 0 00-.132.448c0 1.213 0 29.607 8.473 42.42 8.658 13.129 11.332 20.617 11.941 33.324a.808.808 0 00.794.765h.027a.812.812 0 00.767-.817c-.608-13.077-3.336-20.723-12.205-34.142-6.779-10.203-7.97-31.531-8.182-38.94z" fill="#8A2C5B"/><path d="M136.859 78.697c-.953 0-1.456-.712-1.509-.791a.89.89 0 01-.132-.448l-.291-17.11c0-.449.344-.792.794-.792.45 0 .794.343.794.791l.265 16.741c.026 0 .079.027.106.027.106 0 .741-.158 1.721-1.925a.79.79 0 011.085-.316c.398.21.53.685.318 1.08-.979 1.794-1.986 2.69-3.018 2.743h-.133zm2.039 7.645a.822.822 0 01-.794-.712c-.053-.421.265-.817.715-.87 2.224-.21 3.786-.896 4.501-1.95.265-.396.397-.818.45-1.187-3.548 1.925-7.016 1.951-8.684.026a.784.784 0 01.079-1.107.793.793 0 011.112.08c1.271 1.476 4.607 1.054 7.731-.976a.852.852 0 01.715-.08c.238.08.424.264.477.502.026.079.556 1.898-.583 3.612-1.006 1.502-2.912 2.399-5.692 2.662h-.027zm3.575-30.688a.787.787 0 01-.768-.606.786.786 0 01.318-.843l.079-.08c2.701-2.689 5.189-1.713 6.805-.395a.79.79 0 01.132 1.107.798.798 0 01-1.112.132c-2.171-1.74-3.654-.764-4.687.29-.185.185-.317.316-.582.395h-.185zm5.957 11.786c.731 0 1.324-.91 1.324-2.03 0-1.122-.593-2.03-1.324-2.03-.731 0-1.324.908-1.324 2.03 0 1.12.593 2.03 1.324 2.03zm-19.249.526c.731 0 1.324-.908 1.324-2.03 0-1.12-.593-2.03-1.324-2.03-.731 0-1.324.91-1.324 2.03 0 1.122.593 2.03 1.324 2.03zm-4.21-12.47a.79.79 0 01-.767-.632.762.762 0 01.344-.818l.106-.105c.529-.554 1.985-1.977 3.812-1.872 1.139.08 2.171.712 3.098 1.872a.79.79 0 01-.132 1.107.798.798 0 01-1.112-.132c-.636-.817-1.298-1.239-1.96-1.265-1.138-.08-2.171.975-2.594 1.397-.212.211-.371.37-.636.422-.053.026-.106.026-.159.026z" fill="#1E1E1E"/><path d="M147.53 36.409c-5.163.079-9.082.316-11.412.764-18.957 4.298-15.886 18.27-15.886 18.27s9.267 1.767 16.813-9.359c0 0 10.352 8.41 25.682 11.811.239-.052.53-.131.795-.21v.764a11.995 11.995 0 013.865-.395c-.158-5.51-1.165-12.47-5.719-16.952-3.23-3.19-7.996-4.772-14.138-4.693z" fill="#1E1E1E"/><path d="M168.182 57.5c-.397 0-.768-.316-.795-.712-.529-6.037-1.747-20.195-18.984-20.38-3.865-.052-7.81.185-11.649.633a.796.796 0 01-.874-.685.794.794 0 01.688-.87 93.875 93.875 0 0111.862-.66c7.864.08 13.53 2.9 16.892 8.385 2.569 4.192 3.283 8.937 3.654 13.419.027.448-.291.817-.715.844-.026 0-.053.026-.079.026z" fill="#fff"/><path d="M197.28 24.94c-6.54-18.613-25.1-29.079-41.437-23.384-13.423 4.666-21.181 18.823-19.91 34.035 2.462-.421 6.328-.685 11.57-.764 6.593-.08 11.729 1.635 15.277 5.141 5.031 4.956 6.064 12.47 6.196 18.323 2.436.66 4.686 2.636 4.872 7.62.026.5-.424 4.376-.318 4.376a8.007 8.007 0 001.192 4.323c1.826 2.927 5.533 4.746 11.04 5.379h.08a.798.798 0 00.847-.739.814.814 0 00-.741-.843c-4.978-.58-8.314-2.136-9.876-4.614a6.48 6.48 0 01-.953-2.926c1.35 1.581 3.706 3.295 7.44 3.295.979 0 1.959-.105 2.939-.316a.827.827 0 00.662-.923.83.83 0 00-.927-.66h-.053c-4.819 1.003-7.493-.816-8.896-2.451a27.539 27.539 0 003.203-.896c16.363-5.669 24.306-25.362 17.793-43.975zm-47.712 51.437c-5.772 0-10.485-4.693-10.485-10.44 0-5.748 4.713-10.44 10.485-10.44 5.772 0 10.485 4.692 10.485 10.44 0 5.747-4.686 10.44-10.485 10.44zm0-19.299c-4.898 0-8.896 3.981-8.896 8.858 0 4.878 3.998 8.859 8.896 8.859 4.899 0 8.897-3.981 8.897-8.859 0-4.877-3.972-8.858-8.897-8.858z" fill="#1E1E1E"/><path d="M139.666 66.464h-6.328a.778.778 0 01-.794-.791c0-.448.344-.791.794-.791h6.328c.45 0 .794.343.794.79a.779.779 0 01-.794.792zm18.375-4.429c-.265 0-.556-.132-.688-.396a.805.805 0 01.291-1.08l5.454-3.085a.813.813 0 011.086.29.804.804 0 01-.291 1.08l-5.455 3.085a.75.75 0 01-.397.106z" fill="#1E1E1E"/><path d="M123.356 76.377c-5.772 0-10.485-4.693-10.485-10.44 0-5.748 4.713-10.44 10.485-10.44 5.772 0 10.485 4.692 10.485 10.44 0 5.747-4.713 10.44-10.485 10.44zm0-19.299c-4.898 0-8.896 3.981-8.896 8.858 0 4.878 3.998 8.859 8.896 8.859 4.898 0 8.897-3.981 8.897-8.859 0-4.877-3.999-8.858-8.897-8.858zm66.643 119.007h-5.507l-2.701-39.888c-.238-2.848-2.595-5.036-5.428-5.062H99.606c-2.594-.027-4.739 2.03-4.765 4.613 0 .159 0 .317.026.449l2.992 44.159c.238 2.848 2.595 5.036 5.428 5.062l86.685-.105a2.859 2.859 0 002.86-2.847v-3.507a2.81 2.81 0 00-2.833-2.874z" fill="#1E1E1E"/><path d="M143.399 157.499a7.64 7.64 0 00-4.077-2.188c.265-.37.397-.791.45-1.213a2.752 2.752 0 00-2.277-2.953h-.079c-.292-1.081-.848-2.874-1.51-3.638-.238-.29-.662-.369-1.006-.211-.265.132-.344.474-.212.712a.487.487 0 00.106.132c.424.5.927 2.056 1.245 3.242a2.424 2.424 0 00-1.298 1.978 2.863 2.863 0 00.742 2.135 6.197 6.197 0 00-1.351.607c-2.753 1.713-3.097 5.088-.767 7.592 2.33 2.505 6.486 3.111 9.24 1.398 2.754-1.714 3.151-5.115.794-7.593z" fill="#fff"/><path d="M142.234 147.375s-3.971-.791-4.501 2.505c.027 0 3.151 1.107 4.501-2.505z" fill="#fff"/><path d="M267.206 187H10.794a.779.779 0 01-.794-.791c0-.448.344-.791.794-.791h256.412c.45 0 .794.343.794.791a.778.778 0 01-.794.791z" fill="#1E1E1E"/></g><defs><clipPath id="clip0"><path fill="#fff" d="M0 0h268v187H0z"/></clipPath></defs></svg>