<svg width="281" height="176" fill="none" xmlns="http://www.w3.org/2000/svg"><g clip-path="url(#clip0)"><path d="M20.123 128.982a.853.853 0 01-.8-.606c-1.133-3.996-1.491-7.993-1.767-11.19-.194-2.287-.414-4.657-.856-5.181-1.325-1.626-7.453-11.741-2.512-17.363 1.932-2.205 4.886-3.031 7.84-2.232 4.002 1.102 7.176 4.85 8.087 9.563.994 5.209 1.822 5.926 4.913 8.682.635.578 1.38 1.212 2.209 2.012a.798.798 0 01.027 1.157.802.802 0 01-1.16.028c-.827-.772-1.545-1.406-2.18-1.985-3.146-2.783-4.333-3.831-5.438-9.591-.772-4.106-3.505-7.33-6.9-8.268-2.374-.661-4.61-.027-6.156 1.737-3.837 4.354.939 13.228 2.567 15.213.773.937.939 2.976 1.215 6.091.276 3.142.635 7.055 1.711 10.886.11.441-.138.909-.58 1.02-.055.027-.137.027-.22.027z" fill="#8A2C5B"/><path d="M37.485 152.96a.839.839 0 01-.745-.441c-1.104-2.178-2.043-1.847-4.279-1.02-2.29.827-5.438 1.957-9.55-.303-4.997-2.729-8.585-7.883-10.959-11.3-1.049-1.488-2.208-3.197-2.733-3.39-1.656-.661-10.378-5.622-9.109-11.796.497-2.453 2.291-4.299 4.803-4.933 3.423-.882 7.343.579 10.02 3.693 2.871 3.362 3.754 3.555 7.094 4.299 1.85.414 4.362.965 8.254 2.26 2.926.993 5.796 2.977 8.501 5.898.304.331.304.855-.055 1.158-.331.303-.855.303-1.16-.055-2.511-2.729-5.133-4.548-7.81-5.43-3.782-1.267-6.267-1.819-8.06-2.204-3.479-.772-4.776-1.048-8.006-4.851-2.263-2.646-5.52-3.886-8.336-3.17-1.905.497-3.23 1.819-3.616 3.666-.966 4.658 6.128 9.15 8.115 9.922.966.386 1.96 1.819 3.478 3.996 2.402 3.445 5.714 8.213 10.38 10.748 3.477 1.902 5.989.993 8.197.193 2.236-.799 4.555-1.626 6.321 1.847.194.413.056.909-.358 1.102a.633.633 0 01-.387.111z" fill="#8A2C5B"/><path d="M42.592 153.29a.84.84 0 01-.746-.496c-6.045-13.201-4.527-20.808-3.809-24.446.083-.468.166-.882.22-1.212.194-1.351-.69-3.032-1.628-4.851-1.518-2.921-3.422-6.532-.276-9.481 3.12-2.894 3.064-4.905 3.01-9.315-.029-1.378-.056-2.949.027-4.823.276-7.359 1.85-12.182 4.83-14.772 1.905-1.682 4.361-2.37 7.315-2.095 1.905.193 3.45.716 4.637 1.598.36.276.442.8.166 1.158a.835.835 0 01-1.16.165c-.938-.689-2.208-1.13-3.809-1.295-2.511-.248-4.499.303-6.072 1.681-2.623 2.288-4.003 6.725-4.251 13.587-.055 1.819-.028 3.363-.028 4.713.083 4.465.138 7.138-3.533 10.556-2.07 1.929-1.16 4.134.607 7.496 1.022 1.957 2.098 3.969 1.794 5.843-.055.386-.138.799-.248 1.295-.745 3.749-2.125 10.721 3.671 23.454.194.414 0 .91-.414 1.103-.055.11-.193.137-.303.137zm13.056 0h-8.419a.782.782 0 01-.607-.275.757.757 0 01-.221-.634c.938-12.953 3.754-21.718 8.64-26.816a.796.796 0 01.91-.193c.304.138.525.441.525.771v26.293c0 .469-.359.854-.828.854zm-7.508-1.653h6.68v-23.206c-3.589 4.823-5.824 12.623-6.68 23.206z" fill="#8A2C5B"/><path d="M36.74 176a.829.829 0 01-.8-.634l-4.417-19.788a3.415 3.415 0 01-.083-.744c.027-1.792 1.518-3.197 3.312-3.197H55.51c.47 0 .828.358.828.827a.812.812 0 01-.828.826H34.697c-.883 0-1.6.689-1.6 1.571 0 .111 0 .248.027.359l4.416 19.788c.11.441-.193.882-.635.992-.055-.028-.11 0-.165 0z" fill="#1E1E1E"/><path d="M208.818 175.669H56.034a.813.813 0 01-.828-.827V.827c0-.469.36-.827.828-.827h152.784c.469 0 .828.358.828.827v174.015a.849.849 0 01-.828.827zm-151.956-1.653H207.99V1.654H56.863v172.362z" fill="#1E1E1E"/><path d="M144.475 131.049h-50.79a.813.813 0 01-.828-.827c0-.468.359-.826.828-.826h50.79c.469 0 .828.358.828.826a.813.813 0 01-.828.827zm-13.388 7.717H93.685a.813.813 0 01-.828-.827c0-.468.359-.827.828-.827h37.375c.469 0 .828.359.828.827a.807.807 0 01-.801.827zm-12.007 8.654h-26.5a.813.813 0 01-.827-.827c0-.468.359-.827.828-.827h26.499c.469 0 .828.359.828.827a.813.813 0 01-.828.827zm53.164-16.371h-21.917a.812.812 0 01-.828-.827c0-.468.358-.826.828-.826h21.917c.469 0 .828.358.828.826a.813.813 0 01-.828.827z" fill="#1E1E1E"/><path d="M117.783 113.383l5.851 5.485v-11.107l-5.851 5.622zm-8.447 5.788l6.018-5.788-6.018-5.65v11.438zm29.839-13.339H125.65l6.845 6.421 6.68-6.421zm-22.607 8.709l-6.845 6.586h13.856l-7.011-6.586zm8.723 4.63l6.017-5.788-6.017-5.65v11.438zm-32.711-12.21v13.009l6.847-6.587-6.846-6.422zm8.061 7.58l-6.846 6.586h13.857l-7.011-6.586zm6.68-8.709H93.795l6.846 6.421 6.68-6.421zm32.24 13.036v-11.107l-5.851 5.622 5.851 5.485zm-37.733-5.485l5.852 5.485v-11.107l-5.852 5.622zm30.667 1.158l-6.873 6.586h13.857l-6.984-6.586zm-9.247-8.709h-13.525l6.845 6.421 6.68-6.421zm32.241 0h-14.271V121.1h14.271v-15.268zm16.755 0h-15.099V121.1h15.099v-15.268zM139.506 121.1l.055.028v-.028h-.055zm-7.287-63.223l31.192-15.793a34.94 34.94 0 013.781 15.792c0 19.155-15.789 34.92-34.973 34.92a34.963 34.963 0 01-27.355-13.174l27.355-21.745z" fill="#8A2C5B"/><path d="M187.895 32.025h-28.873a.812.812 0 01-.828-.827c0-.468.358-.827.828-.827h28.873c.469 0 .828.359.828.827a.813.813 0 01-.828.827zm0 3.885h-15.403a.813.813 0 01-.828-.826c0-.468.359-.827.828-.827h15.403c.469 0 .828.359.828.827a.813.813 0 01-.828.827zm0 3.942h-10.241a.813.813 0 01-.828-.827c0-.468.359-.826.828-.826h10.241c.469 0 .828.358.828.826a.813.813 0 01-.828.827zm.855 23.123h-37.292a.813.813 0 01-.828-.826c0-.469.359-.827.828-.827h37.292c.47 0 .828.358.828.827a.812.812 0 01-.828.826zm0 3.059h-6.983a.812.812 0 01-.828-.826c0-.469.358-.827.828-.827h6.983c.47 0 .828.358.828.827a.812.812 0 01-.828.826zm-77.73-37.206H88.772a.813.813 0 01-.828-.827c0-.468.358-.827.828-.827h22.248c.469 0 .828.359.828.827a.83.83 0 01-.828.827zM93.243 31.97h-4.471a.813.813 0 01-.828-.827c0-.469.358-.827.828-.827h4.471c.47 0 .829.358.829.827a.83.83 0 01-.829.827z" fill="#1E1E1E"/><path d="M99.316 81.082a.786.786 0 01-.635-.303 34.4 34.4 0 01-7.48-21c0-.47.359-.828.828-.828l33.648-.386c.359 0 .663.22.801.552.11.33 0 .716-.276.937L99.841 80.917a.91.91 0 01-.525.165zm-6.431-20.505a32.881 32.881 0 006.57 18.52l23.793-18.85-30.363.33zm.579-2.893a.795.795 0 01-.58-.248.792.792 0 01-.248-.58v-.44c0-4.272.773-8.461 2.319-12.457a.837.837 0 011.076-.469l31.33 12.154a.85.85 0 01.524.91c-.055.386-.414.661-.8.689l-33.62.44zm2.733-12.347a32.831 32.831 0 00-1.932 10.693l28.514-.386-26.582-10.307zm37.292 8.709a.855.855 0 01-.607-.248c-.249-.276-.304-.662-.111-.965l16.59-29.131a.837.837 0 011.131-.303 34.492 34.492 0 0113.83 14.551c.11.193.11.414.055.634-.083.22-.221.386-.414.469l-30.088 14.91a.972.972 0 01-.386.083zm16.893-28.828l-14.823 26.044 26.913-13.339c-2.815-5.264-6.983-9.619-12.09-12.705z" fill="#8A2C5B"/><path d="M146.186 24.887a33.65 33.65 0 00-16.506-4.437h-.552c-13.719.137-25.975 8.571-30.971 21.304l31.329 12.264 16.7-29.131zM98.322 66.172H76.074a.813.813 0 01-.828-.827c0-.468.36-.826.828-.826h22.248c.47 0 .828.358.828.826a.83.83 0 01-.828.827zm-14.215 3.142h-8.033a.813.813 0 01-.828-.827c0-.468.36-.827.828-.827h8.033c.47 0 .828.359.828.827a.813.813 0 01-.828.827zm88.302 98.087c-1.601 0-3.561-.441-4.278-1.681-.359-.634-.304-1.378.138-2.067.607-.937 3.202-1.654 11.013-3.032l.276-.055c1.933-.33 3.92-.551 5.88-.689a.833.833 0 01.883.772.85.85 0 01-.773.882 49.8 49.8 0 00-5.714.661l-.276.055c-2.732.469-9.081 1.599-9.937 2.343-.138.221-.083.303-.055.331.221.386 1.408.882 3.036.854h.028c.442 0 .8.358.828.799.028.469-.331.827-.8.855-.083-.028-.166-.028-.249-.028z" fill="#1E1E1E"/><path d="M180.635 175.697c-2.678 0-3.45-.965-3.644-1.791a1.703 1.703 0 010-.745 5.079 5.079 0 01-1.904-.441c-.332-.137-1.38-.661-1.657-1.433-.11-.303-.082-.606.056-.937-1.546.193-2.457-.027-2.954-.634-.441-.551-.441-1.295 0-2.232.883-1.791 10.379-6.449 11.787-6.863 1.766-.523 16.396-2.645 17.031-2.728.414-.055.828.22.911.634l3.892 16.095a.857.857 0 01-.166.717.838.838 0 01-.662.303H181.38c-.248.027-.497.055-.745.055zm3.671-5.237c-.497.193-1.021.414-1.463.607-.994.413-1.987.827-2.76 1.102-.939.331-1.518 1.103-1.463 1.378.027.138.58.607 2.733.469h20.978l-3.478-14.332c-4.637.662-14.74 2.178-16.037 2.564-1.795.523-10.103 4.96-10.766 6.008-.11.22-.138.386-.165.441.193.082.993.22 3.588-.414 1.077-.771 2.236-1.378 2.622-1.598a60.733 60.733 0 016.487-2.701c.442-.138.911.083 1.049.523.138.441-.083.91-.524 1.048a57.16 57.16 0 00-6.294 2.618c-2.236 1.13-3.367 2.177-3.726 2.646.441.358 1.656.964 2.788.551 1.518-.937 3.974-1.847 5.851-2.453 1.877-.744 2.54-.937 3.009-.827.359.083.607.414.635.8 0 .385-.248.716-.607.799 0 0-1.077.303-2.457.771z" fill="#1E1E1E"/><path d="M265.984 115.285a18.578 18.578 0 00-10.13-17.198l-10.434-5.595-1.132 5.126c-1.242 5.568-6.763 9.095-12.366 7.855l-1.353-.303c-5.576-1.24-9.109-6.752-7.867-12.32l1.739-7.799c-1.987-1.378-3.561-3.252-4.306-5.677-.055-.166-.083-.331-.138-.496l-10.379-5.568-.027 80.394 28.155-5.76-1.353-18.879a.815.815 0 01.773-.882.814.814 0 01.883.772l1.408 19.595c.028.413-.248.772-.662.882l-29.204 5.98v.221l-15.983 2.894c3.147.606 6.625 16.178 6.625 16.178h56.697c5.465 0 9.91-4.438 9.91-9.895v-.165l-.856-49.36z" fill="#1E1E1E"/><path d="M234.157 106.52c-.8 0-1.601-.082-2.429-.275l-1.352-.303c-6.018-1.323-9.827-7.304-8.502-13.312l1.739-7.8a.863.863 0 01.994-.633c.441.11.717.55.635.992l-1.739 7.8c-1.132 5.126 2.125 10.197 7.232 11.354l1.352.303c5.134 1.13 10.213-2.122 11.373-7.22l3.533-16.812a.814.814 0 01.994-.634.813.813 0 01.634.992l-3.533 16.812c-1.159 5.209-5.796 8.736-10.931 8.736z" fill="#1E1E1E"/><path d="M234.185 88.744c-5.714 0-12.863-2.756-14.823-9.15-2.042-6.67.497-16.04 1.049-17.859v-.055c1.463-4.933 4.003-12.154 7.895-18.686 5.603-9.426 16.976-4.024 19.211-2.839 9.303 4.934 11.207 12.154 11.18 17.363-.056 5.568-2.236 9.922-2.347 10.115a.213.213 0 00-.055.11c-.579 1.103-6.487 12.264-8.888 15.103-2.567 3.032-4.085 4.327-9.965 5.595a17.656 17.656 0 01-3.257.303zm-12.201-26.596c0 .028 0 .028-.027.056-.525 1.736-2.954 10.693-1.049 16.922 2.015 6.504 10.738 8.874 16.12 7.716 5.659-1.24 6.791-2.37 9.054-5.043 2.346-2.811 8.667-14.745 8.723-14.883.027-.027.027-.055.055-.082.276-.552 2.098-4.52 2.125-9.343.028-6.863-3.423-12.182-10.296-15.82-1.987-1.047-12.173-5.925-17.003 2.205-3.782 6.339-6.266 13.422-7.702 18.272z" fill="#1E1E1E"/><path d="M221.184 61.9c1.629-5.512 4.223-12.484 7.812-18.492.165-.276.331-.552.497-.8-2.926-2.26-7.619 2.426-10.876 12.017-1.684 4.96-6.266 7.468-6.266 7.468 3.506 3.06 6.68 1.737 8.75 0 .055-.11.083-.193.083-.193zm7.536 8.13a.974.974 0 01-.276-.055l-3.064-1.13a.824.824 0 01-.47-.44.847.847 0 010-.634l3.727-9.37a.847.847 0 011.076-.47.846.846 0 01.47 1.076l-3.423 8.57 2.263.828c.442.165.663.633.497 1.047-.138.358-.469.579-.8.579zm-1.853-11.968c.325-.755.19-1.538-.3-1.748-.49-.21-1.151.232-1.476.987-.324.756-.19 1.538.301 1.748.49.21 1.151-.231 1.475-.987zm8.572 3.666c.177-.803-.101-1.547-.623-1.662-.521-.114-1.087.443-1.264 1.246-.178.803.101 1.546.622 1.661.521.115 1.087-.443 1.265-1.245zm6.503-2.198c-.359 0-.663-.22-.801-.579a3.622 3.622 0 00-2.76-2.452.839.839 0 01-.663-.965.84.84 0 01.966-.661 5.253 5.253 0 014.031 3.555.845.845 0 01-.525 1.047c-.083.055-.166.055-.248.055z" fill="#1E1E1E"/><path d="M230.403 52.668a.879.879 0 01-.552-.22c-.027-.028-2.235-2.013-3.698-.965a.817.817 0 01-1.16-.193.813.813 0 01.193-1.158c2.54-1.846 5.659.965 5.797 1.075a.824.824 0 01.055 1.157.818.818 0 01-.635.304z" fill="#1E1E1E"/><path d="M274.099 62.148l-9.357-4.74c1.187-6.945.441-17.721-12.615-23.757-20.426-9.48-27.879 10.941-27.879 10.941l46.787 23.564a3.383 3.383 0 004.582-1.378 3.372 3.372 0 00-1.38-4.575.213.213 0 01-.138-.055z" fill="#4E2D5E"/><path d="M263.638 64.463l-19.737-9.949c-2.291 7.138-5.161 21.442 7.067 25.218 0 0 9.55 3.17 12.311.027 0 0-6.57-4.795-5.079-8.736 0 0 6.707 9.922 14.574 4.657 0-.027-9.33-3.004-9.136-11.217zm16.534 111.206H16.148a.813.813 0 01-.828-.827c0-.468.358-.826.828-.826h264.024c.469 0 .828.358.828.826a.83.83 0 01-.828.827zm-48.747-96.764a2.884 2.884 0 01-2.871-2.866 2.884 2.884 0 012.871-2.866 2.884 2.884 0 012.87 2.866 2.884 2.884 0 01-2.87 2.866zm0-4.106c-.663 0-1.215.55-1.215 1.212 0 .662.552 1.213 1.215 1.213.662 0 1.214-.551 1.214-1.213 0-.661-.552-1.212-1.214-1.212z" fill="#1E1E1E"/></g><defs><clipPath id="clip0"><path fill="#fff" d="M0 0h281v176H0z"/></clipPath></defs></svg>