<svg width="268" height="173" fill="none" xmlns="http://www.w3.org/2000/svg"><g clip-path="url(#clip0)"><path d="M163.312 109.449h-5.345a2.966 2.966 0 01-2.98-2.962v-6.563l-8.284 2.037 2.22 8.723c2.343 31.929-39.672 35.427-41.275.843l-26.043 6.378v-.021l-17 3.704 11.326 45.24 23.618-5.699a555.965 555.965 0 005.632 10.657h72.828l-14.697-62.337z" fill="#1E1E1E"/><path d="M55.643 172.712a.6.6 0 01-.575-.412.613.613 0 01.39-.781c25.88-8.744 69.703-17.837 78.398-19.607l-52.395-32.793c-1.789.411-12.847 3.003-23.989 6.419a.595.595 0 01-.76-.412.595.595 0 01.411-.761c12.148-3.724 24.194-6.481 24.317-6.501a.639.639 0 01.473.082l53.896 33.761a.662.662 0 01.288.637.614.614 0 01-.494.494c-.514.103-51.162 10.205-79.754 19.874h-.206z" fill="#1E1E1E"/><path d="M25.427 172.815h-.103c-2.96-.514-5.303-2.592-6.763-6.049-2.754-6.46-2.425-17.466.843-30.201 3.577-13.825 10.34-28.535 19.096-41.434 10.73-17.467 13.895-22.137 22.117-24.853 3.557-1.173 7.154-.967 10.669.576l.699.309c12.62 5.575 20.267 9.196 20.041 12.385-.082 1.193-1.213 2.078-3.433 2.715-8.448 2.407-28.017 18.208-30.36 20.1.02 2.737.123 23.474-.945 31.333a82.857 82.857 0 01-3.783 15.78.594.594 0 01-.78.37.594.594 0 01-.37-.781 81.02 81.02 0 003.72-15.533c1.13-8.291.925-31.21.925-31.457 0-.185.082-.37.226-.473.884-.72 21.83-17.898 31.018-20.511 1.603-.453 2.487-1.029 2.528-1.605.041-.597-.658-1.996-5.755-4.773-3.7-2.016-8.716-4.238-13.567-6.378l-.699-.308c-3.268-1.44-6.475-1.626-9.784-.535-7.852 2.572-10.689 6.81-21.46 24.338 0 0 0 .02-.02.02-18.87 27.836-24.996 58.243-19.816 70.423 1.316 3.086 3.269 4.875 5.838 5.307a.616.616 0 01.493.721c-.02.308-.287.514-.575.514zm75.315-78.281a.599.599 0 01-.597-.515c-1.5-8.126-2.898-20.223-2.26-29.769a.62.62 0 01.657-.576c.35.02.596.309.576.658-.617 9.423.76 21.397 2.261 29.461a.626.626 0 01-.494.72.396.396 0 01-.143.02zm49.25-5.308c-1.028 0-2.014-.123-2.878-.308a.625.625 0 01-.493-.72.625.625 0 01.719-.494c1.953.39 4.646.555 6.496-.762 1.11-.802 1.809-2.098 2.035-3.867.267-2.078-.082-3.765-1.069-5-1.48-1.851-4.091-2.345-5.509-2.489a.598.598 0 01-.555-.679.598.598 0 01.679-.555c1.623.144 4.583.72 6.351 2.942 1.192 1.502 1.644 3.497 1.316 5.925-.288 2.119-1.131 3.703-2.549 4.711-1.295.987-2.96 1.296-4.543 1.296zm-21.193 47.442c-9.476 0-19.774-6.769-21.542-22.445a.619.619 0 01.535-.679.617.617 0 01.678.535c1.788 15.841 12.662 22.136 22.035 21.272 9.374-.864 18.952-8.929 17.822-24.585l-3.351-13.105a.614.614 0 011.193-.288l3.35 13.167c0 .041.021.062.021.103.534 7.386-1.234 13.804-5.098 18.557-3.474 4.258-8.387 6.892-13.834 7.386-.596.061-1.192.082-1.809.082z" fill="#1E1E1E"/><path d="M120.392 119.654c-4.584 0-9.044-1.296-12.21-4.547-7.256-7.427-8.982-22.137-9.044-22.754a.573.573 0 01.39-.638c3.269-1.213 11.286-1.892 11.635-1.934h.021c12.97-.658 22.898 1.4 25.468 1.996.801-4.69 2.384-15.306 2.404-15.41a.596.596 0 01.658-.514l9.024.741c.164.02.329.103.432.226a.665.665 0 01.123.474c-.123.781-2.857 19.05-4.07 24.132-1.233 5.246-2.302 7.715-8.715 12.879-3.762 3.045-10.052 5.349-16.116 5.349zm-19.959-26.951c.37 2.633 2.405 15.142 8.633 21.54 3.084 3.168 7.914 4.608 13.587 4.074 4.872-.474 9.887-2.366 13.115-4.979 6.125-4.958 7.091-7.16 8.283-12.221 1.069-4.505 3.433-19.997 3.947-23.391l-7.79-.638c-.37 2.407-1.768 11.788-2.447 15.512a.567.567 0 01-.267.412.6.6 0 01-.493.082c-.103-.02-10.874-2.86-25.735-2.12-.329.063-7.524.7-10.833 1.729z" fill="#1E1E1E"/><path d="M148.204 79.886s4.296-8.888 5.55-16.212c1.192-6.871-2.426-13.784-8.88-16.397-5.406-2.201-7.174-1.481-7.174-1.481s3.207-5.72-5.139-14.134a15.168 15.168 0 00-11.182-4.505c-10.216.267-13.402 8.908-13.402 8.908s-10.894-20.141-33.34-8.291c-2.262 1.193-4.831 4.547-6.044 6.789-7.441 13.64 16.917 29.893 29.64 31.21 13.958 1.44 22.714-.288 26.969-3.992-3.206 2.202 2.508 22.652 23.002 18.105zm-38.439 18.783a.835.835 0 01-.493-.165.908.908 0 01-.329-.7l.658-13.228a.825.825 0 01.863-.781c.452.02.802.411.781.864l-.596 12.035 3.412-1.111a.807.807 0 011.028.535.809.809 0 01-.534 1.029l-4.543 1.48a.881.881 0 01-.247.042z" fill="#1E1E1E"/><path d="M124.36 76.553a.89.89 0 01-.617-.268 5.346 5.346 0 00-5.18-1.666.827.827 0 01-.987-.617.838.838 0 01.617-.988c2.487-.576 5.077.268 6.783 2.181a.814.814 0 01-.061 1.152.848.848 0 01-.555.206zm-21.851-3.107a.822.822 0 01-.308-.061.82.82 0 01-.473-1.07c1.151-2.942 4.317-2.736 5.838-2.201a.827.827 0 01-.535 1.564c-.123-.042-2.918-.947-3.782 1.254a.78.78 0 01-.74.514zm22.858 26.931c-.72-.988-7.729 3.929-4.995 4.382 2.734.452 6.536-2.263 4.995-4.382z" fill="#1E1E1E"/><path d="M95.972 99.472l26.62-9.012s3.556-1.357 3.432-5.986c-.123-4.63-5.94-6.358-5.94-6.358l-28.387-4.011 4.275 25.367z" fill="#4E2D5E"/><path d="M67.483 99.472l26.62-9.012s3.555-1.357 3.432-5.986c-.123-4.63-5.94-6.358-5.94-6.358l-13.732.906-14.655-4.917 4.275 25.367z" fill="#4E2D5E"/><path d="M91.43 100.294c7.254 0 13.135-5.885 13.135-13.146 0-7.26-5.881-13.146-13.135-13.146s-13.135 5.886-13.135 13.146c0 7.26 5.88 13.146 13.135 13.146zm-28.695.186c7.254 0 13.135-5.886 13.135-13.147 0-7.26-5.881-13.146-13.135-13.146-7.255 0-13.135 5.886-13.135 13.147 0 7.26 5.88 13.146 13.135 13.146zm20.452-29.173a.617.617 0 01-.596-.432.595.595 0 01.411-.762c4.584-1.399 6.002-3.477 5.94-4.197 0-.082-.02-.267-.431-.329-1.891-.288-11.901.823-17.184 4.568-.288.205-.658.123-.864-.145-.205-.267-.123-.658.144-.864 5.53-3.908 15.828-5.102 18.089-4.772.843.123 1.418.678 1.48 1.46.123 1.605-1.953 3.991-6.804 5.473-.061-.02-.123 0-.185 0z" fill="#1E1E1E"/><path d="M90.67 79.042c-2.53 0-6.106-.925-10.463-3.456-.021 0-.021-.02-.042-.02-.02-.021-2.754-1.832-4.83-1.626-.329.041-.637-.226-.678-.555-.041-.33.226-.638.555-.68 2.466-.226 5.344 1.647 5.632 1.832 7.03 4.073 11.737 3.641 12.58 2.51.061-.083.185-.247-.124-.556-1.706-1.625-12.826-7.427-18.87-5.945a.613.613 0 11-.287-1.194c6.7-1.646 18.088 4.423 20.02 6.254.679.638.782 1.502.268 2.202-.596.72-1.87 1.234-3.762 1.234z" fill="#1E1E1E"/><path d="M84.276 79.042c-2.528 0-6.104-.926-10.462-3.456-.02 0-.02-.02-.041-.02-.02-.021-2.755-1.832-4.83-1.626-.35.041-.638-.226-.68-.555-.04-.33.227-.638.556-.68 2.446-.226 5.344 1.646 5.632 1.832 7.03 4.073 11.737 3.641 12.58 2.51.062-.083.185-.247-.123-.556-1.665-1.584-12.621-7.324-18.706-5.987-.329.083-.657-.144-.74-.473-.082-.33.144-.658.473-.74 6.722-1.482 17.945 4.505 19.815 6.295.679.638.781 1.502.268 2.201-.576.74-1.87 1.255-3.742 1.255z" fill="#1E1E1E"/><path d="M78.973 79.392c-2.528 0-6.125-.926-10.483-3.456-.02 0-.02-.02-.041-.02-.02-.022-2.754-1.832-4.83-1.626a.637.637 0 01-.679-.556c-.041-.329.226-.637.555-.679 2.446-.226 5.345 1.646 5.632 1.831 7.03 4.074 11.737 3.642 12.58 2.51.062-.082.185-.267-.123-.555-1.81-1.728-14.368-8.27-20.021-5.555a.617.617 0 01-.534-1.11c6.557-3.148 19.65 4.093 21.418 5.76.678.637.781 1.501.267 2.201-.575.74-1.85 1.255-3.74 1.255zm88.1-29.255a.615.615 0 01-.596-.494l-6.084-28.185c-.534-2.51-.041-5.102 1.398-7.283 1.562-2.345 4.131-4.012 7.03-4.567 5.817-1.09 11.49 2.448 12.662 7.88l4.07 18.886a.644.644 0 01-.473.74.643.643 0 01-.74-.473l-4.07-18.886c-1.028-4.773-6.064-7.88-11.223-6.913-2.59.494-4.851 1.955-6.228 4.032-1.254 1.893-1.707 4.156-1.234 6.337l6.085 28.185a.644.644 0 01-.473.741h-.124zm44.872-11.665a.623.623 0 01-.616-.638l.658-27.527c.061-2.222-.761-4.382-2.344-6.048-1.747-1.852-4.255-2.942-6.906-3.025-5.262-.144-9.661 3.683-9.805 8.559l-.822 25.778c-.021.35-.288.617-.638.597-.349-.02-.616-.288-.596-.638l.823-25.778c.185-5.534 5.138-9.896 11.079-9.752 2.98.082 5.796 1.317 7.77 3.415 1.809 1.914 2.754 4.382 2.672 6.933l-.658 27.527c0 .35-.288.597-.617.597zm24.77 10.225c-.041 0-.083 0-.124-.02-.329-.062-.534-.392-.472-.741l5.755-26.745c.473-2.181.041-4.444-1.233-6.337-1.378-2.078-3.659-3.56-6.229-4.032-5.159-.967-10.195 2.14-11.223 6.912l-4.83 19.524a.613.613 0 11-1.192-.288l4.83-19.503c1.172-5.411 6.845-8.95 12.662-7.86 2.898.536 5.468 2.202 7.03 4.568 1.439 2.18 1.953 4.773 1.398 7.283l-5.756 26.745c-.082.288-.329.494-.616.494zm4.275 44.438a.474.474 0 01-.288-.082.613.613 0 01-.246-.844l25.324-47.195c1.089-2.037 1.295-4.34.575-6.501-.781-2.325-2.487-4.197-4.83-5.287-4.707-2.181-10.463-.412-12.806 3.97l-6.434 11.995a.613.613 0 01-.843.246.613.613 0 01-.246-.843L247.63 36.6c2.651-4.938 9.126-6.954 14.409-4.506 2.651 1.235 4.604 3.374 5.488 6.008.822 2.489.596 5.143-.658 7.488l-25.344 47.236c-.103.206-.309.309-.535.309zm-78.541-.041a.593.593 0 01-.535-.33l-5.55-10.348a.632.632 0 01.247-.843.631.631 0 01.843.247l5.55 10.348a.632.632 0 01-.555.926zm-8.901-16.582a.591.591 0 01-.534-.33l-16.404-30.55a9.436 9.436 0 01-.657-7.49c.884-2.653 2.836-4.772 5.488-6.007 5.303-2.448 11.758-.432 14.409 4.506l7.606 14.175a.632.632 0 01-.247.843.63.63 0 01-.843-.246l-7.605-14.175c-2.344-4.362-8.099-6.152-12.806-3.971-2.343 1.09-4.07 2.962-4.831 5.287-.719 2.16-.514 4.485.576 6.522l16.403 30.551a.632.632 0 01-.247.844 1.57 1.57 0 01-.308.04z" fill="#1E1E1E"/><path d="M170.218 93.217a.619.619 0 01-.575-.39l-10.73-27.713c-2.302-5.966-.082-12.879 4.954-15.45 2.261-1.153 4.81-1.276 7.194-.37 2.796 1.07 5.077 3.476 6.29 6.583l4.378 11.336-2.261-19.565c-.74-6.46 3.145-12.303 8.695-13.003 2.405-.308 4.83.412 6.865 1.996 2.488 1.954 4.132 5.04 4.543 8.476l2.282 19.874 4.358-20.039c.698-3.25 2.59-5.966 5.159-7.447 2.22-1.276 4.769-1.523 7.194-.72 5.386 1.77 8.654 8.29 7.297 14.525l-3.967 18.289 7.318-16.068c1.295-2.839 3.577-4.917 6.269-5.698 2.508-.741 5.18-.309 7.482 1.193 4.893 3.189 6.784 10.369 4.214 16.006l-12.621 27.774a.624.624 0 01-.822.308.625.625 0 01-.308-.823l12.621-27.773c2.322-5.103.637-11.604-3.762-14.464-1.994-1.296-4.296-1.666-6.454-1.049-2.385.7-4.337 2.49-5.509 5.04L220.62 75.36a.611.611 0 01-.761.33.62.62 0 01-.411-.72l5.18-23.906c1.213-5.638-1.685-11.5-6.495-13.085-2.076-.7-4.296-.473-6.208.617-2.282 1.296-3.947 3.724-4.563 6.625l-5.139 23.68a.643.643 0 01-.637.493.6.6 0 01-.576-.555l-2.652-23.536c-.349-3.106-1.85-5.884-4.07-7.633-1.767-1.398-3.884-2.016-5.961-1.748-4.871.617-8.283 5.822-7.605 11.624l2.796 24.338a.627.627 0 01-.473.679.595.595 0 01-.72-.37L176.2 56.37c-1.09-2.799-3.125-4.938-5.571-5.885-2.055-.781-4.255-.678-6.207.31-4.502 2.283-6.455 8.516-4.358 13.907l10.73 27.67a.632.632 0 01-.35.803c-.082.02-.144.041-.226.041z" fill="#4E2D5E"/><path d="M178.112 172.856a.595.595 0 01-.596-.473l-14.697-62.316h-4.852a3.527 3.527 0 01-2.528-1.05 3.568 3.568 0 01-1.048-2.53V95.563c0-.968.37-1.873 1.069-2.552a3.56 3.56 0 012.528-1.049h86.949a3.59 3.59 0 013.597 3.6v10.925c0 .967-.37 1.872-1.069 2.551a3.56 3.56 0 01-2.528 1.049h-4.522l-8.407 35.674a.614.614 0 11-1.193-.288l8.51-36.147a.597.597 0 01.596-.473h4.995a2.38 2.38 0 001.665-.679 2.318 2.318 0 00.699-1.667V95.583a2.365 2.365 0 00-2.364-2.366h-86.949a2.38 2.38 0 00-1.664.679 2.316 2.316 0 00-.699 1.666v10.925c0 .638.246 1.214.699 1.666a2.292 2.292 0 001.664.679h5.345c.288 0 .534.206.596.473l14.8 62.769a.614.614 0 01-.452.741.397.397 0 01-.144.041z" fill="#1E1E1E"/><path d="M237.66 151.933a.582.582 0 01-.472-.226c-3.063-3.847-5.982-5.349-9.086-6.933-1.48-.762-3.021-1.543-4.584-2.613-1.973-1.358-3.165-2.757-4.028-3.765-1.336-1.584-1.789-2.016-3.166-1.42-.329.144-.514.35-.617.659-.185.638-.061 2.325 2.796 6.419a.643.643 0 01-.144.864c-.288.205-.658.123-.863-.144-2.426-3.477-3.412-5.925-2.96-7.468.185-.659.637-1.173 1.315-1.461 2.282-.967 3.289.226 4.584 1.749.863 1.028 1.953 2.304 3.803 3.559 1.5 1.028 3.001 1.79 4.46 2.53 3.063 1.584 6.249 3.21 9.476 7.263a.618.618 0 01-.102.864.855.855 0 01-.412.123z" fill="#1E1E1E"/><path d="M218.112 145.514a.468.468 0 01-.287-.082c-7.565-4.115-18.603-4.588-22.221-4.423-.308.02-.842.103-1.027.514-.206.432-.021 1.132.513 1.872.206.288.124.658-.143.864-.288.206-.658.124-.864-.144-.822-1.152-1.028-2.263-.616-3.127.349-.72 1.11-1.152 2.076-1.193 3.72-.165 15.046.329 22.857 4.567a.615.615 0 01.247.844.614.614 0 01-.535.308z" fill="#1E1E1E"/><path d="M193.035 150.884a.578.578 0 01-.391-.144c-2.528-2.037-3.782-4.32-3.268-6.007.288-.926 1.069-1.502 2.158-1.585 3.166-.246 14.841 1.399 23.084 5.72a.638.638 0 01.267.843.638.638 0 01-.843.268c-7.893-4.156-19.424-5.822-22.405-5.596-.575.041-.945.288-1.069.72-.288.946.473 2.757 2.857 4.67a.618.618 0 01.103.864c-.144.165-.308.247-.493.247z" fill="#1E1E1E"/><path d="M195.892 158.887a.613.613 0 01-.37-.124c-3.823-2.962-4.584-5.884-4.07-7.509.329-1.028 1.151-1.666 2.282-1.728 2.528-.144 11.264 1.399 18.911 4.814a.625.625 0 01.308.823.624.624 0 01-.822.309c-7.359-3.292-15.992-4.835-18.356-4.712-.617.042-1.007.33-1.172.865-.411 1.296.576 3.764 3.659 6.151a.601.601 0 01.103.864.55.55 0 01-.473.247z" fill="#1E1E1E"/><path d="M215.666 170.511c-.061 0-.123 0-.185-.021-6.557-1.975-11.942-4.341-15.581-6.851-3.042-2.098-4.686-4.217-4.563-5.801.082-.988.843-1.667 2.014-1.811 2.097-.247 8.387 1.152 14.903 3.847a.606.606 0 01.329.803.604.604 0 01-.802.329c-6.68-2.777-12.6-3.971-14.286-3.765-.884.103-.925.535-.945.679-.144 1.769 4.358 6.892 19.26 11.377a.603.603 0 01.411.761c-.041.268-.288.453-.555.453z" fill="#1E1E1E"/><path d="M229.233 172.548c-4.008 0-8.633-.679-13.731-2.078-.329-.083-.514-.432-.432-.762.082-.329.432-.514.761-.432 17.41 4.753 23.844.083 25.797-2.139 2.076-2.366 2.487-5.596 1.13-8.847-2.24-5.41-9.99-12.035-24.419-12.94a.608.608 0 01-.576-.658.608.608 0 01.658-.577c6.495.412 12.353 2.037 16.958 4.712 4.09 2.386 7.112 5.575 8.53 8.97 1.542 3.723 1.049 7.427-1.356 10.142-2.673 3.066-7.297 4.609-13.32 4.609z" fill="#1E1E1E"/><path d="M258.688 173H.617a.606.606 0 01-.617-.617c0-.35.267-.617.617-.617h258.071c.35 0 .617.267.617.617s-.267.617-.617.617z" fill="#1E1E1E"/><path d="M66 89.91c.007-1.029-.393-1.842-1.192-2.416-.618-.443-1.367-.673-2.091-.895-1.509-.464-1.947-.709-1.947-1.441 0-.816 1.045-1.106 1.94-1.106.65 0 1.4.205 1.865.51l.923-1.45c-.608-.4-1.44-.673-2.263-.758V81h-1.702v1.449c-1.513.338-2.465 1.341-2.465 2.709 0 .957.392 1.717 1.163 2.253.587.409 1.302.629 1.993.841 1.48.454 2.081.73 2.075 1.647v.007c0 .769-1.005 1.042-1.865 1.042-.813 0-1.697-.361-2.198-.899L59 91.236c.635.681 1.556 1.163 2.533 1.351V94h1.702v-1.382c1.681-.244 2.763-1.271 2.765-2.708zm29 0c.007-1.029-.393-1.842-1.192-2.416-.618-.443-1.367-.673-2.091-.895-1.509-.464-1.947-.709-1.947-1.441 0-.816 1.045-1.106 1.94-1.106.65 0 1.4.205 1.865.51l.923-1.45c-.608-.4-1.44-.673-2.263-.758V81h-1.702v1.449c-1.513.338-2.466 1.341-2.466 2.709 0 .957.393 1.717 1.164 2.253.587.409 1.302.629 1.993.841 1.48.454 2.081.73 2.075 1.647v.007c0 .769-1.005 1.042-1.865 1.042-.813 0-1.697-.361-2.198-.899L88 91.236c.635.681 1.556 1.163 2.533 1.351V94h1.702v-1.382c1.681-.244 2.763-1.271 2.765-2.708z" fill="#fff"/></g><defs><clipPath id="clip0"><path fill="#fff" d="M0 0h268v173H0z"/></clipPath></defs></svg>