<svg width="276" height="168" fill="none" xmlns="http://www.w3.org/2000/svg"><path d="M52.436 105.99H37.098v61.25h15.338v-61.25z" fill="#4E2D5E"/><path d="M48.464 111.207h-8.24v28.513h8.24v-28.513z" fill="#fff"/><path d="M48.464 140.924h-8.24v2.661h8.24v-2.661z" fill="#8A2C5B"/><path d="M44.196 160.249a3.534 3.534 0 01-3.528-3.527 3.534 3.534 0 013.528-3.527 3.534 3.534 0 013.528 3.527 3.534 3.534 0 01-3.528 3.527zm0-5.787a2.263 2.263 0 00-2.26 2.26 2.263 2.263 0 002.26 2.26 2.263 2.263 0 002.26-2.26c-.02-1.246-1.034-2.26-2.26-2.26z" fill="#fff"/><path d="M47.513 118.62h-6.127a.622.622 0 01-.633-.633c0-.359.274-.634.633-.634h6.127c.36 0 .634.275.634.634a.622.622 0 01-.634.633zm0 3.147h-6.127a.622.622 0 01-.633-.633c0-.359.274-.634.633-.634h6.127c.36 0 .634.275.634.634a.622.622 0 01-.634.633zm0 3.147h-6.127a.622.622 0 01-.633-.633c0-.359.274-.634.633-.634h6.127c.36 0 .634.275.634.634a.622.622 0 01-.634.633z" fill="#8A2C5B"/><path d="M67.689 106.054H52.35v61.249h15.34v-61.249z" fill="#4E2D5E"/><path d="M63.738 111.271h-8.24v28.512h8.24v-28.512z" fill="#fff"/><path d="M63.738 140.987h-8.24v2.661h8.24v-2.661z" fill="#1E1E1E"/><path d="M59.45 160.312a3.534 3.534 0 01-3.529-3.527 3.534 3.534 0 013.529-3.527 3.534 3.534 0 013.528 3.527 3.534 3.534 0 01-3.529 3.527zm0-5.787a2.263 2.263 0 00-2.261 2.26 2.263 2.263 0 002.26 2.26 2.263 2.263 0 002.261-2.26 2.263 2.263 0 00-2.26-2.26z" fill="#fff"/><path d="M62.703 131.757h-6.106a.622.622 0 01-.633-.633c0-.359.274-.634.633-.634h6.106c.36 0 .634.275.634.634a.635.635 0 01-.634.633zm0-16.199h-6.106a.623.623 0 01-.633-.634c0-.359.274-.633.633-.633h6.106c.36 0 .634.274.634.633a.636.636 0 01-.634.634zm0 19.346h-6.106a.622.622 0 01-.633-.633c0-.359.274-.634.633-.634h6.106c.36 0 .634.275.634.634a.635.635 0 01-.634.633zm0 3.126h-6.106a.622.622 0 01-.633-.633c0-.359.274-.634.633-.634h6.106c.36 0 .634.275.634.634a.635.635 0 01-.634.633z" fill="#1E1E1E"/><path d="M37.31 106.054H21.97v61.25h15.34v-61.25z" fill="#4E2D5E"/><path d="M33.358 111.271H25.12v28.512h8.24v-28.512z" fill="#fff"/><path d="M33.358 140.987H25.12v2.661h8.24v-2.661z" fill="#8A2C5B"/><path d="M29.07 160.312a3.534 3.534 0 01-3.528-3.527 3.534 3.534 0 013.528-3.527 3.534 3.534 0 013.528 3.527 3.534 3.534 0 01-3.528 3.527zm0-5.787a2.263 2.263 0 00-2.26 2.26 2.263 2.263 0 002.26 2.26 2.263 2.263 0 002.26-2.26 2.263 2.263 0 00-2.26-2.26z" fill="#fff"/><path d="M32.302 131.757h-6.127a.622.622 0 01-.633-.633c0-.359.274-.634.633-.634h6.127c.36 0 .634.275.634.634a.622.622 0 01-.634.633zm0-16.199h-6.127a.623.623 0 01-.633-.634c0-.359.274-.633.633-.633h6.127c.36 0 .634.274.634.633a.623.623 0 01-.634.634zm0 19.346h-6.127a.622.622 0 01-.633-.633c0-.359.274-.634.633-.634h6.127c.36 0 .634.275.634.634a.622.622 0 01-.634.633zm0 3.126h-6.127a.622.622 0 01-.633-.633c0-.359.274-.634.633-.634h6.127c.36 0 .634.275.634.634a.622.622 0 01-.634.633z" fill="#1E1E1E"/><path d="M54.337 86.39a10.074 10.074 0 00-2.26-6.8c-2.62-3.19-2.663-5.238-4.142-6.759-1.478-1.52-3.823-.824-1.71 4.351a800.915 800.915 0 003.02 7.329l5.092 1.88z" fill="#fff"/><path d="M54.337 87.024a.747.747 0 01-.212-.042l-5.07-1.859a.63.63 0 01-.359-.338c0-.02-.93-2.196-3.021-7.328-1.584-3.929-.697-5.238-.021-5.682.781-.507 1.901-.253 2.767.655.74.76 1.141 1.626 1.606 2.619.55 1.161 1.162 2.492 2.556 4.182a10.682 10.682 0 012.409 7.223c0 .211-.106.38-.275.507-.148.02-.253.063-.38.063zm-4.606-2.999l3.972 1.457a9.37 9.37 0 00-2.113-5.491c-1.479-1.816-2.176-3.274-2.725-4.457-.444-.929-.782-1.647-1.373-2.26-.465-.485-.95-.612-1.162-.464-.317.211-.634 1.352.486 4.14 1.69 4.16 2.62 6.378 2.915 7.075z" fill="#1E1E1E"/><path d="M42.231 79.062c.233 0 14.62-.74 16.33 13.517z" fill="#fff"/><path d="M58.562 93.212a.638.638 0 01-.634-.549c-1.563-12.989-14.218-13.01-15.633-12.968h-.043a.622.622 0 01-.633-.633c0-.338.274-.634.633-.634h.022c1.563-.042 15.232-.042 16.943 14.066a.635.635 0 01-.55.697c-.063.021-.084.021-.105.021z" fill="#1E1E1E"/><path d="M51.97 107.511s-1.774-10.518-4.119-14.172c-2.345-3.654-7.563-3.38-7.563-3.38S27.02 78.197 25.098 76.085c-1.922-2.112-1.183-4.14 2.24-1.796 3.422 2.345 13.753 9.843 13.753 9.843s17.196-5.83 20.006 10.686l3.17 9.8-12.296 2.894z" fill="#fff"/><path d="M51.97 108.145a.716.716 0 01-.358-.106.627.627 0 01-.275-.422c-.021-.106-1.796-10.434-4.035-13.94-2.113-3.295-6.95-3.084-6.993-3.084a.498.498 0 01-.444-.169c-.549-.485-13.31-11.806-15.232-13.94-1.204-1.33-1.542-2.681-.866-3.442.401-.464 1.458-.992 3.95.718 3.106 2.134 11.874 8.49 13.5 9.674 1.606-.486 8.683-2.324 14.24.992 3.316 1.986 5.429 5.428 6.253 10.244l3.148 9.757a.607.607 0 01-.043.507c-.084.148-.232.275-.401.296l-12.296 2.872c-.063.043-.105.043-.147.043zM40.563 89.326c1.205 0 5.62.254 7.817 3.675 2.07 3.21 3.655 11.342 4.099 13.75l10.985-2.577-2.957-9.145c0-.021-.022-.064-.022-.085-.76-4.456-2.661-7.624-5.661-9.42-5.662-3.379-13.437-.823-13.5-.78a.616.616 0 01-.57-.085c-.106-.085-10.352-7.498-13.733-9.843-1.52-1.035-2.197-.992-2.281-.908-.064.085-.042.782.866 1.753 1.753 1.943 13.33 12.229 14.957 13.665-.02 0 0 0 0 0z" fill="#1E1E1E"/><path d="M40.077 89.453s-6.824-15.122-7.838-17.974c-1.014-2.85.359-4.35 2.683-.57s7.584 12.546 7.584 12.546" fill="#fff"/><path d="M40.077 90.087a.643.643 0 01-.57-.38c-.275-.613-6.846-15.186-7.86-18.037-.634-1.754-.464-3.148.423-3.57.676-.317 1.795-.148 3.401 2.45a1539.862 1539.862 0 017.584 12.546.621.621 0 01-.21.866.622.622 0 01-.867-.212c-.042-.084-5.303-8.807-7.584-12.545-.93-1.52-1.564-1.922-1.754-1.964-.105.169-.19.823.211 1.985.993 2.788 7.754 17.784 7.817 17.931a.642.642 0 01-.317.845.512.512 0 01-.274.085z" fill="#1E1E1E"/><path d="M39.422 88.228s-.55-12.989-.55-15.502c0-4.14 2.493-5.323 3.127.274.422 3.739.908 10.603.908 10.603" fill="#fff"/><path d="M39.422 88.862a.646.646 0 01-.634-.613c-.021-.528-.55-13.031-.55-15.523 0-2.43.803-4.098 1.986-4.161.719-.042 1.965.464 2.409 4.35.422 3.697.908 10.56.908 10.645a.624.624 0 01-.591.676.624.624 0 01-.676-.591c0-.063-.486-6.907-.909-10.581-.296-2.556-.93-3.21-1.077-3.232-.17.042-.782.845-.782 2.894 0 2.47.528 15.333.55 15.46a.61.61 0 01-.613.654c0 .022 0 .022-.021.022z" fill="#1E1E1E"/><path d="M235.114 86.39a10.079 10.079 0 012.261-6.8c2.62-3.19 2.662-5.238 4.141-6.76 1.479-1.52 3.824-.823 1.711 4.352-2.113 5.174-3.042 7.329-3.042 7.329l-5.071 1.88z" fill="#fff"/><path d="M235.114 87.024a.716.716 0 01-.359-.106.594.594 0 01-.274-.507 10.661 10.661 0 012.387-7.223c1.394-1.69 2.007-3.02 2.556-4.182.465-.992.866-1.858 1.606-2.619.866-.908 1.986-1.161 2.767-.654.676.443 1.585 1.774-.021 5.681-2.091 5.132-3.021 7.308-3.042 7.329a.57.57 0 01-.359.338l-5.07 1.858c-.043.064-.106.085-.191.085zm7.817-14.257c-.253 0-.612.148-.95.529-.592.612-.951 1.351-1.374 2.28-.549 1.183-1.246 2.64-2.725 4.457-1.289 1.563-2.007 3.485-2.113 5.491l3.972-1.457c.296-.697 1.225-2.915 2.916-7.054 1.14-2.788.824-3.929.507-4.14-.085-.084-.148-.106-.233-.106z" fill="#1E1E1E"/><path d="M247.199 79.062c-.233 0-14.62-.74-16.331 13.517z" fill="#fff"/><path d="M230.889 93.212h-.084a.636.636 0 01-.55-.697c1.69-14.108 15.38-14.13 16.944-14.066h.021a.65.65 0 01.634.634.636.636 0 01-.634.633h-.042c-1.437-.042-14.092-.042-15.634 12.968-.084.296-.338.528-.655.528z" fill="#1E1E1E"/><path d="M237.481 107.511s1.774-10.518 4.119-14.172c2.345-3.654 7.563-3.38 7.563-3.38s13.268-11.763 15.19-13.875c1.923-2.112 1.183-4.14-2.239-1.796-3.423 2.345-13.753 9.843-13.753 9.843s-17.197-5.83-20.007 10.686l-3.169 9.8 12.296 2.894z" fill="#fff"/><path d="M237.481 108.144c-.043 0-.106 0-.148-.021l-12.296-2.872a.635.635 0 01-.401-.296.606.606 0 01-.043-.507l3.148-9.757c.824-4.816 2.937-8.258 6.254-10.244 5.556-3.316 12.654-1.478 14.239-.992 1.626-1.183 10.415-7.54 13.499-9.674 2.472-1.71 3.529-1.182 3.951-.718.676.76.338 2.112-.866 3.443-1.923 2.133-14.704 13.454-15.232 13.94a.728.728 0 01-.444.168c-.042 0-4.88-.21-6.993 3.084-2.239 3.506-4.014 13.834-4.035 13.94a.625.625 0 01-.274.422.7.7 0 01-.359.084zm-11.493-3.97l10.985 2.577c.444-2.408 2.029-10.519 4.099-13.75 2.197-3.443 6.612-3.675 7.817-3.675h.042c1.606-1.436 13.204-11.722 14.957-13.665.888-.993.93-1.668.867-1.753-.085-.063-.761-.127-2.282.93-3.38 2.323-13.627 9.757-13.732 9.842a.617.617 0 01-.571.084c-.084-.021-7.859-2.598-13.52.782-3 1.795-4.902 4.963-5.662 9.42 0 .02-.021.063-.021.084l-2.979 9.124z" fill="#1E1E1E"/><path d="M249.375 89.453s6.824-15.122 7.838-17.974c1.014-2.85-.359-4.35-2.683-.57s-7.585 12.546-7.585 12.546" fill="#fff"/><path d="M249.375 90.086a.565.565 0 01-.254-.063.642.642 0 01-.317-.845c.064-.148 6.824-15.143 7.817-17.931.423-1.162.317-1.816.211-1.985-.19.042-.824.443-1.753 1.964-2.282 3.738-7.521 12.46-7.585 12.545-.19.296-.57.402-.866.212-.295-.19-.401-.57-.211-.866.063-.085 5.303-8.808 7.584-12.546 1.585-2.598 2.726-2.767 3.381-2.45.887.422 1.056 1.817.422 3.57-1.014 2.85-7.563 17.403-7.859 18.036-.084.212-.317.36-.57.36z" fill="#1E1E1E"/><path d="M250.03 88.228s.549-12.99.549-15.503c0-4.14-2.493-5.322-3.127.275-.422 3.738-.908 10.603-.908 10.603" fill="#fff"/><path d="M250.03 88.862h-.022a.65.65 0 01-.612-.655c0-.127.549-12.99.549-15.46 0-2.05-.634-2.852-.803-2.894-.148.021-.781.676-1.077 3.232-.423 3.674-.888 10.518-.888 10.58a.623.623 0 01-.676.592.624.624 0 01-.591-.676c0-.063.486-6.927.908-10.644.444-3.887 1.69-4.393 2.409-4.351 1.183.063 1.986 1.732 1.986 4.16 0 2.493-.529 14.996-.55 15.524a.627.627 0 01-.633.592z" fill="#1E1E1E"/><path d="M241.431 101.872c.275-3.232-.148-4.52-.148-4.52-7.436.781-13.394-6.315-13.394-6.315s-.718.802-2.704 3.38c-1.986 2.576-5.788-.339-8.049 3.357-1.817 2.999-8.239 18.671-10.648 24.563-7.288-21.648-16.668-32.652-31.964-35.44-1.986-12.08-10.605-27.393-44.872-24.732-21.295 3.844-27.781 14.763-26.323 26.274h-.106s-13.796-.19-21.507 22.747c-2.26-5.323-4.563-10.539-5.556-12.166-2.24-3.696-9.908-2.027-11.915-4.604-2.007-2.577-2.704-3.38-2.704-3.38s-5.958 7.118-13.394 6.316c0 0-.423 1.288-.148 4.52.274 3.231-3.655 3.59-2.768 7.835.866 4.224 14.725 42.136 14.725 42.136 1.31 3.527 3.021 14.552 10.183 14.932.043.106.127.169.254.19 11.345-.042 150.039.085 150.039.085s.021-.148.021-.423c6.19-1.457 7.774-11.447 9.021-14.784 0 0 13.837-37.912 14.725-42.136.866-4.245-3.042-4.604-2.768-7.835z" fill="#8A2C5B"/><path d="M241.494 101.344c.529-3.38-.126-4.647-.126-4.647-6.782 1.479-13.056-6.251-13.056-6.251s-.845.739-2.874 3.59c-.823 1.14-1.647 1.267-2.492 1.5 2.809 9.166 16.034 10.433 20.64 10.56-.359-1.985-2.493-2.176-2.092-4.752zm-193.559.042c-.528-3.38.148-4.668.148-4.668 6.782 1.479 13.078-6.251 13.078-6.251s1.014.105 3.063 2.956c.824 1.14 2.218 2.112 3.063 2.345-2.81 9.166-16.922 10.412-21.528 10.518.317-1.985 2.578-2.345 2.176-4.9zm55.33-13.666c-4.12.846-8.408 3.021-12.19 7.203 3.528 5.09 15.824 22.43 38.493 26.105-.022-.148-.043-.317-.106-.465-12.57-5.153-24.866-19.494-26.197-32.842zm71.259-.907c.782 4.688.571 8.913.465 11.405-.359 8.216-4.035 13.961-6.359 18.058l-.169 4.203c9.591-2.26 17.112-20.001 18.401-28.724-3.401-1.88-4.014-3.253-12.338-4.942z" fill="#1E1E1E"/><path d="M137.997 142.402a.847.847 0 01-.845-.761c-.93-9.631-9.845-25.133-9.93-25.281a.843.843 0 01.317-1.162.842.842 0 011.162.317c.381.655 9.211 15.989 10.162 25.979a.852.852 0 01-.761.929c-.042-.021-.084-.021-.105-.021zm25.985-1.162a.847.847 0 01-.845-.76c-1.056-9.948 3.063-25.091 3.253-25.746a.849.849 0 011.036-.591c.443.126.718.591.591 1.034-.042.148-4.204 15.482-3.19 25.113a.852.852 0 01-.76.929c-.022.021-.064.021-.085.021zm-72.632-7.138a.622.622 0 01-.57-.36c-3.043-6.462-10.12-21.5-10.225-21.796a.63.63 0 01.4-.803.623.623 0 01.782.381c.254.612 7.416 15.84 10.183 21.669a.633.633 0 01-.57.909zm108.758 1.393a.602.602 0 01-.317-.084.647.647 0 01-.232-.866l6.929-12.039a.648.648 0 01.867-.232c.295.169.401.57.232.866l-6.93 12.039a.635.635 0 01-.549.316zm-98.596 32.273h-.338a.65.65 0 01-.613-.655.65.65 0 01.655-.613c8.26.38 9.169-16.03 9.169-16.199a.618.618 0 01.655-.592.618.618 0 01.591.655c-.021.697-.929 17.404-10.119 17.404z" fill="#1E1E1E"/><path d="M162.123 167.092c-1.88-14.51-3.866-35.99-.803-45.071 4.838-14.299 2.958-32.272-.317-34.87-3.274-2.598-39.337-2.091-39.337-2.091l-6.486 2.239s24.676 22.936 32.007 64.755c1.141 6.569 1.922 11.722 2.429 15.756" fill="#fff"/><path d="M127.286 72.873l-.528 9.145-5.387 3.718s14.112 9.778 26.724 24.352c0 0 7.754-5.471 9.549-22.81l-4.056-.634-19.436-11.51-6.866-2.26z" fill="#fff"/><path d="M148.117 110.742a.723.723 0 01-.486-.211c-12.423-14.362-26.472-24.162-26.62-24.246a.66.66 0 01-.274-.528.66.66 0 01.274-.528l5.134-3.527.507-8.85c.021-.19.106-.38.275-.486a.636.636 0 01.549-.084l6.887 2.26.127.063 19.331 11.448 3.929.612a.619.619 0 01.528.697c-1.817 17.424-9.485 23.021-9.823 23.254a.484.484 0 01-.338.126zM122.49 85.757c3.042 2.196 14.915 11.13 25.69 23.465 1.605-1.458 7.183-7.414 8.788-21.395l-3.464-.55a1.035 1.035 0 01-.233-.084l-19.372-11.468-6.021-1.986-.465 8.322c-.021.19-.106.38-.275.486l-4.648 3.21z" fill="#1E1E1E"/><path d="M121.18 56.188s-8.323 1.14-5.957 8.554c2.366 7.413 11.091 1.943 11.091 1.943l-2.472-10.645-2.662.148z" fill="#fff"/><path d="M120.187 69.261a6.202 6.202 0 01-2.133-.358c-1.648-.592-2.81-1.944-3.444-3.971-.718-2.281-.57-4.245.444-5.85 1.838-2.915 5.873-3.507 6.042-3.528h.063l2.641-.148c.317-.02.57.19.655.486l2.472 10.645a.626.626 0 01-.275.676c-.169.106-3.317 2.049-6.465 2.049zm1.057-12.46c-.317.042-3.676.633-5.134 2.956-.803 1.268-.908 2.873-.296 4.774.528 1.647 1.416 2.703 2.683 3.168 2.557.929 5.937-.718 7.078-1.352l-2.24-9.673-2.091.126z" fill="#1E1E1E"/><path d="M140.997 26.556c2.176-.444 17.133-3.19 20.239 9.399 3.105 12.587 2.936 26.886 2.281 33.497-.655 6.61-29.851 7.033-31.541 6.653-1.69-.38-3.866-2.091-3.866-2.091l-6.19-19.157s-4.331-23.507 19.077-28.301z" fill="#fff"/><path d="M134.574 76.823c-1.436 0-2.429-.042-2.746-.106-1.817-.401-4.035-2.133-4.12-2.217a.703.703 0 01-.211-.296l-6.19-19.135c0-.021-.021-.064-.021-.085-.042-.253-1.078-6.104.782-12.651 1.732-6.083 6.401-13.855 18.802-16.39 2.958-.59 17.831-2.956 21 9.864 3.19 12.883 2.936 27.245 2.302 33.708-.105.993-.718 1.901-1.817 2.704-3.38 2.428-11.154 3.569-17.07 4.097-4.119.38-8.133.507-10.711.507zm-5.915-3.21c.507.38 2.176 1.562 3.465 1.858 1.394.317 23.598-.042 29.492-4.287.803-.57 1.225-1.183 1.289-1.796.633-6.378.866-20.571-2.261-33.286-1.246-5.026-4.605-8.089-9.971-9.102-4.036-.76-8.007-.127-9.528.19-9.465 1.943-15.465 7.138-17.831 15.502-1.711 5.998-.845 11.51-.761 12.039l6.106 18.881z" fill="#1E1E1E"/><path d="M124.624 54.35c1.563 1.247 6.232 8.913 7.563 12.588 0 0 8.894-4.266 22.119-6.04 0 0 7.247-.697 10.225-.169 0 0 .909 13.475-4.162 21.1-5.07 7.624-17.682 7.16-23.957 3.674-6.274-3.484-7.478-5.364-9.338-9.673-1.859-4.308-7.288-20.508-7.288-20.508l4.838-.971z" fill="#A7A9AC"/><path d="M121.18 57.666s-4.605-5.702-6.845-11.954c-2.112-5.871-.063-12.503 5.134-15.84 4.331-2.788 7.944-1.415 7.944-1.415s-5.831-7.878.654-16.178a13.443 13.443 0 019.338-5.112c8.958-.76 12.592 6.59 12.592 6.59S157.56-5.21 178.348 3.09c2.092.845 4.648 3.548 5.958 5.428 7.838 11.384-11.894 28.217-22.88 30.646-12.063 2.661-19.436 1.436-23.704-1.14 3.127 1.457 1.923 20.38-16.542 19.642zm30.908 7.984a.857.857 0 01-.824-.655.85.85 0 01.634-1.014l2.577-.591-2.471-10.687a.833.833 0 01.633-1.014.833.833 0 011.014.634l2.662 11.51a.84.84 0 01-.105.634.957.957 0 01-.528.38l-3.402.782c-.084.02-.148.02-.19.02zm5.275-8.499c.65-.072 1.084-.958.97-1.978-.114-1.02-.733-1.789-1.383-1.716-.649.072-1.083.958-.969 1.978.114 1.02.733 1.789 1.382 1.716zm-11.261.739c.649-.073 1.083-.959.969-1.979-.114-1.02-.733-1.788-1.382-1.715-.649.072-1.083.958-.969 1.978.114 1.02.733 1.788 1.382 1.716z" fill="#1E1E1E"/><path d="M141.715 53.886a.838.838 0 01-.845-.803.835.835 0 01.803-.887c.063 0 4.014-.295 3.972-2.64 0-.464.359-.845.824-.866.464 0 .845.36.866.824.063 3.19-3.613 4.245-5.556 4.372h-.064zm18.169-6.738a.853.853 0 01-.782-.507c-.761-1.795-2.958-1.013-3.211-.908a.843.843 0 01-1.099-.485.842.842 0 01.486-1.099c1.352-.528 4.225-.845 5.387 1.817.19.422-.021.929-.443 1.119a1.053 1.053 0 01-.338.063zm-10.775 27.267c-2.894 0-4.098-1.584-4.584-2.598-.212-.422-.169-.887.105-1.288.381-.57 1.183-.908 2.05-.887a20.782 20.782 0 004.985-.338c.782-.148 1.606.02 2.155.464.359.296.55.676.55 1.078 0 1.119-.529 3.062-4.226 3.506a8.781 8.781 0 01-1.035.063zm-3.422-3.147c.697 1.478 2.155 2.09 4.331 1.838 2.07-.254 3.105-.993 3.105-2.24 0 0-.021-.042-.084-.105-.212-.169-.655-.296-1.099-.19a23.242 23.242 0 01-5.282.359c-.612-.021-.971.232-.971.338zm108.421 80.187h-64.921v15.334h64.921v-15.334z" fill="#1E1E1E"/><path d="M252.359 155.466l-28.521.134.039 8.237 28.52-.134-.038-8.237z" fill="#fff"/><path d="M222.634 155.611l-2.662.013.039 8.237 2.662-.013-.039-8.237z" fill="#8A2C5B"/><path d="M202.919 163.578a3.534 3.534 0 01-3.528-3.527 3.534 3.534 0 013.528-3.527 3.534 3.534 0 013.528 3.527 3.534 3.534 0 01-3.528 3.527zm0-5.787a2.263 2.263 0 00-2.26 2.26 2.263 2.263 0 002.26 2.26 2.263 2.263 0 002.261-2.26 2.263 2.263 0 00-2.261-2.26z" fill="#fff"/><path d="M245.615 163.431a.622.622 0 01-.633-.634l-.022-6.125c0-.359.275-.634.634-.634s.634.275.634.634l.021 6.125a.635.635 0 01-.634.634zm-3.148.021a.622.622 0 01-.633-.634l-.022-6.125c0-.359.275-.634.634-.634s.634.275.634.634l.021 6.125a.635.635 0 01-.634.634zm-3.147 0a.623.623 0 01-.634-.634l-.021-6.125c0-.359.274-.634.634-.634.359 0 .633.275.633.634l.022 6.125a.623.623 0 01-.634.634z" fill="#8A2C5B"/><path d="M260.932 137.072h-61.266v16.115h61.266v-16.115z" fill="#1E1E1E"/><path d="M255.714 140.219h-28.521v8.237h28.521v-8.237z" fill="#fff"/><path d="M225.989 140.219h-2.662v8.237h2.662v-8.237z" fill="#8A2C5B"/><path d="M210.187 147.696a3.535 3.535 0 01-3.529-3.528 3.534 3.534 0 013.529-3.527 3.534 3.534 0 013.528 3.527 3.534 3.534 0 01-3.528 3.528zm0-5.766a2.262 2.262 0 00-2.261 2.26 2.262 2.262 0 002.261 2.259 2.262 2.262 0 002.26-2.259 2.262 2.262 0 00-2.26-2.26z" fill="#fff"/><path d="M235.855 148.055a.623.623 0 01-.634-.634v-6.125c0-.359.275-.633.634-.633s.634.274.634.633v6.125a.65.65 0 01-.634.634zm16.204 0a.623.623 0 01-.634-.634v-6.125c0-.359.275-.633.634-.633s.634.274.634.633v6.125a.636.636 0 01-.634.634zm-19.352 0a.623.623 0 01-.634-.634v-6.125c0-.359.275-.633.634-.633s.634.274.634.633v6.125a.636.636 0 01-.634.634zm-3.126 0a.622.622 0 01-.634-.634v-6.125c0-.359.274-.633.634-.633.359 0 .633.274.633.633v6.125a.65.65 0 01-.633.634z" fill="#8A2C5B"/><path d="M274.895 168H.845a.847.847 0 01-.845-.845c0-.464.38-.844.845-.844h274.05c.464 0 .845.38.845.844a.848.848 0 01-.845.845z" fill="#1E1E1E"/></svg>