<svg width="305" height="165" fill="none" xmlns="http://www.w3.org/2000/svg"><g clip-path="url(#clip0)"><path d="M116.402 155.13h-6.325L87.396 95.416c-1.251-3.282-5.098-3.235-6.278.094l-21.241 59.62h-6.184c-1.298 0-2.337 1.275-2.337 2.857v3.778c0 1.582 1.039 2.857 2.337 2.857h62.709c1.298 0 2.336-1.275 2.336-2.857v-3.778c0-1.582-1.062-2.857-2.336-2.857z" fill="#8A2C5B"/><path d="M109.015 155.839H60.797a.696.696 0 01-.708-.709c0-.401.307-.708.708-.708h48.218c.401 0 .708.307.708.708a.696.696 0 01-.708.709z" fill="#1E1E1E"/><path d="M106.843 146.37H62.992l3.54-9.987h36.511l3.8 9.987zm-36.157-21.581h27.873l-3.776-9.988H74.25l-3.564 9.988z" fill="#fff"/><path d="M57.635 159.333h-3.517l-12.603-33.175c-.685-1.841-2.832-1.794-3.493.048l-11.8 33.127h-3.423c-.708 0-1.298.709-1.298 1.582v2.102c0 .873.59 1.582 1.298 1.582h34.835c.709 0 1.299-.709 1.299-1.582v-2.078c-.024-.897-.59-1.606-1.298-1.606z" fill="#8A2C5B"/><path d="M53.528 160.041H26.74a.695.695 0 01-.708-.708c0-.401.307-.708.708-.708h26.788c.401 0 .708.307.708.708a.71.71 0 01-.708.708z" fill="#1E1E1E"/><path d="M52.3 154.469H27.969l1.959-5.549H50.2l2.1 5.549zm-20.06-11.971h15.482l-2.1-5.549h-11.4l-1.983 5.549z" fill="#fff"/><path d="M161.197 69.419h2.384c1.156 0 2.1.944 2.1 2.101v92.205h-6.584V71.52c0-1.157.944-2.101 2.1-2.101zm119.73 0h2.383c1.157 0 2.101.944 2.101 2.101v92.205h-6.585V71.52c0-1.157.944-2.101 2.101-2.101z" fill="#1E1E1E"/><path d="M289.541 79.43H147.556v16.08h141.985V79.43z" fill="#8A2C5B"/><path d="M169.859 79.43h-11.706l-10.597 15.608v.472h11.375l10.928-16.08zm13.24 16.08l10.928-16.08H182.32l-10.927 16.08h11.706zm24.168 0l10.927-16.08h-11.706l-10.927 16.08h11.706zm24.168 0l10.927-16.08h-11.706l-10.928 16.08h11.707zm24.168 0l10.927-16.08h-11.706l-10.928 16.08h11.707zm24.167 0l9.771-14.38v-1.7h-10.55l-10.927 16.08h11.706z" fill="#fff"/><path d="M289.541 107.906H147.556v16.08h141.985v-16.08z" fill="#8A2C5B"/><path d="M169.859 107.906h-11.706l-10.597 15.584v.496h11.375l10.928-16.08zm13.24 16.08l10.928-16.08H182.32l-10.927 16.08h11.706zm24.168 0l10.927-16.08h-11.706l-10.927 16.08h11.706zm24.168 0l10.927-16.08h-11.706l-10.928 16.08h11.707zm24.168 0l10.927-16.08h-11.706l-10.928 16.08h11.707zm24.167 0l9.771-14.38v-1.7h-10.55l-10.927 16.08h11.706z" fill="#fff"/><path d="M188.362 62.713H140.57v101.13h47.792V62.713z" fill="#fff"/><path d="M157.468 163.843h-49.209l3.776-19.126h45.433v19.126z" fill="#fff"/><path d="M304.292 164.551H.708a.695.695 0 01-.708-.708c0-.401.307-.708.708-.708h303.584c.401 0 .708.307.708.708a.71.71 0 01-.708.708z" fill="#1E1E1E"/><path d="M217.628 98.178a21.064 21.064 0 00-11.47-19.48l-17.985-9.87-1.369 6.163c-1.628 6.753-8.402 10.91-15.152 9.28-6.561-1.582-10.715-8.075-9.369-14.71l1.793-8.123a12.169 12.169 0 01-4.909-6.493 17.288 17.288 0 01-.401-1.582 26.452 26.452 0 00-16.497.401l-26.741 9.516-34.245-36.41-23.295 24.44 43.498 50.01a10.22 10.22 0 0011.328 2.857l7.411-3.33-13.051 63.068 11.942.236c-3.139-.567-1.581-3.117.495-3.849 1.322-.472 3.234-1.298 4.815-1.936a36.117 36.117 0 00-6.537 2.763c-2.054.826-4.414-.567-4.603-1.275-.141-.425.614-1.346 2.054-2.385l-.543.26c-3.989.968-5.877.732-4.815-1.417.755-1.535 10.833-6.753 12.816-7.343 1.982-.591 19.235-3.07 19.235-3.07l4.413 18.346 60.892.378c6.254 0 11.328-4.226 11.21-10.483l-.92-55.96zm-30.753 39.314l-41.727 9.28a2.112 2.112 0 01-.377.047 1.732 1.732 0 01-1.723-1.724c0-.803.566-1.511 1.368-1.7l40.264-8.949-1.487-20.849a1.758 1.758 0 011.605-1.865 1.758 1.758 0 011.865 1.605l1.605 22.337a1.808 1.808 0 01-1.393 1.818zM61.08 40.92s-.023 0 0 0c-.425-.024-10.007-.33-16.474-4.132-7.906-4.605-9.157-6.14-9.322-7.108-.165-.85.236-1.322.472-1.51 1.062-.898 3.398-.284 6.561.896.189.071.354.142.449.166.4.142.59.543.472.944a.758.758 0 01-.944.473c-.118-.048-.284-.095-.496-.19-3.918-1.463-4.838-1.298-5.05-1.156v.118c.07.283.92 1.605 8.614 6.068 6.136 3.613 15.647 3.943 15.742 3.943a.778.778 0 01.731.78.752.752 0 01-.755.708z" fill="#1E1E1E"/><path d="M66.532 45.477a.783.783 0 01-.614-.307l-2.667-3.707c-4.696-.78-8.78-2.055-11.8-3.684-1.912-1.039-5.617-3.92-8.213-6.068-5.783-4.793-5.924-5.62-5.971-5.903-.213-1.18.283-2.172 1.297-2.62 1.912-.85 5.547.353 8.332 3.895.26.33.189.803-.118 1.039a.742.742 0 01-1.039-.118c-2.43-3.07-5.357-3.967-6.537-3.447-.26.118-.52.33-.449.944.732 1.322 10.172 9.209 13.43 10.956 2.053 1.11 5.735 2.62 11.635 3.589a.748.748 0 01.496.307l2.832 3.967a.75.75 0 01-.165 1.039.754.754 0 01-.449.118z" fill="#1E1E1E"/><path d="M76.209 35.56a.733.733 0 01-.52-.213 359.441 359.441 0 01-3.563-3.613c-.425-.425-.732-.755-.944-.968-2.644-2.762-11.211-3.872-11.305-3.895a.341.341 0 01-.166-.048c-2.124-.826-7.6-3.754-7.835-3.896-2.1-1.062-2.785-.92-2.903-.897-.047.26.283 1.228 1.25 2.125 1.322 1.228 3.446 2.763 4.863 3.684.896.495 1.51.802 1.51.826a.74.74 0 01.378.897.754.754 0 01-.826.52c-.33-.047-1.039-.425-1.865-.945-1.983-1.11-5.24-3.14-6.68-5.17-1.085-1.04-2.926-1.252-3.657-1.134.212.52 1.015 1.747 3.28 4.51 2.148 2.597 7.222 5.242 7.27 5.265a.76.76 0 01.306 1.016c-.188.377-.637.495-1.015.306-.212-.118-5.38-2.81-7.717-5.643-3.399-4.108-4.154-5.478-3.47-6.375.26-.354.756-.543 1.464-.59.967-.071 2.265.141 3.375.732 0-.33.094-.614.26-.874 1.038-1.488 3.87-.047 4.814.425.07.047 5.499 2.951 7.6 3.778 1.014.142 9.204 1.322 12.083 4.32.19.19.52.52.945.969.802.826 2.03 2.078 3.54 3.613.283.283.283.755 0 1.062-.095.142-.284.213-.472.213zM120.579 165c-2.903 0-3.752-1.015-3.941-1.889a2.026 2.026 0 01.047-.992 5.647 5.647 0 01-2.478-.543c-.331-.165-1.393-.732-1.629-1.511-.118-.378 0-.779.236-1.181-1.911.284-2.997.095-3.54-.59-.448-.567-.448-1.346.024-2.314.944-1.96 11.73-7.272 13.264-7.721 2.006-.59 18.621-2.999 19.329-3.093a.75.75 0 01.826.567l4.414 18.346a.786.786 0 01-.142.638.719.719 0 01-.59.283h-25.82zm4.107-5.927c-.567.236-1.157.473-1.676.685-1.109.449-2.266.921-3.139 1.252-1.156.425-1.864 1.369-1.77 1.818.071.307.826.85 3.304.684h24.074l-4.036-16.764c-6.113.874-16.993 2.526-18.457 2.951-2.147.638-11.706 5.738-12.367 6.942-.259.543-.212.732-.212.732.024.024.472.543 4.177-.354.048 0 .095-.024.142-.024 1.298-.944 2.738-1.676 3.045-1.841a68.79 68.79 0 017.363-3.046c.378-.142.803.071.944.448.142.378-.071.803-.448.945a65.646 65.646 0 00-7.175 2.975c-2.714 1.346-4.154 2.692-4.413 3.211.377.425 2.006 1.322 3.516.756 1.699-1.039 4.508-2.102 6.632-2.81 2.077-.826 2.832-1.039 3.304-.921.331.095.567.378.567.708a.758.758 0 01-.543.732c0 .024-1.227.378-2.832.921zm49.893-73.48c-.968 0-1.935-.094-2.903-.33h-.024c-3.469-.756-6.419-2.834-8.331-5.833a13.18 13.18 0 01-1.77-10.035l1.676-7.508a.752.752 0 01.897-.567c.401.094.66.496.566.897l-1.676 7.509a11.764 11.764 0 001.582 8.925 11.72 11.72 0 007.41 5.195c3.092.685 6.255.118 8.922-1.559a11.723 11.723 0 005.192-7.414v-.023l5.452-21.015a.749.749 0 01.897-.543c.401.094.637.52.543.92l-5.452 20.992c-.779 3.47-2.832 6.422-5.83 8.335-2.171 1.322-4.649 2.054-7.151 2.054z" fill="#1E1E1E"/><path d="M175.145 65.5c-6.443 0-14.444-3.094-16.662-10.295-2.313-7.533.59-18.181 1.18-20.236l.024-.047v-.024c1.345-4.51 4.271-13.293 8.968-21.227 6.278-10.601 19.07-4.486 21.572-3.164 10.502 5.573 12.65 13.719 12.603 19.575-.047 6.115-2.384 10.908-2.62 11.38v.024c0 .024-.024.047-.024.071-.306.567-7.34 13.931-10.148 17.26-2.88 3.424-4.602 4.864-11.234 6.305-1.133.26-2.361.377-3.659.377zm-14.042-30.177c0 .024-.024.048-.024.071-.59 1.984-3.375 12.255-1.204 19.386 2.313 7.532 12.367 10.27 18.575 8.901 6.23-1.37 7.646-2.526 10.408-5.808 2.62-3.117 9.535-16.198 9.96-16.977v-.024c0-.023.023-.047.023-.07.047-.072 2.455-4.865 2.478-10.815.047-7.886-3.918-14.025-11.8-18.181-2.29-1.228-14.02-6.824-19.589 2.597-4.603 7.816-7.506 16.458-8.827 20.92z" fill="#1E1E1E"/><path d="M160.395 35.064c1.864-6.305 4.814-14.215 8.874-21.062.189-.307.377-.614.566-.897-3.304-2.574-8.638 2.739-12.343 13.694-1.912 5.667-7.152 8.5-7.152 8.5 3.989 3.495 7.6 1.984 9.96 0 .071-.14.095-.235.095-.235zm8.567 9.066c-.095 0-.165-.023-.26-.046l-3.493-1.276a.785.785 0 01-.425-.4c-.07-.19-.094-.402-.023-.591l4.248-10.65c.142-.377.59-.566.968-.424.377.142.566.59.425.968l-3.966 9.94 2.785 1.016c.378.142.59.566.449.968a.76.76 0 01-.708.496zm-2.105-13.426c.375-.875.223-1.78-.34-2.022-.563-.242-1.324.272-1.699 1.146-.375.875-.223 1.78.34 2.022.563.242 1.324-.271 1.699-1.146zm9.746 4.185c.205-.93-.113-1.79-.712-1.923-.598-.132-1.249.514-1.454 1.444-.206.93.113 1.79.711 1.923.599.132 1.25-.515 1.455-1.444zm7.369-2.706a.76.76 0 01-.708-.52 4.346 4.346 0 00-3.304-2.927c-.401-.071-.661-.472-.59-.874.071-.401.472-.661.873-.59a5.857 5.857 0 014.437 3.92.769.769 0 01-.708.991z" fill="#1E1E1E"/><path d="M170.85 24.344a.763.763 0 01-.496-.189c-.023-.024-2.667-2.385-4.46-1.11a.75.75 0 01-1.039-.165.75.75 0 01.165-1.039c2.762-2.007 6.184 1.086 6.326 1.204a.75.75 0 01.047 1.063.685.685 0 01-.543.236z" fill="#1E1E1E"/><path d="M220.531 35.37l-10.621-5.383c1.322-7.933.519-20.188-14.349-27.106C172.337-7.91 163.84 15.348 163.84 15.348l53.198 26.846a3.829 3.829 0 005.216-1.487 3.832 3.832 0 00-1.487-5.218c-.071-.071-.165-.118-.236-.118z" fill="#8A2C5B"/><path d="M167.215 51.19c-2.383-4.816 8.686-1.558 8.686-1.558s-3.139 11.122-8.686 1.559zm41.444-13.222l-22.444-11.334c-2.597 8.123-5.877 24.439 8.024 28.712 0 0 10.88 3.613 13.996.024 0 0-7.458-5.478-5.759-9.94 0 0 7.647 11.31 16.592 5.288-.024.024-10.597-3.376-10.409-12.75z" fill="#1E1E1E"/><path d="M197.567 154.54l2.62.236c.047-.212.118-.401.165-.614l.094-16.481c0-1.157.944-2.078 2.101-2.078l11.139.071a33.527 33.527 0 0119.401-6.045c18.55.095 33.75 15.419 33.702 34.002l-69.6-.048a3.898 3.898 0 01-3.894-3.896v-1.298c0-2.149 1.77-3.873 3.918-3.873.118 0 .236 0 .354.024z" fill="#A7A9AC"/><path d="M252.109 161.883c-9.346 0-35.472-.566-51.191-6.493a.576.576 0 01-.354-.472c-.023-.236-.472-5.809 6.656-13.601a.535.535 0 01.779-.023.535.535 0 01.023.779c-5.806 6.328-6.349 11.121-6.372 12.396 17.913 6.612 49.138 6.328 53.386 6.257.094-.85.307-2.526.448-3.046 1.771-6.871 7.907-6.068 7.978-6.068a.56.56 0 11-.165 1.11c-.213-.024-5.24-.638-6.727 5.242-.118.496-.377 2.597-.472 3.376-.023.284-.259.472-.543.496-.047 0-1.321.047-3.446.047z" fill="#1E1E1E"/></g><defs><clipPath id="clip0"><path fill="#fff" d="M0 0h305v165H0z"/></clipPath></defs></svg>