<svg width="261" height="174" fill="none" xmlns="http://www.w3.org/2000/svg"><g clip-path="url(#clip0)"><path d="M35.837 151.019a.62.62 0 01-.616-.534l-5.008-40.001c-.985-7.811 1.17-15.149 6.035-20.678 4.844-5.509 11.822-8.53 19.642-8.53h26.458c.349 0 .615.267.615.616 0 .35-.266.617-.615.617H55.89c-7.45 0-14.1 2.877-18.719 8.119-4.638 5.262-6.67 12.251-5.726 19.712l5.008 40.001a.618.618 0 01-.534.678h-.082z" fill="#1E1E1E"/><path d="M60.098 173.486s-.02 0 0 0c-6.609-.062-8.703-6.002-10.714-11.716-.123-.37-.246-.72-.39-1.09-2.299-6.475-2.853-15.19-1.519-24.543 1.355-9.537 4.577-19.157 9.093-27.092 4.864-8.55 13.485-19.26 27.073-22.26-1.745-3.845-1.91-7.195-.452-9.99 2.176-4.215 8.026-7.051 17.344-8.428a.591.591 0 01.636.329c.247.472.472.925.719 1.356a.348.348 0 01.061.206l.862 6.228a.702.702 0 01-.102.452l-3.284 4.625a.603.603 0 01-.862.144.605.605 0 01-.144-.863l3.14-4.44-.821-5.858c-.143-.288-.308-.576-.472-.884-8.661 1.356-14.039 3.946-15.989 7.708-1.355 2.59-1.088 5.817.8 9.6a.656.656 0 010 .554.641.641 0 01-.43.329c-13.588 2.652-22.188 13.34-27.012 21.83-9.093 15.992-12.233 37.287-7.492 50.607.124.37.267.719.39 1.089 2.053 5.817 3.839 10.833 9.565 10.894.35 0 .616.288.616.617 0 .308-.287.596-.616.596z" fill="#1E1E1E"/><path d="M108.271 97.802v-.124c.965.103 1.909.103 2.833-.698 2.257-1.953 3.058-2.55 3.058-2.55s.205.247.575.658c.451-.822.903-1.664 1.375-2.548-9.75-7.565-17.2-11.388-17.2-11.388l-.555-.39-3.571 4.378c0 .02 5.829 4.05 13.485 12.662zm47.106 70.977s-15.599-42.015-13.609-55.026c1.088-7.092-.615-15.15-2.955-21.378l-4.475.288-5.357 12.662c.349.082.698.164 1.047.205 0 0-.205 1.337-.718 4.379-.349 2.035.246 2.261.697 3.679.596.946 1.047 2.015.555 3.68-.165.534-.555 5.632-1.437 12.538a151.835 151.835 0 014.68 11.1c9.462 25.262 8.477 28.017 8.477 28.017l13.095-.144z" fill="#8A2C5B"/><path d="M208.209 173.157a.637.637 0 01-.616-.514c-1.149-7.543-9.154-46.927-54.7-81.563a.592.592 0 01-.226-.39c-1.17-7.133-4.125-15.848-16.564-20.124a.614.614 0 01-.39-.781.612.612 0 01.78-.39c5.994 2.055 10.509 5.406 13.424 9.928 2.463 3.823 3.387 7.81 3.92 10.914 45.751 34.883 53.818 74.595 54.988 82.201.041.329-.185.658-.513.699-.041 0-.083.02-.103.02zm-60.283-37.739a.813.813 0 01-.78-.576c-2.935-9.661-2.504-22.775-2.484-23.33a.82.82 0 01.842-.781c.452.021.8.391.8.843 0 .123-.451 13.402 2.402 22.795a.828.828 0 01-.554 1.028c-.062 0-.144.021-.226.021z" fill="#1E1E1E"/><path d="M152.667 90.422c.144.884.267 1.686.37 2.385 1.252 8.181-1.437 13.628-3.223 17.389 4.783-3.391 8.026-9.845 9.647-14.758-1.97-1.583-4.659-3.433-6.794-5.016zm-67.672-3.576c-3.345.678-8.846 2.364-12.828 5.097 2.77 1.522 16.502 9.744 27.71 14.677.081-.062.697-1.089 1.005-1.48-6.178-4.913-12.726-11.943-15.887-18.294zm8.703-20.556a5.467 5.467 0 01-1.54-.226c-1.374-.431-2.442-1.48-3.222-3.103-.944-1.994-1.047-3.803-.308-5.406 1.355-2.94 5.09-3.988 5.234-4.03a.63.63 0 01.76.433.631.631 0 01-.431.76c-.041 0-3.346.945-4.454 3.371-.575 1.254-.472 2.713.308 4.358.615 1.315 1.457 2.138 2.483 2.466 1.355.432 3.14.02 5.296-1.192a.628.628 0 01.841.226.63.63 0 01-.225.843c-1.807 1.007-3.367 1.5-4.742 1.5zm42.18-9.99a.62.62 0 01-.616-.534c-.595-4.686-2.073-13.833-5.419-22.343-1.744-4.46-5.234-6.845-10.365-7.133-3.838-.205-7.471.864-8.846 1.316-8.559 2.919-13.526 8.427-14.738 16.362-.738 4.83.185 9.106.575 10.586l1.786-.596a.612.612 0 01.78.39.613.613 0 01-.39.781l-2.402.802a.61.61 0 01-.759-.329l-.02-.041c0-.02-.021-.041-.021-.062-.062-.226-1.745-5.468-.78-11.716.883-5.797 4.31-13.505 15.558-17.349 2.689-.904 16.277-4.85 20.751 6.516 3.407 8.633 4.906 17.904 5.501 22.652a.618.618 0 01-.534.678c-.02.02-.041.02-.061.02z" fill="#1E1E1E"/><path d="M136.453 69.559h-.083a.618.618 0 01-.533-.678c.78-6.373-.513-12.991-.534-13.053a.61.61 0 01.493-.72.61.61 0 01.718.473c.062.267 1.355 6.866.554 13.443a.638.638 0 01-.615.535zM119.95 83.536c-2.586 0-5.131-.431-7.122-1.233-6.281-2.487-7.759-4.173-10.037-8.016-2.217-3.7-8.928-17.431-9.216-18.007a.641.641 0 01-.02-.514.621.621 0 01.37-.35l4.35-1.459a.612.612 0 01.78.391.613.613 0 01-.39.781l-3.674 1.233c1.376 2.796 6.938 14.06 8.867 17.287 2.217 3.72 3.449 5.14 9.442 7.503 1.847.74 4.228 1.13 6.671 1.13.349 0 .615.268.615.617 0 .35-.307.637-.636.637z" fill="#1E1E1E"/><path d="M94.642 57.863s-3.92-4.563-6.752-10.01c-2.669-5.119-1.56-11.47 2.853-15.17 3.694-3.104 7.225-2.282 7.225-2.282s-6.384-6.495-1.355-14.923A12.628 12.628 0 01104.7 9.64c8.251-1.808 12.52 4.481 12.52 4.481S121.962-4.214 142.323.822c2.052.514 4.762 2.693 6.198 4.255 8.683 9.517-7.635 27.4-17.569 30.977-10.899 3.926-17.919 3.72-22.209 1.87 3.079.946 3.182 18.356-14.1 19.939zm35.324 5.407l-3.961-.022a.824.824 0 01-.821-.822c0-.452.37-.822.821-.822l2.771.02-3.428-9.126a.837.837 0 01.472-1.069.836.836 0 011.068.473l3.838 10.257a.784.784 0 01-.103.76.764.764 0 01-.657.35zm-5.952 8.077c1.077 0 1.95-.874 1.95-1.953a1.951 1.951 0 00-1.95-1.952c-1.077 0-1.95.874-1.95 1.953 0 1.078.873 1.952 1.95 1.952zm6.657-18.285c.594-.15.888-1.02.657-1.945-.231-.925-.9-1.554-1.494-1.406-.594.15-.888 1.02-.657 1.945.231.925.9 1.554 1.494 1.406zM120.22 55.47c.594-.15.888-1.02.657-1.945-.231-.925-.899-1.555-1.493-1.406-.594.149-.888 1.02-.657 1.944.231.925.9 1.555 1.493 1.406z" fill="#1E1E1E"/><path d="M113.013 48.1a.932.932 0 01-.329-.063c-.41-.184-.595-.678-.41-1.089a5.98 5.98 0 014.905-3.515.81.81 0 01.883.74.81.81 0 01-.739.884 4.32 4.32 0 00-3.551 2.528.837.837 0 01-.759.514zm18.247-4.955a.8.8 0 01-.698-.39c-.944-1.562-2.976-.494-3.058-.432a.813.813 0 01-1.109-.329c-.226-.39-.061-.904.329-1.11 1.211-.657 3.858-1.295 5.254 1.028a.83.83 0 01-.287 1.13 1.105 1.105 0 01-.431.103zm117.281 72.56h-79.802a2.26 2.26 0 00-2.196 1.748l-11.105 47.03h-28.92s-1.601 8.284 7.738 8.284h101.888a2.26 2.26 0 002.196-1.748l12.397-52.539a2.26 2.26 0 00-2.196-2.775z" fill="#1E1E1E"/><path d="M216.255 42.406h.636c.575 0 1.026.452 1.026 1.027v1.624c0 .576-.451 1.028-1.026 1.028h-.636a1.017 1.017 0 01-1.026-1.028v-1.624c0-.575.451-1.027 1.026-1.027z" fill="#8A2C5B"/><path d="M196.797 42.406h16.379c.575 0 1.026.452 1.026 1.027v1.624c0 .576-.451 1.028-1.026 1.028h-16.379a1.017 1.017 0 01-1.026-1.028v-1.624c0-.575.451-1.027 1.026-1.027zm0 17.081h18.041c.575 0 1.027.452 1.027 1.028v1.623c0 .576-.452 1.028-1.027 1.028h-18.041a1.017 1.017 0 01-1.026-1.028v-1.623c0-.576.451-1.028 1.026-1.028z" fill="#1E1E1E"/><path d="M201.867 53.793h29.125c.575 0 1.026.452 1.026 1.028v1.624c0 .575-.451 1.028-1.026 1.028h-29.125a1.017 1.017 0 01-1.027-1.028V54.82a1.03 1.03 0 011.027-1.028zm32.922 0h14.778c.575 0 1.027.452 1.027 1.028v1.624c0 .575-.452 1.028-1.027 1.028h-14.778a1.017 1.017 0 01-1.026-1.028V54.82a1.03 1.03 0 011.026-1.028z" fill="#8A2C5B"/><path d="M254.658 48.1h.636c.575 0 1.026.452 1.026 1.027v1.624c0 .576-.451 1.028-1.026 1.028h-.636a1.017 1.017 0 01-1.027-1.028v-1.624a1.03 1.03 0 011.027-1.028zm-57.861 0h30.193c.574 0 1.026.452 1.026 1.027v1.624c0 .576-.452 1.028-1.026 1.028h-30.193a1.017 1.017 0 01-1.026-1.028v-1.624c0-.575.451-1.028 1.026-1.028zm23.316-5.694h16.38c.574 0 1.026.452 1.026 1.027v1.624c0 .576-.452 1.028-1.026 1.028h-16.38a1.017 1.017 0 01-1.026-1.028v-1.624a1.03 1.03 0 011.026-1.027z" fill="#1E1E1E"/><path d="M230.479 48.079h20.689c.575 0 1.027.452 1.027 1.027v1.645c0 .575-.452 1.028-1.027 1.028h-20.689a1.017 1.017 0 01-1.026-1.028v-1.645a1.03 1.03 0 011.026-1.027z" fill="#8A2C5B"/><path d="M196.797 79.261h16.379c.575 0 1.026.452 1.026 1.028v1.624c0 .575-.451 1.027-1.026 1.027h-16.379a1.017 1.017 0 01-1.026-1.027v-1.624a1.03 1.03 0 011.026-1.028zm0 17.081h18.041c.575 0 1.027.453 1.027 1.028v1.624c0 .576-.452 1.028-1.027 1.028h-18.041a1.017 1.017 0 01-1.026-1.028V97.37a1.03 1.03 0 011.026-1.028z" fill="#1E1E1E"/><path d="M201.867 90.67h29.125c.575 0 1.026.451 1.026 1.027v1.624c0 .575-.451 1.028-1.026 1.028h-29.125a1.017 1.017 0 01-1.027-1.028v-1.624a1.03 1.03 0 011.027-1.028zm32.922 0h14.778c.575 0 1.027.451 1.027 1.027v1.624c0 .575-.452 1.028-1.027 1.028h-14.778a1.017 1.017 0 01-1.026-1.028v-1.624a1.03 1.03 0 011.026-1.028z" fill="#8A2C5B"/><path d="M254.658 84.975h.636c.575 0 1.026.453 1.026 1.028v1.624c0 .576-.451 1.028-1.026 1.028h-.636a1.017 1.017 0 01-1.027-1.028v-1.624c0-.575.452-1.028 1.027-1.028zm4.679-5.714h.637c.574 0 1.026.452 1.026 1.028v1.624c0 .575-.452 1.027-1.026 1.027h-.637a1.017 1.017 0 01-1.026-1.027v-1.624c0-.555.472-1.028 1.026-1.028zm-62.54 5.714h30.193c.574 0 1.026.453 1.026 1.028v1.624c0 .576-.452 1.028-1.026 1.028h-30.193a1.017 1.017 0 01-1.026-1.028v-1.624c0-.575.451-1.028 1.026-1.028z" fill="#1E1E1E"/><path d="M216.255 79.261h20.238c.574 0 1.026.452 1.026 1.028v1.624c0 .575-.452 1.027-1.026 1.027h-20.238a1.017 1.017 0 01-1.026-1.027v-1.624a1.03 1.03 0 011.026-1.028zm23.707 0h16.379c.574 0 1.026.452 1.026 1.028v1.624c0 .575-.452 1.027-1.026 1.027h-16.379a1.017 1.017 0 01-1.027-1.027v-1.624c0-.555.472-1.028 1.027-1.028zm-23.707-5.509h.636c.575 0 1.026.452 1.026 1.028v1.624c0 .575-.451 1.028-1.026 1.028h-.636a1.017 1.017 0 01-1.026-1.028V74.78a1.03 1.03 0 011.026-1.028z" fill="#8A2C5B"/><path d="M196.797 73.752h16.379c.575 0 1.026.452 1.026 1.028v1.624c0 .575-.451 1.028-1.026 1.028h-16.379a1.017 1.017 0 01-1.026-1.028V74.78a1.03 1.03 0 011.026-1.028zm23.316 0h16.38c.574 0 1.026.452 1.026 1.028v1.624c0 .575-.452 1.028-1.026 1.028h-16.38a1.017 1.017 0 01-1.026-1.028V74.78c0-.555.472-1.028 1.026-1.028z" fill="#1E1E1E"/><path d="M230.479 84.955h20.689c.575 0 1.027.452 1.027 1.028v1.644c0 .576-.452 1.028-1.027 1.028h-20.689a1.017 1.017 0 01-1.026-1.028v-1.644c0-.576.451-1.028 1.026-1.028z" fill="#8A2C5B"/><path d="M20.546 162.201a5.873 5.873 0 01-3.88-1.459 5.946 5.946 0 01-2.052-4.091 5.903 5.903 0 011.437-4.337 5.933 5.933 0 014.084-2.055c.37-.021.719-.021 1.088.02a.65.65 0 01.554.679.65.65 0 01-.677.555 4.01 4.01 0 00-.862-.021 4.766 4.766 0 00-3.243 1.624 4.7 4.7 0 00-1.129 3.453 4.866 4.866 0 001.622 3.248 4.685 4.685 0 003.448 1.13.608.608 0 01.657.576.608.608 0 01-.575.658c-.164.02-.308.02-.472.02z" fill="#1E1E1E"/><path d="M20.258 148.964V166.6a6.154 6.154 0 006.158 6.167h10.386a6.154 6.154 0 006.157-6.167v-17.636h-22.7zm9.196 12.929a.432.432 0 01.205.37.412.412 0 01-.41.411.388.388 0 01-.206-.062l-4.105-2.466a.44.44 0 01-.205-.555.402.402 0 01.205-.206l4.105-2.466a.397.397 0 01.205-.062c.226 0 .41.185.41.411a.459.459 0 01-.204.37l-3.53 2.117 3.53 2.138zm8.64-1.747l-4.104 2.466a.388.388 0 01-.206.062c-.102 0-.225-.041-.287-.123a.406.406 0 01-.123-.288.46.46 0 01.205-.37l3.53-2.117-3.53-2.117a.433.433 0 01-.205-.37c0-.227.185-.411.41-.411.062 0 .144.02.206.061l4.105 2.467a.44.44 0 01.205.555.628.628 0 01-.205.185zm20.239-17.657a.59.59 0 01-.534-.329l-2.812-5.098a.612.612 0 01.247-.842.611.611 0 01.841.246l2.812 5.098a.614.614 0 01-.246.843c-.103.041-.205.082-.308.082z" fill="#1E1E1E"/><path d="M67.672 143.023H52.114a.605.605 0 01-.616-.616c0-.35.267-.617.616-.617h15.558c.349 0 .616.267.616.617a.618.618 0 01-.616.616zm-2.155 15.992a1.205 1.205 0 10-1.704 1.706 1.2 1.2 0 002.053-.863c0-.308-.124-.617-.35-.843zm-.862-1.809c.656 0 1.21-.534 1.21-1.192 0-.657-.533-1.212-1.19-1.212-.657 0-1.21.534-1.21 1.192 0 .329.122.637.348.863.226.226.534.37.842.349zm.862 7.38a1.205 1.205 0 000-1.706 1.2 1.2 0 00-1.704 0 1.205 1.205 0 000 1.706c.226.226.534.349.862.349.308 0 .616-.123.842-.349z" fill="#1E1E1E"/><path d="M69.19 146.127l-2.73-3.556H53.305l-2.73 3.556c-.267.329-.41.74-.41 1.151v21.645c.02.699.41 1.357 1.026 1.706.842.534 1.93 1.336 1.991 2.117h13.403c.082-.781 1.15-1.603 1.991-2.117a1.997 1.997 0 001.006-1.706v-21.645a1.706 1.706 0 00-.39-1.151zm-5.705 4.152l1.436-2.405c.042-.082.124-.123.206-.143a.28.28 0 01.226.143l1.436 2.405c.02.041.041.083.02.124 0 .061-.02.123-.06.164-.042.041-.103.082-.165.062a.225.225 0 01-.205-.124l-1.232-2.055-1.231 2.055a.225.225 0 01-.205.124.234.234 0 01-.165-.062c-.04-.041-.082-.103-.082-.164-.02-.041 0-.083.02-.124zm.082.905a.291.291 0 01.144-.041c.061 0 .123.02.164.061a.234.234 0 01.061.165c0 .061-.02.123-.061.164l-.082.082a1.216 1.216 0 00-.35.864c-.02.308.103.596.309.801.061.042.123.083.205.062a.198.198 0 00.185-.144l.492-1.48c.041-.144.123-.267.205-.39.124-.144.308-.206.514-.206.205 0 .39.082.513.226.308.309.451.72.43 1.131 0 .493-.225.986-.615 1.295-.041.041-.082.041-.144.041-.123 0-.246-.103-.246-.226a.23.23 0 01.062-.165l.082-.082c.225-.226.349-.534.349-.863a1.04 1.04 0 00-.308-.802c-.062-.041-.123-.082-.206-.062a.198.198 0 00-.184.144l-.493 1.48a1.023 1.023 0 01-.205.391c-.123.144-.308.205-.513.205a.666.666 0 01-.513-.226 1.483 1.483 0 01-.431-1.13 1.95 1.95 0 01.636-1.295zm-.103 3.638a1.683 1.683 0 012.381 0 1.689 1.689 0 010 2.384 1.683 1.683 0 01-2.873-1.192c0-.452.164-.884.492-1.192zm-.43 10.524c-.103-.102-.083-.246 0-.349a.234.234 0 01.163-.062h.267c-.657-.657-.677-1.726-.02-2.384.656-.658 1.724-.678 2.38-.021.657.658.678 1.727.021 2.385a1.71 1.71 0 01-1.21.514h-1.438c-.04 0-.102-.042-.164-.083zm3.755.925l-1.436 2.405c-.041.083-.124.124-.226.144-.082 0-.164-.061-.206-.144l-1.436-2.405c-.02-.041-.041-.082-.02-.123 0-.062.02-.123.081-.164.041-.042.103-.083.165-.062.082 0 .164.041.205.123l1.231 2.056 1.232-2.056a.226.226 0 01.205-.123.25.25 0 01.246.247c0 .02-.02.061-.04.102zm.945-4.789a.233.233 0 01-.165.062h-2.914a1.692 1.692 0 01-1.683-1.686c0-.925.76-1.685 1.683-1.685s1.683.76 1.683 1.685c0 .452-.185.884-.493 1.192l-.02.021h1.724a.23.23 0 01.164.062c.041.041.082.102.082.164 0 .082-.02.144-.061.185zm52.36-75.932s-.021 0 0 0c-.37-.02-.637-.287-.616-.636.123-4.111-.164-7.071-.821-8.366-.985-1.912-.883-3.947.226-4.749.451-.329 1.724-.863 3.715 1.213 1.847 1.912 2.75 4.44 3.181 6.208a.613.613 0 11-1.19.288c-.39-1.624-1.211-3.926-2.853-5.632-.904-.925-1.725-1.337-2.115-1.049-.451.33-.615 1.686.144 3.166.965 1.89 1.067 5.92.965 8.962-.041.329-.308.596-.636.596zm25.841-4.254a5.983 5.983 0 01-5.973-5.982 5.97 5.97 0 015.973-5.981 5.97 5.97 0 015.973 5.981 5.983 5.983 0 01-5.973 5.982zm0-10.73a4.746 4.746 0 00-4.741 4.748 4.734 4.734 0 004.741 4.749 4.734 4.734 0 004.741-4.749 4.746 4.746 0 00-4.741-4.748zM111.268 174a.61.61 0 01-.616-.576.607.607 0 01.575-.657c5.48-.411 10.037-7.811 13.547-21.994 2.873-11.614 4.228-24.79 4.802-30.422.226-2.2.308-2.981.39-3.248.514-1.685-.102-2.61-.821-3.7-.615-.925-1.313-1.973-1.067-3.494.287-1.809.226-2.94.164-3.495-6.445-1.315-12.459-8.201-14.039-10.113-.431.35-1.17.946-2.34 1.953-1.149.986-2.381.843-3.448.72-1.191-.145-2.237-.268-3.346 1.007-1.231 1.418-12.828 20.76-18.78 30.771a.604.604 0 01-.842.205.605.605 0 01-.205-.842c.698-1.193 17.303-29.086 18.904-30.957 1.539-1.767 3.14-1.582 4.413-1.418.985.123 1.765.206 2.504-.432 2.093-1.788 2.853-2.343 2.873-2.364a.596.596 0 01.842.124c.061.082 7.06 9.065 14.08 10.216a.592.592 0 01.493.452c.02.062.369 1.439-.082 4.378-.165 1.049.328 1.768.882 2.611.739 1.11 1.663 2.487.965 4.727-.062.206-.185 1.522-.349 3.022-.575 5.653-1.95 18.911-4.844 30.607-3.654 14.759-8.58 22.487-14.655 22.939.041-.02.02-.02 0-.02z" fill="#1E1E1E"/><path d="M129.33 109.909c.513-3.063.718-4.378.718-4.378-7.82-1.213-15.886-11.08-15.886-11.08s-.801.596-3.058 2.55c-.904.78-1.848.78-2.833.698-.698 8.572 14.676 16.198 21.942 16.568-.472-2.077-1.273-2.035-.883-4.358zm-53.715 16.279a.708.708 0 01-.472-.205.615.615 0 01.062-.863c.39-.35 9.75-8.305 15.455-2.94a.597.597 0 01.02.864.595.595 0 01-.861.02c-4.906-4.604-13.711 2.898-13.814 2.981a.544.544 0 01-.39.143z" fill="#1E1E1E"/><path d="M126.621 111.553a.573.573 0 01-.308-.082l-15.517-9.024a.605.605 0 01-.226-.822c1.006-1.932 9.893-18.85 11.822-20.535 1.601-1.398 11.946-8.489 13.732-8.654 1.047-.102 2.134.638 2.504 1.665.39 1.09-.144 2.241-1.396 3.063-.533.35-1.211.76-1.929 1.172 2.155-.617 4.187-1.09 4.885-.904.862.226 1.416.986 1.457 1.973.021 1.048-.616 2.323-2.052 3.083.78-.144 1.375-.206 1.642-.185.841.062 1.56.884 1.621 1.87.041.617-.144 2.488-3.51 3.598.411-.02.76-.02.986 0 .862.082 1.436.822 1.395 1.767-.082 1.645-1.95 3.577-6.937 3.66l-7.615 18.006a.622.622 0 01-.37.349c-.061-.02-.123 0-.184 0zm-14.697-9.887l14.389 8.387 7.491-17.74a.633.633 0 01.575-.37h.041c4.372 0 6.035-1.48 6.076-2.487 0-.226-.082-.472-.267-.472-1.232-.103-6.876.616-8.949.925-.226.02-.452-.062-.575-.247a.563.563 0 01-.061-.617c.123-.267.369-.843 6.814-2.076 3.181-.596 4.249-1.809 4.187-2.734-.02-.431-.287-.699-.472-.72-.903-.06-7.122 1.399-10.837 2.323a.623.623 0 01-.739-.41.616.616 0 01.39-.761l8.354-2.98h.02c1.478-.473 2.114-1.46 2.094-2.262 0-.164-.062-.678-.534-.801-.636-.165-4.741.883-10.468 2.898a.609.609 0 01-.759-.329.645.645 0 01.287-.802c.062-.02 5.213-2.672 7.615-4.255.451-.287 1.17-.904.903-1.623-.164-.494-.739-.884-1.211-.843-1.17.144-10.817 6.434-13.034 8.366-1.354 1.11-7.409 12.148-11.33 19.63zm-9.667 60.535c-.595 0-1.17-.082-1.745-.267-.328-.103-.513-.452-.41-.76.102-.329.451-.514.759-.412.554.165 1.15.247 1.745.206a4.726 4.726 0 004.372-5.077 4.737 4.737 0 00-1.622-3.248 4.79 4.79 0 00-3.448-1.151 4.998 4.998 0 00-.759.123.613.613 0 01-.288-1.192c.308-.082.637-.123.944-.144a5.828 5.828 0 014.331 1.439 5.945 5.945 0 012.053 4.091c.246 3.288-2.237 6.146-5.521 6.392h-.411z" fill="#1E1E1E"/><path d="M78.817 148.964V166.6a6.154 6.154 0 006.158 6.167H95.36a6.154 6.154 0 006.157-6.167v-17.636h-22.7zm9.175 12.929a.432.432 0 01.205.37.412.412 0 01-.41.411.388.388 0 01-.206-.062l-4.105-2.466a.44.44 0 01-.205-.555.402.402 0 01.205-.206l4.105-2.466a.397.397 0 01.206-.062c.102 0 .205.041.287.123a.406.406 0 01.123.288.459.459 0 01-.205.37l-3.53 2.117 3.53 2.138zm5.131-6.084l-3.304 8.283c-.02.041-.041.083-.082.103a.405.405 0 01-.698-.288c0-.061.02-.123.04-.164l3.305-8.284c.02-.041.062-.082.082-.123a.405.405 0 01.698.288c0 .061 0 .123-.04.185zm5.604 4.316l-4.105 2.467a.397.397 0 01-.206.062.412.412 0 01-.41-.412c0-.143.082-.287.205-.37l3.53-2.117-3.53-2.117a.432.432 0 01-.205-.37c0-.103.04-.226.123-.288a.405.405 0 01.287-.123.4.4 0 01.206.062l4.105 2.466a.44.44 0 01.205.555.597.597 0 01-.205.185z" fill="#1E1E1E"/><path d="M258.044 173.918H.616a.605.605 0 01-.616-.617c0-.349.267-.617.616-.617h257.428c.349 0 .616.268.616.617 0 .35-.267.617-.616.617zM145.853 85.715l-1.129-17.595-22.66 1.46.78 11.9c2.012-1.726 11.905-8.345 13.342-8.468 1.436-.123 3.161 1.973.697 3.597-2.463 1.624-7.676 4.296-7.676 4.296 4.331-1.52 9.811-3.165 10.837-2.898 1.56.411 1.458 3.289-1.518 4.234l-8.354 2.981s9.729-2.446 11.042-2.343c1.314.102 2.463 3.515-3.653 4.666-6.117 1.15-6.363 1.706-6.363 1.706s7.533-1.07 9.093-.925c1.56.144 1.601 4.214-5.891 4.193l-.041.103 5.767-.37c3.367-.206 5.953-3.125 5.727-6.537z" fill="#1E1E1E"/></g><defs><clipPath id="clip0"><path fill="#fff" d="M0 0h261v174H0z"/></clipPath></defs></svg>