<svg width="222" height="36" fill="none" xmlns="http://www.w3.org/2000/svg"><path d="M31.227 22.272L15.2 11.346v.047l-.046-.047L0 21.572v5.276l15.2-10.225 15.98 10.879.046.047 31.55-20.452V1.821l-31.55 20.451z" fill="#722D5C"/><path d="M57.112 13.961l-25.885 16.67L15.2 19.703h-.046L0 29.93v5.276l15.2-10.272 15.981 10.88.046.093L57.112 19.19v-5.23z" fill="#4E2D5E"/><path d="M31.227 13.914L15.2 2.988v.047l-.046-.047L0 13.214v5.276L15.2 8.265l15.98 10.879.046.047L53.29 5.276V0L31.227 13.914z" fill="#8A2C5B"/><path d="M77.147 1.167H98.38v3.736h-8.567v19.704H85.76V4.949h-8.613V1.167zm33.991-.42c1.796 0 3.455.28 4.928.887 1.474.607 2.764 1.448 3.823 2.522a12.346 12.346 0 012.533 3.968c.599 1.495.876 3.082.876 4.763s-.277 3.269-.83 4.716c-.552 1.448-1.381 2.708-2.441 3.829a10.853 10.853 0 01-3.915 2.661c-1.473.654-3.178.934-5.02.934-1.842 0-3.546-.373-5.066-1.074-1.52-.7-2.856-1.68-3.915-2.848-.967-1.074-1.75-2.335-2.35-3.735a11.596 11.596 0 01-.874-4.483c0-1.634.276-3.175.829-4.622a11.448 11.448 0 012.395-3.783c1.059-1.167 2.395-2.1 3.915-2.754 1.566-.654 3.27-.98 5.112-.98zm-8.06 12.14c0 1.168.184 2.241.599 3.222.414.98.921 1.868 1.612 2.568.737.794 1.566 1.448 2.579 1.914 1.013.467 2.119.7 3.316.7a8.517 8.517 0 003.27-.653c1.014-.42 1.889-1.074 2.626-1.868.644-.747 1.197-1.587 1.566-2.568a9.37 9.37 0 00.598-3.268c0-1.214-.184-2.335-.598-3.362-.415-.98-.922-1.868-1.612-2.568a7.41 7.41 0 00-2.626-1.821 8.29 8.29 0 00-3.224-.654 8.522 8.522 0 00-3.27.654c-1.013.42-1.888 1.074-2.625 1.868-.691.747-1.198 1.587-1.612 2.568-.415.98-.599 2.1-.599 3.268zm43.249-3.128c0 1.214-.231 2.334-.691 3.361a8.986 8.986 0 01-1.797 2.662 8.599 8.599 0 01-2.809 1.821 9.05 9.05 0 01-3.408.654h-7.001v6.35h-4.192V1.167h11.239c1.381 0 2.625.28 3.776.84 1.152.561 2.165 1.308 2.994 2.289.599.747 1.06 1.587 1.428 2.474.322.934.461 1.915.461 2.989zm-8.521 4.762c.645 0 1.243-.14 1.842-.42a4.294 4.294 0 001.428-1.074c.322-.467.599-.98.829-1.54.23-.608.368-1.168.368-1.682 0-1.307-.368-2.38-1.151-3.221a4.175 4.175 0 00-1.52-1.168c-.599-.28-1.29-.42-2.026-.42h-6.863v9.479h7.093v.046zm29.615 10.086h-18.009V1.167h4.146v19.704h13.863v3.736zm6.955 0h-4.053V1.167h4.053v23.44zm25.286-23.44v23.44h-3.823L182.252 7.75v16.856h-4.053V1.167h3.823l13.679 16.903V1.167h3.961zm3.869 0h17.916v3.829H207.63v5.463h12.344v3.736H207.63v6.63H222v3.735h-18.469V1.167z" fill="#fff"/><path d="M77.746 30.537v2.101h.737c.138 0 .23-.047.368-.093.047-.047.093-.047.139-.094.046-.046.046-.093.092-.14l.599-1.074c.046-.14.138-.233.23-.326a1.22 1.22 0 01.276-.234c.092-.047.23-.14.323-.14.138-.047.276-.047.46-.047h.276c.093 0 .185.047.277.047l-.092.794h-.507c-.092 0-.138.046-.184.093-.046.047-.092.047-.138.093-.046.047-.092.094-.092.14l-.6 1.028c-.045.046-.045.093-.091.187-.046.046-.092.14-.139.186l1.843 2.895h-1.105l-1.52-2.474c-.093.046-.23.046-.323.046h-.783v2.428h-.967v-5.416h.921zm7.554-.093c.414 0 .782.046 1.105.186.322.14.645.327.875.56.23.28.46.561.599.888.138.327.184.7.184 1.074 0 .373-.046.747-.184 1.074a3.56 3.56 0 01-.553.887c-.23.28-.553.467-.875.607-.322.14-.737.233-1.151.233-.415 0-.83-.093-1.152-.233a3.31 3.31 0 01-.921-.654 2.653 2.653 0 01-.553-.84c-.138-.327-.184-.654-.184-1.027 0-.374.046-.748.184-1.075a3.56 3.56 0 01.553-.887c.23-.28.553-.466.875-.653a4.66 4.66 0 011.197-.14zm-1.889 2.755c0 .28.046.513.138.747.092.233.23.42.369.607.184.186.368.326.598.42.23.093.507.14.737.14a1.754 1.754 0 001.336-.56c.138-.187.276-.374.369-.607a1.96 1.96 0 00.138-.747c0-.28-.046-.514-.138-.748-.093-.233-.23-.42-.369-.607a1.751 1.751 0 00-1.335-.56 1.751 1.751 0 00-1.336.56c-.138.187-.277.374-.369.607a1.96 1.96 0 00-.138.748zm10.916-2.662v5.37h-.967v-2.428h-2.764v2.428h-.967v-5.37h.967v2.054h2.764v-2.054h.967zm2.533 2.661c0 .28.046.56.138.794.093.234.23.42.369.56a1.753 1.753 0 001.335.56c.323 0 .6-.046.83-.186.23-.093.506-.28.736-.467l.553.654a2.95 2.95 0 01-.967.654c-.322.14-.737.186-1.198.186-.414 0-.782-.046-1.105-.233-.322-.14-.645-.327-.875-.607-.276-.234-.46-.56-.599-.887-.138-.327-.23-.7-.23-1.121 0-.373.046-.747.23-1.074.138-.327.323-.654.599-.887a2.95 2.95 0 01.875-.607c.323-.14.737-.233 1.151-.233.461 0 .83.093 1.198.233.322.14.645.373.967.654l-.552.653a1.806 1.806 0 00-.737-.467c-.23-.093-.553-.186-.83-.186a1.753 1.753 0 00-1.336.56c-.183.187-.276.373-.414.607-.092.327-.138.56-.138.84zm8.751-2.661l2.349 5.37h-1.013l-.461-.981h-2.809l-.415.98h-1.013l2.349-5.37h1.013zm-1.566 3.502h2.119l-1.013-2.568h-.138l-.968 2.568zm10.732-3.502v5.37h-.921v-4.53h-2.027l-.46 3.316a7.71 7.71 0 01-.139.513c-.092.14-.138.28-.276.374a1.47 1.47 0 01-.921.327c-.138 0-.276 0-.415-.047-.138 0-.276-.047-.414-.093l.184-.794a.572.572 0 00.276.047h.231c.092 0 .138 0 .23-.047s.138-.047.184-.094a.72.72 0 00.184-.466l.553-3.97h3.731v.094zm1.52 0h4.882v.84h-1.981v4.53h-.921v-4.53h-1.98v-.84zm7.323 3.922l3.04-3.922h.875v5.37h-.921v-3.923l-3.04 3.922h-.875v-5.37h.921v3.923zm10.363-3.922v5.37h-.967v-2.428h-2.764v2.428h-.967v-5.37h.967v2.054h2.764v-2.054h.967zm2.671 5.37h-.967v-5.37h4.007v.84h-3.086v4.53h.046zm6.817-5.463c.414 0 .783.046 1.105.186.323.14.645.327.875.56.231.28.461.561.599.888.138.327.184.7.184 1.074 0 .373-.046.747-.184 1.074a3.535 3.535 0 01-.553.887c-.23.28-.552.467-.875.607a2.98 2.98 0 01-1.151.233c-.415 0-.829-.093-1.152-.233a3.326 3.326 0 01-.921-.654 2.653 2.653 0 01-.552-.84c-.139-.327-.185-.654-.185-1.027 0-.374.046-.748.185-1.075a3.56 3.56 0 01.552-.887c.231-.28.553-.466.875-.653a4.93 4.93 0 011.198-.14zm-1.842 2.755c0 .28.046.513.138.747.092.233.23.42.368.607.184.186.369.326.599.42.23.093.507.14.737.14.276 0 .507-.047.737-.14.23-.094.414-.234.599-.42.138-.187.276-.374.368-.607.092-.234.138-.467.138-.747 0-.28-.046-.514-.138-.748-.092-.233-.23-.42-.368-.607a1.762 1.762 0 00-.599-.42 1.887 1.887 0 00-.737-.14 1.752 1.752 0 00-1.336.56c-.138.187-.276.374-.368.607a1.961 1.961 0 00-.138.748zm6.217 2.708v-5.37h2.718c.23 0 .46.047.645.093.23.094.368.187.552.327.139.14.231.28.277.42.046.14.092.327.092.514 0 .093 0 .187-.046.28a.67.67 0 01-.092.28c-.092.14-.231.28-.369.374v.046c.231.094.369.234.553.42.184.234.276.561.276.888 0 .233-.046.467-.138.654-.092.186-.184.373-.368.513-.185.14-.369.28-.553.374-.23.093-.461.14-.691.14h-2.856v.047zm3.409-3.923a.604.604 0 00-.184-.467c-.139-.14-.323-.186-.507-.186h-1.75v1.26h1.888c.092 0 .138 0 .23-.046.046-.047.139-.094.185-.14.092-.094.138-.234.138-.42zm.276 2.242c0-.234-.046-.42-.184-.514a.961.961 0 00-.276-.187.853.853 0 00-.323-.093h-1.934v1.634h1.934c.138 0 .23-.047.323-.093a.961.961 0 00.276-.187c.046-.047.092-.14.138-.234.046-.093.046-.186.046-.326zm5.573-3.689l2.349 5.37h-1.013l-.461-.981h-2.809l-.415.98h-1.013l2.349-5.37h1.013zm-1.566 3.502h2.119l-1.013-2.568h-.093l-1.013 2.568zm5.297-1.541c0-.28.046-.514.138-.747.092-.234.23-.42.369-.607.184-.187.414-.327.69-.467.277-.093.553-.187.829-.187h2.58v5.37h-.968v-1.448h-1.658c-.138.234-.322.467-.46.7-.138.234-.323.514-.461.748h-1.105l1.105-1.634-.414-.28c-.138-.094-.231-.234-.323-.374a1.97 1.97 0 01-.322-1.074zm.967 0c0 .14 0 .233.046.374.046.14.092.233.138.28a.86.86 0 00.369.327c.138.093.322.14.552.14h1.613v-2.195h-1.613a.917.917 0 00-.506.14c-.138.093-.277.187-.369.327-.138.093-.23.327-.23.607zm9.903-1.961v2.101h.737a.856.856 0 00.368-.093c.046-.047.092-.047.138-.094.046-.046.046-.093.092-.14l.599-1.074c.046-.14.138-.233.23-.326.092-.094.185-.187.277-.234.092-.047.23-.14.322-.14.138-.047.276-.047.461-.047h.276c.092 0 .184.047.276.047l-.092.794h-.506c-.092 0-.139.046-.185.093-.046.047-.092.047-.138.093-.046.047-.092.094-.092.14l-.599 1.028c-.046.046-.046.093-.092.187-.046.046-.092.14-.138.186l1.842 2.895h-1.105l-1.52-2.474c-.092.046-.23.046-.322.046h-.783v2.428h-.968v-5.416h.922zm7.507-.093c.415 0 .783.046 1.106.186.322.14.644.327.875.56.23.28.46.561.598.888.139.327.185.7.185 1.074 0 .373-.046.747-.185 1.074a3.56 3.56 0 01-.552.887c-.231.28-.553.467-.875.607-.323.14-.737.233-1.152.233a2.98 2.98 0 01-1.151-.233 3.297 3.297 0 01-.921-.654 2.638 2.638 0 01-.553-.84c-.138-.327-.184-.654-.184-1.027 0-.374.046-.748.184-1.075.138-.326.322-.607.553-.887.23-.28.552-.466.875-.653.414-.094.783-.14 1.197-.14zm-1.842 2.755c0 .28.046.513.138.747.092.233.23.42.368.607.185.186.369.326.599.42.23.093.507.14.737.14.276 0 .507-.047.737-.14.23-.094.415-.234.599-.42.138-.187.276-.374.368-.607.092-.234.138-.467.138-.747 0-.28-.046-.514-.138-.748-.092-.233-.23-.42-.368-.607a1.752 1.752 0 00-1.336-.56c-.276 0-.507.047-.737.14-.23.093-.414.234-.599.42-.138.187-.276.374-.368.607a1.961 1.961 0 00-.138.748zm7.277-2.662l1.888 2.661 1.843-2.661h1.013v5.37h-.967v-3.923h-.046l-1.75 2.522h-.323l-1.75-2.522h-.046v3.922h-.875v-5.37h1.013zm11.1 0v5.37h-.967v-4.53h-2.718v4.53h-.921v-5.37h4.606zm4.882 0l2.349 5.37h-1.013l-.461-.981h-2.809l-.415.98h-1.013l2.349-5.37h1.013zm-1.566 3.502h2.119l-1.013-2.568h-.093l-1.013 2.568zm10.133-3.502v5.37h-.967v-2.428h-2.764v2.428h-.967v-5.37h.967v2.054h2.764v-2.054h.967zm2.717 3.922l3.04-3.922h.875v5.37h-.921v-3.923l-3.04 3.922h-.875v-5.37h.921v3.923zm5.481-1.961c0-.28.046-.514.138-.747.092-.234.231-.42.369-.607.184-.187.414-.327.691-.467.276-.093.552-.187.829-.187H222v5.37h-.967v-1.448h-1.658c-.138.234-.323.467-.461.7-.184.234-.322.514-.46.748h-1.106l1.106-1.634-.415-.28c-.138-.094-.23-.234-.322-.374a1.963 1.963 0 01-.323-1.074zm.967 0c0 .14 0 .233.046.374.047.14.093.233.139.28.092.14.184.233.368.327.138.093.323.14.553.14h1.612v-2.195h-1.612a.92.92 0 00-.507.14c-.138.093-.276.187-.368.327-.138.093-.231.327-.231.607z" fill="#A7A9AC"/></svg>