<svg width="222" height="36" fill="none" xmlns="http://www.w3.org/2000/svg"><path d="M31.227 22.273L15.2 11.347v.046l-.046-.046L0 21.572v5.277l15.2-10.226 15.981 10.88.046.046 31.55-20.451V1.82l-31.55 20.452z" fill="#722D5C"/><path d="M57.112 13.96L31.227 30.63 15.2 19.704h-.046L0 29.93v5.276l15.2-10.272 15.981 10.88.046.093L57.112 19.19v-5.23z" fill="#4E2D5E"/><path d="M31.227 13.914L15.2 2.988v.047l-.046-.047L0 13.214v5.276L15.2 8.265l15.98 10.879.046.047L53.29 5.276V0L31.227 13.914z" fill="#8A2C5B"/><path d="M77.147 1.167H98.38v3.736h-8.567v19.704H85.76V4.95h-8.613V1.167zm33.991-.42c1.796 0 3.455.28 4.928.887 1.474.607 2.764 1.448 3.823 2.522a12.346 12.346 0 012.533 3.968c.599 1.495.876 3.082.876 4.763s-.277 3.269-.83 4.716c-.552 1.448-1.381 2.708-2.441 3.829a10.853 10.853 0 01-3.915 2.661c-1.473.654-3.178.934-5.02.934-1.842 0-3.546-.373-5.066-1.074-1.52-.7-2.856-1.68-3.915-2.848-.967-1.074-1.75-2.335-2.35-3.735a11.596 11.596 0 01-.874-4.483c0-1.634.276-3.175.829-4.622a11.448 11.448 0 012.395-3.783c1.059-1.167 2.395-2.1 3.915-2.754 1.566-.654 3.27-.98 5.112-.98zm-8.06 12.14c0 1.168.184 2.241.599 3.222.414.98.921 1.868 1.612 2.568.737.794 1.566 1.448 2.579 1.914 1.013.467 2.119.7 3.316.7a8.517 8.517 0 003.27-.653c1.014-.42 1.889-1.074 2.626-1.868.644-.747 1.197-1.587 1.566-2.568a9.37 9.37 0 00.598-3.268c0-1.214-.184-2.335-.598-3.362-.415-.98-.922-1.868-1.612-2.568a7.41 7.41 0 00-2.626-1.821 8.29 8.29 0 00-3.224-.654 8.522 8.522 0 00-3.27.654c-1.013.42-1.888 1.074-2.625 1.868-.691.747-1.198 1.587-1.612 2.568-.415.98-.599 2.1-.599 3.268zm43.249-3.128c0 1.214-.231 2.335-.691 3.362a8.987 8.987 0 01-1.797 2.661 8.602 8.602 0 01-2.809 1.821 9.053 9.053 0 01-3.408.654h-7.001v6.35h-4.192V1.167h11.239c1.381 0 2.625.28 3.776.841 1.152.56 2.165 1.307 2.994 2.288.599.747 1.06 1.587 1.428 2.475.322.933.461 1.914.461 2.988zm-8.521 4.763c.645 0 1.243-.14 1.842-.42a4.293 4.293 0 001.428-1.075c.322-.466.599-.98.829-1.54.23-.607.368-1.168.368-1.681 0-1.308-.368-2.382-1.151-3.222a4.175 4.175 0 00-1.52-1.167c-.599-.28-1.29-.42-2.026-.42h-6.863v9.478h7.093v.047zm29.615 10.085h-18.009V1.167h4.146v19.705h13.863v3.735zm6.955 0h-4.053V1.167h4.053v23.44zm25.286-23.44v23.44h-3.823L182.252 7.751v16.856h-4.053V1.167h3.823l13.679 16.903V1.167h3.961zm3.869 0h17.916v3.83H207.63v5.462h12.344v3.736H207.63v6.63H222v3.736h-18.469V1.167z" fill="#2A2729"/><path d="M77.746 30.537v2.102h.737c.138 0 .23-.047.368-.094.047-.047.093-.047.139-.093.046-.047.046-.094.092-.14l.599-1.074c.046-.14.138-.234.23-.327s.184-.187.276-.234c.092-.046.23-.14.323-.14.138-.046.276-.046.46-.046h.276c.093 0 .185.046.277.046l-.092.794h-.507c-.092 0-.138.047-.184.094-.046.046-.092.046-.138.093-.046.047-.092.093-.092.14l-.6 1.027c-.045.047-.045.094-.091.187-.046.047-.092.14-.139.187l1.843 2.895h-1.105l-1.52-2.475c-.093.047-.23.047-.323.047h-.783v2.428h-.967v-5.417h.921zm7.554-.093c.414 0 .782.047 1.105.187.322.14.645.326.875.56.23.28.46.56.599.887.138.327.184.7.184 1.074 0 .374-.046.747-.184 1.074a3.56 3.56 0 01-.553.887c-.23.28-.553.467-.875.607-.322.14-.737.234-1.151.234-.415 0-.83-.094-1.152-.234a3.309 3.309 0 01-.921-.654 2.652 2.652 0 01-.553-.84c-.138-.327-.184-.654-.184-1.027 0-.374.046-.747.184-1.074a3.56 3.56 0 01.553-.887c.23-.28.553-.467.875-.654.368-.093.737-.14 1.197-.14zm-1.889 2.755c0 .28.046.513.138.747.092.233.23.42.369.607.184.187.368.327.598.42.23.093.507.14.737.14a1.751 1.751 0 001.336-.56c.138-.187.276-.374.369-.607a1.96 1.96 0 00.138-.747c0-.28-.046-.514-.138-.747-.093-.234-.23-.42-.369-.607a1.754 1.754 0 00-1.335-.56 1.754 1.754 0 00-1.336.56c-.138.186-.277.373-.369.607a1.96 1.96 0 00-.138.747zm10.916-2.662v5.37h-.967v-2.428h-2.764v2.428h-.967v-5.37h.967v2.055h2.764v-2.055h.967zm2.533 2.662c0 .28.046.56.138.793.093.234.23.42.369.56a1.753 1.753 0 001.335.561c.323 0 .6-.047.83-.187.23-.093.506-.28.736-.467l.553.654a2.949 2.949 0 01-.967.654c-.322.14-.737.186-1.198.186-.414 0-.782-.046-1.105-.233-.322-.14-.645-.327-.875-.607-.276-.233-.46-.56-.599-.887-.138-.327-.23-.7-.23-1.12 0-.374.046-.748.23-1.075.138-.326.323-.653.599-.887.23-.233.553-.467.875-.607.323-.14.737-.233 1.151-.233.461 0 .83.093 1.198.233.322.14.645.374.967.654l-.552.654a1.805 1.805 0 00-.737-.467c-.23-.094-.553-.187-.83-.187a1.752 1.752 0 00-1.336.56c-.183.187-.276.374-.414.607-.092.327-.138.56-.138.84zm8.751-2.662l2.349 5.37h-1.013l-.461-.98h-2.809l-.415.98h-1.013l2.349-5.37h1.013zm-1.566 3.502h2.119l-1.013-2.568h-.138l-.968 2.568zm10.732-3.502v5.37h-.921v-4.53h-2.027l-.46 3.316a7.706 7.706 0 01-.139.514c-.092.14-.138.28-.276.373a1.47 1.47 0 01-.921.327c-.138 0-.276 0-.415-.047-.138 0-.276-.047-.414-.093l.184-.794a.572.572 0 00.276.047h.231c.092 0 .138 0 .23-.047s.138-.047.184-.093a.719.719 0 00.184-.467l.553-3.97h3.731v.094zm1.52 0h4.882v.84h-1.981v4.53h-.921v-4.53h-1.98v-.84zm7.323 3.923l3.04-3.923h.875v5.37h-.921v-3.922l-3.04 3.922h-.875v-5.37h.921v3.922zm10.363-3.923v5.37h-.967v-2.428h-2.764v2.428h-.967v-5.37h.967v2.055h2.764v-2.055h.967zm2.671 5.37h-.967v-5.37h4.007v.84h-3.086v4.53h.046zm6.817-5.463c.414 0 .783.047 1.105.187.323.14.645.326.875.56.231.28.461.56.599.887.138.327.184.7.184 1.074 0 .374-.046.747-.184 1.074a3.534 3.534 0 01-.553.887c-.23.28-.552.467-.875.607a2.98 2.98 0 01-1.151.234c-.415 0-.829-.094-1.152-.234a3.324 3.324 0 01-.921-.654 2.652 2.652 0 01-.552-.84c-.139-.327-.185-.654-.185-1.027 0-.374.046-.747.185-1.074a3.56 3.56 0 01.552-.887c.231-.28.553-.467.875-.654.369-.093.783-.14 1.198-.14zm-1.842 2.755c0 .28.046.513.138.747.092.233.23.42.368.607.184.187.369.327.599.42.23.093.507.14.737.14a1.754 1.754 0 001.336-.56c.138-.187.276-.374.368-.607.092-.234.138-.467.138-.747 0-.28-.046-.514-.138-.747-.092-.234-.23-.42-.368-.607a1.764 1.764 0 00-.599-.42 1.887 1.887 0 00-.737-.14 1.755 1.755 0 00-1.336.56c-.138.186-.276.373-.368.607a1.962 1.962 0 00-.138.747zm6.217 2.708v-5.37h2.718c.23 0 .46.047.645.094.23.093.368.186.552.326.139.14.231.28.277.42a1.7 1.7 0 01.092.514c0 .094 0 .187-.046.28 0 .094-.046.187-.092.28-.092.14-.231.28-.369.374v.047c.231.093.369.233.553.42.184.233.276.56.276.887 0 .234-.046.467-.138.654-.092.187-.184.373-.368.514-.185.14-.369.28-.553.373-.23.093-.461.14-.691.14h-2.856v.047zm3.409-3.922a.604.604 0 00-.184-.467c-.139-.14-.323-.187-.507-.187h-1.75v1.26h1.888c.092 0 .138 0 .23-.046.046-.047.139-.093.185-.14.092-.094.138-.234.138-.42zm.276 2.24c0-.233-.046-.42-.184-.513a.961.961 0 00-.276-.187.853.853 0 00-.323-.093h-1.934v1.634h1.934c.138 0 .23-.046.323-.093a.961.961 0 00.276-.187c.046-.047.092-.14.138-.233.046-.094.046-.187.046-.327zm5.573-3.688l2.349 5.37h-1.013l-.461-.98h-2.809l-.415.98h-1.013l2.349-5.37h1.013zm-1.566 3.502h2.119l-1.013-2.568h-.093l-1.013 2.568zm5.297-1.541c0-.28.046-.513.138-.747.092-.233.23-.42.369-.607.184-.186.414-.326.69-.466.277-.094.553-.187.829-.187h2.58v5.37h-.968v-1.448h-1.658c-.138.233-.322.467-.46.7-.138.234-.323.514-.461.747h-1.105l1.105-1.634-.414-.28c-.138-.093-.231-.233-.323-.374a1.97 1.97 0 01-.322-1.074zm.967 0c0 .14 0 .234.046.374.046.14.092.233.138.28.092.14.185.234.369.327.138.093.322.14.552.14h1.613v-2.194h-1.613a.917.917 0 00-.506.14c-.138.093-.277.186-.369.326-.138.094-.23.327-.23.608zm9.903-1.961v2.102h.737a.856.856 0 00.368-.094c.046-.047.092-.047.138-.093.046-.047.046-.094.092-.14l.599-1.074c.046-.14.138-.234.23-.327s.185-.187.277-.234c.092-.046.23-.14.322-.14.138-.046.276-.046.461-.046h.276c.092 0 .184.046.276.046l-.092.794h-.506c-.092 0-.139.047-.185.094-.046.046-.092.046-.138.093-.046.047-.092.093-.092.14l-.599 1.027c-.046.047-.046.094-.092.187-.046.047-.092.14-.138.187l1.842 2.895h-1.105l-1.52-2.475c-.092.047-.23.047-.322.047h-.783v2.428h-.968v-5.417h.922zm7.507-.093c.415 0 .783.047 1.106.187.322.14.644.326.875.56.23.28.46.56.598.887.139.327.185.7.185 1.074 0 .374-.046.747-.185 1.074a3.56 3.56 0 01-.552.887c-.231.28-.553.467-.875.607-.323.14-.737.234-1.152.234a2.98 2.98 0 01-1.151-.234 3.295 3.295 0 01-.921-.654 2.638 2.638 0 01-.553-.84c-.138-.327-.184-.654-.184-1.027 0-.374.046-.747.184-1.074.138-.327.322-.607.553-.887.23-.28.552-.467.875-.654.414-.093.783-.14 1.197-.14zm-1.842 2.755c0 .28.046.513.138.747.092.233.23.42.368.607.185.187.369.327.599.42.23.093.507.14.737.14a1.752 1.752 0 001.336-.56c.138-.187.276-.374.368-.607.092-.234.138-.467.138-.747 0-.28-.046-.514-.138-.747-.092-.234-.23-.42-.368-.607a1.755 1.755 0 00-1.336-.56 1.754 1.754 0 00-1.336.56c-.138.186-.276.373-.368.607a1.962 1.962 0 00-.138.747zm7.277-2.662l1.888 2.662 1.843-2.662h1.013v5.37h-.967v-3.922h-.046l-1.75 2.521h-.323l-1.75-2.521h-.046v3.922h-.875v-5.37h1.013zm11.1 0v5.37h-.967v-4.53h-2.718v4.53h-.921v-5.37h4.606zm4.882 0l2.349 5.37h-1.013l-.461-.98h-2.809l-.415.98h-1.013l2.349-5.37h1.013zm-1.566 3.502h2.119l-1.013-2.568h-.093l-1.013 2.568zm10.133-3.502v5.37h-.967v-2.428h-2.764v2.428h-.967v-5.37h.967v2.055h2.764v-2.055h.967zm2.717 3.923l3.04-3.923h.875v5.37h-.921v-3.922l-3.04 3.922h-.875v-5.37h.921v3.922zm5.481-1.962c0-.28.046-.513.138-.747.092-.233.231-.42.369-.607.184-.186.414-.326.691-.466.276-.094.552-.187.829-.187H222v5.37h-.967v-1.448h-1.658c-.138.233-.323.467-.461.7-.184.234-.322.514-.46.747h-1.106l1.106-1.634-.415-.28c-.138-.093-.23-.233-.322-.374a1.963 1.963 0 01-.323-1.074zm.967 0c0 .14 0 .234.046.374.047.14.093.233.139.28.092.14.184.234.368.327.138.093.323.14.553.14h1.612v-2.194h-1.612a.92.92 0 00-.507.14c-.138.093-.276.186-.368.326-.138.094-.231.327-.231.608z" fill="#A7A9AC"/></svg>