<svg width="20" height="20" fill="none" xmlns="http://www.w3.org/2000/svg"><path d="M7.099 0l.414.414a2.934 2.934 0 01.432 3.594l4.191 2.832.073-.073a4.106 4.106 0 015.8 0l.414.415-5.206 5.206L20 19.171l-.829.829-6.783-6.783-5.206 5.206-.415-.414a4.106 4.106 0 010-5.8l.073-.073-2.832-4.191a2.934 2.934 0 01-3.594-.432L0 7.099 7.099 0zm.124 16.724l9.502-9.5a2.935 2.935 0 00-3.688.372l-5.441 5.441c-1 1-1.125 2.55-.373 3.687zm.46-5.432l3.61-3.608L7.17 4.899 4.9 7.171l2.785 4.121zM3.73 6.684L6.684 3.73a1.76 1.76 0 00.344-2l-5.3 5.299a1.76 1.76 0 002-.344z" fill="#8A2C5B"/></svg>