<?xml version="1.0" encoding="utf-8"?><svg xmlns="http://www.w3.org/2000/svg" xmlns:xlink="http://www.w3.org/1999/xlink"><symbol fill="none" viewBox="0 0 12 12" id="arr-down" xmlns="http://www.w3.org/2000/svg"><path d="M2 6l4.243 4.243L10.485 6"/></symbol><symbol viewBox="0 0 18.7 35.4" id="arrow" xmlns="http://www.w3.org/2000/svg"><path d="M18.7 17L1.5 0 .1 1.4l16.2 16.3L0 34l1.6 1.4 17.1-17z"/></symbol><symbol viewBox="0 0 15.642 15.642" id="close" xmlns="http://www.w3.org/2000/svg"><path fill-rule="evenodd" d="M8.882 7.821l6.541-6.541A.75.75 0 1 0 14.362.219L7.821 6.76 1.28.22A.75.75 0 1 0 .219 1.281L6.76 7.822l-6.54 6.54a.75.75 0 0 0 1.06 1.061l6.541-6.541 6.541 6.541a.75.75 0 1 0 1.06-1.061l-6.54-6.541z"/></symbol><symbol viewBox="0 0 30 30" id="sub-blog" xmlns="http://www.w3.org/2000/svg"><g clip-path="url(#dclip0)"><path d="M4.098 5.21a1.17 1.17 0 1 1 2.341 0 1.17 1.17 0 0 1-2.341 0zm5.269 1.171a1.17 1.17 0 1 0 0-2.341 1.17 1.17 0 0 0 0 2.341zM30 24.524l-4.975 4.987-8.088-7.866a4.146 4.146 0 0 1-.999-1.62l-.018-.056-1.252-5.59 5.576 1.268.053.018c.605.2 1.163.544 1.614.993L30 24.524zm-3.333.026l-6.406-6.23a1.732 1.732 0 0 0-.14-.127l-1.656 1.654c.039.048.08.094.123.138L25 26.221l1.667-1.671zm-8.46 1.735l2.407 2.342H3.512A3.516 3.516 0 0 1 0 25.114V4.04A3.516 3.516 0 0 1 3.512.527H26.46a3.516 3.516 0 0 1 3.513 3.513v17.075l-2.342-2.278V9.894H2.341v15.22c0 .646.526 1.171 1.171 1.171h14.694zM2.341 4.04v3.512h25.29V4.04c0-.646-.526-1.171-1.172-1.171H3.512c-.645 0-1.17.525-1.17 1.17z"/></g><defs><clipPath id="dclip0"><path d="M0 0h30v30H0z"/></clipPath></defs></symbol><symbol viewBox="0 0 28 28" id="sub-fb" xmlns="http://www.w3.org/2000/svg"><g clip-path="url(#eclip0)"><path d="M18.663 4.65h2.556V.196C20.78.137 19.262 0 17.495 0c-3.685 0-6.21 2.318-6.21 6.579V10.5H7.218v4.977h4.067V28h4.987V15.478h3.902l.62-4.977H16.27V7.072c.002-1.438.389-2.423 2.393-2.423z"/></g><defs><clipPath id="eclip0"><path d="M0 0h28v28H0z"/></clipPath></defs></symbol><symbol viewBox="0 0 30 30" id="sub-inst" xmlns="http://www.w3.org/2000/svg"><g clip-path="url(#fclip0)"><path d="M29.97 8.82c-.07-1.594-.327-2.69-.697-3.64a7.32 7.32 0 0 0-1.735-2.66A7.382 7.382 0 0 0 24.884.791c-.955-.37-2.046-.627-3.64-.697C19.64.018 19.13 0 15.056 0c-4.073 0-4.583.018-6.183.088-1.594.07-2.69.328-3.64.697a7.32 7.32 0 0 0-2.66 1.735 7.386 7.386 0 0 0-1.73 2.655C.476 6.13.218 7.22.148 8.815.07 10.42.053 10.93.053 15.002c0 4.073.017 4.583.088 6.183.07 1.594.328 2.69.697 3.64a7.398 7.398 0 0 0 1.735 2.66 7.383 7.383 0 0 0 2.655 1.729c.955.369 2.045.627 3.64.697 1.599.07 2.109.088 6.182.088s4.583-.017 6.183-.088c1.594-.07 2.69-.328 3.639-.697a7.673 7.673 0 0 0 4.39-4.39c.369-.955.627-2.045.697-3.64.07-1.6.088-2.109.088-6.182s-.006-4.583-.076-6.183zm-2.7 12.249c-.066 1.465-.312 2.256-.517 2.783a4.976 4.976 0 0 1-2.848 2.849c-.527.205-1.324.45-2.784.515-1.582.07-2.057.088-6.06.088-4.002 0-4.483-.017-6.06-.088-1.464-.064-2.256-.31-2.783-.515a4.617 4.617 0 0 1-1.723-1.12 4.665 4.665 0 0 1-1.12-1.723c-.205-.527-.45-1.324-.515-2.784-.07-1.582-.088-2.057-.088-6.06 0-4.002.018-4.483.088-6.06.064-1.464.31-2.255.516-2.783A4.56 4.56 0 0 1 4.5 4.448a4.657 4.657 0 0 1 1.723-1.12c.527-.204 1.324-.45 2.784-.515 1.582-.07 2.057-.088 6.06-.088 4.008 0 4.483.018 6.06.088 1.464.065 2.256.31 2.783.516.65.24 1.242.62 1.723 1.119a4.683 4.683 0 0 1 1.12 1.723c.204.528.45 1.325.515 2.784.07 1.582.088 2.057.088 6.06 0 4.002-.018 4.471-.088 6.054z"/><path d="M15.056 7.296a7.709 7.709 0 0 0-7.707 7.707 7.708 7.708 0 0 0 7.707 7.706 7.708 7.708 0 0 0 7.706-7.706 7.708 7.708 0 0 0-7.706-7.707zm0 12.706a5 5 0 1 1 .001-10 5 5 0 0 1-.001 10zm9.81-13.01a1.8 1.8 0 1 1-3.599 0 1.8 1.8 0 0 1 3.6 0z"/></g><defs><clipPath id="fclip0"><path d="M0 0h30v30H0z"/></clipPath></defs></symbol><symbol viewBox="0 0 30 30" id="sub-vk" xmlns="http://www.w3.org/2000/svg"><g clip-path="url(#gclip0)"><path d="M24.894 16.285c-.485-.613-.346-.885 0-1.433.006-.006 4.01-5.538 4.422-7.415h.003c.205-.684 0-1.187-.991-1.187h-3.28c-.835 0-1.22.431-1.427.914 0 0-1.67 3.997-4.032 6.588-.763.75-1.115.99-1.531.99-.206 0-.524-.24-.524-.925v-6.38c0-.82-.234-1.187-.925-1.187H11.45c-.524 0-.835.383-.835.739 0 .777 1.181.956 1.304 3.144v4.746c0 1.04-.189 1.231-.607 1.231-1.116 0-3.822-4.014-5.426-8.607-.323-.892-.64-1.252-1.48-1.252H1.124C.189 6.251 0 6.682 0 7.165c0 .853 1.115 5.091 5.185 10.691 2.713 3.823 6.532 5.894 10.008 5.894 2.088 0 2.343-.46 2.343-1.251 0-3.653-.189-3.998.858-3.998.485 0 1.32.24 3.27 2.084 2.228 2.186 2.595 3.165 3.842 3.165h3.28c.935 0 1.409-.46 1.136-1.367-.623-1.91-4.838-5.835-5.028-6.098z"/></g><defs><clipPath id="gclip0"><path d="M0 0h30v30H0z"/></clipPath></defs></symbol><symbol viewBox="0 0 28 28" id="sub-yt" xmlns="http://www.w3.org/2000/svg"><path d="M25.41 14.175c-.29-1.257-1.318-2.184-2.556-2.322-2.93-.327-5.897-.329-8.85-.327-2.954-.002-5.92 0-8.851.327-1.237.139-2.265 1.066-2.554 2.322-.412 1.79-.417 3.745-.417 5.588s0 3.797.412 5.587c.29 1.256 1.317 2.184 2.554 2.322 2.93.328 5.897.329 8.85.328 2.955.001 5.92 0 8.852-.328 1.237-.138 2.265-1.066 2.554-2.322.412-1.79.414-3.744.414-5.587 0-1.844.003-3.797-.409-5.588zM8.923 15.563h-1.71v9.09h-1.59v-9.09h-1.68v-1.49h4.98v1.49zm4.316 9.09h-1.43v-.86c-.567.651-1.107.969-1.632.969-.46 0-.777-.187-.92-.586-.078-.238-.126-.616-.126-1.172V16.77h1.428v5.803c0 .335 0 .509.013.556.034.222.143.334.334.334.287 0 .586-.22.903-.669V16.77h1.43v7.882zm5.426-2.366c0 .73-.049 1.255-.144 1.589-.191.586-.573.886-1.141.886-.509 0-.999-.282-1.477-.872v.764h-1.428v-10.58h1.428v3.455c.462-.568.951-.855 1.477-.855.568 0 .95.3 1.14.89.097.316.145.838.145 1.584v3.14zm5.39-1.315H21.2v1.397c0 .73.239 1.095.73 1.095.352 0 .556-.192.638-.573.013-.078.032-.395.032-.968h1.457v.209c0 .46-.018.777-.03.92-.048.316-.16.603-.334.855-.396.573-.982.855-1.728.855-.747 0-1.316-.269-1.729-.807-.303-.395-.458-1.016-.458-1.854v-2.76c0-.843.138-1.46.441-1.858.413-.54.981-.808 1.711-.808.717 0 1.285.268 1.685.808.3.398.442 1.015.442 1.857v1.632z"/><path d="M21.917 17.96c-.477 0-.716.365-.716 1.093v.73h1.428v-.73c0-.728-.24-1.093-.712-1.093zm-5.3 0c-.236 0-.474.111-.713.347v4.805c.239.239.477.352.713.352.412 0 .62-.352.62-1.064v-3.364c0-.711-.208-1.076-.62-1.076zm.797-7.16c.527 0 1.075-.32 1.65-.98v.87h1.443V2.723h-1.444v6.09c-.32.451-.623.675-.912.675-.193 0-.306-.115-.338-.338-.018-.048-.018-.223-.018-.561V2.723h-1.439v6.3c0 .562.049.943.128 1.184.145.404.466.592.93.592zM7.365 6.36v4.33h1.6V6.36L10.891 0H9.272L8.18 4.198 7.044 0H5.359c.338.99.689 1.987 1.026 2.979.514 1.49.835 2.614.98 3.381zm5.672 4.44c.723 0 1.285-.273 1.684-.816.303-.399.448-1.027.448-1.874V5.32c0-.85-.145-1.473-.448-1.876-.399-.545-.96-.817-1.684-.817-.72 0-1.281.272-1.68.817-.308.403-.453 1.025-.453 1.877v2.79c0 .846.145 1.474.452 1.873.4.543.961.815 1.68.815zm-.69-5.769c0-.737.224-1.104.69-1.104.465 0 .688.367.688 1.104v3.351c0 .737-.223 1.106-.688 1.106-.466 0-.69-.369-.69-1.106v-3.35z"/></symbol></svg>