<svg width="640" height="324" fill="none" xmlns="http://www.w3.org/2000/svg"><g clip-path="url(#clip0)"><path d="M36.77 75.37l-10.825 55.688 55.691 10.824 10.825-55.687L36.77 75.37z" fill="#A7A9AC"/><path d="M81.903 103.431c-.087 0-.173 0-.26-.043l-39.48-8.519a1.276 1.276 0 01-.995-1.556c.13-.692.821-1.125 1.556-.995l39.481 8.518c.692.13 1.168.822.995 1.557-.173.605-.692 1.038-1.297 1.038zm-2.811 7.091c-.087 0-.173 0-.26-.043l-38.097-8.216c-.692-.129-1.124-.821-.995-1.556.13-.692.822-1.125 1.557-.995l38.097 8.216c.692.13 1.125.821.995 1.556-.173.649-.692 1.038-1.297 1.038zm-11.373 5.665c-.087 0-.173 0-.26-.043l-29.189-6.27a1.277 1.277 0 01-.995-1.557c.13-.692.822-1.124 1.557-.994l29.19 6.269c.691.13 1.167.822.994 1.557-.173.605-.692 1.038-1.297 1.038z" fill="#2E186A"/><path d="M51.99 102.143L.002 124.864l22.722 51.982 51.987-22.72-22.723-51.983z" fill="#A7A9AC"/><path d="M19.935 139.796c-.52 0-.995-.303-1.211-.822-.26-.648.043-1.427.692-1.686l24.519-10.075c.648-.259 1.427.043 1.686.692.26.648-.043 1.427-.692 1.686l-24.475 10.075c-.173.087-.346.13-.52.13zm4.973 8.864a1.3 1.3 0 01-1.21-.821c-.26-.649.042-1.427.691-1.687l11.503-4.713c.648-.259 1.427.043 1.686.692.26.649-.043 1.427-.692 1.686l-11.502 4.714a.875.875 0 01-.476.129z" fill="#2E186A"/><path d="M30.184 108.836l-.562 3.113 21.708-8.086 16.908 35.414 3.07.605-18.638-39.435-22.486 8.389z" fill="#fff"/><path d="M361.297 0H640v159.514c0 15.177-12.324 27.501-27.503 27.501H388.8c-15.178 0-27.503-12.324-27.503-27.501V0z" fill="#8A2C5B"/><path d="M514.421 120.122s-10.378 2.68-12.67-6.962c0 0 8.043-3.503 12.67 6.962z" fill="#fff"/><path d="M490.508 95.302a18.452 18.452 0 003.762 1.686 7.934 7.934 0 00-1.427 6.27 7.708 7.708 0 003.935 5.664c-.519 3.157-1.427 7.697-2.465 9.297-.519.778-.216 1.946.649 2.638s1.989.562 2.508-.216c1.513-2.335 2.551-8.043 3.027-11.113.086 0 .13 0 .216-.043 3.633-.692 6.011-4.627 5.319-8.821a8.122 8.122 0 00-1.513-3.546 18.84 18.84 0 0010.335-6.789c5.578-7.48 3.805-17.382-4.065-22.139-7.87-4.756-18.724-2.551-24.303 4.886-5.578 7.438-3.805 17.426 4.022 22.226z" fill="#fff"/><path d="M451.287 168.075l-39.698-7.697-11.935-24.257 6.746-34.549 55.698 10.81-10.811 55.693z" fill="#A7A9AC"/><path d="M447.611 124.23h-.216l-32.562-5.795a1.29 1.29 0 01-1.038-1.513 1.314 1.314 0 011.513-1.038l32.562 5.794c.692.13 1.168.779 1.038 1.514a1.347 1.347 0 01-1.297 1.038zm-.995 5.707h-.216l-32.562-5.794a1.291 1.291 0 01-1.038-1.513 1.315 1.315 0 011.514-1.038l32.562 5.794c.692.13 1.167.778 1.038 1.514a1.34 1.34 0 01-1.298 1.037zm-14.14 3.676h-.216l-19.373-3.46a1.29 1.29 0 01-1.038-1.513 1.315 1.315 0 011.514-1.038l19.373 3.459c.691.13 1.167.779 1.037 1.514a1.347 1.347 0 01-1.297 1.038zm-19.892 27.155c-.087 0-.173 0-.303-.044a1.35 1.35 0 01-.994-1.556l4.281-19.199-14.746-2.983c-.692-.13-1.168-.822-.995-1.514.13-.692.822-1.167 1.514-.994l16.043 3.243c.346.086.649.259.822.562.173.302.259.648.173.994l-4.541 20.453a1.293 1.293 0 01-1.254 1.038z" fill="#fff"/><path d="M63.351 260.783c-6.27 0-11.848-1.298-16.518-3.935-14.703-8.259-21.32-28.971-19.633-61.618 1.254-24.258 10.508-43.37 27.46-56.774 21.621-17.08 56.259-25.253 103.048-24.302 37.189.736 75.503 6.962 108.065 12.973 16.822 3.113 31.741-.13 44.281-9.557 17.47-13.145 27.416-36.148 32.692-53.185 5.751-18.507 7.351-34.03 7.351-34.203.087-.649.606-1.168 1.298-1.168h9.902c.735 0 1.298.562 1.298 1.297 0 .736-.563 1.298-1.298 1.298h-8.735c-.475 3.978-2.421 17.728-7.308 33.554-5.405 17.383-15.611 40.949-33.643 54.483-13.146 9.902-28.757 13.275-46.314 10.032-47.394-8.735-158.4-29.144-209.038 10.853-16.346 12.929-25.254 31.393-26.508 54.872-1.643 31.566 4.54 51.499 18.292 59.239 22.444 12.583 58.162-11.545 58.508-11.761a1.32 1.32 0 011.817.346 1.318 1.318 0 01-.346 1.816c-.39.259-9.384 6.4-21.449 10.983-8.432 3.157-16.26 4.757-23.222 4.757z" fill="#8A2C5B"/><path d="M352.173 26.506h7.179c1.081 0 1.946.865 1.946 1.946v3.762a1.938 1.938 0 01-1.946 1.946h-7.179a1.937 1.937 0 01-1.945-1.946v-3.762c-.044-1.08.864-1.946 1.945-1.946zM114.206 242.578c3.675-3.026 4.929-21.966-10.508-13.62-15.438 8.345-4.022 20.409 3.545 17.253 7.568-3.157 6.963-3.633 6.963-3.633z" fill="#A7A9AC"/><path d="M63.308 304.801c-.432 0-.908-.173-1.21-.562-20.758-24.82-28.282-50.505-22.358-76.362 3.546-15.524 11.979-31.177 25.081-46.527 10.422-12.237 23.784-24.301 39.741-35.89 27.114-19.717 52.757-31.349 53.016-31.478.779-.346 1.73-.001 2.076.778.346.778 0 1.729-.778 2.075-.26.13-25.6 11.675-52.498 31.177-24.692 17.944-55.74 46.44-63.567 80.556-5.708 24.864 1.6 49.64 21.708 73.639.562.692.475 1.686-.216 2.248-.26.26-.65.346-.995.346z" fill="#8A2C5B"/><path d="M65.038 306.444c4.022 2.595 22.4-1.859 9.86-14.096-12.541-12.237-20.67 2.205-15.438 8.518 5.275 6.27 5.578 5.578 5.578 5.578zm92.54-195.749h17.428c3.156 0 5.751 2.552 5.751 5.708a5.748 5.748 0 01-5.751 5.751h-17.428a5.749 5.749 0 01-5.751-5.751c.043-3.156 2.595-5.708 5.751-5.708z" fill="#A7A9AC"/><path d="M573.751 204.484l17.557 5.491c8.951 2.811 13.924 12.281 11.113 21.231l-17.34 55.348c-2.811 8.951-12.281 13.923-21.233 11.113l-17.513-5.492c-8.951-2.81-13.924-12.28-11.114-21.231l17.341-55.391c2.767-8.907 12.281-13.88 21.189-11.069z" fill="#fff"/><path d="M568.908 299.742c-1.816 0-3.676-.259-5.492-.821l-17.514-5.492c-4.67-1.47-8.432-4.627-10.724-8.951-2.249-4.324-2.681-9.253-1.254-13.923l17.341-55.391c2.983-9.599 13.275-14.961 22.875-11.978l17.514 5.492c4.67 1.47 8.475 4.627 10.724 8.951 2.249 4.324 2.681 9.253 1.254 13.923l-17.34 55.391c-1.471 4.67-4.627 8.432-8.952 10.724a18.154 18.154 0 01-8.432 2.075zm-.216-94.739c-6.66 0-12.844 4.28-14.963 10.983l-17.34 55.391c-2.595 8.215 2.032 17.036 10.248 19.587l17.514 5.492c3.978 1.254 8.216.865 11.935-1.081 3.719-1.946 6.443-5.189 7.697-9.21l17.341-55.391c1.254-3.978.865-8.216-1.081-11.934-1.946-3.719-5.189-6.443-9.211-7.697l-17.513-5.492a16.86 16.86 0 00-4.627-.648z" fill="#2E186A"/><path d="M558.356 265.02s3.892-.086 3.892 3.503c0 0-3.113.562-3.892-3.503z" fill="#2E186A"/><path d="M564.756 275.787c-.346-.346-.778-.649-1.21-.908a3.027 3.027 0 001.037-2.119c.087-.865-.259-1.729-.908-2.335.433-1.081 1.125-2.594 1.644-3.07.259-.259.259-.692 0-.994a.634.634 0 00-.865-.173s-.044 0-.044.043c-.735.692-1.556 2.638-1.989 3.675h-.086c-1.341-.043-2.508 1.168-2.595 2.681-.043.476.043.951.26 1.384-1.557 0-3.027.562-4.238 1.557-2.595 2.162-2.768 5.837-.389 8.172 2.508 2.335 6.356 2.465 8.994.259 2.595-2.205 2.768-5.837.389-8.172zm-256.37-105.298l-114.451 18.49 21.823 135.061 114.451-18.49-21.823-135.061z" fill="#2E186A"/><path d="M264.926 157.661l-98.977 38.863 45.867 116.8 98.977-38.863-45.867-116.8z" fill="#fff"/><path d="M211.805 314.617c-.173 0-.346-.043-.519-.13a1.293 1.293 0 01-.692-.735l-45.838-116.749a1.327 1.327 0 010-.995c.13-.302.39-.562.736-.691l98.983-38.873c.649-.26 1.427.086 1.687.735l45.881 116.792c.259.648-.086 1.427-.735 1.686l-98.984 38.873a2.135 2.135 0 01-.519.087zm-44.194-117.355l44.929 114.371 96.562-37.922-44.886-114.37-96.605 37.921z" fill="#2E186A"/><path d="M161.124 221.434a1.954 1.954 0 01-1.816-1.254c-.389-.995.086-2.162 1.124-2.551l18.292-7.178c.995-.389 2.162.086 2.551 1.124.39.995-.086 2.162-1.124 2.551l-18.292 7.178c-.259.087-.475.13-.735.13zm7.611 19.372a1.953 1.953 0 01-1.816-1.254c-.389-.995.086-2.162 1.124-2.552l18.292-7.177c.995-.39 2.162.086 2.551 1.124.389.994-.086 2.162-1.124 2.551l-18.292 7.178c-.259.086-.476.13-.735.13zm7.611 19.371a1.952 1.952 0 01-1.816-1.254c-.39-.994.086-2.162 1.124-2.551l18.292-7.178c.994-.389 2.162.087 2.551 1.124.389.995-.086 2.162-1.124 2.552l-18.292 7.177c-.26.087-.476.13-.735.13zm7.611 19.415a1.953 1.953 0 01-1.817-1.254c-.389-.994.087-2.162 1.125-2.551l18.292-7.178c.994-.389 2.162.087 2.551 1.124.389.995-.087 2.162-1.124 2.552l-18.292 7.177a2.01 2.01 0 01-.735.13zm7.61 19.372a1.953 1.953 0 01-1.816-1.254c-.389-.995.086-2.162 1.124-2.551l18.292-7.178c.995-.389 2.162.086 2.551 1.124.389.994-.086 2.162-1.124 2.551l-18.292 7.178a2.01 2.01 0 01-.735.13z" fill="#2E186A"/><path d="M199.697 221.996c-.519 0-.995-.303-1.211-.822-.259-.648.087-1.427.735-1.686l35.07-13.75c.649-.26 1.427.086 1.687.735.259.648-.087 1.427-.735 1.686l-35.07 13.75a2.189 2.189 0 01-.476.087zm16.432.649c-.518 0-.994-.303-1.21-.822-.26-.649.086-1.427.735-1.686l35.07-13.751c.649-.259 1.427.087 1.687.735.259.649-.087 1.427-.736 1.687l-35.07 13.75c-.173.043-.303.087-.476.087zm-13.881 5.448c-.519 0-.994-.303-1.211-.822-.259-.648.087-1.427.735-1.686l7.136-2.811c.648-.259 1.427.087 1.686.735.26.649-.086 1.427-.735 1.687l-7.135 2.81a2.189 2.189 0 01-.476.087zm8.606 21.966c-.519 0-.995-.303-1.211-.821-.26-.649.086-1.427.735-1.687l12.151-4.756c.649-.26 1.427.086 1.687.735.259.648-.087 1.427-.735 1.686l-12.152 4.757c-.173.043-.302.086-.475.086zm-2.768-7.005c-.519 0-.995-.303-1.211-.822-.259-.648.087-1.427.735-1.686l21.665-8.518c.649-.26 1.427.086 1.687.735.259.648-.087 1.427-.735 1.686l-21.665 8.518c-.13.044-.303.087-.476.087zm-3.07-7.87c-.519 0-.995-.302-1.211-.821-.26-.649.086-1.427.735-1.687l12.151-4.756c.649-.26 1.427.086 1.687.735.259.649-.087 1.427-.735 1.686l-12.152 4.757a1.554 1.554 0 01-.475.086zm17.513-6.875c-.519 0-.994-.303-1.21-.822-.26-.648.086-1.427.735-1.686l20.194-7.913c.649-.26 1.427.086 1.687.735.259.649-.087 1.427-.735 1.686l-20.195 7.913c-.13.044-.303.087-.476.087zm46.27-31.998l-2.248 8.259.216 78.352h4.541l-.217-78.352-2.292-8.259z" fill="#A7A9AC"/><path d="M266.767 281.495a1.274 1.274 0 01-1.297-1.298c0-.735.562-1.297 1.297-1.297h6.876l-.346-17.642c0-.735.562-1.34 1.297-1.34.735 0 1.341.562 1.341 1.297l.389 18.982c0 .346-.13.692-.389.952-.26.259-.563.389-.952.389l-8.216-.043zm.995-72.731h2.508c1.081 0 1.903.865 1.903 1.946l-.13 18.983c0 1.081-.865 1.902-1.946 1.902h-2.508c-1.081 0-1.903-.865-1.903-1.946l.13-18.982c.043-1.038.908-1.903 1.946-1.903zm1.124 55.997c-.043 0-.043 0 0 0-.778 0-1.34-.605-1.297-1.341l.259-10.118a1.25 1.25 0 011.341-1.254 1.25 1.25 0 011.254 1.341l-.26 10.118c0 .692-.605 1.254-1.297 1.254z" fill="#8A2C5B"/><path d="M246.4 178.323l-1.125 8.475 10.638 77.617 4.498-.606-10.638-77.616-3.373-7.87z" fill="#A7A9AC"/><path d="M202.119 60.234l30.66-4.065 2.118 16.042-30.659 4.065a7.744 7.744 0 01-8.692-6.66l-.086-.69c-.563-4.195 2.421-8.087 6.659-8.692z" fill="#fff"/><path d="M203.2 77.66c-4.454 0-8.346-3.286-8.951-7.827l-.087-.692c-.302-2.378.303-4.756 1.773-6.659a8.878 8.878 0 015.795-3.416c.043 0 .13-.043.173-.043l30.659-4.064a1.24 1.24 0 01.952.259c.259.216.432.519.519.865l2.119 16.042c.086.692-.39 1.384-1.125 1.47l-30.659 4.065c-.389-.043-.779 0-1.168 0zm-.735-16.129c-.043 0-.13.043-.173.043a6.252 6.252 0 00-4.238 2.465c-1.038 1.384-1.513 3.07-1.254 4.757l.087.691c.475 3.503 3.719 6.01 7.221 5.535l29.362-3.892-1.773-13.447-29.232 3.848z" fill="#2E186A"/><path d="M267.287 97.853c22.33 0 40.432-18.101 40.432-40.43s-18.102-40.43-40.432-40.43c-22.33 0-40.433 18.101-40.433 40.43s18.103 40.43 40.433 40.43z" fill="#fff"/><path d="M267.287 99.193c-23.006 0-41.773-18.723-41.773-41.726 0-23.004 18.724-41.77 41.773-41.77 23.048 0 41.729 18.722 41.729 41.77 0 23.047-18.724 41.726-41.729 41.726zm0-80.902c-21.579 0-39.179 17.555-39.179 39.175 0 21.577 17.557 39.133 39.179 39.133 21.578 0 39.135-17.556 39.135-39.133 0-21.62-17.557-39.175-39.135-39.175z" fill="#2E186A"/><path d="M267.287 86.048c15.81 0 28.627-12.816 28.627-28.625s-12.817-28.625-28.627-28.625c-15.811 0-28.627 12.816-28.627 28.625 0 15.81 12.816 28.625 28.627 28.625zm221.015 129.549l.087 43.586c0 3.718-2.984 6.745-6.703 6.745l-110.876.216c-3.718 0-6.745-2.983-6.745-6.702l-.087-43.586c0-3.719 2.984-6.746 6.703-6.746l110.875-.216c3.719-.043 6.746 2.984 6.746 6.703z" fill="#A7A9AC"/><path d="M373.145 263.204c-1.686-.043-3.243-.692-4.411-1.902-1.167-1.211-1.773-2.768-1.773-4.454l-.086-39.349c0-1.686.605-3.286 1.773-4.454 1.168-1.21 2.724-1.859 4.411-1.859l105.946-.216c3.459.043 6.227 2.897 6.184 6.356v9.556c0 .735-.563 1.297-1.298 1.297h-1.946l.044 17.599h1.945c.736 0 1.298.562 1.298 1.297v9.557c.043 3.459-2.725 6.313-6.141 6.356l-105.946.216zm105.817-49.683l-105.903.216c-.952 0-1.903.389-2.552 1.081a3.86 3.86 0 00-1.037 2.595v.043l.086 39.392c0 .994.346 1.902 1.038 2.637.692.736 1.6 1.081 2.595 1.125l105.902-.217c1.989-.043 3.633-1.729 3.589-3.718v-8.346h-.735c-1.383 0-2.508-1.167-2.508-2.551l-.043-17.728c-.043-1.384 1.081-2.508 2.465-2.552h.778v-8.302c0-1.989-1.643-3.632-3.675-3.675z" fill="#fff"/></g><defs><clipPath id="clip0"><path fill="#fff" d="M0 0h640v324H0z"/></clipPath></defs></svg>