<svg width="640" height="526" fill="none" xmlns="http://www.w3.org/2000/svg"><path d="M565.566 423.088c-.789 0-1.466-.507-1.635-1.295-11.559-47.297-3.327-80.686 5.695-100.336 9.755-21.453 22.16-31.475 22.668-31.925.733-.563 1.804-.451 2.368.281.564.732.451 1.802-.282 2.365-.113.113-12.405 10.079-21.822 30.855-8.683 19.144-16.69 51.745-5.356 97.972.225.901-.339 1.802-1.241 2.027-.113.056-.282.056-.395.056z" fill="#1E1E1E"/><path d="M574.927 398.765c-1.297-1.127-1.917-2.759-1.748-4.449 3.552-32.657 18.325-66.271 41.331-78.602 23.627-12.669 39.753 22.522 6.992 55.179-24.641 24.606-37.835 28.603-42.854 29.11-1.409.113-2.763-.338-3.721-1.238z" fill="#A7A9AC"/><path d="M551.639 422.075c-.733 0-1.409-.507-1.635-1.239-.056-.225-7.048-24.549-27.178-26.294a1.617 1.617 0 01-1.523-1.802 1.617 1.617 0 011.805-1.52c22.498 1.914 29.885 27.645 30.167 28.715.225.901-.282 1.858-1.184 2.084-.17.056-.282.056-.452.056zm24.078-22.804a1.5 1.5 0 01-.677-.169 1.692 1.692 0 01-.846-2.252c16.465-37.443 57.853-79.053 58.248-79.503.677-.676 1.748-.676 2.368 0 .677.676.677 1.745 0 2.365-.394.394-41.331 41.609-57.571 78.433a1.554 1.554 0 01-1.522 1.126z" fill="#1E1E1E"/><path d="M590.997 372.583a1.736 1.736 0 01-1.579-1.013 1.61 1.61 0 01.903-2.196c18.438-8.052 35.354-7.545 36.031-7.545.958.056 1.692.788 1.635 1.745-.056.957-.789 1.633-1.748 1.633-.169 0-16.86-.45-34.565 7.263-.226.113-.451.113-.677.113z" fill="#1E1E1E"/><path d="M587.331 377.368c-.845 0-1.579-.675-1.691-1.52-1.579-16.272 18.495-52.42 19.397-53.941a1.731 1.731 0 012.312-.675c.789.45 1.127 1.464.676 2.308-.225.338-20.412 36.768-18.946 51.97.113.901-.564 1.746-1.522 1.858h-.226zm-7.386 13.739a1.771 1.771 0 01-1.466-.788c-.508-.788-.226-1.858.563-2.309 10.432-6.475 25.939-5.968 26.559-5.968a1.733 1.733 0 011.635 1.745c-.056.958-.789 1.633-1.748 1.633-.169 0-15.112-.45-24.641 5.462-.282.169-.564.225-.902.225z" fill="#1E1E1E"/><path d="M545.719 368.923c-1.748 1.238-3.778 1.407-5.357.563-30.844-16.948-56.894-48.592-57.289-82.713-.451-35.078 43.192-42.454 58.924 11.937 11.842 40.934 9.022 59.346 6.88 65.933-.564 1.689-1.692 3.21-3.158 4.28z" fill="#A7A9AC"/><path d="M543.688 371.625c-.846 0-1.523-.619-1.692-1.464-.112-.845-12.856-84.909-47.816-103.771-.846-.45-1.128-1.464-.677-2.308.452-.845 1.466-1.126 2.312-.676 15.394 8.277 28.419 28.772 38.682 60.81 7.612 23.704 10.826 45.269 10.883 45.495.112.9-.508 1.801-1.41 1.914h-.282z" fill="#1E1E1E"/><path d="M531.62 322.189a1.6 1.6 0 01-1.24-.563c-10.376-11.43-38.005-24.381-46.238-28.097-.846-.394-1.24-1.407-.846-2.252.395-.845 1.41-1.239 2.256-.845 8.402 3.773 36.539 17.005 47.365 28.885.62.676.564 1.746-.113 2.365-.394.338-.789.507-1.184.507zm5.754 17.399c-.339 0-.734-.113-1.015-.338-.734-.563-.903-1.633-.339-2.365 3.383-4.448 4.286-18.468 2.425-38.456-.113-.958.62-1.746 1.522-1.858.902-.113 1.748.619 1.861 1.52 1.41 14.921 1.974 34.121-3.101 40.821-.339.451-.79.676-1.353.676zm1.691 13.062c-.17 0-.395-.056-.564-.113-1.128-.394-28.194-9.741-40.824-19.875-.734-.564-.846-1.633-.226-2.365.564-.732 1.635-.845 2.368-.226 12.123 9.798 39.471 19.257 39.753 19.313.902.282 1.353 1.239 1.071 2.14a1.642 1.642 0 01-1.578 1.126z" fill="#1E1E1E"/><path d="M526.436 384.164c.645-4.745-.083-8.762-1.626-8.971-1.543-.209-3.316 3.468-3.961 8.214-.645 4.745.082 8.761 1.625 8.97 1.543.21 3.317-3.468 3.962-8.213z" fill="#8A2C5B"/><path d="M522.416 392.323c.912-1.104-1.076-4.244-4.439-7.014-3.363-2.77-6.828-4.121-7.74-3.018-.911 1.104 1.076 4.244 4.439 7.014 3.364 2.77 6.829 4.121 7.74 3.018z" fill="#8A2C5B"/><path d="M531.396 390.668c4.193-2.194 7.005-5.089 6.283-6.466-.723-1.377-4.708-.715-8.9 1.479-4.193 2.194-7.006 5.089-6.283 6.466.723 1.377 4.708.715 8.9-1.479zm-14.628 7.673c3.823-2.093 6.363-4.807 5.674-6.061-.688-1.254-4.346-.574-8.168 1.519-3.823 2.094-6.364 4.807-5.675 6.061.689 1.255 4.346.574 8.169-1.519z" fill="#8A2C5B"/><path d="M529.047 406.83c1.304-.594.883-4.309-.939-8.298-1.823-3.989-4.356-6.742-5.66-6.148-1.303.593-.882 4.308.94 8.297 1.822 3.99 4.356 6.742 5.659 6.149zm70.975-120.408c3.157-5.505 3.548-11.208.873-12.738-2.676-1.53-7.404 1.692-10.562 7.197-3.157 5.505-3.548 11.208-.872 12.738 2.675 1.53 7.403-1.692 10.561-7.197z" fill="#8A2C5B"/><path d="M600.193 298.991c6.289-.127 11.337-2.75 11.274-5.859-.063-3.109-5.213-5.527-11.502-5.4-6.29.128-11.337 2.751-11.274 5.86.063 3.109 5.212 5.526 11.502 5.399z" fill="#8A2C5B"/><path d="M588.671 293.818c2.225-1.65 1.287-6.671-2.093-11.213-3.381-4.543-7.925-6.887-10.15-5.236-2.224 1.651-1.287 6.671 2.094 11.214 3.381 4.542 7.925 6.886 10.149 5.235z" fill="#8A2C5B"/><path d="M592.814 302.724c2.309-5.169 2.152-10.263-.351-11.378-2.502-1.115-6.403 2.172-8.712 7.341-2.309 5.168-2.152 10.262.351 11.377 2.503 1.115 6.403-2.171 8.712-7.34z" fill="#8A2C5B"/><path d="M584.734 298.132c5.047-.543 8.919-3.013 8.649-5.517-.27-2.504-4.58-4.094-9.627-3.551-5.047.543-8.919 3.013-8.649 5.517.27 2.504 4.581 4.094 9.627 3.551z" fill="#8A2C5B"/><path d="M611.804 426.015l-20.863 94.368H524.63l-20.864-94.368c-1.184-5.405 2.199-10.698 6.823-10.698h94.392c4.68 0 8.007 5.293 6.823 10.698z" fill="#fff"/><path d="M590.94 522.073h-66.255c-.789 0-1.466-.563-1.635-1.351l-20.863-94.368c-.733-3.435 0-6.982 2.086-9.572 1.635-2.083 3.947-3.209 6.372-3.209h94.392c2.425 0 4.68 1.126 6.372 3.209 2.086 2.534 2.875 6.137 2.086 9.572l-20.863 94.368c-.226.788-.902 1.351-1.692 1.351zm-64.901-3.378h63.548l20.581-93.017c.508-2.421 0-4.955-1.41-6.7-1.015-1.239-2.311-1.915-3.721-1.915h-94.392c-1.41 0-2.707.676-3.722 1.915-1.409 1.802-1.973 4.279-1.409 6.7l20.525 93.017z" fill="#1E1E1E"/><path d="M492.939 251.695c-1.974-13.176-12.01-23.761-25.092-26.464-10.883-2.252-21.878-4.561-24.98-5.349l-.394 1.689-69.413-5.349-.733-9.797-29.265.282c-33.043 3.04-57.74 55.742-69.976 87.78l-6.767 17.792 51.538-19.594c-.169 9.684.733 19.313 3.214 28.378 12.462 46.508-12.123 60.584-12.123 60.584l-13.42 60.979-16.352-1.126v81.587l174.348-.338-2.706-140.651 42.121-130.403zm-42.121 78.264v-.676l.113.676h-.113z" fill="#8A2C5B"/><path d="M452.735 453.549l-171.924 1.689-1.579 67.905h174.293l-.79-69.594zM326.314 276.413c-.225 0-.507-.056-.733-.169-.845-.394-1.184-1.407-.789-2.252l10.319-20.945c.395-.845 1.41-1.183 2.255-.789.846.394 1.184 1.408.79 2.253l-10.319 20.945c-.282.62-.902.957-1.523.957z" fill="#1E1E1E"/><path d="M439.878 208.453c-.79 0-1.523-.113-2.312-.282-.903-.225-1.466-1.126-1.241-2.083.226-.901 1.128-1.464 2.086-1.239 5.244 1.351 11.56-4.73 14.097-13.57 1.353-4.786 1.466-9.628.169-13.4-.282-.901.17-1.858 1.072-2.14.902-.281 1.86.169 2.142 1.07 1.466 4.392 1.466 10.022-.112 15.428-2.763 9.628-9.417 16.216-15.901 16.216zm-85.65-14.133c-.79 0-1.523-.113-2.312-.282-.902-.225-1.466-1.126-1.241-2.083.226-.901 1.128-1.464 2.087-1.239 5.244 1.352 11.559-4.729 14.096-13.569 1.354-4.786 1.41-9.629.17-13.401-.282-.901.169-1.858 1.071-2.14.902-.281 1.861.169 2.143 1.07 1.466 4.392 1.466 10.022-.113 15.428-2.82 9.628-9.473 16.216-15.901 16.216z" fill="#8A2C5B"/><path d="M458.261 104.681c-12.011-11.486-14.153-63.85 26.22-93.58 40.881-30.066 66.593 9.347 72.119 19.595 5.526 10.248 7.274 36.599-27.348 56.868-34.621 20.27-57.289 30.236-70.991 17.117z" fill="#1E1E1E"/><path d="M436.046 124.895l.733.619c4.68 3.773 11.502 3.322 15.562-1.07l11.447-12.274c3.891-4.054 3.778-10.473-.226-14.414a3.533 3.533 0 00-.507-.45l-.733-.62c-4.68-3.773-11.503-3.322-15.563 1.07l-11.446 12.274c-3.891 4.054-3.835 10.473.225 14.414.169.113.338.282.508.451z" fill="#8A2C5B"/><path d="M413.671 141.074c14.962-14.388 19.998-33.406 11.249-42.477-8.749-9.072-27.971-4.762-42.932 9.626-14.962 14.389-19.998 33.407-11.249 42.478 8.749 9.072 27.971 4.762 42.932-9.627z" fill="#1E1E1E"/><path d="M406.554 140.66c11.954 16.667 28.024 24.662 41.613 24.324 14.435-.338 24.923-31.531 12.969-48.197-11.954-16.667-44.545-27.59-55.823-20.045-11.277 7.545-10.713 27.195 1.241 43.918z" fill="#1E1E1E"/><path d="M452.096 176.525c6.484-2.113 10.112-8.81 8.102-14.959-2.009-6.15-8.894-9.422-15.378-7.309-6.484 2.112-10.111 8.809-8.102 14.959 2.01 6.149 8.895 9.421 15.378 7.309z" fill="#fff"/><path d="M448.053 178.892c-5.808 0-11.164-3.547-12.969-9.122-2.312-7.038 1.805-14.695 9.191-17.116 7.387-2.422 15.225 1.351 17.537 8.389 2.312 7.038-1.805 14.696-9.191 17.117a14.342 14.342 0 01-4.568.732zm.733-23.592c-1.127 0-2.312.169-3.496.563-5.582 1.802-8.74 7.601-6.992 12.838 1.692 5.236 7.669 8.051 13.251 6.249 5.583-1.801 8.74-7.601 6.992-12.837-1.353-4.167-5.356-6.813-9.755-6.813z" fill="#1E1E1E"/><path d="M368.811 161.05c6.481-2.12 10.1-8.822 8.084-14.968-2.017-6.147-8.905-9.411-15.387-7.291-6.481 2.12-10.1 8.821-8.083 14.968 2.016 6.146 8.905 9.411 15.386 7.291z" fill="#fff"/><path d="M364.826 163.407c-5.808 0-11.164-3.547-13.025-9.121-1.128-3.435-.79-7.095.958-10.36 1.748-3.21 4.624-5.631 8.177-6.813 7.386-2.421 15.224 1.351 17.536 8.389 2.312 7.038-1.804 14.696-9.191 17.117-1.41.507-2.932.788-4.455.788zm.733-23.592c-1.127 0-2.312.169-3.496.563-2.706.901-4.962 2.703-6.259 5.181-1.297 2.421-1.579 5.123-.733 7.657 1.748 5.237 7.669 8.052 13.251 6.25 5.583-1.802 8.74-7.601 6.992-12.838-1.353-4.223-5.357-6.813-9.755-6.813z" fill="#1E1E1E"/><path d="M391.217 192.236l-5.469 16.667-14.999-.958c-1.467 2.084-13.815 41.554 23.964 47.072 24.81 3.659 42.121-14.471 54.132-32.094l-20.694-4.392 13.645-47.409-50.579 21.114z" fill="#fff"/><path d="M400.972 257.1c-2.142 0-4.341-.169-6.541-.507-12.912-1.914-21.596-7.826-25.768-17.567-5.808-13.57-.564-30.405.676-32.15.339-.507.902-.732 1.466-.732l13.702.9 5.075-15.427c.169-.451.508-.845.959-1.014l50.523-21.171a1.885 1.885 0 011.804.282c.507.394.677 1.126.507 1.745l-13.081 45.72 18.889 3.998a1.747 1.747 0 011.241 1.014 1.586 1.586 0 01-.169 1.576c-7.5 10.98-14.943 18.975-22.724 24.437-8.402 5.968-17.311 8.896-26.559 8.896zm-29.208-47.466c-1.297 3.548-5.019 17.737.451 29.054 3.834 8.052 11.503 12.95 22.724 14.583 18.72 2.759 35.016-6.588 51.03-29.279l-18.213-3.885a1.7 1.7 0 01-1.071-.788 1.864 1.864 0 01-.169-1.351l12.63-44.031-46.575 19.482-5.244 15.934c-.226.732-.959 1.182-1.692 1.182l-13.871-.901z" fill="#1E1E1E"/><path d="M443.949 166.625c8.453-26.356-1.331-53.042-21.853-59.605-20.522-6.563-44.011 9.482-52.465 35.838-8.453 26.355 1.331 53.042 21.853 59.605 20.522 6.563 44.011-9.482 52.465-35.838z" fill="#fff"/><path d="M400.916 205.637c-3.327 0-6.654-.507-9.924-1.521-21.371-6.813-31.69-34.515-22.95-61.71 8.74-27.196 33.212-43.75 54.583-36.937 21.371 6.813 31.69 34.516 22.95 61.711-7.387 23.029-26.108 38.457-44.659 38.457zm-29.66-62.274c-8.176 25.45 1.185 51.181 20.751 57.488a28.691 28.691 0 008.965 1.407c17.086 0 34.453-14.527 41.389-36.091 8.176-25.394-1.185-51.182-20.751-57.488-19.623-6.306-42.177 9.29-50.354 34.684z" fill="#1E1E1E"/><path d="M401.818 167.8h-.282l-7.33-1.183a2.7 2.7 0 01-1.861-1.182 2.912 2.912 0 01-.507-2.14c.056-.225.112-.45.169-.619l7.894-19.369c.338-.845 1.353-1.295 2.199-.901.846.338 1.297 1.351.902 2.196l-7.668 18.75 6.71 1.126a1.74 1.74 0 011.409 1.914c-.113.845-.846 1.408-1.635 1.408zm24.528-28.941c-.451 0-.959-.226-1.297-.564-.226-.225-4.906-5.461-9.586-2.252-.789.507-1.804.338-2.368-.45-.508-.788-.339-1.802.451-2.365 5.808-3.998 11.728.113 14.097 2.815.62.732.507 1.746-.17 2.365-.338.282-.733.451-1.127.451zm-41.67-3.941c-.338 0-.677-.113-.959-.282-.789-.563-.958-1.576-.394-2.365 4.003-5.63 11.108-3.941 14.322-2.252.846.451 1.128 1.464.733 2.309a1.702 1.702 0 01-2.255.732c-.282-.169-6.71-3.435-9.981 1.238-.451.338-.959.62-1.466.62zm33.432 17.776c.235-2.445-.906-4.555-2.549-4.713-1.643-.158-3.166 1.697-3.401 4.142-.235 2.445.906 4.556 2.549 4.713 1.643.158 3.165-1.697 3.401-4.142zm-27.353-2.125c.493-2.407-.42-4.625-2.037-4.955-1.617-.329-3.327 1.355-3.819 3.762s.42 4.625 2.037 4.955c1.618.329 3.327-1.355 3.819-3.762zm46.361-40.144s-15.563 6.419-14.661 16.272l-66.367-4.335s-6.936-50.281 72.457-26.182l8.571 14.245z" fill="#1E1E1E"/><path d="M432.492 112.677s-5.244 32.938 16.07 41.947l.395-29.166-16.465-12.781z" fill="#1E1E1E"/><path d="M352.367 194.094c-.169 0-.282 0-.451-.056l-.225-.056c-7.218-2.084-10.319-12.275-7.162-23.254 3.158-10.924 11.278-17.905 18.439-15.822a1.728 1.728 0 011.184 2.083 1.732 1.732 0 01-2.086 1.183c-5.188-1.464-11.729 4.729-14.266 13.513-2.537 8.84-.338 17.567 4.849 19.031l.169.056c.903.226 1.466 1.183 1.185 2.084-.226.732-.903 1.238-1.636 1.238zm85.65 14.133c-.169 0-.338 0-.451-.056l-.225-.057c-3.553-1.013-6.259-4.11-7.556-8.671-1.241-4.279-1.072-9.459.394-14.527 1.466-5.067 4.117-9.515 7.443-12.499 3.553-3.153 7.444-4.336 10.996-3.322.902.281 1.41 1.182 1.128 2.083-.282.901-1.184 1.408-2.087 1.126-2.424-.676-5.187.225-7.837 2.59-2.876 2.59-5.132 6.419-6.429 10.923-1.296 4.505-1.409 9.009-.394 12.669.958 3.435 2.819 5.687 5.244 6.363l.225.056c.902.281 1.41 1.182 1.128 2.083-.169.732-.846 1.239-1.579 1.239z" fill="#8A2C5B"/><path d="M401.76 182.383c-1.297 0-2.537-.112-3.552-.281a1.74 1.74 0 01-1.41-1.915 1.741 1.741 0 011.917-1.407c.62.112 14.04 2.083 17.367-8.784.282-.901 1.241-1.408 2.087-1.126.902.281 1.409 1.239 1.127 2.083-2.65 9.122-11.277 11.43-17.536 11.43z" fill="#1E1E1E"/><path d="M223.069 456.252l-17.931 65.652h107.755l-17.48-66.216-72.344.564z" fill="#4E2D5E"/><path d="M399.787 458.673H127.72a5.41 5.41 0 01-5.414-5.405l1.523-175.279c0-2.984.902-8.502 3.834-8.502h272.068a5.41 5.41 0 015.413 5.406v178.375c.056 2.984-2.368 5.405-5.357 5.405z" fill="#4E2D5E"/><path d="M257.523 502.309c-8.12 0-14.717-6.587-14.717-14.695s6.597-14.696 14.717-14.696c8.119 0 14.717 6.588 14.717 14.696s-6.598 14.695-14.717 14.695zm0-26.013c-6.259 0-11.334 5.068-11.334 11.318s5.075 11.317 11.334 11.317c6.259 0 11.333-5.067 11.333-11.317s-5.074-11.318-11.333-11.318zm43.193 45.552c-.789 0-1.466-.507-1.635-1.295l-14.379-61.204c-.225-.901.338-1.802 1.241-2.027.902-.225 1.804.338 2.03 1.239l14.378 61.204c.226.901-.338 1.802-1.24 2.027-.169 0-.282.056-.395.056zM143.394 281.366h229.044a6.18 6.18 0 016.203 6.194v148.871a6.18 6.18 0 01-6.203 6.194H143.394a6.18 6.18 0 01-6.203-6.194V287.56c0-3.379 2.763-6.194 6.203-6.194z" fill="#fff"/><path d="M372.439 444.315H143.395c-4.342 0-7.894-3.547-7.894-7.883V287.56c0-4.335 3.552-7.882 7.894-7.882h229.044c4.342 0 7.895 3.547 7.895 7.882v148.872c0 4.336-3.553 7.883-7.895 7.883zM143.395 283.056c-2.481 0-4.511 2.027-4.511 4.504v148.872c0 2.477 2.03 4.504 4.511 4.504h229.044c2.481 0 4.511-2.027 4.511-4.504V287.56c0-2.477-2.03-4.504-4.511-4.504H143.395zm248.78 175.673a1.66 1.66 0 01-1.692-1.689V271.007a1.66 1.66 0 011.692-1.689 1.66 1.66 0 011.692 1.689V457.04c0 .901-.733 1.689-1.692 1.689z" fill="#fff"/><path d="M40.94 510.812h185.795a3.15 3.15 0 013.158 3.153v5.912a3.15 3.15 0 01-3.158 3.153H40.94a3.15 3.15 0 01-3.158-3.153v-5.912c-.056-1.689 1.41-3.153 3.158-3.153zm322.928 0h56.838a3.15 3.15 0 013.158 3.153v5.912a3.15 3.15 0 01-3.158 3.153h-56.838a3.15 3.15 0 01-3.158-3.153v-5.912c0-1.689 1.41-3.153 3.158-3.153zM257.523 365.037l58.98-29.899a66.172 66.172 0 017.162 29.899c0 36.204-29.829 65.99-66.086 65.99-20.13 0-39.189-9.178-51.707-24.887l51.651-41.103z" fill="#8A2C5B"/><path d="M362.797 316.163h-54.582a1.574 1.574 0 01-1.579-1.576c0-.901.676-1.577 1.579-1.577h54.582c.846 0 1.579.676 1.579 1.577 0 .901-.733 1.576-1.579 1.576zm0 7.32h-29.096a1.575 1.575 0 01-1.579-1.576c0-.901.677-1.577 1.579-1.577h29.096c.845 0 1.578.676 1.578 1.577 0 .9-.733 1.576-1.578 1.576zm.001 7.433h-19.341a1.575 1.575 0 01-1.579-1.576c0-.901.677-1.577 1.579-1.577h19.341c.845 0 1.578.676 1.578 1.577 0 .9-.733 1.576-1.578 1.576zm1.635 83.162h-70.541a1.576 1.576 0 01-1.579-1.576c0-.901.677-1.577 1.579-1.577h70.541c.845 0 1.578.676 1.578 1.577 0 .9-.733 1.576-1.578 1.576zm0 5.8h-13.195a1.575 1.575 0 01-1.578-1.577c0-.901.676-1.576 1.578-1.576h13.195c.846 0 1.579.675 1.579 1.576s-.733 1.577-1.579 1.577zM217.432 310.083h-42.065a1.575 1.575 0 01-1.578-1.576c0-.901.676-1.577 1.578-1.577h42.065a1.575 1.575 0 110 3.153zm-33.607 5.968h-8.458a1.575 1.575 0 01-1.578-1.577c0-.901.676-1.576 1.578-1.576h8.458c.846 0 1.579.675 1.579 1.576s-.733 1.577-1.579 1.577z" fill="#1E1E1E"/><path d="M195.329 408.899c-.451 0-.902-.225-1.241-.563-8.965-11.261-13.984-25.338-14.096-39.695 0-.845.676-1.577 1.522-1.577l63.605-.732c.676 0 1.24.394 1.466 1.014a1.58 1.58 0 01-.508 1.745l-49.789 39.47a1.536 1.536 0 01-.959.338zm-12.18-38.738c.451 12.612 4.85 24.943 12.462 35.022l44.997-35.642-57.459.62zm1.071-5.462c-.394 0-.789-.169-1.127-.45a1.572 1.572 0 01-.451-1.126v-.845c0-8.108 1.466-15.991 4.398-23.536a1.634 1.634 0 012.03-.901l59.263 22.973c.676.282 1.127 1.014.958 1.746-.113.732-.789 1.295-1.522 1.295l-63.549.844c.057 0 0 0 0 0zm5.244-23.367c-2.368 6.476-3.552 13.288-3.665 20.214l53.906-.732-50.241-19.482zm70.484 16.441c-.395 0-.846-.168-1.128-.506a1.613 1.613 0 01-.225-1.858l31.351-55.067c.451-.732 1.41-1.014 2.143-.563 11.277 6.419 20.355 15.934 26.163 27.533.169.394.226.789.113 1.183a1.396 1.396 0 01-.79.901l-56.894 28.209c-.282.112-.507.168-.733.168zm31.915-54.503l-28.024 49.267 50.861-25.225c-5.301-9.966-13.195-18.186-22.837-24.042z" fill="#8A2C5B"/><path d="M283.912 302.65c-9.473-5.461-20.243-8.333-31.182-8.389h-1.071c-25.938.281-49.113 16.216-58.586 40.314l59.206 23.142 31.633-55.067zm-90.501 78.04h-42.065a1.575 1.575 0 01-1.578-1.577c0-.901.676-1.576 1.578-1.576h42.065c.846 0 1.579.675 1.579 1.576s-.733 1.577-1.579 1.577zm-26.839 5.968h-15.168a1.574 1.574 0 01-1.579-1.576c0-.901.677-1.577 1.579-1.577h15.168c.846 0 1.579.676 1.579 1.577 0 .901-.733 1.576-1.579 1.576z" fill="#1E1E1E"/><path d="M342.442 364.193l-8.852-21.678c-2.707-4.504 1.353-8.445 5.808-5.067 2.368 1.745 4.341 3.998 5.864 6.475 5.864 9.685 18.833 29.955 18.156 29.166-.676-.788-20.976-8.896-20.976-8.896z" fill="#fff"/><path d="M363.362 374.835c-.395 0-.789-.169-1.128-.395-1.24-.788-11.39-5.011-20.468-8.671-.395-.168-.733-.506-.959-.9l-8.796-21.565c-1.861-3.153-1.015-6.081.677-7.545 2.029-1.802 5.018-1.633 7.668.394a23.935 23.935 0 016.259 6.982c2.989 4.898 7.838 12.612 11.729 18.806a1472.33 1472.33 0 004.623 7.319c.564.958 1.072 1.69 1.354 2.253.564.9 1.297 2.139.056 3.04a2.114 2.114 0 01-1.015.282zm-19.623-11.937c7.443 3.04 12.18 5.011 15.225 6.306-1.015-1.633-2.256-3.547-3.44-5.518-3.89-6.193-8.74-13.964-11.728-18.862-1.41-2.365-3.214-4.392-5.413-6.025-1.297-1.013-2.651-1.239-3.384-.563-.62.563-.845 1.858.057 3.378.056.057.056.169.113.226l8.57 21.058z" fill="#1E1E1E"/><path d="M411.179 356.478l-46.688 10.304-22.893-11.655-30.562-9.291c-3.722-1.126-6.485 3.604-3.609 6.25 1.523 1.408 24.528 9.122 24.528 9.122l-29.264-3.266c-1.861-.225-3.553 1.182-3.778 3.04a3.255 3.255 0 00.733 2.478c1.917 2.365 5.356 2.534 9.98 3.603 2.82.62 20.863 2.759 20.863 2.759l-25.825 1.802c-6.372.732-6.202 9.854 5.977 8.333 6.316-.788 13.984-.732 19.341-2.196l-17.48 5.012c-5.752 3.491.169 9.966 24.81 2.533 14.999 12.05 22.837 14.302 36.37 6.363.056-.056 45.279-7.432 45.279-7.432l-7.782-27.759z" fill="#fff"/><path d="M359.415 397.807c-7.274 0-13.984-3.942-22.611-10.811-18.044 5.293-26.22 3.322-27.855-.282-.62-1.463-.395-3.547 2.086-5.292-.113 0-.225 0-.338.056-6.936.845-9.812-1.464-10.939-2.984-1.128-1.52-1.41-3.435-.677-5.18.846-1.971 2.819-3.266 5.244-3.547h.056l8.628-.62a303.653 303.653 0 01-3.947-.619 55.073 55.073 0 00-2.594-.563c-3.44-.676-6.428-1.295-8.346-3.66-.845-1.07-1.24-2.421-1.071-3.716.169-1.352.79-2.59 1.861-3.435a5.38 5.38 0 013.778-1.126l14.153 1.577c-5.357-1.971-9.924-3.717-10.714-4.449-1.86-1.689-2.255-4.335-1.015-6.587 1.297-2.253 3.778-3.266 6.259-2.534l30.562 9.29c.113.057.169.057.282.113l22.386 11.43 46.124-10.135c.903-.169 1.748.338 1.974 1.182l7.669 27.646c.112.451.056.958-.226 1.352-.282.394-.677.675-1.128.732-14.604 2.364-41.895 6.813-44.94 7.376-5.47 3.322-10.15 4.786-14.661 4.786zm-22.216-14.302c.394 0 .733.113 1.071.394 15.112 12.106 22.16 13.401 34.396 6.194.339-.225.339-.225 43.982-7.32l-6.654-24.268-45.166 9.967c-.394.056-.789.056-1.127-.169l-22.781-11.599-30.449-9.234c-1.127-.338-1.973.281-2.368.957-.395.675-.507 1.633.338 2.365 1.41.957 13.251 5.18 23.965 8.783.846.282 1.297 1.126 1.128 1.971-.17.844-.959 1.408-1.861 1.295l-29.265-3.266a1.633 1.633 0 00-1.297.394c-.338.282-.564.732-.62 1.183-.057.45.056.901.338 1.238 1.128 1.408 3.327 1.859 6.372 2.422.846.169 1.748.337 2.65.563 2.143.506 14.491 2.027 20.694 2.759.846.112 1.523.844 1.466 1.745 0 .845-.677 1.577-1.579 1.633l-25.769 1.802c-1.184.169-2.142.732-2.481 1.52-.282.619-.169 1.239.282 1.802.395.563 2.256 2.365 7.782 1.633 2.312-.282 4.849-.451 7.274-.676 4.229-.282 8.57-.619 11.841-1.52a1.732 1.732 0 012.086 1.182 1.728 1.728 0 01-1.184 2.083l-17.254 4.955c-.846.563-1.072 1.014-1.015 1.183.62 1.351 7.556 3.378 24.641-1.802.225-.169.395-.169.564-.169z" fill="#1E1E1E"/><path d="M443.263 263.237l48.38-17.905 24.698 116.609c1.635 12.161-6.372 23.592-18.382 26.238l-124.616 17.567a7.242 7.242 0 01-7.668-5.799l-.113-38.232c-.79-3.941 1.748-7.714 5.695-8.502.169-.056.395-.056.564-.112l81.536-8.052-10.094-81.812z" fill="#8A2C5B"/><path d="M467.509 351.975c-.846 0-1.579-.62-1.692-1.52-.958-8.39-14.096-8.728-15.562-8.728l-37.103 6.475a1.714 1.714 0 01-1.974-1.351c-.169-.901.451-1.802 1.354-1.971l37.271-6.531h.282c.733 0 17.706-.113 19.059 11.768.113.901-.564 1.745-1.466 1.858h-.169z" fill="#1E1E1E"/><path d="M471.569 343.416a1.68 1.68 0 01-1.353-.676c-2.312-2.927-5.019-4.617-8.007-4.954-5.639-.676-10.714 3.265-10.77 3.322-.451.394-1.128.45-1.692.225-.563-.225-.958-.732-1.071-1.352l-8.853-61.823c-.112-.901.508-1.802 1.41-1.914.902-.113 1.804.506 1.917 1.407l8.515 59.29c2.424-1.351 6.428-3.041 10.939-2.478 3.947.451 7.443 2.591 10.318 6.25.564.732.452 1.802-.281 2.365a2.002 2.002 0 01-1.072.338z" fill="#1E1E1E"/><path d="M482.001 453.55a20 20 0 00-4.117-.113c-11.051.845-19.34 10.417-18.495 21.452.057 1.126.282 2.253.564 3.322a19.753 19.753 0 004.229 8.221c3.722 4.336 9.191 6.869 14.943 6.926v11.317c0 9.853 8.007 17.905 17.931 17.905h30.224c9.867 0 17.931-7.995 17.931-17.905v-44.2a6.926 6.926 0 00-6.936-6.925h-56.274zm-9.868 28.209a10.945 10.945 0 01-3.834-7.545c-.451-6.081 4.116-11.374 10.262-11.881h.564v22.128c-2.594 0-5.075-.957-6.992-2.702z" fill="#4E2D5E"/><path d="M513.972 498.538v2.421a1.876 1.876 0 01-1.861 1.858 1.876 1.876 0 01-1.86-1.858v-2.534a15.069 15.069 0 01-5.132-1.802c-.958-.563-1.296-1.745-.845-2.759v-.056c.564-1.07 1.804-1.464 2.875-.957.057 0 .057.056.113.056a11.47 11.47 0 005.244 1.633c1.579 0 2.594-.563 2.594-1.689 0-3.491-10.432-1.408-10.432-8.39 0-3.04 2.143-5.123 5.583-5.743v-2.365c0-1.013.846-1.858 1.86-1.858 1.015 0 1.861.845 1.861 1.858v2.14c1.523.169 2.989.563 4.398 1.126 1.072.451 1.579 1.746 1.128 2.815 0 .057 0 .057-.056.113l-.057.113a2.1 2.1 0 01-2.819 1.013 13.678 13.678 0 00-4.455-1.126c-1.296 0-2.142.45-2.199 1.408 0 3.434 10.432 1.464 10.432 8.614.056 3.491-2.707 5.518-6.372 5.969z" fill="#fff"/><path d="M1.692 525.733A1.66 1.66 0 010 524.044c0-.958.733-1.69 1.692-1.69l627.281-3.941a1.66 1.66 0 011.691 1.689 1.66 1.66 0 01-1.691 1.689L1.692 525.733z" fill="#1E1E1E"/><g clip-path="url(#clip0)"><path d="M148.711 245h-22.158c-.88 0-1.553-.677-1.553-1.563V208.64c0-.885.673-1.562 1.553-1.562h22.158c.88 0 1.553.677 1.553 1.562v34.797c0 .886-.673 1.563-1.553 1.563zm-20.605-3.126h19.052v-31.671h-19.052v31.671zM183.5 245h-22.209c-.88 0-1.553-.677-1.553-1.563v-49.434c0-.886.673-1.563 1.553-1.563H183.5c.88 0 1.553.677 1.553 1.563v49.434c0 .886-.724 1.563-1.553 1.563zm-20.656-3.126h19.103v-46.309h-19.103v46.309zM218.238 245H196.08c-.88 0-1.553-.677-1.553-1.563v-72.563c0-.885.673-1.562 1.553-1.562h22.158c.88 0 1.553.677 1.553 1.562v72.563c0 .886-.673 1.563-1.553 1.563zm-20.604-3.126h19.051v-69.437h-19.051v69.437z" fill="#1E1E1E"/><path d="M252.975 150.871h-22.157v92.566h22.157v-92.566zm7.507-47.507a1.601 1.601 0 00-1.242-.364l-14.496 2.344c-.828.156-1.398.938-1.294 1.823.155.834.932 1.407 1.812 1.302l9.474-1.51-28.318 33.025-11.545-11.199c-.311-.313-.725-.469-1.139-.417-.414 0-.828.209-1.087.521l-37.896 44.277-10.975-8.282a1.56 1.56 0 00-2.019.104l-34.117 32.817c-.621.626-.621 1.615 0 2.188.57.573 1.502.625 2.123.052l33.081-31.931 11.13 8.386c.673.469 1.554.417 2.123-.208l37.74-44.121 11.597 11.147c.311.313.725.469 1.139.417.414 0 .828-.208 1.087-.521l30.182-35.266-.207 12.346c0 .886.673 1.563 1.501 1.563h.052c.828 0 1.553-.677 1.553-1.563L261 104.51a1.56 1.56 0 00-.518-1.146z" fill="#8A2C5B"/></g><defs><clipPath id="clip0"><path fill="#fff" transform="translate(125 103)" d="M0 0h136v142H0z"/></clipPath></defs></svg>