<svg width="703" height="526" fill="none" xmlns="http://www.w3.org/2000/svg"><path d="M503.4 25.6c-46.944 0-85 38.056-85 85s38.056 85 85 85 85-38.056 85-85-38.056-85-85-85z" stroke="#A7A9AC" stroke-width="2" stroke-miterlimit="10"/><path d="M351.5 25.6c-46.944 0-85 38.056-85 85s38.056 85 85 85 85-38.056 85-85-38.056-85-85-85z" stroke="#A7A9AC" stroke-width="2" stroke-miterlimit="10"/><path d="M199.5 25.6c-46.944 0-85 38.056-85 85s38.056 85 85 85 85-38.056 85-85-38.056-85-85-85zm152 151.9c-46.944 0-85 38.056-85 85s38.056 85 85 85 85-38.056 85-85-38.056-85-85-85z" stroke="#A7A9AC" stroke-width="2" stroke-miterlimit="10"/><path d="M298.108 115h3.804c2.491 0 4.096-1.362 4.096-3.336 0-1.979-1.605-3.256-4.096-3.256h-1.343v-1.591h4.495v-1.999h-6.956V115zm2.461-1.949v-2.734h1.343c1.074 0 1.66.576 1.66 1.327 0 .786-.586 1.407-1.66 1.407h-1.343zm8.104 4.813c1.75 0 2.62-.885 3.043-2.133l2.878-8.362-2.56-.005-1.427 5.448h-.079l-1.407-5.448h-2.546l2.715 7.914-.095.229c-.234.572-.761.582-1.476.348l-.537 1.765c.368.149.909.244 1.491.244zm8.922-10.5h-2.466l2.108 3.818-2.218 3.818h2.466l1.367-2.536 1.402 2.536h2.432l-2.213-3.818 2.133-3.818h-2.451l-1.303 2.515-1.257-2.515zm11.52 0h-5.399V115h2.351v-5.777h3.048v-1.859zm3.07 7.765c1.064 0 1.8-.412 2.217-1.193h.06V115h2.287v-5.19c0-1.616-1.437-2.546-3.381-2.546-2.053 0-3.216 1.034-3.41 2.426l2.242.08c.104-.487.507-.786 1.148-.786.597 0 .975.289.975.801v.025c0 .467-.507.566-1.81.681-1.546.129-2.839.701-2.839 2.391 0 1.511 1.049 2.247 2.511 2.247zm.751-1.591c-.562 0-.96-.268-.96-.775 0-.492.388-.791 1.079-.895.452-.065 1.009-.164 1.283-.308v.726c0 .745-.627 1.252-1.402 1.252zm4.927 1.462h.715c1.596 0 2.586-.994 2.715-3.58l.119-2.197h1.581V115h2.302v-7.636h-6.045l-.125 3.38c-.064 1.72-.373 2.382-1.034 2.382h-.243l.015 1.874zm8.256-5.777h2.411V115h2.307v-5.777h2.441v-1.859h-7.159v1.859zm11.655 5.921c2.003 0 3.321-.969 3.599-2.471l-2.232-.064c-.189.507-.686.78-1.322.78-.935 0-1.512-.621-1.512-1.556v-.065h5.091v-.606c0-2.516-1.531-3.898-3.699-3.898-2.307 0-3.788 1.581-3.788 3.948 0 2.446 1.462 3.932 3.863 3.932zm-1.467-4.787c.035-.761.637-1.338 1.442-1.338.8 0 1.377.557 1.387 1.338h-2.829zm6.333 7.507h2.431v-4.102h.05c.308.706.994 1.347 2.147 1.347 1.691 0 3.053-1.322 3.053-3.922 0-2.695-1.442-3.923-3.038-3.923-1.208 0-1.869.706-2.162 1.407h-.075v-1.307h-2.406v10.5zm2.381-6.682c0-1.248.517-2.019 1.407-2.019.9 0 1.397.791 1.397 2.019 0 1.233-.497 2.033-1.397 2.033-.89 0-1.407-.795-1.407-2.033zm10.138 3.962c2.148 0 3.481-1.248 3.545-3.137h-2.272c-.089.81-.577 1.253-1.243 1.253-.855 0-1.412-.721-1.412-2.078 0-1.347.562-2.068 1.412-2.068.696 0 1.149.472 1.243 1.252h2.272c-.054-1.879-1.427-3.102-3.55-3.102-2.401 0-3.853 1.601-3.853 3.943 0 2.331 1.442 3.937 3.858 3.937zm4.789-.144h2.431v-2.536h.706l1.676 2.536h2.849l-2.596-3.813 2.571-3.823h-2.814l-1.855 2.843h-.537v-2.843h-2.431V115zm10.724-3.147v-4.489h-2.302V115h2.342l2.436-4.504V115h2.302v-7.636h-2.337l-2.441 4.489zm9.895 3.291c2.003 0 3.321-.969 3.599-2.471l-2.232-.064c-.189.507-.686.78-1.322.78-.935 0-1.512-.621-1.512-1.556v-.065h5.091v-.606c0-2.516-1.531-3.898-3.699-3.898-2.307 0-3.788 1.581-3.788 3.948 0 2.446 1.461 3.932 3.863 3.932zm-1.467-4.787c.035-.761.637-1.338 1.442-1.338.8 0 1.377.557 1.387 1.338H399.1zm-78.911 27.507h2.431v-4.102h.049c.309.706.995 1.347 2.148 1.347 1.69 0 3.053-1.322 3.053-3.922 0-2.695-1.442-3.923-3.038-3.923-1.208 0-1.869.706-2.163 1.407h-.074v-1.307h-2.406v10.5zm2.381-6.682c0-1.248.517-2.019 1.407-2.019.9 0 1.397.791 1.397 2.019 0 1.233-.497 2.033-1.397 2.033-.89 0-1.407-.795-1.407-2.033zm10.143 3.962c2.004 0 3.321-.969 3.6-2.471l-2.233-.064c-.188.507-.686.78-1.322.78-.935 0-1.511-.621-1.511-1.556v-.065h5.091v-.606c0-2.516-1.532-3.898-3.699-3.898-2.307 0-3.789 1.581-3.789 3.948 0 2.446 1.462 3.932 3.863 3.932zm-1.466-4.787c.034-.761.636-1.338 1.441-1.338.801 0 1.378.557 1.387 1.338h-2.828zm6.332-2.993V135h10.734v-7.636h-2.302v5.762h-1.914v-5.762h-2.302v5.762h-1.914v-5.762h-2.302zm15.779 7.78c2.003 0 3.321-.969 3.599-2.471l-2.232-.064c-.189.507-.686.78-1.322.78-.935 0-1.512-.621-1.512-1.556v-.065h5.091v-.606c0-2.516-1.531-3.898-3.699-3.898-2.307 0-3.788 1.581-3.788 3.948 0 2.446 1.461 3.932 3.863 3.932zm-1.467-4.787c.035-.761.637-1.338 1.442-1.338.8 0 1.377.557 1.387 1.338h-2.829zm8.635-2.993h-2.302V135h2.302v-2.913h2.262V135h2.287v-7.636h-2.287v2.868h-2.262v-2.868zm8.326 4.489v-4.489h-2.302V135h2.342l2.436-4.504V135h2.301v-7.636h-2.336l-2.441 4.489zm10.76 3.147h2.262v-7.636h-3.495c-2.089 0-3.406 1.064-3.391 2.585-.01.9.512 1.621 1.422 2.033L374.839 135h2.277l1.377-2.64h1.119V135zm0-4.181h-1.214c-.75 0-1.118-.373-1.108-.791-.01-.402.353-.81 1.089-.81h1.233v1.601zm-219.284-24.947c-2.491 0-4.31 1.636-4.31 4.211 0 2.501 1.789 4.067 4.31 4.067h.09v1.268h2.311v-1.268h.1c2.505 0 4.295-1.586 4.295-4.052 0-2.58-1.79-4.226-4.295-4.226h-.1v-1.233h-2.311v1.233h-.09zm0 2.034h.09v4.21h-.09c-1.143 0-2.058-.611-2.058-2.033 0-1.516.885-2.177 2.058-2.177zm2.401 0h.115c1.158 0 2.013.676 2.013 2.192 0 1.372-.855 2.018-2.013 2.018h-.115v-4.21zm8.128 3.947v-4.489h-2.302V115h2.341l2.436-4.504V115h2.302v-7.636h-2.336l-2.441 4.489zm8.627-4.489h-2.302V115h2.302v-2.913h2.262V115h2.287v-7.636h-2.287v2.868h-2.262v-2.868zm8.177 7.765c1.064 0 1.799-.412 2.217-1.193h.06V115h2.287v-5.19c0-1.616-1.437-2.546-3.381-2.546-2.053 0-3.217 1.034-3.411 2.426l2.243.08c.104-.487.507-.786 1.148-.786.597 0 .974.289.974.801v.025c0 .467-.507.566-1.809.681-1.546.129-2.839.701-2.839 2.391 0 1.511 1.049 2.247 2.511 2.247zm.75-1.591c-.561 0-.959-.268-.959-.775 0-.492.388-.791 1.079-.895.452-.065 1.009-.164 1.282-.308v.726c0 .745-.626 1.252-1.402 1.252zm7.602-6.174h-2.302V115h2.302v-2.913h2.262V115h2.287v-7.636h-2.287v2.868h-2.262v-2.868zm9.589 7.78c2.148 0 3.48-1.248 3.545-3.137h-2.272c-.09.81-.577 1.253-1.243 1.253-.855 0-1.412-.721-1.412-2.078 0-1.347.562-2.068 1.412-2.068.696 0 1.148.472 1.243 1.252h2.272c-.055-1.879-1.427-3.102-3.55-3.102-2.401 0-3.853 1.601-3.853 3.943 0 2.331 1.442 3.937 3.858 3.937zm8.353 0c2.402 0 3.858-1.586 3.858-3.937 0-2.357-1.456-3.943-3.858-3.943-2.401 0-3.858 1.586-3.858 3.943 0 2.351 1.457 3.937 3.858 3.937zm.015-1.834c-.9 0-1.397-.855-1.397-2.118 0-1.268.497-2.128 1.397-2.128.87 0 1.367.86 1.367 2.128 0 1.263-.497 2.118-1.367 2.118zm5.089 1.69h3.808c2.028 0 3.137-.746 3.137-2.098 0-.94-.756-1.785-2.307-1.869 1.173-.199 1.84-.801 1.84-1.591 0-1.357-1.213-2.078-3.182-2.078h-3.296V115zm2.262-1.76v-1.437h1.546c.512 0 .83.284.83.746 0 .433-.318.691-.83.691h-1.546zm0-2.754v-1.318h1.034c.562 0 .91.249.91.652 0 .417-.319.666-.846.666h-1.098zm8.188-.915v-2.207h-2.302V115h3.744c2.098 0 3.361-1.049 3.37-2.69-.009-1.68-1.272-2.739-3.37-2.739h-1.442zm5.499 5.429h2.431v-7.636h-2.431V115zm-5.499-3.57h1.442c.636 0 1.089.363 1.098.875-.009.493-.462.836-1.098.836h-1.442v-1.711zm13.039 3.714c2.004 0 3.321-.969 3.6-2.471l-2.233-.064c-.189.507-.686.78-1.322.78-.935 0-1.511-.621-1.511-1.556v-.065h5.09v-.606c0-2.516-1.531-3.898-3.698-3.898-2.307 0-3.789 1.581-3.789 3.948 0 2.446 1.462 3.932 3.863 3.932zm-1.466-4.787c.034-.761.636-1.338 1.441-1.338.801 0 1.377.557 1.387 1.338h-2.828zm-70.893 27.507h2.431v-4.102h.049c.309.706.995 1.347 2.148 1.347 1.69 0 3.053-1.322 3.053-3.922 0-2.695-1.442-3.923-3.038-3.923-1.208 0-1.869.706-2.163 1.407h-.074v-1.307h-2.406v10.5zm2.381-6.682c0-1.248.517-2.019 1.407-2.019.9 0 1.397.791 1.397 2.019 0 1.233-.497 2.033-1.397 2.033-.89 0-1.407-.795-1.407-2.033zm10.143 3.962c2.004 0 3.321-.969 3.6-2.471l-2.233-.064c-.188.507-.686.78-1.322.78-.935 0-1.511-.621-1.511-1.556v-.065h5.091v-.606c0-2.516-1.532-3.898-3.699-3.898-2.307 0-3.789 1.581-3.789 3.948 0 2.446 1.462 3.932 3.863 3.932zm-1.466-4.787c.034-.761.636-1.338 1.441-1.338.801 0 1.378.557 1.387 1.338h-2.828zm6.332-2.993V135h10.734v-7.636h-2.302v5.762h-1.914v-5.762h-2.302v5.762h-1.914v-5.762h-2.302zm15.779 7.78c2.003 0 3.321-.969 3.599-2.471l-2.232-.064c-.189.507-.686.78-1.322.78-.935 0-1.512-.621-1.512-1.556v-.065h5.091v-.606c0-2.516-1.531-3.898-3.699-3.898-2.307 0-3.788 1.581-3.788 3.948 0 2.446 1.461 3.932 3.863 3.932zm-1.467-4.787c.035-.761.637-1.338 1.442-1.338.8 0 1.377.557 1.387 1.338h-2.829zm8.635-2.993h-2.302V135h2.302v-2.913h2.262V135h2.287v-7.636h-2.287v2.868h-2.262v-2.868zm8.326 4.489v-4.489h-2.302V135h2.342l2.436-4.504V135h2.301v-7.636h-2.336l-2.441 4.489zm10.76 3.147h2.262v-7.636h-3.495c-2.089 0-3.406 1.064-3.391 2.585-.01.9.512 1.621 1.422 2.033L224.839 135h2.277l1.377-2.64h1.119V135zm0-4.181h-1.214c-.75 0-1.118-.373-1.108-.791-.01-.402.353-.81 1.089-.81h1.233v1.601zM464.156 115h2.461v-4.092h4.012V115h2.456v-10.182h-2.456v4.087h-4.012v-4.087h-2.461V115zm12.626.129c1.064 0 1.799-.412 2.217-1.193h.06V115h2.287v-5.19c0-1.616-1.437-2.546-3.381-2.546-2.053 0-3.217 1.034-3.411 2.426l2.243.08c.104-.487.507-.786 1.148-.786.597 0 .974.289.974.801v.025c0 .467-.507.566-1.809.681-1.546.129-2.839.701-2.839 2.391 0 1.511 1.049 2.247 2.511 2.247zm.75-1.591c-.561 0-.959-.268-.959-.775 0-.492.388-.791 1.079-.895.452-.065 1.009-.164 1.282-.308v.726c0 .745-.626 1.252-1.402 1.252zm4.927 1.462h.716c1.596 0 2.585-.994 2.715-3.58l.119-2.197h1.581V115h2.302v-7.636h-6.046l-.124 3.38c-.065 1.72-.373 2.382-1.034 2.382h-.244l.015 1.874zm12.483.144c2.401 0 3.858-1.586 3.858-3.937 0-2.357-1.457-3.943-3.858-3.943-2.402 0-3.858 1.586-3.858 3.943 0 2.351 1.456 3.937 3.858 3.937zm.015-1.834c-.9 0-1.397-.855-1.397-2.118 0-1.268.497-2.128 1.397-2.128.87 0 1.367.86 1.367 2.128 0 1.263-.497 2.118-1.367 2.118zm10.487-5.946h-5.399V115h2.352v-5.777h3.047v-1.859zm4.482 7.78c2.401 0 3.858-1.586 3.858-3.937 0-2.357-1.457-3.943-3.858-3.943s-3.858 1.586-3.858 3.943c0 2.351 1.457 3.937 3.858 3.937zm.015-1.834c-.9 0-1.397-.855-1.397-2.118 0-1.268.497-2.128 1.397-2.128.87 0 1.367.86 1.367 2.128 0 1.263-.497 2.118-1.367 2.118zm5.088 1.69h3.809c2.028 0 3.137-.746 3.137-2.098 0-.94-.756-1.785-2.307-1.869 1.173-.199 1.839-.801 1.839-1.591 0-1.357-1.213-2.078-3.181-2.078h-3.297V115zm2.262-1.76v-1.437h1.547c.512 0 .83.284.83.746 0 .433-.318.691-.83.691h-1.547zm0-2.754v-1.318h1.035c.561 0 .909.249.909.652 0 .417-.318.666-.845.666h-1.099zm8.189-.915v-2.207h-2.302V115h3.743c2.098 0 3.361-1.049 3.371-2.69-.01-1.68-1.273-2.739-3.371-2.739h-1.441zm5.498 5.429h2.431v-7.636h-2.431V115zm-5.498-3.57h1.441c.637 0 1.089.363 1.099.875-.01.493-.462.836-1.099.836h-1.441v-1.711zm13.039 3.714c2.003 0 3.321-.969 3.599-2.471l-2.232-.064c-.189.507-.686.78-1.322.78-.935 0-1.512-.621-1.512-1.556v-.065h5.091v-.606c0-2.516-1.531-3.898-3.699-3.898-2.306 0-3.788 1.581-3.788 3.948 0 2.446 1.462 3.932 3.863 3.932zm-1.467-4.787c.035-.761.637-1.338 1.442-1.338.8 0 1.377.557 1.387 1.338h-2.829zm-64.863 27.507h2.431v-4.102h.049c.309.706.995 1.347 2.148 1.347 1.69 0 3.053-1.322 3.053-3.922 0-2.695-1.442-3.923-3.038-3.923-1.208 0-1.869.706-2.163 1.407h-.074v-1.307h-2.406v10.5zm2.381-6.682c0-1.248.517-2.019 1.407-2.019.9 0 1.397.791 1.397 2.019 0 1.233-.497 2.033-1.397 2.033-.89 0-1.407-.795-1.407-2.033zm10.143 3.962c2.004 0 3.321-.969 3.6-2.471l-2.233-.064c-.188.507-.686.78-1.322.78-.935 0-1.511-.621-1.511-1.556v-.065h5.091v-.606c0-2.516-1.532-3.898-3.699-3.898-2.307 0-3.789 1.581-3.789 3.948 0 2.446 1.462 3.932 3.863 3.932zm-1.466-4.787c.034-.761.636-1.338 1.441-1.338.801 0 1.378.557 1.387 1.338h-2.828zm6.332-2.993V135h10.734v-7.636h-2.302v5.762h-1.914v-5.762h-2.302v5.762h-1.914v-5.762h-2.302zm15.779 7.78c2.003 0 3.321-.969 3.599-2.471l-2.232-.064c-.189.507-.686.78-1.322.78-.935 0-1.512-.621-1.512-1.556v-.065h5.091v-.606c0-2.516-1.531-3.898-3.699-3.898-2.307 0-3.788 1.581-3.788 3.948 0 2.446 1.461 3.932 3.863 3.932zm-1.467-4.787c.035-.761.637-1.338 1.442-1.338.8 0 1.377.557 1.387 1.338h-2.829zm8.635-2.993h-2.302V135h2.302v-2.913h2.262V135h2.287v-7.636h-2.287v2.868h-2.262v-2.868zm8.326 4.489v-4.489h-2.302V135h2.342l2.436-4.504V135h2.301v-7.636h-2.336l-2.441 4.489zm10.76 3.147h2.262v-7.636h-3.495c-2.089 0-3.406 1.064-3.391 2.585-.01.9.512 1.621 1.422 2.033L526.839 135h2.277l1.377-2.64h1.119V135zm0-4.181h-1.214c-.75 0-1.118-.373-1.108-.791-.01-.402.353-.81 1.089-.81h1.233v1.601zm-237.924 136.32h.796c1.71 0 2.456-1.059 3.002-2.252l3.5-8.069h-2.485l-1.82 4.574-2.262-4.574h-2.526l3.759 7.174-.114.313c-.199.642-.478.885-1.328.885h-.522v1.949zm7.777-.139h2.272v-5.777h2.322V267h2.302v-7.636h-6.896V267zm8.435 2.864h2.432v-4.102h.049c.309.706.995 1.347 2.148 1.347 1.69 0 3.053-1.322 3.053-3.922 0-2.695-1.442-3.923-3.038-3.923-1.208 0-1.869.706-2.163 1.407h-.074v-1.307H309.9v10.5zm2.382-6.682c0-1.248.517-2.019 1.407-2.019.9 0 1.397.791 1.397 2.019 0 1.233-.497 2.033-1.397 2.033-.89 0-1.407-.795-1.407-2.033zm8.726 3.947c1.064 0 1.8-.412 2.218-1.193h.059V267h2.287v-5.19c0-1.616-1.437-2.546-3.381-2.546-2.053 0-3.216 1.034-3.41 2.426l2.242.08c.105-.487.507-.786 1.149-.786.596 0 .974.289.974.801v.025c0 .467-.507.566-1.81.681-1.546.129-2.838.701-2.838 2.391 0 1.511 1.049 2.247 2.51 2.247zm.751-1.591c-.562 0-.96-.268-.96-.775 0-.492.388-.791 1.079-.895.453-.065 1.01-.164 1.283-.308v.726c0 .745-.626 1.252-1.402 1.252zm5.3 1.462h3.808c2.028 0 3.137-.746 3.137-2.098 0-.94-.756-1.785-2.307-1.869 1.173-.199 1.84-.801 1.84-1.591 0-1.357-1.213-2.078-3.182-2.078h-3.296V267zm2.262-1.76v-1.437h1.546c.512 0 .83.284.83.746 0 .433-.318.691-.83.691h-1.546zm0-2.754v-1.318h1.034c.562 0 .91.249.91.652 0 .417-.319.666-.846.666h-1.098zm5.513 4.514h.716c1.596 0 2.585-.994 2.715-3.58l.119-2.197h1.581V267h2.302v-7.636h-6.046l-.124 3.38c-.065 1.72-.373 2.382-1.034 2.382h-.244l.015 1.874zm12.488.144c2.003 0 3.321-.969 3.599-2.471l-2.232-.064c-.189.507-.686.78-1.323.78-.934 0-1.511-.621-1.511-1.556v-.065h5.091v-.606c0-2.516-1.531-3.898-3.699-3.898-2.307 0-3.788 1.581-3.788 3.948 0 2.446 1.461 3.932 3.863 3.932zm-1.467-4.787c.035-.761.636-1.338 1.442-1.338.8 0 1.377.557 1.387 1.338h-2.829zm8.634-2.993h-2.301V267h2.301v-2.913h2.263V267h2.286v-7.636h-2.286v2.868h-2.263v-2.868zm12.9 0h-2.286v3.574a4.433 4.433 0 01-.836.085c-1.173 0-1.481-.219-1.481-1.01v-2.654h-2.272v2.654c0 2.029 1.407 2.869 3.753 2.869.239 0 .537-.03.836-.084V267h2.286v-7.636zm5.048 7.78c2.003 0 3.321-.969 3.599-2.471l-2.232-.064c-.189.507-.686.78-1.322.78-.935 0-1.512-.621-1.512-1.556v-.065h5.091v-.606c0-2.516-1.531-3.898-3.699-3.898-2.307 0-3.788 1.581-3.788 3.948 0 2.446 1.462 3.932 3.863 3.932zm-1.467-4.787c.035-.761.637-1.338 1.442-1.338.8 0 1.377.557 1.387 1.338h-2.829zm9.897 4.787c2.148 0 3.481-1.248 3.545-3.137h-2.272c-.089.81-.577 1.253-1.243 1.253-.855 0-1.412-.721-1.412-2.078 0-1.347.562-2.068 1.412-2.068.696 0 1.149.472 1.243 1.252h2.272c-.054-1.879-1.427-3.102-3.55-3.102-2.401 0-3.853 1.601-3.853 3.943 0 2.331 1.442 3.937 3.858 3.937zm4.789-.144h2.431v-2.536h.706l1.676 2.536h2.849l-2.596-3.813 2.571-3.823h-2.814l-1.855 2.843h-.537v-2.843h-2.431V267zm10.724-3.147v-4.489h-2.302V267h2.342l2.436-4.504V267h2.302v-7.636h-2.337l-2.441 4.489zm9.895 3.291c2.003 0 3.321-.969 3.599-2.471l-2.232-.064c-.189.507-.686.78-1.322.78-.935 0-1.512-.621-1.512-1.556v-.065h5.091v-.606c0-2.516-1.531-3.898-3.699-3.898-2.307 0-3.788 1.581-3.788 3.948 0 2.446 1.461 3.932 3.863 3.932zm-1.467-4.787c.035-.761.637-1.338 1.442-1.338.8 0 1.377.557 1.387 1.338h-2.829zm-84.619 27.507h2.431v-4.102h.049c.309.706.995 1.347 2.148 1.347 1.69 0 3.053-1.322 3.053-3.922 0-2.695-1.442-3.923-3.038-3.923-1.208 0-1.869.706-2.163 1.407h-.074v-1.307h-2.406v10.5zm2.381-6.682c0-1.248.517-2.019 1.407-2.019.9 0 1.397.791 1.397 2.019 0 1.233-.497 2.033-1.397 2.033-.89 0-1.407-.795-1.407-2.033zm10.143 3.962c2.004 0 3.321-.969 3.6-2.471l-2.233-.064c-.188.507-.686.78-1.322.78-.935 0-1.511-.621-1.511-1.556v-.065h5.091v-.606c0-2.516-1.532-3.898-3.699-3.898-2.307 0-3.789 1.581-3.789 3.948 0 2.446 1.462 3.932 3.863 3.932zm-1.466-4.787c.034-.761.636-1.338 1.441-1.338.801 0 1.378.557 1.387 1.338h-2.828zm6.332-2.993V287h10.734v-7.636h-2.302v5.762h-1.914v-5.762h-2.302v5.762h-1.914v-5.762h-2.302zm15.779 7.78c2.003 0 3.321-.969 3.599-2.471l-2.232-.064c-.189.507-.686.78-1.322.78-.935 0-1.512-.621-1.512-1.556v-.065h5.091v-.606c0-2.516-1.531-3.898-3.699-3.898-2.307 0-3.788 1.581-3.788 3.948 0 2.446 1.461 3.932 3.863 3.932zm-1.467-4.787c.035-.761.637-1.338 1.442-1.338.8 0 1.377.557 1.387 1.338h-2.829zm8.635-2.993h-2.302V287h2.302v-2.913h2.262V287h2.287v-7.636h-2.287v2.868h-2.262v-2.868zm8.326 4.489v-4.489h-2.302V287h2.342l2.436-4.504V287h2.301v-7.636h-2.336l-2.441 4.489zm10.76 3.147h2.262v-7.636h-3.495c-2.089 0-3.406 1.064-3.391 2.585-.01.9.512 1.621 1.422 2.033L374.839 287h2.277l1.377-2.64h1.119V287zm0-4.181h-1.214c-.75 0-1.118-.373-1.108-.791-.01-.402.353-.81 1.089-.81h1.233v1.601z" fill="#1E1E1E"/><path d="M192.875 82.375a.936.936 0 00.663-.275l5.275-5.274 2.149 2.15a.945.945 0 00.663.274.94.94 0 00.663-.275l5.899-5.899v2.112a.94.94 0 00.937.937.937.937 0 00.938-.938l.001-4.374a.937.937 0 00-.938-.938h-4.375a.937.937 0 100 1.875h2.112l-5.237 5.237-2.15-2.15a.934.934 0 00-1.325 0l-5.938 5.938a.936.936 0 00.142 1.442.939.939 0 00.521.158zm16.25 1.875h-16.25a.937.937 0 100 1.875h16.25a.937.937 0 100-1.875zm150.648-2.5c.432 0 .782-.35.782-.781v-9.844A3.129 3.129 0 00357.43 68h-10.86a3.129 3.129 0 00-3.125 3.125v13.75A3.129 3.129 0 00346.57 88h10.86a3.129 3.129 0 003.125-3.125.781.781 0 00-1.563 0c0 .862-.701 1.563-1.562 1.563h-10.86a1.564 1.564 0 01-1.562-1.563v-13.75c0-.862.701-1.563 1.562-1.563h10.86c.861 0 1.562.701 1.562 1.563v9.844c0 .431.35.781.781.781z" fill="#8A2C5B"/><path d="M356.648 83.313h-3.125a.781.781 0 000 1.562h3.125a.782.782 0 100-1.563zm-9.296-5.938a.782.782 0 100 1.563c.431 0 .823-.35.823-.782 0-.431-.392-.781-.823-.781zm3.125 1.563a.781.781 0 100-1.563.781.781 0 000 1.563zm3.085 0a.782.782 0 100-1.564.782.782 0 000 1.564zm-6.21 1.406a.781.781 0 100 1.562c.431 0 .82-.35.82-.781 0-.431-.389-.781-.82-.781zm3.125 1.562a.781.781 0 100-1.562.781.781 0 000 1.562zm3.085 0a.781.781 0 10.001-1.563.781.781 0 00-.001 1.563zm3.086-2.968a.782.782 0 100-1.564.782.782 0 000 1.564zm-9.296 5.937a.781.781 0 100-1.563.781.781 0 000 1.563zm9.296-2.969a.781.781 0 10.001-1.563.781.781 0 00-.001 1.563zm-6.21 2.969a.781.781 0 100-1.563.781.781 0 000 1.563zm6.21-13.75h-9.296a.782.782 0 00-.782.781v3.125c0 .432.35.781.782.781h9.296c.432 0 .782-.35.782-.78v-3.126a.782.782 0 00-.782-.781zm-.781 3.125h-7.734v-1.563h7.734v1.563zm151.861-5.6a1.14 1.14 0 00-1.532.5l-8.475 16.668a1.14 1.14 0 002.032 1.033l8.474-16.668a1.14 1.14 0 00-.499-1.533zm-6.085 5.49a4.327 4.327 0 00-4.322-4.322A4.327 4.327 0 00493 74.139a4.327 4.327 0 004.321 4.322 4.327 4.327 0 004.322-4.322zm-4.322 2.042a2.045 2.045 0 01-2.042-2.043c0-1.126.916-2.042 2.042-2.042 1.127 0 2.043.916 2.043 2.042a2.045 2.045 0 01-2.043 2.043zm11.357 1.358a4.327 4.327 0 00-4.321 4.321 4.327 4.327 0 004.321 4.322A4.327 4.327 0 00513 81.86a4.327 4.327 0 00-4.322-4.321zm0 6.363a2.045 2.045 0 01-2.042-2.042c0-1.126.916-2.043 2.042-2.043 1.127 0 2.043.917 2.043 2.043a2.045 2.045 0 01-2.043 2.042zM357.999 226.164l-1.103 1.104 2.093 2.093h-2.331c-1.527 0-2.909.63-3.901 1.643v-8.023l2.14 2.141 1.104-1.104-4.001-4-4.001 4 1.104 1.104 2.093-2.093v7.975a5.448 5.448 0 00-3.902-1.643h-2.267l2.077-2.078-1.103-1.104L342 230.18l4.001 4.001 1.103-1.104-2.155-2.156h2.345a3.907 3.907 0 013.902 3.902v5.16h1.56v-5.16a3.907 3.907 0 013.902-3.902h2.378l-2.14 2.141 1.103 1.104 4.001-4.001-4.001-4.001z" fill="#8A2C5B"/><g clip-path="url(#clip0)"><path d="M672.339 411.515H32.244V524.55H672.34V411.515z" fill="#E1E1E1"/><path d="M272.208 358.578l6.731-11.247s-6.423-28.511-10.47-42.657c-3.607-12.696-12.053-15.816-18.343-14.014l-44.87 7.6c-.352-.044-.66-.044-.968-.088-7.874-.176-20.851 28.248-23.93 44.766 4.091-1.318 13.285-2.68 24.986-1.098.352-.703 1.584-2.768 3.255-5.711.176.351.396.659.572.966 2.772 4.613 10.294 20.252 15.353 21.834l47.728 1.494-.571-1.845h.527z" fill="#1E1E1E"/><path d="M225.359 276.25l-1.319.835s-7.831 4.261-10.294-3.646c-1.848-5.975 3.871-7.864 6.774-8.435" fill="#fff"/><path d="M219.553 279.589c-.88 0-1.848-.132-2.772-.527-2.023-.835-3.475-2.592-4.311-5.184-.703-2.241-.528-4.217.44-5.887 1.584-2.636 4.839-3.778 7.303-4.261a1.303 1.303 0 011.539 1.054 1.303 1.303 0 01-1.056 1.538c-1.583.307-4.399 1.098-5.542 3.031-.616 1.01-.66 2.24-.22 3.734.572 1.845 1.495 3.031 2.771 3.515 2.332.966 5.235-.44 5.587-.659l1.276-.835a1.293 1.293 0 011.803.395 1.29 1.29 0 01-.396 1.802l-1.319.834c-.044 0-.044.044-.088.044-.044.176-2.332 1.406-5.015 1.406z" fill="#1E1E1E"/><path d="M243.527 286.925l-2.991 6.634 4.443-.966c.484.878 6.246 13.311-7.742 16.518-9.194 2.108-19.796-5.36-24.591-12.125l7.743-1.406 6.334-15.244 16.804 6.589z" fill="#fff"/><path d="M234.025 310.78c-9.062 0-18.255-7.161-22.434-13.047-.264-.352-.308-.835-.132-1.274.176-.396.527-.703.967-.791l7.039-1.274 6.07-14.585c.264-.659 1.012-.967 1.716-.703l16.76 6.589c.352.132.616.396.748.747.132.352.132.703 0 1.055l-1.936 4.261 1.892-.396c.572-.131 1.144.132 1.452.659.043.044 3.299 6.283.835 11.818-1.495 3.295-4.663 5.535-9.413 6.634-1.188.175-2.376.307-3.564.307zm-19.003-12.872c4.795 5.667 13.813 11.774 21.951 9.929 3.915-.879 6.466-2.636 7.61-5.14 1.408-3.163.308-6.897-.352-8.567l-3.387.747c-.484.088-1.012-.088-1.32-.439-.308-.396-.396-.923-.176-1.362l2.42-5.36-14.297-5.623-5.851 14.058a1.363 1.363 0 01-.968.791l-5.63.966z" fill="#1E1E1E"/><path d="M253.381 261.357c1.056 3.603 4.091 20.824-6.906 25.041-10.998 4.218-21.379-4.305-25.295-14.892-3.915-10.588-1.451-20.912 5.455-23.767 6.907-2.856 19.004-12.565 26.746 13.618z" fill="#fff"/><path d="M240.624 288.815c-2.464 0-4.927-.528-7.346-1.626-5.807-2.636-10.822-8.303-13.373-15.2-4.135-11.115-1.408-22.317 6.202-25.48a38.23 38.23 0 002.464-1.143c3.915-1.889 9.238-4.481 14.516-2.152 4.839 2.152 8.622 7.951 11.526 17.792 1.627 5.535 3.695 22.273-7.699 26.622-2.067.791-4.179 1.187-6.29 1.187zm-1.98-43.888c-3.035 0-6.114 1.494-8.886 2.812-.923.439-1.803.878-2.639 1.23-6.29 2.592-8.358 12.301-4.707 22.097 2.332 6.282 6.819 11.379 12.009 13.751 3.783 1.713 7.787 1.845 11.614.351 9.721-3.734 7.302-19.417 6.114-23.459-2.639-8.918-6.026-14.322-10.073-16.123a9.52 9.52 0 00-3.432-.659z" fill="#1E1E1E"/><path d="M242.076 275.328a7.791 7.791 0 004.882-.703.673.673 0 01.924.307.397.397 0 01.044.22c.22 1.362.176 3.734-2.815 4.437-3.123.747-3.783-1.977-3.915-3.514a.67.67 0 01.66-.747h.22zm1.935-3.603c-.572 0-1.1-.395-1.276-.966a1.35 1.35 0 01.924-1.626l2.024-.527-4.223-11.729c-.264-.703.088-1.45.792-1.67.703-.263 1.451.088 1.671.791l4.751 13.091a1.26 1.26 0 01-.088 1.055c-.176.307-.484.571-.836.659l-3.431.878c-.088.044-.22.044-.308.044zm-11.393-9.753c-.22 0-.44-.044-.616-.175a1.27 1.27 0 01-.528-1.758c.792-1.493 3.079-3.997 6.071-2.636.659.308.967 1.099.659 1.758-.308.659-1.099.966-1.759.659-1.452-.659-2.596 1.362-2.64 1.449-.264.44-.703.703-1.187.703zm10.557-7.687c-.264 0-.528-.088-.748-.264-.571-.439-.747-1.23-.308-1.845 1.012-1.362 3.608-3.515 6.379-1.757.616.395.792 1.186.396 1.801a1.293 1.293 0 01-1.804.395c-1.363-.878-2.727 1.011-2.815 1.055-.264.439-.66.615-1.1.615zm-3.142 12.267c.642-.132.996-1.048.791-2.046-.206-.999-.894-1.701-1.536-1.569-.643.132-.997 1.049-.791 2.047.205.998.893 1.7 1.536 1.568zm11.261-2.244c.642-.132.997-1.048.791-2.046-.206-.998-.893-1.7-1.536-1.568-.643.132-.997 1.048-.791 2.046.206.998.893 1.7 1.536 1.568z" fill="#1E1E1E"/><path d="M236.137 275.503c-4.179 0-8.138-4.041-9.062-9.533-1.012-5.974 1.892-11.51 6.466-12.257 4.575-.79 9.15 3.471 10.162 9.446 1.012 5.974-1.891 11.51-6.466 12.256-.396.044-.748.088-1.1.088zm-2.288-19.901c-3.519.615-5.674 5.096-4.838 9.973.835 4.92 4.355 8.435 7.874 7.864 3.519-.615 5.674-5.096 4.839-9.973-.836-4.92-4.355-8.435-7.875-7.864zm21.555 16.211c-4.179 0-8.138-4.042-9.062-9.533-1.011-5.975 1.892-11.51 6.467-12.257 2.287-.395 4.575.439 6.51 2.284 1.848 1.802 3.124 4.35 3.608 7.161.484 2.856.132 5.667-1.056 7.952-1.232 2.372-3.123 3.91-5.411 4.305a8.544 8.544 0 01-1.056.088zm-2.287-19.901c-3.519.615-5.675 5.096-4.839 9.972.836 4.877 4.355 8.435 7.874 7.864 1.628-.263 3.035-1.45 3.959-3.251.968-1.933 1.276-4.305.88-6.765-.396-2.416-1.496-4.613-3.035-6.107-1.496-1.361-3.211-1.977-4.839-1.713z" fill="#8A2C5B"/><path d="M242.339 261.445a.991.991 0 01-.967-.791c-.088-.527.264-1.054.791-1.142l4.575-.878c.528-.088 1.056.263 1.144.79.088.528-.264 1.055-.792 1.143l-4.575.878h-.176zm-24.942 5.316a.993.993 0 01-.924-.659c-.175-.527.088-1.098.616-1.274l10.338-3.471c.528-.175 1.1.088 1.276.615.176.528-.088 1.099-.616 1.274l-10.338 3.471a.969.969 0 01-.352.044z" fill="#8A2C5B"/><path d="M256.592 241.632c-8.402-17.221-22.875-7.424-32.508 2.372-7.523-.131-17.068 7.469-19.092 13.575-2.463 7.337-1.583 17.88 3.519 24.646 9.854 10.807 18.256 8.479 24.283 3.295-3.52-1.845-6.555-4.833-8.842-8.391-.88.439-7.874 3.734-10.206-3.69-1.012-3.207.176-5.228 1.892-6.502.704.219 1.583.088 2.771-.44 5.763-2.636 7.874-9.181 8.666-13.311l27.45-7.117c1.715-.439 2.727-2.196 2.287-3.866a3.073 3.073 0 00-.22-.571z" fill="#1E1E1E"/><path d="M242.207 347.199c-11.745-.571-38.71-4.305-38.71-4.305l.439-1.186c-9.765-1.142-17.683-.264-22.082.879-1.364 3.866-1.892 7.16-1.144 9.357.968 2.9 4.311 5.36 7.346 5.799 25.25 3.646 55.295.923 55.295.923l8.534-6.502c.044-.088-9.15-4.965-9.678-4.965z" fill="#fff"/><path d="M218.453 360.906c-9.502 0-20.411-.439-30.573-1.889-3.695-.527-7.302-3.383-8.402-6.678-.792-2.372-.44-5.711 1.144-10.192.132-.395.484-.747.924-.834 2.243-.571 10.469-2.329 22.566-.923.396.044.748.264.968.615.132.264.22.527.176.791 5.939.791 27.054 3.602 36.952 4.085.395 0 1.099.176 10.293 5.053.396.219.66.615.704 1.054.044.439-.176.879-.528 1.142l-8.534 6.502c-.176.132-.44.264-.704.264-.088.044-10.953 1.01-24.986 1.01zm-35.544-17.221c-1.451 4.349-1.319 6.634-.923 7.82.791 2.328 3.607 4.525 6.29 4.92 23.315 3.383 51.072 1.23 54.635.923l6.599-5.053c-3.387-1.801-6.687-3.47-7.478-3.778-11.746-.615-38.403-4.305-38.667-4.305a1.306 1.306 0 01-.968-.615c-.132-.22-.22-.483-.176-.747-9.766-.966-16.628.22-19.312.835z" fill="#1E1E1E"/><path d="M239.656 347.199a66.695 66.695 0 0111.833.659c3.652.572 9.81 1.494 10.426 2.329 1.452 1.977-4.091 2.943-6.731 1.318" fill="#fff"/><path d="M258.616 353.657c-1.496 0-2.992-.307-4.135-1.01-.616-.395-.836-1.186-.44-1.801.396-.615 1.187-.835 1.803-.44 1.232.747 3.212.703 4.311.44-2.023-.571-6.73-1.318-8.71-1.626l-.176-.044a63.993 63.993 0 00-11.569-.659c-.748.044-1.32-.527-1.364-1.274-.044-.746.528-1.318 1.276-1.361a68.757 68.757 0 0112.053.659l.22.043c8.094 1.231 10.338 1.802 11.086 2.812.703.923.659 2.065-.088 2.856-.792.922-2.508 1.405-4.267 1.405z" fill="#1E1E1E"/><path d="M252.941 353.877c5.147 1.362 7.83 1.538 6.73-.439-.659-1.142-9.237-5.052-10.909-5.492-1.672-.439-10.866-1.054-10.866-1.054" fill="#fff"/><path d="M258.528 356.249c-1.32 0-3.168-.351-5.939-1.098-.704-.176-1.144-.922-.924-1.625.22-.703.924-1.143 1.628-.923 2.243.615 3.607.835 4.443.967-2.288-1.406-7.962-3.998-9.326-4.35-1.144-.307-7.126-.746-10.645-1.01-.748-.044-1.276-.659-1.232-1.406.044-.747.66-1.274 1.408-1.23.967.044 9.369.615 11.129 1.054 1.012.264 10.689 4.306 11.745 6.151.748 1.318.308 2.196 0 2.592-.396.571-1.144.878-2.287.878z" fill="#1E1E1E"/><path d="M246.518 350.758a61.69 61.69 0 016.203 2.284c2.683 1.23 4.311 2.548 4.135 3.075-.176.528-2.199 1.582-3.959.967-2.463-1.362-8.006-2.768-8.006-2.768.572-.132 4.443 1.45 6.554 2.153 2.112.703 3.827 2.68-1.319 2.416l-7.743-.263" fill="#fff"/><path d="M251.093 360.203c-.396 0-.791 0-1.055-.044l-7.743-.263c-.747-.044-1.319-.615-1.275-1.362.044-.747.616-1.274 1.363-1.274l7.743.263h.439c-.703-.219-1.495-.527-2.243-.79a48.77 48.77 0 00-1.408-.528c-1.363-.395-2.375-.659-2.375-.659-.572-.131-1.012-.702-1.012-1.274 0-.615.44-1.142 1.012-1.274.572-.131 1.232.044 3.167.703 1.804.527 4.179 1.318 5.675 2.109.528.176 1.1.088 1.539-.044a17.411 17.411 0 00-2.771-1.538 58.17 58.17 0 00-6.026-2.196c-.704-.22-1.1-.967-.88-1.626.22-.659.968-1.098 1.627-.878a64.407 64.407 0 016.335 2.328c2.595 1.142 5.499 2.9 4.839 4.745-.352.966-1.76 1.757-3.343 1.977-.352 1.405-2.244 1.625-3.608 1.625z" fill="#1E1E1E"/><path d="M311.755 313.46s8.226-.219 13.593-3.382c3.211-1.89 7.346-4.438 7.566-5.536.396-2.065-4.707.044-5.498.308" fill="#fff"/><path d="M311.755 314.778c-.704 0-1.275-.571-1.319-1.274 0-.747.571-1.318 1.275-1.362.088 0 7.962-.263 12.977-3.207 3.167-1.845 4.927-3.031 5.851-3.778-.572.132-1.276.395-2.288.747-.176.088-.352.132-.44.176-.703.219-1.451-.132-1.671-.835-.22-.703.132-1.45.836-1.669.088-.044.22-.088.352-.132 2.991-1.099 5.058-1.626 6.246-.659.528.439.792 1.142.66 1.933-.176.966-.924 2.196-8.182 6.458-5.675 3.295-13.945 3.602-14.297 3.602z" fill="#1E1E1E"/><path d="M317.562 307.661s4.399-2.284 6.334-4.613c1.936-2.328 3.256-4.129 2.904-4.569-.352-.439-2.86-.395-4.179.923-1.672 2.372-6.819 4.92-6.819 4.92.572-.088 3.915-2.372 5.543-3.91 1.628-1.537 2.375-4.349-2.112-2.064 0 0-4.75 2.548-6.554 3.251 0 0-7.478.922-9.898 3.47-1.627 1.713-14.34 14.629-23.842 22.757-5.499 3.558-20.587 29.785-6.247 29.917 2.948.132 6.775-1.845 8.314-3.998l28.55-39.802c4.575-.747 7.83-1.889 10.029-3.075 2.86-1.538 11.482-8.698 11.658-9.621.439-2.504-3.828-2.416-6.995 1.582" fill="#fff"/><path d="M272.912 359.105h-.264c-4.619-.044-6.334-2.548-6.906-4.613-2.332-8.083 7.918-24.646 12.449-27.633 9.15-7.864 21.599-20.472 23.71-22.625 2.552-2.635 9.15-3.646 10.514-3.822 1.76-.746 6.203-3.119 6.247-3.119.967-.483 3.739-1.889 4.97-.175.044.043.088.131.132.175a6.112 6.112 0 012.42-.351c.836.044 1.408.307 1.759.747.176.263.308.527.352.79 1.1-.307 2.068-.263 2.816.088 1.143.527 1.715 1.626 1.495 2.944-.088.483-.22 1.186-5.278 5.359-2.2 1.845-5.367 4.306-7.039 5.184-2.595 1.362-5.982 2.46-9.897 3.119l-28.242 39.363c-1.891 2.504-5.982 4.569-9.238 4.569zm47.861-59.967c-.264.088-.572.264-.968.44-.176.088-4.839 2.592-6.642 3.295-.088.043-.22.043-.308.087-1.936.264-7.39 1.274-9.106 3.076-.132.131-13.593 14.014-23.93 22.844-.044.044-.088.088-.132.088-3.695 2.416-13.373 18.056-11.394 24.733.352 1.142 1.188 2.724 4.443 2.724 2.464.088 5.895-1.538 7.215-3.427l28.593-39.802c.22-.263.528-.483.88-.527 4.883-.791 7.918-2.021 9.59-2.943 2.683-1.45 9.765-7.381 10.953-8.83-.572-.22-2.727.351-4.619 2.723-.088.132-.22.264-.396.352-2.111 2.46-6.51 4.744-6.686 4.876a1.267 1.267 0 01-1.76-.571 1.263 1.263 0 01.572-1.757c.044 0 4.179-2.197 5.939-4.305 1.011-1.187 1.627-2.021 2.023-2.592-.44.087-.924.307-1.32.615-1.363 1.845-4.223 3.602-5.894 4.569-.704.439-1.364.79-1.716.834-.66.088-1.276-.307-1.451-.922a1.364 1.364 0 01.659-1.582c.308-.132.748-.395 1.232-.659 1.144-.747 2.903-2.021 3.959-2.987.044-.132.176-.264.264-.352zm-99.825-5.252c3.419-6.097 1.898-13.447-3.398-16.418-5.296-2.97-12.361-.436-15.78 5.661-3.419 6.096-1.898 13.447 3.398 16.417 5.296 2.971 12.36.437 15.78-5.66z" fill="#1E1E1E"/><path d="M232.831 300.15c.859-4.998-1.977-9.655-6.335-10.402-4.358-.747-8.587 2.699-9.446 7.696-.86 4.998 1.977 9.656 6.335 10.403 4.358.747 8.587-2.699 9.446-7.697z" fill="#1E1E1E"/><path d="M238.518 316.242c2.57-3.712 2.029-8.533-1.208-10.769-3.237-2.235-7.945-1.038-10.515 2.674-2.57 3.712-2.029 8.533 1.209 10.768 3.237 2.235 7.944 1.038 10.514-2.673z" fill="#1E1E1E"/><path d="M243.375 327.461c2.848-2.386 3.461-6.34 1.368-8.831-2.092-2.491-6.097-2.576-8.945-.19s-3.461 6.339-1.368 8.83c2.092 2.491 6.097 2.577 8.945.191zm-2.487 10.293c2.947 1.538 3.387 3.646 3.167 5.272a.88.88 0 00.704.966c.22.044.484-.044.66-.175 3.343-3.032 8.49-8.875 4.267-13.575-1.98-2.241-5.587-2.504-8.27-.396-2.684 2.109-3.168 6.502-.528 7.908z" fill="#1E1E1E"/><path d="M217.089 300.676c-.352 0-.659-.088-.967-.307a1.757 1.757 0 01-.484-2.417l4.751-7.16a1.761 1.761 0 012.419-.484 1.757 1.757 0 01.484 2.417l-4.751 7.16c-.352.528-.88.791-1.452.791zm9.59 9.973c-.528 0-1.1-.264-1.452-.747a1.759 1.759 0 01.396-2.46l5.939-4.262a1.762 1.762 0 012.463.396c.572.79.396 1.889-.395 2.46l-5.939 4.261c-.308.264-.66.352-1.012.352zm9.106 9.489a1.76 1.76 0 01-.792-3.339l2.024-1.011a1.765 1.765 0 012.375.791 1.76 1.76 0 01-.792 2.373l-2.023 1.01c-.22.132-.528.176-.792.176zm6.114 10.895a1.76 1.76 0 01-.791-3.339l2.023-1.01a1.765 1.765 0 012.376.79 1.76 1.76 0 01-.792 2.373l-2.024 1.01a1.726 1.726 0 01-.792.176zm-9.985 145.017l-9.15 29.698s16.1 3.954 14.429 17.616l-39.635-.219 11.349-50.697 23.007 3.602zm53.799-1.098l-9.457 30.664s16.672 4.174 14.912 18.363l-41.086-.219 11.745-52.542 23.886 3.734z" fill="#8A2C5B"/><path d="M273.176 361.477h-27.625l-1.012-1.581-10.778 1.581h-4.838l-.132.747-47.465 7.073c-.352 1.186-12.185 22.009-.924 36.858 4.487 5.931 20.543 7.469 38.183 7.161l-16.408 82.371h42.098l11.745-50.916-6.994 51.18h42.098l3.563-117.473c.044.044.044-18.539-21.511-17.001z" fill="#4E2D5E"/><path d="M108.699 455.271l-8.71 48.148.176 21.307h10.073l.572-21.043s4.091 20.604 18.168 21.526c14.077.923 26.262-2.943 26.174-3.47-.044-.264.44-4.437.88-8.435.395-3.514-2.948-6.941-6.555-6.721-5.411.307-12.537-.132-16.848-3.691-7.698-6.414 3.343-48.764 3.343-48.764l-27.273 1.143zm51.688 1.889l.615 67.566h10.074l.616-21.043s4.091 20.604 18.168 21.526c14.076.923 26.262-2.943 26.174-3.47-.044-.264.439-4.437.879-8.435.396-3.515-2.947-6.941-6.554-6.722-5.411.308-12.537-.131-16.848-3.69-7.698-6.414-6.731-52.981-6.731-52.981l-26.393 7.249z" fill="#1E1E1E"/><path d="M150.401 361.565l3.167-.308c9.238 3.734 19.796 1.186 29.297-4.525-1.187-1.01-3.387-3.602-3.387-5.052 0-9.138 1.98-17.441 9.018-28.116l-14.121 9.006s-5.938-9.226-11.261-19.022c-.528-6.634-1.892-12.477-4.575-16.343-8.182-9.709-26.658-8.522-26.658-8.522l-30.485-2.285-.176-.088c-5.674 0-13.373 6.019-14.208 12.565-1.584 12.125 2.243 28.291 3.87 42.306-.263 1.449-.527 2.592-.659 3.338 0 0-32.069 44.547-9.634 66.952.132.176 35.236-.22 35.236-.22l-14.077 78.857 87.276 1.582s9.502-78.769 7.522-87.512c-3.959-17.66-46.145-42.613-46.145-42.613z" fill="#8A2C5B"/><path d="M121.808 287.365c-3.344 0-6.467-3.646-7.215-8.611-.44-2.416-.132-4.876.836-7.117a1.324 1.324 0 011.76-.659c.659.308.967 1.055.659 1.758a9.501 9.501 0 00-.659 5.623c.615 4.129 3.035 6.634 4.838 6.414.704-.088 1.364.439 1.452 1.142.088.703-.44 1.362-1.144 1.45h-.527zm38.842-1.362c-3.343 0-6.466-3.646-7.214-8.61a12.328 12.328 0 01.836-7.117 1.323 1.323 0 011.76-.659 1.32 1.32 0 01.659 1.757 9.501 9.501 0 00-.659 5.623c.615 4.13 3.035 6.634 4.838 6.414.704-.088 1.364.439 1.452 1.142.088.703-.44 1.362-1.144 1.45h-.528z" fill="#8A2C5B"/><path d="M119.212 240.007c5.411-5.096 6.555-28.512-11.481-41.955-18.212-13.575-29.825 3.998-32.333 8.567-2.507 4.569-3.343 16.386 12.054 25.568 15.396 9.182 25.602 13.663 31.76 7.82z" fill="#1E1E1E"/><path d="M129.066 249.145l-.352.263c-2.112 1.67-5.147 1.45-6.95-.527l-5.059-5.535c-1.76-1.802-1.672-4.701.132-6.458l.22-.22.352-.307c2.111-1.67 5.146-1.45 6.95.527l5.059 5.535c1.759 1.801 1.671 4.701-.132 6.458-.044.132-.132.176-.22.264z" fill="#8A2C5B"/><path d="M124.829 269.247c1.254-2.629.03-5.828-2.732-7.145-2.763-1.317-6.018-.254-7.272 2.375-1.253 2.629-.03 5.828 2.733 7.145 2.763 1.318 6.018.254 7.271-2.375z" fill="#fff"/><path d="M120.047 273.482a6.679 6.679 0 01-3.035-.703c-3.387-1.625-4.927-5.623-3.343-8.874 1.539-3.251 5.586-4.612 9.018-2.987 1.627.791 2.903 2.109 3.519 3.778.66 1.67.572 3.471-.176 5.096-.748 1.582-2.112 2.768-3.827 3.339-.704.264-1.452.351-2.156.351zm-4.003-8.434c-.924 1.976 0 4.349 2.112 5.359a4.291 4.291 0 003.211.22c1.012-.352 1.848-1.055 2.287-1.977.44-.923.484-2.021.088-3.031-.395-1.011-1.187-1.845-2.199-2.373-2.112-.922-4.575-.175-5.499 1.802z" fill="#1E1E1E"/><path d="M162.813 267.483c1.254-2.628.03-5.828-2.732-7.145-2.763-1.317-6.018-.254-7.272 2.375-1.253 2.629-.03 5.828 2.733 7.145 2.763 1.318 6.018.254 7.271-2.375z" fill="#fff"/><path d="M158.01 271.725a6.811 6.811 0 01-3.035-.703c-1.627-.79-2.903-2.108-3.519-3.778-.66-1.669-.572-3.47.176-5.096 1.54-3.251 5.587-4.613 9.018-2.987 1.627.791 2.903 2.109 3.519 3.778.66 1.669.572 3.471-.176 5.096-1.1 2.328-3.475 3.69-5.983 3.69zm-.395-10.631c-1.496 0-2.948.791-3.608 2.196a3.824 3.824 0 00-.088 3.032c.396 1.01 1.188 1.845 2.2 2.372 2.111 1.01 4.575.22 5.499-1.757.44-.923.484-2.021.088-3.031-.396-1.011-1.188-1.846-2.2-2.373a4.257 4.257 0 00-1.891-.439z" fill="#1E1E1E"/><path d="M142.307 282.489l.308 7.863 6.598 1.45c.352 1.054.792 19.549-16.144 17.265-11.129-1.494-16.32-11.422-19.267-20.516l9.413.659.044-22.054 19.048 15.333z" fill="#fff"/><path d="M135.84 310.561a23.38 23.38 0 01-2.991-.22c-9.414-1.274-16.056-8.303-20.367-21.439-.132-.395-.044-.878.22-1.23a1.27 1.27 0 011.143-.483l8.007.571.044-20.648c0-.527.307-.966.747-1.186a1.282 1.282 0 011.408.176l19.048 15.376c.308.22.484.615.484.966l.263 6.81 5.587 1.23c.44.088.836.439.968.835.352.966.616 9.093-3.827 14.453-2.552 3.163-6.159 4.789-10.734 4.789zm-20.191-20.604c3.959 11.026 9.59 16.694 17.552 17.748 4.751.659 8.402-.395 10.909-3.075 3.476-3.734 3.871-9.665 3.827-11.818l-5.674-1.23a1.359 1.359 0 01-1.056-1.23l-.264-7.249-16.452-13.267-.044 19.33c0 .351-.132.703-.44.966a1.207 1.207 0 01-1.012.352l-7.346-.527z" fill="#1E1E1E"/><path d="M143.087 286.856c9.485-1.743 15.362-13.022 13.126-25.192-2.236-12.171-11.738-20.624-21.223-18.881-9.486 1.743-15.363 13.022-13.127 25.192 2.236 12.171 11.738 20.624 21.224 18.881z" fill="#fff"/><path d="M140.635 288.419c-9.238 0-17.904-8.479-20.059-20.208-2.376-12.872 4.003-24.865 14.165-26.754 5.014-.923 10.117.702 14.472 4.524 4.223 3.779 7.171 9.226 8.314 15.42 2.376 12.872-4.003 24.866-14.164 26.755-.924.219-1.848.263-2.728.263zm-3.167-44.546c-.748 0-1.496.088-2.244.219-8.754 1.626-14.164 12.213-12.053 23.679 1.936 10.456 9.458 18.056 17.464 18.056.748 0 1.496-.088 2.244-.219 8.754-1.626 14.164-12.213 12.053-23.679-1.012-5.624-3.695-10.544-7.478-13.927-3.036-2.723-6.511-4.129-9.986-4.129z" fill="#1E1E1E"/><path d="M140.635 271.462c-.704 0-1.276-.571-1.32-1.274-.044-.747.528-1.318 1.276-1.362l2.332-.088-2.156-8.083a1.35 1.35 0 01.924-1.626 1.352 1.352 0 011.628.923l2.375 9.05c.044.131.044.263.044.395 0 .483-.176.966-.484 1.318-.352.351-.792.571-1.276.571l-3.343.132v.044zm-9.238-14.234c-.352 0-.747-.132-.967-.44a1.313 1.313 0 01.088-1.845c1.319-1.186 4.53-2.811 7.17-.439.528.483.572 1.318.088 1.845a1.318 1.318 0 01-1.848.088c-1.495-1.362-3.431.263-3.651.439a1.192 1.192 0 01-.88.352zm18.74.615c-.484 0-.924-.264-1.188-.703-.968-1.845-3.607-.835-3.651-.835a1.318 1.318 0 01-1.715-.791c-.264-.702.087-1.449.791-1.713 1.672-.615 5.279-1.01 6.907 2.109.352.659.088 1.45-.572 1.801a1.355 1.355 0 01-.572.132zm-12.434 5.515c.036-1.091-.526-1.995-1.254-2.019-.729-.023-1.348.842-1.384 1.933-.035 1.092.527 1.995 1.255 2.019.728.024 1.348-.842 1.383-1.933zm11.216 2.433c.727-.053 1.252-.978 1.173-2.067-.079-1.089-.732-1.929-1.459-1.877-.727.053-1.252.978-1.173 2.067.079 1.089.732 1.93 1.459 1.877z" fill="#1E1E1E"/><path d="M132.717 237.591l-.044.043c-5.675.835-12.053 3.427-15.572 7.205-6.247 6.722-3.388 21.175 2.991 22.142.528.088 1.056.131 1.584.175-.044-.351-.088-.746-.132-1.098-.132-1.318-.22-2.636-.176-3.954 8.71-3.251 8.666-16.254 8.666-17.353 1.847 1.45 4.267 3.998 3.651 6.722l19.223 1.23a28.168 28.168 0 013.607 10.939v.176c1.804-2.592 1.892-6.59.396-10.808l6.511.396c-.044-.044 5.939-21.966-30.705-15.815z" fill="#1E1E1E"/><path d="M161.178 285.959h-.088a1.295 1.295 0 01-1.319-1.318c0-.703.572-1.318 1.319-1.318 1.98-.395 3.256-3.866 2.684-7.512-.308-2.065-1.012-3.954-1.936-5.272-.572-.791-1.451-1.669-2.463-1.538-.704.132-1.408-.395-1.496-1.098-.132-.703.396-1.406 1.1-1.494 1.848-.307 3.651.659 5.059 2.592 1.143 1.626 2.023 3.91 2.375 6.37.836 5.36-1.363 9.973-4.971 10.544-.132.044-.22.044-.264.044zm-38.843 1.406h-.088a1.295 1.295 0 01-1.319-1.318c0-.703.572-1.318 1.319-1.318 1.188-.22 1.848-1.45 2.156-2.153.616-1.493.836-3.382.528-5.359-.396-2.504-1.54-4.701-2.991-5.799-.66-.484-1.32-.659-1.936-.571-.704.131-1.408-.396-1.496-1.099-.132-.703.396-1.405 1.1-1.493 1.32-.22 2.683.175 3.871 1.054 2.024 1.494 3.563 4.305 4.047 7.512.396 2.46.132 4.877-.704 6.81-.923 2.152-2.419 3.47-4.267 3.734h-.22z" fill="#8A2C5B"/><path d="M137.644 279.106a5.429 5.429 0 01-2.42-.571c-2.023-1.099-3.123-3.515-3.255-7.293 0-.483.264-.967.704-1.186.44-.22.968-.22 1.408.088l7.962 5.535c.352.264.572.659.572 1.098 0 .44-.264.835-.616 1.099-.132.043-2.112 1.23-4.355 1.23zm-2.639-5.096c.263.966.747 1.845 1.495 2.24.572.308 1.32.308 1.98.176l-3.475-2.416zm-25.383 64.93c-.219 0-.439-.044-.615-.176-.66-.351-.88-1.142-.528-1.801 2.903-5.315 8.314-4.569 10.733-3.47.66.307.968 1.098.66 1.757-.308.659-1.1.966-1.76.659-.483-.22-4.97-2.065-7.346 2.328-.22.44-.704.703-1.144.703z" fill="#1E1E1E"/><path d="M106.631 335.514c-.308 0-.572-.088-.836-.308-.571-.439-.659-1.274-.22-1.845 2.376-2.943 4.927-4.481 7.611-4.525 3.519-.044 5.806 2.504 5.938 2.636.484.527.44 1.362-.132 1.845a1.28 1.28 0 01-1.847-.132c-.044-.043-1.628-1.757-3.915-1.713-1.848.044-3.739 1.23-5.587 3.559-.264.351-.616.483-1.012.483z" fill="#1E1E1E"/><path d="M155.108 325.234l6.906-2.636s5.411-5.975 7.786-7.732c2.376-1.757 7.083-1.582 3.916 1.186-3.168 2.768-3.608 4.437-3.608 4.437s8.314-2.416 12.889-5.272c4.663-2.899 3.652 2.109 3.652 2.109s3.519.483 2.155 2.284c0 0 2.683 1.538 0 3.076 0 0 3.827.395 1.628 2.679-1.584 3.251-12.669 9.446-19.488 8.919l-3.783 1.669-4.795 2.372" fill="#fff"/><path d="M162.454 339.643c-.484 0-.968-.263-1.188-.747-.307-.659-.044-1.449.616-1.757l4.795-2.372s.044 0 .044-.044l3.783-1.669c.176-.088.396-.132.616-.088 6.379.483 16.892-5.536 18.168-8.215.044-.132.132-.22.22-.352.088-.088.132-.132.176-.22-.264-.131-.704-.219-1.012-.263a1.261 1.261 0 01-1.144-1.055 1.27 1.27 0 01.616-1.405c.308-.176.44-.308.484-.352-.088-.132-.352-.351-.484-.439-.308-.176-.572-.527-.616-.879-.044-.307 0-.615.132-.922-.308-.132-.835-.308-1.187-.352a1.308 1.308 0 01-.88-.527c-.22-.307-.308-.659-.22-1.01.088-.484.088-1.143 0-1.406-.176 0-.66.088-1.672.703-4.663 2.899-12.889 5.315-13.241 5.403-.44.132-.967 0-1.275-.307-.352-.352-.484-.835-.352-1.274.088-.352.704-2.197 4.003-5.096-.66.088-1.584.351-2.288.878-2.243 1.714-7.566 7.513-7.61 7.6a1.582 1.582 0 01-.528.352l-6.906 2.636c-.66.263-1.452-.088-1.716-.747s.088-1.45.748-1.713l6.598-2.504c1.056-1.143 5.543-6.019 7.787-7.688 1.979-1.494 5.454-2.021 6.686-.528.396.484 1.1 1.846-1.1 3.735-.352.307-.703.615-.967.922 2.727-.966 6.29-2.372 8.71-3.866.703-.439 2.903-1.801 4.575-.659 1.011.703 1.231 1.889 1.231 2.856.836.263 1.804.791 2.2 1.713.088.264.22.659.132 1.186.484.483.923 1.142.923 2.021 0 .264-.044.571-.175.879.483.307.923.703 1.143 1.318.22.615.264 1.625-.792 2.767-2.111 3.734-13.153 9.841-20.323 9.489l-3.475 1.538-4.751 2.328c-.088.088-.308.132-.484.132z" fill="#1E1E1E"/><path d="M175.431 322.159s8.446-2.065 11.262-4.833l-11.262 4.833z" fill="#fff"/><path d="M175.431 323.476c-.572 0-1.144-.395-1.276-1.01a1.31 1.31 0 01.968-1.581c2.244-.572 8.578-2.461 10.646-4.481a1.313 1.313 0 011.847 0 1.31 1.31 0 010 1.845c-2.991 2.943-10.997 4.964-11.877 5.184-.088.043-.22.043-.308.043z" fill="#1E1E1E"/><path d="M176.531 325.058c.924-.395 7.654-1.625 11.921-5.755l-11.921 5.755z" fill="#fff"/><path d="M176.575 326.376a1.355 1.355 0 01-1.232-.791c-.264-.659 0-1.406.66-1.713.264-.132.616-.22 1.232-.396 2.111-.615 7.082-1.976 10.337-5.139a1.277 1.277 0 011.848.043 1.274 1.274 0 01-.044 1.846c-3.739 3.602-9.15 5.096-11.437 5.755-.352.087-.748.219-.88.263a1.003 1.003 0 01-.484.132z" fill="#1E1E1E"/><path d="M177.631 328.045c1.935-.835 6.114-.571 11.261-5.14l-11.261 5.14z" fill="#fff"/><path d="M177.631 329.363a1.353 1.353 0 01-1.232-.791c-.264-.659.044-1.449.704-1.713.616-.264 1.275-.395 2.111-.571 2.2-.483 5.235-1.142 8.798-4.305a1.282 1.282 0 011.848.131c.484.528.44 1.362-.132 1.846-4.135 3.646-7.654 4.393-9.986 4.92-.66.132-1.276.263-1.627.439-.132.044-.308.044-.484.044zm-67.349 31.455c-2.771 0-5.454-.439-7.962-1.406-5.367-2.152-9.326-6.677-11.79-13.574a1.288 1.288 0 01.793-1.67 1.29 1.29 0 011.671.791c2.2 6.106 5.631 10.148 10.294 11.993 9.502 3.778 22.611-1.889 31.673-6.458 14.032-7.117 22.478-11.246 25.47-12.74l-6.335-10.939-34.884 9.489c-.396.088-.792.044-1.1-.219a1.292 1.292 0 01-.527-1.011c0-.131-.748-13.355-3.828-25.392-.175-.703.264-1.406.968-1.625.704-.176 1.408.263 1.628.966 2.507 9.797 3.519 20.34 3.783 24.294l34.312-9.357c.572-.176 1.188.088 1.496.615l7.522 13.003c.176.308.22.703.132 1.055a1.155 1.155 0 01-.704.791c-.088.044-8.842 4.261-26.702 13.311-7.258 3.778-17.024 8.083-25.91 8.083zM447.2 482.288v41.559h-53.8s-.176-15.244 24.634-18.055v-22.23l29.166-1.274z" fill="#1E1E1E"/><path d="M402.726 482.288v41.559h-53.843s-.176-15.244 24.634-18.055v-22.23l29.209-1.274z" fill="#1E1E1E"/><path d="M418.914 374.569l-41.042 26.842a31.781 31.781 0 00-7.918 20.032l-2.64 74.157h33.873s46.849.834 46.849-2.548c0-2.724 2.771-52.279 3.871-71.872.264-4.481 3.827-8.04 8.314-8.259 8.006-.396 19.883-.967 25.118-1.099 40.998-1.449 30.045-18.319 25.206-30.356a1663.34 1663.34 0 00-5.103-12.433" fill="#fff"/><path d="M413.328 497.005c-6.907 0-12.142-.088-12.186-.088h-33.828c-.352 0-.703-.131-.967-.395a1.162 1.162 0 01-.352-.966l2.683-74.157c.22-7.688 3.167-15.068 8.226-20.867.088-.088.176-.176.264-.22l41.043-26.842c.615-.395 1.407-.219 1.847.396.396.615.22 1.405-.396 1.845l-40.91 26.754c-4.619 5.272-7.259 12.037-7.479 19.066l-2.639 72.751h32.508c20.192.351 42.275-.176 45.53-1.714.132-3.997 1.408-28.028 3.871-71.476.308-5.184 4.399-9.226 9.59-9.489 4.355-.22 19.003-.923 25.162-1.099 15.22-.527 24.502-3.294 27.625-8.259 3.036-4.744.176-11.378-2.331-17.265-.44-1.054-.88-2.064-1.276-3.075-2.111-5.228-3.827-9.401-5.103-12.389-.263-.659.044-1.449.704-1.713.66-.263 1.452.044 1.716.703 1.276 2.987 2.991 7.161 5.147 12.433.396.966.836 1.933 1.275 2.987 2.772 6.458 5.939 13.75 2.156 19.681-3.695 5.799-13.417 8.874-29.781 9.445-6.115.176-20.763.879-25.118 1.099-3.827.175-6.863 3.207-7.083 7.029-3.211 56.979-3.871 70.51-3.871 71.828 0 .351-.088.834-.572 1.274-.747.746-2.287 2.24-25.382 2.592-3.519.087-6.994.131-10.073.131z" fill="#1E1E1E"/><path d="M404.97 496.918c-.792-.044-1.364-.615-1.32-1.362l2.639-82.811.044-1.142c.264-7.556.616-17.924 6.819-21.702a.334.334 0 01.176-.088l47.113-19.462c.659-.263 1.451.044 1.715.703.264.659-.044 1.45-.704 1.713l-46.981 19.418c-4.927 3.075-5.234 12.564-5.498 19.506l-.044 1.142-2.64 82.811c0 .702-.616 1.274-1.319 1.274z" fill="#1E1E1E"/><path d="M516.967 340.961c-12.185-72.575-32.024-62.339-42.186-61.987l-23.05.922c0-.307-.044-.615-.088-.922-.176-.835-1.1-1.494-2.244-2.065v-.044c2.948-.747 8.578-2.372 8.534-3.646-.088-1.801-11.349-.923-14.824-.703-1.76.088-5.191 1.142-8.094 2.153a14.31 14.31 0 00-8.49 7.731c-.616 1.406-2.508 6.195-3.08 7.601l-7.302-3.295s-13.945 31.806-17.156 40.065a33.262 33.262 0 00-.924 3.163c-6.818 20.384 7.566 30.972 7.566 30.972l70.076.703-8.138 6.897c-1.188 1.362 38.227-1.713 39.591-1.538.704.088-2.86-5.315-6.467-10.587 8.49-3.559 16.804-8.698 16.276-15.42z" fill="#4E2D5E"/><path d="M485.295 331.56c-.088 0-.176 0-.308-.044a1.328 1.328 0 01-.836-.615c-.396-.703-10.206-17.485-9.106-26.798.088-.703.748-1.23 1.452-1.142.704.088 1.232.747 1.144 1.449-.836 7.117 5.894 19.989 8.094 23.943 8.754-5.36 15.132-2.504 15.44-2.372.66.307.968 1.098.66 1.757-.308.659-1.1.923-1.76.659-.264-.132-5.982-2.548-14.032 2.943-.22.132-.484.22-.748.22z" fill="#1E1E1E"/><path d="M450.587 347.683a1.27 1.27 0 01-1.144-.703c-.352-.615-.132-1.45.528-1.757.968-.528 31.585-14.498 35.06-16.079.66-.308 1.452 0 1.759.659.308.659 0 1.449-.659 1.757-13.549 6.194-34.004 15.508-34.884 15.991a2.172 2.172 0 01-.66.132zm-27.362-12.477c-.132 0-.308-.044-.44-.088-.704-.263-1.055-1.01-.791-1.669l13.064-37.122-3.035-1.362a1.32 1.32 0 01-.66-1.757 1.323 1.323 0 011.76-.659l4.179 1.845c.616.263.924 1.01.704 1.625l-13.505 38.309c-.22.527-.704.878-1.276.878z" fill="#1E1E1E"/><path d="M473.594 282.357l-8.007-20.472-17.639 11.202 2.155 9.929-.572 21.043 24.063-21.702z" fill="#fff"/><path d="M449.531 305.377c-.176 0-.396-.044-.572-.132-.484-.22-.792-.703-.748-1.23l.572-20.912-2.111-9.752c-.132-.528.132-1.099.572-1.406l17.64-11.203c.351-.219.747-.263 1.099-.131.396.131.66.395.836.79l8.05 20.516c.22.527.044 1.099-.352 1.45l-24.062 21.702c-.264.22-.616.308-.924.308zm-.088-31.675l1.936 9.006c.044.088.044.22.044.308l-.484 18.011 21.115-19.022-7.126-18.144-15.485 9.841zm-8.49-34.311s14.913 9.49 7.61 18.32c0 0-3.255 3.69-5.938 2.943 0 0 1.979-3.119-.264-4.788 0 0-.748 9.401-8.446 7.468 0 0 2.859-4.173 2.111-9.182-1.539-10.411.88-16.65 4.927-14.761z" fill="#1E1E1E"/><path d="M471.922 254.46s2.991-18.363-15.616-21.658c-1.716-.307-13.637-2.196-15.881 7.688-1.495 6.59-1.847 13.707-1.671 19.286 0 .044.088 10.5 4.179 16.342 4.091 5.843 13.285 5.36 18.123 2.548 4.839-2.811 5.763-4.305 7.171-7.688 1.407-3.382 3.695-16.474 3.695-16.518z" fill="#fff"/><path d="M452.962 281.917c-4.179 0-8.49-1.405-11.085-5.14-4.311-6.15-4.443-16.957-4.443-17.089-.088-3.998 0-11.949 1.716-19.549 1.891-8.347 10.205-9.929 17.376-8.655 19.663 3.471 16.716 22.976 16.672 23.196v.088c-.132.834-2.332 13.223-3.74 16.65-1.451 3.602-2.595 5.359-7.698 8.347-2.287 1.274-5.498 2.152-8.798 2.152zm-.704-48.192c-3.959 0-9.193 1.142-10.513 6.985-1.672 7.336-1.76 15.024-1.672 18.934 0 .132.132 10.148 3.959 15.596 3.608 5.14 11.966 4.7 16.409 2.152 4.618-2.679 5.322-3.909 6.598-7.029 1.32-3.207 3.563-15.991 3.563-16.122v-.044c.176-1.055 2.332-17.134-14.516-20.121-.836-.132-2.244-.351-3.828-.351z" fill="#1E1E1E"/><path d="M444.56 266.058c-.352 0-.704-.132-.967-.395a1.303 1.303 0 01-.352-1.187l1.891-9.005a1.298 1.298 0 011.584-1.011 1.297 1.297 0 011.012 1.582l-1.496 7.16 1.408-.219c.703-.132 1.407.395 1.495 1.098.132.703-.396 1.406-1.1 1.494l-3.299.527c-.044-.088-.132-.044-.176-.044zm-1.367-10.976c.075-.797-.276-1.482-.784-1.529-.508-.048-.981.56-1.055 1.357-.075.797.277 1.482.785 1.53.508.047.98-.561 1.054-1.358zm8.106 2.36c.508-.049.858-.734.782-1.531-.076-.797-.549-1.404-1.057-1.356-.508.048-.858.734-.782 1.531.076.797.549 1.404 1.057 1.356zm5.182-6.584c-.395 0-.835-.176-1.055-.527a2.987 2.987 0 00-2.772-1.23c-.703.087-1.363-.44-1.451-1.143-.088-.703.44-1.362 1.143-1.449a5.557 5.557 0 015.235 2.284c.44.571.308 1.406-.308 1.845-.264.132-.528.22-.792.22zm-16.848-2.065c-.264 0-.571-.088-.791-.264-.572-.439-.704-1.274-.264-1.845 1.627-2.196 4.707-1.581 6.246-.834.66.307.968 1.098.66 1.757-.308.659-1.1.966-1.76.659-.044 0-2.287-.967-3.035.044-.264.307-.66.483-1.056.483z" fill="#1E1E1E"/><path d="M457.405 240.666s-7.214 24.601 9.194 27.237c0 0 9.546 1.757 11.745-1.582 0 0-6.906-3.734-5.982-7.644 0 0 7.742 8.567 14.56 2.505 0 0-11.305-1.977-10.205-12.126.704-7.336-16.76-14.321-19.312-8.39z" fill="#1E1E1E"/><path d="M487.362 244.312l-9.985-1.582c-.968-6.721-4.839-16.386-18.608-18.099-21.555-2.636-22.347 18.275-22.347 18.275l49.929 7.82c1.803.22 3.431-1.054 3.651-2.812.22-1.669-.924-3.251-2.64-3.602z" fill="#8A2C5B"/><path d="M449.839 270.275c-.484 0-.968-.044-1.496-.131a1.358 1.358 0 01-1.099-1.494 1.358 1.358 0 011.495-1.098c3.432.571 4.443-1.626 4.443-1.67.308-.659 1.056-.966 1.716-.703.66.308.968 1.055.704 1.714-.484 1.318-2.376 3.382-5.763 3.382z" fill="#1E1E1E"/><path d="M420.85 289.078c.22-.571.44-1.098.616-1.581.923-2.417 1.715-4.35 2.419-5.887a14.313 14.313 0 018.49-7.732c2.904-1.011 6.291-2.021 8.094-2.153 3.475-.219 14.737-1.054 14.825.703.088 1.274-5.587 2.9-8.534 3.646l-2.332 8.962s-2.771.352-4.091 1.055c-2.771 1.493-5.498 3.997-7.522 3.778 0 0-.132 1.45-.572 3.91" fill="#fff"/><path d="M432.199 295.184h-.22a1.311 1.311 0 01-1.056-1.537c.396-2.372.572-3.778.572-3.822.044-.352.22-.659.484-.879.264-.219.616-.307.968-.307.88.088 2.595-1.011 4.091-1.977a33.164 33.164 0 012.639-1.626c1.056-.571 2.684-.922 3.695-1.098l2.112-8.127c.132-.484.484-.835.968-.967 3.123-.791 5.191-1.493 6.378-2.021-1.671-.175-5.015-.219-11.437.22l-.88.044c-1.32.088-4.047.835-7.742 2.065-3.431 1.186-6.247 3.734-7.698 7.029a98.905 98.905 0 00-2.376 5.755c-.176.571-.44 1.142-.616 1.669-.263.659-1.055 1.011-1.715.703-.66-.264-1.012-1.054-.704-1.713.176-.483.396-1.011.572-1.494 0-.044 0-.044.044-.088.88-2.284 1.715-4.305 2.463-5.931 1.76-3.953 5.147-7.029 9.282-8.434 4.003-1.362 6.819-2.109 8.402-2.197l.836-.044c9.546-.615 13.417-.395 14.736.747.396.351.616.791.616 1.274.088 1.494-1.539 2.416-4.003 3.339a42.882 42.882 0 01-4.751 1.45l-2.155 8.215c-.132.527-.572.922-1.1.966-.968.132-2.815.483-3.651.923-.836.439-1.672 1.01-2.463 1.537-1.54 1.011-3.036 2.021-4.487 2.329-.088.659-.22 1.669-.44 2.899-.176.615-.748 1.098-1.364 1.098z" fill="#1E1E1E"/><path d="M440.205 274.449s8.138 1.054 8.754 3.778c.616 2.724-1.715 2.899-1.715 2.899" fill="#fff"/><path d="M447.244 282.4a1.306 1.306 0 01-1.32-1.23c-.044-.747.484-1.362 1.232-1.405.044 0 .352-.088.44-.264.132-.176.132-.571.044-1.054-.22-.923-3.916-2.285-7.655-2.724-.703-.088-1.231-.747-1.143-1.494.088-.747.747-1.23 1.495-1.142 2.112.264 9.15 1.406 9.898 4.788.352 1.582-.088 2.636-.484 3.207-.88 1.143-2.243 1.274-2.375 1.274-.044.044-.088.044-.132.044z" fill="#1E1E1E"/><path d="M439.897 277.7s7.171 1.537 7.611 4.305c.44 2.768-1.892 2.768-1.892 2.768" fill="#fff"/><path d="M445.572 286.091c-.748 0-1.32-.615-1.32-1.318 0-.703.616-1.318 1.32-1.318.044 0 .352-.044.484-.22s.176-.527.132-1.01c-.176-1.055-3.607-2.548-6.555-3.207a1.297 1.297 0 01-1.011-1.582 1.297 1.297 0 011.583-1.01c1.892.395 8.138 1.977 8.622 5.403.22 1.626-.264 2.592-.748 3.163-.967 1.055-2.287 1.099-2.507 1.099z" fill="#1E1E1E"/><path d="M439.413 281.741s8.622 1.977 5.323 5.009c-3.299 3.031-4.971 2.679-4.971 2.679s-2.375-1.493 1.452-3.822" fill="#fff"/><path d="M439.941 290.791c-.176 0-.352 0-.44-.044a1.32 1.32 0 01-.439-.175c-.132-.088-1.364-.879-1.32-2.417 0-1.317.924-2.504 2.815-3.646a1.297 1.297 0 011.804.439c.396.615.176 1.45-.44 1.802-.968.615-1.364 1.054-1.496 1.318.616-.176 1.716-.703 3.431-2.285.308-.263.308-.395.308-.439-.132-.571-2.419-1.757-5.058-2.329a1.309 1.309 0 01-.968-1.581 1.312 1.312 0 011.583-.967c1.452.352 6.291 1.626 6.995 4.262.176.747.176 1.845-1.1 3.031-2.903 2.636-4.795 3.031-5.675 3.031z" fill="#1E1E1E"/><path d="M451.115 346.496l-4.443.835c-.528.088-9.59 5.843-9.59 5.843l9.326 6.018s.66.659 14.781-.219c-.968-3.559-6.247-8.918-10.074-12.477z" fill="#fff"/><path d="M450.059 360.73c-3.343 0-4.091-.264-4.443-.483l-9.238-5.975c-.396-.264-.616-.659-.616-1.098 0-.44.22-.879.616-1.099 9.238-5.886 9.722-5.974 10.03-6.018l4.443-.835c.396-.088.836.044 1.144.308 6.114 5.667 9.633 10.06 10.469 13.091.088.396.044.791-.176 1.142-.22.308-.616.528-1.012.572-5.41.263-8.93.395-11.217.395zm-2.859-2.592l.132.132c-.044-.088-.088-.088-.132-.132zm-.22-.176c.484.088 2.815.352 12.273-.219-1.32-2.417-4.311-5.843-8.578-9.841l-3.651.703c-.748.351-4.355 2.592-7.479 4.569l7.435 4.788z" fill="#1E1E1E"/><path d="M449.311 347.155a66.714 66.714 0 00-12.141 1.67c-3.695.878-9.986 2.372-10.558 3.295-1.319 2.152 4.487 2.679 7.039.79" fill="#fff"/><path d="M429.516 355.37c-1.496 0-2.904-.351-3.651-1.054-.836-.791-.968-1.889-.352-2.899.66-1.099 2.991-1.889 11.261-3.822l.132-.044a73.3 73.3 0 0112.405-1.714 1.271 1.271 0 011.364 1.274 1.27 1.27 0 01-1.276 1.362c-4.003.176-8.006.747-11.921 1.626l-.088.044c-2.068.483-7.126 1.713-9.106 2.46 1.144.219 3.343.132 4.619-.791.572-.439 1.408-.308 1.848.264.439.571.307 1.405-.264 1.845-1.32.966-3.212 1.449-4.971 1.449z" fill="#1E1E1E"/><path d="M436.202 355.107c-5.191 1.845-7.962 2.284-6.994.131.572-1.23 9.106-6.018 10.777-6.589 1.672-.571 11.13-1.977 11.13-1.977" fill="#fff"/><path d="M430.132 358.006c-.924 0-1.496-.264-1.936-.703-.352-.351-.836-1.186-.176-2.592.88-1.933 10.25-6.853 11.569-7.292 1.76-.615 10.382-1.889 11.35-2.021.704-.088 1.407.395 1.495 1.098.088.703-.395 1.406-1.099 1.494-3.739.571-9.722 1.537-10.91 1.933-1.407.483-7.258 3.778-9.37 5.359.836-.175 2.288-.527 4.707-1.405a1.29 1.29 0 011.672.79c.22.659-.132 1.45-.792 1.67-3.123 1.142-5.147 1.669-6.51 1.669z" fill="#1E1E1E"/><path d="M442.537 351.417a65.725 65.725 0 00-6.203 2.855c-2.683 1.494-4.223 2.987-4.003 3.515.22.527 2.376 1.449 4.135.659 2.42-1.626 8.05-3.515 8.05-3.515-.616-.088-4.443 1.889-6.598 2.768-2.156.878-3.739 3.119 1.584 2.372l8.006-.923" fill="#fff"/><path d="M437.742 361.521c-1.276 0-2.639-.264-3.035-1.494-1.628-.088-3.124-.791-3.564-1.713-.835-1.801 2.024-3.822 4.575-5.228a68.788 68.788 0 016.335-2.943c.66-.264 1.452.044 1.716.746.263.659-.044 1.45-.748 1.714a63.099 63.099 0 00-6.071 2.811c-1.32.747-2.243 1.406-2.771 1.889.484.132 1.099.176 1.671-.044 1.496-.966 3.915-1.976 5.719-2.679 1.892-.835 2.551-1.055 3.123-.967.616.088 1.056.571 1.144 1.186.044.615-.308 1.186-.88 1.362-.044 0-1.012.352-2.375.879-.484.219-.968.439-1.408.659-.924.439-1.847.834-2.595 1.186a4.9 4.9 0 00.748-.088l8.05-.922c.704-.088 1.363.439 1.451 1.142.088.703-.44 1.362-1.143 1.449l-8.007.923c-.483.044-1.187.132-1.935.132z" fill="#1E1E1E"/><path d="M540.986 466.209l.572 35.848s-20.676 4.833-26.13 22.01l45.749-.044 7.302-66.556-27.493 8.742zm-48.521 1.802l-5.235 34.969s-19.443 4.657-24.59 20.78l42.978-.044 13.593-59.879-26.746 4.174z" fill="#8A2C5B"/><path d="M640.007 393.151l-2.2-27.984-85.164-.132-1.628 9.577-13.153-.351c-33.344-1.494-38.666 23.591-38.666 23.591L471.79 504.781l40.778.22 20.764-75.518-9.414 74.815 41.438.615 8.094-76.924c9.766-2.24 41.483-9.665 49.621-14.014 8.182-3.075 17.332-13.487 16.936-20.824z" fill="#1E1E1E"/><path d="M638.775 320.445a97.376 97.376 0 00-29.605-29.258c5.147-8.391 4.223-16.87-17.42-18.627-35.016-1.23-38.579 8.171-38.623 15.464-11.525 9.181-18.564 18.934-22.743 28.204-5.015-4.613-14.296-13.136-16.672-14.717-3.299-2.197-5.411 1.669-8.05.307-2.639-1.362-3.563-1.757-3.563-1.757s-2.332 8.171-8.886 10.412c0 0 .132 1.23 1.584 3.778 1.451 2.548-1.716 4.393.659 7.556 2.376 3.163 22.743 29.214 22.743 29.214 2.464 2.416 8.182 10.983 14.385 8.391v-.571l.264.308 44.033.219-1.187 7.293c55.779 5.359 51.864 30.708 67.304 20.691l-1.628-33.739c5.279-6.282 7.479-17.572-2.595-33.168z" fill="#8A2C5B"/><path d="M595.797 281.961l5.587 3.734s-20.807 12.697-23.535 45.382c-1.803 21.702-2.199 46.918-2.199 46.918l-9.678 1.362s3.211-59.307-.572-70.334c-3.783-11.027-.308-23.415 2.244-25.436 2.551-2.021 28.153-1.626 28.153-1.626zm-102.144 10.72c-.352-.22-10.382-6.59-12.977-7.249-2.596-.659-2.947 2.46 5.103 6.897-2.464 2.592-3.124 6.414-1.584 9.665.748 1.713 7.566 8.479 9.898 8.742 2.331.264 11.129-2.02 9.282-7.468-1.804-5.491-4.971-7.424-9.722-10.587z" fill="#fff"/><path d="M494.533 312.054c-.22 0-.396 0-.572-.044-3.08-.351-10.162-7.688-10.954-9.533-1.495-3.163-1.187-6.941.792-9.84-4.575-2.768-6.686-5.404-5.939-7.337.352-.835 1.364-1.669 3.168-1.186 2.947.747 13.153 7.292 13.373 7.424l.483.308c4.575 3.031 7.831 5.228 9.766 10.939.66 1.889.308 3.734-.924 5.271-2.243 2.768-6.862 3.998-9.193 3.998zm-13.857-25.26c.616.878 2.199 2.416 5.762 4.349.352.22.616.571.66.966.044.396-.088.835-.352 1.099-2.111 2.152-2.639 5.447-1.319 8.171.66 1.45 7.17 7.776 8.886 7.995 1.319.132 5.674-.878 7.39-2.943.704-.835.836-1.713.484-2.768-1.628-4.832-4.311-6.633-8.754-9.577l-.484-.307c-1.144-.747-9.634-6.063-12.273-6.985z" fill="#1E1E1E"/><path d="M498.624 296.327s-8.666-3.427-9.546-2.9c-1.232.703.132 4.218 3.959 5.931 0 0-2.683 3.471-1.188 6.151" fill="#fff"/><path d="M491.849 306.783a1.27 1.27 0 01-1.144-.703c-1.231-2.285-.308-4.789.484-6.282-2.419-1.494-3.783-3.735-3.827-5.36-.044-1.011.352-1.801 1.1-2.241.528-.307 1.452-.79 10.689 2.856.66.264 1.012 1.054.748 1.713a1.333 1.333 0 01-1.715.747c-2.948-1.186-6.511-2.416-8.094-2.768.307.835 1.363 2.373 3.519 3.339.352.176.66.483.748.879.088.395 0 .791-.22 1.142 0 .044-2.112 2.856-1.1 4.701.352.659.132 1.449-.528 1.801-.22.132-.44.176-.66.176zm2.244 7.468c-1.716-2.592-1.98-3.778-1.98-3.778 6.291-1.406 9.414-10.676 9.414-10.676s1.232.308 4.003 1.889c1.144.615 2.155.132 2.947 0 1.144 8.699-10.029 15.508-13.9 17.353-.44-1.801.835-2.811-.484-4.788z" fill="#1E1E1E"/><path d="M567.951 337.007a70.815 70.815 0 00-12.185-1.318c-3.827-.044-10.293-.131-11.041.615-1.804 1.758 3.695 3.691 6.642 2.46" fill="#fff"/><path d="M549.168 340.478c-2.332 0-4.883-.879-5.763-2.241-.616-.966-.484-2.064.396-2.899.924-.879 3.343-1.098 11.745-1.011h.22c4.179.088 8.358.528 12.449 1.318a1.336 1.336 0 011.056 1.538 1.336 1.336 0 01-1.539 1.054c-3.916-.79-7.963-1.186-11.966-1.274h-.22c-2.331 0-7.302-.087-9.326.22 1.056.483 3.212.923 4.663.351.66-.263 1.452.044 1.716.703.264.659-.044 1.45-.704 1.714-.792.395-1.759.527-2.727.527z" fill="#1E1E1E"/><path d="M576.222 337.139c-2.64-.176-6.291-.395-10.91-.615-.528-.044-10.689 3.383-10.689 3.383l7.61 8.083s.44.747 12.449 2.988" fill="#fff"/><path d="M574.726 352.252c-.088 0-.176 0-.264-.044-11.349-2.109-12.845-2.944-13.241-3.427l-7.522-7.996c-.308-.307-.44-.79-.308-1.23.088-.439.44-.79.88-.922 10.381-3.471 10.909-3.471 11.173-3.427 3.871.22 7.566.44 10.909.615.748.044 1.276.659 1.232 1.406-.044.747-.66 1.274-1.408 1.23-3.299-.22-6.906-.395-10.733-.615-.836.176-4.883 1.494-8.358 2.636l6.07 6.458c.44.176 2.64 1.01 11.834 2.724a1.334 1.334 0 011.055 1.537c-.176.615-.703 1.055-1.319 1.055zm-11.438-5.096c.044.043.088.087.088.131 0-.044-.044-.088-.088-.131z" fill="#1E1E1E"/><path d="M553.303 341.576c-5.499.527-8.27.264-6.818-1.581.835-1.055 10.293-3.647 12.053-3.822 1.759-.176 11.261.746 11.261.746" fill="#fff"/><path d="M549.168 343.158c-2.464 0-3.651-.44-4.179-1.406-.264-.44-.528-1.362.44-2.548 1.275-1.626 11.569-4.174 12.977-4.306 1.847-.175 10.557.659 11.525.747.704.088 1.276.703 1.188 1.45-.088.703-.704 1.274-1.452 1.186-3.607-.351-9.81-.878-11.041-.747-1.496.132-7.963 1.933-10.426 2.988.88.044 2.331.044 4.927-.22.704-.088 1.363.439 1.451 1.186.088.747-.439 1.362-1.187 1.45-1.672.132-3.079.22-4.223.22z" fill="#1E1E1E"/><path d="M560.341 339.511a69.175 69.175 0 00-6.686 1.274c-2.948.791-4.839 1.889-4.707 2.416.132.528 1.979 1.977 3.871 1.626 2.771-.967 8.666-1.494 8.666-1.494-.572-.219-4.795.747-7.082 1.099-2.288.351-4.355 2.108.967 2.679l7.963 1.055" fill="#fff"/><path d="M563.333 349.484h-.176l-7.963-1.055c-1.187-.131-4.311-.439-4.487-2.46-1.583-.483-2.859-1.581-3.035-2.504-.396-1.933 2.86-3.251 5.675-3.998a63.059 63.059 0 016.862-1.318c.704-.087 1.408.396 1.496 1.143.088.703-.396 1.405-1.144 1.493-2.199.308-4.399.703-6.554 1.274-1.452.396-2.508.835-3.124 1.143.44.219 1.056.439 1.628.351 1.672-.571 4.223-.966 6.203-1.23 2.023-.352 2.771-.395 3.299-.22.572.22.924.835.836 1.406a1.267 1.267 0 01-1.188 1.098c-.044 0-1.1.088-2.508.264-.527.088-1.055.176-1.539.264-.968.175-1.98.395-2.771.483.219.044.439.044.747.088l8.006 1.054c.704.088 1.232.747 1.144 1.494-.22.746-.792 1.23-1.407 1.23zm12.141 3.295c-2.596-.967-3.432-1.758-3.432-1.758 3.388-5.271 0-14.014 0-14.014s.88-.219 3.608-.79a3.088 3.088 0 002.067-1.45c5.631 6.37 2.244 17.528.748 21.57-1.32-1.142-1.012-2.811-2.991-3.558zm29.517-16.035c-.088 0-.176 0-.264-.044a1.336 1.336 0 01-1.056-1.538c1.584-8.171 7.874-8.874 8.182-8.918.704-.088 1.364.44 1.452 1.186.088.703-.44 1.362-1.188 1.45-.22.044-4.619.615-5.85 6.809-.088.615-.66 1.055-1.276 1.055zm-23.139-9.006h-.132c-.704-.088-1.275-.703-1.187-1.45.791-8.171 6.378-19.857 6.598-20.34.308-.659 1.1-.923 1.76-.615.66.307.923 1.098.616 1.757-.044.132-5.631 11.73-6.335 19.418-.088.703-.66 1.23-1.32 1.23zm-18.168 0h-.131c-.704-.088-1.232-.747-1.188-1.45.836-7.732-1.716-18.803-1.716-18.934a1.31 1.31 0 01.968-1.582 1.312 1.312 0 011.584.967c.132.483 2.683 11.641 1.803 19.813-.088.659-.66 1.186-1.32 1.186z" fill="#1E1E1E"/><path d="M613.393 360.818h-.088c-1.232-.088-29.869-2.021-33.256-2.899-2.42-.615-3.079-2.021-3.563-3.032-.352-.702-.484-1.01-1.056-1.23-2.552-.966-3.475-1.801-3.607-1.933a1.396 1.396 0 01-.22-1.669c2.727-4.393-.088-11.993-.132-12.081-.132-.352-.132-.747.044-1.054a1.25 1.25 0 01.836-.659c.044 0 .879-.22 3.431-.747.616-.132.792-.396 1.276-1.055.659-.922 1.539-2.196 4.047-2.416 3.475-.307 30.088 2.724 33.08 3.031.704.088 1.232.747 1.144 1.45-.088.703-.748 1.23-1.452 1.142-8.138-.922-29.869-3.295-32.553-3.031-1.275.132-1.583.571-2.111 1.274-.528.747-1.232 1.757-2.903 2.109a52.02 52.02 0 01-1.936.395c.704 2.504 1.848 7.732.044 11.862.44.219 1.056.527 1.936.878 1.583.615 2.111 1.714 2.507 2.548.396.791.616 1.318 1.848 1.626 2.639.659 24.546 2.284 32.772 2.811.748.044 1.276.659 1.232 1.406-.044.747-.616 1.274-1.32 1.274zm-69.944-33.3c-.44 0-.836-.22-1.1-.571-4.091-6.019-11.217-9.665-11.261-9.709-.66-.307-.924-1.142-.572-1.757.308-.659 1.144-.923 1.76-.571.308.176 7.786 3.998 12.273 10.587a1.338 1.338 0 01-.352 1.845c-.264.088-.528.176-.748.176zm65.853-36.595c-5.059 8.435-16.364 16.782-19.048 18.012v.044c7.567.351 25.25-9.401 28.242-11.115-3.651-2.723-6.687-5.272-9.194-6.941zm-55.999 1.01c-.044-1.23-.176-2.679-.176-4.173h-.044c-2.156 1.713-4.223 3.427-6.115 5.184 2.288 4.437 6.907 11.159 11.966 14.278-1.452-3.163-5.323-7.381-5.631-15.289z" fill="#1E1E1E"/><path d="M594.301 258.59s6.599.132 5.411 6.018c-1.187 5.887-8.49 2.505-8.49 2.505l.968-8.391 2.111-.132z" fill="#fff"/><path d="M595.445 269.441c-2.287 0-4.443-.967-4.751-1.099a1.266 1.266 0 01-.748-1.361l.968-8.391c.088-.615.572-1.143 1.232-1.143l2.067-.131h.088c.132 0 3.739.088 5.675 2.504 1.056 1.318 1.408 3.075 1.012 5.096-.484 2.328-1.76 3.426-2.772 3.91-.835.439-1.803.615-2.771.615zm-2.771-3.163c1.231.395 3.167.834 4.399.175.704-.351 1.143-1.054 1.363-2.064.264-1.274.088-2.241-.484-2.944-1.055-1.318-3.299-1.493-3.651-1.493l-.923.043-.704 6.283z" fill="#1E1E1E"/><path d="M575.518 240.007c-1.76-.132-13.637-.879-14.957 9.049-1.32 9.929.088 20.868 1.188 25.876 1.1 5.008 23.886 2.68 25.206 2.241 1.32-.44 2.815-1.933 2.815-1.933l3.124-15.245c0-.044 1.275-18.407-17.376-19.988z" fill="#fff"/><path d="M574.154 279.413c-4.619 0-9.238-.395-11.657-1.757-1.144-.615-1.804-1.45-2.024-2.416-1.1-4.965-2.595-16.123-1.232-26.359 1.1-8.391 9.194-10.763 16.365-10.192 19.751 1.669 18.607 21.175 18.607 21.35 0 .044 0 .132-.044.176l-3.123 15.244a1.208 1.208 0 01-.352.659c-.176.176-1.803 1.714-3.299 2.241-.616.263-6.95 1.054-13.241 1.054zm-.572-38.176c-3.871 0-10.821 1.01-11.745 7.951-1.32 9.885.132 20.648 1.188 25.437.044.263.439.527.615.659 4.355 2.635 21.204 1.098 22.875.615.66-.22 1.54-.923 2.024-1.362l3.035-14.717c.088-1.406.484-17.09-16.188-18.495a18.16 18.16 0 00-1.804-.088z" fill="#1E1E1E"/><path d="M591.838 266.629l.396 12.345 3.519 3.998a100.7 100.7 0 00-20.235 17.66s-8.094-8.523-9.546-21.922l19.004 2.373 1.495-7.425 5.367-7.029z" fill="#fff"/><path d="M575.562 301.994c-.352 0-.704-.132-.968-.395-.352-.352-8.446-9.006-9.898-22.713a1.325 1.325 0 01.396-1.098c.308-.264.704-.44 1.1-.352l17.772 2.197 1.232-6.194c.044-.176.131-.396.263-.528l5.367-7.029a1.32 1.32 0 011.452-.439c.528.176.88.659.924 1.23l.396 11.906 3.211 3.646c.264.307.352.659.308 1.054-.044.396-.264.703-.572.923-7.39 4.876-14.121 10.763-19.972 17.397-.263.219-.615.395-1.011.395zm-8.006-21.746c1.407 9.226 6.026 15.859 8.006 18.407 5.411-6.018 11.525-11.334 18.212-15.903l-2.552-2.899c-.22-.22-.308-.528-.308-.835l-.308-8.655-2.903 3.866-1.408 7.117c-.132.659-.792 1.142-1.451 1.055l-17.288-2.153z" fill="#1E1E1E"/><path d="M590.65 259.864c-1.143 1.098-4.179 7.38-4.883 10.323 0 0-7.478-2.46-18.255-2.635 0 0-5.851.131-8.182.79 0 0 .527 10.412 5.234 15.816 4.707 5.403 14.781 3.866 19.488.659 4.707-3.207 5.498-4.789 6.598-8.26 1.1-3.47 3.959-16.386 3.959-16.386l-3.959-.307z" fill="#A7A9AC"/><path d="M593.729 262.06s3.08-4.788 4.311-9.796c1.188-4.657-1.055-9.534-5.41-11.686-3.651-1.757-6.335-.396-6.335-.396s3.871-6.545-1.935-12.344c-2.024-2.065-4.839-3.163-7.742-3.076a10.155 10.155 0 00-9.238 6.151s-7.567-13.882-23.051-5.667c-1.584.834-3.343 3.119-4.179 4.7-5.103 9.402 11.745 20.56 20.543 21.439 9.634.966 15.309-.615 18.388-2.987-2.288 1.493.308 15.903 14.648 13.662zm-26.877 11.906c-.308 0-.616-.132-.88-.308a1.347 1.347 0 01-.44-1.142l1.056-9.05c.088-.703.748-1.23 1.451-1.142.704.088 1.232.747 1.144 1.45l-.836 7.16 1.364-.351a1.311 1.311 0 011.584.966 1.31 1.31 0 01-.968 1.582l-3.211.835c-.044-.044-.176 0-.264 0zm-2.772-9.577c.511 0 .924-.649.924-1.45 0-.801-.413-1.45-.924-1.45-.51 0-.924.649-.924 1.45 0 .801.414 1.45.924 1.45zm8.578-.264c.511 0 .924-.649.924-1.45 0-.8-.413-1.449-.924-1.449-.51 0-.923.649-.923 1.449 0 .801.413 1.45.923 1.45z" fill="#1E1E1E"/><path d="M577.541 258.238c-.396 0-.792-.176-1.056-.527-.659-.835-1.715-1.274-2.771-1.098-.704.132-1.407-.396-1.495-1.099-.132-.702.395-1.405 1.099-1.493 2.024-.308 4.047.483 5.279 2.065.44.571.352 1.405-.22 1.845-.308.219-.572.307-.836.307zm-15.836-.307c-.132 0-.264 0-.396-.044-.704-.22-1.1-.967-.88-1.626.748-2.416 3.299-2.723 4.839-2.328.704.176 1.144.923.968 1.625a1.312 1.312 0 01-1.584.967c-.22-.044-1.363-.308-1.627.527-.22.527-.748.879-1.32.879zm10.778 20.516c-.264 0-.484-.044-.748-.088a1.313 1.313 0 01-1.056-1.538 1.337 1.337 0 011.54-1.054c1.011.176 1.363-.703 1.451-1.23a1.315 1.315 0 011.54-1.055 1.358 1.358 0 011.1 1.494c-.044.176-.352 1.845-1.672 2.812a3.78 3.78 0 01-2.155.659zm75.09 247.333H54.503c-.748 0-1.32-.571-1.32-1.318V360.291c0-.747.572-1.318 1.32-1.318h593.07c.748 0 1.32.571 1.32 1.318v164.171c0 .747-.616 1.318-1.32 1.318zm-591.75-2.635h590.43V361.609H55.823v161.536z" fill="#1E1E1E"/><path d="M648.277 359.939H53.36v21.131h594.917v-21.131zM701.68 526H1.32c-.748 0-1.32-.571-1.32-1.318 0-.747.572-1.318 1.32-1.318h700.36c.748 0 1.32.571 1.32 1.318 0 .747-.572 1.318-1.32 1.318z" fill="#1E1E1E"/></g><defs><clipPath id="clip0"><path fill="#fff" transform="translate(0 193)" d="M0 0h703v333H0z"/></clipPath></defs></svg>