<svg width="517" height="299" fill="none" xmlns="http://www.w3.org/2000/svg"><path d="M168.764 57.729c-66.6 0-120.49 53.914-120.49 120.27a120.98 120.98 0 005.865 37.203l114.625-37.203V57.729z" fill="#4E2D5E"/><path d="M283.512 140.917c-15.642-48.302-61.101-83.188-114.625-83.188v120.27L54.261 215.202c15.642 48.303 61.101 83.188 114.626 83.188 66.6 0 120.491-53.914 120.491-120.269 0-12.93-2.078-25.494-5.866-37.204z" fill="#8A2C5B"/><path d="M168.765.07v178.05M1 231.568l167.765-53.447" stroke="#1E1E1E" stroke-width="2" stroke-miterlimit="10"/><path d="M157.363 223.818h-4.075l-4.484 2.788v3.8l4.066-2.486h.107V242h4.386v-18.182zm12.426 0h-4.075l-4.483 2.788v3.8l4.066-2.486h.107V242h4.385v-18.182zm11.122 18.431c4.253 0 7.342-2.211 7.342-5.167 0-2.255-1.82-4.084-4.084-4.439v-.142c1.971-.373 3.409-2.007 3.409-4.013 0-2.832-2.823-4.918-6.667-4.918s-6.667 2.077-6.667 4.918c0 2.006 1.403 3.64 3.409 4.013v.142c-2.299.355-4.084 2.184-4.084 4.439 0 2.956 3.09 5.167 7.342 5.167zm0-3.117c-1.616 0-2.734-1.012-2.734-2.405 0-1.421 1.154-2.442 2.734-2.442s2.734 1.03 2.734 2.442c0 1.402-1.127 2.405-2.734 2.405zm0-7.945c-1.385 0-2.379-.932-2.379-2.22 0-1.278.985-2.175 2.379-2.175 1.394 0 2.379.906 2.379 2.175 0 1.296-1.003 2.22-2.379 2.22zm-80.674-77.938c4.235 0 7.058-2.664 7.058-6.41 0-3.463-2.415-5.931-5.682-5.931-1.722 0-3.152.737-3.755 1.74h-.107l.417-4.288h8.052v-3.542H94.555l-.79 9.801 3.88.728c.488-.816 1.5-1.322 2.565-1.314 1.669 0 2.859 1.181 2.85 2.93.009 1.74-1.163 2.912-2.823 2.912-1.412 0-2.575-.879-2.637-2.219h-4.26c.053 3.267 2.92 5.593 6.898 5.593zm16.386 0c4.261 0 7.289-2.255 7.28-5.416.009-2.237-1.456-3.835-4.261-4.164v-.142c2.104-.302 3.595-1.713 3.586-3.755.009-2.965-2.672-5.202-6.569-5.202-3.924 0-6.783 2.272-6.819 5.504h4.2c.035-1.243 1.154-2.078 2.619-2.078 1.393 0 2.343.844 2.334 2.06.009 1.261-1.109 2.131-2.725 2.131h-1.767v3.125h1.767c1.838 0 3.036.905 3.018 2.184.018 1.287-1.083 2.184-2.645 2.184-1.554 0-2.699-.826-2.743-2.024h-4.422c.036 3.284 2.992 5.593 7.147 5.593z" fill="#fff"/><path d="M375.37 115.636h-2.457l-3.061 1.938v2.318l2.831-1.774h.073V128h2.614v-12.364zm8.317 0h-2.457l-3.061 1.938v2.318l2.832-1.774h.072V128h2.614v-12.364zm7.551 12.533c2.789 0 4.793-1.491 4.799-3.495-.006-1.546-1.195-2.808-2.68-3.055v-.085c1.292-.265 2.215-1.382 2.221-2.74-.006-1.914-1.841-3.327-4.34-3.327-2.505 0-4.341 1.413-4.335 3.327-.006 1.352.906 2.475 2.222 2.74v.085c-1.509.247-2.686 1.509-2.68 3.055-.006 2.004 2.004 3.495 4.793 3.495zm0-1.92c-1.244 0-2.077-.736-2.077-1.781 0-1.068.876-1.841 2.077-1.841 1.195 0 2.077.773 2.077 1.841 0 1.051-.84 1.781-2.077 1.781zm0-5.524c-1.045 0-1.787-.682-1.787-1.66 0-.966.73-1.63 1.787-1.63 1.05 0 1.787.67 1.787 1.63 0 .978-.749 1.66-1.787 1.66zm16.067 4.432l-2.439-6.43h-3.042V128h2.457v-5.693l2.167 5.693h1.708l2.3-5.898V128h2.427v-9.273h-3.066l-2.512 6.43zm7.024 2.843h.773c1.968 0 3.012-1.304 3.169-4.419l.145-2.831h2.288V128h2.451v-9.273h-7.051l-.151 4.105c-.09 2.349-.453 3.128-1.328 3.128h-.308l.012 2.04zm10.82 3.477h2.572v-4.962h.078c.356.773 1.135 1.636 2.632 1.636 2.113 0 3.761-1.672 3.761-4.775 0-3.188-1.72-4.769-3.755-4.769-1.551 0-2.294.923-2.638 1.678h-.115v-1.558h-2.535v12.75zm2.517-8.113c0-1.654.701-2.711 1.95-2.711 1.274 0 1.95 1.105 1.95 2.711 0 1.618-.688 2.74-1.95 2.74-1.237 0-1.95-1.086-1.95-2.74zm7.516 7.353h2.512V128h5.668v2.717h2.451v-4.757h-1.437v-7.233h-7.111l-.242 3.031c-.144 1.823-.319 3.688-1.128 4.202h-.713v4.757zm3.272-4.757c.55-.864.761-2.222.9-4.202l.096-1.051h2.5v5.253h-3.496zm19.137-2.433c2.874 0 4.679-1.504 4.667-3.9.012-2.282-1.733-3.991-4.667-3.991h-4.829v5.796h-1.757v2.095h1.757v.797h-1.757v2.094h1.757V128h2.596v-1.582h2.698v-2.094h-2.698v-.797h2.233zm-2.233-2.095v-3.671h2.233c1.383 0 2.059.833 2.053 1.896.006 1.087-.658 1.775-2.125 1.775h-2.161zM370.438 153h.996v-5.012h6.189V153h.996v-10.909h-.996v5.002h-6.189v-5.002h-.996V153zm10.046 2.647h.948V153h8.043v2.621h.948v-3.516h-1.278v-10.014h-6.238l-.218 4.735c-.133 3.079-.756 4.491-1.513 5.279h-.692v3.542zm1.885-3.542c.736-1.129 1.156-2.78 1.274-5.279l.17-3.84h4.384v9.119h-5.828zm18.746-6.605c-.356-2.008-1.997-3.558-4.32-3.558-2.753 0-4.714 2.189-4.714 5.603 0 3.415 1.961 5.604 4.714 5.604 2.323 0 3.964-1.555 4.32-3.558h-1.001c-.304 1.497-1.609 2.621-3.319 2.621-2.066 0-3.75-1.636-3.75-4.667 0-3.02 1.684-4.666 3.75-4.666 1.71 0 3.015 1.13 3.319 2.621h1.001zm-26.608 57.669c2.752 0 4.624-1.793 4.618-4.292.006-2.367-1.648-4.069-3.876-4.069-1.087 0-2.022.453-2.457 1.062h-.072l.32-3.097h5.403v-2.137h-7.559l-.585 6.52 2.324.417c.38-.513 1.117-.833 1.847-.833 1.244.006 2.137.905 2.137 2.203 0 1.286-.875 2.173-2.1 2.173-1.039 0-1.878-.652-1.938-1.611h-2.536c.048 2.137 1.914 3.664 4.474 3.664zm11.011 0c2.777 0 4.763-1.527 4.757-3.64.006-1.54-.972-2.638-2.789-2.868v-.096c1.382-.248 2.336-1.226 2.33-2.614.006-1.95-1.702-3.484-4.262-3.484-2.535 0-4.443 1.485-4.479 3.622h2.505c.03-.941.894-1.551 1.962-1.551 1.057 0 1.763.64 1.757 1.57.006.972-.821 1.63-2.011 1.63h-1.153v1.919h1.153c1.401 0 2.276.701 2.27 1.697.006.984-.839 1.66-2.034 1.66-1.153 0-2.016-.604-2.065-1.509h-2.632c.042 2.161 1.974 3.664 4.691 3.664zm16.076-3.012l-2.439-6.43h-3.042V203h2.457v-5.693l2.167 5.693h1.708l2.301-5.898V203h2.426v-9.273h-3.066l-2.512 6.43zm7.024 2.843h.773c1.968 0 3.012-1.304 3.169-4.419l.145-2.831h2.288V203h2.451v-9.273h-7.051l-.151 4.105c-.09 2.349-.453 3.128-1.328 3.128h-.308l.012 2.04zm10.82 3.477h2.572v-4.962h.078c.356.773 1.135 1.636 2.632 1.636 2.113 0 3.761-1.672 3.761-4.775 0-3.188-1.72-4.769-3.755-4.769-1.551 0-2.294.923-2.638 1.678h-.115v-1.558h-2.535v12.75zm2.517-8.113c0-1.654.701-2.711 1.95-2.711 1.274 0 1.95 1.105 1.95 2.711 0 1.618-.688 2.74-1.95 2.74-1.237 0-1.95-1.086-1.95-2.74zm7.516 7.353h2.512V203h5.668v2.717h2.451v-4.757h-1.436v-7.233h-7.112l-.241 3.031c-.145 1.823-.32 3.688-1.129 4.202h-.713v4.757zm3.272-4.757c.55-.864.761-2.222.9-4.202l.096-1.051h2.5v5.253h-3.496zm19.137-2.433c2.874 0 4.679-1.504 4.667-3.9.012-2.282-1.733-3.991-4.667-3.991h-4.829v5.796h-1.757v2.095h1.757v.797h-1.757v2.094h1.757V203h2.596v-1.582h2.698v-2.094h-2.698v-.797h2.233zm-2.233-2.095v-3.671h2.233c1.383 0 2.059.833 2.053 1.896.006 1.087-.658 1.775-2.125 1.775h-2.161zm-78.458 23.386h-.948V228h.948v-3.638h4.325V228h.948v-8.182h-.948v3.649h-4.325v-3.649zm10.082 8.368c1.363 0 2.194-.756 2.535-1.48h.059V228h.948v-5.556c0-2.194-1.651-2.738-2.903-2.738s-2.541.496-3.095 1.833l.9.325c.299-.703 1.039-1.305 2.222-1.305 1.241 0 1.928.681 1.928 1.8v.192c0 .618-.767.628-2.141.799-1.849.229-3.143.746-3.143 2.365 0 1.577 1.204 2.471 2.69 2.471zm.128-.868c-1.071 0-1.87-.57-1.87-1.561 0-.99.81-1.406 2.195-1.576.671-.08 1.864-.229 2.141-.501v1.183c0 1.342-.954 2.455-2.466 2.455zm5.132.682h.341c1.838 0 2.173-1.369 2.301-4.032l.154-3.255h3.346V228h.953v-8.182h-5.199l-.176 3.83c-.122 2.711-.298 3.457-1.464 3.457h-.256V228zm12.788.17c2.12 0 3.601-1.731 3.601-4.224 0-2.508-1.481-4.24-3.601-4.24s-3.601 1.732-3.601 4.24c0 2.493 1.481 4.224 3.601 4.224zm0-.868c-1.699 0-2.647-1.523-2.647-3.356 0-1.832.948-3.377 2.647-3.377 1.699 0 2.647 1.545 2.647 3.377 0 1.833-.948 3.356-2.647 3.356zm10.546-7.484h-4.864V228h.948v-7.287h3.916v-.895zm7.159 0h-.948V228h.948v-3.638h4.325V228h.948v-8.182h-.948v3.649h-4.325v-3.649zm10.082 8.368c1.363 0 2.194-.756 2.535-1.48h.059V228h.948v-5.556c0-2.194-1.651-2.738-2.903-2.738s-2.541.496-3.095 1.833l.9.325c.299-.703 1.039-1.305 2.222-1.305 1.241 0 1.928.681 1.928 1.8v.192c0 .618-.767.628-2.141.799-1.849.229-3.143.746-3.143 2.365 0 1.577 1.204 2.471 2.69 2.471zm.128-.868c-1.071 0-1.87-.57-1.87-1.561 0-.99.81-1.406 2.195-1.576.671-.08 1.864-.229 2.141-.501v1.183c0 1.342-.954 2.455-2.466 2.455zM437.4 228h.953v-7.287h4.288V228h.954v-8.182H437.4V228zm8.689 3.068h.953v-4.586h.086c.324.751 1.028 1.688 2.514 1.688 2.003 0 3.366-1.704 3.366-4.24 0-2.524-1.358-4.224-3.382-4.224-1.502 0-2.168.938-2.498 1.673h-.118v-1.561h-.921v11.25zm.937-7.154c0-1.96.901-3.345 2.499-3.345 1.645 0 2.53 1.46 2.53 3.345 0 1.907-.9 3.388-2.53 3.388-1.582 0-2.499-1.411-2.499-3.388zm9.006 2.738v-6.834h-.948V228h1.151l4.304-6.834V228h.948v-8.182h-1.135l-4.32 6.834zm13.85-9.902c-.4.33-.991.33-1.774.33-.261 0-.543 0-.847.011-2.509.085-3.691 1.997-3.691 5.811v.858c0 2.882 1.406 4.41 3.553 4.41 2.125 0 3.537-1.608 3.537-4.128 0-2.546-1.449-3.968-3.33-3.968-1.198 0-2.263.596-2.807 1.71h-.106c.154-2.403.985-3.713 2.887-3.804.213-.01.421-.016.623-.021 1.039-.032 1.886-.058 2.45-.607l-.495-.602zm-2.759 10.552c-1.614 0-2.6-1.225-2.6-3.206.016-1.822 1.002-3.154 2.621-3.154 1.545 0 2.567 1.145 2.567 3.1 0 1.976-1.001 3.26-2.588 3.26zm6.577-4.325v-3.159h-.948V228h3.18c1.837 0 2.881-1.017 2.881-2.536 0-1.528-1.038-2.487-2.881-2.487H473.7zm0 .895h2.232c1.156 0 1.933.596 1.933 1.635 0 1.028-.777 1.598-1.933 1.598H473.7v-3.233zm6.488 4.128h.953v-8.182h-.953V228zm2.671 0h.341c1.838 0 2.173-1.369 2.301-4.032l.155-3.255h3.345V228h.953v-8.182h-5.199l-.175 3.83c-.123 2.711-.299 3.457-1.465 3.457h-.256V228zm10.556-5.023v-3.159h-.948V228h3.18c1.838 0 2.882-1.017 2.882-2.536 0-1.528-1.039-2.487-2.882-2.487h-2.232zm0 .895h2.232c1.156 0 1.934.596 1.934 1.635 0 1.028-.778 1.598-1.934 1.598h-2.232v-3.233z" fill="#1E1E1E"/><circle cx="338.989" cy="122" r="10" fill="#8A2C5B"/><circle cx="338.989" cy="197" r="10" fill="#4E2D5E"/></svg>