<svg width="456" height="313" fill="none" xmlns="http://www.w3.org/2000/svg"><path d="M2.985 142.057L452.5 21.61m-13.755-4.56l14.602 4.415-10.437 11.126" stroke="#A7A9AC"/><path fill="#4E2D5E" d="M148 141h70v115h-70z"/><path fill="#8A2C5B" d="M238 0h70v256h-70z"/><path d="M166.72 286h7.181v-1.412h-4.912v-.079l2.168-2.27c1.998-2.018 2.568-2.983 2.568-4.202 0-1.753-1.428-3.095-3.484-3.095-2.04 0-3.531 1.321-3.531 3.313h1.571c-.005-1.172.751-1.939 1.928-1.939 1.108 0 1.95.682 1.95 1.769 0 .964-.575 1.656-1.747 2.897l-3.692 3.825V286zm12.997.181c2.52 0 3.995-2.056 3.995-5.63 0-3.548-1.496-5.609-3.995-5.609-2.503 0-3.995 2.056-4 5.609 0 3.569 1.476 5.625 4 5.63zm0-1.422c-1.475 0-2.365-1.481-2.365-4.208.006-2.717.895-4.214 2.365-4.214 1.465 0 2.36 1.497 2.36 4.214 0 2.727-.889 4.208-2.36 4.208zm10.024-9.668h-1.603l-2.722 1.779v1.577l2.61-1.705h.064V286h1.651v-10.909zM193.059 286h1.721l4.746-9.45v-1.459h-7.212v1.412h5.508v.079L193.059 286zm63.236 0h7.181v-1.412h-4.911v-.079l2.168-2.27c1.997-2.018 2.567-2.983 2.567-4.202 0-1.753-1.427-3.095-3.484-3.095-2.04 0-3.531 1.321-3.531 3.313h1.571c-.005-1.172.751-1.939 1.928-1.939 1.108 0 1.95.682 1.95 1.769 0 .964-.575 1.656-1.747 2.897l-3.692 3.825V286zm12.998.181c2.519 0 3.995-2.056 3.995-5.63 0-3.548-1.497-5.609-3.995-5.609-2.504 0-3.995 2.056-4.001 5.609 0 3.569 1.476 5.625 4.001 5.63zm0-1.422c-1.476 0-2.365-1.481-2.365-4.208.005-2.717.894-4.214 2.365-4.214 1.464 0 2.359 1.497 2.359 4.214 0 2.727-.889 4.208-2.359 4.208zm10.023-9.668h-1.603l-2.722 1.779v1.577l2.61-1.705h.064V286h1.651v-10.909zm6.579-.149c-2.291-.022-3.788 1.624-3.788 3.691.006 2.083 1.513 3.585 3.404 3.585 1.156 0 2.147-.565 2.706-1.481h.085c-.005 2.509-.948 3.974-2.546 3.974-1.044 0-1.715-.639-1.928-1.571h-1.625c.24 1.763 1.604 3.009 3.553 3.009 2.536 0 4.123-2.178 4.123-5.998-.005-3.984-2.04-5.193-3.984-5.209zm.005 1.385c1.262 0 2.195 1.07 2.195 2.269.005 1.214-.981 2.28-2.227 2.28-1.252 0-2.157-1.002-2.163-2.264 0-1.268.943-2.285 2.195-2.285z" fill="#1E1E1E"/><path d="M279.169 228.428c0-2.777-1.527-4.763-3.64-4.757-1.54-.006-2.638.972-2.868 2.789h-.096c-.248-1.383-1.226-2.336-2.614-2.33-1.95-.006-3.484 1.702-3.484 4.262 0 2.535 1.485 4.443 3.622 4.479v-2.505c-.941-.03-1.551-.894-1.551-1.962 0-1.057.64-1.763 1.57-1.757.972-.006 1.63.821 1.63 2.01v1.153h1.919v-1.153c0-1.4.701-2.276 1.697-2.27.984-.006 1.66.84 1.66 2.035 0 1.153-.604 2.016-1.509 2.065v2.632c2.161-.043 3.664-1.974 3.664-4.691zm0-11.206c0-2.777-1.527-4.763-3.64-4.757-1.54-.006-2.638.972-2.868 2.789h-.096c-.248-1.383-1.226-2.336-2.614-2.33-1.95-.006-3.484 1.702-3.484 4.262 0 2.535 1.485 4.443 3.622 4.479v-2.505c-.941-.03-1.551-.894-1.551-1.962 0-1.057.64-1.763 1.57-1.757.972-.006 1.63.821 1.63 2.01v1.153h1.919v-1.153c0-1.4.701-2.276 1.697-2.27.984-.006 1.66.84 1.66 2.035 0 1.153-.604 2.016-1.509 2.065v2.632c2.161-.043 3.664-1.974 3.664-4.691zm-1.859-9.107v2.125l.676.03c1.642.073 3.326.544 4.032.719v-1.666c-.73-.29-2.444-.978-4.044-1.141l-.664-.067zm1.859-6.743c0-2.753-1.793-4.624-4.292-4.618-2.367-.006-4.069 1.648-4.069 3.875 0 1.087.453 2.023 1.062 2.457v.073l-3.097-.32v-5.403h-2.137v7.558l6.52.586.417-2.325c-.513-.38-.833-1.116-.833-1.847.006-1.243.905-2.137 2.203-2.137 1.286 0 2.173.875 2.173 2.101 0 1.038-.652 1.877-1.611 1.938v2.535c2.137-.048 3.664-1.913 3.664-4.473zm-3.012-15.882l-6.43 2.439v3.043H279v-2.457h-5.693l5.693-2.167v-1.709l-5.898-2.3H279v-2.427h-9.273v3.067l6.43 2.511zm2.843-7.024v-.772c0-1.968-1.304-3.013-4.419-3.17l-2.831-.145v-2.288H279v-2.451h-9.273v7.051l4.105.151c2.349.091 3.128.453 3.128 1.329v.307l2.04-.012zm-9.273-13.276v2.457H279v-2.457h-3.64v-3.17H279v-2.439h-9.273v2.439h3.61v3.17h-3.61zm4.8-17.883c0-2.874-1.504-4.679-3.9-4.667-2.282-.012-3.991 1.733-3.991 4.667v4.829h5.796v1.757h2.095v-1.757h.797v1.757h2.094v-1.757H279v-2.596h-1.582v-2.698h-2.094v2.698h-.797v-2.233zm-2.095 2.233h-3.671v-2.233c0-1.383.833-2.059 1.896-2.053 1.087-.006 1.775.658 1.775 2.125v2.161zm-95.796 78.079v2.457l1.938 3.061h2.318l-1.774-2.832v-.072H189v-2.614h-12.364zm12.533-7.454c0-2.753-1.793-4.624-4.292-4.618-2.367-.006-4.069 1.648-4.069 3.875 0 1.087.453 2.023 1.062 2.457v.073l-3.097-.32v-5.403h-2.137v7.558l6.52.586.417-2.325c-.513-.38-.833-1.116-.833-1.847.006-1.243.905-2.137 2.203-2.137 1.286 0 2.173.875 2.173 2.101 0 1.038-.652 1.877-1.611 1.938v2.535c2.137-.048 3.664-1.913 3.664-4.473zm-3.012-15.882l-6.43 2.439v3.043H189v-2.457h-5.693l5.693-2.167v-1.709l-5.898-2.3H189v-2.427h-9.273v3.067l6.43 2.511zm2.843-7.024v-.772c0-1.968-1.304-3.013-4.419-3.17l-2.831-.145v-2.288H189v-2.451h-9.273v7.051l4.105.151c2.349.091 3.128.453 3.128 1.328v.308l2.04-.012zm-9.273-13.276v2.457H189v-2.457h-3.64v-3.17H189v-2.439h-9.273v2.439h3.61v3.17h-3.61zm4.8-17.883c0-2.874-1.504-4.679-3.9-4.667-2.282-.012-3.991 1.733-3.991 4.667v4.829h5.796v1.757h2.095v-1.757h.797v1.757h2.094v-1.757H189v-2.596h-1.582v-2.698h-2.094v2.698h-.797V166.1zm-2.095 2.233h-3.671V166.1c0-1.383.833-2.059 1.896-2.053 1.087-.006 1.775.658 1.775 2.125v2.161z" fill="#fff"/><path fill="#1E1E1E" d="M3 254h450v2H3z"/></svg>