<svg width="28" height="28" viewBox="0 0 28 28" fill="" xmlns="http://www.w3.org/2000/svg">
<path d="M25.4092 14.1755C25.1199 12.9184 24.0916 11.9912 22.854 11.8531C19.9239 11.5258 16.9567 11.5243 14.0041 11.5258C11.0502 11.5243 8.08369 11.5258 5.15267 11.8531C3.91567 11.9915 2.88802 12.9188 2.59899 14.1755C2.18707 15.9656 2.18213 17.9196 2.18213 19.7627C2.18213 21.6059 2.18213 23.5596 2.59405 25.3496C2.88308 26.6064 3.91073 27.5337 5.14835 27.672C8.07875 27.9997 11.0453 28.0009 13.9988 27.9997C16.9527 28.0012 19.9186 27.9997 22.8499 27.672C24.087 27.5337 25.1152 26.6064 25.4042 25.3496C25.8159 23.5596 25.818 21.6059 25.818 19.7627C25.8177 17.9193 25.8208 15.9656 25.4092 14.1755ZM8.9239 15.5629H7.21322V24.653H5.62419V15.5629H3.94469V14.0739H8.9239V15.5629ZM13.2398 24.6533H11.8105V23.7934C11.2426 24.4443 10.7035 24.7617 10.1782 24.7617C9.7178 24.7617 9.40098 24.5752 9.25801 24.1759C9.1802 23.9376 9.13203 23.5602 9.13203 23.0038V16.7706H10.5602V22.5743C10.5602 22.909 10.5602 23.0828 10.5731 23.1298C10.6074 23.3515 10.7158 23.4639 10.9073 23.4639C11.1938 23.4639 11.4933 23.2431 11.8102 22.795V16.7706H13.2395L13.2398 24.6533ZM18.6662 22.2874C18.6662 23.0164 18.6171 23.5417 18.5217 23.8758C18.3308 24.4622 17.9489 24.7617 17.3807 24.7617C16.8724 24.7617 16.3821 24.4795 15.9044 23.8897V24.6536H14.4762V14.0739H15.9044V17.529C16.3657 16.9611 16.8554 16.6739 17.3807 16.6739C17.9489 16.6739 18.3311 16.9731 18.5217 17.5632C18.6177 17.8804 18.6662 18.4016 18.6662 19.1479V22.2874ZM24.0567 20.9723H21.2001V22.3695C21.2001 23.0992 21.4388 23.4636 21.9298 23.4636C22.2815 23.4636 22.4862 23.2724 22.5677 22.8908C22.581 22.8133 22.5998 22.4958 22.5998 21.923H24.057V22.1315C24.057 22.5919 24.0394 22.909 24.0264 23.0516C23.9786 23.3678 23.8662 23.6547 23.6929 23.9073C23.2974 24.4798 22.7113 24.762 21.9653 24.762C21.218 24.762 20.6492 24.4931 20.2364 23.9549C19.9334 23.5602 19.7778 22.9389 19.7778 22.1012V19.3403C19.7778 18.4976 19.9158 17.8813 20.2194 17.483C20.6319 16.9435 21.2004 16.6749 21.9301 16.6749C22.6468 16.6749 23.2149 16.9435 23.6151 17.483C23.9143 17.8813 24.0573 18.4976 24.0573 19.3403V20.9723H24.0567Z" fill="white"/>
<path d="M21.9174 17.96C21.44 17.96 21.2007 18.3246 21.2007 19.0534V19.7827H22.6288V19.0534C22.6285 18.3246 22.3898 17.96 21.9174 17.96Z" fill="white"/>
<path d="M16.6167 17.96C16.3814 17.96 16.143 18.0711 15.9043 18.3073V23.1118C16.1427 23.3508 16.3814 23.4638 16.6167 23.4638C17.0286 23.4638 17.2379 23.1118 17.2379 22.4V19.0355C17.2379 18.3246 17.0286 17.96 16.6167 17.96Z" fill="white"/>
<path d="M17.4144 10.7991C17.9408 10.7991 18.4886 10.4792 19.0633 9.82089V10.6898H20.5069V2.72339H19.0633V8.81208C18.7434 9.26414 18.4402 9.48771 18.1514 9.48771C17.9581 9.48771 17.8445 9.37345 17.813 9.14958C17.7954 9.10234 17.7954 8.92664 17.7954 8.58851V2.72339H16.3564V9.02267C16.3564 9.58528 16.4046 9.96602 16.4843 10.2072C16.6294 10.6108 16.9496 10.7991 17.4144 10.7991Z" fill="white"/>
<path d="M7.36465 6.36042V10.6899H8.96541V6.36042L10.891 0H9.27234L8.18016 4.19798L7.04382 0H5.35938C5.69688 0.990902 6.04797 1.98674 6.38548 2.97857C6.89899 4.4694 7.21952 5.59339 7.36465 6.36042Z" fill="white"/>
<path d="M13.0368 10.7993C13.76 10.7993 14.322 10.5272 14.7206 9.98377C15.0235 9.58512 15.1687 8.95705 15.1687 8.11035V5.32076C15.1687 4.46912 15.0238 3.8466 14.7206 3.44425C14.322 2.89924 13.7603 2.6272 13.0368 2.6272C12.3173 2.6272 11.7556 2.89924 11.3561 3.44425C11.0494 3.8466 10.9043 4.46912 10.9043 5.32076V8.11035C10.9043 8.95705 11.0494 9.58512 11.3561 9.98377C11.7553 10.5272 12.3173 10.7993 13.0368 10.7993ZM12.3479 5.03142C12.3479 4.29435 12.5714 3.92689 13.0368 3.92689C13.5021 3.92689 13.7251 4.29404 13.7251 5.03142V8.38239C13.7251 9.11947 13.5021 9.48816 13.0368 9.48816C12.5714 9.48816 12.3479 9.11947 12.3479 8.38239V5.03142Z" fill="white"/>
</svg>
