<svg width="30" height="30" viewBox="0 0 30 30" fill="" xmlns="http://www.w3.org/2000/svg">
<g clip-path="url(#clip0)">
<path d="M4.0979 5.21049C4.0979 4.5639 4.62204 4.03976 5.26863 4.03976C5.91522 4.03976 6.43936 4.5639 6.43936 5.21049C6.43936 5.85732 5.91522 6.38145 5.26863 6.38145C4.62204 6.38145 4.0979 5.85732 4.0979 5.21049ZM9.36653 6.38145C10.0131 6.38145 10.5373 5.85732 10.5373 5.21049C10.5373 4.5639 10.0131 4.03976 9.36653 4.03976C8.71994 4.03976 8.19557 4.5639 8.19557 5.21049C8.19557 5.85732 8.71994 6.38145 9.36653 6.38145ZM30 24.5245L25.0248 29.5111L16.9373 21.6454C16.4848 21.1926 16.1391 20.6321 15.9382 20.0244L15.9199 19.969L14.6684 14.379L20.2435 15.6468L20.297 15.6647C20.9017 15.8649 21.4597 16.2085 21.9113 16.6582L30 24.5245ZM26.6673 24.5496L20.2613 18.3197C20.2167 18.2751 20.1695 18.2327 20.1201 18.1931L18.4653 19.8468C18.504 19.8951 18.5449 19.9411 18.5884 19.985L25.0001 26.2205L26.6673 24.5496ZM18.2062 26.2852L20.6138 28.6267H3.51242C1.57562 28.6267 0 27.0511 0 25.1143V4.03976C0 2.10297 1.57562 0.527344 3.51242 0.527344H26.4603C28.3971 0.527344 29.9728 2.10297 29.9728 4.03976V21.1146L27.6311 18.8374V9.89388H2.34169V25.1143C2.34169 25.76 2.86674 26.2852 3.51242 26.2852H18.2062ZM2.34169 4.03976V7.55219H27.6311V4.03976C27.6311 3.39409 27.1058 2.86903 26.4603 2.86903H3.51242C2.86674 2.86903 2.34169 3.39409 2.34169 4.03976Z" fill="white"/>
</g>
<defs>
<clipPath id="clip0">
<rect width="30" height="30" fill="white"/>
</clipPath>
</defs>
</svg>
