<svg width="275" height="62" viewBox="0 0 275 62" fill="none" xmlns="http://www.w3.org/2000/svg">
<path d="M41.8111 36.5639L42.1982 37.4859L42.8111 37.2286V36.5639H41.8111ZM41.8111 25.0412H42.8111V24.3765L42.1982 24.1192L41.8111 25.0412ZM1.70312 8.20028L2.09027 7.27826L0.703125 6.69582V8.20028H1.70312ZM1.70312 20.8033H0.703125V21.4971L1.35309 21.74L1.70312 20.8033ZM27.7955 30.5533H28.7955V29.8594L28.1455 29.6165L27.7955 30.5533ZM27.7955 31.0518L28.1464 31.9883L28.7955 31.745V31.0518H27.7955ZM1.70312 40.8295L1.35222 39.8931L0.703125 40.1364V40.8295H1.70312ZM1.70312 53.4048H0.703125V54.9093L2.09027 54.3269L1.70312 53.4048ZM42.8111 36.5639V25.0412H40.8111V36.5639H42.8111ZM42.1982 24.1192L2.09027 7.27826L1.31598 9.1223L41.4239 25.9632L42.1982 24.1192ZM0.703125 8.20028V20.8033H2.70312V8.20028H0.703125ZM1.35309 21.74L27.4454 31.49L28.1455 29.6165L2.05316 19.8665L1.35309 21.74ZM26.7955 30.5533V31.0518H28.7955V30.5533H26.7955ZM27.4445 30.1154L1.35222 39.8931L2.05403 41.766L28.1464 31.9883L27.4445 30.1154ZM0.703125 40.8295V53.4048H2.70312V40.8295H0.703125ZM2.09027 54.3269L42.1982 37.4859L41.4239 35.6419L1.31598 52.4828L2.09027 54.3269ZM71.899 59L71.0063 58.5493L70.2738 60H71.899V59ZM85.9977 59V60H86.6137L86.8908 59.4498L85.9977 59ZM108.96 13.4077L109.853 13.8575L109.96 13.6453V13.4077H108.96ZM108.96 2.27273H109.96V1.27273H108.96V2.27273ZM68.0211 2.27273V1.27273H67.0211V2.27273H68.0211ZM68.0211 13.3246H67.0211V14.3246H68.0211V13.3246ZM94.7782 13.3246H95.7782V12.3246H94.7782V13.3246ZM94.7782 13.6847L95.6709 14.1354L95.7782 13.9228V13.6847H94.7782ZM71.899 60H85.9977V58H71.899V60ZM86.8908 59.4498L109.853 13.8575L108.067 12.9579L85.1046 58.5502L86.8908 59.4498ZM109.96 13.4077V2.27273H107.96V13.4077H109.96ZM108.96 1.27273H68.0211V3.27273H108.96V1.27273ZM67.0211 2.27273V13.3246H69.0211V2.27273H67.0211ZM68.0211 14.3246H94.7782V12.3246H68.0211V14.3246ZM93.7782 13.3246V13.6847H95.7782V13.3246H93.7782ZM93.8856 13.234L71.0063 58.5493L72.7916 59.4507L95.6709 14.1354L93.8856 13.234ZM138.729 60.3849L138.731 59.3849H138.729V60.3849ZM162.717 30.7195L161.717 30.718V30.718L162.717 30.7195ZM114.77 30.7195L115.77 30.7224V30.7209L114.77 30.7195ZM128.869 30.7195L129.869 30.7239V30.7217L128.869 30.7195ZM148.618 30.7195L149.618 30.7172V30.7172L148.618 30.7195ZM138.728 61.3849C146.419 61.3993 152.708 58.5532 157.055 53.2158C161.382 47.9047 163.703 40.232 163.717 30.7209L161.717 30.718C161.703 39.9313 159.453 47.1053 155.505 51.9527C151.577 56.7739 145.886 59.3983 138.731 59.3849L138.728 61.3849ZM163.717 30.7209C163.731 21.2619 161.409 13.7017 157.069 8.48843C152.71 3.25165 146.409 0.497157 138.729 0.497157V2.49716C145.897 2.49716 151.603 5.047 155.532 9.76796C159.482 14.5124 161.73 21.5634 161.717 30.718L163.717 30.7209ZM138.729 0.497157C131.05 0.497157 124.769 3.24465 120.423 8.47905C116.098 13.6888 113.784 21.2481 113.77 30.718L115.77 30.7209C115.784 21.5495 118.026 14.4977 121.962 9.75657C125.878 5.04015 131.562 2.49716 138.729 2.49716V0.497157ZM113.77 30.7165C113.742 40.2029 116.056 47.8697 120.386 53.1847C124.737 58.5248 131.038 61.3849 138.729 61.3849V59.3849C131.574 59.3849 125.868 56.7469 121.937 51.9215C117.985 47.071 115.743 39.9051 115.77 30.7224L113.77 30.7165ZM138.729 48.1669C136.185 48.1669 134.016 46.9202 132.435 44.1434C130.823 41.3125 129.841 36.9011 129.869 30.7239L127.869 30.715C127.841 37.0577 128.839 41.87 130.697 45.1329C132.585 48.4498 135.374 50.1669 138.729 50.1669V48.1669ZM129.869 30.7217C129.882 24.6686 130.87 20.3474 132.473 17.5749C134.044 14.8571 136.193 13.6321 138.729 13.6321V11.6321C135.394 11.6321 132.626 13.3155 130.742 16.5737C128.889 19.7772 127.883 24.4997 127.869 30.7172L129.869 30.7217ZM138.729 13.6321C141.281 13.6321 143.436 14.8589 145.01 17.5756C146.617 20.3477 147.604 24.6685 147.618 30.7217L149.618 30.7172C149.604 24.4998 148.597 19.7769 146.741 16.573C144.853 13.3137 142.077 11.6321 138.729 11.6321V13.6321ZM147.618 30.7217C147.632 36.9003 146.65 41.3122 145.038 44.1434C143.457 46.9193 141.288 48.1669 138.729 48.1669V50.1669C142.098 50.1669 144.887 48.4507 146.776 45.1329C148.633 41.8703 149.632 37.0585 149.618 30.7172L147.618 30.7217ZM194.03 60.3849L194.032 59.3849H194.03V60.3849ZM218.017 30.7195L217.017 30.718V30.718L218.017 30.7195ZM170.071 30.7195L171.071 30.7224V30.7209L170.071 30.7195ZM184.169 30.7195L185.169 30.7239V30.7217L184.169 30.7195ZM203.919 30.7195L204.919 30.7172V30.7172L203.919 30.7195ZM194.028 61.3849C201.72 61.3993 208.008 58.5532 212.356 53.2158C216.683 47.9047 219.003 40.232 219.017 30.7209L217.017 30.718C217.004 39.9313 214.754 47.1053 210.806 51.9527C206.878 56.7739 201.187 59.3983 194.032 59.3849L194.028 61.3849ZM219.017 30.7209C219.031 21.2619 216.71 13.7017 212.37 8.48843C208.011 3.25165 201.71 0.497157 194.03 0.497157V2.49716C201.197 2.49716 206.903 5.047 210.833 9.76796C214.782 14.5124 217.031 21.5634 217.017 30.718L219.017 30.7209ZM194.03 0.497157C186.351 0.497157 180.07 3.24465 175.724 8.47905C171.399 13.6888 169.085 21.2481 169.071 30.718L171.071 30.7209C171.084 21.5495 173.327 14.4977 177.263 9.75657C181.178 5.04015 186.863 2.49716 194.03 2.49716V0.497157ZM169.071 30.7165C169.043 40.2029 171.357 47.8697 175.687 53.1847C180.038 58.5248 186.339 61.3849 194.03 61.3849V59.3849C186.875 59.3849 181.169 56.7469 177.237 51.9215C173.286 47.071 171.043 39.9051 171.071 30.7224L169.071 30.7165ZM194.03 48.1669C191.486 48.1669 189.317 46.9202 187.736 44.1434C186.124 41.3125 185.142 36.9011 185.169 30.7239L183.169 30.715C183.141 37.0577 184.14 41.87 185.998 45.1329C187.886 48.4498 190.675 50.1669 194.03 50.1669V48.1669ZM185.169 30.7217C185.183 24.6686 186.171 20.3474 187.774 17.5749C189.345 14.8571 191.494 13.6321 194.03 13.6321V11.6321C190.694 11.6321 187.926 13.3155 186.042 16.5737C184.19 19.7772 183.183 24.4997 183.169 30.7172L185.169 30.7217ZM194.03 13.6321C196.582 13.6321 198.737 14.8589 200.311 17.5756C201.917 20.3477 202.905 24.6685 202.919 30.7217L204.919 30.7172C204.905 24.4998 203.898 19.7769 202.042 16.573C200.153 13.3137 197.378 11.6321 194.03 11.6321V13.6321ZM202.919 30.7217C202.932 36.9003 201.95 41.3122 200.339 44.1434C198.758 46.9193 196.589 48.1669 194.03 48.1669V50.1669C197.399 50.1669 200.188 48.4507 202.077 45.1329C203.934 41.8703 204.933 37.0585 204.919 30.7172L202.919 30.7217ZM249.331 60.3849L249.333 59.3849H249.331V60.3849ZM273.318 30.7195L272.318 30.718V30.718L273.318 30.7195ZM225.371 30.7195L226.371 30.7224V30.7209L225.371 30.7195ZM239.47 30.7195L240.47 30.7239V30.7217L239.47 30.7195ZM259.219 30.7195L260.219 30.7172V30.7172L259.219 30.7195ZM249.329 61.3849C257.021 61.3993 263.309 58.5532 267.657 53.2158C271.983 47.9047 274.304 40.232 274.318 30.7209L272.318 30.718C272.305 39.9313 270.055 47.1053 266.106 51.9527C262.179 56.7739 256.488 59.3983 249.333 59.3849L249.329 61.3849ZM274.318 30.7209C274.332 21.2619 272.011 13.7017 267.671 8.48843C263.312 3.25165 257.01 0.497157 249.331 0.497157V2.49716C256.498 2.49716 262.204 5.047 266.134 9.76796C270.083 14.5124 272.332 21.5634 272.318 30.718L274.318 30.7209ZM249.331 0.497157C241.652 0.497157 235.37 3.24465 231.025 8.47905C226.7 13.6888 224.386 21.2481 224.371 30.718L226.371 30.7209C226.385 21.5495 228.627 14.4977 232.564 9.75657C236.479 5.04015 242.164 2.49716 249.331 2.49716V0.497157ZM224.371 30.7165C224.343 40.2029 226.657 47.8697 230.988 53.1847C235.338 58.5248 241.64 61.3849 249.331 61.3849V59.3849C242.176 59.3849 236.47 56.7469 232.538 51.9215C228.587 47.071 226.344 39.9051 226.371 30.7224L224.371 30.7165ZM249.331 48.1669C246.787 48.1669 244.617 46.9202 243.036 44.1434C241.425 41.3125 240.443 36.9011 240.47 30.7239L238.47 30.715C238.442 37.0577 239.441 41.87 241.298 45.1329C243.187 48.4498 245.975 50.1669 249.331 50.1669V48.1669ZM240.47 30.7217C240.484 24.6686 241.471 20.3474 243.075 17.5749C244.646 14.8571 246.795 13.6321 249.331 13.6321V11.6321C245.995 11.6321 243.227 13.3155 241.343 16.5737C239.491 19.7772 238.484 24.4997 238.47 30.7172L240.47 30.7217ZM249.331 13.6321C251.883 13.6321 254.038 14.8589 255.612 17.5756C257.218 20.3477 258.206 24.6685 258.219 30.7217L260.219 30.7172C260.205 24.4998 259.199 19.7769 257.343 16.573C255.454 13.3137 252.679 11.6321 249.331 11.6321V13.6321ZM258.219 30.7217C258.233 36.9003 257.251 41.3122 255.639 44.1434C254.059 46.9193 251.89 48.1669 249.331 48.1669V50.1669C252.699 50.1669 255.489 48.4507 257.377 45.1329C259.235 41.8703 260.233 37.0585 260.219 30.7172L258.219 30.7217Z" fill="#1E1E1E"/>
</svg>
