<svg width="280" height="62" viewBox="0 0 280 62" fill="none" xmlns="http://www.w3.org/2000/svg">
<path d="M41.8111 36.5639L42.1982 37.4859L42.8111 37.2286V36.5639H41.8111ZM41.8111 25.0412H42.8111V24.3765L42.1982 24.1192L41.8111 25.0412ZM1.70312 8.20028L2.09027 7.27826L0.703125 6.69582V8.20028H1.70312ZM1.70312 20.8033H0.703125V21.4971L1.35309 21.74L1.70312 20.8033ZM27.7955 30.5533H28.7955V29.8594L28.1455 29.6165L27.7955 30.5533ZM27.7955 31.0518L28.1464 31.9883L28.7955 31.745V31.0518H27.7955ZM1.70312 40.8295L1.35222 39.8931L0.703125 40.1364V40.8295H1.70312ZM1.70312 53.4048H0.703125V54.9093L2.09027 54.3269L1.70312 53.4048ZM42.8111 36.5639V25.0412H40.8111V36.5639H42.8111ZM42.1982 24.1192L2.09027 7.27826L1.31598 9.1223L41.4239 25.9632L42.1982 24.1192ZM0.703125 8.20028V20.8033H2.70312V8.20028H0.703125ZM1.35309 21.74L27.4454 31.49L28.1455 29.6165L2.05316 19.8665L1.35309 21.74ZM26.7955 30.5533V31.0518H28.7955V30.5533H26.7955ZM27.4445 30.1154L1.35222 39.8931L2.05403 41.766L28.1464 31.9883L27.4445 30.1154ZM0.703125 40.8295V53.4048H2.70312V40.8295H0.703125ZM2.09027 54.3269L42.1982 37.4859L41.4239 35.6419L1.31598 52.4828L2.09027 54.3269ZM83.7818 26.7031V27.7031H84.3471L84.6386 27.2187L83.7818 26.7031ZM83.4494 26.7031L82.4541 26.6063L82.3474 27.7031H83.4494V26.7031ZM84.7512 13.3246V12.3246H83.8438L83.7559 13.2277L84.7512 13.3246ZM109.874 13.3246V14.3246H110.874V13.3246H109.874ZM109.874 2.27273H110.874V1.27273H109.874V2.27273ZM73.4778 2.27273V1.27273H72.5552L72.481 2.19237L73.4778 2.27273ZM71.0126 32.8523L70.0158 32.7719L69.9435 33.6691L70.8282 33.8351L71.0126 32.8523ZM83.117 35.1236L82.9326 36.1064L83.6177 36.235L83.9753 35.6367L83.117 35.1236ZM91.122 31.0241L91.1136 32.0241H91.122V31.0241ZM100.013 40.1648L99.0133 40.1597L99.0133 40.1699L100.013 40.1648ZM82.9785 42.3253L83.9774 42.279L83.9332 41.3253H82.9785V42.3253ZM69.6831 42.3253V41.3253H68.6666L68.6832 42.3416L69.6831 42.3253ZM91.2051 60.7756C98.0213 60.7756 103.78 58.6297 107.846 54.8962C111.918 51.1574 114.226 45.8849 114.226 39.777H112.226C112.226 45.358 110.129 50.0848 106.494 53.423C102.852 56.7666 97.6012 58.7756 91.2051 58.7756V60.7756ZM114.226 39.777C114.226 28.457 106.278 20.2741 95.4984 20.2741V22.2741C105.105 22.2741 112.226 29.4919 112.226 39.777H114.226ZM95.4984 20.2741C89.8858 20.2741 85.0404 22.6722 82.925 26.1875L84.6386 27.2187C86.2902 24.4741 90.3638 22.2741 95.4984 22.2741V20.2741ZM83.7818 25.7031H83.4494V27.7031H83.7818V25.7031ZM84.4447 26.8L85.7465 13.4214L83.7559 13.2277L82.4541 26.6063L84.4447 26.8ZM84.7512 14.3246H109.874V12.3246H84.7512V14.3246ZM110.874 13.3246V2.27273H108.874V13.3246H110.874ZM109.874 1.27273H73.4778V3.27273H109.874V1.27273ZM72.481 2.19237L70.0158 32.7719L72.0094 32.9326L74.4746 2.35308L72.481 2.19237ZM70.8282 33.8351L82.9326 36.1064L83.3014 34.1407L71.197 31.8694L70.8282 33.8351ZM83.9753 35.6367C85.2854 33.4454 88.0789 31.9988 91.1136 32.0241L91.1303 30.0242C87.5173 29.9941 83.9955 31.7052 82.2587 34.6105L83.9753 35.6367ZM91.122 32.0241C93.4834 32.0241 95.4477 32.8551 96.8176 34.2491C98.1876 35.6433 99.026 37.6648 99.0133 40.1597L101.013 40.1698C101.028 37.208 100.025 34.6593 98.244 32.8473C96.4632 31.0351 93.968 30.0241 91.122 30.0241V32.0241ZM99.0133 40.1699C99.026 42.6537 98.1996 44.6614 96.8471 46.044C95.4953 47.4259 93.5529 48.25 91.2051 48.25V50.25C94.037 50.25 96.5126 49.246 98.2768 47.4425C100.04 45.6397 101.028 43.1049 101.013 40.1597L99.0133 40.1699ZM91.2051 48.25C87.1854 48.25 84.1402 45.7899 83.9774 42.279L81.9796 42.3716C82.2046 47.2257 86.4165 50.25 91.2051 50.25V48.25ZM82.9785 41.3253H69.6831V43.3253H82.9785V41.3253ZM68.6832 42.3416C68.8611 53.2509 78.4379 60.7756 91.2051 60.7756V58.7756C79.1541 58.7756 70.8374 51.786 70.6829 42.309L68.6832 42.3416ZM144.214 60.3849L144.216 59.3849H144.214V60.3849ZM168.201 30.7195L167.201 30.718V30.718L168.201 30.7195ZM120.254 30.7195L121.254 30.7224V30.7209L120.254 30.7195ZM134.353 30.7195L135.353 30.7239V30.7217L134.353 30.7195ZM154.102 30.7195L155.102 30.7172V30.7172L154.102 30.7195ZM144.212 61.3849C151.904 61.3993 158.192 58.5532 162.54 53.2158C166.866 47.9047 169.187 40.232 169.201 30.7209L167.201 30.718C167.187 39.9313 164.938 47.1053 160.989 51.9527C157.062 56.7739 151.371 59.3983 144.216 59.3849L144.212 61.3849ZM169.201 30.7209C169.215 21.2619 166.893 13.7017 162.554 8.48843C158.195 3.25165 151.893 0.497157 144.214 0.497157V2.49716C151.381 2.49716 157.087 5.047 161.017 9.76796C164.966 14.5124 167.215 21.5634 167.201 30.718L169.201 30.7209ZM144.214 0.497157C136.535 0.497157 130.253 3.24465 125.908 8.47905C121.582 13.6888 119.268 21.2481 119.254 30.718L121.254 30.7209C121.268 21.5495 123.51 14.4977 127.446 9.75657C131.362 5.04015 137.046 2.49716 144.214 2.49716V0.497157ZM119.254 30.7165C119.226 40.2029 121.54 47.8697 125.87 53.1847C130.221 58.5248 136.523 61.3849 144.214 61.3849V59.3849C137.058 59.3849 131.352 56.7469 127.421 51.9215C123.469 47.071 121.227 39.9051 121.254 30.7224L119.254 30.7165ZM144.214 48.1669C141.669 48.1669 139.5 46.9202 137.919 44.1434C136.308 41.3125 135.326 36.9011 135.353 30.7239L133.353 30.715C133.325 37.0577 134.324 41.87 136.181 45.1329C138.069 48.4498 140.858 50.1669 144.214 50.1669V48.1669ZM135.353 30.7217C135.367 24.6686 136.354 20.3474 137.957 17.5749C139.529 14.8571 141.677 13.6321 144.214 13.6321V11.6321C140.878 11.6321 138.11 13.3155 136.226 16.5737C134.374 19.7772 133.367 24.4997 133.353 30.7172L135.353 30.7217ZM144.214 13.6321C146.766 13.6321 148.921 14.8589 150.495 17.5756C152.101 20.3477 153.089 24.6685 153.102 30.7217L155.102 30.7172C155.088 24.4998 154.082 19.7769 152.225 16.573C150.337 13.3137 147.562 11.6321 144.214 11.6321V13.6321ZM153.102 30.7217C153.116 36.9003 152.134 41.3122 150.522 44.1434C148.942 46.9193 146.773 48.1669 144.214 48.1669V50.1669C147.582 50.1669 150.371 48.4507 152.26 45.1329C154.118 41.8703 155.116 37.0585 155.102 30.7172L153.102 30.7217ZM199.515 60.3849L199.516 59.3849H199.515V60.3849ZM223.502 30.7195L222.502 30.718V30.718L223.502 30.7195ZM175.555 30.7195L176.555 30.7224V30.7209L175.555 30.7195ZM189.654 30.7195L190.654 30.7239V30.7217L189.654 30.7195ZM209.403 30.7195L210.403 30.7172V30.7172L209.403 30.7195ZM199.513 61.3849C207.204 61.3993 213.493 58.5532 217.841 53.2158C222.167 47.9047 224.488 40.232 224.502 30.7209L222.502 30.718C222.488 39.9313 220.239 47.1053 216.29 51.9527C212.363 56.7739 206.671 59.3983 199.516 59.3849L199.513 61.3849ZM224.502 30.7209C224.516 21.2619 222.194 13.7017 217.855 8.48843C213.495 3.25165 207.194 0.497157 199.515 0.497157V2.49716C206.682 2.49716 212.388 5.047 216.317 9.76796C220.267 14.5124 222.515 21.5634 222.502 30.718L224.502 30.7209ZM199.515 0.497157C191.835 0.497157 185.554 3.24465 181.208 8.47905C176.883 13.6888 174.569 21.2481 174.555 30.718L176.555 30.7209C176.569 21.5495 178.811 14.4977 182.747 9.75657C186.663 5.04015 192.347 2.49716 199.515 2.49716V0.497157ZM174.555 30.7165C174.527 40.2029 176.841 47.8697 181.171 53.1847C185.522 58.5248 191.823 61.3849 199.515 61.3849V59.3849C192.359 59.3849 186.653 56.7469 182.722 51.9215C178.77 47.071 176.528 39.9051 176.555 30.7224L174.555 30.7165ZM199.515 48.1669C196.97 48.1669 194.801 46.9202 193.22 44.1434C191.608 41.3125 190.626 36.9011 190.654 30.7239L188.654 30.715C188.626 37.0577 189.624 41.87 191.482 45.1329C193.37 48.4498 196.159 50.1669 199.515 50.1669V48.1669ZM190.654 30.7217C190.667 24.6686 191.655 20.3474 193.258 17.5749C194.83 14.8571 196.978 13.6321 199.515 13.6321V11.6321C196.179 11.6321 193.411 13.3155 191.527 16.5737C189.674 19.7772 188.668 24.4997 188.654 30.7172L190.654 30.7217ZM199.515 13.6321C202.067 13.6321 204.222 14.8589 205.796 17.5756C207.402 20.3477 208.389 24.6685 208.403 30.7217L210.403 30.7172C210.389 24.4998 209.382 19.7769 207.526 16.573C205.638 13.3137 202.862 11.6321 199.515 11.6321V13.6321ZM208.403 30.7217C208.417 36.9003 207.435 41.3122 205.823 44.1434C204.243 46.9193 202.074 48.1669 199.515 48.1669V50.1669C202.883 50.1669 205.672 48.4507 207.561 45.1329C209.419 41.8703 210.417 37.0585 210.403 30.7172L208.403 30.7217ZM254.815 60.3849L254.817 59.3849H254.815V60.3849ZM278.803 30.7195L277.803 30.718V30.718L278.803 30.7195ZM230.856 30.7195L231.856 30.7224V30.7209L230.856 30.7195ZM244.955 30.7195L245.955 30.7239V30.7217L244.955 30.7195ZM264.704 30.7195L265.704 30.7172V30.7172L264.704 30.7195ZM254.813 61.3849C262.505 61.3993 268.794 58.5532 273.141 53.2158C277.468 47.9047 279.788 40.232 279.803 30.7209L277.803 30.718C277.789 39.9313 275.539 47.1053 271.591 51.9527C267.663 56.7739 261.972 59.3983 254.817 59.3849L254.813 61.3849ZM279.803 30.7209C279.817 21.2619 277.495 13.7017 273.155 8.48843C268.796 3.25165 262.495 0.497157 254.815 0.497157V2.49716C261.983 2.49716 267.688 5.047 271.618 9.76796C275.568 14.5124 277.816 21.5634 277.803 30.718L279.803 30.7209ZM254.815 0.497157C247.136 0.497157 240.855 3.24465 236.509 8.47905C232.184 13.6888 229.87 21.2481 229.856 30.718L231.856 30.7209C231.869 21.5495 234.112 14.4977 238.048 9.75657C241.963 5.04015 247.648 2.49716 254.815 2.49716V0.497157ZM229.856 30.7165C229.828 40.2029 232.142 47.8697 236.472 53.1847C240.823 58.5248 247.124 61.3849 254.815 61.3849V59.3849C247.66 59.3849 241.954 56.7469 238.023 51.9215C234.071 47.071 231.829 39.9051 231.856 30.7224L229.856 30.7165ZM254.815 48.1669C252.271 48.1669 250.102 46.9202 248.521 44.1434C246.909 41.3125 245.927 36.9011 245.955 30.7239L243.955 30.715C243.926 37.0577 244.925 41.87 246.783 45.1329C248.671 48.4498 251.46 50.1669 254.815 50.1669V48.1669ZM245.955 30.7217C245.968 24.6686 246.956 20.3474 248.559 17.5749C250.13 14.8571 252.279 13.6321 254.815 13.6321V11.6321C251.48 11.6321 248.712 13.3155 246.828 16.5737C244.975 19.7772 243.969 24.4997 243.955 30.7172L245.955 30.7217ZM254.815 13.6321C257.367 13.6321 259.522 14.8589 261.096 17.5756C262.702 20.3477 263.69 24.6685 263.704 30.7217L265.704 30.7172C265.69 24.4998 264.683 19.7769 262.827 16.573C260.939 13.3137 258.163 11.6321 254.815 11.6321V13.6321ZM263.704 30.7217C263.717 36.9003 262.736 41.3122 261.124 44.1434C259.543 46.9193 257.374 48.1669 254.815 48.1669V50.1669C258.184 50.1669 260.973 48.4507 262.862 45.1329C264.719 41.8703 265.718 37.0585 265.704 30.7172L263.704 30.7217Z" fill="#1E1E1E"/>
</svg>
