<svg width="156" height="62" viewBox="0 0 156 62" fill="none" xmlns="http://www.w3.org/2000/svg">
<path d="M26.8984 59L25.9116 58.8382L25.7212 60H26.8984V59ZM36.87 59V60H37.7194L37.8569 59.1618L36.87 59ZM39.0859 45.483V44.483H38.2365L38.0991 45.3212L39.0859 45.483ZM46.5923 45.483V46.483H47.4371L47.5783 45.65L46.5923 45.483ZM48.282 35.5114L49.2679 35.6784L49.4657 34.5114H48.282V35.5114ZM40.7202 35.5114L39.7335 35.3488L39.5419 36.5114H40.7202V35.5114ZM42.3267 25.7614V24.7614H41.478L41.34 25.5988L42.3267 25.7614ZM49.8331 25.7614V26.7614H50.6779L50.819 25.9284L49.8331 25.7614ZM51.5227 15.7898L52.5087 15.9568L52.7064 14.7898H51.5227V15.7898ZM43.9609 15.7898L42.9741 15.628L42.7837 16.7898H43.9609V15.7898ZM46.1768 2.27273L47.1637 2.4345L47.3541 1.27273H46.1768V2.27273ZM36.2053 2.27273V1.27273H35.3558L35.2184 2.11095L36.2053 2.27273ZM33.9893 15.7898V16.7898H34.8388L34.9762 15.9515L33.9893 15.7898ZM24.0178 15.7898L23.0309 15.628L22.8405 16.7898H24.0178V15.7898ZM26.2337 2.27273L27.2205 2.4345L27.4109 1.27273H26.2337V2.27273ZM16.2621 2.27273V1.27273H15.4127L15.2752 2.11095L16.2621 2.27273ZM14.0462 15.7898V16.7898H14.8956L15.033 15.9515L14.0462 15.7898ZM6.53977 15.7898V14.7898H5.69496L5.55383 15.6227L6.53977 15.7898ZM4.85014 25.7614L3.8642 25.5943L3.66644 26.7614H4.85014V25.7614ZM12.4119 25.7614L13.3986 25.9239L13.5902 24.7614H12.4119V25.7614ZM10.8054 35.5114V36.5114H11.6541L11.7921 35.6739L10.8054 35.5114ZM3.29901 35.5114V34.5114H2.4542L2.31306 35.3443L3.29901 35.5114ZM1.60938 45.483L0.623429 45.3159L0.425676 46.483H1.60938V45.483ZM9.17116 45.483L10.158 45.6447L10.3484 44.483H9.17116V45.483ZM6.95526 59L5.96843 58.8382L5.77797 60H6.95526V59ZM16.9268 59V60H17.7763L17.9137 59.1618L16.9268 59ZM19.1428 45.483V44.483H18.2933L18.1559 45.3212L19.1428 45.483ZM29.1143 45.483L30.1012 45.6447L30.2916 44.483H29.1143V45.483ZM20.777 35.5114L19.7903 35.3488L19.5987 36.5114H20.777V35.5114ZM22.3835 25.7614V24.7614H21.5348L21.3968 25.5988L22.3835 25.7614ZM32.3551 25.7614L33.3418 25.9239L33.5334 24.7614H32.3551V25.7614ZM30.7486 35.5114V36.5114H31.5973L31.7353 35.6739L30.7486 35.5114ZM26.8984 60H36.87V58H26.8984V60ZM37.8569 59.1618L40.0728 45.6447L38.0991 45.3212L35.8832 58.8382L37.8569 59.1618ZM39.0859 46.483H46.5923V44.483H39.0859V46.483ZM47.5783 45.65L49.2679 35.6784L47.296 35.3443L45.6064 45.3159L47.5783 45.65ZM48.282 34.5114H40.7202V36.5114H48.282V34.5114ZM41.7069 35.6739L43.3134 25.9239L41.34 25.5988L39.7335 35.3488L41.7069 35.6739ZM42.3267 26.7614H49.8331V24.7614H42.3267V26.7614ZM50.819 25.9284L52.5087 15.9568L50.5368 15.6227L48.8472 25.5943L50.819 25.9284ZM51.5227 14.7898H43.9609V16.7898H51.5227V14.7898ZM44.9478 15.9515L47.1637 2.4345L45.19 2.11095L42.9741 15.628L44.9478 15.9515ZM46.1768 1.27273H36.2053V3.27273H46.1768V1.27273ZM35.2184 2.11095L33.0025 15.628L34.9762 15.9515L37.1921 2.4345L35.2184 2.11095ZM33.9893 14.7898H24.0178V16.7898H33.9893V14.7898ZM25.0046 15.9515L27.2205 2.4345L25.2468 2.11095L23.0309 15.628L25.0046 15.9515ZM26.2337 1.27273H16.2621V3.27273H26.2337V1.27273ZM15.2752 2.11095L13.0593 15.628L15.033 15.9515L17.2489 2.4345L15.2752 2.11095ZM14.0462 14.7898H6.53977V16.7898H14.0462V14.7898ZM5.55383 15.6227L3.8642 25.5943L5.83609 25.9284L7.52572 15.9568L5.55383 15.6227ZM4.85014 26.7614H12.4119V24.7614H4.85014V26.7614ZM11.4252 25.5988L9.8187 35.3488L11.7921 35.6739L13.3986 25.9239L11.4252 25.5988ZM10.8054 34.5114H3.29901V36.5114H10.8054V34.5114ZM2.31306 35.3443L0.623429 45.3159L2.59532 45.65L4.28495 35.6784L2.31306 35.3443ZM1.60938 46.483H9.17116V44.483H1.60938V46.483ZM8.18434 45.3212L5.96843 58.8382L7.94208 59.1618L10.158 45.6447L8.18434 45.3212ZM6.95526 60H16.9268V58H6.95526V60ZM17.9137 59.1618L20.1296 45.6447L18.1559 45.3212L15.94 58.8382L17.9137 59.1618ZM19.1428 46.483H29.1143V44.483H19.1428V46.483ZM28.1275 45.3212L25.9116 58.8382L27.8853 59.1618L30.1012 45.6447L28.1275 45.3212ZM21.7637 35.6739L23.3702 25.9239L21.3968 25.5988L19.7903 35.3488L21.7637 35.6739ZM22.3835 26.7614H32.3551V24.7614H22.3835V26.7614ZM31.3684 25.5988L29.7619 35.3488L31.7353 35.6739L33.3418 25.9239L31.3684 25.5988ZM30.7486 34.5114H20.777V36.5114H30.7486V34.5114ZM96.5126 60.3849L96.5145 59.3849H96.5126V60.3849ZM120.5 30.7195L119.5 30.718V30.718L120.5 30.7195ZM72.5531 30.7195L73.5531 30.7224V30.7209L72.5531 30.7195ZM86.6518 30.7195L87.6518 30.7239L87.6518 30.7217L86.6518 30.7195ZM106.401 30.7195L107.401 30.7172V30.7172L106.401 30.7195ZM96.5107 61.3849C104.202 61.3993 110.491 58.5532 114.839 53.2158C119.165 47.9047 121.486 40.232 121.5 30.7209L119.5 30.718C119.486 39.9313 117.237 47.1053 113.288 51.9527C109.361 56.7739 103.669 59.3983 96.5145 59.3849L96.5107 61.3849ZM121.5 30.7209C121.514 21.2619 119.192 13.7017 114.853 8.48843C110.494 3.25165 104.192 0.497157 96.5126 0.497157V2.49716C103.68 2.49716 109.386 5.047 113.315 9.76796C117.265 14.5124 119.513 21.5634 119.5 30.718L121.5 30.7209ZM96.5126 0.497157C88.8334 0.497157 82.552 3.24465 78.2064 8.47905C73.8812 13.6888 71.5672 21.2481 71.5531 30.718L73.5531 30.7209C73.5667 21.5495 75.8091 14.4977 79.7452 9.75657C83.6608 5.04015 89.3452 2.49716 96.5126 2.49716V0.497157ZM71.5531 30.7165C71.5249 40.2029 73.8391 47.8697 78.1693 53.1847C82.5199 58.5248 88.8213 61.3849 96.5126 61.3849V59.3849C89.3573 59.3849 83.6512 56.7469 79.7199 51.9215C75.7681 47.071 73.5258 39.9051 73.5531 30.7224L71.5531 30.7165ZM96.5126 48.1669C93.9683 48.1669 91.7989 46.9202 90.218 44.1434C88.6064 41.3125 87.6245 36.9011 87.6518 30.7239L85.6518 30.715C85.6238 37.0577 86.6223 41.87 88.48 45.1329C90.3683 48.4498 93.157 50.1669 96.5126 50.1669V48.1669ZM87.6518 30.7217C87.6655 24.6686 88.6531 20.3474 90.2562 17.5749C91.8277 14.8571 93.9763 13.6321 96.5126 13.6321V11.6321C93.1768 11.6321 90.4088 13.3155 88.5248 16.5737C86.6725 19.7772 85.6658 24.4997 85.6518 30.7172L87.6518 30.7217ZM96.5126 13.6321C99.0646 13.6321 101.22 14.8589 102.794 17.5756C104.4 20.3477 105.387 24.6685 105.401 30.7217L107.401 30.7172C107.387 24.4998 106.38 19.7769 104.524 16.573C102.636 13.3137 99.8605 11.6321 96.5126 11.6321V13.6321ZM105.401 30.7217C105.415 36.9003 104.433 41.3122 102.821 44.1434C101.241 46.9193 99.0717 48.1669 96.5126 48.1669V50.1669C99.8811 50.1669 102.67 48.4507 104.559 45.1329C106.417 41.8703 107.415 37.0585 107.401 30.7172L105.401 30.7217ZM154.583 2.27273H155.583V1.27273H154.583V2.27273ZM141.869 2.27273V1.27273H141.584L141.341 1.4235L141.869 2.27273ZM127.882 10.9702L127.354 10.1209L126.882 10.4144V10.9702H127.882ZM127.882 22.8253H126.882V24.6087L128.403 23.6785L127.882 22.8253ZM140.568 15.0696V14.0696H140.286L140.046 14.2164L140.568 15.0696ZM140.9 15.0696H141.9V14.0696H140.9V15.0696ZM140.9 59H139.9V60H140.9V59ZM154.583 59V60H155.583V59H154.583ZM154.583 1.27273H141.869V3.27273H154.583V1.27273ZM141.341 1.4235L127.354 10.1209L128.41 11.8194L142.398 3.12195L141.341 1.4235ZM126.882 10.9702V22.8253H128.882V10.9702H126.882ZM128.403 23.6785L141.089 15.9228L140.046 14.2164L127.36 21.9721L128.403 23.6785ZM140.568 16.0696H140.9V14.0696H140.568V16.0696ZM139.9 15.0696V59H141.9V15.0696H139.9ZM140.9 60H154.583V58H140.9V60ZM155.583 59V2.27273H153.583V59H155.583Z" fill="#1E1E1E"/>
</svg>
