<svg width="172" height="62" viewBox="0 0 172 62" fill="none" xmlns="http://www.w3.org/2000/svg">
<path d="M26.8984 59L25.9116 58.8382L25.7212 60H26.8984V59ZM36.87 59V60H37.7194L37.8569 59.1618L36.87 59ZM39.0859 45.483V44.483H38.2365L38.0991 45.3212L39.0859 45.483ZM46.5923 45.483V46.483H47.4371L47.5783 45.65L46.5923 45.483ZM48.282 35.5114L49.2679 35.6784L49.4657 34.5114H48.282V35.5114ZM40.7202 35.5114L39.7335 35.3488L39.5419 36.5114H40.7202V35.5114ZM42.3267 25.7614V24.7614H41.478L41.34 25.5988L42.3267 25.7614ZM49.8331 25.7614V26.7614H50.6779L50.819 25.9284L49.8331 25.7614ZM51.5227 15.7898L52.5087 15.9568L52.7064 14.7898H51.5227V15.7898ZM43.9609 15.7898L42.9741 15.628L42.7837 16.7898H43.9609V15.7898ZM46.1768 2.27273L47.1637 2.4345L47.3541 1.27273H46.1768V2.27273ZM36.2053 2.27273V1.27273H35.3558L35.2184 2.11095L36.2053 2.27273ZM33.9893 15.7898V16.7898H34.8388L34.9762 15.9515L33.9893 15.7898ZM24.0178 15.7898L23.0309 15.628L22.8405 16.7898H24.0178V15.7898ZM26.2337 2.27273L27.2205 2.4345L27.4109 1.27273H26.2337V2.27273ZM16.2621 2.27273V1.27273H15.4127L15.2752 2.11095L16.2621 2.27273ZM14.0462 15.7898V16.7898H14.8956L15.033 15.9515L14.0462 15.7898ZM6.53977 15.7898V14.7898H5.69496L5.55383 15.6227L6.53977 15.7898ZM4.85014 25.7614L3.8642 25.5943L3.66644 26.7614H4.85014V25.7614ZM12.4119 25.7614L13.3986 25.9239L13.5902 24.7614H12.4119V25.7614ZM10.8054 35.5114V36.5114H11.6541L11.7921 35.6739L10.8054 35.5114ZM3.29901 35.5114V34.5114H2.4542L2.31306 35.3443L3.29901 35.5114ZM1.60938 45.483L0.623429 45.3159L0.425676 46.483H1.60938V45.483ZM9.17116 45.483L10.158 45.6447L10.3484 44.483H9.17116V45.483ZM6.95526 59L5.96843 58.8382L5.77797 60H6.95526V59ZM16.9268 59V60H17.7763L17.9137 59.1618L16.9268 59ZM19.1428 45.483V44.483H18.2933L18.1559 45.3212L19.1428 45.483ZM29.1143 45.483L30.1012 45.6447L30.2916 44.483H29.1143V45.483ZM20.777 35.5114L19.7903 35.3488L19.5987 36.5114H20.777V35.5114ZM22.3835 25.7614V24.7614H21.5348L21.3968 25.5988L22.3835 25.7614ZM32.3551 25.7614L33.3418 25.9239L33.5334 24.7614H32.3551V25.7614ZM30.7486 35.5114V36.5114H31.5973L31.7353 35.6739L30.7486 35.5114ZM26.8984 60H36.87V58H26.8984V60ZM37.8569 59.1618L40.0728 45.6447L38.0991 45.3212L35.8832 58.8382L37.8569 59.1618ZM39.0859 46.483H46.5923V44.483H39.0859V46.483ZM47.5783 45.65L49.2679 35.6784L47.296 35.3443L45.6064 45.3159L47.5783 45.65ZM48.282 34.5114H40.7202V36.5114H48.282V34.5114ZM41.7069 35.6739L43.3134 25.9239L41.34 25.5988L39.7335 35.3488L41.7069 35.6739ZM42.3267 26.7614H49.8331V24.7614H42.3267V26.7614ZM50.819 25.9284L52.5087 15.9568L50.5368 15.6227L48.8472 25.5943L50.819 25.9284ZM51.5227 14.7898H43.9609V16.7898H51.5227V14.7898ZM44.9478 15.9515L47.1637 2.4345L45.19 2.11095L42.9741 15.628L44.9478 15.9515ZM46.1768 1.27273H36.2053V3.27273H46.1768V1.27273ZM35.2184 2.11095L33.0025 15.628L34.9762 15.9515L37.1921 2.4345L35.2184 2.11095ZM33.9893 14.7898H24.0178V16.7898H33.9893V14.7898ZM25.0046 15.9515L27.2205 2.4345L25.2468 2.11095L23.0309 15.628L25.0046 15.9515ZM26.2337 1.27273H16.2621V3.27273H26.2337V1.27273ZM15.2752 2.11095L13.0593 15.628L15.033 15.9515L17.2489 2.4345L15.2752 2.11095ZM14.0462 14.7898H6.53977V16.7898H14.0462V14.7898ZM5.55383 15.6227L3.8642 25.5943L5.83609 25.9284L7.52572 15.9568L5.55383 15.6227ZM4.85014 26.7614H12.4119V24.7614H4.85014V26.7614ZM11.4252 25.5988L9.8187 35.3488L11.7921 35.6739L13.3986 25.9239L11.4252 25.5988ZM10.8054 34.5114H3.29901V36.5114H10.8054V34.5114ZM2.31306 35.3443L0.623429 45.3159L2.59532 45.65L4.28495 35.6784L2.31306 35.3443ZM1.60938 46.483H9.17116V44.483H1.60938V46.483ZM8.18434 45.3212L5.96843 58.8382L7.94208 59.1618L10.158 45.6447L8.18434 45.3212ZM6.95526 60H16.9268V58H6.95526V60ZM17.9137 59.1618L20.1296 45.6447L18.1559 45.3212L15.94 58.8382L17.9137 59.1618ZM19.1428 46.483H29.1143V44.483H19.1428V46.483ZM28.1275 45.3212L25.9116 58.8382L27.8853 59.1618L30.1012 45.6447L28.1275 45.3212ZM21.7637 35.6739L23.3702 25.9239L21.3968 25.5988L19.7903 35.3488L21.7637 35.6739ZM22.3835 26.7614H32.3551V24.7614H22.3835V26.7614ZM31.3684 25.5988L29.7619 35.3488L31.7353 35.6739L33.3418 25.9239L31.3684 25.5988ZM30.7486 34.5114H20.777V36.5114H30.7486V34.5114ZM96.5126 60.3849L96.5145 59.3849H96.5126V60.3849ZM120.5 30.7195L119.5 30.718V30.718L120.5 30.7195ZM72.5531 30.7195L73.5531 30.7224V30.7209L72.5531 30.7195ZM86.6518 30.7195L87.6518 30.7239L87.6518 30.7217L86.6518 30.7195ZM106.401 30.7195L107.401 30.7172V30.7172L106.401 30.7195ZM96.5107 61.3849C104.202 61.3993 110.491 58.5532 114.839 53.2158C119.165 47.9047 121.486 40.232 121.5 30.7209L119.5 30.718C119.486 39.9313 117.237 47.1053 113.288 51.9527C109.361 56.7739 103.669 59.3983 96.5145 59.3849L96.5107 61.3849ZM121.5 30.7209C121.514 21.2619 119.192 13.7017 114.853 8.48843C110.494 3.25165 104.192 0.497157 96.5126 0.497157V2.49716C103.68 2.49716 109.386 5.047 113.315 9.76796C117.265 14.5124 119.513 21.5634 119.5 30.718L121.5 30.7209ZM96.5126 0.497157C88.8334 0.497157 82.552 3.24465 78.2064 8.47905C73.8812 13.6888 71.5672 21.2481 71.5531 30.718L73.5531 30.7209C73.5667 21.5495 75.8091 14.4977 79.7452 9.75657C83.6608 5.04015 89.3452 2.49716 96.5126 2.49716V0.497157ZM71.5531 30.7165C71.5249 40.2029 73.8391 47.8697 78.1693 53.1847C82.5199 58.5248 88.8213 61.3849 96.5126 61.3849V59.3849C89.3573 59.3849 83.6512 56.7469 79.7199 51.9215C75.7681 47.071 73.5258 39.9051 73.5531 30.7224L71.5531 30.7165ZM96.5126 48.1669C93.9683 48.1669 91.7989 46.9202 90.218 44.1434C88.6064 41.3125 87.6245 36.9011 87.6518 30.7239L85.6518 30.715C85.6238 37.0577 86.6223 41.87 88.48 45.1329C90.3683 48.4498 93.157 50.1669 96.5126 50.1669V48.1669ZM87.6518 30.7217C87.6655 24.6686 88.6531 20.3474 90.2562 17.5749C91.8277 14.8571 93.9763 13.6321 96.5126 13.6321V11.6321C93.1768 11.6321 90.4088 13.3155 88.5248 16.5737C86.6725 19.7772 85.6658 24.4997 85.6518 30.7172L87.6518 30.7217ZM96.5126 13.6321C99.0646 13.6321 101.22 14.8589 102.794 17.5756C104.4 20.3477 105.387 24.6685 105.401 30.7217L107.401 30.7172C107.387 24.4998 106.38 19.7769 104.524 16.573C102.636 13.3137 99.8605 11.6321 96.5126 11.6321V13.6321ZM105.401 30.7217C105.415 36.9003 104.433 41.3122 102.821 44.1434C101.241 46.9193 99.0717 48.1669 96.5126 48.1669V50.1669C99.8811 50.1669 102.67 48.4507 104.559 45.1329C106.417 41.8703 107.415 37.0585 107.401 30.7172L105.401 30.7217ZM128.352 59H127.352V60H128.352V59ZM170.344 59V60H171.344V59H170.344ZM170.344 47.9482H171.344V46.9482H170.344V47.9482ZM147.354 47.9482H146.354V48.9482H147.354V47.9482ZM147.354 47.5881L146.676 46.853L146.354 47.15V47.5881H147.354ZM154.14 41.3281L153.483 40.5743L153.472 40.5835L153.462 40.5931L154.14 41.3281ZM127.521 20.277L126.521 20.2794L126.524 21.277H127.521V20.277ZM140.512 20.277V21.277H141.512V20.277H140.512ZM149.044 31.0241L149.702 31.7766L149.712 31.7679L149.044 31.0241ZM128.352 49.1392L127.694 48.3868L127.352 48.6856V49.1392H128.352ZM128.352 60H170.344V58H128.352V60ZM171.344 59V47.9482H169.344V59H171.344ZM170.344 46.9482H147.354V48.9482H170.344V46.9482ZM148.354 47.9482V47.5881H146.354V47.9482H148.354ZM148.032 48.3231L154.818 42.0632L153.462 40.5931L146.676 46.853L148.032 48.3231ZM154.797 42.082C167.106 31.3531 170.651 25.6334 170.651 18.6428H168.651C168.651 24.6706 165.771 29.8642 153.483 40.5743L154.797 42.082ZM170.651 18.6428C170.651 13.2367 168.436 8.66362 164.504 5.46175C160.591 2.27446 155.045 0.497157 148.434 0.497157V2.49716C154.703 2.49716 159.766 4.18221 163.241 7.01251C166.699 9.82821 168.651 13.828 168.651 18.6428H170.651ZM148.434 0.497157C141.973 0.497157 136.483 2.35969 132.598 5.80775C128.7 9.26744 126.507 14.2461 126.521 20.2794L128.521 20.2746C128.508 14.7575 130.498 10.3462 133.926 7.30358C137.367 4.24932 142.347 2.49716 148.434 2.49716V0.497157ZM127.521 21.277H140.512V19.277H127.521V21.277ZM141.512 20.277C141.512 17.923 142.233 16.175 143.388 15.0176C144.543 13.8592 146.236 13.1889 148.379 13.1889V11.1889C145.813 11.1889 143.572 12.0005 141.972 13.6051C140.37 15.2107 139.512 17.5067 139.512 20.277H141.512ZM148.379 13.1889C150.488 13.1889 152.227 13.8377 153.426 14.9376C154.616 16.0284 155.356 17.6346 155.356 19.723H157.356C157.356 17.1303 156.42 14.9694 154.778 13.4635C153.145 11.9667 150.895 11.1889 148.379 11.1889V13.1889ZM155.356 19.723C155.356 23.4576 153.072 26.059 148.375 30.2804L149.712 31.7679C154.322 27.6242 157.356 24.4642 157.356 19.723H155.356ZM148.385 30.2718L127.694 48.3868L129.011 49.8916L149.702 31.7765L148.385 30.2718ZM127.352 49.1392V59H129.352V49.1392H127.352Z" fill="#1E1E1E"/>
</svg>
