<svg width="268" height="173" viewBox="0 0 268 173" fill="none" xmlns="http://www.w3.org/2000/svg">
<g clip-path="url(#clip0)">
<path d="M163.312 109.449H157.967C156.323 109.449 154.987 108.133 154.987 106.487V99.9241L146.703 101.961L148.923 110.684C151.266 142.613 109.251 146.111 107.648 111.527L81.6045 117.905V117.884L64.6052 121.588L75.9312 166.828L99.5492 161.129C102.797 167.425 105.181 171.786 105.181 171.786H178.009L163.312 109.449Z" fill="#1E1E1E"/>
<path d="M55.6431 172.712C55.3759 172.712 55.1498 172.547 55.0675 172.3C54.9648 171.971 55.1292 171.622 55.4581 171.519C81.3372 162.775 125.161 153.682 133.856 151.912L81.4605 119.119C79.6722 119.53 68.6135 122.122 57.4725 125.538C57.1436 125.64 56.7942 125.455 56.712 125.126C56.6092 124.797 56.7942 124.447 57.1231 124.365C69.2712 120.641 81.3167 117.884 81.44 117.864C81.6044 117.823 81.7689 117.864 81.9128 117.946L135.809 151.707C136.014 151.851 136.138 152.098 136.097 152.344C136.055 152.591 135.85 152.797 135.603 152.838C135.089 152.941 84.4411 163.043 55.8486 172.712C55.7664 172.712 55.7047 172.712 55.6431 172.712Z" fill="#1E1E1E"/>
<path d="M25.4268 172.815C25.3857 172.815 25.3652 172.815 25.3241 172.815C22.3641 172.301 20.0208 170.223 18.5614 166.766C15.807 160.306 16.1358 149.3 19.4041 136.565C22.9808 122.74 29.7434 108.03 38.5 95.1305C49.2299 77.6638 52.3954 72.9937 60.6175 70.278C64.1736 69.1054 67.7707 69.3111 71.2857 70.8541L71.9846 71.1627C84.6055 76.738 92.2521 80.3589 92.026 83.5478C91.9438 84.741 90.8132 85.6256 88.5933 86.2634C80.145 88.6705 60.5764 104.471 58.2331 106.363C58.2536 109.1 58.3564 129.837 57.2876 137.696C56.5476 143.066 55.2731 148.374 53.5054 153.476C53.4026 153.805 53.0326 153.97 52.7243 153.846C52.3954 153.743 52.2309 153.373 52.3543 153.065C54.1015 148.024 55.3554 142.799 56.0748 137.532C57.2053 129.241 56.9998 106.322 56.9998 106.075C56.9998 105.89 57.082 105.705 57.2259 105.602C58.1098 104.882 79.0556 87.7035 88.2438 85.0907C89.8471 84.6381 90.731 84.0621 90.7721 83.486C90.8132 82.8894 90.1144 81.4904 85.0166 78.7131C81.3167 76.6969 76.3012 74.475 71.4501 72.3354L70.7513 72.0268C67.483 70.5866 64.2764 70.4015 60.9669 71.4919C53.1148 74.0635 50.2782 78.3016 39.5072 95.83C39.5072 95.83 39.5072 95.8505 39.4867 95.8505C20.6169 123.686 14.4914 154.093 19.6713 166.273C20.9869 169.359 22.9396 171.148 25.5091 171.58C25.8379 171.642 26.064 171.951 26.0024 172.301C25.9818 172.609 25.7146 172.815 25.4268 172.815Z" fill="#1E1E1E"/>
<path d="M100.742 94.5338C100.454 94.5338 100.187 94.3281 100.145 94.0195C98.6449 85.8931 97.2471 73.7961 97.8844 64.2501C97.9049 63.9004 98.2132 63.6535 98.5421 63.674C98.8916 63.6946 99.1383 63.9826 99.1177 64.3324C98.501 73.7549 99.8783 85.7285 101.379 93.7932C101.44 94.1224 101.214 94.4515 100.885 94.5133C100.824 94.5338 100.783 94.5338 100.742 94.5338Z" fill="#1E1E1E"/>
<path d="M149.992 89.2261C148.964 89.2261 147.978 89.1026 147.114 88.9175C146.785 88.8557 146.559 88.5266 146.621 88.1974C146.683 87.8682 147.012 87.6419 147.34 87.7036C149.293 88.0945 151.986 88.2591 153.836 86.9424C154.946 86.1401 155.645 84.844 155.871 83.0747C156.138 80.9968 155.789 79.3098 154.802 78.0754C153.322 76.2238 150.711 75.7301 149.293 75.586C148.944 75.5655 148.697 75.2569 148.738 74.9071C148.759 74.5574 149.067 74.3105 149.417 74.3516C151.04 74.4957 154 75.0717 155.768 77.2936C156.96 78.7955 157.412 80.7911 157.084 83.2187C156.796 85.3377 155.953 86.9219 154.535 87.93C153.24 88.9175 151.575 89.2261 149.992 89.2261Z" fill="#1E1E1E"/>
<path d="M128.799 136.668C119.323 136.668 109.025 129.899 107.257 114.223C107.216 113.893 107.463 113.585 107.792 113.544C108.121 113.502 108.429 113.749 108.47 114.079C110.258 129.92 121.132 136.215 130.505 135.351C139.879 134.487 149.457 126.422 148.327 110.766L144.976 97.6611C144.894 97.332 145.1 97.0028 145.429 96.9205C145.757 96.8382 146.086 97.0439 146.169 97.3731L149.519 110.54C149.519 110.581 149.54 110.602 149.54 110.643C150.074 118.029 148.306 124.447 144.442 129.2C140.968 133.458 136.055 136.092 130.608 136.586C130.012 136.647 129.416 136.668 128.799 136.668Z" fill="#1E1E1E"/>
<path d="M120.392 119.654C115.808 119.654 111.348 118.358 108.182 115.107C100.926 107.68 99.1998 92.9704 99.1381 92.3532C99.097 92.0651 99.2614 91.7977 99.5287 91.7154C102.797 90.5016 110.814 89.8227 111.163 89.7815H111.184C124.154 89.1232 134.082 91.1805 136.652 91.7771C137.453 87.0864 139.036 76.4707 139.056 76.3678C139.098 76.0386 139.406 75.8123 139.714 75.8535L148.738 76.5941C148.902 76.6147 149.067 76.697 149.17 76.8204C149.272 76.9644 149.314 77.129 149.293 77.2936C149.17 78.0754 146.436 96.3444 145.223 101.426C143.99 106.672 142.921 109.141 136.508 114.305C132.746 117.35 126.456 119.654 120.392 119.654ZM100.433 92.7029C100.803 95.3363 102.838 107.845 109.066 114.243C112.15 117.411 116.98 118.851 122.653 118.317C127.525 117.843 132.54 115.951 135.768 113.338C141.893 108.38 142.859 106.178 144.051 101.117C145.12 96.6118 147.484 81.1202 147.998 77.7256L140.208 77.0878C139.838 79.4949 138.44 88.8763 137.761 92.6C137.741 92.7646 137.638 92.9292 137.494 93.0115C137.35 93.1144 137.165 93.1349 137.001 93.0938C136.898 93.0732 126.127 90.2341 111.266 90.9748C110.937 91.0365 103.742 91.6742 100.433 92.7029Z" fill="#1E1E1E"/>
<path d="M148.204 79.8858C148.204 79.8858 152.5 70.9982 153.754 63.6741C154.946 56.8027 151.328 49.8901 144.874 47.2773C139.468 45.0759 137.7 45.796 137.7 45.796C137.7 45.796 140.907 40.0766 132.561 31.6622C129.622 28.6791 125.572 27.0538 121.379 27.1567C111.163 27.4241 107.977 36.0649 107.977 36.0649C107.977 36.0649 97.0826 15.9237 74.6362 27.7739C72.3752 28.9671 69.8057 32.3205 68.593 34.563C61.152 48.2031 85.51 64.4559 98.2337 65.7726C112.191 67.2127 120.947 65.4845 125.202 61.7814C121.996 63.9827 127.71 84.4325 148.204 79.8858Z" fill="#1E1E1E"/>
<path d="M109.765 98.669C109.58 98.669 109.416 98.6073 109.272 98.5044C109.066 98.3398 108.943 98.0724 108.943 97.8049L109.601 84.5763C109.621 84.1237 110.012 83.774 110.464 83.7946C110.916 83.8151 111.266 84.206 111.245 84.6586L110.649 96.694L114.061 95.583C114.493 95.439 114.966 95.6859 115.089 96.1179C115.233 96.55 114.986 97.0231 114.555 97.1466L110.012 98.6278C109.95 98.6484 109.848 98.669 109.765 98.669Z" fill="#1E1E1E"/>
<path d="M124.36 76.5529C124.133 76.5529 123.907 76.45 123.743 76.2854C122.448 74.8247 120.454 74.187 118.563 74.619C118.111 74.7219 117.679 74.4338 117.576 74.0018C117.474 73.5698 117.761 73.1172 118.193 73.0143C120.68 72.4382 123.27 73.2817 124.976 75.1951C125.285 75.5448 125.243 76.0591 124.915 76.3472C124.75 76.4912 124.545 76.5529 124.36 76.5529Z" fill="#1E1E1E"/>
<path d="M102.509 73.4464C102.406 73.4464 102.304 73.4258 102.201 73.3846C101.769 73.2201 101.564 72.7469 101.728 72.3148C102.879 69.3729 106.045 69.5786 107.566 70.1135C107.998 70.2575 108.224 70.7307 108.08 71.1627C107.936 71.5948 107.463 71.8211 107.031 71.6771C106.908 71.6359 104.113 70.7307 103.249 72.932C103.146 73.2406 102.838 73.4464 102.509 73.4464Z" fill="#1E1E1E"/>
<path d="M125.367 100.377C124.647 99.3891 117.638 104.306 120.372 104.759C123.106 105.211 126.908 102.496 125.367 100.377Z" fill="#1E1E1E"/>
<path d="M95.9725 99.4715L122.592 90.4604C122.592 90.4604 126.148 89.1026 126.024 84.4736C125.901 79.8447 120.084 78.1165 120.084 78.1165L91.697 74.1047L95.9725 99.4715Z" fill="#4E2D5E"/>
<path d="M67.483 99.4715L94.1021 90.4604C94.1021 90.4604 97.6582 89.1026 97.5349 84.4736C97.4115 79.8447 91.5944 78.1165 91.5944 78.1165L77.8634 79.0217L63.2075 74.1047L67.483 99.4715Z" fill="#4E2D5E"/>
<path d="M91.4298 100.294C98.6839 100.294 104.565 94.4087 104.565 87.1482C104.565 79.8877 98.6839 74.002 91.4298 74.002C84.1756 74.002 78.2949 79.8877 78.2949 87.1482C78.2949 94.4087 84.1756 100.294 91.4298 100.294Z" fill="#1E1E1E"/>
<path d="M62.7347 100.48C69.9889 100.48 75.8695 94.594 75.8695 87.3335C75.8695 80.073 69.9889 74.1873 62.7347 74.1873C55.4805 74.1873 49.5999 80.073 49.5999 87.3335C49.5999 94.594 55.4805 100.48 62.7347 100.48Z" fill="#1E1E1E"/>
<path d="M83.1872 71.3067C82.92 71.3067 82.6733 71.1421 82.5911 70.8746C82.4883 70.5454 82.6733 70.1957 83.0022 70.1134C87.586 68.7144 89.0044 66.6365 88.9427 65.9165C88.9427 65.8342 88.9221 65.649 88.511 65.5873C86.6199 65.2993 76.6095 66.4102 71.3268 70.1546C71.039 70.3603 70.669 70.278 70.4635 70.0105C70.2579 69.7431 70.3401 69.3522 70.6073 69.1465C76.1367 65.2376 86.4349 64.0443 88.696 64.3735C89.5388 64.4969 90.1143 65.0524 90.176 65.8342C90.2993 67.4389 88.2233 69.8254 83.3722 71.3067C83.3105 71.2861 83.2489 71.3067 83.1872 71.3067Z" fill="#1E1E1E"/>
<path d="M90.6692 79.0423C88.1409 79.0423 84.5643 78.1165 80.2065 75.586C80.186 75.586 80.186 75.5654 80.1654 75.5654C80.1449 75.5448 77.411 73.7344 75.3349 73.9401C75.006 73.9812 74.6977 73.7138 74.6566 73.3846C74.6155 73.0555 74.8827 72.7469 75.2116 72.7057C77.6782 72.4794 80.556 74.3516 80.8437 74.5367C87.8737 78.6102 92.5808 78.1782 93.4236 77.0466C93.4853 76.9644 93.6086 76.7998 93.3003 76.4912C91.5942 74.8659 80.4738 69.0643 74.4305 70.5455C74.1016 70.6278 73.7727 70.4221 73.6905 70.0929C73.6083 69.7637 73.8138 69.4346 74.1427 69.3523C80.8437 67.7064 92.2314 73.7755 94.1636 75.6065C94.8419 76.2443 94.9447 77.1084 94.4308 77.8079C93.8347 78.5279 92.5603 79.0423 90.6692 79.0423Z" fill="#1E1E1E"/>
<path d="M84.2765 79.0421C81.7482 79.0421 78.1716 78.1163 73.8139 75.5858C73.7933 75.5858 73.7933 75.5653 73.7728 75.5653C73.7522 75.5447 71.0183 73.7343 68.9423 73.94C68.5928 73.9811 68.305 73.7137 68.2639 73.3845C68.2228 73.0553 68.49 72.7467 68.8189 72.7056C71.265 72.4793 74.1633 74.3514 74.4511 74.5366C81.481 78.6101 86.1882 78.1781 87.0309 77.0465C87.0926 76.9642 87.2159 76.7997 86.9076 76.4911C85.2426 74.9069 74.2866 69.167 68.2023 70.5043C67.8734 70.5866 67.5445 70.3602 67.4623 70.0311C67.3801 69.7019 67.6062 69.3727 67.935 69.2904C74.6566 67.8092 85.8798 73.796 87.7504 75.5858C88.4287 76.2236 88.5315 77.0877 88.0176 77.7872C87.442 78.5278 86.1471 79.0421 84.2765 79.0421Z" fill="#1E1E1E"/>
<path d="M78.9733 79.392C76.445 79.392 72.8478 78.4662 68.4901 75.9357C68.4695 75.9357 68.4695 75.9151 68.449 75.9151C68.4284 75.8945 65.6946 74.0841 63.6185 74.2898C63.269 74.3104 62.9813 74.0635 62.9401 73.7343C62.899 73.4052 63.1663 73.0966 63.4951 73.0554C65.9412 72.8291 68.8395 74.7013 69.1273 74.8864C76.1572 78.9599 80.8644 78.5279 81.7071 77.3964C81.7688 77.3141 81.8921 77.1289 81.5838 76.8409C79.7749 75.1127 67.2156 68.5705 61.5629 71.2861C61.2546 71.4301 60.8846 71.3067 60.7407 70.9981C60.5968 70.6895 60.7202 70.3192 61.0285 70.1752C67.5856 67.0275 80.6794 74.2692 82.4471 75.9357C83.1255 76.5734 83.2282 77.4375 82.7143 78.137C82.1388 78.8776 80.8644 79.392 78.9733 79.392Z" fill="#1E1E1E"/>
<path d="M167.073 50.137C166.786 50.137 166.539 49.9312 166.477 49.6432L160.393 21.4579C159.859 18.948 160.352 16.3558 161.791 14.175C163.353 11.8297 165.922 10.1632 168.821 9.60776C174.638 8.51738 180.311 12.056 181.483 17.4873L185.553 36.3735C185.614 36.7027 185.409 37.0318 185.08 37.1141C184.751 37.1758 184.422 36.9701 184.34 36.6409L180.27 17.7547C179.242 12.9818 174.206 9.87521 169.047 10.8421C166.457 11.3359 164.196 12.7966 162.819 14.8745C161.565 16.7672 161.112 19.0303 161.585 21.211L167.67 49.3963C167.731 49.7255 167.526 50.0547 167.197 50.137C167.156 50.137 167.115 50.137 167.073 50.137Z" fill="#1E1E1E"/>
<path d="M211.945 38.4719C211.596 38.4719 211.329 38.1839 211.329 37.8342L211.987 10.3072C212.048 8.08531 211.226 5.92513 209.643 4.2587C207.896 2.40711 205.388 1.31673 202.737 1.23444C197.475 1.09043 193.076 4.91704 192.932 9.79289L192.11 35.5711C192.089 35.9208 191.822 36.1883 191.472 36.1677C191.123 36.1472 190.856 35.8797 190.876 35.53L191.699 9.75174C191.884 4.21755 196.837 -0.143964 202.778 4.81089e-05C205.758 0.0823409 208.574 1.31673 210.548 3.4152C212.357 5.32851 213.302 7.79729 213.22 10.3484L212.562 37.8753C212.562 38.225 212.274 38.4719 211.945 38.4719Z" fill="#1E1E1E"/>
<path d="M236.715 48.6969C236.674 48.6969 236.632 48.6969 236.591 48.6763C236.262 48.6146 236.057 48.2854 236.119 47.9356L241.874 21.1905C242.347 19.0097 241.915 16.7467 240.641 14.854C239.263 12.7761 236.982 11.2948 234.412 10.8216C229.253 9.85467 224.217 12.9612 223.189 17.7342L218.359 37.2582C218.277 37.5873 217.948 37.7931 217.619 37.7108C217.29 37.6285 217.084 37.2993 217.167 36.9701L221.997 17.4668C223.169 12.056 228.842 8.51741 234.659 9.60779C237.557 10.1427 240.127 11.8091 241.689 14.175C243.128 16.3558 243.642 18.948 243.087 21.458L237.331 48.2031C237.249 48.4911 237.002 48.6969 236.715 48.6969Z" fill="#1E1E1E"/>
<path d="M240.99 93.1349C240.887 93.1349 240.785 93.1143 240.702 93.0526C240.394 92.888 240.291 92.5177 240.456 92.2091L265.78 45.0142C266.869 42.9774 267.075 40.6732 266.355 38.513C265.574 36.1883 263.868 34.3161 261.525 33.2257C256.818 31.045 251.062 32.8143 248.719 37.1964L242.285 49.1905C242.121 49.4991 241.751 49.602 241.442 49.4374C241.134 49.2728 241.031 48.9025 241.196 48.5939L247.63 36.5997C250.281 31.6622 256.756 29.646 262.039 32.0942C264.69 33.3286 266.643 35.4682 267.527 38.1016C268.349 40.5909 268.123 43.2449 266.869 45.5902L241.525 92.8263C241.422 93.032 241.216 93.1349 240.99 93.1349Z" fill="#1E1E1E"/>
<path d="M162.449 93.0937C162.222 93.0937 162.017 92.9703 161.914 92.7645L156.364 82.4162C156.2 82.1076 156.323 81.7373 156.611 81.5727C156.919 81.4082 157.289 81.5316 157.454 81.8196L163.004 92.1679C163.168 92.4765 163.045 92.8468 162.757 93.0114C162.654 93.0731 162.551 93.0937 162.449 93.0937Z" fill="#1E1E1E"/>
<path d="M153.548 76.5118C153.322 76.5118 153.116 76.3884 153.014 76.1827L136.61 45.6315C135.357 43.3067 135.13 40.6322 135.953 38.1428C136.837 35.4889 138.789 33.3699 141.441 32.1355C146.744 29.6873 153.199 31.7034 155.85 36.641L163.456 50.8159C163.62 51.1245 163.497 51.4948 163.209 51.6594C162.901 51.824 162.531 51.7006 162.366 51.4125L154.761 37.2376C152.417 32.8761 146.662 31.0862 141.955 33.267C139.612 34.3574 137.885 36.2295 137.124 38.5543C136.405 40.7145 136.61 43.0393 137.7 45.076L154.103 75.6272C154.267 75.9358 154.144 76.3061 153.856 76.4707C153.754 76.4913 153.651 76.5118 153.548 76.5118Z" fill="#1E1E1E"/>
<path d="M170.218 93.2171C169.972 93.2171 169.745 93.073 169.643 92.8262L158.913 65.1141C156.611 59.1479 158.831 52.2353 163.867 49.6636C166.128 48.5115 168.677 48.3881 171.061 49.2933C173.857 50.3631 176.138 52.7702 177.351 55.8767L181.729 67.2126L179.468 47.6475C178.728 41.1875 182.613 35.3447 188.163 34.6452C190.568 34.3366 192.993 35.0567 195.028 36.6408C197.516 38.5952 199.16 41.6812 199.571 45.1169L201.853 64.9906L206.211 44.9524C206.909 41.7018 208.801 38.9861 211.37 37.5049C213.59 36.2293 216.139 35.9825 218.564 36.7848C223.95 38.5541 227.218 45.0758 225.861 51.3095L221.894 69.599L229.212 53.5314C230.507 50.6923 232.789 48.6144 235.481 47.8326C237.989 47.092 240.661 47.524 242.963 49.0259C247.856 52.2147 249.747 59.3947 247.177 65.0318L234.556 92.8056C234.412 93.1142 234.042 93.2582 233.734 93.1142C233.426 92.9702 233.282 92.5999 233.426 92.2913L246.047 64.5175C248.369 59.4153 246.684 52.9142 242.285 50.0545C240.291 48.7584 237.989 48.3881 235.831 49.0053C233.446 49.7048 231.494 51.4946 230.322 54.0457L220.62 75.3595C220.496 75.6476 220.168 75.7916 219.859 75.6887C219.551 75.5858 219.386 75.2772 219.448 74.9686L224.628 51.0626C225.841 45.4255 222.943 39.5622 218.133 37.9781C216.057 37.2786 213.837 37.5049 211.925 38.5952C209.643 39.8914 207.978 42.319 207.362 45.2198L202.223 68.8996C202.161 69.1876 201.894 69.3933 201.586 69.3933C201.277 69.3727 201.031 69.1464 201.01 68.8378L198.358 45.3021C198.009 42.1956 196.508 39.4182 194.288 37.6695C192.521 36.2705 190.404 35.6533 188.327 35.9207C183.456 36.5379 180.044 41.7429 180.722 47.5446L183.518 71.8827C183.559 72.1913 183.353 72.4793 183.045 72.5616C182.736 72.6439 182.428 72.4793 182.325 72.1913L176.2 56.3705C175.11 53.5725 173.075 51.4329 170.629 50.4865C168.574 49.7048 166.374 49.8076 164.422 50.7951C159.92 53.0788 157.967 59.3124 160.064 64.7026L170.794 92.3736C170.917 92.6822 170.753 93.0525 170.444 93.1759C170.362 93.1965 170.3 93.2171 170.218 93.2171Z" fill="#4E2D5E"/>
<path d="M178.112 172.856C177.824 172.856 177.577 172.671 177.516 172.383L162.819 110.067H157.967C157.001 110.067 156.118 109.696 155.439 109.017C154.761 108.338 154.391 107.433 154.391 106.487V95.5625C154.391 94.5955 154.761 93.6903 155.46 93.0114C156.138 92.3325 157.043 91.9622 157.988 91.9622C157.988 91.9622 157.988 91.9622 158.009 91.9622H244.937C246.931 91.9622 248.534 93.5669 248.534 95.5625V106.487C248.534 107.454 248.164 108.359 247.465 109.038C246.787 109.717 245.882 110.087 244.937 110.087C244.937 110.087 244.937 110.087 244.916 110.087H240.415L232.008 145.761C231.925 146.09 231.597 146.296 231.268 146.214C230.939 146.131 230.733 145.802 230.815 145.473L239.325 109.326C239.387 109.038 239.634 108.853 239.921 108.853H244.916C245.554 108.853 246.129 108.606 246.581 108.174C247.034 107.721 247.28 107.145 247.28 106.507V95.583C247.28 94.2869 246.232 93.2171 244.916 93.2171H157.967C157.33 93.2171 156.755 93.464 156.303 93.896C155.85 94.3486 155.604 94.9247 155.604 95.5625V106.487C155.604 107.125 155.85 107.701 156.303 108.153C156.755 108.606 157.33 108.832 157.967 108.832H163.312C163.6 108.832 163.846 109.038 163.908 109.305L178.708 172.074C178.79 172.403 178.584 172.733 178.256 172.815C178.214 172.835 178.153 172.856 178.112 172.856Z" fill="#1E1E1E"/>
<path d="M237.66 151.933C237.475 151.933 237.29 151.851 237.188 151.707C234.125 147.86 231.206 146.358 228.102 144.774C226.622 144.012 225.081 143.231 223.518 142.161C221.545 140.803 220.353 139.404 219.49 138.396C218.154 136.812 217.701 136.38 216.324 136.976C215.995 137.12 215.81 137.326 215.707 137.635C215.522 138.273 215.646 139.96 218.503 144.054C218.688 144.342 218.626 144.712 218.359 144.918C218.071 145.123 217.701 145.041 217.496 144.774C215.07 141.297 214.084 138.849 214.536 137.306C214.721 136.647 215.173 136.133 215.851 135.845C218.133 134.878 219.14 136.071 220.435 137.594C221.298 138.622 222.388 139.898 224.238 141.153C225.738 142.181 227.239 142.943 228.698 143.683C231.761 145.267 234.947 146.893 238.174 150.946C238.38 151.213 238.339 151.604 238.072 151.81C237.928 151.892 237.784 151.933 237.66 151.933Z" fill="#1E1E1E"/>
<path d="M218.112 145.514C218.01 145.514 217.907 145.494 217.825 145.432C210.26 141.317 199.222 140.844 195.604 141.009C195.296 141.029 194.762 141.112 194.577 141.523C194.371 141.955 194.556 142.655 195.09 143.395C195.296 143.683 195.214 144.053 194.947 144.259C194.659 144.465 194.289 144.383 194.083 144.115C193.261 142.963 193.055 141.852 193.467 140.988C193.816 140.268 194.577 139.836 195.543 139.795C199.263 139.63 210.589 140.124 218.4 144.362C218.708 144.527 218.811 144.897 218.647 145.206C218.544 145.391 218.338 145.514 218.112 145.514Z" fill="#1E1E1E"/>
<path d="M193.035 150.884C192.891 150.884 192.768 150.843 192.644 150.74C190.116 148.703 188.862 146.42 189.376 144.733C189.664 143.807 190.445 143.231 191.534 143.148C194.7 142.902 206.375 144.547 214.618 148.868C214.926 149.032 215.029 149.403 214.885 149.711C214.721 150.02 214.351 150.123 214.042 149.979C206.149 145.823 194.618 144.157 191.637 144.383C191.062 144.424 190.692 144.671 190.568 145.103C190.28 146.049 191.041 147.86 193.425 149.773C193.693 149.979 193.734 150.37 193.528 150.637C193.384 150.802 193.22 150.884 193.035 150.884Z" fill="#1E1E1E"/>
<path d="M195.892 158.887C195.769 158.887 195.625 158.846 195.522 158.763C191.699 155.801 190.938 152.879 191.452 151.254C191.781 150.226 192.603 149.588 193.734 149.526C196.262 149.382 204.998 150.925 212.645 154.34C212.953 154.484 213.097 154.855 212.953 155.163C212.809 155.472 212.439 155.616 212.131 155.472C204.772 152.18 196.139 150.637 193.775 150.76C193.158 150.802 192.768 151.09 192.603 151.625C192.192 152.921 193.179 155.389 196.262 157.776C196.529 157.982 196.591 158.373 196.365 158.64C196.262 158.805 196.077 158.887 195.892 158.887Z" fill="#1E1E1E"/>
<path d="M215.666 170.511C215.605 170.511 215.543 170.511 215.481 170.49C208.924 168.515 203.539 166.149 199.9 163.639C196.858 161.541 195.214 159.422 195.337 157.838C195.419 156.85 196.18 156.171 197.351 156.027C199.448 155.78 205.738 157.179 212.254 159.874C212.562 159.998 212.727 160.368 212.583 160.677C212.46 160.985 212.09 161.15 211.781 161.006C205.101 158.229 199.181 157.035 197.495 157.241C196.611 157.344 196.57 157.776 196.55 157.92C196.406 159.689 200.908 164.812 215.81 169.297C216.139 169.4 216.324 169.729 216.221 170.058C216.18 170.326 215.933 170.511 215.666 170.511Z" fill="#1E1E1E"/>
<path d="M229.233 172.548C225.225 172.548 220.6 171.869 215.502 170.47C215.173 170.387 214.988 170.038 215.07 169.708C215.152 169.379 215.502 169.194 215.831 169.276C233.241 174.029 239.675 169.359 241.628 167.137C243.704 164.771 244.115 161.541 242.758 158.29C240.518 152.88 232.768 146.255 218.339 145.35C217.989 145.329 217.742 145.041 217.763 144.692C217.784 144.342 218.071 144.095 218.421 144.115C224.916 144.527 230.774 146.152 235.379 148.827C239.469 151.213 242.491 154.402 243.909 157.797C245.451 161.52 244.958 165.224 242.553 167.939C239.88 171.005 235.256 172.548 229.233 172.548Z" fill="#1E1E1E"/>
<path d="M258.688 173H0.616659C0.267219 173 0 172.733 0 172.383C0 172.033 0.267219 171.766 0.616659 171.766H258.688C259.038 171.766 259.305 172.033 259.305 172.383C259.305 172.733 259.038 173 258.688 173Z" fill="#1E1E1E"/>
<path d="M65.9999 89.9098C66.0073 88.8813 65.6067 88.0679 64.8076 87.4935C64.1904 87.0513 63.4415 86.8206 62.717 86.5989C61.208 86.1346 60.7702 85.8901 60.7702 85.1577C60.7702 84.3419 61.8149 84.0517 62.7092 84.0517C63.3605 84.0517 64.1098 84.2572 64.5752 84.5618L65.4977 83.1118C64.8896 82.7116 64.0572 82.4387 63.2352 82.354V81H61.5333V82.449C60.0205 82.7867 59.0675 83.7901 59.0675 85.1577C59.0675 86.1155 59.4597 86.8751 60.231 87.4109C60.8176 87.8199 61.533 88.0395 62.2241 88.2521C63.7043 88.7062 64.3054 88.9828 64.2986 89.8991L64.2986 89.9059C64.2986 90.6749 63.2943 90.9483 62.4339 90.9483C61.6212 90.9483 60.7374 90.5868 60.2364 90.0494L59 91.2362C59.6345 91.9172 60.5562 92.3986 61.5333 92.5874V94H63.2352V92.6178C64.9163 92.3736 65.9982 91.3465 65.9999 89.9098Z" fill="white"/>
<path d="M94.9999 89.9098C95.0073 88.8813 94.6067 88.0679 93.8076 87.4935C93.1904 87.0513 92.4415 86.8206 91.717 86.5989C90.208 86.1346 89.7702 85.8901 89.7702 85.1577C89.7702 84.3419 90.8149 84.0517 91.7092 84.0517C92.3605 84.0517 93.1098 84.2572 93.5752 84.5618L94.4977 83.1118C93.8896 82.7116 93.0572 82.4387 92.2352 82.354V81H90.5333V82.449C89.0205 82.7867 88.0675 83.7901 88.0675 85.1577C88.0675 86.1155 88.4597 86.8751 89.231 87.4109C89.8176 87.8199 90.533 88.0395 91.2241 88.2521C92.7043 88.7062 93.3054 88.9828 93.2986 89.8991L93.2986 89.9059C93.2986 90.6749 92.2943 90.9483 91.4339 90.9483C90.6212 90.9483 89.7374 90.5868 89.2364 90.0494L88 91.2362C88.6345 91.9172 89.5562 92.3986 90.5333 92.5874V94H92.2352V92.6178C93.9163 92.3736 94.9982 91.3465 94.9999 89.9098Z" fill="white"/>
</g>
<defs>
<clipPath id="clip0">
<rect width="268" height="173" fill="white"/>
</clipPath>
</defs>
</svg>
