<svg width="268" height="187" viewBox="0 0 268 187" fill="none" xmlns="http://www.w3.org/2000/svg">
<g clip-path="url(#clip0)">
<path d="M112.421 123.542C109.879 122.197 107.708 122.83 105.325 125.361C106.411 119.245 106.384 111.836 101.513 110.597C96.5086 109.305 93.6755 112.416 90.7366 119.93C90.8425 113.497 89.5716 105.193 84.2233 104.85C78.1865 104.481 76.2007 109.411 74.718 120.352C72.8382 114.235 67.6751 103.505 61.6119 105.641C55.6546 107.723 56.0253 113.444 59.3614 125.097C56.1047 120.062 49.5649 112.574 45.1962 115.422C41.0393 118.111 42.1778 122.514 46.7848 130.687C43.74 129.368 40.5892 129.237 38.0474 131.741C32.3549 137.33 35.1085 142.629 42.9721 152.437C50.8358 162.244 107.497 144.87 110.197 140.441C112.898 136.012 117.055 125.994 112.421 123.542Z" fill="white"/>
<path d="M53.7482 156.154C47.8703 156.154 44.0311 155.073 42.3101 152.885C35.1084 143.921 30.8985 137.568 37.4384 131.108C39.4771 129.105 42.0718 128.472 45.0637 129.21C41.3305 122.25 40.2714 117.584 44.7195 114.684C45.8051 113.972 47.076 113.761 48.4528 114.051C51.7889 114.763 55.1779 118.269 57.455 121.09C55.2044 111.968 55.5486 106.827 61.3206 104.797C62.8298 104.27 64.3655 104.402 65.9011 105.166C70.0051 107.223 72.9175 113.26 74.4002 117.004C75.8829 108.224 78.1864 103.584 84.2762 103.98C89.6245 104.323 91.0807 111.362 91.4514 116.239C93.8608 111.256 96.7998 108.488 101.751 109.754C105.749 110.782 107.444 115.659 106.464 123.252C108.556 121.749 110.621 121.617 112.818 122.777C113.93 123.357 114.672 124.333 115.042 125.651C116.26 130.08 112.818 137.462 110.833 140.758C109.482 142.972 99.1033 146.716 90.6306 149.273C78.3188 152.964 66.2718 155.39 57.5609 155.97C56.1841 156.128 54.9396 156.154 53.7482 156.154ZM42.7338 130.528C41.1187 130.528 39.7419 131.108 38.5504 132.268C33.3609 137.357 35.7703 142.234 43.5545 151.91C45.2756 154.045 50.0679 154.942 57.4285 154.441C77.4716 153.122 107.841 142.63 109.456 139.993C111.627 136.408 114.486 129.764 113.48 126.126C113.242 125.229 112.765 124.597 112.051 124.227C109.906 123.067 108.105 123.568 105.908 125.888C105.67 126.152 105.299 126.205 104.981 126.047C104.663 125.888 104.505 125.546 104.558 125.203C105.219 121.459 106.252 112.601 101.327 111.335C97.0381 110.228 94.4698 112.548 91.4779 120.167C91.3455 120.536 90.9748 120.721 90.5777 120.668C90.207 120.589 89.9422 120.273 89.9422 119.877C90.0481 113.155 88.5919 105.878 84.1702 105.588C79.1926 105.272 77.0744 108.884 75.4858 120.405C75.4328 120.774 75.1416 121.064 74.7709 121.09C74.4002 121.116 74.056 120.879 73.9501 120.536C72.6792 116.371 69.3961 108.752 65.1862 106.616C64.0477 106.036 62.9357 105.931 61.8501 106.326C56.9519 108.04 56.5547 112.364 60.0762 124.834C60.1821 125.203 59.9968 125.598 59.6261 125.757C59.2554 125.915 58.8582 125.783 58.62 125.467C55.9723 121.406 51.63 116.371 48.0821 115.633C47.1025 115.422 46.2817 115.554 45.5403 116.028C42.1248 118.243 42.5749 121.697 47.3937 130.265C47.5526 130.555 47.5261 130.924 47.2878 131.188C47.0495 131.451 46.7053 131.53 46.3876 131.372C45.0902 130.818 43.8723 130.528 42.7338 130.528Z" fill="#8A2C5B"/>
<path d="M112.871 140.23L112.924 140.099L36.7499 140.336L36.8029 140.468C32.646 141.285 29.8924 145.213 30.5278 149.352L36.2204 185.946L113.427 185.708L119.12 149.115C119.782 144.95 117.028 141.021 112.871 140.23Z" fill="#8A2C5B"/>
<path d="M214.04 127.048C212.848 127.048 211.683 127.127 210.492 127.259C204.164 118.559 196.909 111.177 189.284 106.484C169.426 94.3041 142.155 97.7842 116.71 107.17C99.2092 113.629 77.048 134.377 62.8298 149.089C44.2959 150.486 30.0513 163.035 30.8986 177.404C31.0839 180.488 31.9577 183.494 33.4404 186.209L95.6348 186.631C95.7407 186.473 95.8466 186.288 95.9525 186.13L188.225 185.814C188.331 185.945 188.437 186.077 188.543 186.236L239.617 186.13C244.356 179.882 247.189 171.893 247.189 163.167C247.163 143.209 232.335 127.048 214.04 127.048Z" fill="#4E2D5E"/>
<path d="M191.111 107.644C167.626 122.118 146.524 122.461 132.888 120.115C120.232 117.953 111.097 113.102 108.132 111.204C107.629 111.494 107.126 111.784 106.596 112.074C109.032 113.735 118.564 119.218 132.332 121.617C136.807 122.408 141.361 122.804 145.915 122.804C150.575 122.804 155.208 122.382 159.789 121.591C170.909 119.614 181.923 115.264 192.514 108.646C192.038 108.277 191.561 107.961 191.111 107.644Z" fill="white"/>
<path d="M188.675 132.585C192.408 127.365 197.015 124.438 202.39 123.858C204.349 123.647 206.309 123.779 208.215 124.227C207.712 123.595 207.209 122.962 206.706 122.356C205.25 122.171 203.767 122.145 202.311 122.303C198.26 122.725 192.382 124.676 187.378 131.688C187.113 132.058 187.219 132.532 187.563 132.796C187.695 132.901 187.854 132.954 188.013 132.954C188.304 132.901 188.516 132.796 188.675 132.585Z" fill="white"/>
<path d="M188.966 151.119C189.416 151.119 189.76 150.776 189.787 150.328C189.84 148.008 190.767 142.735 194.023 137.778C197.783 132.031 203.343 128.472 210.492 127.206C210.148 126.732 209.804 126.257 209.433 125.783C202.284 127.233 196.512 131.056 192.673 136.908C189.443 141.839 188.251 147.19 188.172 150.301C188.145 150.75 188.516 151.092 188.966 151.119C188.94 151.119 188.966 151.119 188.966 151.119Z" fill="white"/>
<path d="M76.7832 143.315C73.7648 143.183 70.7729 143.42 67.8075 144C67.0132 144.791 66.2189 145.582 65.451 146.373C68.39 144.765 85.1234 142.761 92.0339 150.591C92.1928 150.75 92.4046 150.855 92.6429 150.855C92.8282 150.855 93.0136 150.776 93.1724 150.644C93.4902 150.354 93.5431 149.853 93.2519 149.537C88.7773 144.501 81.0195 143.473 76.7832 143.315Z" fill="white"/>
<path d="M90.3924 154.625C81.046 147.586 69.3961 147.164 64.4714 147.375L62.8298 149.062C65.6629 148.825 79.2191 148.192 89.4392 155.891C89.7834 156.154 90.2865 156.075 90.5512 155.732C90.816 155.39 90.7366 154.889 90.3924 154.625Z" fill="white"/>
<path d="M50.015 185.946C50.015 185.946 58.6995 160.372 83.1377 165.013C107.576 169.653 141.016 179.618 141.016 179.618V186.025L50.015 185.946Z" fill="white"/>
<path d="M141.016 186.842L50.0414 186.736C49.7767 186.736 49.5384 186.605 49.406 186.394C49.2471 186.183 49.2207 185.919 49.3001 185.682C49.3795 185.418 51.5771 179.065 56.846 173.212C61.7443 167.754 70.3228 161.77 83.2965 164.248C107.496 168.835 140.91 178.774 141.255 178.88C141.599 178.985 141.811 179.275 141.811 179.645V186.051C141.811 186.262 141.731 186.473 141.572 186.605C141.413 186.736 141.228 186.842 141.016 186.842ZM51.18 185.155L140.222 185.26V180.225C135.721 178.906 105.378 170.048 83.0053 165.803C73.1558 163.932 64.7626 166.779 58.0375 174.266C54.1719 178.511 52.0272 183.125 51.18 185.155Z" fill="#1E1E1E"/>
<path d="M242.979 91.5098C241.761 90.8507 240.941 89.6379 240.782 88.2934C240.517 86.0261 242.053 76.2977 244.488 74.9268C246.924 73.5559 258.151 67.5185 260.216 67.6503C262.254 67.7821 263.128 85.657 242.979 91.5098Z" fill="white"/>
<path d="M244.171 75.9811C248.354 61.4018 251.77 58.1327 253.755 59.5563C255.556 60.8482 251.902 70.1283 250.843 74.9529" fill="white"/>
<path d="M244.171 76.7721C244.091 76.7721 244.012 76.7721 243.959 76.7458C243.535 76.6139 243.297 76.1921 243.403 75.7703C246.395 65.3301 249.307 59.5564 252.034 58.6073C252.802 58.3437 253.57 58.4491 254.205 58.9237C255.847 60.11 254.814 63.9592 252.987 70.1284C252.431 72.0002 251.928 73.7403 251.611 75.1112C251.505 75.533 251.081 75.7967 250.658 75.7176C250.234 75.6121 249.969 75.1903 250.049 74.7685C250.366 73.3448 250.896 71.552 251.452 69.6538C252.114 67.4393 252.776 65.1719 253.146 63.3001C253.702 60.5846 253.279 60.1628 253.279 60.1628C253.04 60.0046 252.829 59.9782 252.537 60.0573C251.743 60.321 248.884 62.2983 244.912 76.1394C244.833 76.5612 244.515 76.7721 244.171 76.7721Z" fill="#1E1E1E"/>
<path d="M262.625 72.8177C264.717 69.4167 268.185 69.6012 266.385 75.375C264.611 81.0169 263.314 88.3461 260.004 91.6679C256.694 94.9898 255.503 96.4925 255.503 96.4925C255.503 96.4925 248.884 121.09 245.124 141.549C239.696 171.129 229.423 176.824 219.838 173.423C210.254 170.022 208.48 156.655 221.559 130.687C234.639 104.718 241.549 89.5588 241.549 89.5588" fill="white"/>
<path d="M224.604 175.057C222.989 175.057 221.295 174.741 219.574 174.134C216.264 172.974 213.934 170.734 212.61 167.491C209.565 159.924 212.425 147.085 220.871 130.291C233.818 104.613 240.782 89.3478 240.861 89.1896C241.046 88.7942 241.523 88.6096 241.92 88.7942C242.317 88.9787 242.503 89.4533 242.317 89.8487C242.238 90.0069 235.248 105.298 222.301 131.003C211.895 151.672 212.107 161.928 214.093 166.884C215.231 169.679 217.244 171.63 220.103 172.632C223.731 173.924 227.093 173.686 230.085 171.973C236.466 168.282 241.258 158 244.33 141.364C248.036 121.116 254.656 96.4925 254.709 96.2552C254.735 96.1497 254.788 96.0443 254.867 95.9652C254.92 95.9124 256.112 94.4097 259.421 91.0878C261.831 88.6887 263.155 83.8641 264.426 79.224C264.823 77.774 265.193 76.4294 265.617 75.1112C266.464 72.3957 265.961 71.4994 265.697 71.3675C265.299 71.183 264.214 71.7366 263.287 73.1867C263.049 73.5558 262.572 73.6876 262.202 73.4503C261.831 73.213 261.725 72.7385 261.937 72.3694C263.208 70.3393 265.008 69.3375 266.358 69.9439C267.02 70.2603 268.45 71.3939 267.126 75.5858C266.729 76.8776 266.358 78.2222 265.961 79.6458C264.637 84.4968 263.234 89.506 260.56 92.2215C257.859 94.937 256.562 96.4134 256.218 96.8352C255.635 99.0234 249.44 122.356 245.892 141.654C242.741 158.764 237.684 169.415 230.879 173.344C228.92 174.504 226.828 175.057 224.604 175.057Z" fill="#1E1E1E"/>
<path d="M241.788 90.0069C239.882 88.7151 240.12 81.2804 237.975 78.0377C235.327 74.004 232.733 69.8121 237.631 70.4448C241.841 70.9721 243.165 74.6631 244.144 75.9813" fill="white"/>
<path d="M241.788 90.7978C241.629 90.7978 241.47 90.745 241.338 90.6659C240.093 89.8223 239.67 87.5813 239.167 84.7604C238.743 82.4931 238.266 79.9358 237.313 78.4858C234.957 74.9002 233.368 72.2375 234.401 70.6029C235.195 69.3374 237.128 69.5747 237.737 69.6538C241.576 70.1547 243.244 72.9757 244.25 74.663C244.462 75.0057 244.621 75.2957 244.78 75.5066C245.044 75.8493 244.965 76.3503 244.621 76.6139C244.277 76.8775 243.774 76.7985 243.509 76.4557C243.297 76.1921 243.112 75.8493 242.9 75.4802C241.92 73.8457 240.596 71.6311 237.551 71.2356C236.413 71.0775 235.883 71.262 235.751 71.4466C235.195 72.3429 237.525 75.9021 238.664 77.6157C239.802 79.3294 240.279 81.9394 240.729 84.4704C241.099 86.5268 241.55 88.8732 242.238 89.3477C242.609 89.585 242.688 90.0859 242.45 90.455C242.291 90.6659 242.053 90.7978 241.788 90.7978Z" fill="#1E1E1E"/>
<path d="M260.189 79.0132C260.189 79.0132 263.923 69.9703 265.167 65.8048C266.544 61.2438 261.725 60.5847 259.395 67.1494" fill="white"/>
<path d="M260.189 79.8041C260.083 79.8041 259.977 79.7777 259.898 79.7513C259.501 79.5932 259.289 79.1186 259.474 78.7232C259.501 78.6441 263.208 69.6803 264.426 65.5939C264.796 64.3284 264.664 63.3265 264.055 63.142C263.208 62.852 261.354 64.0384 260.163 67.413C260.004 67.8348 259.554 68.0457 259.157 67.8875C258.733 67.7293 258.521 67.2811 258.68 66.8857C260.163 62.6674 262.758 61.0592 264.558 61.6392C265.696 62.0083 266.756 63.3793 265.961 66.042C264.717 70.2076 261.116 78.9604 260.957 79.3295C260.798 79.6195 260.481 79.8041 260.189 79.8041Z" fill="#1E1E1E"/>
<path d="M255.794 76.6404C255.794 76.6404 263.128 60.1101 259.845 58.6338C256.853 57.2892 254.576 63.3266 250.816 74.9795" fill="white"/>
<path d="M255.794 77.4312C255.688 77.4312 255.582 77.4048 255.476 77.3521C255.079 77.1675 254.894 76.7194 255.079 76.2975C255.106 76.2448 256.906 72.132 258.309 67.9138C260.904 60.0573 259.58 59.3718 259.527 59.3455C259.21 59.1873 258.918 59.1873 258.627 59.3191C256.562 60.2419 254.206 67.0438 251.584 75.2166C251.452 75.6384 251.002 75.8494 250.578 75.7175C250.155 75.5857 249.943 75.1375 250.075 74.7157C253.623 63.7483 255.503 58.9764 257.992 57.8691C258.707 57.5527 259.448 57.5527 260.189 57.8955C262.069 58.7391 261.937 61.9819 259.819 68.4147C258.389 72.712 256.562 76.9039 256.535 76.9303C256.403 77.2466 256.112 77.4312 255.794 77.4312Z" fill="#1E1E1E"/>
<path d="M135.933 88.636L136.965 107.275C136.965 107.275 135.218 117.346 149.251 115.475C163.23 113.629 161.509 105.377 161.509 105.377L157.194 82.2031L135.933 88.636Z" fill="white"/>
<path d="M146.021 116.503C142.526 116.503 139.904 115.606 138.183 113.84C135.721 111.309 136.065 107.882 136.171 107.249L135.138 88.6887C135.112 88.3196 135.35 88.0032 135.694 87.8978L156.955 81.465C157.167 81.4122 157.406 81.4386 157.591 81.5441C157.776 81.6495 157.909 81.8604 157.962 82.0713L162.277 105.219C162.304 105.324 162.833 108.014 160.848 110.808C158.809 113.682 154.917 115.501 149.33 116.265C148.165 116.424 147.053 116.503 146.021 116.503ZM136.754 89.216L137.76 107.249C137.76 107.302 137.76 107.381 137.76 107.434C137.76 107.46 137.257 110.624 139.348 112.785C141.202 114.684 144.511 115.343 149.145 114.736C154.281 114.051 157.803 112.443 159.577 109.938C161.165 107.724 160.742 105.588 160.742 105.588L156.585 83.2841L136.754 89.216Z" fill="#1E1E1E"/>
<path d="M162.569 58.7391C162.569 58.7391 173.424 54.679 173.848 65.9365C174.271 77.1939 162.569 74.2675 162.569 74.2675" fill="white"/>
<path d="M165.719 75.4012C163.892 75.4012 162.516 75.0585 162.383 75.0321C161.96 74.9266 161.695 74.5048 161.801 74.083C161.907 73.6612 162.33 73.3975 162.754 73.503C162.807 73.503 167.838 74.7157 170.829 72.3166C172.418 71.0248 173.159 68.8893 173.054 65.9629C172.948 62.9574 172.047 60.8746 170.379 59.7673C167.414 57.79 162.886 59.451 162.833 59.451C162.436 59.6092 161.96 59.3982 161.801 58.9764C161.642 58.5546 161.854 58.1064 162.277 57.9482C162.489 57.8691 167.599 55.9973 171.253 58.4228C173.371 59.8201 174.51 62.3246 174.642 65.8574C174.775 69.3111 173.821 71.8948 171.809 73.503C169.982 75.0321 167.626 75.4012 165.719 75.4012Z" fill="#1E1E1E"/>
<path d="M134.556 41.0225H153.196C158.888 41.0225 163.522 45.6362 163.522 51.3044V73.0811C163.522 84.7867 153.99 94.2778 142.234 94.2778C130.479 94.2778 120.947 84.7867 120.947 73.0811V54.5736C120.92 47.1125 127.037 41.0225 134.556 41.0225Z" fill="white"/>
<path d="M142.208 95.095C130.028 95.095 120.126 85.2349 120.126 73.1074V54.6262C120.126 46.717 126.586 40.2578 134.556 40.2578H153.196C159.338 40.2578 164.316 45.2143 164.316 51.3307V73.1074C164.316 85.2349 154.414 95.095 142.208 95.095ZM134.556 41.8133C127.487 41.8133 121.715 47.5607 121.715 54.5998V73.081C121.715 84.3385 130.902 93.4868 142.208 93.4868C153.514 93.4868 162.701 84.3385 162.701 73.081V51.3043C162.701 46.0579 158.438 41.8133 153.169 41.8133H134.556Z" fill="#1E1E1E"/>
<path d="M168.473 83.1523C168.473 78.5385 168.049 73.9248 167.176 69.3902C167.176 69.3111 167.176 69.2057 167.176 69.1266C167.176 67.4657 165.825 66.1211 164.157 66.1211V69.1266L164.237 72.1321C164.846 72.1057 165.428 71.9212 165.931 71.5521C166.911 77.6158 168.844 95.7015 160.689 111.072C159.18 113.893 157.776 116.503 156.426 119.007C148.748 133.27 143.664 142.709 143.77 151.119C143.77 151.567 144.114 151.91 144.564 151.91C145.014 151.91 145.359 151.567 145.359 151.119C145.253 143.104 150.257 133.824 157.803 119.772C159.153 117.267 160.556 114.657 162.066 111.836C167.44 101.739 168.526 90.666 168.473 83.1523Z" fill="#8A2C5B"/>
<path d="M118.855 72.4485C119.226 72.6595 119.65 72.7913 120.073 72.8176V66.833C118.696 66.9648 117.558 68.0194 117.372 69.3903C117.293 69.5221 117.24 69.6803 117.24 69.8385C117.24 71.0512 117.24 99.4453 125.713 112.258C134.371 125.387 137.045 132.875 137.654 145.582C137.68 146.004 138.025 146.347 138.448 146.347H138.475C138.925 146.321 139.242 145.951 139.242 145.53C138.634 132.453 135.906 124.807 127.037 111.388C120.258 101.185 119.067 79.8568 118.855 72.4485Z" fill="#8A2C5B"/>
<path d="M136.859 78.6967C135.906 78.6967 135.403 77.9848 135.35 77.9058C135.271 77.7739 135.218 77.6157 135.218 77.4576L134.927 60.3473C134.927 59.8991 135.271 59.5564 135.721 59.5564C136.171 59.5564 136.515 59.8991 136.515 60.3473L136.78 77.0885C136.806 77.0885 136.859 77.1148 136.886 77.1148C136.992 77.1148 137.627 76.9567 138.607 75.1903C138.819 74.7948 139.295 74.663 139.692 74.8739C140.09 75.0848 140.222 75.5594 140.01 75.9548C139.031 77.7476 138.024 78.6439 136.992 78.6967C136.912 78.6967 136.886 78.6967 136.859 78.6967Z" fill="#1E1E1E"/>
<path d="M138.898 86.3423C138.501 86.3423 138.157 86.0259 138.104 85.6304C138.051 85.2086 138.369 84.8131 138.819 84.7604C141.043 84.5495 142.605 83.864 143.32 82.8095C143.585 82.414 143.717 81.9922 143.77 81.6231C140.222 83.5477 136.754 83.574 135.086 81.6495C134.794 81.3067 134.847 80.8058 135.165 80.5422C135.509 80.2522 136.012 80.3049 136.277 80.6213C137.548 82.0977 140.884 81.6758 144.008 79.6458C144.22 79.514 144.485 79.4876 144.723 79.5667C144.961 79.6458 145.147 79.8304 145.2 80.0676C145.226 80.1467 145.756 81.9658 144.617 83.6795C143.611 85.1822 141.705 86.0786 138.925 86.3423C138.951 86.3423 138.925 86.3423 138.898 86.3423Z" fill="#1E1E1E"/>
<path d="M142.473 55.6545C142.128 55.6545 141.784 55.4173 141.705 55.0482C141.625 54.7054 141.758 54.3891 142.023 54.2045C142.049 54.1782 142.075 54.1518 142.102 54.1254C144.803 51.4363 147.291 52.4118 148.907 53.73C149.251 53.9936 149.304 54.4945 149.039 54.8373C148.774 55.18 148.271 55.2327 147.927 54.9691C145.756 53.2291 144.273 54.2045 143.24 55.2591C143.055 55.4436 142.923 55.5755 142.658 55.6545C142.605 55.6545 142.526 55.6545 142.473 55.6545Z" fill="#1E1E1E"/>
<path d="M148.43 67.4392C149.161 67.4392 149.754 66.5303 149.754 65.4092C149.754 64.288 149.161 63.3792 148.43 63.3792C147.699 63.3792 147.106 64.288 147.106 65.4092C147.106 66.5303 147.699 67.4392 148.43 67.4392Z" fill="#1E1E1E"/>
<path d="M129.181 67.9665C129.912 67.9665 130.505 67.0577 130.505 65.9365C130.505 64.8154 129.912 63.9065 129.181 63.9065C128.45 63.9065 127.857 64.8154 127.857 65.9365C127.857 67.0577 128.45 67.9665 129.181 67.9665Z" fill="#1E1E1E"/>
<path d="M124.971 55.4964C124.601 55.4964 124.283 55.2327 124.204 54.8636C124.124 54.5473 124.283 54.2045 124.548 54.0463C124.574 54.02 124.601 53.9936 124.654 53.9409C125.183 53.3872 126.639 51.9636 128.466 52.069C129.605 52.1481 130.637 52.7809 131.564 53.9409C131.829 54.2836 131.776 54.7845 131.432 55.0482C131.088 55.3118 130.584 55.2591 130.32 54.9164C129.684 54.0991 129.022 53.6772 128.36 53.6509C127.222 53.5718 126.189 54.6264 125.766 55.0482C125.554 55.2591 125.395 55.4173 125.13 55.47C125.077 55.4964 125.024 55.4964 124.971 55.4964Z" fill="#1E1E1E"/>
<path d="M147.53 36.4088C142.367 36.4879 138.448 36.7252 136.118 37.1734C117.161 41.4707 120.232 55.4436 120.232 55.4436C120.232 55.4436 129.499 57.21 137.045 46.0844C137.045 46.0844 147.397 54.4945 162.727 57.8955C162.966 57.8428 163.257 57.7637 163.522 57.6846V58.4491C164.793 58.1064 166.09 57.9746 167.387 58.0537C167.229 52.5436 166.222 45.5835 161.668 41.1016C158.438 37.9116 153.672 36.3297 147.53 36.4088Z" fill="#1E1E1E"/>
<path d="M168.182 57.5C167.785 57.5 167.414 57.1836 167.387 56.7881C166.858 50.7508 165.64 36.5933 148.403 36.4087C144.538 36.356 140.593 36.5933 136.754 37.0415C136.33 37.0942 135.933 36.7778 135.88 36.356C135.827 35.9342 136.145 35.5387 136.568 35.486C140.487 35.0114 144.485 34.8005 148.43 34.8269C156.294 34.906 161.96 37.7269 165.322 43.2107C167.891 47.4025 168.605 52.1481 168.976 56.6299C169.003 57.0781 168.685 57.4472 168.261 57.4736C168.235 57.4736 168.208 57.5 168.182 57.5Z" fill="white"/>
<path d="M197.28 24.9405C190.74 6.32747 172.18 -4.13904 155.843 1.55559C142.42 6.22202 134.662 20.3795 135.933 35.5915C138.395 35.1697 142.261 34.9061 147.503 34.827C154.096 34.7479 159.232 36.4616 162.78 39.968C167.811 44.9244 168.844 52.4381 168.976 58.291C171.412 58.9501 173.662 60.9274 173.848 65.9102C173.874 66.4111 173.424 70.2866 173.53 70.2866C173.504 71.8157 173.927 73.3184 174.722 74.6103C176.548 77.5367 180.255 79.3558 185.762 79.9885H185.842C186.292 80.0149 186.663 79.6722 186.689 79.2504C186.716 78.8285 186.371 78.4331 185.948 78.4067C180.97 77.8267 177.634 76.2712 176.072 73.793C175.516 72.8966 175.198 71.8948 175.119 70.8666C176.469 72.4484 178.825 74.1621 182.559 74.1621C183.538 74.1621 184.518 74.0566 185.498 73.8457C185.921 73.7666 186.213 73.3712 186.16 72.923C186.08 72.5012 185.683 72.2112 185.233 72.2639C185.206 72.2639 185.18 72.2639 185.18 72.2639C180.361 73.2657 177.687 71.4466 176.284 69.812C177.369 69.5748 178.428 69.2847 179.487 68.9156C195.85 63.2474 203.793 43.5535 197.28 24.9405Z" fill="#1E1E1E"/>
<path d="M149.568 76.3766C143.796 76.3766 139.083 71.6838 139.083 65.9365C139.083 60.1891 143.796 55.4963 149.568 55.4963C155.34 55.4963 160.053 60.1891 160.053 65.9365C160.053 71.6838 155.367 76.3766 149.568 76.3766ZM149.568 57.0782C144.67 57.0782 140.672 61.0591 140.672 65.9365C140.672 70.8138 144.67 74.7948 149.568 74.7948C154.467 74.7948 158.465 70.8138 158.465 65.9365C158.465 61.0591 154.493 57.0782 149.568 57.0782Z" fill="#1E1E1E"/>
<path d="M139.666 66.4637H133.338C132.888 66.4637 132.544 66.1209 132.544 65.6728C132.544 65.2246 132.888 64.8818 133.338 64.8818H139.666C140.116 64.8818 140.46 65.2246 140.46 65.6728C140.46 66.1209 140.116 66.4637 139.666 66.4637Z" fill="#1E1E1E"/>
<path d="M158.041 62.0347C157.776 62.0347 157.485 61.9029 157.353 61.6392C157.141 61.2701 157.273 60.7692 157.644 60.5583L163.098 57.4737C163.469 57.2628 163.972 57.3946 164.184 57.7637C164.396 58.1328 164.263 58.6337 163.893 58.8446L158.438 61.9292C158.306 62.0083 158.173 62.0347 158.041 62.0347Z" fill="#1E1E1E"/>
<path d="M123.356 76.3766C117.584 76.3766 112.871 71.6838 112.871 65.9365C112.871 60.1891 117.584 55.4963 123.356 55.4963C129.128 55.4963 133.841 60.1891 133.841 65.9365C133.841 71.6838 129.128 76.3766 123.356 76.3766ZM123.356 57.0782C118.458 57.0782 114.46 61.0591 114.46 65.9365C114.46 70.8138 118.458 74.7948 123.356 74.7948C128.254 74.7948 132.253 70.8138 132.253 65.9365C132.253 61.0591 128.254 57.0782 123.356 57.0782Z" fill="#1E1E1E"/>
<path d="M189.999 176.085H184.492L181.791 136.197C181.553 133.349 179.196 131.161 176.363 131.135H99.6064C97.0117 131.108 94.8671 133.165 94.8406 135.748C94.8406 135.907 94.8406 136.065 94.867 136.197L97.859 180.356C98.0972 183.204 100.454 185.392 103.287 185.418L189.972 185.313C191.561 185.313 192.832 184.021 192.832 182.466V178.959C192.858 177.351 191.587 176.085 189.999 176.085Z" fill="#1E1E1E"/>
<path d="M143.399 157.499C142.287 156.365 140.884 155.601 139.322 155.311C139.587 154.941 139.719 154.52 139.772 154.098C139.904 152.674 138.898 151.382 137.495 151.145C137.468 151.145 137.442 151.145 137.416 151.145C137.124 150.064 136.568 148.271 135.906 147.507C135.668 147.217 135.244 147.138 134.9 147.296C134.635 147.428 134.556 147.77 134.688 148.008C134.715 148.06 134.741 148.087 134.794 148.14C135.218 148.64 135.721 150.196 136.039 151.382C135.297 151.778 134.794 152.516 134.741 153.36C134.688 154.151 134.953 154.915 135.483 155.495C135.006 155.653 134.556 155.838 134.132 156.102C131.379 157.815 131.035 161.19 133.365 163.694C135.695 166.199 139.851 166.805 142.605 165.092C145.359 163.378 145.756 159.977 143.399 157.499Z" fill="white"/>
<path d="M142.234 147.375C142.234 147.375 138.263 146.584 137.733 149.88C137.76 149.88 140.884 150.987 142.234 147.375Z" fill="white"/>
<path d="M267.206 187H10.7943C10.3442 187 10 186.657 10 186.209C10 185.761 10.3442 185.418 10.7943 185.418H267.206C267.656 185.418 268 185.761 268 186.209C268 186.657 267.656 187 267.206 187Z" fill="#1E1E1E"/>
</g>
<defs>
<clipPath id="clip0">
<rect width="268" height="187" fill="white"/>
</clipPath>
</defs>
</svg>
