<svg width="276" height="168" viewBox="0 0 276 168" fill="none" xmlns="http://www.w3.org/2000/svg">
<path d="M52.4356 105.99H37.0979V167.24H52.4356V105.99Z" fill="#4E2D5E"/>
<path d="M48.4639 111.207H40.2246V139.72H48.4639V111.207Z" fill="white"/>
<path d="M48.4639 140.924H40.2246V143.585H48.4639V140.924Z" fill="#8A2C5B"/>
<path d="M44.1963 160.249C42.2527 160.249 40.6682 158.665 40.6682 156.722C40.6682 154.779 42.2527 153.195 44.1963 153.195C46.1399 153.195 47.7244 154.779 47.7244 156.722C47.7244 158.665 46.1399 160.249 44.1963 160.249ZM44.1963 154.462C42.9498 154.462 41.9358 155.476 41.9358 156.722C41.9358 157.968 42.9498 158.982 44.1963 158.982C45.4427 158.982 46.4568 157.968 46.4568 156.722C46.4357 155.476 45.4216 154.462 44.1963 154.462Z" fill="white"/>
<path d="M47.5131 118.62H41.3865C41.0273 118.62 40.7527 118.346 40.7527 117.987C40.7527 117.628 41.0273 117.353 41.3865 117.353H47.5131C47.8722 117.353 48.1469 117.628 48.1469 117.987C48.1469 118.346 47.8722 118.62 47.5131 118.62Z" fill="#8A2C5B"/>
<path d="M47.5131 121.767H41.3865C41.0273 121.767 40.7527 121.493 40.7527 121.134C40.7527 120.775 41.0273 120.5 41.3865 120.5H47.5131C47.8722 120.5 48.1469 120.775 48.1469 121.134C48.1469 121.493 47.8722 121.767 47.5131 121.767Z" fill="#8A2C5B"/>
<path d="M47.5131 124.914H41.3865C41.0273 124.914 40.7527 124.64 40.7527 124.281C40.7527 123.922 41.0273 123.647 41.3865 123.647H47.5131C47.8722 123.647 48.1469 123.922 48.1469 124.281C48.1469 124.64 47.8722 124.914 47.5131 124.914Z" fill="#8A2C5B"/>
<path d="M67.6888 106.054H52.3511V167.303H67.6888V106.054Z" fill="#4E2D5E"/>
<path d="M63.738 111.271H55.4988V139.783H63.738V111.271Z" fill="white"/>
<path d="M63.738 140.987H55.4988V143.648H63.738V140.987Z" fill="#1E1E1E"/>
<path d="M59.4495 160.312C57.5059 160.312 55.9214 158.728 55.9214 156.785C55.9214 154.842 57.5059 153.258 59.4495 153.258C61.3931 153.258 62.9776 154.842 62.9776 156.785C62.9776 158.728 61.3931 160.312 59.4495 160.312ZM59.4495 154.525C58.203 154.525 57.189 155.539 57.189 156.785C57.189 158.031 58.203 159.045 59.4495 159.045C60.6959 159.045 61.71 158.031 61.71 156.785C61.71 155.539 60.6959 154.525 59.4495 154.525Z" fill="white"/>
<path d="M62.7029 131.757H56.5974C56.2383 131.757 55.9636 131.483 55.9636 131.124C55.9636 130.765 56.2383 130.49 56.5974 130.49H62.7029C63.0621 130.49 63.3367 130.765 63.3367 131.124C63.3367 131.483 63.0409 131.757 62.7029 131.757Z" fill="#1E1E1E"/>
<path d="M62.7029 115.558H56.5974C56.2383 115.558 55.9636 115.283 55.9636 114.924C55.9636 114.565 56.2383 114.291 56.5974 114.291H62.7029C63.0621 114.291 63.3367 114.565 63.3367 114.924C63.3367 115.283 63.0409 115.558 62.7029 115.558Z" fill="#1E1E1E"/>
<path d="M62.7029 134.904H56.5974C56.2383 134.904 55.9636 134.63 55.9636 134.271C55.9636 133.912 56.2383 133.637 56.5974 133.637H62.7029C63.0621 133.637 63.3367 133.912 63.3367 134.271C63.3367 134.63 63.0409 134.904 62.7029 134.904Z" fill="#1E1E1E"/>
<path d="M62.7029 138.03H56.5974C56.2383 138.03 55.9636 137.756 55.9636 137.397C55.9636 137.038 56.2383 136.763 56.5974 136.763H62.7029C63.0621 136.763 63.3367 137.038 63.3367 137.397C63.3367 137.756 63.0409 138.03 62.7029 138.03Z" fill="#1E1E1E"/>
<path d="M37.3091 106.054H21.9714V167.304H37.3091V106.054Z" fill="#4E2D5E"/>
<path d="M33.3584 111.271H25.1191V139.783H33.3584V111.271Z" fill="white"/>
<path d="M33.3584 140.987H25.1191V143.648H33.3584V140.987Z" fill="#8A2C5B"/>
<path d="M29.0698 160.312C27.1262 160.312 25.5417 158.728 25.5417 156.785C25.5417 154.842 27.1262 153.258 29.0698 153.258C31.0135 153.258 32.5979 154.842 32.5979 156.785C32.5979 158.728 31.0135 160.312 29.0698 160.312ZM29.0698 154.525C27.8234 154.525 26.8093 155.539 26.8093 156.785C26.8093 158.031 27.8234 159.045 29.0698 159.045C30.3163 159.045 31.3303 158.031 31.3303 156.785C31.3303 155.539 30.3163 154.525 29.0698 154.525Z" fill="white"/>
<path d="M32.3022 131.757H26.1755C25.8164 131.757 25.5417 131.483 25.5417 131.124C25.5417 130.765 25.8164 130.49 26.1755 130.49H32.3022C32.6613 130.49 32.936 130.765 32.936 131.124C32.936 131.483 32.6613 131.757 32.3022 131.757Z" fill="#1E1E1E"/>
<path d="M32.3022 115.558H26.1755C25.8164 115.558 25.5417 115.283 25.5417 114.924C25.5417 114.565 25.8164 114.291 26.1755 114.291H32.3022C32.6613 114.291 32.936 114.565 32.936 114.924C32.936 115.283 32.6613 115.558 32.3022 115.558Z" fill="#1E1E1E"/>
<path d="M32.3022 134.904H26.1755C25.8164 134.904 25.5417 134.63 25.5417 134.271C25.5417 133.912 25.8164 133.637 26.1755 133.637H32.3022C32.6613 133.637 32.936 133.912 32.936 134.271C32.936 134.63 32.6613 134.904 32.3022 134.904Z" fill="#1E1E1E"/>
<path d="M32.3022 138.03H26.1755C25.8164 138.03 25.5417 137.756 25.5417 137.397C25.5417 137.038 25.8164 136.763 26.1755 136.763H32.3022C32.6613 136.763 32.936 137.038 32.936 137.397C32.936 137.756 32.6613 138.03 32.3022 138.03Z" fill="#1E1E1E"/>
<path d="M54.3367 86.3906C54.4423 83.9195 53.6395 81.5117 52.0762 79.5898C49.4565 76.4006 49.4143 74.3519 47.9354 72.8312C46.4566 71.3105 44.1116 72.0075 46.2242 77.182C48.3368 82.3565 49.2452 84.5108 49.2452 84.5108L54.3367 86.3906Z" fill="white"/>
<path d="M54.3367 87.0241C54.2733 87.0241 54.1888 87.003 54.1255 86.9818L49.0551 85.1232C48.8861 85.0599 48.7594 84.9332 48.696 84.7853C48.696 84.7642 47.7664 82.5888 45.6749 77.4565C44.0905 73.5281 44.9778 72.2186 45.6538 71.7751C46.4355 71.2682 47.5552 71.5216 48.4214 72.4298C49.1608 73.1902 49.5622 74.0561 50.027 75.0488C50.5762 76.2104 51.1889 77.541 52.5832 79.2306C54.2522 81.2582 55.0973 83.8349 54.9916 86.4538C54.9916 86.665 54.886 86.834 54.717 86.9607C54.5691 86.9818 54.4635 87.0241 54.3367 87.0241ZM49.7312 84.025L53.7029 85.4823C53.5973 83.4758 52.879 81.5539 51.5903 79.991C50.1115 78.1746 49.4143 76.7173 48.865 75.5345C48.4214 74.6052 48.0833 73.8871 47.4918 73.2746C47.027 72.7889 46.5411 72.6621 46.3299 72.81C46.013 73.0212 45.6961 74.1617 46.8158 76.9496C48.5059 81.1103 49.4354 83.328 49.7312 84.025Z" fill="#1E1E1E"/>
<path d="M42.2312 79.0617C42.4636 79.0617 56.8506 78.3225 58.5618 92.5788Z" fill="white"/>
<path d="M58.5619 93.2124C58.245 93.2124 57.9704 92.9801 57.9281 92.6633C56.3648 79.6742 43.7102 79.6531 42.2947 79.6953H42.2524C41.8933 79.6953 41.6187 79.4208 41.6187 79.0617C41.6187 78.7238 41.8933 78.4281 42.2524 78.4281H42.2736C43.8369 78.3859 57.5056 78.3859 59.2168 92.4943C59.2591 92.8323 59.0056 93.1491 58.6676 93.1913C58.6042 93.2124 58.5831 93.2124 58.5619 93.2124Z" fill="#1E1E1E"/>
<path d="M51.9706 107.511C51.9706 107.511 50.196 96.9929 47.851 93.3391C45.506 89.6852 40.2878 89.9598 40.2878 89.9598C40.2878 89.9598 27.0205 78.1956 25.098 76.0836C23.1755 73.9715 23.9149 71.9439 27.3374 74.2883C30.7598 76.6327 41.0906 84.1305 41.0906 84.1305C41.0906 84.1305 58.2874 78.3012 61.0972 94.8175L64.2661 104.617L51.9706 107.511Z" fill="white"/>
<path d="M51.9706 108.145C51.8439 108.145 51.7171 108.102 51.6115 108.039C51.4636 107.933 51.358 107.786 51.3368 107.617C51.3157 107.511 49.5411 97.1831 47.3017 93.6771C45.1891 90.3823 40.3512 90.5935 40.3089 90.5935C40.1399 90.6146 39.9709 90.5512 39.8653 90.4245C39.316 89.9387 26.5557 78.6181 24.6332 76.4849C23.429 75.1543 23.091 73.8026 23.767 73.0423C24.1684 72.5776 25.2248 72.0496 27.7177 73.7604C30.8232 75.8936 39.5906 82.2508 41.2174 83.4336C42.823 82.9478 49.9003 81.1103 55.4565 84.4263C58.7733 86.4116 60.8859 89.8542 61.7099 94.6697L64.8577 104.427C64.921 104.596 64.8999 104.786 64.8154 104.934C64.7309 105.082 64.583 105.209 64.414 105.23L52.1185 108.102C52.0551 108.145 52.0129 108.145 51.9706 108.145ZM40.5624 89.3262C41.7666 89.3262 46.182 89.5797 48.3792 93.0012C50.4495 96.2115 52.034 104.343 52.4777 106.751L63.4633 104.174L60.5057 95.0288C60.5057 95.0077 60.4845 94.9654 60.4845 94.9443C59.724 90.4879 57.8226 87.3198 54.8227 85.5245C49.1608 82.1452 41.3864 84.7008 41.323 84.7431C41.1329 84.8064 40.9216 84.7853 40.7526 84.6586C40.6469 84.5741 30.4007 77.1608 27.0205 74.8164C25.4994 73.7815 24.8234 73.8238 24.7389 73.9082C24.6755 73.9927 24.6966 74.6897 25.605 75.6612C27.3585 77.6043 38.9357 87.89 40.5624 89.3262C40.5413 89.3262 40.5624 89.3262 40.5624 89.3262Z" fill="#1E1E1E"/>
<path d="M40.0766 89.4529C40.0766 89.4529 33.2528 74.3306 32.2387 71.4793C31.2247 68.6281 32.5979 67.1285 34.9218 70.9091C37.2457 74.6896 42.5061 83.4547 42.5061 83.4547" fill="white"/>
<path d="M40.0766 90.0866C39.8442 90.0866 39.6118 89.9388 39.5062 89.7064C39.2316 89.0939 32.6613 74.5208 31.6472 71.6695C31.0134 69.9165 31.1825 68.5225 32.0698 68.1001C32.7458 67.7833 33.8655 67.9523 35.4711 70.5501C37.7739 74.2884 43.0132 83.0112 43.0554 83.0957C43.2456 83.3914 43.1399 83.7927 42.8442 83.9616C42.5484 84.1517 42.147 84.0461 41.978 83.7504C41.9357 83.666 36.6753 74.9432 34.3937 71.2048C33.4641 69.6842 32.8303 69.2829 32.6402 69.2406C32.5345 69.4096 32.45 70.0643 32.8514 71.226C33.8444 74.0139 40.6048 89.0095 40.6682 89.1573C40.816 89.4741 40.6682 89.8543 40.3513 90.0021C40.2456 90.0655 40.1611 90.0866 40.0766 90.0866Z" fill="#1E1E1E"/>
<path d="M39.4216 88.2282C39.4216 88.2282 38.8723 75.239 38.8723 72.7257C38.8723 68.5861 41.3652 67.4033 41.999 73.0002C42.4215 76.7386 42.9074 83.6028 42.9074 83.6028" fill="white"/>
<path d="M39.4216 88.8616C39.0836 88.8616 38.8089 88.5871 38.7878 88.2491C38.7667 87.7211 38.2385 75.2178 38.2385 72.7255C38.2385 70.2967 39.0413 68.6282 40.2244 68.5648C40.9427 68.5226 42.1891 69.0294 42.6328 72.9156C43.0553 76.6117 43.5412 83.4759 43.5412 83.5604C43.5623 83.9194 43.3088 84.2151 42.9497 84.2362C42.5905 84.2574 42.2948 84.0039 42.2736 83.6449C42.2736 83.5815 41.7877 76.7384 41.3652 73.0635C41.0694 70.5079 40.4357 69.8531 40.2878 69.832C40.1188 69.8743 39.5061 70.6769 39.5061 72.7255C39.5061 75.1966 40.0343 88.059 40.0554 88.1858C40.0765 88.5448 39.8019 88.8405 39.4427 88.8405C39.4427 88.8616 39.4427 88.8616 39.4216 88.8616Z" fill="#1E1E1E"/>
<path d="M235.114 86.3903C235.009 83.9192 235.812 81.5115 237.375 79.5895C239.995 76.4003 240.037 74.3516 241.516 72.8309C242.995 71.3103 245.34 72.0072 243.227 77.1818C241.114 82.3563 240.185 84.5106 240.185 84.5106L235.114 86.3903Z" fill="white"/>
<path d="M235.114 87.0239C234.988 87.0239 234.861 86.9816 234.755 86.9183C234.586 86.8127 234.481 86.6226 234.481 86.4114C234.354 83.7924 235.22 81.2157 236.868 79.1882C238.262 77.4985 238.875 76.1679 239.424 75.0063C239.889 74.0136 240.29 73.1477 241.03 72.3873C241.896 71.4792 243.016 71.2257 243.797 71.7326C244.473 72.1761 245.382 73.5067 243.776 77.414C241.685 82.5463 240.755 84.7217 240.734 84.7429C240.671 84.9118 240.544 85.0174 240.375 85.0808L235.305 86.9394C235.262 87.0028 235.199 87.0239 235.114 87.0239ZM242.931 72.7675C242.678 72.7675 242.319 72.9153 241.981 73.2955C241.389 73.908 241.03 74.6472 240.607 75.5765C240.058 76.7593 239.361 78.2166 237.882 80.033C236.593 81.5959 235.875 83.5179 235.769 85.5243L239.741 84.067C240.037 83.37 240.966 81.1524 242.657 77.0127C243.797 74.2248 243.481 73.0843 243.164 72.8731C243.079 72.7886 243.016 72.7675 242.931 72.7675Z" fill="#1E1E1E"/>
<path d="M247.199 79.0617C246.966 79.0617 232.579 78.3225 230.868 92.5788Z" fill="white"/>
<path d="M230.889 93.2124C230.868 93.2124 230.847 93.2124 230.805 93.2124C230.467 93.1701 230.213 92.8533 230.255 92.5154C231.945 78.4069 245.635 78.3858 247.199 78.4491H247.22C247.558 78.4491 247.854 78.7448 247.854 79.0827C247.854 79.4207 247.579 79.7164 247.22 79.7164H247.178C245.741 79.6741 233.086 79.6741 231.544 92.6844C231.46 92.98 231.206 93.2124 230.889 93.2124Z" fill="#1E1E1E"/>
<path d="M237.481 107.511C237.481 107.511 239.255 96.9929 241.6 93.3391C243.945 89.6852 249.163 89.9598 249.163 89.9598C249.163 89.9598 262.431 78.1956 264.353 76.0836C266.276 73.9715 265.536 71.9439 262.114 74.2883C258.691 76.6327 248.361 84.1305 248.361 84.1305C248.361 84.1305 231.164 78.3012 228.354 94.8175L225.185 104.617L237.481 107.511Z" fill="white"/>
<path d="M237.481 108.144C237.438 108.144 237.375 108.144 237.333 108.123L225.037 105.251C224.868 105.209 224.72 105.103 224.636 104.955C224.551 104.807 224.53 104.617 224.593 104.448L227.741 94.6907C228.565 89.8752 230.678 86.4326 233.995 84.4473C239.551 81.1313 246.649 82.9688 248.234 83.4546C249.86 82.2718 258.649 75.9146 261.733 73.7814C264.205 72.0706 265.262 72.5986 265.684 73.0633C266.36 73.8236 266.022 75.1753 264.818 76.5059C262.895 78.6391 250.114 89.9597 249.586 90.4455C249.459 90.5511 249.29 90.6144 249.142 90.6144C249.1 90.6144 244.262 90.4032 242.149 93.698C239.91 97.204 238.135 107.532 238.114 107.638C238.093 107.807 237.988 107.954 237.84 108.06C237.734 108.123 237.607 108.144 237.481 108.144ZM225.988 104.174L236.973 106.751C237.417 104.343 239.002 96.2325 241.072 93.0011C243.269 89.5584 247.684 89.3261 248.889 89.3261C248.91 89.3261 248.91 89.3261 248.931 89.3261C250.537 87.8899 262.135 77.6042 263.888 75.6611C264.776 74.6685 264.818 73.9926 264.755 73.9081C264.67 73.8448 263.994 73.7814 262.473 74.8374C259.093 77.1607 248.846 84.5951 248.741 84.6796C248.572 84.8063 248.361 84.8274 248.17 84.7641C248.086 84.7429 240.311 82.1662 234.65 85.5455C231.65 87.3408 229.748 90.5088 228.988 94.9653C228.988 94.9864 228.967 95.0286 228.967 95.0498L225.988 104.174Z" fill="#1E1E1E"/>
<path d="M249.375 89.4529C249.375 89.4529 256.199 74.3306 257.213 71.4793C258.227 68.6281 256.854 67.1285 254.53 70.9091C252.206 74.6896 246.945 83.4547 246.945 83.4547" fill="white"/>
<path d="M249.375 90.0864C249.29 90.0864 249.206 90.0653 249.121 90.0231C248.804 89.8752 248.656 89.4951 248.804 89.1783C248.868 89.0304 255.628 74.0349 256.621 71.2469C257.044 70.0853 256.938 69.4306 256.832 69.2616C256.642 69.3039 256.008 69.7051 255.079 71.2258C252.797 74.9642 247.558 83.6869 247.494 83.7714C247.304 84.0671 246.924 84.1727 246.628 83.9826C246.333 83.7925 246.227 83.4124 246.417 83.1167C246.48 83.0322 251.72 74.3094 254.001 70.5711C255.586 67.9733 256.727 67.8043 257.382 68.1211C258.269 68.5435 258.438 69.9375 257.804 71.6905C256.79 74.5417 250.241 89.0938 249.945 89.7274C249.861 89.9386 249.628 90.0864 249.375 90.0864Z" fill="#1E1E1E"/>
<path d="M250.03 88.2279C250.03 88.2279 250.579 75.2388 250.579 72.7254C250.579 68.5858 248.086 67.4031 247.452 73C247.03 76.7383 246.544 83.6025 246.544 83.6025" fill="white"/>
<path d="M250.03 88.8615H250.008C249.649 88.8404 249.396 88.5447 249.396 88.2068C249.396 88.08 249.945 75.2176 249.945 72.7465C249.945 70.6978 249.311 69.8953 249.142 69.853C248.994 69.8741 248.361 70.5289 248.065 73.0845C247.642 76.7594 247.177 83.6025 247.177 83.6659C247.156 84.0249 246.861 84.2784 246.501 84.2572C246.142 84.2361 245.889 83.9404 245.91 83.5814C245.91 83.518 246.396 76.6538 246.818 72.9366C247.262 69.0504 248.508 68.5436 249.227 68.5858C250.41 68.6492 251.213 70.3177 251.213 72.7465C251.213 75.2388 250.684 87.7421 250.663 88.2701C250.642 88.6081 250.368 88.8615 250.03 88.8615Z" fill="#1E1E1E"/>
<path d="M241.431 101.872C241.706 98.6402 241.283 97.3519 241.283 97.3519C233.847 98.1333 227.889 91.0368 227.889 91.0368C227.889 91.0368 227.171 91.8394 225.185 94.4161C223.199 96.9928 219.397 94.0782 217.136 97.7743C215.319 100.773 208.897 116.445 206.488 122.337C199.2 100.689 189.82 89.6851 174.524 86.8972C172.538 74.8163 163.919 59.5039 129.652 62.1651C108.357 66.009 101.871 76.9283 103.329 88.439H103.223C103.223 88.439 89.4275 88.2489 81.7164 111.186C79.4559 105.863 77.1532 100.647 76.1602 99.0204C73.9208 95.3243 66.252 96.9928 64.245 94.4161C62.238 91.8394 61.5408 91.0368 61.5408 91.0368C61.5408 91.0368 55.5832 98.1545 48.1468 97.3519C48.1468 97.3519 47.7242 98.6402 47.9989 101.872C48.2735 105.103 44.344 105.462 45.2313 109.707C46.0975 113.931 59.9564 151.843 59.9564 151.843C61.2662 155.37 62.9774 166.395 70.1392 166.775C70.1815 166.881 70.266 166.944 70.3928 166.965C81.7376 166.923 220.432 167.05 220.432 167.05C220.432 167.05 220.453 166.902 220.453 166.627C226.643 165.17 228.227 155.18 229.474 151.843C229.474 151.843 243.311 113.931 244.199 109.707C245.065 105.462 241.157 105.103 241.431 101.872Z" fill="#8A2C5B"/>
<path d="M241.494 101.344C242.023 97.9645 241.368 96.6972 241.368 96.6972C234.586 98.1757 228.312 90.4456 228.312 90.4456C228.312 90.4456 227.467 91.1848 225.438 94.036C224.615 95.1766 223.791 95.3033 222.946 95.5356C225.755 104.702 238.98 105.969 243.586 106.096C243.227 104.111 241.093 103.92 241.494 101.344Z" fill="#1E1E1E"/>
<path d="M47.9355 101.386C47.4074 98.0066 48.0834 96.7182 48.0834 96.7182C54.865 98.1967 61.1606 90.4666 61.1606 90.4666C61.1606 90.4666 62.1747 90.5722 64.2239 93.4234C65.0478 94.5639 66.4422 95.5355 67.2872 95.7678C64.4774 104.934 50.3651 106.18 45.7595 106.286C46.0764 104.301 48.3369 103.941 47.9355 101.386Z" fill="#1E1E1E"/>
<path d="M103.265 87.7209C99.1457 88.5658 94.857 90.7412 91.0754 94.923C94.6035 100.013 106.899 117.353 129.568 121.028C129.546 120.88 129.525 120.711 129.462 120.563C116.892 115.41 104.596 101.069 103.265 87.7209Z" fill="#1E1E1E"/>
<path d="M174.524 86.8127C175.306 91.5015 175.095 95.7256 174.989 98.2178C174.63 106.434 170.954 112.179 168.63 116.276L168.461 120.479C178.052 118.219 185.573 100.478 186.862 91.755C183.461 89.8752 182.848 88.5024 174.524 86.8127Z" fill="#1E1E1E"/>
<path d="M137.997 142.402C137.574 142.402 137.194 142.085 137.152 141.641C136.222 132.01 127.307 116.508 127.222 116.36C126.99 115.959 127.117 115.431 127.539 115.198C127.941 114.966 128.469 115.093 128.701 115.515C129.082 116.17 137.912 131.504 138.863 141.494C138.905 141.958 138.567 142.381 138.102 142.423C138.06 142.402 138.018 142.402 137.997 142.402Z" fill="#1E1E1E"/>
<path d="M163.982 141.24C163.56 141.24 163.179 140.923 163.137 140.48C162.081 130.532 166.2 115.389 166.39 114.734C166.517 114.29 166.982 114.016 167.426 114.143C167.869 114.269 168.144 114.734 168.017 115.177C167.975 115.325 163.813 130.659 164.827 140.29C164.869 140.754 164.531 141.177 164.067 141.219C164.045 141.24 164.003 141.24 163.982 141.24Z" fill="#1E1E1E"/>
<path d="M91.35 134.102C91.1176 134.102 90.8852 133.975 90.7796 133.742C87.7374 127.28 80.6601 112.242 80.5545 111.946C80.4488 111.608 80.6178 111.249 80.9559 111.143C81.2728 111.038 81.6319 111.207 81.7375 111.524C81.991 112.136 89.1529 127.364 91.9204 133.193C92.0683 133.51 91.9415 133.89 91.6246 134.038C91.5401 134.08 91.4556 134.102 91.35 134.102Z" fill="#1E1E1E"/>
<path d="M200.108 135.495C200.003 135.495 199.897 135.474 199.791 135.411C199.496 135.242 199.39 134.841 199.559 134.545L206.488 122.506C206.657 122.211 207.059 122.105 207.355 122.274C207.65 122.443 207.756 122.844 207.587 123.14L200.657 135.179C200.531 135.39 200.319 135.495 200.108 135.495Z" fill="#1E1E1E"/>
<path d="M101.512 167.768C101.406 167.768 101.279 167.768 101.174 167.768C100.815 167.746 100.561 167.451 100.561 167.113C100.582 166.754 100.878 166.5 101.216 166.5C109.476 166.88 110.385 150.47 110.385 150.301C110.406 149.942 110.702 149.688 111.04 149.709C111.399 149.731 111.652 150.026 111.631 150.364C111.61 151.061 110.702 167.768 101.512 167.768Z" fill="#1E1E1E"/>
<path d="M162.123 167.092C160.243 152.582 158.257 131.102 161.32 122.021C166.158 107.722 164.278 89.7485 161.003 87.1506C157.729 84.5528 121.666 85.0597 121.666 85.0597L115.18 87.2985C115.18 87.2985 139.856 110.235 147.187 152.054C148.328 158.623 149.109 163.776 149.616 167.81" fill="white"/>
<path d="M127.286 72.8733L126.758 82.0185L121.371 85.7357C121.371 85.7357 135.483 95.5145 148.095 110.088C148.095 110.088 155.849 104.617 157.644 87.2775L153.588 86.6439L134.152 75.1332L127.286 72.8733Z" fill="white"/>
<path d="M148.117 110.742C147.947 110.742 147.757 110.658 147.631 110.531C135.208 96.1693 121.159 86.3694 121.011 86.2849C120.842 86.1582 120.737 85.9681 120.737 85.7569C120.737 85.5457 120.842 85.3556 121.011 85.2289L126.145 81.7017L126.652 72.8522C126.673 72.6621 126.758 72.4721 126.927 72.3664C127.096 72.2608 127.286 72.2186 127.476 72.282L134.363 74.5419C134.406 74.563 134.448 74.5841 134.49 74.6052L153.821 86.0526L157.75 86.6651C158.088 86.7073 158.321 87.0241 158.278 87.362C156.461 104.786 148.793 110.383 148.455 110.616C148.37 110.7 148.243 110.742 148.117 110.742ZM122.49 85.7569C125.532 87.9534 137.405 96.8874 148.18 109.222C149.785 107.764 155.363 101.808 156.968 87.8267L153.504 87.2775C153.419 87.2564 153.356 87.2353 153.271 87.1931L133.899 75.7246L127.878 73.7393L127.413 82.0608C127.392 82.2509 127.307 82.4409 127.138 82.5466L122.49 85.7569Z" fill="#1E1E1E"/>
<path d="M121.18 56.1879C121.18 56.1879 112.857 57.3284 115.223 64.7417C117.589 72.155 126.314 66.6848 126.314 66.6848L123.842 56.04L121.18 56.1879Z" fill="white"/>
<path d="M120.187 69.2615C119.469 69.2615 118.751 69.1559 118.054 68.9025C116.406 68.3111 115.244 66.9594 114.61 64.9318C113.892 62.6508 114.04 60.6866 115.054 59.0815C116.892 56.1668 120.927 55.5754 121.096 55.5543C121.117 55.5543 121.138 55.5543 121.159 55.5543L123.8 55.4065C124.117 55.3854 124.37 55.5966 124.455 55.8923L126.927 66.537C126.99 66.7904 126.884 67.065 126.652 67.2129C126.483 67.3185 123.335 69.2615 120.187 69.2615ZM121.244 56.8004C120.927 56.8427 117.568 57.4341 116.11 59.7573C115.307 61.0245 115.202 62.6297 115.814 64.5305C116.342 66.1779 117.23 67.234 118.497 67.6986C121.054 68.6279 124.434 66.9805 125.575 66.3469L123.335 56.6737L121.244 56.8004Z" fill="#1E1E1E"/>
<path d="M140.997 26.5559C143.173 26.1123 158.13 23.3667 161.236 35.9545C164.341 48.5423 164.172 62.8409 163.517 69.4516C162.862 76.0624 133.666 76.4848 131.976 76.1046C130.286 75.7244 128.11 74.0137 128.11 74.0137L121.92 54.8574C121.92 54.8574 117.589 31.3502 140.997 26.5559Z" fill="white"/>
<path d="M134.574 76.8228C133.138 76.8228 132.145 76.7806 131.828 76.7172C130.011 76.316 127.793 74.5841 127.708 74.4996C127.603 74.4151 127.539 74.3095 127.497 74.2039L121.307 55.0687C121.307 55.0476 121.286 55.0053 121.286 54.9842C121.244 54.7308 120.208 48.8804 122.068 42.333C123.8 36.2503 128.469 28.478 140.87 25.9435C143.828 25.3521 158.701 22.9866 161.87 35.8068C165.06 48.6903 164.806 63.0523 164.172 69.5151C164.067 70.5078 163.454 71.416 162.355 72.2186C158.975 74.6474 151.201 75.7879 145.285 76.316C141.166 76.6961 137.152 76.8228 134.574 76.8228ZM128.659 73.6125C129.166 73.9927 130.835 75.1754 132.124 75.4711C133.518 75.7879 155.722 75.4289 161.616 71.1837C162.419 70.6134 162.841 70.0009 162.905 69.3884C163.538 63.01 163.771 48.817 160.644 36.1025C159.398 31.0758 156.039 28.0133 150.673 26.9995C146.637 26.2392 142.666 26.8728 141.145 27.1896C131.68 29.1327 125.68 34.3283 123.314 42.6921C121.603 48.6903 122.469 54.2028 122.553 54.7308L128.659 73.6125Z" fill="#1E1E1E"/>
<path d="M124.624 54.3506C126.187 55.5967 130.856 63.2635 132.187 66.9384C132.187 66.9384 141.081 62.6721 154.306 60.898C154.306 60.898 161.553 60.201 164.531 60.729C164.531 60.729 165.44 74.2039 160.369 81.8284C155.299 89.4529 142.687 88.9883 136.412 85.5034C130.138 82.0185 128.934 80.1388 127.074 75.8302C125.215 71.5216 119.786 55.3221 119.786 55.3221L124.624 54.3506Z" fill="#A7A9AC"/>
<path d="M121.18 57.6665C121.18 57.6665 116.575 51.9639 114.335 45.7122C112.223 39.8407 114.272 33.2089 119.469 29.8719C123.8 27.0839 127.413 28.4568 127.413 28.4568C127.413 28.4568 121.582 20.5788 128.067 12.2785C130.349 9.36383 133.729 7.50522 137.405 7.16729C146.363 6.40695 149.997 13.7569 149.997 13.7569C149.997 13.7569 157.56 -5.20934 178.348 3.09103C180.44 3.93585 182.996 6.63928 184.306 8.519C192.144 19.903 172.412 36.736 161.426 39.1649C149.363 41.8261 141.99 40.6011 137.722 38.0244C140.849 39.4817 139.645 58.4057 121.18 57.6665Z" fill="#1E1E1E"/>
<path d="M152.088 65.6499C151.708 65.6499 151.349 65.3754 151.264 64.9952C151.159 64.5305 151.454 64.087 151.898 63.9814L154.475 63.39L152.004 52.7031C151.898 52.2384 152.173 51.7949 152.637 51.6893C153.102 51.5837 153.546 51.8583 153.651 52.3229L156.313 63.8336C156.356 64.0448 156.334 64.2771 156.208 64.4672C156.081 64.6573 155.891 64.784 155.68 64.8474L152.278 65.6288C152.194 65.6499 152.13 65.6499 152.088 65.6499Z" fill="#1E1E1E"/>
<path d="M157.363 57.1511C158.013 57.0786 158.447 56.1928 158.333 55.1727C158.219 54.1525 157.6 53.3844 156.95 53.457C156.301 53.5295 155.867 54.4153 155.981 55.4355C156.095 56.4556 156.714 57.2237 157.363 57.1511Z" fill="#1E1E1E"/>
<path d="M146.102 57.8897C146.751 57.8171 147.185 56.9313 147.071 55.9112C146.957 54.8911 146.338 54.1229 145.689 54.1955C145.04 54.2681 144.606 55.1539 144.72 56.174C144.834 57.1941 145.453 57.9622 146.102 57.8897Z" fill="#1E1E1E"/>
<path d="M141.715 53.8858C141.271 53.8858 140.891 53.5479 140.87 53.0833C140.849 52.6186 141.187 52.2173 141.673 52.1962C141.736 52.1962 145.687 51.9005 145.645 49.5561C145.645 49.0915 146.004 48.7113 146.469 48.6902C146.933 48.6902 147.314 49.0492 147.335 49.5139C147.398 52.7031 143.722 53.7591 141.779 53.8858C141.757 53.8858 141.736 53.8858 141.715 53.8858Z" fill="#1E1E1E"/>
<path d="M159.884 47.1484C159.546 47.1484 159.25 46.9583 159.102 46.6415C158.341 44.8463 156.144 45.6277 155.891 45.7333C155.447 45.9023 154.961 45.6911 154.792 45.2475C154.623 44.804 154.834 44.3182 155.278 44.1493C156.63 43.6213 159.503 43.3045 160.665 45.9656C160.855 46.3881 160.644 46.895 160.222 47.085C160.095 47.1273 159.989 47.1484 159.884 47.1484Z" fill="#1E1E1E"/>
<path d="M149.109 74.4149C146.215 74.4149 145.011 72.8309 144.525 71.8171C144.313 71.3947 144.356 70.93 144.63 70.5288C145.011 69.9585 145.813 69.6206 146.68 69.6417C148.349 69.7262 150.018 69.6206 151.665 69.3038C152.447 69.1559 153.271 69.3249 153.82 69.7684C154.179 70.0641 154.37 70.4443 154.37 70.8456C154.37 71.965 153.841 73.908 150.144 74.3516C149.785 74.3938 149.447 74.4149 149.109 74.4149ZM145.687 71.268C146.384 72.7464 147.842 73.3589 150.018 73.1055C152.088 72.852 153.123 72.1128 153.123 70.8667C153.123 70.8667 153.102 70.8244 153.039 70.7611C152.827 70.5921 152.384 70.4654 151.94 70.571C150.208 70.8878 148.433 71.0145 146.658 70.93C146.046 70.9089 145.687 71.1624 145.687 71.268Z" fill="#1E1E1E"/>
<path d="M254.108 151.455H189.187V166.789H254.108V151.455Z" fill="#1E1E1E"/>
<path d="M252.359 155.466L223.838 155.6L223.877 163.837L252.397 163.703L252.359 155.466Z" fill="white"/>
<path d="M222.634 155.611L219.972 155.624L220.011 163.861L222.673 163.848L222.634 155.611Z" fill="#8A2C5B"/>
<path d="M202.919 163.578C200.976 163.578 199.391 161.994 199.391 160.051C199.391 158.108 200.976 156.524 202.919 156.524C204.863 156.524 206.447 158.108 206.447 160.051C206.447 161.994 204.863 163.578 202.919 163.578ZM202.919 157.791C201.673 157.791 200.659 158.805 200.659 160.051C200.659 161.297 201.673 162.311 202.919 162.311C204.166 162.311 205.18 161.297 205.18 160.051C205.18 158.805 204.166 157.791 202.919 157.791Z" fill="white"/>
<path d="M245.615 163.431C245.256 163.431 244.982 163.156 244.982 162.797L244.96 156.672C244.96 156.313 245.235 156.038 245.594 156.038C245.953 156.038 246.228 156.313 246.228 156.672L246.249 162.797C246.249 163.135 245.975 163.431 245.615 163.431Z" fill="#8A2C5B"/>
<path d="M242.467 163.452C242.108 163.452 241.834 163.177 241.834 162.818L241.812 156.693C241.812 156.334 242.087 156.059 242.446 156.059C242.805 156.059 243.08 156.334 243.08 156.693L243.101 162.818C243.101 163.156 242.827 163.452 242.467 163.452Z" fill="#8A2C5B"/>
<path d="M239.32 163.452C238.961 163.452 238.686 163.177 238.686 162.818L238.665 156.693C238.665 156.334 238.939 156.059 239.299 156.059C239.658 156.059 239.932 156.334 239.932 156.693L239.954 162.818C239.954 163.177 239.679 163.452 239.32 163.452Z" fill="#8A2C5B"/>
<path d="M260.932 137.072H199.666V153.187H260.932V137.072Z" fill="#1E1E1E"/>
<path d="M255.714 140.219H227.193V148.456H255.714V140.219Z" fill="white"/>
<path d="M225.989 140.219H223.327V148.456H225.989V140.219Z" fill="#8A2C5B"/>
<path d="M210.187 147.696C208.243 147.696 206.658 146.112 206.658 144.168C206.658 142.225 208.243 140.641 210.187 140.641C212.13 140.641 213.715 142.225 213.715 144.168C213.715 146.112 212.13 147.696 210.187 147.696ZM210.187 141.93C208.94 141.93 207.926 142.943 207.926 144.19C207.926 145.436 208.94 146.449 210.187 146.449C211.433 146.449 212.447 145.436 212.447 144.19C212.447 142.943 211.433 141.93 210.187 141.93Z" fill="white"/>
<path d="M235.855 148.055C235.496 148.055 235.221 147.78 235.221 147.421V141.296C235.221 140.937 235.496 140.663 235.855 140.663C236.214 140.663 236.489 140.937 236.489 141.296V147.421C236.489 147.759 236.193 148.055 235.855 148.055Z" fill="#8A2C5B"/>
<path d="M252.059 148.055C251.7 148.055 251.425 147.78 251.425 147.421V141.296C251.425 140.937 251.7 140.663 252.059 140.663C252.418 140.663 252.693 140.937 252.693 141.296V147.421C252.693 147.759 252.418 148.055 252.059 148.055Z" fill="#8A2C5B"/>
<path d="M232.707 148.055C232.348 148.055 232.073 147.78 232.073 147.421V141.296C232.073 140.937 232.348 140.663 232.707 140.663C233.066 140.663 233.341 140.937 233.341 141.296V147.421C233.341 147.759 233.066 148.055 232.707 148.055Z" fill="#8A2C5B"/>
<path d="M229.581 148.055C229.221 148.055 228.947 147.78 228.947 147.421V141.296C228.947 140.937 229.221 140.663 229.581 140.663C229.94 140.663 230.214 140.937 230.214 141.296V147.421C230.214 147.759 229.919 148.055 229.581 148.055Z" fill="#8A2C5B"/>
<path d="M274.895 168H0.845052C0.380273 168 0 167.62 0 167.155C0 166.691 0.380273 166.311 0.845052 166.311H274.895C275.359 166.311 275.74 166.691 275.74 167.155C275.74 167.62 275.359 168 274.895 168Z" fill="#1E1E1E"/>
</svg>
