<svg width="248" height="174" viewBox="0 0 248 174" fill="none" xmlns="http://www.w3.org/2000/svg">
<g clip-path="url(#clip0)">
<path d="M171.242 118.446C171.679 118.446 172.072 118.12 172.115 117.664C172.487 114.061 175.019 106.484 175.041 106.397C175.194 105.941 174.954 105.442 174.495 105.29C174.037 105.138 173.535 105.377 173.382 105.833C173.273 106.158 170.762 113.692 170.369 117.469C170.325 117.947 170.675 118.381 171.155 118.424C171.177 118.446 171.22 118.446 171.242 118.446Z" fill="#1E1E1E"/>
<path d="M142.076 118.772C142.534 118.772 142.906 118.424 142.949 117.968C143.342 113.106 143.429 108.156 143.189 103.293C143.168 102.815 142.753 102.446 142.272 102.468C141.792 102.49 141.421 102.902 141.443 103.38C141.683 108.178 141.596 113.04 141.203 117.838C141.159 118.316 141.53 118.728 142.01 118.772C142.032 118.772 142.054 118.772 142.076 118.772Z" fill="#1E1E1E"/>
<path d="M108.653 93.0896C115.377 93.0896 117.101 85.0354 117.931 81.1494C118.106 80.3679 118.28 79.4778 118.411 79.2607C118.629 79.0002 118.629 78.6095 118.368 78.3707C118.106 78.1101 117.691 78.1319 117.451 78.3924C117.123 78.718 116.992 79.3476 116.643 80.8889C115.813 84.7098 114.307 91.8087 108.631 91.8087C108.587 91.8087 108.544 91.8087 108.5 91.8087C108.5 91.8087 108.5 91.8087 108.478 91.8087C108.129 91.8087 107.823 92.0909 107.823 92.4383C107.823 92.8073 108.107 93.0896 108.456 93.1113C108.544 93.0896 108.587 93.0896 108.653 93.0896Z" fill="#1E1E1E"/>
<path d="M206.15 82.7776C209.73 84.3407 214.882 87.4017 219.03 93.7191C213.18 91.3311 193.073 109.219 178.796 105.16C185.454 104.465 199.644 94.1098 206.15 82.7776Z" fill="#1E1E1E"/>
<path d="M209.97 174C219.314 173.848 227.064 172.372 233.068 169.658C238.765 167.075 242.87 163.341 245.315 158.586C248.327 152.66 248.699 145.322 246.406 136.747C244.223 128.584 239.748 119.727 233.133 110.414C219.03 90.6364 211.346 84.7097 207.242 83.494C210.32 77.9364 211.127 72.7045 209.643 67.9067C207.896 62.2406 202.919 57.4211 194.863 53.622C194.536 53.4701 194.143 53.6003 193.99 53.9259C193.837 54.2516 193.968 54.6424 194.296 54.7943C202.002 58.4415 206.739 62.9787 208.399 68.2975C209.839 72.9433 208.923 78.0884 205.67 83.6026C205.561 83.7979 205.561 84.015 205.648 84.2104C205.735 84.4058 205.932 84.5361 206.128 84.5795C209.075 85.0354 216.345 89.1167 232.063 111.173C238.613 120.356 243.001 129.084 245.14 137.073C247.345 145.322 247.018 152.356 244.158 157.979C239.42 167.292 227.61 172.372 209.992 172.676C209.621 172.676 209.337 172.98 209.359 173.349C209.315 173.718 209.599 174 209.97 174Z" fill="#1E1E1E"/>
<path d="M112.037 126.544C116.01 126.544 120.332 126.326 125.026 125.892C125.113 125.957 125.244 125.979 125.354 125.979C125.725 125.979 126.008 125.697 126.008 125.328V125.198C126.008 125.024 125.921 124.828 125.79 124.72C125.659 124.611 125.463 124.546 125.288 124.546C103.282 126.63 89.3979 123.982 82.8486 116.492C76.5831 109.328 77.5 98.7122 80.7965 84.9919L94.4845 40.0103C95.6416 37.5354 96.624 37.34 97.4099 37.2098C97.9557 37.1012 98.6106 36.9927 99.0254 36.2328C100.095 34.3007 100.75 33.0199 101.121 32.3252C106.972 36.5802 116.752 35.5164 119.503 35.1257C119.547 35.8204 119.59 37.0795 119.656 39.1202C119.699 41.0089 120.704 41.9424 121.599 42.7673C122.625 43.7225 123.498 44.5258 123.28 46.7836L117.276 78.7396C117.232 78.9567 117.298 79.1738 117.473 79.3258C117.625 79.4778 117.844 79.5429 118.062 79.4995L134.741 75.9608C135.003 75.8957 135.199 75.7003 135.243 75.4398C136.16 70.4901 138.67 61.3071 145.351 55.6192C145.635 55.3804 145.656 54.968 145.416 54.7074C145.176 54.4252 144.761 54.4035 144.499 54.6423C137.71 60.417 135.046 69.5566 134.042 74.7885L118.739 78.0232L124.568 47.0006C124.568 46.9789 124.568 46.9572 124.568 46.9355C124.851 44.0048 123.542 42.789 122.494 41.8121C121.664 41.0306 121.009 40.4227 120.966 39.0985C120.878 35.5598 120.769 34.3658 120.769 34.3224C120.747 34.1487 120.66 33.9751 120.507 33.8665C120.354 33.758 120.18 33.7146 119.983 33.7363C119.852 33.758 107.408 35.9723 101.318 30.8489C101.165 30.7187 100.968 30.6753 100.772 30.7187C100.575 30.7621 100.401 30.8924 100.313 31.066C100.313 31.0877 99.593 32.4988 97.8683 35.6467C97.7592 35.8421 97.65 35.8855 97.1479 35.9723C96.1655 36.146 94.7029 36.4282 93.262 39.5544C93.2402 39.5761 93.2402 39.6195 93.2402 39.6412L79.5303 84.688C79.5303 84.7097 79.5303 84.7097 79.5303 84.7314C78.2205 90.2021 76.8669 96.6064 76.9324 102.533C76.9979 108.807 78.6134 113.692 81.8662 117.426C87.2367 123.504 97.1698 126.544 112.037 126.544Z" fill="#1E1E1E"/>
<path d="M122.93 173.892C123.28 173.892 123.585 173.609 123.585 173.24L123.847 154.679C123.847 154.31 123.563 154.028 123.192 154.028C122.843 154.028 122.537 154.31 122.537 154.679L122.275 173.24C122.275 173.588 122.559 173.892 122.93 173.892Z" fill="#1E1E1E"/>
<path d="M126.816 76.9378C129.458 75.8523 132.972 75.4399 135.265 75.0708C134.828 77.2417 134.632 79.4561 134.697 81.6921C135.199 93.1329 139.696 97.5834 140.766 101.795C126.925 96.7367 125.856 83.3203 126.816 76.9378Z" fill="#1E1E1E"/>
<path d="M147.556 143.781C147.839 146.19 148.407 147.211 154.105 150.12C155.568 150.858 158.624 152.464 162.706 154.527C161.855 164.969 161.396 172.654 161.396 172.654L144.346 172.893C144.346 172.893 144.827 155.439 145.176 137.702C146.115 139.613 147.381 142.326 147.556 143.781Z" fill="#8A2C5B"/>
<path d="M145.547 103.445C145.329 94.0882 148.931 84.9052 152.424 78.7832C152.992 87.3149 154.825 97.2143 156.768 100.449C165.937 94.1316 172.814 90.5062 178.315 87.6188C181.787 82.0613 184.712 77.0898 185.978 73.4861C185.956 72.9434 185.934 72.3789 185.934 71.8362L186.524 71.9013C184.996 76.9162 181.699 84.0368 174.866 93.5889C173.469 95.2171 172.203 96.9104 171.046 98.7123C169.408 101.252 167.924 108.438 166.614 117.382C159.017 116.34 153.144 116.123 152.075 117.73L145.482 118.989C145.744 106.462 145.678 108.547 145.547 103.445Z" fill="#8A2C5B"/>
<path d="M146.922 137.811C147.228 137.811 147.49 137.594 147.556 137.29C147.621 136.942 147.403 136.595 147.053 136.53L136.902 134.468C136.553 134.402 136.203 134.62 136.138 134.967C136.072 135.314 136.291 135.662 136.64 135.727L146.791 137.789C146.835 137.789 146.879 137.811 146.922 137.811Z" fill="#1E1E1E"/>
<path d="M120.682 159.672C121.358 159.672 122.908 159.129 125.375 149.751C125.463 149.404 125.266 149.056 124.917 148.948C124.568 148.861 124.218 149.056 124.109 149.404C122.559 155.309 121.227 157.935 120.66 158.326C120.485 158.087 120.005 156.98 120.07 152.313C120.114 149.121 120.376 145.561 120.551 143.412L120.616 142.587C120.747 140.611 122.166 134.294 123.236 131.255C123.476 130.56 129.436 114.3 144.39 119.358C144.412 119.358 144.434 119.38 144.456 119.38L154.345 121.789C154.694 121.876 155.044 121.659 155.131 121.312C155.218 120.964 155 120.617 154.651 120.53L144.761 118.12C138.714 116.08 133.125 117.1 128.563 121.095C124.24 124.85 122.319 129.865 121.991 130.842C120.856 134.033 119.437 140.438 119.284 142.522L119.219 143.325C118.673 150.684 118.346 157.697 119.699 159.238C119.983 159.564 120.31 159.65 120.551 159.672C120.594 159.672 120.638 159.672 120.682 159.672Z" fill="#1E1E1E"/>
<path d="M136.051 143.151C136.291 143.151 136.509 143.021 136.618 142.826C138.103 140.177 137.491 136.486 137.098 134.055C136.989 133.447 136.924 132.904 136.88 132.492C136.837 132.145 136.531 131.862 136.16 131.906C135.81 131.949 135.527 132.253 135.57 132.622C135.614 133.1 135.701 133.643 135.81 134.272C136.203 136.66 136.727 139.96 135.461 142.196C135.286 142.5 135.396 142.912 135.723 143.086C135.832 143.129 135.941 143.151 136.051 143.151Z" fill="#1E1E1E"/>
<path d="M128.039 152.834C128.737 152.834 129.327 152.66 129.807 152.291C130.833 151.553 130.942 150.294 130.942 150.25C130.964 149.881 130.702 149.577 130.331 149.556C129.982 149.534 129.654 149.794 129.632 150.163C129.632 150.163 129.567 150.88 129.021 151.271C128.606 151.575 127.995 151.618 127.187 151.444C125.288 151.01 123.956 145.561 123.563 142.24C123.52 141.892 123.192 141.632 122.843 141.675C122.494 141.719 122.232 142.044 122.275 142.392C122.384 143.368 123.498 151.944 126.903 152.725C127.296 152.79 127.668 152.834 128.039 152.834Z" fill="#1E1E1E"/>
<path d="M132.056 151.162C132.885 151.162 133.584 150.945 134.108 150.489C135.068 149.664 135.068 148.427 135.068 148.383C135.068 148.014 134.784 147.732 134.413 147.732C134.042 147.732 133.758 148.014 133.758 148.383C133.758 148.383 133.737 149.1 133.234 149.512C132.841 149.838 132.23 149.946 131.422 149.816C129.501 149.534 127.82 144.78 127.231 141.871C127.165 141.523 126.816 141.284 126.467 141.371C126.118 141.436 125.877 141.784 125.965 142.131C126.139 142.999 127.799 150.576 131.248 151.119C131.51 151.14 131.794 151.162 132.056 151.162Z" fill="#1E1E1E"/>
<path d="M135.112 148.926C135.679 148.926 136.378 148.687 137.142 147.906C140.701 144.128 140.417 142.066 140.373 141.849C140.351 141.762 140.329 141.697 140.286 141.632C140.024 141.219 139.325 140.503 138.321 140.503C137.164 140.503 136.007 141.414 134.894 143.195C134.697 143.499 134.784 143.911 135.112 144.085C135.417 144.28 135.832 144.193 136.007 143.868C137.142 142.066 137.95 141.784 138.321 141.784C138.692 141.784 138.954 142.022 139.107 142.174C139.085 142.63 138.801 144.237 136.203 146.972C135.505 147.71 135.068 147.602 134.937 147.558C133.627 147.189 132.274 143.694 131.75 141.328C131.663 140.98 131.313 140.763 130.964 140.828C130.615 140.915 130.396 141.263 130.462 141.61C130.615 142.283 131.99 148.101 134.588 148.817C134.741 148.882 134.915 148.926 135.112 148.926Z" fill="#1E1E1E"/>
<path d="M147.403 142.261C155.109 136.031 157.729 120.357 154.476 116.926C154.345 115.841 151.834 117.686 150.328 117.838C146.682 118.251 145.11 118.359 145.11 118.359C146.595 122.875 144.936 128.346 143.255 132.231C142.534 133.947 141.683 135.618 140.744 137.225C141.028 137.377 142.207 137.941 145.001 139.157C146.595 139.873 146.944 141.067 147.403 142.261Z" fill="#1E1E1E"/>
<path d="M193.073 123.114C193.335 123.114 193.575 122.962 193.684 122.723C194.798 120.161 197.134 118.729 200.605 118.403C203.421 118.142 206.412 118.707 208.268 119.336C208.617 119.445 208.988 119.271 209.097 118.924C209.206 118.577 209.032 118.208 208.682 118.099C204.316 116.666 195.344 115.668 192.484 122.202C192.331 122.528 192.484 122.918 192.833 123.049C192.898 123.092 192.986 123.114 193.073 123.114Z" fill="#1E1E1E"/>
<path d="M210.8 174C211.127 174 211.389 173.761 211.455 173.457C211.52 173.11 211.258 172.763 210.909 172.719C192.178 169.789 166.832 156.22 157.292 151.097C156.048 150.424 155.044 149.903 154.389 149.556C148.822 146.712 148.451 145.822 148.211 143.716C147.949 141.48 145.46 136.769 144.805 135.553L152.686 118.034C153.035 117.578 154.673 116.731 162.292 117.491C167.094 117.969 173.534 119.011 181.437 120.595C194.929 123.287 208.18 126.674 208.311 126.696C208.661 126.783 209.01 126.565 209.119 126.218C209.228 125.871 208.988 125.523 208.639 125.415C208.508 125.371 195.234 122.006 181.699 119.293C173.753 117.708 167.247 116.644 162.423 116.167C154.039 115.342 152.206 116.34 151.551 117.317C151.529 117.339 151.507 117.382 151.507 117.404L143.473 135.271C143.386 135.466 143.408 135.662 143.495 135.857C144.368 137.442 146.682 141.936 146.901 143.824C147.228 146.603 148.123 147.775 153.799 150.663C154.454 150.988 155.437 151.531 156.681 152.182C166.287 157.327 191.763 170.983 210.713 173.935C210.734 174 210.756 174 210.8 174Z" fill="#1E1E1E"/>
<path d="M156.768 101.079C156.899 101.079 157.03 101.035 157.139 100.97C166.396 94.5877 173.447 90.8754 178.621 88.1834C178.73 88.14 178.818 88.0532 178.861 87.9446C182.594 81.9528 185.345 77.2202 186.589 73.6816C186.611 73.6165 186.633 73.5296 186.633 73.4428C186.48 68.7536 186.327 63.8473 186.24 61.3507C186.218 60.9817 185.934 60.6994 185.563 60.7211C185.192 60.7429 184.908 61.0251 184.93 61.3941C185.018 63.869 185.17 68.7102 185.323 73.356C184.101 76.7426 181.459 81.3233 177.857 87.098C172.792 89.7682 165.937 93.3719 157.008 99.4723C155.327 95.9988 153.646 87.2065 153.079 78.7182C153.057 78.3491 152.751 78.0886 152.38 78.1103C152.009 78.132 151.747 78.4359 151.769 78.805C152.293 86.7723 154.039 97.1928 156.201 100.775C156.288 100.927 156.441 101.035 156.615 101.079C156.681 101.079 156.725 101.079 156.768 101.079Z" fill="#1E1E1E"/>
<path d="M189.471 58.116C190.672 58.116 191.894 57.8989 192.92 57.2476C194.252 56.4227 195.125 55.0767 195.496 53.2097C195.933 51.017 195.627 49.1717 194.536 47.7389C192.811 45.4377 189.668 44.9384 188.401 44.8299C188.03 44.8082 187.725 45.0687 187.681 45.416C187.659 45.7634 187.921 46.089 188.27 46.1324C189.122 46.1976 192.025 46.61 193.466 48.5205C194.318 49.6276 194.558 51.1256 194.187 52.9492C193.881 54.4471 193.226 55.5326 192.2 56.1404C190.497 57.1825 188.096 56.8351 186.393 56.3575C186.044 56.2707 185.694 56.4661 185.585 56.8134C185.498 57.1608 185.694 57.5298 186.044 57.6167C187.07 57.8772 188.27 58.116 189.471 58.116Z" fill="#1E1E1E"/>
<path d="M145.329 59.3967C145.351 59.3967 145.394 59.3967 145.416 59.3967C145.765 59.3533 146.027 59.0277 145.984 58.6586C145.307 53.4918 144.39 43.3318 145.7 33.4324C145.744 33.0851 145.503 32.7594 145.132 32.6943C144.783 32.6509 144.456 32.8897 144.39 33.2587C143.058 43.3101 143.997 53.6003 144.674 58.8323C144.739 59.1579 145.001 59.3967 145.329 59.3967Z" fill="#1E1E1E"/>
<path d="M146.595 66.778C146.639 66.778 146.682 66.778 146.726 66.7563C147.075 66.6695 147.294 66.3221 147.228 65.9748C146.77 63.9341 146.333 61.329 145.984 58.637C145.94 58.2897 145.613 58.0292 145.242 58.0726C144.892 58.116 144.63 58.4417 144.674 58.8107C145.132 62.3059 145.613 64.8025 145.94 66.257C146.006 66.5826 146.289 66.778 146.595 66.778Z" fill="#1E1E1E"/>
<path d="M163.012 82.973C167.837 82.973 172.748 81.41 175.914 79.1522C181.743 74.984 182.813 72.8782 184.188 68.3627C185.52 63.9991 188.903 48.2164 189.034 47.5434C189.078 47.3698 189.034 47.1744 188.925 47.0224C188.816 46.8704 188.641 46.7836 188.445 46.7619L183.599 46.3711C183.249 46.3494 182.922 46.6099 182.9 46.979C182.878 47.3481 183.14 47.652 183.511 47.6737L187.615 47.9993C186.917 51.2123 184.101 64.1945 182.944 67.9936C181.612 72.4006 180.717 74.1373 175.172 78.1101C172.268 80.1942 167.858 81.5619 163.667 81.6922C158.777 81.8441 154.738 80.3245 152.293 77.4154C146.704 70.8375 146.049 57.9205 146.049 57.7902C146.027 57.4212 145.722 57.1607 145.372 57.1607C145.001 57.1824 144.739 57.4863 144.739 57.8336C144.761 58.3764 145.438 71.3151 151.289 78.2404C154.127 81.627 158.537 82.973 163.012 82.973Z" fill="#1E1E1E"/>
<path d="M158.93 68.1891C158.93 68.1891 155.371 67.4727 153.908 68.9055L158.93 68.1891Z" fill="white"/>
<path d="M153.908 69.5568C154.083 69.5568 154.236 69.4916 154.367 69.3614C155.349 68.4062 157.969 68.6667 158.799 68.8187C159.148 68.8838 159.497 68.6667 159.563 68.2976C159.628 67.9503 159.41 67.6029 159.039 67.5378C158.646 67.451 155.087 66.8214 153.428 68.4062C153.166 68.6667 153.166 69.0792 153.428 69.318C153.559 69.4916 153.734 69.5568 153.908 69.5568Z" fill="#1E1E1E"/>
<path d="M153.057 63.8472C153.101 63.8472 153.166 63.8472 153.21 63.8255L157.292 62.7834C157.642 62.6966 157.86 62.3492 157.772 62.0019C157.685 61.6545 157.336 61.4374 156.987 61.5243L153.843 62.3275L155.065 51.7768C155.109 51.4295 154.847 51.1038 154.498 51.0604C154.149 51.017 153.821 51.2775 153.777 51.6248L152.446 63.1091C152.424 63.3261 152.511 63.5432 152.664 63.6735C152.751 63.8037 152.904 63.8472 153.057 63.8472Z" fill="#1E1E1E"/>
<path d="M150.11 54.8378C149.459 54.8378 148.931 54.0214 148.931 53.0143C148.931 52.0071 149.459 51.1907 150.11 51.1907C150.761 51.1907 151.289 52.0071 151.289 53.0143C151.289 54.0214 150.761 54.8378 150.11 54.8378Z" fill="#1E1E1E"/>
<path d="M161.506 54.6208C160.855 54.6208 160.327 53.8044 160.327 52.7972C160.327 51.7901 160.855 50.9736 161.506 50.9736C162.157 50.9736 162.684 51.7901 162.684 52.7972C162.684 53.8044 162.157 54.6208 161.506 54.6208Z" fill="#1E1E1E"/>
<path d="M166.636 43.9615C166.767 43.9615 166.92 43.918 167.029 43.8312C167.313 43.6141 167.356 43.2016 167.138 42.9194C165.784 41.1827 163.579 40.3143 161.375 40.6617C161.025 40.7268 160.763 41.0524 160.829 41.3998C160.894 41.7471 161.222 41.9859 161.571 41.9425C163.296 41.6603 165.02 42.355 166.09 43.701C166.265 43.8746 166.439 43.9615 166.636 43.9615Z" fill="#1E1E1E"/>
<path d="M146.53 43.5706C146.813 43.5706 147.075 43.3969 147.163 43.1147C147.796 41.074 150.372 41.7036 150.481 41.7253C150.83 41.8122 151.18 41.6168 151.289 41.2694C151.376 40.9221 151.18 40.5747 150.83 40.4662C149.499 40.1188 146.748 40.1405 145.94 42.724C145.831 43.0713 146.027 43.4404 146.377 43.5489C146.399 43.5489 146.464 43.5706 146.53 43.5706Z" fill="#1E1E1E"/>
<path d="M137.535 31.4786C137.819 30.632 137.491 29.6116 136.902 28.5913L137.055 28.4176L137.797 30.48C137.797 30.48 140.111 31.4786 140.875 28.5262C141.115 27.6361 140.57 26.5289 139.718 25.4434L139.74 25.4217C142.971 26.1598 149.258 27.3756 149.826 26.1164C150.634 24.3363 139.282 19.6036 135.81 18.084C134.042 17.3024 127.908 15.6308 124.589 15.1532C122.406 14.871 120.179 14.8493 117.975 15.0881C117.713 13.0691 118.106 11.0285 119.11 9.22659C120.179 7.25104 122.428 4.34199 124.415 3.27824C144.128 -7.12052 153.734 10.4423 153.734 10.4423C153.734 10.4423 156.528 2.93089 165.501 2.64867C169.19 2.54012 172.749 3.97294 175.346 6.55634C182.703 13.8941 177.791 22.187 177.791 22.187C177.791 22.187 181.219 20.4503 185.847 22.6646C191.37 25.3132 194.143 31.5438 192.702 37.4704C191.174 43.7661 188.358 49.7579 188.358 49.7579C170.413 52.5149 165.828 35.0172 168.47 32.7378C164.496 35.6685 157.336 37.6224 145.22 36.4066C142.447 36.1244 139.041 35.0389 135.57 33.389C136.269 33.3239 137.055 32.8897 137.535 31.4786Z" fill="#1E1E1E"/>
<path d="M117.865 41.8773C117.975 41.8773 118.084 41.8556 118.193 41.7904C118.346 41.7036 118.455 41.5516 118.499 41.378L121.337 29.9589C121.424 29.6115 121.206 29.2642 120.856 29.1774C120.507 29.0905 120.158 29.3076 120.07 29.655L117.385 40.4228L101.842 35.8421C101.492 35.7336 101.121 35.9289 101.034 36.2763C100.925 36.6236 101.121 36.9927 101.47 37.0795L117.691 41.8556C117.734 41.8556 117.8 41.8773 117.865 41.8773Z" fill="#1E1E1E"/>
<path d="M115.53 41.8556C115.813 41.8556 116.075 41.6819 116.163 41.3997C116.272 41.0523 116.075 40.6833 115.726 40.5964L100.925 36.2328L103.086 28.2438C103.086 28.2221 103.108 28.2004 103.108 28.1787C105.444 13.2644 123.738 15.7176 124.524 15.8261C127.886 16.3037 133.955 17.997 135.57 18.6917C135.854 18.822 136.225 18.974 136.618 19.1476C138.67 20.0377 141.77 21.3837 144.456 22.7514C148.32 24.7269 149.062 25.617 149.215 25.8775C148.516 26.2466 145.132 26.0078 139.937 24.8138C139.587 24.7269 139.238 24.944 139.151 25.2914C139.063 25.6387 139.282 25.9861 139.631 26.0729C149.564 28.3741 150.219 26.9413 150.459 26.3985C150.546 26.2032 150.612 25.8775 150.459 25.465C149.782 23.7283 144.652 21.21 137.142 17.9536C136.749 17.7799 136.4 17.628 136.094 17.4977C134.195 16.6728 127.995 15.0012 124.72 14.5236C123.672 14.3716 118.106 13.6986 112.539 15.5439C106.491 17.5411 102.78 21.8179 101.82 27.9182L99.5056 36.4934C99.4182 36.8407 99.6147 37.1881 99.9422 37.2966L115.355 41.8338C115.399 41.8556 115.464 41.8556 115.53 41.8556Z" fill="#1E1E1E"/>
<path d="M128.344 32.6075C128.388 32.6075 128.453 32.6075 128.497 32.6075C128.868 32.6075 129.152 32.3036 129.13 31.9345C129.108 31.5654 128.825 31.3049 128.453 31.3049C125.332 31.3701 118.673 28.3742 116.708 27.0716C116.403 26.8762 116.01 26.9631 115.791 27.267C115.595 27.5709 115.682 27.9617 115.988 28.1788C117.603 29.1991 124.502 32.6075 128.344 32.6075Z" fill="#1E1E1E"/>
<path d="M138.648 31.305C138.998 31.305 139.413 31.2398 139.827 31.0444C140.635 30.6537 141.203 29.8721 141.487 28.6998C142.338 25.4 135.396 20.5806 134.588 20.0378C134.282 19.8425 133.889 19.9076 133.671 20.2115C133.475 20.5154 133.54 20.9062 133.846 21.1233C136.553 22.9686 140.679 26.5723 140.22 28.3959C140.024 29.1557 139.696 29.6768 139.26 29.8939C138.692 30.1761 138.037 29.9156 138.037 29.9156C137.71 29.7853 137.317 29.9373 137.186 30.2629C137.055 30.5885 137.208 30.9793 137.535 31.1096C137.557 31.1096 138.037 31.305 138.648 31.305Z" fill="#1E1E1E"/>
<path d="M135.352 34.0836C135.658 34.0836 135.985 34.0402 136.313 33.9099C137.142 33.5843 137.753 32.8462 138.146 31.7173C139.238 28.5043 133.387 23.6414 132.732 23.0987C132.449 22.8816 132.034 22.9033 131.815 23.1855C131.597 23.4677 131.619 23.8802 131.903 24.0973C134.173 25.9426 137.513 29.5029 136.924 31.2831C136.662 32.0429 136.313 32.4988 135.854 32.6942C135.265 32.933 134.632 32.6291 134.632 32.6291C134.304 32.4771 133.911 32.5856 133.758 32.9113C133.606 33.2369 133.715 33.6277 134.042 33.7797C134.042 33.7797 134.61 34.0836 135.352 34.0836Z" fill="#1E1E1E"/>
<path d="M128.563 35.994C129.567 35.994 130.899 35.842 132.667 35.3427C134.086 34.952 134.544 34.1487 134.675 33.5626C135.243 31.0009 130.768 27.18 130.265 26.7458C129.982 26.507 129.567 26.5504 129.349 26.8327C129.108 27.1149 129.152 27.5274 129.436 27.7445C131.248 29.2641 133.693 31.9995 133.409 33.2803C133.387 33.4106 133.3 33.8231 132.339 34.0836C128.759 35.0822 127.253 34.5829 126.86 34.4092C126.794 34.2355 126.707 33.8882 126.86 33.5843C127.034 33.2586 127.624 32.6942 129.698 32.5422C130.069 32.5205 130.331 32.1949 130.309 31.8475C130.287 31.4785 129.96 31.2179 129.611 31.2397C127.537 31.3916 126.227 31.9995 125.703 32.9981C125.244 33.8665 125.55 34.8 125.79 35.2125C125.834 35.2776 125.877 35.3427 125.943 35.3861C126.03 35.473 126.772 35.994 128.563 35.994Z" fill="#1E1E1E"/>
<path d="M122.275 42.4635C119.175 46.5448 98.1957 43.4621 94.7246 38.1868C96.3837 35.929 97.6936 37.2098 98.4358 35.8856C100.182 32.6943 100.903 31.2832 100.903 31.2832C104.549 34.3442 110.268 34.9087 114.525 34.8218C116.403 34.8001 118.28 34.6699 120.136 34.4093C120.158 34.735 120.245 36.0375 120.332 39.0551C120.354 40.8136 121.337 41.5951 122.275 42.4635Z" fill="#1E1E1E"/>
<path d="M7.72824 112.758H92.6071C93.7204 112.758 94.681 113.518 94.943 114.604L106.732 164.274H137.513C137.513 164.274 139.216 173.023 129.283 173.023H20.9142C19.8008 173.023 18.8402 172.263 18.5782 171.178L5.3923 115.689C5.08667 114.408 5.89444 113.127 7.18246 112.823C7.3571 112.78 7.55359 112.758 7.72824 112.758Z" fill="#1E1E1E"/>
<path d="M0.654907 174H257.345C257.716 174 258 173.718 258 173.349C258 172.98 257.716 172.698 257.345 172.698H0.654907C0.283783 172.698 0 172.98 0 173.349C0 173.718 0.283783 174 0.654907 174Z" fill="#1E1E1E"/>
<path d="M44.762 137.832H45.8099L44.9148 133.621C43.9324 128.997 46.9233 125.219 51.5733 125.219C56.2233 125.219 60.8296 128.997 61.812 133.621L62.7071 137.832H63.755C65.5015 137.832 67.2261 139.243 67.5972 140.98L70.7191 155.677C71.0902 157.414 69.9768 158.825 68.2303 158.825H49.2155C47.469 158.825 45.7444 157.414 45.3733 155.677L42.2514 140.98C41.8803 139.243 43.0155 137.832 44.762 137.832ZM58.9958 133.642C58.3409 130.56 55.2845 128.041 52.1627 128.041C49.0627 128.041 47.0543 130.56 47.7092 133.642L48.6042 137.854H59.8691L58.9958 133.642ZM55.1536 148.644L55.8303 151.835C56.005 152.616 56.7472 153.246 57.5331 153.246C58.3191 153.246 58.7993 152.616 58.6465 151.835L57.9698 148.644C58.712 148.166 59.0831 147.254 58.8648 146.234C58.5374 144.692 57.0092 143.433 55.4592 143.433C53.9092 143.433 52.905 144.692 53.2324 146.234C53.4507 147.276 54.2148 148.166 55.1536 148.644Z" fill="white"/>
</g>
<defs>
<clipPath id="clip0">
<rect width="248" height="174" fill="white" transform="matrix(-1 0 0 1 248 0)"/>
</clipPath>
</defs>
</svg>
