<svg width="281" height="176" viewBox="0 0 281 176" fill="none" xmlns="http://www.w3.org/2000/svg">
<g clip-path="url(#clip0)">
<path d="M20.1227 128.982C19.7639 128.982 19.4326 128.734 19.3222 128.376C18.1905 124.38 17.8317 120.383 17.5556 117.186C17.3624 114.899 17.1416 112.529 16.6999 112.005C15.375 110.379 9.24709 100.264 14.1881 94.6421C16.1203 92.4373 19.0738 91.6105 22.0273 92.4098C26.0298 93.5122 29.2042 97.2604 30.1151 101.973C31.1088 107.182 31.9369 107.899 35.0284 110.655C35.6633 111.233 36.4086 111.867 37.2367 112.667C37.5679 112.97 37.5955 113.493 37.2643 113.824C36.9606 114.155 36.4362 114.182 36.1049 113.852C35.2768 113.08 34.5592 112.446 33.9243 111.867C30.7775 109.084 29.5906 108.036 28.4865 102.276C27.7136 98.1699 24.9809 94.9453 21.5857 94.0083C19.2118 93.3468 16.976 93.9807 15.4302 95.7445C11.5934 100.099 16.3687 108.973 17.9973 110.958C18.7702 111.895 18.9358 113.934 19.2118 117.049C19.4879 120.191 19.8467 124.104 20.9232 127.935C21.0336 128.376 20.7852 128.844 20.3435 128.955C20.2883 128.982 20.2055 128.982 20.1227 128.982Z" fill="#8A2C5B"/>
<path d="M37.4851 152.96C37.1814 152.96 36.8778 152.794 36.7398 152.519C35.6357 150.341 34.6971 150.672 32.4613 151.499C30.1702 152.326 27.0235 153.456 22.9106 151.196C17.9144 148.467 14.326 143.313 11.9522 139.896C10.9032 138.408 9.74391 136.699 9.21945 136.506C7.56326 135.845 -1.15934 130.884 0.110406 124.71C0.607263 122.257 2.40147 120.411 4.91335 119.777C8.33614 118.895 12.2558 120.356 14.9333 123.47C17.804 126.832 18.6873 127.025 22.0273 127.769C23.8767 128.183 26.3886 128.734 30.2806 130.029C33.2066 131.022 36.0773 133.006 38.7824 135.927C39.086 136.258 39.086 136.782 38.7272 137.085C38.396 137.388 37.8715 137.388 37.5679 137.03C35.056 134.301 32.4337 132.482 29.7562 131.6C25.9746 130.333 23.4903 129.781 21.6961 129.396C18.2181 128.624 16.9207 128.348 13.6912 124.545C11.4277 121.899 8.17052 120.659 5.355 121.375C3.45039 121.872 2.12544 123.194 1.73899 125.041C0.772882 129.699 7.86689 134.191 9.85432 134.963C10.8204 135.349 11.8141 136.782 13.3323 138.959C15.7338 142.404 19.0462 147.172 23.7111 149.707C27.1891 151.609 29.701 150.7 31.9092 149.9C34.1451 149.101 36.4637 148.274 38.2304 151.747C38.4236 152.16 38.2856 152.656 37.8715 152.849C37.7611 152.932 37.6231 152.96 37.4851 152.96Z" fill="#8A2C5B"/>
<path d="M42.5916 153.29C42.288 153.29 41.9844 153.097 41.8463 152.794C35.8013 139.593 37.3194 131.986 38.0371 128.348C38.1199 127.88 38.2027 127.466 38.2579 127.136C38.4512 125.785 37.5678 124.104 36.6293 122.285C35.1112 119.364 33.2066 115.753 36.3533 112.804C39.4725 109.91 39.4173 107.899 39.3621 103.489C39.3345 102.111 39.3068 100.54 39.3897 98.6659C39.6657 91.3073 41.2391 86.4842 44.2202 83.8936C46.1248 82.2124 48.5815 81.5234 51.535 81.799C53.4397 81.9919 54.9854 82.5155 56.1724 83.3975C56.5312 83.6731 56.614 84.1967 56.338 84.555C56.062 84.9133 55.5375 84.996 55.1787 84.7204C54.2401 84.0314 52.9704 83.5904 51.3694 83.425C48.8575 83.177 46.8701 83.7282 45.2967 85.1062C42.6744 87.3937 41.2943 91.8309 41.0458 98.6934C40.9906 100.512 41.0182 102.056 41.0182 103.406C41.1011 107.871 41.1563 110.544 37.485 113.962C35.4148 115.891 36.3257 118.096 38.0923 121.458C39.1136 123.415 40.1901 125.427 39.8865 127.301C39.8313 127.687 39.7485 128.1 39.6381 128.596C38.8928 132.345 37.5126 139.317 43.3093 152.05C43.5025 152.464 43.3093 152.96 42.8953 153.153C42.84 153.263 42.702 153.29 42.5916 153.29Z" fill="#8A2C5B"/>
<path d="M55.6479 153.29H47.229C47.0081 153.29 46.7873 153.208 46.6217 153.015C46.4561 152.849 46.3733 152.629 46.4009 152.381C47.3394 139.428 50.1549 130.663 55.0406 125.565C55.2615 125.317 55.6203 125.234 55.9515 125.372C56.2552 125.51 56.476 125.813 56.476 126.143V152.436C56.476 152.905 56.1172 153.29 55.6479 153.29ZM48.1399 151.637H54.8198V128.431C51.2314 133.254 48.9956 141.054 48.1399 151.637Z" fill="#8A2C5B"/>
<path d="M36.7397 176C36.3533 176 36.0221 175.724 35.9393 175.366L31.5227 155.578C31.4675 155.33 31.4399 155.082 31.4399 154.834C31.4675 153.042 32.9581 151.637 34.7523 151.637H55.5099C55.9791 151.637 56.338 151.995 56.338 152.464C56.338 152.932 55.9791 153.29 55.5099 153.29H34.7247H34.6971C33.8138 153.29 33.0961 153.979 33.0961 154.861C33.0961 154.972 33.0961 155.109 33.1237 155.22L37.5402 175.008C37.6506 175.449 37.347 175.89 36.9054 176C36.8502 175.972 36.795 176 36.7397 176Z" fill="#1E1E1E"/>
<path d="M208.818 175.669H56.0344C55.5651 175.669 55.2063 175.311 55.2063 174.842V0.826809C55.2063 0.358284 55.5651 0 56.0344 0H208.818C209.287 0 209.646 0.358284 209.646 0.826809V174.842C209.646 175.283 209.259 175.669 208.818 175.669ZM56.8625 174.016H207.99V1.65362H56.8625V174.016Z" fill="#1E1E1E"/>
<path d="M144.475 131.049H93.685C93.2158 131.049 92.8569 130.691 92.8569 130.222C92.8569 129.754 93.2158 129.396 93.685 129.396H144.475C144.944 129.396 145.303 129.754 145.303 130.222C145.303 130.691 144.944 131.049 144.475 131.049Z" fill="#1E1E1E"/>
<path d="M131.087 138.766H93.685C93.2158 138.766 92.8569 138.408 92.8569 137.939C92.8569 137.471 93.2158 137.112 93.685 137.112H131.06C131.529 137.112 131.888 137.471 131.888 137.939C131.888 138.408 131.529 138.766 131.087 138.766Z" fill="#1E1E1E"/>
<path d="M119.08 147.42H92.5809C92.1116 147.42 91.7528 147.062 91.7528 146.593C91.7528 146.125 92.1116 145.766 92.5809 145.766H119.08C119.549 145.766 119.908 146.125 119.908 146.593C119.908 147.062 119.549 147.42 119.08 147.42Z" fill="#1E1E1E"/>
<path d="M172.244 131.049H150.327C149.857 131.049 149.499 130.691 149.499 130.222C149.499 129.754 149.857 129.396 150.327 129.396H172.244C172.713 129.396 173.072 129.754 173.072 130.222C173.072 130.691 172.713 131.049 172.244 131.049Z" fill="#1E1E1E"/>
<path d="M117.783 113.383L123.634 118.868V107.761L117.783 113.383Z" fill="#8A2C5B"/>
<path d="M109.336 119.171L115.354 113.383L109.336 107.733V119.171Z" fill="#8A2C5B"/>
<path d="M139.175 105.832H125.65L132.495 112.253L139.175 105.832Z" fill="#8A2C5B"/>
<path d="M116.568 114.541L109.723 121.127H123.579L116.568 114.541Z" fill="#8A2C5B"/>
<path d="M125.291 119.171L131.308 113.383L125.291 107.733V119.171Z" fill="#8A2C5B"/>
<path d="M92.5809 106.961V119.97L99.4265 113.383L92.5809 106.961Z" fill="#8A2C5B"/>
<path d="M100.641 114.541L93.7954 121.127H107.652L100.641 114.541Z" fill="#8A2C5B"/>
<path d="M107.321 105.832H93.7954L100.641 112.253L107.321 105.832Z" fill="#8A2C5B"/>
<path d="M139.561 118.868V107.761L133.71 113.383L139.561 118.868Z" fill="#8A2C5B"/>
<path d="M101.828 113.383L107.68 118.868V107.761L101.828 113.383Z" fill="#8A2C5B"/>
<path d="M132.495 114.541L125.622 121.127H139.479L132.495 114.541Z" fill="#8A2C5B"/>
<path d="M123.248 105.832H109.723L116.568 112.253L123.248 105.832Z" fill="#8A2C5B"/>
<path d="M155.489 105.832H141.218V121.1H155.489V105.832Z" fill="#8A2C5B"/>
<path d="M172.244 105.832H157.145V121.1H172.244V105.832Z" fill="#8A2C5B"/>
<path d="M139.506 121.1L139.561 121.128V121.1H139.506Z" fill="#8A2C5B"/>
<path d="M132.219 57.8765L163.411 42.0845C165.895 46.9902 167.192 52.392 167.192 57.8765C167.192 77.0309 151.403 92.7954 132.219 92.7954C121.564 92.7954 111.489 87.9448 104.864 79.6216L132.219 57.8765Z" fill="#8A2C5B"/>
<path d="M187.895 32.025H159.022C158.552 32.025 158.194 31.6667 158.194 31.1981C158.194 30.7296 158.552 30.3713 159.022 30.3713H187.895C188.364 30.3713 188.723 30.7296 188.723 31.1981C188.723 31.6667 188.364 32.025 187.895 32.025Z" fill="#1E1E1E"/>
<path d="M187.895 35.9109H172.492C172.023 35.9109 171.664 35.5527 171.664 35.0841C171.664 34.6156 172.023 34.2573 172.492 34.2573H187.895C188.364 34.2573 188.723 34.6156 188.723 35.0841C188.723 35.5527 188.364 35.9109 187.895 35.9109Z" fill="#1E1E1E"/>
<path d="M187.895 39.8521H177.654C177.185 39.8521 176.826 39.4938 176.826 39.0253C176.826 38.5568 177.185 38.1985 177.654 38.1985H187.895C188.364 38.1985 188.723 38.5568 188.723 39.0253C188.723 39.4938 188.364 39.8521 187.895 39.8521Z" fill="#1E1E1E"/>
<path d="M188.75 62.9754H151.458C150.989 62.9754 150.63 62.6171 150.63 62.1486C150.63 61.6801 150.989 61.3218 151.458 61.3218H188.75C189.22 61.3218 189.578 61.6801 189.578 62.1486C189.578 62.6171 189.22 62.9754 188.75 62.9754Z" fill="#1E1E1E"/>
<path d="M188.75 66.0345H181.767C181.297 66.0345 180.939 65.6762 180.939 65.2077C180.939 64.7391 181.297 64.3809 181.767 64.3809H188.75C189.22 64.3809 189.578 64.7391 189.578 65.2077C189.578 65.6762 189.22 66.0345 188.75 66.0345Z" fill="#1E1E1E"/>
<path d="M111.02 28.8279H88.7717C88.3024 28.8279 87.9436 28.4696 87.9436 28.0011C87.9436 27.5326 88.3024 27.1743 88.7717 27.1743H111.02C111.489 27.1743 111.848 27.5326 111.848 28.0011C111.848 28.4696 111.461 28.8279 111.02 28.8279Z" fill="#1E1E1E"/>
<path d="M93.2434 31.9698H88.7717C88.3024 31.9698 87.9436 31.6115 87.9436 31.143C87.9436 30.6744 88.3024 30.3162 88.7717 30.3162H93.2434C93.7127 30.3162 94.0715 30.6744 94.0715 31.143C94.0715 31.6115 93.6851 31.9698 93.2434 31.9698Z" fill="#1E1E1E"/>
<path d="M99.3161 81.0822C99.0677 81.0822 98.8193 80.9719 98.6813 80.779C93.9335 74.826 91.2836 67.3847 91.2008 59.7781C91.2008 59.3096 91.5596 58.9513 92.0289 58.9513L125.677 58.5654C126.036 58.5654 126.34 58.7859 126.478 59.1166C126.588 59.4474 126.478 59.8332 126.202 60.0537L99.8406 80.9168C99.675 81.0271 99.5094 81.0822 99.3161 81.0822ZM92.8846 60.5773C93.133 67.2469 95.4241 73.7511 99.4541 79.0978L123.248 60.2466L92.8846 60.5773Z" fill="#8A2C5B"/>
<path d="M93.4643 57.6836C93.2435 57.6836 93.0503 57.6009 92.8847 57.4355C92.719 57.2702 92.6362 57.0773 92.6362 56.8568V56.4158C92.6362 52.144 93.4091 47.9548 94.9549 43.9586C95.1205 43.5452 95.5898 43.3247 96.0314 43.49L127.361 55.6441C127.72 55.7819 127.941 56.1678 127.885 56.5536C127.83 56.9395 127.471 57.2151 127.085 57.2426L93.4643 57.6836ZM96.197 45.3366C94.9549 48.7816 94.32 52.3645 94.2648 56.03L122.779 55.6441L96.197 45.3366Z" fill="#8A2C5B"/>
<path d="M133.489 54.0457C133.268 54.0457 133.047 53.963 132.882 53.7977C132.633 53.5221 132.578 53.1362 132.771 52.8331L149.361 23.7018C149.582 23.316 150.078 23.1782 150.492 23.3987C156.455 26.7886 161.258 31.8321 164.322 37.9505C164.432 38.1434 164.432 38.3639 164.377 38.5844C164.294 38.8049 164.156 38.9702 163.963 39.0529L133.875 53.963C133.737 54.0182 133.627 54.0457 133.489 54.0457ZM150.382 25.2177L135.559 51.2621L162.472 37.923C159.657 32.6589 155.489 28.3044 150.382 25.2177Z" fill="#8A2C5B"/>
<path d="M146.186 24.8869C141.163 22.0206 135.476 20.4773 129.68 20.4497H129.128C115.409 20.5875 103.153 29.021 98.1569 41.7538L129.486 54.0181L146.186 24.8869Z" fill="#1E1E1E"/>
<path d="M98.3224 66.1722H76.0743C75.6051 66.1722 75.2462 65.8139 75.2462 65.3454C75.2462 64.8768 75.6051 64.5186 76.0743 64.5186H98.3224C98.7917 64.5186 99.1505 64.8768 99.1505 65.3454C99.1505 65.8139 98.7641 66.1722 98.3224 66.1722Z" fill="#1E1E1E"/>
<path d="M84.1068 69.314H76.0743C75.6051 69.314 75.2462 68.9557 75.2462 68.4872C75.2462 68.0187 75.6051 67.6604 76.0743 67.6604H84.1068C84.5761 67.6604 84.9349 68.0187 84.9349 68.4872C84.9349 68.9557 84.5761 69.314 84.1068 69.314Z" fill="#1E1E1E"/>
<path d="M172.409 167.401C170.808 167.401 168.848 166.96 168.131 165.72C167.772 165.086 167.827 164.342 168.269 163.653C168.876 162.716 171.471 161.999 179.282 160.621L179.558 160.566C181.491 160.236 183.478 160.015 185.438 159.877C185.907 159.85 186.294 160.208 186.321 160.649C186.349 161.09 185.99 161.503 185.548 161.531C183.644 161.641 181.711 161.862 179.834 162.192L179.558 162.247C176.826 162.716 170.477 163.846 169.621 164.59C169.483 164.811 169.538 164.893 169.566 164.921C169.787 165.307 170.974 165.803 172.602 165.775H172.63C173.072 165.775 173.43 166.133 173.458 166.574C173.486 167.043 173.127 167.401 172.658 167.429C172.575 167.401 172.492 167.401 172.409 167.401Z" fill="#1E1E1E"/>
<path d="M180.635 175.697C177.957 175.697 177.185 174.732 176.991 173.906C176.936 173.657 176.936 173.409 176.991 173.161C176.191 173.134 175.501 172.913 175.087 172.72C174.755 172.583 173.707 172.059 173.43 171.287C173.32 170.984 173.348 170.681 173.486 170.35C171.94 170.543 171.029 170.323 170.532 169.716C170.091 169.165 170.091 168.421 170.532 167.484C171.415 165.693 180.911 161.035 182.319 160.621C184.085 160.098 198.715 157.976 199.35 157.893C199.764 157.838 200.178 158.113 200.261 158.527L204.153 174.622C204.208 174.87 204.153 175.118 203.987 175.339C203.822 175.532 203.601 175.642 203.325 175.642H181.38C181.132 175.669 180.883 175.697 180.635 175.697ZM184.306 170.46C183.809 170.653 183.285 170.874 182.843 171.067C181.849 171.48 180.856 171.894 180.083 172.169C179.144 172.5 178.565 173.272 178.62 173.547C178.647 173.685 179.2 174.154 181.353 174.016C181.38 174.016 181.38 174.016 181.408 174.016H202.331L198.853 159.684C194.216 160.346 184.113 161.862 182.816 162.248C181.021 162.771 172.713 167.208 172.05 168.256C171.94 168.476 171.912 168.642 171.885 168.697C172.078 168.779 172.878 168.917 175.473 168.283C176.55 167.512 177.709 166.905 178.095 166.685C180.193 165.665 182.374 164.756 184.582 163.984C185.024 163.846 185.493 164.067 185.631 164.507C185.769 164.948 185.548 165.417 185.107 165.555C182.954 166.299 180.856 167.181 178.813 168.173C176.577 169.303 175.446 170.35 175.087 170.819C175.528 171.177 176.743 171.783 177.875 171.37C179.393 170.433 181.849 169.523 183.726 168.917C185.603 168.173 186.266 167.98 186.735 168.09C187.094 168.173 187.342 168.504 187.37 168.89C187.37 169.275 187.122 169.606 186.763 169.689C186.763 169.689 185.686 169.992 184.306 170.46Z" fill="#1E1E1E"/>
<path d="M265.984 115.285C266.232 108.064 262.285 101.367 255.854 98.087L245.42 92.4923L244.288 97.6185C243.046 103.186 237.525 106.713 231.922 105.473L230.569 105.17C224.993 103.93 221.46 98.4177 222.702 92.8505L224.441 85.051C222.454 83.673 220.88 81.7989 220.135 79.3736C220.08 79.2082 220.052 79.0428 219.997 78.8775L209.618 73.3103L209.591 153.704L237.746 147.944L236.393 129.065C236.366 128.596 236.697 128.21 237.166 128.183C237.635 128.155 238.022 128.486 238.049 128.955L239.457 148.55C239.485 148.963 239.209 149.322 238.795 149.432L209.591 155.412V155.633L193.608 158.527C196.755 159.133 200.233 174.705 200.233 174.705H256.93C262.395 174.705 266.84 170.267 266.84 164.81C266.84 164.755 266.84 164.7 266.84 164.645L265.984 115.285Z" fill="#1E1E1E"/>
<path d="M234.157 106.52C233.357 106.52 232.556 106.438 231.728 106.245L230.376 105.942C224.358 104.619 220.549 98.6381 221.874 92.63L223.613 84.8304C223.723 84.3894 224.165 84.1138 224.607 84.1965C225.048 84.3067 225.324 84.7477 225.242 85.1887L223.503 92.9882C222.371 98.1145 225.628 103.186 230.735 104.343L232.087 104.646C237.221 105.776 242.3 102.524 243.46 97.4255L246.993 80.6137C247.076 80.1727 247.517 79.8695 247.987 79.9798C248.428 80.0625 248.732 80.5034 248.621 80.9719L245.088 97.7837C243.929 102.993 239.292 106.52 234.157 106.52Z" fill="#1E1E1E"/>
<path d="M234.185 88.7441C228.471 88.7441 221.322 85.9881 219.362 79.5941C217.32 72.9245 219.859 63.554 220.411 61.735V61.7075V61.6799C221.874 56.7466 224.414 49.5258 228.306 42.994C233.909 33.5684 245.282 38.9702 247.517 40.1553C256.82 45.0886 258.724 52.3094 258.697 57.5183C258.641 63.0855 256.461 67.44 256.35 67.6329C256.323 67.6605 256.295 67.7156 256.295 67.7432C255.716 68.8456 249.808 80.0075 247.407 82.8462C244.84 85.8778 243.322 87.1732 237.442 88.441C236.421 88.6339 235.317 88.7441 234.185 88.7441ZM221.984 62.1484C221.984 62.176 221.984 62.176 221.957 62.2036C221.432 63.9399 219.003 72.897 220.908 79.1256C222.923 85.6298 231.646 88 237.028 86.8425C242.687 85.6022 243.819 84.4723 246.082 81.7989C248.428 78.9878 254.749 67.0542 254.805 66.9164C254.832 66.8888 254.832 66.8612 254.86 66.8337C255.136 66.2825 256.958 62.3138 256.985 57.4908C257.013 50.6282 253.562 45.3091 246.689 41.6712C244.702 40.6239 234.516 35.7457 229.686 43.876C225.904 50.2148 223.42 57.2978 221.984 62.1484Z" fill="#1E1E1E"/>
<path d="M221.184 61.9005C222.813 56.3884 225.407 49.4156 228.996 43.4075C229.161 43.1319 229.327 42.8563 229.493 42.6083C226.567 40.3483 221.874 45.0336 218.617 54.6245C216.933 59.5854 212.351 62.0934 212.351 62.0934C215.857 65.1526 219.031 63.8297 221.101 62.0934C221.156 61.9831 221.184 61.9005 221.184 61.9005Z" fill="#1E1E1E"/>
<path d="M228.72 70.0307C228.637 70.0307 228.526 70.0031 228.444 69.9755L225.38 68.8456C225.159 68.7629 224.993 68.5975 224.91 68.4046C224.828 68.2117 224.828 67.9636 224.91 67.7707L228.637 58.4002C228.802 57.9868 229.299 57.7663 229.713 57.9317C230.127 58.097 230.348 58.5931 230.183 59.0065L226.76 67.5778L229.023 68.4046C229.465 68.57 229.686 69.0385 229.52 69.4519C229.382 69.8102 229.051 70.0307 228.72 70.0307Z" fill="#1E1E1E"/>
<path d="M226.867 58.0622C227.192 57.3068 227.057 56.5242 226.567 56.3141C226.077 56.1041 225.416 56.5461 225.091 57.3015C224.767 58.0568 224.901 58.8395 225.392 59.0495C225.882 59.2596 226.543 58.8175 226.867 58.0622Z" fill="#1E1E1E"/>
<path d="M235.439 61.7278C235.616 60.9252 235.338 60.1814 234.816 60.0665C234.295 59.9517 233.729 60.5092 233.552 61.3118C233.374 62.1145 233.653 62.8582 234.174 62.9731C234.695 63.088 235.261 62.5304 235.439 61.7278Z" fill="#1E1E1E"/>
<path d="M241.942 59.5302C241.583 59.5302 241.279 59.3097 241.141 58.9514C240.727 57.6836 239.678 56.7466 238.381 56.4986C237.939 56.4159 237.636 55.9749 237.718 55.5339C237.801 55.093 238.243 54.7898 238.684 54.8725C240.589 55.2308 242.135 56.6088 242.715 58.4278C242.853 58.8687 242.604 59.3373 242.19 59.4751C242.107 59.5302 242.024 59.5302 241.942 59.5302Z" fill="#1E1E1E"/>
<path d="M230.403 52.6676C230.21 52.6676 230.017 52.5849 229.851 52.4471C229.824 52.4196 227.616 50.4352 226.153 51.4825C225.794 51.7581 225.269 51.6755 224.993 51.2896C224.717 50.9313 224.8 50.4077 225.186 50.1321C227.726 48.2855 230.845 51.0967 230.983 51.2069C231.314 51.5101 231.342 52.0337 231.038 52.3645C230.845 52.5849 230.624 52.6676 230.403 52.6676Z" fill="#1E1E1E"/>
<path d="M274.099 62.1484L264.742 57.408C265.929 50.4628 265.183 39.6867 252.127 33.651C231.701 24.1703 224.248 44.5924 224.248 44.5924L271.035 68.1565C272.664 69.0384 274.734 68.4321 275.617 66.7785C276.501 65.1524 275.893 63.0854 274.237 62.2035C274.182 62.2035 274.127 62.1759 274.099 62.1484Z" fill="#4E2D5E"/>
<path d="M263.638 64.4634L243.901 54.5142C241.61 61.6523 238.74 75.9561 250.968 79.7318C250.968 79.7318 260.518 82.9013 263.279 79.7594C263.279 79.7594 256.709 74.9639 258.2 71.0228C258.2 71.0228 264.907 80.9445 272.774 75.6805C272.774 75.6529 263.444 72.6764 263.638 64.4634Z" fill="#1E1E1E"/>
<path d="M280.172 175.669H16.1478C15.6785 175.669 15.3197 175.311 15.3197 174.842C15.3197 174.374 15.6785 174.016 16.1478 174.016H280.172C280.641 174.016 281 174.374 281 174.842C281 175.311 280.614 175.669 280.172 175.669Z" fill="#1E1E1E"/>
<path d="M231.425 78.9051C229.851 78.9051 228.554 77.6098 228.554 76.0389C228.554 74.4679 229.851 73.1726 231.425 73.1726C232.998 73.1726 234.295 74.4679 234.295 76.0389C234.295 77.6098 232.998 78.9051 231.425 78.9051ZM231.425 74.7987C230.762 74.7987 230.21 75.3499 230.21 76.0113C230.21 76.6728 230.762 77.224 231.425 77.224C232.087 77.224 232.639 76.6728 232.639 76.0113C232.639 75.3499 232.087 74.7987 231.425 74.7987Z" fill="#1E1E1E"/>
</g>
<defs>
<clipPath id="clip0">
<rect width="281" height="176" fill="white"/>
</clipPath>
</defs>
</svg>
