<svg width="305" height="165" viewBox="0 0 305 165" fill="none" xmlns="http://www.w3.org/2000/svg">
<g clip-path="url(#clip0)">
<path d="M116.402 155.13H110.077L87.3957 95.4157C86.1448 92.1337 82.2978 92.1809 81.1177 95.5102L59.8765 155.13H53.693C52.3949 155.13 51.3564 156.405 51.3564 157.987V161.765C51.3564 163.347 52.3949 164.622 53.693 164.622H116.402C117.7 164.622 118.738 163.347 118.738 161.765V157.987C118.738 156.405 117.676 155.13 116.402 155.13Z" fill="#8A2C5B"/>
<path d="M109.015 155.839H60.797C60.3958 155.839 60.089 155.532 60.089 155.13C60.089 154.729 60.3958 154.422 60.797 154.422H109.015C109.416 154.422 109.723 154.729 109.723 155.13C109.723 155.532 109.416 155.839 109.015 155.839Z" fill="#1E1E1E"/>
<path d="M106.843 146.37H62.9919L66.5321 136.383H103.043L106.843 146.37Z" fill="white"/>
<path d="M70.6859 124.789H98.5591L94.7829 114.801H74.2497L70.6859 124.789Z" fill="white"/>
<path d="M57.6345 159.333H54.1179L41.5148 126.158C40.8303 124.317 38.6826 124.364 38.0218 126.206L26.2211 159.333H22.7989C22.0909 159.333 21.5009 160.042 21.5009 160.915V163.017C21.5009 163.89 22.0909 164.599 22.7989 164.599H57.6345C58.3425 164.599 58.9326 163.89 58.9326 163.017V160.939C58.909 160.042 58.3425 159.333 57.6345 159.333Z" fill="#8A2C5B"/>
<path d="M53.5279 160.041H26.7404C26.3392 160.041 26.0323 159.735 26.0323 159.333C26.0323 158.932 26.3392 158.625 26.7404 158.625H53.5279C53.9291 158.625 54.2359 158.932 54.2359 159.333C54.2359 159.735 53.9055 160.041 53.5279 160.041Z" fill="#1E1E1E"/>
<path d="M52.3006 154.469H27.9677L29.9266 148.92H50.2001L52.3006 154.469Z" fill="white"/>
<path d="M32.2395 142.498H47.722L45.6215 136.949H34.222L32.2395 142.498Z" fill="white"/>
<path d="M161.197 69.4189H163.581C164.737 69.4189 165.681 70.3634 165.681 71.5204V163.725H159.097V71.5204C159.097 70.3634 160.041 69.4189 161.197 69.4189Z" fill="#1E1E1E"/>
<path d="M280.927 69.4189H283.31C284.467 69.4189 285.411 70.3634 285.411 71.5204V163.725H278.826V71.5204C278.826 70.3634 279.77 69.4189 280.927 69.4189Z" fill="#1E1E1E"/>
<path d="M289.541 79.4304H147.556V95.5101H289.541V79.4304Z" fill="#8A2C5B"/>
<path d="M169.859 79.4304H158.153L147.556 95.0379V95.5101H158.931L169.859 79.4304Z" fill="white"/>
<path d="M183.099 95.5101L194.027 79.4304H182.32L171.393 95.5101H183.099Z" fill="white"/>
<path d="M207.267 95.5101L218.194 79.4304H206.488L195.561 95.5101H207.267Z" fill="white"/>
<path d="M231.435 95.5101L242.362 79.4304H230.656L219.728 95.5101H231.435Z" fill="white"/>
<path d="M255.603 95.5101L266.53 79.4304H254.824L243.896 95.5101H255.603Z" fill="white"/>
<path d="M279.77 95.5101L289.541 81.1305V79.4304H278.991L268.064 95.5101H279.77Z" fill="white"/>
<path d="M289.541 107.906H147.556V123.986H289.541V107.906Z" fill="#8A2C5B"/>
<path d="M169.859 107.906H158.153L147.556 123.49V123.986H158.931L169.859 107.906Z" fill="white"/>
<path d="M183.099 123.986L194.027 107.906H182.32L171.393 123.986H183.099Z" fill="white"/>
<path d="M207.267 123.986L218.194 107.906H206.488L195.561 123.986H207.267Z" fill="white"/>
<path d="M231.435 123.986L242.362 107.906H230.656L219.728 123.986H231.435Z" fill="white"/>
<path d="M255.603 123.986L266.53 107.906H254.824L243.896 123.986H255.603Z" fill="white"/>
<path d="M279.77 123.986L289.541 109.606V107.906H278.991L268.064 123.986H279.77Z" fill="white"/>
<path d="M188.362 62.7131H140.57V163.843H188.362V62.7131Z" fill="white"/>
<path d="M157.468 163.843H108.259L112.035 144.717H157.468V163.843Z" fill="white"/>
<path d="M304.292 164.551H0.70804C0.306817 164.551 0 164.245 0 163.843C0 163.442 0.306817 163.135 0.70804 163.135H304.292C304.693 163.135 305 163.442 305 163.843C305 164.245 304.67 164.551 304.292 164.551Z" fill="#1E1E1E"/>
<path d="M217.628 98.1783C217.911 90.0086 213.427 82.4056 206.158 78.6985L188.173 68.8287L186.804 74.9914C185.176 81.7444 178.402 85.9001 171.652 84.2709C165.091 82.6889 160.937 76.1956 162.283 69.5607L164.076 61.4382C161.74 59.9034 160.017 57.6131 159.167 54.9449C159.002 54.4255 158.884 53.906 158.766 53.3629C153.361 51.7337 147.579 51.8754 142.269 53.7643L115.528 63.2799L81.2829 26.8704L57.9884 51.3087L101.486 101.319C104.294 104.554 108.826 105.687 112.814 104.176L120.225 100.846L107.174 163.914L119.116 164.15C115.977 163.583 117.535 161.033 119.611 160.301C120.933 159.829 122.845 159.003 124.426 158.365C122.16 159.073 119.966 159.994 117.889 161.128C115.835 161.954 113.475 160.561 113.286 159.853C113.145 159.428 113.9 158.507 115.34 157.468L114.797 157.728C110.808 158.696 108.92 158.46 109.982 156.311C110.737 154.776 120.815 149.558 122.798 148.968C124.78 148.377 142.033 145.898 142.033 145.898L146.446 164.244L207.338 164.622C213.592 164.622 218.666 160.396 218.548 154.139L217.628 98.1783ZM186.875 137.492L145.148 146.772C145.03 146.795 144.889 146.819 144.771 146.819C143.826 146.819 143.048 146.04 143.048 145.095C143.048 144.292 143.614 143.584 144.416 143.395L184.68 134.446L183.193 113.597C183.123 112.652 183.854 111.802 184.798 111.732C185.742 111.661 186.592 112.393 186.663 113.337L188.268 135.674C188.291 136.548 187.701 137.303 186.875 137.492Z" fill="#1E1E1E"/>
<path d="M61.0802 40.9197C61.0802 40.9197 61.0566 40.9197 61.0802 40.9197C60.6554 40.8961 51.0732 40.5891 44.6065 36.7876C36.7 32.1833 35.4491 30.6485 35.2839 29.6804C35.1187 28.8304 35.5199 28.3581 35.756 28.1693C36.818 27.272 39.1545 27.8859 42.3171 29.0665C42.5059 29.1373 42.6711 29.2082 42.7655 29.2318C43.1668 29.3735 43.3556 29.7749 43.2376 30.1763C43.096 30.5777 42.6711 30.7666 42.2935 30.6485C42.1755 30.6013 42.0103 30.5541 41.7979 30.4596C37.8801 28.9957 36.9596 29.161 36.7472 29.3026C36.7472 29.3262 36.7472 29.3735 36.7472 29.4207C36.818 29.704 37.6677 31.0263 45.3617 35.4889C51.498 39.1016 61.0094 39.4321 61.1038 39.4321C61.505 39.4557 61.8354 39.7863 61.8354 40.2113C61.8118 40.6127 61.4814 40.9197 61.0802 40.9197Z" fill="#1E1E1E"/>
<path d="M66.5321 45.4768C66.2961 45.4768 66.0601 45.3587 65.9185 45.1698L63.2515 41.4627C58.5549 40.6835 54.4718 39.4085 51.4509 37.7793C49.5392 36.7404 45.8337 33.8597 43.2376 31.711C37.4553 26.9178 37.3137 26.0914 37.2665 25.808C37.0541 24.6275 37.5497 23.6358 38.5645 23.1871C40.4762 22.3371 44.1109 23.5413 46.8958 27.0831C47.1554 27.4137 47.0846 27.8859 46.7778 28.122C46.4474 28.3817 45.9754 28.3109 45.7393 28.004C43.3084 24.9344 40.3818 24.0372 39.2018 24.5566C38.9422 24.6747 38.6825 24.8872 38.7534 25.5011C39.485 26.8234 48.9255 34.7097 52.1825 36.457C54.2358 37.5668 57.9176 39.0779 63.818 40.046C64.0068 40.0696 64.1956 40.1877 64.3136 40.353L67.1457 44.3198C67.3818 44.6503 67.311 45.1226 66.9805 45.3587C66.8389 45.4532 66.6973 45.4768 66.5321 45.4768Z" fill="#1E1E1E"/>
<path d="M76.2087 35.5597C76.0199 35.5597 75.8311 35.4888 75.6894 35.3472C74.1554 33.8124 72.9281 32.561 72.1256 31.7345C71.7008 31.3095 71.394 30.979 71.1816 30.7665C68.5382 28.0039 59.971 26.8941 59.8766 26.8705C59.8057 26.8705 59.7585 26.8469 59.7113 26.8233C57.5872 25.9969 52.1117 23.069 51.8757 22.9273C49.7752 21.8648 49.0907 22.0064 48.9727 22.0301C48.9255 22.2898 49.256 23.2579 50.2236 24.1551C51.5453 25.3829 53.6694 26.9177 55.0855 27.8386C55.9823 28.3344 56.596 28.6414 56.596 28.665C56.9264 28.8303 57.0916 29.2081 56.9736 29.5623C56.8556 29.9164 56.5252 30.1289 56.1475 30.0817C55.8171 30.0345 55.1091 29.6567 54.283 29.1372C52.3005 28.0275 49.0435 25.9969 47.6039 23.9662C46.5182 22.9273 44.6773 22.7148 43.9457 22.8329C44.1581 23.3523 44.9605 24.5801 47.2262 27.3427C49.374 29.94 54.4482 32.5846 54.4954 32.6082C54.8495 32.7971 54.9911 33.2457 54.8023 33.6235C54.6135 34.0013 54.165 34.1194 53.7874 33.9305C53.575 33.8124 48.4063 31.1206 46.0698 28.2872C42.6712 24.1787 41.9159 22.8092 42.6004 21.912C42.86 21.5578 43.3556 21.3689 44.0637 21.3217C45.0313 21.2509 46.3294 21.4634 47.4387 22.0537C47.4387 21.7231 47.5331 21.4398 47.6983 21.18C48.7367 19.6925 51.5689 21.1328 52.5129 21.605C52.5837 21.6523 58.012 24.5565 60.1126 25.3829C61.1274 25.5246 69.3171 26.7052 72.1964 29.7039C72.3853 29.8928 72.7157 30.2234 73.1405 30.672C73.9429 31.4984 75.1702 32.7499 76.6807 34.2846C76.9639 34.568 76.9639 35.0402 76.6807 35.3472C76.5863 35.4888 76.3975 35.5597 76.2087 35.5597Z" fill="#1E1E1E"/>
<path d="M120.579 165C117.676 165 116.827 163.985 116.638 163.111C116.567 162.78 116.591 162.45 116.685 162.119C115.576 162.143 114.655 161.789 114.207 161.576C113.876 161.411 112.814 160.844 112.578 160.065C112.46 159.687 112.578 159.286 112.814 158.884C110.903 159.168 109.817 158.979 109.274 158.294C108.826 157.727 108.826 156.948 109.298 155.98C110.242 154.02 121.028 148.708 122.562 148.259C124.568 147.669 141.183 145.26 141.891 145.166C142.269 145.119 142.623 145.355 142.717 145.733L147.131 164.079C147.178 164.292 147.131 164.528 146.989 164.717C146.847 164.905 146.635 165 146.399 165H121.476C121.146 165 120.862 165 120.579 165ZM124.686 159.073C124.119 159.309 123.529 159.546 123.01 159.758C121.901 160.207 120.744 160.679 119.871 161.01C118.715 161.435 118.007 162.379 118.101 162.828C118.172 163.135 118.927 163.678 121.405 163.512C121.429 163.512 121.429 163.512 121.452 163.512H145.479L141.443 146.748C135.33 147.622 124.45 149.274 122.986 149.699C120.839 150.337 111.28 155.437 110.619 156.641C110.36 157.184 110.407 157.373 110.407 157.373C110.431 157.397 110.879 157.916 114.584 157.019C114.632 157.019 114.679 156.995 114.726 156.995C116.024 156.051 117.464 155.319 117.771 155.154C120.154 153.997 122.632 152.981 125.134 152.108C125.512 151.966 125.937 152.179 126.078 152.556C126.22 152.934 126.007 153.359 125.63 153.501C123.199 154.351 120.768 155.343 118.455 156.476C115.741 157.822 114.301 159.168 114.042 159.687C114.419 160.112 116.048 161.009 117.558 160.443C119.257 159.404 122.066 158.341 124.19 157.633C126.267 156.807 127.022 156.594 127.494 156.712C127.825 156.807 128.061 157.09 128.061 157.42C128.061 157.751 127.848 158.058 127.518 158.152C127.518 158.176 126.291 158.53 124.686 159.073Z" fill="#1E1E1E"/>
<path d="M174.579 85.5931C173.611 85.5931 172.644 85.4986 171.676 85.2625H171.652C168.183 84.5069 165.233 82.4291 163.321 79.4304C161.409 76.4317 160.772 72.8663 161.551 69.3953L163.227 61.8867C163.321 61.4853 163.722 61.2256 164.124 61.32C164.525 61.4145 164.784 61.8159 164.69 62.2173L163.014 69.7259C162.33 72.819 162.896 75.983 164.596 78.6512C166.295 81.3193 168.915 83.1611 172.006 83.8458C175.098 84.5306 178.261 83.9639 180.928 82.2874C183.595 80.5874 185.436 77.9664 186.12 74.8733V74.8497L191.572 53.8351C191.666 53.4337 192.091 53.1975 192.469 53.292C192.87 53.3864 193.106 53.8115 193.012 54.2129L187.56 75.2038C186.781 78.6748 184.728 81.6263 181.73 83.5389C179.559 84.8611 177.081 85.5931 174.579 85.5931Z" fill="#1E1E1E"/>
<path d="M175.145 65.4994C168.702 65.4994 160.701 62.4063 158.483 55.2046C156.17 47.6724 159.073 37.0235 159.663 34.9692L159.687 34.922V34.8984C161.032 30.3885 163.958 21.6049 168.655 13.6713C174.933 3.06956 187.725 9.18505 190.227 10.5073C200.729 16.0797 202.877 24.2258 202.83 30.0816C202.783 36.1971 200.446 40.9903 200.21 41.4625V41.4861C200.21 41.5097 200.186 41.5334 200.186 41.557C199.88 42.1236 192.846 55.488 190.038 58.8173C187.158 62.241 185.436 63.6813 178.804 65.1216C177.671 65.3814 176.443 65.4994 175.145 65.4994ZM161.103 35.3234C161.103 35.347 161.079 35.3706 161.079 35.3943C160.489 37.3777 157.704 47.6488 159.875 54.7796C162.188 62.3118 172.242 65.0508 178.45 63.6813C184.68 62.3118 186.096 61.1548 188.858 57.8728C191.478 54.756 198.393 41.675 198.818 40.8958V40.8722C198.818 40.8486 198.841 40.825 198.841 40.8014C198.888 40.7305 201.296 35.9373 201.319 29.9871C201.366 22.1008 197.401 15.9617 189.519 11.806C187.229 10.5781 175.499 4.98213 169.93 14.4033C165.327 22.2188 162.424 30.8608 161.103 35.3234Z" fill="#1E1E1E"/>
<path d="M160.395 35.0637C162.259 28.7593 165.209 20.8493 169.269 14.0019C169.458 13.6949 169.646 13.388 169.835 13.1046C166.531 10.5309 161.197 15.8436 157.492 26.7995C155.58 32.4664 150.34 35.2998 150.34 35.2998C154.329 38.7944 157.94 37.2832 160.3 35.2998C160.371 35.1582 160.395 35.0637 160.395 35.0637Z" fill="#1E1E1E"/>
<path d="M168.962 44.1308C168.867 44.1308 168.797 44.1072 168.702 44.0836L165.209 42.8085C165.02 42.7377 164.879 42.596 164.784 42.4071C164.714 42.2182 164.69 42.0057 164.761 41.8168L169.009 31.1679C169.151 30.7901 169.599 30.6012 169.977 30.7428C170.354 30.8845 170.543 31.3331 170.402 31.7109L166.436 41.6515L169.221 42.6669C169.599 42.8085 169.811 43.2335 169.67 43.6349C169.552 43.9419 169.269 44.1308 168.962 44.1308Z" fill="#1E1E1E"/>
<path d="M166.857 30.7037C167.232 29.8289 167.08 28.9237 166.517 28.6821C165.954 28.4404 165.193 28.9537 164.818 29.8285C164.443 30.7034 164.595 31.6085 165.158 31.8502C165.721 32.0918 166.482 31.5786 166.857 30.7037Z" fill="#1E1E1E"/>
<path d="M176.603 34.8886C176.808 33.959 176.49 33.0983 175.891 32.9662C175.293 32.8341 174.642 33.4805 174.437 34.4101C174.231 35.3397 174.55 36.2004 175.148 36.3325C175.747 36.4647 176.398 35.8182 176.603 34.8886Z" fill="#1E1E1E"/>
<path d="M183.972 32.1832C183.666 32.1832 183.359 31.9707 183.264 31.6637C182.769 30.1525 181.518 29.0428 179.96 28.7358C179.559 28.665 179.299 28.2636 179.37 27.8622C179.441 27.4608 179.842 27.201 180.243 27.2719C182.32 27.6733 184.02 29.1845 184.68 31.1915C184.798 31.5929 184.586 31.9943 184.208 32.1359C184.138 32.1596 184.067 32.1832 183.972 32.1832Z" fill="#1E1E1E"/>
<path d="M170.85 24.3439C170.661 24.3439 170.496 24.2731 170.354 24.155C170.331 24.1314 167.687 21.7702 165.894 23.0452C165.563 23.2814 165.091 23.2105 164.855 22.88C164.619 22.5494 164.69 22.0772 165.02 21.841C167.782 19.834 171.204 22.9272 171.346 23.0452C171.652 23.3286 171.676 23.8008 171.393 24.1078C171.251 24.2731 171.062 24.3439 170.85 24.3439Z" fill="#1E1E1E"/>
<path d="M220.531 35.3706L209.91 29.9871C211.232 22.0535 210.429 9.79895 195.561 2.88066C172.337 -7.90998 163.84 15.3477 163.84 15.3477L217.038 42.1945C218.902 43.2334 221.239 42.5487 222.254 40.7069C223.292 38.8416 222.608 36.504 220.767 35.4887C220.696 35.4179 220.602 35.3706 220.531 35.3706Z" fill="#8A2C5B"/>
<path d="M167.215 51.1906C164.832 46.3738 175.901 49.6323 175.901 49.6323C175.901 49.6323 172.762 60.7535 167.215 51.1906Z" fill="#1E1E1E"/>
<path d="M208.659 37.968L186.215 26.6343C183.618 34.7568 180.338 51.0726 194.239 55.3464C194.239 55.3464 205.119 58.959 208.235 55.37C208.235 55.37 200.777 49.892 202.476 45.4294C202.476 45.4294 210.123 56.7395 219.068 50.7184C219.044 50.742 208.471 47.3419 208.659 37.968Z" fill="#1E1E1E"/>
<path d="M197.567 154.54L200.187 154.776C200.234 154.564 200.305 154.375 200.352 154.162L200.446 137.681C200.446 136.524 201.39 135.603 202.547 135.603L213.686 135.674C219.374 131.707 226.148 129.582 233.087 129.629C251.637 129.724 266.837 145.048 266.789 163.631L197.189 163.583C195.041 163.583 193.295 161.836 193.295 159.687V159.664V158.389C193.295 156.24 195.065 154.516 197.213 154.516C197.331 154.516 197.449 154.516 197.567 154.54Z" fill="#A7A9AC"/>
<path d="M252.109 161.883C242.763 161.883 216.637 161.317 200.918 155.39C200.729 155.319 200.588 155.13 200.564 154.918C200.541 154.682 200.092 149.109 207.22 141.317C207.432 141.081 207.786 141.081 207.999 141.294C208.235 141.506 208.235 141.86 208.022 142.073C202.216 148.401 201.673 153.194 201.65 154.469C219.563 161.081 250.788 160.797 255.036 160.726C255.13 159.876 255.343 158.2 255.484 157.68C257.255 150.809 263.391 151.612 263.462 151.612C263.769 151.659 263.981 151.943 263.934 152.25C263.887 152.557 263.603 152.769 263.297 152.722C263.084 152.698 258.057 152.084 256.57 157.964C256.452 158.46 256.193 160.561 256.098 161.34C256.075 161.624 255.839 161.812 255.555 161.836C255.508 161.836 254.234 161.883 252.109 161.883Z" fill="#1E1E1E"/>
</g>
<defs>
<clipPath id="clip0">
<rect width="305" height="165" fill="white"/>
</clipPath>
</defs>
</svg>
