<svg width="261" height="174" viewBox="0 0 261 174" fill="none" xmlns="http://www.w3.org/2000/svg">
<g clip-path="url(#clip0)">
<path d="M35.8372 151.019C35.5293 151.019 35.2625 150.793 35.2214 150.485L30.2132 110.484C29.228 102.673 31.3832 95.3352 36.2477 89.8058C41.0917 84.297 48.0703 81.2754 55.8904 81.2754H82.3476C82.6965 81.2754 82.9633 81.5426 82.9633 81.892C82.9633 82.2415 82.6965 82.5087 82.3476 82.5087H55.8904C48.4397 82.5087 41.7895 85.3864 37.1713 90.628C32.5326 95.8902 30.5006 102.879 31.4448 110.34L36.4529 150.341C36.494 150.67 36.2477 150.978 35.9193 151.019C35.8988 151.019 35.8782 151.019 35.8372 151.019Z" fill="#1E1E1E"/>
<path d="M60.0982 173.486C60.0982 173.486 60.0777 173.486 60.0982 173.486C53.4891 173.424 51.3955 167.484 49.384 161.77C49.2608 161.4 49.1377 161.05 48.994 160.68C46.6952 154.205 46.141 145.49 47.4751 136.137C48.8298 126.6 52.0523 116.98 56.5679 109.045C61.4324 100.495 70.053 89.7852 83.6408 86.7842C81.8961 82.9403 81.7319 79.5898 83.1892 76.7943C85.3649 72.5805 91.2146 69.7439 100.533 68.3667C100.8 68.3256 101.046 68.4489 101.169 68.6956C101.416 69.1683 101.641 69.6205 101.888 70.0522C101.929 70.1139 101.949 70.1755 101.949 70.2578L102.811 76.486C102.832 76.6504 102.791 76.7943 102.709 76.9382L99.4247 81.5631C99.2195 81.8509 98.85 81.9126 98.5627 81.707C98.2753 81.5015 98.2137 81.1315 98.419 80.8437L101.559 76.4038L100.738 70.5455C100.595 70.2578 100.43 69.97 100.266 69.6617C91.6046 71.0183 86.227 73.6083 84.277 77.3699C82.9224 79.9598 83.1892 83.187 85.0775 86.9692C85.1596 87.1336 85.1596 87.3392 85.0775 87.5242C84.9954 87.6886 84.8312 87.8119 84.6465 87.853C71.0587 90.5047 62.4586 101.193 57.6352 109.683C48.5425 125.675 45.4021 146.97 50.1434 160.29C50.2666 160.66 50.4103 161.009 50.5334 161.379C52.5859 167.196 54.3716 172.212 60.0982 172.273C60.4471 172.273 60.714 172.561 60.714 172.89C60.714 173.198 60.4266 173.486 60.0982 173.486Z" fill="#1E1E1E"/>
<path d="M108.271 97.8018C108.271 97.7606 108.271 97.7195 108.271 97.6784C109.236 97.7812 110.18 97.7812 111.104 96.9795C113.361 95.0268 114.162 94.4307 114.162 94.4307C114.162 94.4307 114.367 94.6774 114.737 95.0885C115.188 94.2663 115.64 93.4235 116.112 92.5396C106.362 84.9753 98.9115 81.152 98.9115 81.152L98.3573 80.7615L94.7859 85.1397C94.7859 85.1603 100.615 89.1891 108.271 97.8018Z" fill="#8A2C5B"/>
<path d="M155.377 168.779C155.377 168.779 139.778 126.764 141.768 113.753C142.856 106.661 141.153 98.6034 138.813 92.3751L134.338 92.6629L128.981 105.325C129.33 105.407 129.679 105.489 130.028 105.53C130.028 105.53 129.823 106.867 129.31 109.909C128.961 111.944 129.556 112.17 130.007 113.588C130.603 114.534 131.054 115.603 130.562 117.268C130.397 117.802 130.007 122.9 129.125 129.806C130.767 133.301 132.327 136.98 133.805 140.906C143.267 166.168 142.282 168.923 142.282 168.923L155.377 168.779Z" fill="#8A2C5B"/>
<path d="M208.209 173.157C207.901 173.157 207.655 172.931 207.593 172.643C206.444 165.1 198.439 125.716 152.893 91.0802C152.77 90.9774 152.688 90.8541 152.667 90.6897C151.497 83.557 148.542 74.8416 136.103 70.5661C135.775 70.4633 135.611 70.1139 135.713 69.785C135.816 69.4561 136.165 69.2917 136.493 69.3944C142.487 71.45 147.002 74.8005 149.917 79.3226C152.38 83.1459 153.304 87.1336 153.837 90.2374C199.588 125.12 207.655 164.832 208.825 172.438C208.866 172.767 208.64 173.096 208.312 173.137C208.271 173.137 208.229 173.157 208.209 173.157Z" fill="#1E1E1E"/>
<path d="M147.926 135.418C147.577 135.418 147.249 135.192 147.146 134.842C144.211 125.181 144.642 112.067 144.662 111.512C144.683 111.06 145.073 110.71 145.504 110.731C145.956 110.752 146.304 111.122 146.304 111.574C146.304 111.697 145.853 124.976 148.706 134.369C148.829 134.801 148.603 135.253 148.152 135.397C148.09 135.397 148.008 135.418 147.926 135.418Z" fill="#1E1E1E"/>
<path d="M152.667 90.4224C152.811 91.3062 152.934 92.1079 153.037 92.8068C154.289 100.988 151.6 106.435 149.814 110.196C154.597 106.805 157.84 100.351 159.461 95.4378C157.491 93.8551 154.802 92.0051 152.667 90.4224Z" fill="#1E1E1E"/>
<path d="M84.9953 86.8458C81.6497 87.5241 76.1489 89.2097 72.167 91.9435C74.9379 93.4646 88.6694 101.687 99.8762 106.62C99.9583 106.558 100.574 105.531 100.882 105.14C94.7038 100.227 88.1562 93.1974 84.9953 86.8458Z" fill="#1E1E1E"/>
<path d="M93.6982 66.2906C93.1645 66.2906 92.6514 66.2084 92.1588 66.0645C90.7836 65.6328 89.7163 64.5845 88.9363 62.9606C87.9922 60.9668 87.8895 59.1579 88.6284 57.5546C89.9831 54.6152 93.7187 53.5669 93.8624 53.5258C94.1908 53.4436 94.5192 53.6286 94.6218 53.9575C94.7039 54.2863 94.5192 54.6152 94.1908 54.718C94.1498 54.718 90.8452 55.6635 89.7368 58.0891C89.1621 59.3429 89.2647 60.8023 90.0447 62.4468C90.6605 63.7623 91.502 64.5845 92.5283 64.9134C93.8829 65.345 95.6686 64.9339 97.8238 63.7212C98.1112 63.5567 98.5011 63.6595 98.6653 63.9473C98.8295 64.2351 98.7269 64.6256 98.4396 64.7901C96.6333 65.7973 95.0734 66.2906 93.6982 66.2906Z" fill="#1E1E1E"/>
<path d="M135.878 56.3009C135.57 56.3009 135.303 56.0747 135.262 55.7664C134.667 51.0798 133.189 41.9327 129.843 33.4229C128.099 28.9624 124.609 26.578 119.478 26.2902C115.64 26.0847 112.007 27.1535 110.632 27.6057C102.073 30.5246 97.1055 36.0334 95.8945 43.9677C95.1556 48.7982 96.0792 53.0737 96.4692 54.5537L98.2549 53.9576C98.5833 53.8548 98.9322 54.0192 99.0348 54.3481C99.1375 54.677 98.9733 55.0264 98.6449 55.1292L96.2434 55.9309C95.9355 56.0336 95.6071 55.8897 95.484 55.602L95.4634 55.5609C95.4634 55.5403 95.4429 55.5198 95.4429 55.4992C95.3813 55.2731 93.6983 50.0315 94.663 43.7827C95.5455 37.9861 98.9733 30.2779 110.221 26.4341C112.91 25.5297 126.498 21.5831 130.972 32.9501C134.379 41.5833 135.878 50.8537 136.473 55.602C136.514 55.9309 136.268 56.2392 135.939 56.2803C135.919 56.3009 135.898 56.3009 135.878 56.3009Z" fill="#1E1E1E"/>
<path d="M136.453 69.5589C136.432 69.5589 136.411 69.5589 136.37 69.5589C136.042 69.5178 135.796 69.2094 135.837 68.8806C136.617 62.5084 135.324 55.8897 135.303 55.828C135.242 55.4991 135.447 55.1702 135.796 55.1086C136.124 55.0469 136.453 55.2524 136.514 55.5813C136.576 55.8485 137.869 62.4468 137.068 69.0244C137.027 69.3122 136.76 69.5589 136.453 69.5589Z" fill="#1E1E1E"/>
<path d="M119.95 83.5364C117.364 83.5364 114.819 83.1047 112.828 82.3031C106.547 79.8159 105.069 78.1304 102.791 74.2865C100.574 70.5866 93.8625 56.8557 93.5752 56.2802C93.4931 56.1157 93.4931 55.9307 93.5546 55.7663C93.6162 55.6018 93.7599 55.4785 93.9241 55.4168L98.2755 53.9574C98.6039 53.8546 98.9528 54.0191 99.0554 54.348C99.1581 54.6769 98.9939 55.0263 98.6654 55.1291L94.9914 56.3624C96.3666 59.1579 101.929 70.4222 103.858 73.6493C106.075 77.3698 107.307 78.7881 113.3 81.152C115.147 81.892 117.528 82.2825 119.971 82.2825C120.32 82.2825 120.586 82.5497 120.586 82.8992C120.586 83.2486 120.279 83.5364 119.95 83.5364Z" fill="#1E1E1E"/>
<path d="M94.6424 57.863C94.6424 57.863 90.722 53.2997 87.8895 47.8526C85.2212 42.7343 86.3296 36.3828 90.7426 32.6828C94.4371 29.579 97.9675 30.4012 97.9675 30.4012C97.9675 30.4012 91.5841 23.9057 96.6128 15.4781C98.3985 12.4976 101.313 10.4009 104.7 9.6404C112.951 7.83154 117.22 14.1214 117.22 14.1214C117.22 14.1214 121.962 -4.21382 142.323 0.822208C144.375 1.33609 147.085 3.51494 148.521 5.07714C157.204 14.5942 140.886 32.4773 130.952 36.0539C120.053 39.9799 113.033 39.7744 108.743 37.9244C111.822 38.8699 111.925 56.2802 94.6424 57.863Z" fill="#1E1E1E"/>
<path d="M129.966 63.2691L126.005 63.2485C125.554 63.2485 125.184 62.8785 125.184 62.4263C125.184 61.9741 125.554 61.6041 126.005 61.6041L128.776 61.6247L125.348 52.4981C125.184 52.0665 125.41 51.5937 125.82 51.4293C126.251 51.2648 126.723 51.4909 126.888 51.902L130.726 62.1591C130.829 62.4058 130.787 62.6935 130.623 62.9196C130.48 63.1457 130.233 63.2691 129.966 63.2691Z" fill="#1E1E1E"/>
<path d="M124.014 71.3473C125.091 71.3473 125.964 70.473 125.964 69.3945C125.964 68.316 125.091 67.4418 124.014 67.4418C122.937 67.4418 122.064 68.316 122.064 69.3945C122.064 70.473 122.937 71.3473 124.014 71.3473Z" fill="#1E1E1E"/>
<path d="M130.671 53.0615C131.265 52.9127 131.559 52.0422 131.328 51.1172C131.097 50.1921 130.428 49.5627 129.834 49.7114C129.24 49.8602 128.946 50.7306 129.177 51.6557C129.408 52.5808 130.077 53.2102 130.671 53.0615Z" fill="#1E1E1E"/>
<path d="M120.22 55.4692C120.814 55.3204 121.108 54.45 120.877 53.5249C120.646 52.5998 119.978 51.9704 119.384 52.1191C118.79 52.2679 118.496 53.1384 118.727 54.0634C118.958 54.9885 119.627 55.6179 120.22 55.4692Z" fill="#1E1E1E"/>
<path d="M113.013 48.0992C112.91 48.0992 112.787 48.0786 112.684 48.0375C112.274 47.8525 112.089 47.3592 112.274 46.9481C113.156 44.9748 115.024 43.6387 117.179 43.4332C117.631 43.392 118.021 43.7209 118.062 44.1731C118.103 44.6254 117.774 45.0159 117.323 45.057C115.763 45.2009 114.408 46.167 113.772 47.5853C113.628 47.9142 113.32 48.0992 113.013 48.0992Z" fill="#1E1E1E"/>
<path d="M131.26 43.1454C130.972 43.1454 130.705 43.0015 130.562 42.7549C129.618 41.1927 127.586 42.2615 127.504 42.3232C127.114 42.5493 126.6 42.3849 126.395 41.9943C126.169 41.6038 126.334 41.0899 126.724 40.8844C127.935 40.2266 130.582 39.5894 131.978 41.9121C132.204 42.3027 132.081 42.8165 131.691 43.0426C131.547 43.1043 131.403 43.1454 131.26 43.1454Z" fill="#1E1E1E"/>
<path d="M248.541 115.705H168.739C167.692 115.705 166.789 116.425 166.543 117.453L155.438 164.483H126.518C126.518 164.483 124.917 172.767 134.256 172.767H236.144C237.191 172.767 238.094 172.047 238.34 171.019L250.737 118.48C251.025 117.268 250.265 116.055 249.054 115.767C248.89 115.726 248.726 115.705 248.541 115.705Z" fill="#1E1E1E"/>
<path d="M216.255 42.4055H216.891C217.466 42.4055 217.917 42.8577 217.917 43.4333V45.0571C217.917 45.6327 217.466 46.0849 216.891 46.0849H216.255C215.68 46.0849 215.229 45.6327 215.229 45.0571V43.4333C215.229 42.8577 215.68 42.4055 216.255 42.4055Z" fill="#8A2C5B"/>
<path d="M196.797 42.4055H213.176C213.751 42.4055 214.202 42.8577 214.202 43.4333V45.0571C214.202 45.6327 213.751 46.0849 213.176 46.0849H196.797C196.222 46.0849 195.771 45.6327 195.771 45.0571V43.4333C195.771 42.8577 196.222 42.4055 196.797 42.4055Z" fill="#1E1E1E"/>
<path d="M196.797 59.4868H214.838C215.413 59.4868 215.865 59.939 215.865 60.5146V62.1384C215.865 62.714 215.413 63.1662 214.838 63.1662H196.797C196.222 63.1662 195.771 62.714 195.771 62.1384V60.5146C195.771 59.939 196.222 59.4868 196.797 59.4868Z" fill="#1E1E1E"/>
<path d="M201.867 53.7932H230.992C231.567 53.7932 232.018 54.2454 232.018 54.821V56.4448C232.018 57.0204 231.567 57.4726 230.992 57.4726H201.867C201.292 57.4726 200.84 57.0204 200.84 56.4448V54.821C200.84 54.2454 201.312 53.7932 201.867 53.7932Z" fill="#8A2C5B"/>
<path d="M234.789 53.7932H249.567C250.142 53.7932 250.594 54.2454 250.594 54.821V56.4448C250.594 57.0204 250.142 57.4726 249.567 57.4726H234.789C234.214 57.4726 233.763 57.0204 233.763 56.4448V54.821C233.763 54.2454 234.235 53.7932 234.789 53.7932Z" fill="#8A2C5B"/>
<path d="M254.658 48.0994H255.294C255.869 48.0994 256.32 48.5516 256.32 49.1271V50.751C256.32 51.3265 255.869 51.7787 255.294 51.7787H254.658C254.083 51.7787 253.631 51.3265 253.631 50.751V49.1271C253.631 48.5721 254.083 48.0994 254.658 48.0994Z" fill="#1E1E1E"/>
<path d="M196.797 48.0994H226.99C227.564 48.0994 228.016 48.5516 228.016 49.1271V50.751C228.016 51.3265 227.564 51.7787 226.99 51.7787H196.797C196.222 51.7787 195.771 51.3265 195.771 50.751V49.1271C195.771 48.5516 196.222 48.0994 196.797 48.0994Z" fill="#1E1E1E"/>
<path d="M220.113 42.4055H236.493C237.067 42.4055 237.519 42.8577 237.519 43.4333V45.0571C237.519 45.6327 237.067 46.0849 236.493 46.0849H220.113C219.539 46.0849 219.087 45.6327 219.087 45.0571V43.4333C219.087 42.8577 219.559 42.4055 220.113 42.4055Z" fill="#1E1E1E"/>
<path d="M230.479 48.0786H251.168C251.743 48.0786 252.195 48.5308 252.195 49.1064V50.7508C252.195 51.3263 251.743 51.7785 251.168 51.7785H230.479C229.904 51.7785 229.453 51.3263 229.453 50.7508V49.1064C229.453 48.5514 229.904 48.0786 230.479 48.0786Z" fill="#8A2C5B"/>
<path d="M196.797 79.261H213.176C213.751 79.261 214.202 79.7132 214.202 80.2887V81.9126C214.202 82.4882 213.751 82.9404 213.176 82.9404H196.797C196.222 82.9404 195.771 82.4882 195.771 81.9126V80.2887C195.771 79.7338 196.222 79.261 196.797 79.261Z" fill="#1E1E1E"/>
<path d="M196.797 96.3424H214.838C215.413 96.3424 215.865 96.7946 215.865 97.3702V98.994C215.865 99.5696 215.413 100.022 214.838 100.022H196.797C196.222 100.022 195.771 99.5696 195.771 98.994V97.3702C195.771 96.8152 196.222 96.3424 196.797 96.3424Z" fill="#1E1E1E"/>
<path d="M201.867 90.6692H230.992C231.567 90.6692 232.018 91.1214 232.018 91.697V93.3208C232.018 93.8964 231.567 94.3486 230.992 94.3486H201.867C201.292 94.3486 200.84 93.8964 200.84 93.3208V91.697C200.84 91.1214 201.312 90.6692 201.867 90.6692Z" fill="#8A2C5B"/>
<path d="M234.789 90.6692H249.567C250.142 90.6692 250.594 91.1214 250.594 91.697V93.3208C250.594 93.8964 250.142 94.3486 249.567 94.3486H234.789C234.214 94.3486 233.763 93.8964 233.763 93.3208V91.697C233.763 91.1214 234.235 90.6692 234.789 90.6692Z" fill="#8A2C5B"/>
<path d="M254.658 84.9753H255.294C255.869 84.9753 256.32 85.4276 256.32 86.0031V87.627C256.32 88.2025 255.869 88.6547 255.294 88.6547H254.658C254.083 88.6547 253.631 88.2025 253.631 87.627V86.0031C253.631 85.4276 254.083 84.9753 254.658 84.9753Z" fill="#1E1E1E"/>
<path d="M259.337 79.261H259.974C260.548 79.261 261 79.7132 261 80.2887V81.9126C261 82.4882 260.548 82.9404 259.974 82.9404H259.337C258.763 82.9404 258.311 82.4882 258.311 81.9126V80.2887C258.311 79.7338 258.783 79.261 259.337 79.261Z" fill="#1E1E1E"/>
<path d="M196.797 84.9753H226.99C227.564 84.9753 228.016 85.4276 228.016 86.0031V87.627C228.016 88.2025 227.564 88.6547 226.99 88.6547H196.797C196.222 88.6547 195.771 88.2025 195.771 87.627V86.0031C195.771 85.4276 196.222 84.9753 196.797 84.9753Z" fill="#1E1E1E"/>
<path d="M216.255 79.261H236.493C237.067 79.261 237.519 79.7132 237.519 80.2887V81.9126C237.519 82.4882 237.067 82.9404 236.493 82.9404H216.255C215.68 82.9404 215.229 82.4882 215.229 81.9126V80.2887C215.229 79.7338 215.68 79.261 216.255 79.261Z" fill="#8A2C5B"/>
<path d="M239.962 79.261H256.341C256.915 79.261 257.367 79.7132 257.367 80.2887V81.9126C257.367 82.4882 256.915 82.9404 256.341 82.9404H239.962C239.387 82.9404 238.935 82.4882 238.935 81.9126V80.2887C238.935 79.7338 239.407 79.261 239.962 79.261Z" fill="#8A2C5B"/>
<path d="M216.255 73.7522H216.891C217.466 73.7522 217.917 74.2044 217.917 74.78V76.4038C217.917 76.9794 217.466 77.4316 216.891 77.4316H216.255C215.68 77.4316 215.229 76.9794 215.229 76.4038V74.78C215.229 74.225 215.68 73.7522 216.255 73.7522Z" fill="#8A2C5B"/>
<path d="M196.797 73.7522H213.176C213.751 73.7522 214.202 74.2044 214.202 74.78V76.4038C214.202 76.9794 213.751 77.4316 213.176 77.4316H196.797C196.222 77.4316 195.771 76.9794 195.771 76.4038V74.78C195.771 74.225 196.222 73.7522 196.797 73.7522Z" fill="#1E1E1E"/>
<path d="M220.113 73.7522H236.493C237.067 73.7522 237.519 74.2044 237.519 74.78V76.4038C237.519 76.9794 237.067 77.4316 236.493 77.4316H220.113C219.539 77.4316 219.087 76.9794 219.087 76.4038V74.78C219.087 74.225 219.559 73.7522 220.113 73.7522Z" fill="#1E1E1E"/>
<path d="M230.479 84.9548H251.168C251.743 84.9548 252.195 85.407 252.195 85.9826V87.627C252.195 88.2026 251.743 88.6548 251.168 88.6548H230.479C229.904 88.6548 229.453 88.2026 229.453 87.627V85.9826C229.453 85.407 229.904 84.9548 230.479 84.9548Z" fill="#8A2C5B"/>
<path d="M20.5457 162.201C19.109 162.201 17.7543 161.687 16.6664 160.742C15.4555 159.694 14.7371 158.255 14.6139 156.651C14.4908 155.069 15.0039 153.527 16.0507 152.314C17.0975 151.102 18.5343 150.382 20.1352 150.259C20.5047 150.238 20.8536 150.238 21.2231 150.279C21.5515 150.32 21.7978 150.629 21.7773 150.958C21.7362 151.287 21.4283 151.533 21.0999 151.513C20.8126 151.471 20.5252 151.472 20.2379 151.492C18.9653 151.595 17.8159 152.17 16.9949 153.116C16.1738 154.082 15.7633 155.295 15.866 156.569C15.9686 157.823 16.5433 158.974 17.4875 159.817C18.4522 160.639 19.6631 161.05 20.9357 160.947C21.2846 160.927 21.572 161.174 21.5925 161.523C21.6131 161.872 21.3667 162.16 21.0178 162.181C20.8536 162.201 20.7099 162.201 20.5457 162.201Z" fill="#1E1E1E"/>
<path d="M20.2583 148.964V166.6C20.2583 170.012 23.0087 172.767 26.4159 172.767H36.8017C40.2089 172.767 42.9593 170.012 42.9593 166.6V148.964H20.2583ZM29.4536 161.893C29.5768 161.975 29.6589 162.099 29.6589 162.263C29.6589 162.489 29.4742 162.674 29.2484 162.674C29.1868 162.674 29.1047 162.654 29.0431 162.612L24.9381 160.146C24.7328 160.043 24.6507 159.796 24.7328 159.591C24.7739 159.509 24.8354 159.426 24.9381 159.385L29.0431 156.919C29.1047 156.878 29.1868 156.857 29.2484 156.857C29.4742 156.857 29.6589 157.042 29.6589 157.268C29.6589 157.412 29.5768 157.556 29.4536 157.638L25.9233 159.755L29.4536 161.893ZM38.0948 160.146L33.9897 162.612C33.9282 162.654 33.8461 162.674 33.7845 162.674C33.6819 162.674 33.5587 162.633 33.4971 162.551C33.415 162.469 33.374 162.366 33.374 162.263C33.374 162.119 33.4561 161.975 33.5792 161.893L37.1096 159.776L33.5792 157.659C33.4561 157.576 33.374 157.453 33.374 157.289C33.374 157.062 33.5587 156.878 33.7845 156.878C33.8461 156.878 33.9282 156.898 33.9897 156.939L38.0948 159.406C38.3001 159.509 38.3822 159.755 38.3001 159.961C38.259 160.022 38.1974 160.084 38.0948 160.146Z" fill="#1E1E1E"/>
<path d="M58.333 142.489C58.1072 142.489 57.9019 142.366 57.7993 142.16L54.9873 137.062C54.8231 136.754 54.9258 136.384 55.2337 136.22C55.5415 136.055 55.911 136.158 56.0752 136.466L58.8872 141.564C59.0514 141.872 58.9487 142.242 58.6409 142.407C58.5382 142.448 58.4356 142.489 58.333 142.489Z" fill="#1E1E1E"/>
<path d="M67.672 143.023H52.1138C51.7649 143.023 51.498 142.756 51.498 142.407C51.498 142.057 51.7649 141.79 52.1138 141.79H67.672C68.0209 141.79 68.2878 142.057 68.2878 142.407C68.2878 142.756 68.0004 143.023 67.672 143.023Z" fill="#1E1E1E"/>
<path d="M65.5167 159.015C65.0446 158.543 64.2851 158.543 63.813 159.015C63.341 159.488 63.341 160.249 63.813 160.721C64.2851 161.194 65.0446 161.194 65.5167 160.721C65.7424 160.495 65.8656 160.187 65.8656 159.858C65.8656 159.55 65.7424 159.241 65.5167 159.015Z" fill="#1E1E1E"/>
<path d="M64.6546 157.206C65.3114 157.206 65.8656 156.672 65.8656 156.014C65.8656 155.357 65.3319 154.802 64.6751 154.802C64.0183 154.802 63.4641 155.336 63.4641 155.994C63.4641 156.323 63.5873 156.631 63.813 156.857C64.0388 157.083 64.3467 157.227 64.6546 157.206Z" fill="#1E1E1E"/>
<path d="M65.5166 164.586C65.9887 164.113 65.9887 163.352 65.5166 162.88C65.0446 162.407 64.2851 162.407 63.813 162.88C63.341 163.352 63.341 164.113 63.813 164.586C64.0388 164.812 64.3467 164.935 64.6751 164.935C64.983 164.935 65.2909 164.812 65.5166 164.586Z" fill="#1E1E1E"/>
<path d="M69.1908 146.127L66.4609 142.571H53.3042L50.5743 146.127C50.3075 146.456 50.1638 146.867 50.1638 147.278V168.923C50.1843 169.622 50.5743 170.28 51.1901 170.629C52.0316 171.163 53.1195 171.965 53.181 172.746H66.5841C66.6662 171.965 67.7335 171.143 68.575 170.629C69.1908 170.28 69.5603 169.642 69.5808 168.923V147.278C69.6013 146.867 69.4576 146.456 69.1908 146.127ZM63.4848 150.279L64.9215 147.874C64.9626 147.792 65.0447 147.751 65.1268 147.731C65.2089 147.731 65.3115 147.792 65.3526 147.874L66.7893 150.279C66.8099 150.32 66.8304 150.362 66.8099 150.403C66.8099 150.464 66.7893 150.526 66.7483 150.567C66.7072 150.608 66.6457 150.649 66.5841 150.629C66.502 150.629 66.4199 150.588 66.3788 150.505L65.1473 148.45L63.9158 150.505C63.8747 150.588 63.7926 150.629 63.7105 150.629C63.649 150.629 63.5874 150.608 63.5463 150.567C63.5053 150.526 63.4642 150.464 63.4642 150.403C63.4437 150.362 63.4642 150.32 63.4848 150.279ZM63.5669 151.184C63.6079 151.163 63.649 151.143 63.7105 151.143C63.7721 151.143 63.8337 151.163 63.8747 151.204C63.9158 151.245 63.9363 151.307 63.9363 151.369C63.9363 151.43 63.9158 151.492 63.8747 151.533L63.7926 151.615C63.5669 151.842 63.4437 152.15 63.4437 152.479C63.4232 152.787 63.5463 153.075 63.7516 153.28C63.8132 153.322 63.8747 153.363 63.9568 153.342C64.0389 153.342 64.121 153.28 64.1416 153.198L64.6342 151.718C64.6752 151.574 64.7573 151.451 64.8394 151.328C64.9626 151.184 65.1473 151.122 65.3526 151.122C65.5578 151.122 65.7425 151.204 65.8657 151.348C66.1736 151.657 66.3173 152.068 66.2967 152.479C66.2967 152.972 66.071 153.465 65.681 153.774C65.6399 153.815 65.5989 153.815 65.5373 153.815C65.4141 153.815 65.291 153.712 65.291 153.589C65.291 153.527 65.3115 153.465 65.3526 153.424L65.4347 153.342C65.6604 153.116 65.7836 152.808 65.7836 152.479C65.8041 152.17 65.681 151.883 65.4757 151.677C65.4141 151.636 65.3526 151.595 65.2705 151.615C65.1884 151.615 65.1063 151.677 65.0857 151.759L64.5931 153.239C64.5521 153.383 64.4905 153.507 64.3879 153.63C64.2647 153.774 64.08 153.835 63.8747 153.835C63.6695 153.835 63.4848 153.753 63.3616 153.609C63.0537 153.301 62.9101 152.89 62.9306 152.479C62.9716 151.985 63.1974 151.513 63.5669 151.184ZM63.4642 154.822C64.121 154.164 65.1884 154.164 65.8452 154.822C66.502 155.48 66.502 156.549 65.8452 157.206C65.1884 157.864 64.121 157.864 63.4642 157.206C63.1564 156.898 62.9716 156.467 62.9716 156.014C62.9716 155.562 63.1358 155.13 63.4642 154.822ZM63.0332 165.346C62.9306 165.244 62.9511 165.1 63.0332 164.997C63.0743 164.956 63.1358 164.935 63.1974 164.935H63.4642C62.8074 164.278 62.7869 163.209 63.4437 162.551C64.1005 161.893 65.1678 161.873 65.8246 162.53C66.4815 163.188 66.502 164.257 65.8452 164.915C65.5168 165.244 65.0857 165.429 64.6342 165.429H63.1974C63.1564 165.429 63.0948 165.387 63.0332 165.346ZM66.7893 166.271L65.3526 168.676C65.3115 168.759 65.2294 168.8 65.1268 168.82C65.0447 168.82 64.9626 168.759 64.9215 168.676L63.4848 166.271C63.4642 166.23 63.4437 166.189 63.4642 166.148C63.4642 166.086 63.4848 166.025 63.5463 165.984C63.5874 165.942 63.649 165.901 63.7105 165.922C63.7926 165.922 63.8747 165.963 63.9158 166.045L65.1473 168.101L66.3788 166.045C66.4199 165.963 66.502 165.922 66.5841 165.922C66.7072 165.922 66.8304 166.025 66.8304 166.169C66.8304 166.189 66.8099 166.23 66.7893 166.271ZM67.7335 161.482C67.6925 161.523 67.6309 161.544 67.5693 161.544H64.6547C63.7311 161.544 62.9716 160.783 62.9716 159.858C62.9716 158.933 63.7311 158.173 64.6547 158.173C65.5783 158.173 66.3378 158.933 66.3378 159.858C66.3378 160.31 66.1531 160.742 65.8452 161.05L65.8246 161.071H67.5488C67.6104 161.071 67.6719 161.091 67.713 161.133C67.754 161.174 67.7951 161.235 67.7951 161.297C67.7951 161.379 67.7746 161.441 67.7335 161.482Z" fill="#1E1E1E"/>
<path d="M120.094 85.5509C120.094 85.5509 120.073 85.5509 120.094 85.5509C119.724 85.5303 119.457 85.2631 119.478 84.9136C119.601 80.8026 119.314 77.8426 118.657 76.5477C117.672 74.636 117.774 72.6011 118.883 71.7994C119.334 71.4705 120.607 70.9361 122.598 73.0122C124.445 74.9238 125.348 77.4521 125.779 79.2198C125.861 79.5487 125.656 79.8776 125.327 79.9598C124.999 80.0421 124.671 79.8365 124.589 79.5076C124.199 77.8838 123.378 75.5816 121.736 73.8755C120.832 72.9505 120.011 72.5394 119.621 72.8272C119.17 73.1561 119.006 74.5127 119.765 75.9927C120.73 77.8838 120.832 81.9126 120.73 84.9548C120.689 85.2836 120.422 85.5509 120.094 85.5509Z" fill="#1E1E1E"/>
<path d="M145.935 81.2959C142.651 81.2959 139.962 78.6237 139.962 75.3143C139.962 72.0049 142.63 69.3328 145.935 69.3328C149.24 69.3328 151.908 72.0049 151.908 75.3143C151.908 78.6237 149.219 81.2959 145.935 81.2959ZM145.935 70.5661C143.328 70.5661 141.194 72.6833 141.194 75.3143C141.194 77.9454 143.308 80.0626 145.935 80.0626C148.562 80.0626 150.676 77.9454 150.676 75.3143C150.676 72.6833 148.542 70.5661 145.935 70.5661Z" fill="#1E1E1E"/>
<path d="M111.268 174C110.939 174 110.673 173.753 110.652 173.424C110.632 173.075 110.878 172.787 111.227 172.767C116.707 172.356 121.264 164.956 124.774 150.773C127.647 139.159 129.002 125.983 129.576 120.351C129.802 118.151 129.884 117.37 129.966 117.103C130.48 115.418 129.864 114.493 129.145 113.403C128.53 112.478 127.832 111.43 128.078 109.909C128.365 108.1 128.304 106.969 128.242 106.414C121.797 105.099 115.783 98.2128 114.203 96.3011C113.772 96.6506 113.033 97.2467 111.863 98.2539C110.714 99.2405 109.482 99.0967 108.415 98.9733C107.224 98.8294 106.178 98.7061 105.069 99.9805C103.838 101.399 92.2409 120.741 86.2885 130.752C86.1243 131.039 85.7343 131.142 85.447 130.957C85.1596 130.793 85.057 130.402 85.2417 130.115C85.9396 128.922 102.545 101.029 104.146 99.1583C105.685 97.3906 107.286 97.5756 108.559 97.74C109.544 97.8633 110.324 97.9456 111.063 97.3083C113.156 95.52 113.916 94.9651 113.936 94.9445C114.203 94.7389 114.572 94.8006 114.778 95.0678C114.839 95.15 121.838 104.133 128.858 105.284C129.104 105.325 129.289 105.489 129.351 105.736C129.371 105.798 129.72 107.175 129.269 110.114C129.104 111.163 129.597 111.882 130.151 112.725C130.89 113.835 131.814 115.212 131.116 117.452C131.054 117.658 130.931 118.974 130.767 120.474C130.192 126.127 128.817 139.385 125.923 151.081C122.269 165.84 117.343 173.568 111.268 174.02C111.309 174 111.288 174 111.268 174Z" fill="#1E1E1E"/>
<path d="M129.33 109.909C129.843 106.846 130.048 105.531 130.048 105.531C122.228 104.318 114.162 94.4513 114.162 94.4513C114.162 94.4513 113.361 95.0474 111.104 97.0001C110.2 97.7812 109.256 97.7812 108.271 97.699C107.573 106.271 122.947 113.897 130.213 114.267C129.741 112.19 128.94 112.232 129.33 109.909Z" fill="#1E1E1E"/>
<path d="M75.6153 126.188C75.4511 126.188 75.2664 126.106 75.1432 125.983C74.9174 125.716 74.9585 125.346 75.2048 125.12C75.5948 124.77 84.9543 116.815 90.6603 122.18C90.9066 122.406 90.9272 122.797 90.6809 123.044C90.4551 123.29 90.0651 123.311 89.8188 123.064C84.9132 118.46 76.1079 125.962 76.0053 126.045C75.9026 126.147 75.759 126.188 75.6153 126.188Z" fill="#1E1E1E"/>
<path d="M126.621 111.553C126.518 111.553 126.415 111.533 126.313 111.471L110.796 102.447C110.508 102.283 110.406 101.913 110.57 101.625C111.576 99.6928 120.463 82.7758 122.392 81.0903C123.993 79.6925 134.338 72.601 136.124 72.4365C137.171 72.3338 138.258 73.0737 138.628 74.1015C139.018 75.1909 138.484 76.342 137.232 77.1642C136.699 77.5137 136.021 77.9248 135.303 78.3359C137.458 77.7192 139.49 77.2465 140.188 77.4315C141.05 77.6576 141.604 78.4181 141.645 79.4048C141.666 80.4531 141.029 81.7275 139.593 82.488C140.373 82.3441 140.968 82.2825 141.235 82.303C142.076 82.3647 142.795 83.1869 142.856 84.1736C142.897 84.7902 142.712 86.6607 139.346 87.7707C139.757 87.7502 140.106 87.7502 140.332 87.7707C141.194 87.853 141.768 88.5929 141.727 89.5385C141.645 91.1829 139.777 93.1151 134.79 93.1973L127.175 111.204C127.113 111.368 126.97 111.491 126.805 111.553C126.744 111.533 126.682 111.553 126.621 111.553ZM111.924 101.666L126.313 110.053L133.804 92.3134C133.907 92.0873 134.133 91.9434 134.379 91.9434C134.379 91.9434 134.4 91.9434 134.42 91.9434C138.792 91.9434 140.455 90.4635 140.496 89.4563C140.496 89.2302 140.414 88.9835 140.229 88.9835C138.997 88.8807 133.353 89.6001 131.28 89.9085C131.054 89.929 130.828 89.8468 130.705 89.6618C130.561 89.4768 130.541 89.2507 130.644 89.0452C130.767 88.7779 131.013 88.2024 137.458 86.9691C140.639 86.373 141.707 85.1602 141.645 84.2352C141.625 83.8036 141.358 83.5364 141.173 83.5158C140.27 83.4541 134.051 84.9136 130.336 85.8385C130.028 85.9208 129.699 85.7358 129.597 85.4274C129.494 85.1191 129.679 84.7697 129.987 84.6669L138.341 81.6864H138.361C139.839 81.2136 140.475 80.227 140.455 79.4253C140.455 79.2609 140.393 78.747 139.921 78.6237C139.285 78.4592 135.18 79.5075 129.453 81.5219C129.145 81.6247 128.817 81.4808 128.694 81.1931C128.571 80.9053 128.694 80.5558 128.981 80.3914C129.043 80.3709 134.194 77.7192 136.596 76.1365C137.047 75.8487 137.766 75.232 137.499 74.5126C137.335 74.0193 136.76 73.6287 136.288 73.6698C135.118 73.8137 125.471 80.1036 123.254 82.0358C121.9 83.1458 115.845 94.184 111.924 101.666Z" fill="#1E1E1E"/>
<path d="M102.257 162.201C101.662 162.201 101.087 162.119 100.512 161.934C100.184 161.831 99.9992 161.482 100.102 161.174C100.204 160.845 100.553 160.66 100.861 160.762C101.415 160.927 102.011 161.009 102.606 160.968C105.213 160.783 107.183 158.501 106.978 155.891C106.896 154.637 106.3 153.465 105.356 152.643C104.392 151.821 103.181 151.41 101.908 151.492C101.662 151.513 101.395 151.554 101.149 151.615C100.82 151.698 100.492 151.492 100.41 151.163C100.328 150.834 100.533 150.505 100.861 150.423C101.169 150.341 101.498 150.3 101.805 150.279C103.406 150.156 104.946 150.67 106.136 151.718C107.347 152.766 108.066 154.205 108.189 155.809C108.435 159.097 105.952 161.955 102.668 162.201C102.544 162.201 102.401 162.201 102.257 162.201Z" fill="#1E1E1E"/>
<path d="M78.8171 148.964V166.6C78.8171 170.012 81.5675 172.767 84.9747 172.767H95.3605C98.7677 172.767 101.518 170.012 101.518 166.6V148.964H78.8171ZM87.992 161.893C88.1151 161.975 88.1972 162.099 88.1972 162.263C88.1972 162.489 88.0125 162.674 87.7867 162.674C87.7251 162.674 87.643 162.654 87.5814 162.612L83.4764 160.146C83.2711 160.043 83.189 159.796 83.2711 159.591C83.3122 159.509 83.3738 159.426 83.4764 159.385L87.5814 156.919C87.643 156.878 87.7251 156.857 87.7867 156.857C87.8893 156.857 87.992 156.898 88.0741 156.98C88.1562 157.062 88.1972 157.165 88.1972 157.268C88.1972 157.412 88.1151 157.556 87.992 157.638L84.4616 159.755L87.992 161.893ZM93.1233 155.809L89.8187 164.092C89.7982 164.133 89.7777 164.175 89.7366 164.195C89.6545 164.277 89.5519 164.318 89.4492 164.318C89.2235 164.318 89.0387 164.133 89.0387 163.907C89.0387 163.846 89.0593 163.784 89.0798 163.743L92.3844 155.459C92.4049 155.418 92.4459 155.377 92.4665 155.336C92.5486 155.254 92.6512 155.213 92.7538 155.213C92.9796 155.213 93.1643 155.398 93.1643 155.624C93.1643 155.685 93.1643 155.747 93.1233 155.809ZM98.7267 160.125L94.6216 162.592C94.5601 162.633 94.478 162.654 94.4164 162.654C94.1906 162.654 94.0059 162.469 94.0059 162.242C94.0059 162.099 94.088 161.955 94.2111 161.872L97.7415 159.755L94.2111 157.638C94.088 157.556 94.0059 157.432 94.0059 157.268C94.0059 157.165 94.0469 157.042 94.129 156.98C94.2111 156.898 94.3137 156.857 94.4164 156.857C94.478 156.857 94.5601 156.878 94.6216 156.919L98.7267 159.385C98.9319 159.488 99.014 159.735 98.9319 159.94C98.8909 160.002 98.8088 160.084 98.7267 160.125Z" fill="#1E1E1E"/>
<path d="M258.044 173.918H0.61576C0.266829 173.918 0 173.651 0 173.301C0 172.952 0.266829 172.684 0.61576 172.684H258.044C258.393 172.684 258.66 172.952 258.66 173.301C258.66 173.651 258.393 173.918 258.044 173.918Z" fill="#1E1E1E"/>
<path d="M145.853 85.7153L144.724 68.12L122.064 69.5794L122.844 81.4809C124.856 79.7543 134.749 73.1355 136.186 73.0121C137.622 72.8888 139.347 74.9854 136.883 76.6093C134.42 78.2332 129.207 80.9054 129.207 80.9054C133.538 79.3843 139.018 77.7398 140.044 78.0071C141.604 78.4182 141.502 81.2959 138.526 82.2414L130.172 85.222C130.172 85.222 139.901 82.7759 141.214 82.8787C142.528 82.9814 143.677 86.3936 137.561 87.5447C131.444 88.6958 131.198 89.2508 131.198 89.2508C131.198 89.2508 138.731 88.1819 140.291 88.3258C141.851 88.4697 141.892 92.5396 134.4 92.5191L134.359 92.6218L140.126 92.2518C143.493 92.0463 146.079 89.1274 145.853 85.7153Z" fill="#1E1E1E"/>
</g>
<defs>
<clipPath id="clip0">
<rect width="261" height="174" fill="white"/>
</clipPath>
</defs>
</svg>
