<svg width="222" height="36" viewBox="0 0 222 36" fill="none" xmlns="http://www.w3.org/2000/svg">
<path d="M31.2274 22.2726L15.1992 11.3466V11.3933L15.1531 11.3466L0 21.5723V26.8485L15.1992 16.6228L31.1813 27.5022L31.2274 27.5489L62.7772 7.09755V1.82129L31.2274 22.2726Z" fill="#722D5C"/>
<path d="M57.112 13.9609L31.2274 30.6302L15.1992 19.7041H15.1531L0 29.9298V35.2061L15.1992 24.9337L31.1813 35.8131L31.2274 35.9065L57.112 19.1905V13.9609Z" fill="#4E2D5E"/>
<path d="M31.2274 13.9144L15.1992 2.98833V3.03502L15.1531 2.98833L0 13.214V18.4903L15.1992 8.26459L31.1813 19.144L31.2274 19.1907L53.2892 5.27626V0L31.2274 13.9144Z" fill="#8A2C5B"/>
<path d="M77.1472 1.16748H98.38V4.90289H89.8132V24.6072H85.7601V4.94958H77.1472V1.16748Z" fill="#2A2729"/>
<path d="M111.138 0.74707C112.934 0.74707 114.593 1.02723 116.066 1.63423C117.54 2.24123 118.83 3.0817 119.889 4.15563C120.995 5.32295 121.824 6.63034 122.422 8.1245C123.021 9.61867 123.298 11.2062 123.298 12.8871C123.298 14.5681 123.021 16.1556 122.468 17.6031C121.916 19.0506 121.087 20.3113 120.027 21.4319C118.922 22.5992 117.632 23.4864 116.112 24.0934C114.639 24.7471 112.934 25.0272 111.092 25.0272C109.25 25.0272 107.546 24.6537 106.026 23.9533C104.506 23.2529 103.17 22.2724 102.111 21.1051C101.144 20.0311 100.361 18.7704 99.7618 17.3696C99.1631 15.9222 98.8867 14.428 98.8867 12.8871C98.8867 11.2529 99.1631 9.71205 99.7158 8.26458C100.268 6.81711 101.098 5.55641 102.111 4.48248C103.17 3.31516 104.506 2.38131 106.026 1.72762C107.592 1.07392 109.296 0.74707 111.138 0.74707ZM103.078 12.8871C103.078 14.0545 103.262 15.1284 103.677 16.1089C104.091 17.0895 104.598 17.9766 105.289 18.677C106.026 19.4708 106.855 20.1245 107.868 20.5914C108.881 21.0584 109.987 21.2918 111.184 21.2918C112.336 21.2918 113.441 21.0584 114.454 20.6381C115.468 20.2179 116.343 19.5642 117.08 18.7704C117.724 18.0233 118.277 17.1829 118.646 16.2023C119.014 15.2218 119.244 14.1012 119.244 12.9338C119.244 11.7198 119.06 10.5992 118.646 9.57197C118.231 8.59143 117.724 7.70427 117.034 7.00388C116.297 6.21011 115.422 5.6031 114.408 5.18287C113.395 4.76264 112.336 4.52917 111.184 4.52917C110.033 4.52917 108.927 4.76264 107.914 5.18287C106.901 5.6031 106.026 6.2568 105.289 7.05057C104.598 7.79765 104.091 8.63812 103.677 9.61867C103.262 10.5992 103.078 11.7198 103.078 12.8871Z" fill="#2A2729"/>
<path d="M146.327 9.75892C146.327 10.9729 146.096 12.0935 145.636 13.1208C145.175 14.148 144.576 15.0352 143.839 15.7823C143.01 16.576 142.089 17.183 141.03 17.6033C139.971 18.0235 138.865 18.257 137.622 18.257H130.621V24.6072H126.429V1.16748H137.668C139.049 1.16748 140.293 1.44764 141.444 2.00795C142.596 2.56826 143.609 3.31534 144.438 4.29588C145.037 5.04297 145.498 5.88343 145.866 6.77059C146.188 7.70444 146.327 8.68499 146.327 9.75892ZM137.806 14.5216C138.451 14.5216 139.049 14.3815 139.648 14.1013C140.247 13.8212 140.707 13.4476 141.076 13.0274C141.398 12.5605 141.675 12.0469 141.905 11.4865C142.135 10.8795 142.273 10.3192 142.273 9.80561C142.273 8.49822 141.905 7.42429 141.122 6.58382C140.707 6.0702 140.201 5.69666 139.602 5.41651C139.003 5.13635 138.312 4.99627 137.576 4.99627H130.713V14.4749H137.806V14.5216Z" fill="#2A2729"/>
<path d="M167.421 24.6072H149.412V1.16748H153.558V20.8718H167.421V24.6072Z" fill="#2A2729"/>
<path d="M174.376 24.6072H170.323V1.16748H174.376V24.6072Z" fill="#2A2729"/>
<path d="M199.662 1.16748V24.6072H195.839L182.252 7.75114V24.6072H178.199V1.16748H182.022L195.701 18.0702V1.16748H199.662Z" fill="#2A2729"/>
<path d="M203.531 1.16748H221.447V4.99627H207.63V10.4593H219.974V14.1947H207.63V20.8251H222V24.5605H203.531V1.16748Z" fill="#2A2729"/>
<path d="M77.7461 30.5374V32.6386H78.483C78.6212 32.6386 78.7133 32.5919 78.8515 32.5452C78.8976 32.4985 78.9436 32.4985 78.9897 32.4518C79.0357 32.4051 79.0357 32.3584 79.0818 32.3117L79.6805 31.2378C79.7266 31.0977 79.8187 31.0043 79.9108 30.911C80.003 30.8176 80.0951 30.7242 80.1872 30.6775C80.2793 30.6308 80.4175 30.5374 80.5096 30.5374C80.6478 30.4907 80.7859 30.4907 80.9702 30.4907C81.0623 30.4907 81.1544 30.4907 81.2465 30.4907C81.3386 30.4907 81.4307 30.5374 81.5229 30.5374L81.4308 31.3312H81.2005C81.1083 31.3312 81.0162 31.3312 80.9241 31.3312C80.832 31.3312 80.7859 31.3779 80.7399 31.4246C80.6938 31.4713 80.6478 31.4713 80.6017 31.518C80.5556 31.5647 80.5096 31.6113 80.5096 31.658L79.9108 32.6853C79.8648 32.732 79.8648 32.7787 79.8187 32.872C79.7727 32.9187 79.7266 33.0121 79.6805 33.0588L81.5229 35.9538H80.4175L78.8976 33.479C78.8054 33.5257 78.6673 33.5257 78.5752 33.5257H77.7922V35.9538H76.825V30.5374H77.7461Z" fill="#A7A9AC"/>
<path d="M85.2995 30.4438C85.7141 30.4438 86.0825 30.4905 86.4049 30.6306C86.7273 30.7707 87.0497 30.9575 87.28 31.1909C87.5103 31.4711 87.7406 31.7512 87.8788 32.0781C88.017 32.4049 88.063 32.7785 88.063 33.152C88.063 33.5256 88.017 33.8991 87.8788 34.226C87.7406 34.5528 87.5564 34.833 87.3261 35.1131C87.0958 35.3933 86.7734 35.58 86.451 35.7201C86.1286 35.8602 85.7141 35.9536 85.2995 35.9536C84.885 35.9536 84.4705 35.8602 84.1481 35.7201C83.7796 35.5333 83.5033 35.3466 83.2269 35.0664C82.9966 34.833 82.8124 34.5528 82.6742 34.226C82.536 33.8991 82.49 33.5723 82.49 33.1987C82.49 32.8252 82.536 32.4516 82.6742 32.1248C82.8124 31.7979 82.9966 31.5178 83.2269 31.2376C83.4572 30.9575 83.7796 30.7707 84.102 30.5839C84.4705 30.4905 84.839 30.4438 85.2995 30.4438ZM83.4112 33.1987C83.4112 33.4789 83.4572 33.7123 83.5493 33.9458C83.6414 34.1793 83.7796 34.366 83.9178 34.5528C84.102 34.7396 84.2863 34.8797 84.5165 34.973C84.7468 35.0664 85.0232 35.1131 85.2535 35.1131C85.5298 35.1131 85.7601 35.0664 85.9904 34.973C86.2207 34.8797 86.4049 34.7396 86.5892 34.5528C86.7273 34.366 86.8655 34.1793 86.9576 33.9458C87.0497 33.7123 87.0958 33.4789 87.0958 33.1987C87.0958 32.9186 87.0497 32.6851 86.9576 32.4516C86.8655 32.2182 86.7273 32.0314 86.5892 31.8446C86.4049 31.6579 86.2207 31.5178 85.9904 31.4244C85.7601 31.331 85.5298 31.2843 85.2535 31.2843C84.9771 31.2843 84.7468 31.331 84.5165 31.4244C84.2863 31.5178 84.102 31.6579 83.9178 31.8446C83.7796 32.0314 83.6414 32.2182 83.5493 32.4516C83.4572 32.6851 83.4112 32.9186 83.4112 33.1987Z" fill="#A7A9AC"/>
<path d="M94.3271 30.5371V35.9068H93.3599V33.4787H90.5964V35.9068H89.6292V30.5371H90.5964V32.5916H93.3599V30.5371H94.3271Z" fill="#A7A9AC"/>
<path d="M96.8602 33.1987C96.8602 33.4788 96.9063 33.759 96.9984 33.9924C97.0905 34.2259 97.2287 34.4127 97.3668 34.5527C97.5511 34.7395 97.7353 34.8796 97.9656 34.973C98.1959 35.0664 98.4262 35.113 98.7025 35.113C99.0249 35.113 99.3013 35.0664 99.5316 34.9263C99.7619 34.8329 100.038 34.6461 100.268 34.4594L100.821 35.113C100.499 35.4399 100.176 35.6267 99.854 35.7667C99.5316 35.9068 99.117 35.9535 98.6565 35.9535C98.2419 35.9535 97.8735 35.9068 97.5511 35.7201C97.2287 35.58 96.9063 35.3932 96.676 35.113C96.3996 34.8796 96.2154 34.5527 96.0772 34.2259C95.939 33.899 95.8469 33.5255 95.8469 33.1053C95.8469 32.7317 95.893 32.3582 96.0772 32.0313C96.2154 31.7045 96.3996 31.3776 96.676 31.1442C96.9063 30.9107 97.2287 30.6773 97.5511 30.5372C97.8735 30.3971 98.288 30.3037 98.7025 30.3037C99.1631 30.3037 99.5316 30.3971 99.9 30.5372C100.222 30.6773 100.545 30.9107 100.867 31.1909L100.315 31.8446C100.084 31.6111 99.854 31.471 99.5776 31.3776C99.3473 31.2843 99.0249 31.1909 98.7486 31.1909C98.4722 31.1909 98.2419 31.2376 98.0117 31.3309C97.7814 31.4243 97.5971 31.5644 97.4129 31.7512C97.2287 31.938 97.1365 32.1247 96.9984 32.3582C96.9063 32.685 96.8602 32.9185 96.8602 33.1987Z" fill="#A7A9AC"/>
<path d="M105.611 30.5371L107.96 35.9068H106.947L106.486 34.9262H103.677L103.262 35.9068H102.249L104.598 30.5371H105.611ZM104.045 34.0391H106.164L105.151 31.471H105.013L104.045 34.0391Z" fill="#A7A9AC"/>
<path d="M114.777 30.5372V35.9069H113.856V31.3777H111.829L111.369 34.6929C111.323 34.8797 111.276 35.0664 111.23 35.2065C111.138 35.3466 111.092 35.4867 110.954 35.58C110.724 35.7668 110.401 35.9069 110.033 35.9069C109.895 35.9069 109.757 35.9069 109.618 35.8602C109.48 35.8602 109.342 35.8135 109.204 35.7668L109.388 34.973C109.48 35.0197 109.572 35.0197 109.664 35.0197C109.757 35.0197 109.803 35.0197 109.895 35.0197C109.987 35.0197 110.033 35.0197 110.125 34.973C110.217 34.9263 110.263 34.9263 110.309 34.8796C110.401 34.7863 110.493 34.5995 110.493 34.4127L111.046 30.4438H114.777V30.5372Z" fill="#A7A9AC"/>
<path d="M116.297 30.5371H121.179V31.3776H119.198V35.9068H118.277V31.3776H116.297V30.5371Z" fill="#A7A9AC"/>
<path d="M123.62 34.4593L126.66 30.5371H127.535V35.9068H126.614V31.9846L123.574 35.9068H122.699V30.5371H123.62V34.4593Z" fill="#A7A9AC"/>
<path d="M133.983 30.5371V35.9068H133.016V33.4787H130.252V35.9068H129.285V30.5371H130.252V32.5916H133.016V30.5371H133.983Z" fill="#A7A9AC"/>
<path d="M136.654 35.9068H135.687V30.5371H139.694V31.3776H136.608V35.9068H136.654Z" fill="#A7A9AC"/>
<path d="M143.471 30.4438C143.885 30.4438 144.254 30.4905 144.576 30.6306C144.899 30.7707 145.221 30.9575 145.451 31.1909C145.682 31.4711 145.912 31.7512 146.05 32.0781C146.188 32.4049 146.234 32.7785 146.234 33.152C146.234 33.5256 146.188 33.8991 146.05 34.226C145.912 34.5528 145.728 34.833 145.497 35.1131C145.267 35.3933 144.945 35.58 144.622 35.7201C144.3 35.8602 143.885 35.9536 143.471 35.9536C143.056 35.9536 142.642 35.8602 142.319 35.7201C141.951 35.5333 141.675 35.3466 141.398 35.0664C141.168 34.833 140.984 34.5528 140.846 34.226C140.707 33.8991 140.661 33.5723 140.661 33.1987C140.661 32.8252 140.707 32.4516 140.846 32.1248C140.984 31.7979 141.168 31.5178 141.398 31.2376C141.629 30.9575 141.951 30.7707 142.273 30.5839C142.642 30.4905 143.056 30.4438 143.471 30.4438ZM141.629 33.1987C141.629 33.4789 141.675 33.7123 141.767 33.9458C141.859 34.1793 141.997 34.366 142.135 34.5528C142.319 34.7396 142.504 34.8797 142.734 34.973C142.964 35.0664 143.241 35.1131 143.471 35.1131C143.747 35.1131 143.978 35.0664 144.208 34.973C144.438 34.8797 144.622 34.7396 144.807 34.5528C144.945 34.366 145.083 34.1793 145.175 33.9458C145.267 33.7123 145.313 33.4789 145.313 33.1987C145.313 32.9186 145.267 32.6851 145.175 32.4516C145.083 32.2182 144.945 32.0314 144.807 31.8446C144.622 31.6579 144.438 31.5178 144.208 31.4244C143.978 31.331 143.747 31.2843 143.471 31.2843C143.195 31.2843 142.964 31.331 142.734 31.4244C142.504 31.5178 142.319 31.6579 142.135 31.8446C141.997 32.0314 141.859 32.2182 141.767 32.4516C141.675 32.6851 141.629 32.9186 141.629 33.1987Z" fill="#A7A9AC"/>
<path d="M147.846 35.9068V30.5371H150.564C150.794 30.5371 151.024 30.5838 151.209 30.6305C151.439 30.7239 151.577 30.8173 151.761 30.9573C151.9 31.0974 151.992 31.2375 152.038 31.3776C152.084 31.5177 152.13 31.7044 152.13 31.8912C152.13 31.9846 152.13 32.078 152.084 32.1714C152.084 32.2647 152.038 32.3581 151.992 32.4515C151.9 32.5916 151.761 32.7317 151.623 32.8251V32.8717C151.854 32.9651 151.992 33.1052 152.176 33.292C152.36 33.5254 152.452 33.8523 152.452 34.1791C152.452 34.4126 152.406 34.6461 152.314 34.8328C152.222 35.0196 152.13 35.2064 151.946 35.3465C151.761 35.4865 151.577 35.6266 151.393 35.72C151.163 35.8134 150.932 35.8601 150.702 35.8601H147.846V35.9068ZM151.255 31.9846C151.255 31.7978 151.209 31.6577 151.071 31.5177C150.932 31.3776 150.748 31.3309 150.564 31.3309H148.814V32.5916H150.702C150.794 32.5916 150.84 32.5916 150.932 32.5449C150.978 32.4982 151.071 32.4515 151.117 32.4048C151.209 32.3114 151.255 32.1714 151.255 31.9846ZM151.531 34.2258C151.531 33.9924 151.485 33.8056 151.347 33.7122C151.255 33.6188 151.163 33.5721 151.071 33.5254C150.978 33.4787 150.84 33.4321 150.748 33.4321H148.814V35.0663H150.748C150.886 35.0663 150.978 35.0196 151.071 34.9729C151.163 34.9262 151.255 34.8795 151.347 34.7861C151.393 34.7394 151.439 34.6461 151.485 34.5527C151.531 34.4593 151.531 34.3659 151.531 34.2258Z" fill="#A7A9AC"/>
<path d="M157.104 30.5371L159.453 35.9068H158.44L157.979 34.9262H155.17L154.755 35.9068H153.742L156.091 30.5371H157.104ZM155.538 34.0391H157.657L156.644 31.471H156.551L155.538 34.0391Z" fill="#A7A9AC"/>
<path d="M160.835 32.4985C160.835 32.2183 160.881 31.9849 160.973 31.7514C161.065 31.518 161.203 31.3312 161.342 31.1444C161.526 30.9576 161.756 30.8176 162.032 30.6775C162.309 30.5841 162.585 30.4907 162.861 30.4907H165.441V35.8604H164.473V34.4129H162.815C162.677 34.6464 162.493 34.8798 162.355 35.1133C162.217 35.3468 162.032 35.6269 161.894 35.8604H160.789L161.894 34.2261C161.756 34.1327 161.618 34.0394 161.48 33.946C161.342 33.8526 161.249 33.7125 161.157 33.5724C160.973 33.2923 160.835 32.9187 160.835 32.4985ZM161.802 32.4985C161.802 32.6386 161.802 32.732 161.848 32.872C161.894 33.0121 161.94 33.1055 161.986 33.1522C162.078 33.2923 162.171 33.3857 162.355 33.479C162.493 33.5724 162.677 33.6191 162.907 33.6191H164.52V31.4246H162.907C162.723 31.4246 162.539 31.4713 162.401 31.5647C162.263 31.658 162.124 31.7514 162.032 31.8915C161.894 31.9849 161.802 32.2183 161.802 32.4985Z" fill="#A7A9AC"/>
<path d="M171.705 30.5374V32.6386H172.442C172.58 32.6386 172.718 32.5919 172.81 32.5452C172.856 32.4985 172.902 32.4985 172.948 32.4518C172.994 32.4051 172.994 32.3584 173.04 32.3117L173.639 31.2378C173.685 31.0977 173.777 31.0043 173.869 30.911C173.961 30.8176 174.054 30.7242 174.146 30.6775C174.238 30.6308 174.376 30.5374 174.468 30.5374C174.606 30.4907 174.744 30.4907 174.929 30.4907C175.021 30.4907 175.113 30.4907 175.205 30.4907C175.297 30.4907 175.389 30.5374 175.481 30.5374L175.389 31.3312H175.159C175.067 31.3312 174.975 31.3312 174.883 31.3312C174.791 31.3312 174.744 31.3779 174.698 31.4246C174.652 31.4713 174.606 31.4713 174.56 31.518C174.514 31.5647 174.468 31.6113 174.468 31.658L173.869 32.6853C173.823 32.732 173.823 32.7787 173.777 32.872C173.731 32.9187 173.685 33.0121 173.639 33.0588L175.481 35.9538H174.376L172.856 33.479C172.764 33.5257 172.626 33.5257 172.534 33.5257H171.751V35.9538H170.783V30.5374H171.705Z" fill="#A7A9AC"/>
<path d="M179.212 30.4438C179.627 30.4438 179.995 30.4905 180.318 30.6306C180.64 30.7707 180.962 30.9575 181.193 31.1909C181.423 31.4711 181.653 31.7512 181.791 32.0781C181.93 32.4049 181.976 32.7785 181.976 33.152C181.976 33.5256 181.93 33.8991 181.791 34.226C181.653 34.5528 181.469 34.833 181.239 35.1131C181.008 35.3933 180.686 35.58 180.364 35.7201C180.041 35.8602 179.627 35.9536 179.212 35.9536C178.798 35.9536 178.383 35.8602 178.061 35.7201C177.692 35.5333 177.416 35.3466 177.14 35.0664C176.909 34.833 176.725 34.5528 176.587 34.226C176.449 33.8991 176.403 33.5723 176.403 33.1987C176.403 32.8252 176.449 32.4516 176.587 32.1248C176.725 31.7979 176.909 31.5178 177.14 31.2376C177.37 30.9575 177.692 30.7707 178.015 30.5839C178.429 30.4905 178.798 30.4438 179.212 30.4438ZM177.37 33.1987C177.37 33.4789 177.416 33.7123 177.508 33.9458C177.6 34.1793 177.738 34.366 177.876 34.5528C178.061 34.7396 178.245 34.8797 178.475 34.973C178.705 35.0664 178.982 35.1131 179.212 35.1131C179.488 35.1131 179.719 35.0664 179.949 34.973C180.179 34.8797 180.364 34.7396 180.548 34.5528C180.686 34.366 180.824 34.1793 180.916 33.9458C181.008 33.7123 181.054 33.4789 181.054 33.1987C181.054 32.9186 181.008 32.6851 180.916 32.4516C180.824 32.2182 180.686 32.0314 180.548 31.8446C180.364 31.6579 180.179 31.5178 179.949 31.4244C179.719 31.331 179.488 31.2843 179.212 31.2843C178.936 31.2843 178.705 31.331 178.475 31.4244C178.245 31.5178 178.061 31.6579 177.876 31.8446C177.738 32.0314 177.6 32.2182 177.508 32.4516C177.416 32.6851 177.37 32.9186 177.37 33.1987Z" fill="#A7A9AC"/>
<path d="M184.647 30.5371L186.535 33.1986L188.378 30.5371H189.391V35.9068H188.424V31.9846H188.378L186.628 34.506H186.305L184.555 31.9846H184.509V35.9068H183.634V30.5371H184.647Z" fill="#A7A9AC"/>
<path d="M195.747 30.5371V35.9068H194.78V31.3776H192.062V35.9068H191.141V30.5371H195.747Z" fill="#A7A9AC"/>
<path d="M200.629 30.5371L202.978 35.9068H201.965L201.504 34.9262H198.695L198.28 35.9068H197.267L199.616 30.5371H200.629ZM199.063 34.0391H201.182L200.169 31.471H200.076L199.063 34.0391Z" fill="#A7A9AC"/>
<path d="M209.196 30.5371V35.9068H208.229V33.4787H205.465V35.9068H204.498V30.5371H205.465V32.5916H208.229V30.5371H209.196Z" fill="#A7A9AC"/>
<path d="M211.913 34.4593L214.953 30.5371H215.828V35.9068H214.907V31.9846L211.867 35.9068H210.992V30.5371H211.913V34.4593Z" fill="#A7A9AC"/>
<path d="M217.394 32.4985C217.394 32.2183 217.44 31.9849 217.532 31.7514C217.624 31.518 217.763 31.3312 217.901 31.1444C218.085 30.9576 218.315 30.8176 218.592 30.6775C218.868 30.5841 219.144 30.4907 219.421 30.4907H222V35.8604H221.033V34.4129H219.375C219.237 34.6464 219.052 34.8798 218.914 35.1133C218.73 35.3468 218.592 35.6269 218.454 35.8604H217.348L218.454 34.2261C218.315 34.1327 218.177 34.0394 218.039 33.946C217.901 33.8526 217.809 33.7125 217.717 33.5724C217.532 33.2923 217.394 32.9187 217.394 32.4985ZM218.361 32.4985C218.361 32.6386 218.361 32.732 218.407 32.872C218.454 33.0121 218.5 33.1055 218.546 33.1522C218.638 33.2923 218.73 33.3857 218.914 33.479C219.052 33.5724 219.237 33.6191 219.467 33.6191H221.079V31.4246H219.467C219.283 31.4246 219.098 31.4713 218.96 31.5647C218.822 31.658 218.684 31.7514 218.592 31.8915C218.454 31.9849 218.361 32.2183 218.361 32.4985Z" fill="#A7A9AC"/>
</svg>
