<svg width="222" height="36" viewBox="0 0 222 36" fill="none" xmlns="http://www.w3.org/2000/svg">
<path d="M31.2274 22.2724L15.1992 11.3463V11.393L15.1531 11.3463L0 21.572V26.8483L15.1992 16.6226L31.1813 27.502L31.2274 27.5487L62.7772 7.09731V1.82104L31.2274 22.2724Z" fill="#722D5C"/>
<path d="M57.112 13.9612L31.2274 30.6304L15.1992 19.7044H15.1531L0 29.9301V35.2063L15.1992 24.9339L31.1813 35.8133L31.2274 35.9067L57.112 19.1908V13.9612Z" fill="#4E2D5E"/>
<path d="M31.2274 13.9144L15.1992 2.98833V3.03502L15.1531 2.98833L0 13.214V18.4903L15.1992 8.26459L31.1813 19.144L31.2274 19.1907L53.2892 5.27626V0L31.2274 13.9144Z" fill="#8A2C5B"/>
<path d="M77.1472 1.16724H98.38V4.90264H89.8132V24.6069H85.7601V4.94934H77.1472V1.16724Z" fill="white"/>
<path d="M111.138 0.74707C112.934 0.74707 114.593 1.02723 116.066 1.63423C117.54 2.24123 118.83 3.0817 119.889 4.15563C120.995 5.32295 121.824 6.63034 122.422 8.1245C123.021 9.61867 123.298 11.2062 123.298 12.8871C123.298 14.5681 123.021 16.1556 122.468 17.6031C121.916 19.0506 121.087 20.3113 120.027 21.4319C118.922 22.5992 117.632 23.4864 116.112 24.0934C114.639 24.7471 112.934 25.0272 111.092 25.0272C109.25 25.0272 107.546 24.6537 106.026 23.9533C104.506 23.2529 103.17 22.2724 102.111 21.1051C101.144 20.0311 100.361 18.7704 99.7618 17.3696C99.1631 15.9222 98.8867 14.428 98.8867 12.8871C98.8867 11.2529 99.1631 9.71205 99.7158 8.26458C100.268 6.81711 101.098 5.55641 102.111 4.48248C103.17 3.31516 104.506 2.38131 106.026 1.72762C107.592 1.07392 109.296 0.74707 111.138 0.74707ZM103.078 12.8871C103.078 14.0545 103.262 15.1284 103.677 16.1089C104.091 17.0895 104.598 17.9766 105.289 18.677C106.026 19.4708 106.855 20.1245 107.868 20.5914C108.881 21.0584 109.987 21.2918 111.184 21.2918C112.336 21.2918 113.441 21.0584 114.454 20.6381C115.468 20.2179 116.343 19.5642 117.08 18.7704C117.724 18.0233 118.277 17.1829 118.646 16.2023C119.014 15.2218 119.244 14.1012 119.244 12.9338C119.244 11.7198 119.06 10.5992 118.646 9.57197C118.231 8.59143 117.724 7.70427 117.034 7.00388C116.297 6.21011 115.422 5.6031 114.408 5.18287C113.395 4.76264 112.336 4.52917 111.184 4.52917C110.033 4.52917 108.927 4.76264 107.914 5.18287C106.901 5.6031 106.026 6.2568 105.289 7.05057C104.598 7.79765 104.091 8.63812 103.677 9.61867C103.262 10.5992 103.078 11.7198 103.078 12.8871Z" fill="white"/>
<path d="M146.327 9.75868C146.327 10.9727 146.096 12.0933 145.636 13.1205C145.175 14.1478 144.576 15.0349 143.839 15.782C143.01 16.5758 142.089 17.1828 141.03 17.603C139.971 18.0233 138.865 18.2567 137.622 18.2567H130.621V24.6069H126.429V1.16724H137.668C139.049 1.16724 140.293 1.44739 141.444 2.0077C142.596 2.56801 143.609 3.3151 144.438 4.29564C145.037 5.04272 145.498 5.88319 145.866 6.77035C146.188 7.7042 146.327 8.68475 146.327 9.75868ZM137.806 14.5213C138.451 14.5213 139.049 14.3812 139.648 14.1011C140.247 13.8209 140.707 13.4474 141.076 13.0272C141.398 12.5602 141.675 12.0466 141.905 11.4863C142.135 10.8793 142.273 10.319 142.273 9.80537C142.273 8.49798 141.905 7.42405 141.122 6.58358C140.707 6.06996 140.201 5.69642 139.602 5.41626C139.003 5.13611 138.312 4.99603 137.576 4.99603H130.713V14.4746H137.806V14.5213Z" fill="white"/>
<path d="M167.421 24.6069H149.412V1.16724H153.558V20.8715H167.421V24.6069Z" fill="white"/>
<path d="M174.376 24.6069H170.323V1.16724H174.376V24.6069Z" fill="white"/>
<path d="M199.662 1.16724V24.6069H195.839L182.252 7.75089V24.6069H178.199V1.16724H182.022L195.701 18.07V1.16724H199.662Z" fill="white"/>
<path d="M203.531 1.16724H221.447V4.99603H207.63V10.4591H219.974V14.1945H207.63V20.8248H222V24.5602H203.531V1.16724Z" fill="white"/>
<path d="M77.7461 30.5369V32.6381H78.483C78.6212 32.6381 78.7133 32.5914 78.8515 32.5447C78.8976 32.498 78.9436 32.498 78.9897 32.4513C79.0357 32.4046 79.0357 32.3579 79.0818 32.3112L79.6805 31.2373C79.7266 31.0972 79.8187 31.0039 79.9108 30.9105C80.003 30.8171 80.0951 30.7237 80.1872 30.677C80.2793 30.6303 80.4175 30.5369 80.5096 30.5369C80.6478 30.4902 80.7859 30.4902 80.9702 30.4902C81.0623 30.4902 81.1544 30.4902 81.2465 30.4902C81.3386 30.4902 81.4307 30.5369 81.5229 30.5369L81.4308 31.3307H81.2005C81.1083 31.3307 81.0162 31.3307 80.9241 31.3307C80.832 31.3307 80.7859 31.3774 80.7399 31.4241C80.6938 31.4708 80.6478 31.4708 80.6017 31.5175C80.5556 31.5642 80.5096 31.6109 80.5096 31.6575L79.9108 32.6848C79.8648 32.7315 79.8648 32.7782 79.8187 32.8716C79.7727 32.9182 79.7266 33.0116 79.6805 33.0583L81.5229 35.9533H80.4175L78.8976 33.4786C78.8054 33.5253 78.6673 33.5253 78.5752 33.5253H77.7922V35.9533H76.825V30.5369H77.7461Z" fill="#A7A9AC"/>
<path d="M85.2995 30.4436C85.7141 30.4436 86.0825 30.4903 86.4049 30.6304C86.7273 30.7705 87.0497 30.9572 87.28 31.1907C87.5103 31.4708 87.7406 31.751 87.8788 32.0778C88.017 32.4047 88.063 32.7782 88.063 33.1518C88.063 33.5253 88.017 33.8989 87.8788 34.2257C87.7406 34.5526 87.5564 34.8327 87.3261 35.1129C87.0958 35.393 86.7734 35.5798 86.451 35.7199C86.1286 35.86 85.7141 35.9533 85.2995 35.9533C84.885 35.9533 84.4705 35.86 84.1481 35.7199C83.7796 35.5331 83.5033 35.3463 83.2269 35.0662C82.9966 34.8327 82.8124 34.5526 82.6742 34.2257C82.536 33.8989 82.49 33.572 82.49 33.1985C82.49 32.8249 82.536 32.4514 82.6742 32.1245C82.8124 31.7977 82.9966 31.5175 83.2269 31.2374C83.4572 30.9572 83.7796 30.7705 84.102 30.5837C84.4705 30.4903 84.839 30.4436 85.2995 30.4436ZM83.4112 33.1985C83.4112 33.4786 83.4572 33.7121 83.5493 33.9456C83.6414 34.179 83.7796 34.3658 83.9178 34.5526C84.102 34.7393 84.2863 34.8794 84.5165 34.9728C84.7468 35.0662 85.0232 35.1129 85.2535 35.1129C85.5298 35.1129 85.7601 35.0662 85.9904 34.9728C86.2207 34.8794 86.4049 34.7393 86.5892 34.5526C86.7273 34.3658 86.8655 34.179 86.9576 33.9456C87.0497 33.7121 87.0958 33.4786 87.0958 33.1985C87.0958 32.9183 87.0497 32.6849 86.9576 32.4514C86.8655 32.2179 86.7273 32.0312 86.5892 31.8444C86.4049 31.6576 86.2207 31.5175 85.9904 31.4242C85.7601 31.3308 85.5298 31.2841 85.2535 31.2841C84.9771 31.2841 84.7468 31.3308 84.5165 31.4242C84.2863 31.5175 84.102 31.6576 83.9178 31.8444C83.7796 32.0312 83.6414 32.2179 83.5493 32.4514C83.4572 32.6849 83.4112 32.9183 83.4112 33.1985Z" fill="#A7A9AC"/>
<path d="M94.3271 30.5369V35.9065H93.3599V33.4785H90.5964V35.9065H89.6292V30.5369H90.5964V32.5913H93.3599V30.5369H94.3271Z" fill="#A7A9AC"/>
<path d="M96.8602 33.1984C96.8602 33.4786 96.9063 33.7587 96.9984 33.9922C97.0905 34.2256 97.2287 34.4124 97.3668 34.5525C97.5511 34.7393 97.7353 34.8793 97.9656 34.9727C98.1959 35.0661 98.4262 35.1128 98.7025 35.1128C99.0249 35.1128 99.3013 35.0661 99.5316 34.926C99.7619 34.8326 100.038 34.6459 100.268 34.4591L100.821 35.1128C100.499 35.4397 100.176 35.6264 99.854 35.7665C99.5316 35.9066 99.117 35.9533 98.6565 35.9533C98.2419 35.9533 97.8735 35.9066 97.5511 35.7198C97.2287 35.5797 96.9063 35.393 96.676 35.1128C96.3996 34.8793 96.2154 34.5525 96.0772 34.2256C95.939 33.8988 95.8469 33.5253 95.8469 33.105C95.8469 32.7315 95.893 32.3579 96.0772 32.0311C96.2154 31.7042 96.3996 31.3774 96.676 31.1439C96.9063 30.9105 97.2287 30.677 97.5511 30.5369C97.8735 30.3969 98.288 30.3035 98.7025 30.3035C99.1631 30.3035 99.5316 30.3969 99.9 30.5369C100.222 30.677 100.545 30.9105 100.867 31.1906L100.315 31.8443C100.084 31.6109 99.854 31.4708 99.5776 31.3774C99.3473 31.284 99.0249 31.1906 98.7486 31.1906C98.4722 31.1906 98.2419 31.2373 98.0117 31.3307C97.7814 31.4241 97.5971 31.5642 97.4129 31.7509C97.2287 31.9377 97.1365 32.1245 96.9984 32.3579C96.9063 32.6848 96.8602 32.9183 96.8602 33.1984Z" fill="#A7A9AC"/>
<path d="M105.611 30.5369L107.96 35.9065H106.947L106.486 34.926H103.677L103.262 35.9065H102.249L104.598 30.5369H105.611ZM104.045 34.0388H106.164L105.151 31.4707H105.013L104.045 34.0388Z" fill="#A7A9AC"/>
<path d="M114.777 30.537V35.9066H113.856V31.3775H111.829L111.369 34.6926C111.323 34.8794 111.276 35.0662 111.23 35.2063C111.138 35.3463 111.092 35.4864 110.954 35.5798C110.724 35.7666 110.401 35.9066 110.033 35.9066C109.895 35.9066 109.757 35.9066 109.618 35.86C109.48 35.86 109.342 35.8133 109.204 35.7666L109.388 34.9728C109.48 35.0195 109.572 35.0195 109.664 35.0195C109.757 35.0195 109.803 35.0195 109.895 35.0195C109.987 35.0195 110.033 35.0195 110.125 34.9728C110.217 34.9261 110.263 34.9261 110.309 34.8794C110.401 34.786 110.493 34.5992 110.493 34.4125L111.046 30.4436H114.777V30.537Z" fill="#A7A9AC"/>
<path d="M116.297 30.5369H121.179V31.3773H119.198V35.9065H118.277V31.3773H116.297V30.5369Z" fill="#A7A9AC"/>
<path d="M123.62 34.459L126.66 30.5369H127.535V35.9065H126.614V31.9843L123.574 35.9065H122.699V30.5369H123.62V34.459Z" fill="#A7A9AC"/>
<path d="M133.983 30.5369V35.9065H133.016V33.4785H130.252V35.9065H129.285V30.5369H130.252V32.5913H133.016V30.5369H133.983Z" fill="#A7A9AC"/>
<path d="M136.654 35.9065H135.687V30.5369H139.694V31.3773H136.608V35.9065H136.654Z" fill="#A7A9AC"/>
<path d="M143.471 30.4436C143.885 30.4436 144.254 30.4903 144.576 30.6304C144.899 30.7705 145.221 30.9572 145.451 31.1907C145.682 31.4708 145.912 31.751 146.05 32.0778C146.188 32.4047 146.234 32.7782 146.234 33.1518C146.234 33.5253 146.188 33.8989 146.05 34.2257C145.912 34.5526 145.728 34.8327 145.497 35.1129C145.267 35.393 144.945 35.5798 144.622 35.7199C144.3 35.86 143.885 35.9533 143.471 35.9533C143.056 35.9533 142.642 35.86 142.319 35.7199C141.951 35.5331 141.675 35.3463 141.398 35.0662C141.168 34.8327 140.984 34.5526 140.846 34.2257C140.707 33.8989 140.661 33.572 140.661 33.1985C140.661 32.8249 140.707 32.4514 140.846 32.1245C140.984 31.7977 141.168 31.5175 141.398 31.2374C141.629 30.9572 141.951 30.7705 142.273 30.5837C142.642 30.4903 143.056 30.4436 143.471 30.4436ZM141.629 33.1985C141.629 33.4786 141.675 33.7121 141.767 33.9456C141.859 34.179 141.997 34.3658 142.135 34.5526C142.319 34.7393 142.504 34.8794 142.734 34.9728C142.964 35.0662 143.241 35.1129 143.471 35.1129C143.747 35.1129 143.978 35.0662 144.208 34.9728C144.438 34.8794 144.622 34.7393 144.807 34.5526C144.945 34.3658 145.083 34.179 145.175 33.9456C145.267 33.7121 145.313 33.4786 145.313 33.1985C145.313 32.9183 145.267 32.6849 145.175 32.4514C145.083 32.2179 144.945 32.0312 144.807 31.8444C144.622 31.6576 144.438 31.5175 144.208 31.4242C143.978 31.3308 143.747 31.2841 143.471 31.2841C143.195 31.2841 142.964 31.3308 142.734 31.4242C142.504 31.5175 142.319 31.6576 142.135 31.8444C141.997 32.0312 141.859 32.2179 141.767 32.4514C141.675 32.6849 141.629 32.9183 141.629 33.1985Z" fill="#A7A9AC"/>
<path d="M147.846 35.9065V30.5369H150.564C150.794 30.5369 151.024 30.5836 151.209 30.6302C151.439 30.7236 151.577 30.817 151.761 30.9571C151.9 31.0972 151.992 31.2373 152.038 31.3773C152.084 31.5174 152.13 31.7042 152.13 31.891C152.13 31.9843 152.13 32.0777 152.084 32.1711C152.084 32.2645 152.038 32.3579 151.992 32.4513C151.9 32.5913 151.761 32.7314 151.623 32.8248V32.8715C151.854 32.9649 151.992 33.105 152.176 33.2917C152.36 33.5252 152.452 33.852 152.452 34.1789C152.452 34.4124 152.406 34.6458 152.314 34.8326C152.222 35.0194 152.13 35.2061 151.946 35.3462C151.761 35.4863 151.577 35.6264 151.393 35.7197C151.163 35.8131 150.932 35.8598 150.702 35.8598H147.846V35.9065ZM151.255 31.9843C151.255 31.7976 151.209 31.6575 151.071 31.5174C150.932 31.3773 150.748 31.3306 150.564 31.3306H148.814V32.5913H150.702C150.794 32.5913 150.84 32.5913 150.932 32.5446C150.978 32.498 151.071 32.4513 151.117 32.4046C151.209 32.3112 151.255 32.1711 151.255 31.9843ZM151.531 34.2256C151.531 33.9921 151.485 33.8053 151.347 33.712C151.255 33.6186 151.163 33.5719 151.071 33.5252C150.978 33.4785 150.84 33.4318 150.748 33.4318H148.814V35.0661H150.748C150.886 35.0661 150.978 35.0194 151.071 34.9727C151.163 34.926 151.255 34.8793 151.347 34.7859C151.393 34.7392 151.439 34.6458 151.485 34.5524C151.531 34.459 151.531 34.3657 151.531 34.2256Z" fill="#A7A9AC"/>
<path d="M157.104 30.5369L159.453 35.9065H158.44L157.979 34.926H155.17L154.755 35.9065H153.742L156.091 30.5369H157.104ZM155.538 34.0388H157.657L156.644 31.4707H156.551L155.538 34.0388Z" fill="#A7A9AC"/>
<path d="M160.835 32.498C160.835 32.2179 160.881 31.9844 160.973 31.7509C161.065 31.5175 161.203 31.3307 161.342 31.1439C161.526 30.9572 161.756 30.8171 162.032 30.677C162.309 30.5836 162.585 30.4902 162.861 30.4902H165.441V35.8599H164.473V34.4124H162.815C162.677 34.6459 162.493 34.8793 162.355 35.1128C162.217 35.3463 162.032 35.6264 161.894 35.8599H160.789L161.894 34.2256C161.756 34.1323 161.618 34.0389 161.48 33.9455C161.342 33.8521 161.249 33.712 161.157 33.5719C160.973 33.2918 160.835 32.9182 160.835 32.498ZM161.802 32.498C161.802 32.6381 161.802 32.7315 161.848 32.8716C161.894 33.0116 161.94 33.105 161.986 33.1517C162.078 33.2918 162.171 33.3852 162.355 33.4786C162.493 33.5719 162.677 33.6186 162.907 33.6186H164.52V31.4241H162.907C162.723 31.4241 162.539 31.4708 162.401 31.5642C162.263 31.6575 162.124 31.7509 162.032 31.891C161.894 31.9844 161.802 32.2179 161.802 32.498Z" fill="#A7A9AC"/>
<path d="M171.705 30.5369V32.6381H172.442C172.58 32.6381 172.718 32.5914 172.81 32.5447C172.856 32.498 172.902 32.498 172.948 32.4513C172.994 32.4046 172.994 32.3579 173.04 32.3112L173.639 31.2373C173.685 31.0972 173.777 31.0039 173.869 30.9105C173.961 30.8171 174.054 30.7237 174.146 30.677C174.238 30.6303 174.376 30.5369 174.468 30.5369C174.606 30.4902 174.744 30.4902 174.929 30.4902C175.021 30.4902 175.113 30.4902 175.205 30.4902C175.297 30.4902 175.389 30.5369 175.481 30.5369L175.389 31.3307H175.159C175.067 31.3307 174.975 31.3307 174.883 31.3307C174.791 31.3307 174.744 31.3774 174.698 31.4241C174.652 31.4708 174.606 31.4708 174.56 31.5175C174.514 31.5642 174.468 31.6109 174.468 31.6575L173.869 32.6848C173.823 32.7315 173.823 32.7782 173.777 32.8716C173.731 32.9182 173.685 33.0116 173.639 33.0583L175.481 35.9533H174.376L172.856 33.4786C172.764 33.5253 172.626 33.5253 172.534 33.5253H171.751V35.9533H170.783V30.5369H171.705Z" fill="#A7A9AC"/>
<path d="M179.212 30.4436C179.627 30.4436 179.995 30.4903 180.318 30.6304C180.64 30.7705 180.962 30.9572 181.193 31.1907C181.423 31.4708 181.653 31.751 181.791 32.0778C181.93 32.4047 181.976 32.7782 181.976 33.1518C181.976 33.5253 181.93 33.8989 181.791 34.2257C181.653 34.5526 181.469 34.8327 181.239 35.1129C181.008 35.393 180.686 35.5798 180.364 35.7199C180.041 35.86 179.627 35.9533 179.212 35.9533C178.798 35.9533 178.383 35.86 178.061 35.7199C177.692 35.5331 177.416 35.3463 177.14 35.0662C176.909 34.8327 176.725 34.5526 176.587 34.2257C176.449 33.8989 176.403 33.572 176.403 33.1985C176.403 32.8249 176.449 32.4514 176.587 32.1245C176.725 31.7977 176.909 31.5175 177.14 31.2374C177.37 30.9572 177.692 30.7705 178.015 30.5837C178.429 30.4903 178.798 30.4436 179.212 30.4436ZM177.37 33.1985C177.37 33.4786 177.416 33.7121 177.508 33.9456C177.6 34.179 177.738 34.3658 177.876 34.5526C178.061 34.7393 178.245 34.8794 178.475 34.9728C178.705 35.0662 178.982 35.1129 179.212 35.1129C179.488 35.1129 179.719 35.0662 179.949 34.9728C180.179 34.8794 180.364 34.7393 180.548 34.5526C180.686 34.3658 180.824 34.179 180.916 33.9456C181.008 33.7121 181.054 33.4786 181.054 33.1985C181.054 32.9183 181.008 32.6849 180.916 32.4514C180.824 32.2179 180.686 32.0312 180.548 31.8444C180.364 31.6576 180.179 31.5175 179.949 31.4242C179.719 31.3308 179.488 31.2841 179.212 31.2841C178.936 31.2841 178.705 31.3308 178.475 31.4242C178.245 31.5175 178.061 31.6576 177.876 31.8444C177.738 32.0312 177.6 32.2179 177.508 32.4514C177.416 32.6849 177.37 32.9183 177.37 33.1985Z" fill="#A7A9AC"/>
<path d="M184.647 30.5369L186.535 33.1983L188.378 30.5369H189.391V35.9065H188.424V31.9843H188.378L186.628 34.5057H186.305L184.555 31.9843H184.509V35.9065H183.634V30.5369H184.647Z" fill="#A7A9AC"/>
<path d="M195.747 30.5369V35.9065H194.78V31.3773H192.062V35.9065H191.141V30.5369H195.747Z" fill="#A7A9AC"/>
<path d="M200.629 30.5369L202.978 35.9065H201.965L201.504 34.926H198.695L198.28 35.9065H197.267L199.616 30.5369H200.629ZM199.063 34.0388H201.182L200.169 31.4707H200.076L199.063 34.0388Z" fill="#A7A9AC"/>
<path d="M209.196 30.5369V35.9065H208.229V33.4785H205.465V35.9065H204.498V30.5369H205.465V32.5913H208.229V30.5369H209.196Z" fill="#A7A9AC"/>
<path d="M211.913 34.459L214.953 30.5369H215.828V35.9065H214.907V31.9843L211.867 35.9065H210.992V30.5369H211.913V34.459Z" fill="#A7A9AC"/>
<path d="M217.394 32.498C217.394 32.2179 217.44 31.9844 217.532 31.7509C217.624 31.5175 217.763 31.3307 217.901 31.1439C218.085 30.9572 218.315 30.8171 218.592 30.677C218.868 30.5836 219.144 30.4902 219.421 30.4902H222V35.8599H221.033V34.4124H219.375C219.237 34.6459 219.052 34.8793 218.914 35.1128C218.73 35.3463 218.592 35.6264 218.454 35.8599H217.348L218.454 34.2256C218.315 34.1323 218.177 34.0389 218.039 33.9455C217.901 33.8521 217.809 33.712 217.717 33.5719C217.532 33.2918 217.394 32.9182 217.394 32.498ZM218.361 32.498C218.361 32.6381 218.361 32.7315 218.407 32.8716C218.454 33.0116 218.5 33.105 218.546 33.1517C218.638 33.2918 218.73 33.3852 218.914 33.4786C219.052 33.5719 219.237 33.6186 219.467 33.6186H221.079V31.4241H219.467C219.283 31.4241 219.098 31.4708 218.96 31.5642C218.822 31.6575 218.684 31.7509 218.592 31.891C218.454 31.9844 218.361 32.2179 218.361 32.498Z" fill="#A7A9AC"/>
</svg>
