<svg width="20" height="20" viewBox="0 0 20 20" fill="none" xmlns="http://www.w3.org/2000/svg">
<path d="M7.09867 0L7.51301 0.414336C8.48621 1.38754 8.62961 2.88043 7.94453 4.00758L12.1361 6.83977L12.2086 6.76727C13.8078 5.16809 16.4099 5.16805 18.0091 6.76727L18.4234 7.18156L13.2168 12.3882L20 19.1714L19.1714 20L12.3882 13.2168L7.18156 18.4234L6.76723 18.0091C5.16801 16.4099 5.16805 13.8078 6.76723 12.2086L6.83973 12.1361L4.00754 7.94453C2.88039 8.62965 1.3875 8.48625 0.414297 7.51301L0 7.09871L7.09867 0ZM7.22316 16.7245L16.7245 7.22316C15.5877 6.47129 14.0377 6.59547 13.0373 7.59586L7.59586 13.0373C6.59547 14.0377 6.47129 15.5877 7.22316 16.7245ZM7.68375 11.2921L11.2921 7.68375L7.17117 4.89934L4.89934 7.17117L7.68375 11.2921ZM3.72887 6.68437L6.68434 3.72891C7.22449 3.18875 7.33894 2.3816 7.02766 1.72828L1.72824 7.0277C2.38156 7.33898 3.18871 7.22453 3.72887 6.68437Z" fill="#8A2C5B"/>
</svg>
