<svg width="640" height="324" viewBox="0 0 640 324" fill="none" xmlns="http://www.w3.org/2000/svg">
<g clip-path="url(#clip0)">
<path d="M36.7699 75.3706L25.9448 131.058L81.636 141.882L92.4611 86.1949L36.7699 75.3706Z" fill="#A7A9AC"/>
<path d="M81.9027 103.431C81.8162 103.431 81.7297 103.431 81.6432 103.388L42.1621 94.8693C41.4702 94.7396 40.9946 94.0477 41.1675 93.3126C41.2973 92.6208 41.9892 92.1884 42.7243 92.3181L82.2054 100.836C82.8973 100.966 83.3729 101.658 83.2 102.393C83.027 102.998 82.5081 103.431 81.9027 103.431Z" fill="#2E186A"/>
<path d="M79.0916 110.522C79.0051 110.522 78.9186 110.522 78.8321 110.479L40.7348 102.263C40.0429 102.134 39.6105 101.442 39.7402 100.707C39.87 100.015 40.5618 99.5824 41.297 99.7121L79.3943 107.928C80.0862 108.058 80.5186 108.749 80.3889 109.484C80.2159 110.133 79.697 110.522 79.0916 110.522Z" fill="#2E186A"/>
<path d="M67.7187 116.187C67.6322 116.187 67.5457 116.187 67.4592 116.144L38.27 109.874C37.5781 109.744 37.1025 109.052 37.2754 108.317C37.4052 107.625 38.0971 107.193 38.8322 107.323L68.0214 113.592C68.7133 113.722 69.189 114.414 69.016 115.149C68.843 115.754 68.3241 116.187 67.7187 116.187Z" fill="#2E186A"/>
<path d="M51.9893 102.143L0.00292969 124.864L22.7254 176.846L74.7118 154.126L51.9893 102.143Z" fill="#A7A9AC"/>
<path d="M19.9348 139.796C19.4159 139.796 18.9402 139.493 18.724 138.974C18.4646 138.326 18.7673 137.547 19.4159 137.288L43.9348 127.213C44.5835 126.954 45.3619 127.256 45.6213 127.905C45.8808 128.553 45.5781 129.332 44.9294 129.591L20.4537 139.666C20.2808 139.753 20.1078 139.796 19.9348 139.796Z" fill="#2E186A"/>
<path d="M24.908 148.66C24.389 148.66 23.9134 148.358 23.6972 147.839C23.4377 147.19 23.7404 146.412 24.389 146.152L35.8917 141.439C36.5404 141.18 37.3188 141.482 37.5782 142.131C37.8377 142.78 37.535 143.558 36.8863 143.817L25.3836 148.531C25.2539 148.617 25.0809 148.66 24.908 148.66Z" fill="#2E186A"/>
<path d="M30.1837 108.836L29.6216 111.949L51.3297 103.863L68.2378 139.277L71.3081 139.882L52.6702 100.447L30.1837 108.836Z" fill="white"/>
<path d="M361.297 0H640V159.514C640 174.691 627.676 187.015 612.497 187.015H388.8C373.622 187.015 361.297 174.691 361.297 159.514V0Z" fill="#8A2C5B"/>
<path d="M514.421 120.122C514.421 120.122 504.043 122.802 501.751 113.16C501.751 113.16 509.794 109.657 514.421 120.122Z" fill="white"/>
<path d="M490.508 95.3017C491.675 95.9936 492.929 96.5557 494.27 96.9881C492.929 98.8042 492.411 101.053 492.843 103.258C493.189 105.679 494.659 107.755 496.778 108.922C496.259 112.079 495.351 116.619 494.313 118.219C493.794 118.997 494.097 120.165 494.962 120.857C495.827 121.549 496.951 121.419 497.47 120.641C498.983 118.306 500.021 112.598 500.497 109.528C500.583 109.528 500.627 109.528 500.713 109.485C504.346 108.793 506.724 104.858 506.032 100.664C505.816 99.3663 505.297 98.1556 504.519 97.1178C508.627 96.08 512.259 93.7018 514.854 90.3291C520.432 82.8485 518.659 72.9465 510.789 68.19C502.919 63.4336 492.065 65.6388 486.486 73.0762C480.908 80.5135 482.681 90.502 490.508 95.3017Z" fill="white"/>
<path d="M451.287 168.075L411.589 160.378L399.654 136.121L406.4 101.572L462.098 112.382L451.287 168.075Z" fill="#A7A9AC"/>
<path d="M447.611 124.23C447.524 124.23 447.438 124.23 447.395 124.23L414.833 118.435C414.141 118.306 413.665 117.657 413.795 116.922C413.925 116.23 414.616 115.754 415.308 115.884L447.87 121.678C448.562 121.808 449.038 122.457 448.908 123.192C448.779 123.754 448.26 124.23 447.611 124.23Z" fill="white"/>
<path d="M446.616 129.937C446.53 129.937 446.443 129.937 446.4 129.937L413.838 124.143C413.146 124.013 412.67 123.365 412.8 122.63C412.93 121.938 413.622 121.462 414.314 121.592L446.876 127.386C447.568 127.516 448.043 128.164 447.914 128.9C447.784 129.505 447.222 129.937 446.616 129.937Z" fill="white"/>
<path d="M432.476 133.613C432.39 133.613 432.303 133.613 432.26 133.613L412.887 130.153C412.195 130.024 411.719 129.375 411.849 128.64C411.979 127.948 412.671 127.472 413.363 127.602L432.736 131.061C433.427 131.191 433.903 131.84 433.773 132.575C433.644 133.137 433.125 133.613 432.476 133.613Z" fill="white"/>
<path d="M412.584 160.768C412.497 160.768 412.411 160.768 412.281 160.724C411.589 160.552 411.157 159.86 411.287 159.168L415.568 139.969L400.822 136.986C400.13 136.856 399.654 136.164 399.827 135.472C399.957 134.78 400.649 134.305 401.341 134.478L417.384 137.721C417.73 137.807 418.033 137.98 418.206 138.283C418.379 138.585 418.465 138.931 418.379 139.277L413.838 159.73C413.708 160.335 413.189 160.768 412.584 160.768Z" fill="white"/>
<path d="M63.3514 260.783C57.0811 260.783 51.5027 259.485 46.8325 256.848C32.1298 248.589 25.5135 227.877 27.2 195.23C28.4541 170.972 37.7081 151.86 54.6595 138.456C76.2811 121.376 110.919 113.203 157.708 114.154C194.897 114.89 233.211 121.116 265.773 127.127C282.595 130.24 297.514 126.997 310.054 117.57C327.524 104.425 337.47 81.4215 342.746 64.3848C348.497 45.8779 350.097 30.3546 350.097 30.1817C350.184 29.533 350.703 29.0142 351.395 29.0142H361.297C362.032 29.0142 362.595 29.5763 362.595 30.3114C362.595 31.0465 362.032 31.6086 361.297 31.6086H352.562C352.087 35.5867 350.141 49.3371 345.254 65.1631C339.849 82.5457 329.643 106.112 311.611 119.646C298.465 129.548 282.854 132.921 265.297 129.678C217.903 120.943 106.897 100.534 56.2595 140.531C39.9135 153.46 31.0054 171.924 29.7514 195.403C28.1081 226.969 34.2919 246.902 48.0433 254.642C70.4865 267.225 106.205 243.097 106.551 242.881C107.157 242.492 107.935 242.622 108.368 243.227C108.757 243.832 108.627 244.611 108.022 245.043C107.632 245.302 98.6379 251.443 86.573 256.026C78.1406 259.183 70.3135 260.783 63.3514 260.783Z" fill="#8A2C5B"/>
<path d="M352.173 26.5063H359.352C360.433 26.5063 361.298 27.3712 361.298 28.4522V32.2141C361.298 33.2951 360.433 34.1599 359.352 34.1599H352.173C351.092 34.1599 350.228 33.2951 350.228 32.2141V28.4522C350.184 27.3712 351.092 26.5063 352.173 26.5063Z" fill="#A7A9AC"/>
<path d="M114.206 242.578C117.881 239.552 119.135 220.612 103.698 228.958C88.2597 237.303 99.6759 249.367 107.243 246.211C114.811 243.054 114.206 242.578 114.206 242.578Z" fill="#A7A9AC"/>
<path d="M63.308 304.801C62.8755 304.801 62.3999 304.628 62.0972 304.239C41.3404 279.419 33.8161 253.734 39.7404 227.877C43.2863 212.353 51.7188 196.7 64.8215 181.35C75.2431 169.113 88.6053 157.049 104.562 145.46C131.676 125.743 157.319 114.111 157.578 113.982C158.357 113.636 159.308 113.981 159.654 114.76C160 115.538 159.654 116.489 158.876 116.835C158.616 116.965 133.276 128.51 106.378 148.012C81.6863 165.956 50.6377 194.452 42.8107 228.568C37.1026 253.432 44.4107 278.208 64.5188 302.207C65.0809 302.899 64.9944 303.893 64.3026 304.455C64.0431 304.715 63.6539 304.801 63.308 304.801Z" fill="#8A2C5B"/>
<path d="M65.0381 306.444C69.0597 309.039 87.4381 304.585 74.8975 292.348C62.357 280.111 54.2272 294.553 59.4597 300.866C64.7354 307.136 65.0381 306.444 65.0381 306.444Z" fill="#A7A9AC"/>
<path d="M157.578 110.695H175.006C178.162 110.695 180.757 113.247 180.757 116.403C180.757 119.56 178.206 122.154 175.006 122.154H157.578C154.422 122.154 151.827 119.603 151.827 116.403C151.87 113.247 154.422 110.695 157.578 110.695Z" fill="#A7A9AC"/>
<path d="M573.751 204.484L591.308 209.975C600.259 212.786 605.232 222.256 602.421 231.206L585.081 286.554C582.27 295.505 572.8 300.477 563.848 297.667L546.335 292.175C537.384 289.365 532.411 279.895 535.221 270.944L552.562 215.553C555.329 206.646 564.843 201.673 573.751 204.484Z" fill="white"/>
<path d="M568.908 299.742C567.092 299.742 565.232 299.483 563.416 298.921L545.902 293.429C541.232 291.959 537.47 288.802 535.178 284.478C532.929 280.154 532.497 275.225 533.924 270.555L551.265 215.164C554.248 205.565 564.54 200.203 574.14 203.186L591.654 208.678C596.324 210.148 600.129 213.305 602.378 217.629C604.627 221.953 605.059 226.882 603.632 231.552L586.292 286.943C584.821 291.613 581.665 295.375 577.34 297.667C574.702 299.05 571.805 299.742 568.908 299.742ZM568.692 205.003C562.032 205.003 555.848 209.283 553.729 215.986L536.389 271.377C533.794 279.592 538.421 288.413 546.637 290.964L564.151 296.456C568.129 297.71 572.367 297.321 576.086 295.375C579.805 293.429 582.529 290.186 583.783 286.165L601.124 230.774C602.378 226.796 601.989 222.558 600.043 218.84C598.097 215.121 594.854 212.397 590.832 211.143L573.319 205.651C571.805 205.219 570.248 205.003 568.692 205.003Z" fill="#2E186A"/>
<path d="M558.356 265.02C558.356 265.02 562.248 264.934 562.248 268.523C562.248 268.523 559.135 269.085 558.356 265.02Z" fill="#2E186A"/>
<path d="M564.756 275.787C564.41 275.441 563.978 275.138 563.546 274.879C564.151 274.36 564.54 273.582 564.583 272.76C564.67 271.895 564.324 271.031 563.675 270.425C564.108 269.344 564.8 267.831 565.319 267.355C565.578 267.096 565.578 266.663 565.319 266.361C565.102 266.058 564.713 266.015 564.454 266.188C564.454 266.188 564.41 266.188 564.41 266.231C563.675 266.923 562.854 268.869 562.421 269.906H562.335C560.994 269.863 559.827 271.074 559.74 272.587C559.697 273.063 559.783 273.538 560 273.971C558.443 273.971 556.973 274.533 555.762 275.528C553.167 277.69 552.994 281.365 555.373 283.7C557.881 286.035 561.729 286.165 564.367 283.959C566.962 281.754 567.135 278.122 564.756 275.787Z" fill="#2E186A"/>
<path d="M308.386 170.489L193.935 188.979L215.758 324.04L330.209 305.55L308.386 170.489Z" fill="#2E186A"/>
<path d="M264.926 157.661L165.949 196.524L211.816 313.324L310.793 274.461L264.926 157.661Z" fill="white"/>
<path d="M211.805 314.617C211.632 314.617 211.459 314.574 211.286 314.487C210.984 314.357 210.724 314.098 210.594 313.752L164.756 197.003C164.627 196.7 164.627 196.311 164.756 196.008C164.886 195.706 165.146 195.446 165.492 195.317L264.475 156.444C265.124 156.184 265.902 156.53 266.162 157.179L312.043 273.971C312.302 274.619 311.957 275.398 311.308 275.657L212.324 314.53C212.151 314.574 211.978 314.617 211.805 314.617ZM167.611 197.262L212.54 311.633L309.102 273.711L264.216 159.341L167.611 197.262Z" fill="#2E186A"/>
<path d="M161.124 221.434C160.346 221.434 159.611 220.958 159.308 220.18C158.919 219.185 159.394 218.018 160.432 217.629L178.724 210.451C179.719 210.062 180.886 210.537 181.275 211.575C181.665 212.57 181.189 213.737 180.151 214.126L161.859 221.304C161.6 221.391 161.384 221.434 161.124 221.434Z" fill="#2E186A"/>
<path d="M168.735 240.806C167.957 240.806 167.221 240.33 166.919 239.552C166.53 238.557 167.005 237.39 168.043 237L186.335 229.823C187.33 229.433 188.497 229.909 188.886 230.947C189.275 231.941 188.8 233.109 187.762 233.498L169.47 240.676C169.211 240.762 168.994 240.806 168.735 240.806Z" fill="#2E186A"/>
<path d="M176.346 260.177C175.567 260.177 174.832 259.701 174.53 258.923C174.14 257.929 174.616 256.761 175.654 256.372L193.946 249.194C194.94 248.805 196.108 249.281 196.497 250.318C196.886 251.313 196.411 252.48 195.373 252.87L177.081 260.047C176.821 260.134 176.605 260.177 176.346 260.177Z" fill="#2E186A"/>
<path d="M183.957 279.592C183.178 279.592 182.443 279.117 182.14 278.338C181.751 277.344 182.227 276.176 183.265 275.787L201.557 268.609C202.551 268.22 203.719 268.696 204.108 269.733C204.497 270.728 204.021 271.895 202.984 272.285L184.692 279.462C184.476 279.549 184.216 279.592 183.957 279.592Z" fill="#2E186A"/>
<path d="M191.567 298.964C190.789 298.964 190.053 298.488 189.751 297.71C189.362 296.715 189.837 295.548 190.875 295.159L209.167 287.981C210.162 287.592 211.329 288.067 211.718 289.105C212.107 290.099 211.632 291.267 210.594 291.656L192.302 298.834C192.086 298.921 191.826 298.964 191.567 298.964Z" fill="#2E186A"/>
<path d="M199.697 221.996C199.178 221.996 198.702 221.693 198.486 221.174C198.227 220.526 198.573 219.747 199.221 219.488L234.291 205.738C234.94 205.478 235.718 205.824 235.978 206.473C236.237 207.121 235.891 207.9 235.243 208.159L200.173 221.909C200 221.953 199.827 221.996 199.697 221.996Z" fill="#A7A9AC"/>
<path d="M216.129 222.645C215.611 222.645 215.135 222.342 214.919 221.823C214.659 221.174 215.005 220.396 215.654 220.137L250.724 206.386C251.373 206.127 252.151 206.473 252.411 207.121C252.67 207.77 252.324 208.548 251.675 208.808L216.605 222.558C216.432 222.601 216.302 222.645 216.129 222.645Z" fill="#A7A9AC"/>
<path d="M202.248 228.093C201.729 228.093 201.254 227.79 201.037 227.271C200.778 226.623 201.124 225.844 201.772 225.585L208.908 222.774C209.556 222.515 210.335 222.861 210.594 223.509C210.854 224.158 210.508 224.936 209.859 225.196L202.724 228.006C202.551 228.05 202.378 228.093 202.248 228.093Z" fill="#A7A9AC"/>
<path d="M210.854 250.059C210.335 250.059 209.859 249.756 209.643 249.238C209.383 248.589 209.729 247.811 210.378 247.551L222.529 242.795C223.178 242.535 223.956 242.881 224.216 243.53C224.475 244.178 224.129 244.957 223.481 245.216L211.329 249.973C211.156 250.016 211.027 250.059 210.854 250.059Z" fill="#A7A9AC"/>
<path d="M208.086 243.054C207.567 243.054 207.091 242.751 206.875 242.232C206.616 241.584 206.962 240.805 207.61 240.546L229.275 232.028C229.924 231.768 230.702 232.114 230.962 232.763C231.221 233.411 230.875 234.19 230.227 234.449L208.562 242.967C208.432 243.011 208.259 243.054 208.086 243.054Z" fill="#A7A9AC"/>
<path d="M205.016 235.184C204.497 235.184 204.021 234.882 203.805 234.363C203.545 233.714 203.891 232.936 204.54 232.676L216.691 227.92C217.34 227.66 218.118 228.006 218.378 228.655C218.637 229.304 218.291 230.082 217.643 230.341L205.491 235.098C205.362 235.141 205.189 235.184 205.016 235.184Z" fill="#A7A9AC"/>
<path d="M222.529 228.309C222.01 228.309 221.535 228.006 221.319 227.487C221.059 226.839 221.405 226.06 222.054 225.801L242.248 217.888C242.897 217.628 243.675 217.974 243.935 218.623C244.194 219.272 243.848 220.05 243.2 220.309L223.005 228.222C222.875 228.266 222.702 228.309 222.529 228.309Z" fill="#A7A9AC"/>
<path d="M268.799 196.311L266.551 204.57L266.767 282.922H271.308L271.091 204.57L268.799 196.311Z" fill="#A7A9AC"/>
<path d="M266.767 281.495C266.032 281.495 265.47 280.933 265.47 280.197C265.47 279.462 266.032 278.9 266.767 278.9H273.643L273.297 261.258C273.297 260.523 273.859 259.918 274.594 259.918C275.329 259.918 275.935 260.48 275.935 261.215L276.324 280.197C276.324 280.543 276.194 280.889 275.935 281.149C275.675 281.408 275.372 281.538 274.983 281.538L266.767 281.495Z" fill="#8A2C5B"/>
<path d="M267.762 208.764H270.27C271.351 208.764 272.173 209.629 272.173 210.71L272.043 229.693C272.043 230.774 271.178 231.595 270.097 231.595H267.589C266.508 231.595 265.686 230.73 265.686 229.649L265.816 210.667C265.859 209.629 266.724 208.764 267.762 208.764Z" fill="#8A2C5B"/>
<path d="M268.886 264.761C268.843 264.761 268.843 264.761 268.886 264.761C268.108 264.761 267.546 264.156 267.589 263.42L267.848 253.302C267.848 252.567 268.454 252.005 269.189 252.048C269.924 252.048 270.486 252.654 270.443 253.389L270.183 263.507C270.183 264.199 269.578 264.761 268.886 264.761Z" fill="#8A2C5B"/>
<path d="M246.4 178.323L245.275 186.798L255.913 264.415L260.411 263.809L249.773 186.193L246.4 178.323Z" fill="#A7A9AC"/>
<path d="M202.119 60.2338L232.779 56.1692L234.897 72.2114L204.238 76.276C200 76.8381 196.108 73.8545 195.546 69.6169L195.46 68.9251C194.897 64.7308 197.881 60.8392 202.119 60.2338Z" fill="white"/>
<path d="M203.2 77.6598C198.746 77.6598 194.854 74.3735 194.249 69.8332L194.162 69.1414C193.86 66.7632 194.465 64.385 195.935 62.4824C197.362 60.6231 199.395 59.4123 201.73 59.0664C201.773 59.0664 201.86 59.0232 201.903 59.0232L232.562 54.9586C232.908 54.9153 233.254 55.0018 233.514 55.218C233.773 55.4342 233.946 55.7369 234.033 56.0828L236.152 72.125C236.238 72.8168 235.762 73.5087 235.027 73.5952L204.368 77.6598C203.979 77.6165 203.589 77.6598 203.2 77.6598ZM202.465 61.5311C202.422 61.5311 202.335 61.5743 202.292 61.5743C200.606 61.7905 199.092 62.6553 198.054 64.039C197.016 65.4227 196.541 67.1091 196.8 68.7955L196.887 69.4873C197.362 72.9898 200.606 75.4977 204.108 75.0221L233.47 71.1305L231.697 57.6827L202.465 61.5311Z" fill="#2E186A"/>
<path d="M267.287 97.8529C289.617 97.8529 307.719 79.7519 307.719 57.4231C307.719 35.0944 289.617 16.9934 267.287 16.9934C244.957 16.9934 226.854 35.0944 226.854 57.4231C226.854 79.7519 244.957 97.8529 267.287 97.8529Z" fill="white"/>
<path d="M267.287 99.1934C244.281 99.1934 225.514 80.4703 225.514 57.4665C225.514 34.4626 244.238 15.6963 267.287 15.6963C290.335 15.6963 309.016 34.4194 309.016 57.4665C309.016 80.5136 290.292 99.1934 267.287 99.1934ZM267.287 18.2907C245.708 18.2907 228.108 35.8463 228.108 57.4665C228.108 79.0434 245.665 96.599 267.287 96.599C288.865 96.599 306.422 79.0434 306.422 57.4665C306.422 35.8463 288.865 18.2907 267.287 18.2907Z" fill="#2E186A"/>
<path d="M267.287 86.0483C283.097 86.0483 295.914 73.2324 295.914 57.4232C295.914 41.614 283.097 28.7981 267.287 28.7981C251.476 28.7981 238.66 41.614 238.66 57.4232C238.66 73.2324 251.476 86.0483 267.287 86.0483Z" fill="#A7A9AC"/>
<path d="M488.302 215.597L488.389 259.183C488.389 262.901 485.405 265.928 481.686 265.928L370.81 266.144C367.092 266.144 364.065 263.161 364.065 259.442L363.978 215.856C363.978 212.137 366.962 209.11 370.681 209.11L481.556 208.894C485.275 208.851 488.302 211.878 488.302 215.597Z" fill="#A7A9AC"/>
<path d="M373.145 263.204C371.459 263.161 369.902 262.512 368.734 261.302C367.567 260.091 366.961 258.534 366.961 256.848L366.875 217.499C366.875 215.813 367.48 214.213 368.648 213.045C369.816 211.835 371.372 211.186 373.059 211.186L479.005 210.97C482.464 211.013 485.232 213.867 485.189 217.326V226.882C485.189 227.617 484.626 228.179 483.891 228.179H481.945L481.989 245.778H483.934C484.67 245.778 485.232 246.34 485.232 247.075V256.632C485.275 260.091 482.507 262.945 479.091 262.988L373.145 263.204ZM478.962 213.521L373.059 213.737C372.107 213.737 371.156 214.126 370.507 214.818C369.859 215.51 369.47 216.461 369.47 217.413V217.456L369.556 256.848C369.556 257.842 369.902 258.75 370.594 259.485C371.286 260.221 372.194 260.566 373.189 260.61L479.091 260.393C481.08 260.35 482.724 258.664 482.68 256.675C482.68 256.675 482.68 256.675 482.68 256.632V248.329H481.945C480.562 248.329 479.437 247.162 479.437 245.778L479.394 228.05C479.351 226.666 480.475 225.542 481.859 225.498H482.637V217.196C482.637 215.207 480.994 213.564 478.962 213.521Z" fill="white"/>
</g>
<defs>
<clipPath id="clip0">
<rect width="640" height="324" fill="white"/>
</clipPath>
</defs>
</svg>
