<svg width="640" height="526" viewBox="0 0 640 526" fill="none" xmlns="http://www.w3.org/2000/svg">
<path d="M565.566 423.088C564.777 423.088 564.1 422.581 563.931 421.793C552.372 374.496 560.604 341.107 569.626 321.457C579.381 300.004 591.786 289.982 592.294 289.532C593.027 288.969 594.098 289.081 594.662 289.813C595.226 290.545 595.113 291.615 594.38 292.178C594.267 292.291 581.975 302.257 572.558 323.033C563.875 342.177 555.868 374.778 567.202 421.005C567.427 421.906 566.863 422.807 565.961 423.032C565.848 423.088 565.679 423.088 565.566 423.088Z" fill="#1E1E1E"/>
<path d="M574.927 398.765C573.63 397.638 573.01 396.006 573.179 394.316C576.731 361.659 591.504 328.045 614.51 315.714C638.137 303.045 654.263 338.236 621.502 370.893C596.861 395.499 583.667 399.496 578.648 400.003C577.239 400.116 575.885 399.665 574.927 398.765Z" fill="#A7A9AC"/>
<path d="M551.639 422.075C550.906 422.075 550.23 421.568 550.004 420.836C549.948 420.611 542.956 396.287 522.826 394.542C521.867 394.485 521.191 393.641 521.303 392.74C521.36 391.783 522.205 391.107 523.108 391.22C545.606 393.134 552.993 418.865 553.275 419.935C553.5 420.836 552.993 421.793 552.091 422.019C551.921 422.075 551.809 422.075 551.639 422.075Z" fill="#1E1E1E"/>
<path d="M575.717 399.271C575.491 399.271 575.266 399.215 575.04 399.102C574.194 398.708 573.8 397.751 574.194 396.85C590.659 359.407 632.047 317.797 632.442 317.347C633.119 316.671 634.19 316.671 634.81 317.347C635.487 318.023 635.487 319.092 634.81 319.712C634.416 320.106 593.479 361.321 577.239 398.145C577.014 398.877 576.393 399.271 575.717 399.271Z" fill="#1E1E1E"/>
<path d="M590.997 372.583C590.321 372.583 589.7 372.189 589.418 371.57C589.024 370.725 589.418 369.711 590.321 369.374C608.759 361.322 625.675 361.829 626.352 361.829C627.31 361.885 628.044 362.617 627.987 363.574C627.931 364.531 627.198 365.207 626.239 365.207C626.07 365.207 609.379 364.757 591.674 372.47C591.448 372.583 591.223 372.583 590.997 372.583Z" fill="#1E1E1E"/>
<path d="M587.331 377.368C586.486 377.368 585.752 376.693 585.64 375.848C584.061 359.576 604.135 323.428 605.037 321.907C605.488 321.119 606.503 320.781 607.349 321.232C608.138 321.682 608.476 322.696 608.025 323.54C607.8 323.878 587.613 360.308 589.079 375.51C589.192 376.411 588.515 377.256 587.557 377.368C587.444 377.368 587.388 377.368 587.331 377.368Z" fill="#1E1E1E"/>
<path d="M579.945 391.107C579.381 391.107 578.817 390.826 578.479 390.319C577.971 389.531 578.253 388.461 579.042 388.01C589.474 381.535 604.981 382.042 605.601 382.042C606.559 382.098 607.236 382.887 607.236 383.787C607.18 384.745 606.447 385.42 605.488 385.42C605.319 385.42 590.376 384.97 580.847 390.882C580.565 391.051 580.283 391.107 579.945 391.107Z" fill="#1E1E1E"/>
<path d="M545.719 368.923C543.971 370.161 541.941 370.33 540.362 369.486C509.518 352.538 483.468 320.894 483.073 286.773C482.622 251.695 526.265 244.319 541.997 298.71C553.839 339.644 551.019 358.056 548.877 364.643C548.313 366.332 547.185 367.853 545.719 368.923Z" fill="#A7A9AC"/>
<path d="M543.688 371.625C542.842 371.625 542.165 371.006 541.996 370.161C541.884 369.316 529.14 285.252 494.18 266.39C493.334 265.94 493.052 264.926 493.503 264.082C493.955 263.237 494.969 262.956 495.815 263.406C511.209 271.683 524.234 292.178 534.497 324.216C542.109 347.92 545.323 369.485 545.38 369.711C545.492 370.611 544.872 371.512 543.97 371.625C543.857 371.625 543.801 371.625 543.688 371.625Z" fill="#1E1E1E"/>
<path d="M531.62 322.189C531.169 322.189 530.718 322.02 530.38 321.626C520.004 310.196 492.375 297.245 484.142 293.529C483.296 293.135 482.902 292.122 483.296 291.277C483.691 290.432 484.706 290.038 485.552 290.432C493.954 294.205 522.091 307.437 532.917 319.317C533.537 319.993 533.481 321.063 532.804 321.682C532.41 322.02 532.015 322.189 531.62 322.189Z" fill="#1E1E1E"/>
<path d="M537.374 339.588C537.035 339.588 536.64 339.475 536.359 339.25C535.625 338.687 535.456 337.617 536.02 336.885C539.403 332.437 540.306 318.417 538.445 298.429C538.332 297.471 539.065 296.683 539.967 296.571C540.869 296.458 541.715 297.19 541.828 298.091C543.238 313.012 543.802 332.212 538.727 338.912C538.388 339.363 537.937 339.588 537.374 339.588Z" fill="#1E1E1E"/>
<path d="M539.065 352.65C538.895 352.65 538.67 352.594 538.501 352.537C537.373 352.143 510.307 342.796 497.677 332.662C496.943 332.098 496.831 331.029 497.451 330.297C498.015 329.565 499.086 329.452 499.819 330.071C511.942 339.869 539.29 349.328 539.572 349.384C540.474 349.666 540.925 350.623 540.643 351.524C540.418 352.199 539.798 352.65 539.065 352.65Z" fill="#1E1E1E"/>
<path d="M526.436 384.164C527.081 379.419 526.353 375.402 524.81 375.193C523.267 374.984 521.494 378.661 520.849 383.407C520.204 388.152 520.931 392.168 522.474 392.377C524.017 392.587 525.791 388.909 526.436 384.164Z" fill="#8A2C5B"/>
<path d="M522.416 392.323C523.328 391.219 521.34 388.079 517.977 385.309C514.614 382.539 511.149 381.188 510.237 382.291C509.326 383.395 511.313 386.535 514.676 389.305C518.04 392.075 521.505 393.426 522.416 392.323Z" fill="#8A2C5B"/>
<path d="M531.396 390.668C535.589 388.474 538.401 385.579 537.679 384.202C536.956 382.825 532.971 383.487 528.779 385.681C524.586 387.875 521.773 390.77 522.496 392.147C523.219 393.524 527.204 392.862 531.396 390.668Z" fill="#8A2C5B"/>
<path d="M516.768 398.341C520.591 396.248 523.131 393.534 522.442 392.28C521.754 391.026 518.096 391.706 514.274 393.799C510.451 395.893 507.91 398.606 508.599 399.86C509.288 401.115 512.945 400.434 516.768 398.341Z" fill="#8A2C5B"/>
<path d="M529.047 406.83C530.351 406.236 529.93 402.521 528.108 398.532C526.285 394.543 523.752 391.79 522.448 392.384C521.145 392.977 521.566 396.692 523.388 400.681C525.21 404.671 527.744 407.423 529.047 406.83Z" fill="#8A2C5B"/>
<path d="M600.022 286.422C603.179 280.917 603.57 275.214 600.895 273.684C598.219 272.154 593.491 275.376 590.333 280.881C587.176 286.386 586.785 292.089 589.461 293.619C592.136 295.149 596.864 291.927 600.022 286.422Z" fill="#8A2C5B"/>
<path d="M600.193 298.991C606.482 298.864 611.53 296.241 611.467 293.132C611.404 290.023 606.254 287.605 599.965 287.732C593.675 287.86 588.628 290.483 588.691 293.592C588.754 296.701 593.903 299.118 600.193 298.991Z" fill="#8A2C5B"/>
<path d="M588.671 293.818C590.896 292.168 589.958 287.147 586.578 282.605C583.197 278.062 578.653 275.718 576.428 277.369C574.204 279.02 575.141 284.04 578.522 288.583C581.903 293.125 586.447 295.469 588.671 293.818Z" fill="#8A2C5B"/>
<path d="M592.814 302.724C595.123 297.555 594.966 292.461 592.463 291.346C589.961 290.231 586.06 293.518 583.751 298.687C581.442 303.855 581.599 308.949 584.102 310.064C586.605 311.179 590.505 307.893 592.814 302.724Z" fill="#8A2C5B"/>
<path d="M584.734 298.132C589.781 297.589 593.653 295.119 593.383 292.615C593.113 290.111 588.803 288.521 583.756 289.064C578.709 289.607 574.837 292.077 575.107 294.581C575.377 297.085 579.688 298.675 584.734 298.132Z" fill="#8A2C5B"/>
<path d="M611.804 426.015L590.941 520.383H524.63L503.766 426.015C502.582 420.61 505.965 415.317 510.589 415.317H604.981C609.661 415.317 612.988 420.61 611.804 426.015Z" fill="white"/>
<path d="M590.94 522.073H524.685C523.896 522.073 523.219 521.51 523.05 520.722L502.187 426.354C501.454 422.919 502.187 419.372 504.273 416.782C505.908 414.699 508.22 413.573 510.645 413.573H605.037C607.462 413.573 609.717 414.699 611.409 416.782C613.495 419.316 614.284 422.919 613.495 426.354L592.632 520.722C592.406 521.51 591.73 522.073 590.94 522.073ZM526.039 518.695H589.587L610.168 425.678C610.676 423.257 610.168 420.723 608.758 418.978C607.743 417.739 606.447 417.063 605.037 417.063H510.645C509.235 417.063 507.938 417.739 506.923 418.978C505.514 420.78 504.95 423.257 505.514 425.678L526.039 518.695Z" fill="#1E1E1E"/>
<path d="M492.939 251.695C490.965 238.519 480.929 227.934 467.847 225.231C456.964 222.979 445.969 220.67 442.867 219.882L442.473 221.571L373.06 216.222L372.327 206.425L343.062 206.707C310.019 209.747 285.322 262.449 273.086 294.487L266.319 312.279L317.857 292.685C317.688 302.369 318.59 311.998 321.071 321.063C333.533 367.571 308.948 381.647 308.948 381.647L295.528 442.626L279.176 441.5V523.087L453.524 522.749L450.818 382.098L492.939 251.695ZM450.818 329.959V329.283L450.931 329.959H450.818Z" fill="#8A2C5B"/>
<path d="M452.735 453.549L280.811 455.238L279.232 523.143H453.525L452.735 453.549Z" fill="#1E1E1E"/>
<path d="M326.314 276.413C326.089 276.413 325.807 276.357 325.581 276.244C324.736 275.85 324.397 274.837 324.792 273.992L335.111 253.047C335.506 252.202 336.521 251.864 337.366 252.258C338.212 252.652 338.55 253.666 338.156 254.511L327.837 275.456C327.555 276.076 326.935 276.413 326.314 276.413Z" fill="#1E1E1E"/>
<path d="M439.878 208.453C439.088 208.453 438.355 208.34 437.566 208.171C436.663 207.946 436.1 207.045 436.325 206.088C436.551 205.187 437.453 204.624 438.411 204.849C443.655 206.2 449.971 200.119 452.508 191.279C453.861 186.493 453.974 181.651 452.677 177.879C452.395 176.978 452.847 176.021 453.749 175.739C454.651 175.458 455.609 175.908 455.891 176.809C457.357 181.201 457.357 186.831 455.779 192.237C453.016 201.865 446.362 208.453 439.878 208.453Z" fill="#8A2C5B"/>
<path d="M354.228 194.32C353.438 194.32 352.705 194.207 351.916 194.038C351.014 193.813 350.45 192.912 350.675 191.955C350.901 191.054 351.803 190.491 352.762 190.716C358.006 192.068 364.321 185.987 366.858 177.147C368.212 172.361 368.268 167.518 367.028 163.746C366.746 162.845 367.197 161.888 368.099 161.606C369.001 161.325 369.96 161.775 370.242 162.676C371.708 167.068 371.708 172.698 370.129 178.104C367.309 187.732 360.656 194.32 354.228 194.32Z" fill="#8A2C5B"/>
<path d="M458.261 104.681C446.25 93.195 444.108 40.831 484.481 11.1017C525.362 -18.9653 551.074 20.4484 556.6 30.696C562.126 40.9436 563.874 67.2945 529.252 87.5645C494.631 107.834 471.963 117.8 458.261 104.681Z" fill="#1E1E1E"/>
<path d="M436.046 124.895L436.779 125.514C441.459 129.287 448.281 128.836 452.341 124.444L463.788 112.17C467.679 108.116 467.566 101.697 463.562 97.7556C463.393 97.5867 463.224 97.4178 463.055 97.3051L462.322 96.6858C457.642 92.9133 450.819 93.3638 446.759 97.7556L435.313 110.03C431.422 114.084 431.478 120.503 435.538 124.444C435.707 124.557 435.876 124.726 436.046 124.895Z" fill="#8A2C5B"/>
<path d="M413.671 141.074C428.633 126.686 433.669 107.668 424.92 98.5966C416.171 89.5251 396.949 93.8351 381.988 108.223C367.026 122.612 361.99 141.63 370.739 150.701C379.488 159.773 398.71 155.463 413.671 141.074Z" fill="#1E1E1E"/>
<path d="M406.554 140.66C418.508 157.327 434.578 165.322 448.167 164.984C462.602 164.646 473.09 133.453 461.136 116.787C449.182 100.12 416.591 89.1971 405.313 96.742C394.036 104.287 394.6 123.937 406.554 140.66Z" fill="#1E1E1E"/>
<path d="M452.096 176.525C458.58 174.412 462.208 167.715 460.198 161.566C458.189 155.416 451.304 152.144 444.82 154.257C438.336 156.369 434.709 163.066 436.718 169.216C438.728 175.365 445.613 178.637 452.096 176.525Z" fill="white"/>
<path d="M448.053 178.892C442.245 178.892 436.889 175.345 435.084 169.77C432.772 162.732 436.889 155.075 444.275 152.654C451.662 150.232 459.5 154.005 461.812 161.043C464.124 168.081 460.007 175.739 452.621 178.16C451.098 178.667 449.576 178.892 448.053 178.892ZM448.786 155.3C447.659 155.3 446.474 155.469 445.29 155.863C439.708 157.665 436.55 163.464 438.298 168.701C439.99 173.937 445.967 176.752 451.549 174.95C457.132 173.149 460.289 167.349 458.541 162.113C457.188 157.946 453.185 155.3 448.786 155.3Z" fill="#1E1E1E"/>
<path d="M368.811 161.05C375.292 158.93 378.911 152.228 376.895 146.082C374.878 139.935 367.99 136.671 361.508 138.791C355.027 140.911 351.408 147.612 353.425 153.759C355.441 159.905 362.33 163.17 368.811 161.05Z" fill="white"/>
<path d="M364.826 163.407C359.018 163.407 353.662 159.86 351.801 154.286C350.673 150.851 351.011 147.191 352.759 143.926C354.507 140.716 357.383 138.295 360.936 137.113C368.322 134.692 376.16 138.464 378.472 145.502C380.784 152.54 376.668 160.198 369.281 162.619C367.871 163.126 366.349 163.407 364.826 163.407ZM365.559 139.815C364.432 139.815 363.247 139.984 362.063 140.378C359.357 141.279 357.101 143.081 355.804 145.559C354.507 147.98 354.225 150.682 355.071 153.216C356.819 158.453 362.74 161.268 368.322 159.466C373.905 157.664 377.062 151.865 375.314 146.628C373.961 142.405 369.957 139.815 365.559 139.815Z" fill="#1E1E1E"/>
<path d="M391.217 192.236L385.748 208.903L370.749 207.945C369.282 210.029 356.934 249.499 394.713 255.017C419.523 258.676 436.834 240.546 448.845 222.923L428.151 218.531L441.796 171.122L391.217 192.236Z" fill="white"/>
<path d="M400.972 257.1C398.83 257.1 396.631 256.931 394.431 256.593C381.519 254.679 372.835 248.767 368.663 239.026C362.855 225.456 368.099 208.621 369.339 206.876C369.678 206.369 370.241 206.144 370.805 206.144L384.507 207.044L389.582 191.617C389.751 191.166 390.09 190.772 390.541 190.603L441.064 169.432C441.684 169.207 442.36 169.32 442.868 169.714C443.375 170.108 443.545 170.84 443.375 171.459L430.294 217.179L449.183 221.177C449.747 221.29 450.198 221.684 450.424 222.191C450.649 222.697 450.593 223.317 450.255 223.767C442.755 234.747 435.312 242.742 427.531 248.204C419.129 254.172 410.22 257.1 400.972 257.1ZM371.764 209.634C370.467 213.182 366.745 227.371 372.215 238.688C376.049 246.74 383.718 251.638 394.939 253.271C413.659 256.03 429.955 246.683 445.969 223.992L427.756 220.107C427.305 219.995 426.91 219.713 426.685 219.319C426.459 218.925 426.403 218.418 426.516 217.968L439.146 173.937L392.571 193.419L387.327 209.353C387.101 210.085 386.368 210.535 385.635 210.535L371.764 209.634Z" fill="#1E1E1E"/>
<path d="M443.949 166.625C452.402 140.269 442.618 113.583 422.096 107.02C401.574 100.457 378.085 116.502 369.631 142.858C361.178 169.213 370.962 195.9 391.484 202.463C412.006 209.026 435.495 192.981 443.949 166.625Z" fill="white"/>
<path d="M400.916 205.637C397.589 205.637 394.262 205.13 390.992 204.116C369.621 197.303 359.302 169.601 368.042 142.406C376.782 115.21 401.254 98.6563 422.625 105.469C443.996 112.282 454.315 139.985 445.575 167.18C438.188 190.209 419.467 205.637 400.916 205.637ZM371.256 143.363C363.08 168.813 372.441 194.544 392.007 200.851C394.939 201.808 397.928 202.258 400.972 202.258C418.058 202.258 435.425 187.731 442.361 166.167C450.537 140.773 441.176 114.985 421.61 108.679C401.987 102.373 379.433 117.969 371.256 143.363Z" fill="#1E1E1E"/>
<path d="M401.818 167.8C401.705 167.8 401.649 167.8 401.536 167.8L394.206 166.617C393.473 166.505 392.796 166.111 392.345 165.435C391.894 164.816 391.725 164.027 391.838 163.295C391.894 163.07 391.95 162.845 392.007 162.676L399.901 143.307C400.239 142.462 401.254 142.012 402.1 142.406C402.946 142.744 403.397 143.757 403.002 144.602L395.334 163.352L402.044 164.478C402.946 164.647 403.566 165.491 403.453 166.392C403.34 167.237 402.607 167.8 401.818 167.8Z" fill="#1E1E1E"/>
<path d="M426.346 138.859C425.895 138.859 425.387 138.633 425.049 138.295C424.823 138.07 420.143 132.834 415.463 136.043C414.674 136.55 413.659 136.381 413.095 135.593C412.587 134.805 412.756 133.791 413.546 133.228C419.354 129.23 425.274 133.341 427.643 136.043C428.263 136.775 428.15 137.789 427.473 138.408C427.135 138.69 426.74 138.859 426.346 138.859Z" fill="#1E1E1E"/>
<path d="M384.676 134.918C384.338 134.918 383.999 134.805 383.717 134.636C382.928 134.073 382.759 133.06 383.323 132.271C387.326 126.641 394.431 128.33 397.645 130.019C398.491 130.47 398.773 131.483 398.378 132.328C397.927 133.172 396.912 133.454 396.123 133.06C395.841 132.891 389.413 129.625 386.142 134.298C385.691 134.636 385.183 134.918 384.676 134.918Z" fill="#1E1E1E"/>
<path d="M418.108 152.694C418.343 150.249 417.202 148.139 415.559 147.981C413.916 147.823 412.393 149.678 412.158 152.123C411.923 154.568 413.064 156.679 414.707 156.836C416.35 156.994 417.872 155.139 418.108 152.694Z" fill="#1E1E1E"/>
<path d="M390.755 150.569C391.248 148.162 390.335 145.944 388.718 145.614C387.101 145.285 385.391 146.969 384.899 149.376C384.407 151.783 385.319 154.001 386.936 154.331C388.554 154.66 390.263 152.976 390.755 150.569Z" fill="#1E1E1E"/>
<path d="M437.116 110.425C437.116 110.425 421.553 116.844 422.455 126.697L356.088 122.362C356.088 122.362 349.152 72.0808 428.545 96.1795L437.116 110.425Z" fill="#1E1E1E"/>
<path d="M432.492 112.677C432.492 112.677 427.248 145.615 448.562 154.624L448.957 125.458L432.492 112.677Z" fill="#1E1E1E"/>
<path d="M352.367 194.094C352.198 194.094 352.085 194.094 351.916 194.038L351.691 193.982C344.473 191.898 341.372 181.707 344.529 170.728C347.687 159.804 355.807 152.823 362.968 154.906C363.87 155.187 364.378 156.088 364.152 156.989C363.87 157.89 362.968 158.397 362.066 158.172C356.878 156.708 350.337 162.901 347.8 171.685C345.263 180.525 347.462 189.252 352.649 190.716L352.818 190.772C353.721 190.998 354.284 191.955 354.003 192.856C353.777 193.588 353.1 194.094 352.367 194.094Z" fill="#8A2C5B"/>
<path d="M438.017 208.227C437.848 208.227 437.679 208.227 437.566 208.171L437.341 208.114C433.788 207.101 431.082 204.004 429.785 199.443C428.544 195.164 428.713 189.984 430.179 184.916C431.645 179.849 434.296 175.401 437.622 172.417C441.175 169.264 445.066 168.081 448.618 169.095C449.52 169.376 450.028 170.277 449.746 171.178C449.464 172.079 448.562 172.586 447.659 172.304C445.235 171.628 442.472 172.529 439.822 174.894C436.946 177.484 434.69 181.313 433.393 185.817C432.097 190.322 431.984 194.826 432.999 198.486C433.957 201.921 435.818 204.173 438.243 204.849L438.468 204.905C439.37 205.186 439.878 206.087 439.596 206.988C439.427 207.72 438.75 208.227 438.017 208.227Z" fill="#8A2C5B"/>
<path d="M401.76 182.383C400.463 182.383 399.223 182.271 398.208 182.102C397.305 181.933 396.685 181.088 396.798 180.187C396.967 179.286 397.813 178.667 398.715 178.78C399.335 178.892 412.755 180.863 416.082 169.996C416.364 169.095 417.323 168.588 418.169 168.87C419.071 169.151 419.578 170.109 419.296 170.953C416.646 180.075 408.019 182.383 401.76 182.383Z" fill="#1E1E1E"/>
<path d="M223.069 456.252L205.138 521.904H312.893L295.413 455.688L223.069 456.252Z" fill="#4E2D5E"/>
<path d="M399.787 458.673H127.72C124.731 458.673 122.306 456.252 122.306 453.268L123.829 277.989C123.829 275.005 124.731 269.487 127.663 269.487H399.731C402.719 269.487 405.144 271.908 405.144 274.893V453.268C405.2 456.252 402.776 458.673 399.787 458.673Z" fill="#4E2D5E"/>
<path d="M257.523 502.309C249.403 502.309 242.806 495.722 242.806 487.614C242.806 479.506 249.403 472.918 257.523 472.918C265.642 472.918 272.24 479.506 272.24 487.614C272.24 495.722 265.642 502.309 257.523 502.309ZM257.523 476.296C251.264 476.296 246.189 481.364 246.189 487.614C246.189 493.864 251.264 498.931 257.523 498.931C263.782 498.931 268.856 493.864 268.856 487.614C268.856 481.364 263.782 476.296 257.523 476.296Z" fill="white"/>
<path d="M300.716 521.848C299.927 521.848 299.25 521.341 299.081 520.553L284.702 459.349C284.477 458.448 285.04 457.547 285.943 457.322C286.845 457.097 287.747 457.66 287.973 458.561L302.351 519.765C302.577 520.666 302.013 521.567 301.111 521.792C300.942 521.792 300.829 521.848 300.716 521.848Z" fill="white"/>
<path d="M143.394 281.366H372.438C375.878 281.366 378.641 284.125 378.641 287.56V436.431C378.641 439.866 375.878 442.625 372.438 442.625H143.394C139.954 442.625 137.191 439.866 137.191 436.431V287.56C137.191 284.181 139.954 281.366 143.394 281.366Z" fill="white"/>
<path d="M372.439 444.315H143.395C139.053 444.315 135.501 440.768 135.501 436.432V287.56C135.501 283.225 139.053 279.678 143.395 279.678H372.439C376.781 279.678 380.334 283.225 380.334 287.56V436.432C380.334 440.768 376.781 444.315 372.439 444.315ZM143.395 283.056C140.914 283.056 138.884 285.083 138.884 287.56V436.432C138.884 438.909 140.914 440.936 143.395 440.936H372.439C374.92 440.936 376.95 438.909 376.95 436.432V287.56C376.95 285.083 374.92 283.056 372.439 283.056H143.395Z" fill="white"/>
<path d="M392.175 458.729C391.216 458.729 390.483 457.997 390.483 457.04V271.007C390.483 270.05 391.216 269.318 392.175 269.318C393.134 269.318 393.867 270.05 393.867 271.007V457.04C393.867 457.941 393.134 458.729 392.175 458.729Z" fill="white"/>
<path d="M40.94 510.812H226.735C228.483 510.812 229.893 512.219 229.893 513.965V519.877C229.893 521.622 228.483 523.03 226.735 523.03H40.94C39.192 523.03 37.7823 521.622 37.7823 519.877V513.965C37.7259 512.276 39.192 510.812 40.94 510.812Z" fill="#8A2C5B"/>
<path d="M363.868 510.812H420.706C422.454 510.812 423.864 512.219 423.864 513.965V519.877C423.864 521.622 422.454 523.03 420.706 523.03H363.868C362.12 523.03 360.71 521.622 360.71 519.877V513.965C360.71 512.276 362.12 510.812 363.868 510.812Z" fill="#8A2C5B"/>
<path d="M257.523 365.037L316.503 335.138C321.184 344.373 323.665 354.62 323.665 365.037C323.665 401.241 293.836 431.027 257.579 431.027C237.449 431.027 218.39 421.849 205.872 406.14L257.523 365.037Z" fill="#8A2C5B"/>
<path d="M362.797 316.163H308.215C307.369 316.163 306.636 315.488 306.636 314.587C306.636 313.686 307.312 313.01 308.215 313.01H362.797C363.643 313.01 364.376 313.686 364.376 314.587C364.376 315.488 363.643 316.163 362.797 316.163Z" fill="#1E1E1E"/>
<path d="M362.797 323.483H333.701C332.855 323.483 332.122 322.807 332.122 321.907C332.122 321.006 332.799 320.33 333.701 320.33H362.797C363.642 320.33 364.375 321.006 364.375 321.907C364.375 322.807 363.642 323.483 362.797 323.483Z" fill="#1E1E1E"/>
<path d="M362.798 330.916H343.457C342.611 330.916 341.878 330.24 341.878 329.34C341.878 328.439 342.555 327.763 343.457 327.763H362.798C363.643 327.763 364.376 328.439 364.376 329.34C364.376 330.24 363.643 330.916 362.798 330.916Z" fill="#1E1E1E"/>
<path d="M364.433 414.078H293.892C293.047 414.078 292.313 413.402 292.313 412.502C292.313 411.601 292.99 410.925 293.892 410.925H364.433C365.278 410.925 366.011 411.601 366.011 412.502C366.011 413.402 365.278 414.078 364.433 414.078Z" fill="#1E1E1E"/>
<path d="M364.433 419.878H351.238C350.393 419.878 349.66 419.202 349.66 418.301C349.66 417.4 350.336 416.725 351.238 416.725H364.433C365.279 416.725 366.012 417.4 366.012 418.301C366.012 419.202 365.279 419.878 364.433 419.878Z" fill="#1E1E1E"/>
<path d="M217.432 310.083H175.367C174.522 310.083 173.789 309.407 173.789 308.507C173.789 307.606 174.465 306.93 175.367 306.93H217.432C218.278 306.93 219.011 307.606 219.011 308.507C219.011 309.407 218.278 310.083 217.432 310.083Z" fill="#1E1E1E"/>
<path d="M183.825 316.051H175.367C174.522 316.051 173.789 315.375 173.789 314.474C173.789 313.573 174.465 312.898 175.367 312.898H183.825C184.671 312.898 185.404 313.573 185.404 314.474C185.404 315.375 184.671 316.051 183.825 316.051Z" fill="#1E1E1E"/>
<path d="M195.329 408.899C194.878 408.899 194.427 408.674 194.088 408.336C185.123 397.075 180.104 382.998 179.992 368.641C179.992 367.796 180.668 367.064 181.514 367.064L245.119 366.332C245.795 366.332 246.359 366.726 246.585 367.346C246.81 367.965 246.585 368.697 246.077 369.091L196.288 408.561C196.006 408.786 195.667 408.899 195.329 408.899ZM183.149 370.161C183.6 382.773 187.999 395.104 195.611 405.183L240.608 369.541L183.149 370.161Z" fill="#8A2C5B"/>
<path d="M184.22 364.699C183.826 364.699 183.431 364.53 183.093 364.249C182.811 363.967 182.642 363.573 182.642 363.123V362.278C182.642 354.17 184.108 346.287 187.04 338.742C187.378 337.954 188.28 337.56 189.07 337.841L248.333 360.814C249.009 361.096 249.46 361.828 249.291 362.56C249.178 363.292 248.502 363.855 247.769 363.855L184.22 364.699C184.277 364.699 184.22 364.699 184.22 364.699ZM189.464 341.332C187.096 347.808 185.912 354.62 185.799 361.546L239.705 360.814L189.464 341.332Z" fill="#8A2C5B"/>
<path d="M259.948 357.773C259.553 357.773 259.102 357.605 258.82 357.267C258.369 356.76 258.256 356.028 258.595 355.409L289.946 300.342C290.397 299.61 291.356 299.328 292.089 299.779C303.366 306.198 312.444 315.713 318.252 327.312C318.421 327.706 318.478 328.101 318.365 328.495C318.252 328.889 317.97 329.227 317.575 329.396L260.681 357.605C260.399 357.717 260.174 357.773 259.948 357.773ZM291.863 303.27L263.839 352.537L314.7 327.312C309.399 317.346 301.505 309.126 291.863 303.27Z" fill="#8A2C5B"/>
<path d="M283.912 302.65C274.439 297.189 263.669 294.317 252.73 294.261H251.659C225.721 294.542 202.546 310.477 193.073 334.575L252.279 357.717L283.912 302.65Z" fill="#1E1E1E"/>
<path d="M193.411 380.69H151.346C150.501 380.69 149.768 380.014 149.768 379.113C149.768 378.212 150.444 377.537 151.346 377.537H193.411C194.257 377.537 194.99 378.212 194.99 379.113C194.99 380.014 194.257 380.69 193.411 380.69Z" fill="#1E1E1E"/>
<path d="M166.572 386.658H151.404C150.558 386.658 149.825 385.983 149.825 385.082C149.825 384.181 150.502 383.505 151.404 383.505H166.572C167.418 383.505 168.151 384.181 168.151 385.082C168.151 385.983 167.418 386.658 166.572 386.658Z" fill="#1E1E1E"/>
<path d="M342.442 364.193L333.59 342.515C330.883 338.011 334.943 334.07 339.398 337.448C341.766 339.193 343.739 341.446 345.262 343.923C351.126 353.608 364.095 373.878 363.418 373.089C362.742 372.301 342.442 364.193 342.442 364.193Z" fill="white"/>
<path d="M363.362 374.835C362.967 374.835 362.573 374.666 362.234 374.44C360.994 373.652 350.844 369.429 341.766 365.769C341.371 365.601 341.033 365.263 340.807 364.869L332.011 343.304C330.15 340.151 330.996 337.223 332.688 335.759C334.717 333.957 337.706 334.126 340.356 336.153C342.894 338.067 344.98 340.376 346.615 343.135C349.604 348.033 354.453 355.747 358.344 361.941C360.148 364.812 361.783 367.402 362.967 369.26C363.531 370.218 364.039 370.95 364.321 371.513C364.885 372.413 365.618 373.652 364.377 374.553C364.095 374.722 363.7 374.835 363.362 374.835ZM343.739 362.898C351.182 365.938 355.919 367.909 358.964 369.204C357.949 367.571 356.708 365.657 355.524 363.686C351.634 357.493 346.784 349.722 343.796 344.824C342.386 342.459 340.582 340.432 338.383 338.799C337.086 337.786 335.732 337.56 334.999 338.236C334.379 338.799 334.154 340.094 335.056 341.614C335.112 341.671 335.112 341.783 335.169 341.84L343.739 362.898Z" fill="#1E1E1E"/>
<path d="M411.179 356.478L364.491 366.782L341.598 355.127L311.036 345.836C307.314 344.71 304.551 349.44 307.427 352.086C308.95 353.494 331.955 361.208 331.955 361.208L302.691 357.942C300.83 357.717 299.138 359.124 298.913 360.982C298.8 361.883 299.082 362.784 299.646 363.46C301.563 365.825 305.002 365.994 309.626 367.063C312.446 367.683 330.489 369.822 330.489 369.822L304.664 371.624C298.292 372.356 298.462 381.478 310.641 379.957C316.957 379.169 324.625 379.225 329.982 377.761L312.502 382.773C306.75 386.264 312.671 392.739 337.312 385.306C352.311 397.356 360.149 399.608 373.682 391.669C373.738 391.613 418.961 384.237 418.961 384.237L411.179 356.478Z" fill="white"/>
<path d="M359.415 397.807C352.141 397.807 345.431 393.865 336.804 386.996C318.76 392.289 310.584 390.318 308.949 386.714C308.329 385.251 308.554 383.167 311.035 381.422C310.922 381.422 310.81 381.422 310.697 381.478C303.761 382.323 300.885 380.014 299.758 378.494C298.63 376.974 298.348 375.059 299.081 373.314C299.927 371.343 301.9 370.048 304.325 369.767H304.381L313.009 369.147C311.148 368.866 309.738 368.64 309.062 368.528C308.159 368.303 307.314 368.134 306.468 367.965C303.028 367.289 300.04 366.67 298.122 364.305C297.277 363.235 296.882 361.884 297.051 360.589C297.22 359.237 297.841 357.999 298.912 357.154C299.983 356.31 301.337 355.915 302.69 356.028L316.843 357.605C311.486 355.634 306.919 353.888 306.129 353.156C304.269 351.467 303.874 348.821 305.114 346.569C306.411 344.316 308.892 343.303 311.373 344.035L341.935 353.325C342.048 353.382 342.104 353.382 342.217 353.438L364.603 364.868L410.727 354.733C411.63 354.564 412.475 355.071 412.701 355.915L420.37 383.561C420.482 384.012 420.426 384.519 420.144 384.913C419.862 385.307 419.467 385.588 419.016 385.645C404.412 388.009 377.121 392.458 374.076 393.021C368.606 396.343 363.926 397.807 359.415 397.807ZM337.199 383.505C337.593 383.505 337.932 383.618 338.27 383.899C353.382 396.005 360.43 397.3 372.666 390.093C373.005 389.868 373.005 389.868 416.648 382.773L409.994 358.505L364.828 368.472C364.434 368.528 364.039 368.528 363.701 368.303L340.92 356.704L310.471 347.47C309.344 347.132 308.498 347.751 308.103 348.427C307.708 349.102 307.596 350.06 308.441 350.792C309.851 351.749 321.692 355.972 332.406 359.575C333.252 359.857 333.703 360.701 333.534 361.546C333.364 362.39 332.575 362.954 331.673 362.841L302.408 359.575C301.957 359.519 301.506 359.632 301.111 359.969C300.773 360.251 300.547 360.701 300.491 361.152C300.434 361.602 300.547 362.053 300.829 362.39C301.957 363.798 304.156 364.249 307.201 364.812C308.047 364.981 308.949 365.149 309.851 365.375C311.994 365.881 324.342 367.402 330.545 368.134C331.391 368.246 332.068 368.978 332.011 369.879C332.011 370.724 331.334 371.456 330.432 371.512L304.663 373.314C303.479 373.483 302.521 374.046 302.182 374.834C301.9 375.453 302.013 376.073 302.464 376.636C302.859 377.199 304.72 379.001 310.246 378.269C312.558 377.987 315.095 377.818 317.52 377.593C321.749 377.311 326.09 376.974 329.361 376.073C330.263 375.848 331.165 376.354 331.447 377.255C331.673 378.156 331.165 379.057 330.263 379.338L313.009 384.293C312.163 384.856 311.937 385.307 311.994 385.476C312.614 386.827 319.55 388.854 336.635 383.674C336.86 383.505 337.03 383.505 337.199 383.505Z" fill="#1E1E1E"/>
<path d="M443.263 263.237L491.643 245.332L516.341 361.941C517.976 374.102 509.969 385.533 497.959 388.179L373.343 405.746C369.678 406.028 366.408 403.55 365.675 399.947L365.562 361.715C364.772 357.774 367.31 354.001 371.257 353.213C371.426 353.157 371.652 353.157 371.821 353.101L453.357 345.049L443.263 263.237Z" fill="#8A2C5B"/>
<path d="M467.509 351.975C466.663 351.975 465.93 351.355 465.817 350.455C464.859 342.065 451.721 341.727 450.255 341.727L413.152 348.202C412.25 348.371 411.347 347.752 411.178 346.851C411.009 345.95 411.629 345.049 412.532 344.88L449.803 338.349C449.916 338.349 449.973 338.349 450.085 338.349C450.818 338.349 467.791 338.236 469.144 350.117C469.257 351.018 468.58 351.862 467.678 351.975C467.622 351.975 467.565 351.975 467.509 351.975Z" fill="#1E1E1E"/>
<path d="M471.569 343.416C471.062 343.416 470.554 343.191 470.216 342.74C467.904 339.813 465.197 338.123 462.209 337.786C456.57 337.11 451.495 341.051 451.439 341.108C450.988 341.502 450.311 341.558 449.747 341.333C449.184 341.108 448.789 340.601 448.676 339.981L439.823 278.158C439.711 277.257 440.331 276.356 441.233 276.244C442.135 276.131 443.037 276.75 443.15 277.651L451.665 336.941C454.089 335.59 458.093 333.9 462.604 334.463C466.551 334.914 470.047 337.054 472.922 340.713C473.486 341.445 473.374 342.515 472.641 343.078C472.302 343.303 471.907 343.416 471.569 343.416Z" fill="#1E1E1E"/>
<path d="M482.001 453.55C480.647 453.381 479.294 453.324 477.884 453.437C466.833 454.282 458.544 463.854 459.389 474.889C459.446 476.015 459.671 477.142 459.953 478.211C460.686 481.252 462.152 484.067 464.182 486.432C467.904 490.768 473.373 493.301 479.125 493.358V504.675C479.125 514.528 487.132 522.58 497.056 522.58H527.28C537.147 522.58 545.211 514.585 545.211 504.675V460.475C545.211 456.646 542.109 453.55 538.275 453.55H482.001ZM472.133 481.759C469.877 479.844 468.524 477.142 468.299 474.214C467.848 468.133 472.415 462.84 478.561 462.333H479.125V484.461C476.531 484.461 474.05 483.504 472.133 481.759Z" fill="#4E2D5E"/>
<path d="M513.972 498.538V500.959C513.972 501.972 513.126 502.817 512.111 502.817C511.097 502.817 510.251 501.972 510.251 500.959V498.425C508.446 498.144 506.698 497.524 505.119 496.623C504.161 496.06 503.823 494.878 504.274 493.864V493.808C504.838 492.738 506.078 492.344 507.149 492.851C507.206 492.851 507.206 492.907 507.262 492.907C508.841 493.864 510.645 494.427 512.506 494.54C514.085 494.54 515.1 493.977 515.1 492.851C515.1 489.36 504.668 491.443 504.668 484.461C504.668 481.421 506.811 479.338 510.251 478.718V476.353C510.251 475.34 511.097 474.495 512.111 474.495C513.126 474.495 513.972 475.34 513.972 476.353V478.493C515.495 478.662 516.961 479.056 518.37 479.619C519.442 480.07 519.949 481.365 519.498 482.434C519.498 482.491 519.498 482.491 519.442 482.547L519.385 482.66C518.878 483.729 517.637 484.18 516.566 483.673C515.156 483.054 513.634 482.66 512.111 482.547C510.815 482.547 509.969 482.997 509.912 483.955C509.912 487.389 520.344 485.419 520.344 492.569C520.4 496.06 517.637 498.087 513.972 498.538Z" fill="white"/>
<path d="M1.69161 525.733C0.733031 525.733 0 525.001 0 524.044C0 523.086 0.733031 522.354 1.69161 522.354L628.973 518.413C629.931 518.413 630.664 519.145 630.664 520.102C630.664 521.059 629.931 521.791 628.973 521.791L1.69161 525.733Z" fill="#1E1E1E"/>
<g clip-path="url(#clip0)">
<path d="M148.711 245H126.553C125.673 245 125 244.323 125 243.437V208.64C125 207.755 125.673 207.078 126.553 207.078H148.711C149.591 207.078 150.264 207.755 150.264 208.64V243.437C150.264 244.323 149.591 245 148.711 245ZM128.106 241.874H147.158V210.203H128.106V241.874Z" fill="#1E1E1E"/>
<path d="M183.5 245H161.291C160.411 245 159.738 244.323 159.738 243.437V194.003C159.738 193.117 160.411 192.44 161.291 192.44H183.5C184.38 192.44 185.053 193.117 185.053 194.003V243.437C185.053 244.323 184.329 245 183.5 245ZM162.844 241.874H181.947V195.565H162.844V241.874Z" fill="#1E1E1E"/>
<path d="M218.238 245H196.08C195.2 245 194.527 244.323 194.527 243.437V170.874C194.527 169.989 195.2 169.312 196.08 169.312H218.238C219.118 169.312 219.791 169.989 219.791 170.874V243.437C219.791 244.323 219.118 245 218.238 245ZM197.634 241.874H216.685V172.437H197.634V241.874Z" fill="#1E1E1E"/>
<path d="M252.975 150.871H230.818V243.437H252.975V150.871Z" fill="#8A2C5B"/>
<path d="M260.482 103.364C260.12 103.052 259.654 102.948 259.24 103L244.744 105.344C243.916 105.5 243.346 106.282 243.45 107.167C243.605 108.001 244.382 108.574 245.262 108.469L254.736 106.959L226.418 139.984L214.873 128.785C214.562 128.472 214.148 128.316 213.734 128.368C213.32 128.368 212.906 128.577 212.647 128.889L174.751 173.166L163.776 164.884C163.155 164.415 162.326 164.467 161.757 164.988L127.64 197.805C127.019 198.431 127.019 199.42 127.64 199.993C128.21 200.566 129.142 200.618 129.763 200.045L162.844 168.114L173.974 176.5C174.647 176.969 175.528 176.917 176.097 176.292L213.837 132.171L225.434 143.318C225.745 143.631 226.159 143.787 226.573 143.735C226.987 143.735 227.401 143.527 227.66 143.214L257.842 107.948L257.635 120.294C257.635 121.18 258.308 121.857 259.136 121.857C259.136 121.857 259.136 121.857 259.188 121.857C260.016 121.857 260.741 121.18 260.741 120.294L261 104.51C261 104.146 260.845 103.677 260.482 103.364Z" fill="#8A2C5B"/>
</g>
<defs>
<clipPath id="clip0">
<rect width="136" height="142" fill="white" transform="translate(125 103)"/>
</clipPath>
</defs>
</svg>
