<svg width="517" height="299" viewBox="0 0 517 299" fill="none" xmlns="http://www.w3.org/2000/svg">
<path d="M168.764 57.729C102.164 57.729 48.2734 111.643 48.2734 177.999C48.2734 190.928 50.3509 203.492 54.1391 215.202L168.764 177.999V57.729Z" fill="#4E2D5E"/>
<path d="M283.512 140.917C267.87 92.6145 222.411 57.729 168.887 57.729V177.999L54.2612 215.202C69.9031 263.505 115.362 298.39 168.887 298.39C235.487 298.39 289.378 244.476 289.378 178.121C289.378 165.191 287.3 152.627 283.512 140.917Z" fill="#8A2C5B"/>
<path d="M168.765 0.0695801V178.12" stroke="#1E1E1E" stroke-width="2" stroke-miterlimit="10"/>
<path d="M1 231.568L168.765 178.121" stroke="#1E1E1E" stroke-width="2" stroke-miterlimit="10"/>
<path d="M157.363 223.818H153.288L148.804 226.606V230.406L152.87 227.92H152.977V242H157.363V223.818ZM169.789 223.818H165.714L161.231 226.606V230.406L165.297 227.92H165.404V242H169.789V223.818ZM180.911 242.249C185.164 242.249 188.253 240.038 188.253 237.082C188.253 234.827 186.433 232.998 184.169 232.643V232.501C186.14 232.128 187.578 230.494 187.578 228.488C187.578 225.656 184.755 223.57 180.911 223.57C177.067 223.57 174.244 225.647 174.244 228.488C174.244 230.494 175.647 232.128 177.653 232.501V232.643C175.354 232.998 173.569 234.827 173.569 237.082C173.569 240.038 176.659 242.249 180.911 242.249ZM180.911 239.132C179.295 239.132 178.177 238.12 178.177 236.727C178.177 235.306 179.331 234.285 180.911 234.285C182.491 234.285 183.645 235.315 183.645 236.727C183.645 238.129 182.518 239.132 180.911 239.132ZM180.911 231.187C179.526 231.187 178.532 230.255 178.532 228.967C178.532 227.689 179.517 226.792 180.911 226.792C182.305 226.792 183.29 227.698 183.29 228.967C183.29 230.263 182.287 231.187 180.911 231.187Z" fill="white"/>
<path d="M100.237 153.249C104.472 153.249 107.295 150.585 107.295 146.839C107.295 143.376 104.88 140.908 101.613 140.908C99.8906 140.908 98.4612 141.645 97.8576 142.648H97.751L98.1683 138.36H106.22V134.818H94.555L93.7649 144.619L97.6445 145.347C98.1328 144.531 99.1448 144.025 100.21 144.033C101.879 144.033 103.069 145.214 103.06 146.963C103.069 148.703 101.897 149.875 100.237 149.875C98.8252 149.875 97.6622 148.996 97.6001 147.656H93.3387C93.392 150.923 96.2595 153.249 100.237 153.249ZM116.623 153.249C120.884 153.249 123.912 150.994 123.903 147.833C123.912 145.596 122.447 143.998 119.642 143.669V143.527C121.746 143.225 123.237 141.814 123.228 139.772C123.237 136.807 120.556 134.57 116.659 134.57C112.735 134.57 109.876 136.842 109.84 140.074H114.04C114.075 138.831 115.194 137.996 116.659 137.996C118.052 137.996 119.002 138.84 118.993 140.056C119.002 141.317 117.884 142.187 116.268 142.187H114.501V145.312H116.268C118.106 145.312 119.304 146.217 119.286 147.496C119.304 148.783 118.203 149.68 116.641 149.68C115.087 149.68 113.942 148.854 113.898 147.656H109.476C109.512 150.94 112.468 153.249 116.623 153.249Z" fill="white"/>
<path d="M375.37 115.636H372.913L369.852 117.574V119.892L372.683 118.118H372.756V128H375.37V115.636ZM383.687 115.636H381.23L378.169 117.574V119.892L381.001 118.118H381.073V128H383.687V115.636ZM391.238 128.169C394.027 128.169 396.031 126.678 396.037 124.674C396.031 123.128 394.842 121.866 393.357 121.619V121.534C394.649 121.269 395.572 120.152 395.578 118.794C395.572 116.88 393.737 115.467 391.238 115.467C388.733 115.467 386.897 116.88 386.903 118.794C386.897 120.146 387.809 121.269 389.125 121.534V121.619C387.616 121.866 386.439 123.128 386.445 124.674C386.439 126.678 388.449 128.169 391.238 128.169ZM391.238 126.249C389.994 126.249 389.161 125.513 389.161 124.468C389.161 123.4 390.037 122.627 391.238 122.627C392.433 122.627 393.315 123.4 393.315 124.468C393.315 125.519 392.475 126.249 391.238 126.249ZM391.238 120.725C390.193 120.725 389.451 120.043 389.451 119.065C389.451 118.099 390.181 117.435 391.238 117.435C392.288 117.435 393.025 118.105 393.025 119.065C393.025 120.043 392.276 120.725 391.238 120.725ZM407.305 125.157L404.866 118.727H401.824V128H404.281V122.307L406.448 128H408.156L410.456 122.102V128H412.883V118.727H409.817L407.305 125.157ZM414.329 128H415.102C417.07 128 418.114 126.696 418.271 123.581L418.416 120.75H420.704V128H423.155V118.727H416.104L415.953 122.832C415.863 125.181 415.5 125.96 414.625 125.96H414.317L414.329 128ZM425.149 131.477H427.721V126.515H427.799C428.155 127.288 428.934 128.151 430.431 128.151C432.544 128.151 434.192 126.479 434.192 123.376C434.192 120.188 432.472 118.607 430.437 118.607C428.886 118.607 428.143 119.53 427.799 120.285H427.684V118.727H425.149V131.477ZM427.666 123.364C427.666 121.71 428.367 120.653 429.616 120.653C430.89 120.653 431.566 121.758 431.566 123.364C431.566 124.982 430.878 126.104 429.616 126.104C428.379 126.104 427.666 125.018 427.666 123.364ZM435.182 130.717H437.694V128H443.362V130.717H445.813V125.96H444.376V118.727H437.265L437.023 121.758C436.879 123.581 436.704 125.446 435.895 125.96H435.182V130.717ZM438.454 125.96C439.004 125.096 439.215 123.738 439.354 121.758L439.45 120.707H441.95V125.96H438.454ZM457.591 123.527C460.465 123.527 462.27 122.023 462.258 119.627C462.27 117.345 460.525 115.636 457.591 115.636H452.762V121.432H451.005V123.527H452.762V124.324H451.005V126.418H452.762V128H455.358V126.418H458.056V124.324H455.358V123.527H457.591ZM455.358 121.432V117.761H457.591C458.974 117.761 459.65 118.594 459.644 119.657C459.65 120.744 458.986 121.432 457.519 121.432H455.358ZM370.438 153H371.434V147.988H377.623V153H378.619V142.091H377.623V147.093H371.434V142.091H370.438V153ZM380.484 155.647H381.432V153H389.475V155.621H390.423V152.105H389.145V142.091H382.907L382.689 146.826C382.556 149.905 381.933 151.317 381.176 152.105H380.484V155.647ZM382.369 152.105C383.105 150.976 383.525 149.325 383.643 146.826L383.813 142.986H388.197V152.105H382.369ZM401.115 145.5C400.759 143.492 399.118 141.942 396.795 141.942C394.042 141.942 392.081 144.131 392.081 147.545C392.081 150.96 394.042 153.149 396.795 153.149C399.118 153.149 400.759 151.594 401.115 149.591H400.114C399.81 151.088 398.505 152.212 396.795 152.212C394.729 152.212 393.045 150.576 393.045 147.545C393.045 144.525 394.729 142.879 396.795 142.879C398.505 142.879 399.81 144.009 400.114 145.5H401.115ZM374.507 203.169C377.259 203.169 379.131 201.376 379.125 198.877C379.131 196.51 377.477 194.808 375.249 194.808C374.162 194.808 373.227 195.261 372.792 195.87H372.72L373.04 192.773H378.443V190.636H370.884L370.299 197.156L372.623 197.573C373.003 197.06 373.74 196.74 374.47 196.74C375.714 196.746 376.607 197.645 376.607 198.943C376.607 200.229 375.732 201.116 374.507 201.116C373.468 201.116 372.629 200.464 372.569 199.505H370.033C370.081 201.642 371.947 203.169 374.507 203.169ZM385.518 203.169C388.295 203.169 390.281 201.642 390.275 199.529C390.281 197.989 389.303 196.891 387.486 196.661V196.565C388.868 196.317 389.822 195.339 389.816 193.951C389.822 192.001 388.114 190.467 385.554 190.467C383.019 190.467 381.111 191.952 381.075 194.089H383.58C383.61 193.148 384.474 192.538 385.542 192.538C386.599 192.538 387.305 193.178 387.299 194.108C387.305 195.08 386.478 195.738 385.288 195.738H384.135V197.657H385.288C386.689 197.657 387.564 198.358 387.558 199.354C387.564 200.338 386.719 201.014 385.524 201.014C384.371 201.014 383.508 200.41 383.459 199.505H380.827C380.869 201.666 382.801 203.169 385.518 203.169ZM401.594 200.157L399.155 193.727H396.113V203H398.57V197.307L400.737 203H402.445L404.746 197.102V203H407.172V193.727H404.106L401.594 200.157ZM408.618 203H409.391C411.359 203 412.403 201.696 412.56 198.581L412.705 195.75H414.993V203H417.444V193.727H410.393L410.242 197.832C410.152 200.181 409.789 200.96 408.914 200.96H408.606L408.618 203ZM419.438 206.477H422.01V201.515H422.088C422.444 202.288 423.223 203.151 424.72 203.151C426.833 203.151 428.481 201.479 428.481 198.376C428.481 195.188 426.761 193.607 424.726 193.607C423.175 193.607 422.432 194.53 422.088 195.285H421.973V193.727H419.438V206.477ZM421.955 198.364C421.955 196.71 422.656 195.653 423.905 195.653C425.179 195.653 425.855 196.758 425.855 198.364C425.855 199.982 425.167 201.104 423.905 201.104C422.668 201.104 421.955 200.018 421.955 198.364ZM429.471 205.717H431.983V203H437.651V205.717H440.102V200.96H438.666V193.727H431.554L431.313 196.758C431.168 198.581 430.993 200.446 430.184 200.96H429.471V205.717ZM432.743 200.96C433.293 200.096 433.504 198.738 433.643 196.758L433.739 195.707H436.239V200.96H432.743ZM451.88 198.527C454.754 198.527 456.559 197.023 456.547 194.627C456.559 192.345 454.814 190.636 451.88 190.636H447.051V196.432H445.294V198.527H447.051V199.324H445.294V201.418H447.051V203H449.647V201.418H452.345V199.324H449.647V198.527H451.88ZM449.647 196.432V192.761H451.88C453.263 192.761 453.939 193.594 453.933 194.657C453.939 195.744 453.275 196.432 451.808 196.432H449.647ZM371.189 219.818H370.241V228H371.189V224.362H375.514V228H376.462V219.818H375.514V223.467H371.189V219.818ZM381.271 228.186C382.634 228.186 383.465 227.43 383.806 226.706H383.865V228H384.813V222.444C384.813 220.25 383.162 219.706 381.91 219.706C380.658 219.706 379.369 220.202 378.815 221.539L379.715 221.864C380.014 221.161 380.754 220.559 381.937 220.559C383.178 220.559 383.865 221.24 383.865 222.359V222.551C383.865 223.169 383.098 223.179 381.724 223.35C379.875 223.579 378.581 224.096 378.581 225.715C378.581 227.292 379.785 228.186 381.271 228.186ZM381.399 227.318C380.328 227.318 379.529 226.748 379.529 225.757C379.529 224.767 380.339 224.351 381.724 224.181C382.395 224.101 383.588 223.952 383.865 223.68V224.863C383.865 226.205 382.911 227.318 381.399 227.318ZM386.531 228H386.872C388.71 228 389.045 226.631 389.173 223.968L389.327 220.713H392.673V228H393.626V219.818H388.427L388.251 223.648C388.129 226.359 387.953 227.105 386.787 227.105H386.531V228ZM399.319 228.17C401.439 228.17 402.92 226.439 402.92 223.946C402.92 221.438 401.439 219.706 399.319 219.706C397.199 219.706 395.718 221.438 395.718 223.946C395.718 226.439 397.199 228.17 399.319 228.17ZM399.319 227.302C397.62 227.302 396.672 225.779 396.672 223.946C396.672 222.114 397.62 220.569 399.319 220.569C401.018 220.569 401.966 222.114 401.966 223.946C401.966 225.779 401.018 227.302 399.319 227.302ZM409.865 219.818H405.001V228H405.949V220.713H409.865V219.818ZM417.024 219.818H416.076V228H417.024V224.362H421.349V228H422.297V219.818H421.349V223.467H417.024V219.818ZM427.106 228.186C428.469 228.186 429.3 227.43 429.641 226.706H429.7V228H430.648V222.444C430.648 220.25 428.997 219.706 427.745 219.706C426.493 219.706 425.204 220.202 424.65 221.539L425.55 221.864C425.849 221.161 426.589 220.559 427.772 220.559C429.013 220.559 429.7 221.24 429.7 222.359V222.551C429.7 223.169 428.933 223.179 427.559 223.35C425.71 223.579 424.416 224.096 424.416 225.715C424.416 227.292 425.62 228.186 427.106 228.186ZM427.234 227.318C426.163 227.318 425.364 226.748 425.364 225.757C425.364 224.767 426.174 224.351 427.559 224.181C428.23 224.101 429.423 223.952 429.7 223.68V224.863C429.7 226.205 428.746 227.318 427.234 227.318ZM437.4 228H438.353V220.713H442.641V228H443.595V219.818H437.4V228ZM446.089 231.068H447.042V226.482H447.128C447.452 227.233 448.156 228.17 449.642 228.17C451.645 228.17 453.008 226.466 453.008 223.93C453.008 221.406 451.65 219.706 449.626 219.706C448.124 219.706 447.458 220.644 447.128 221.379H447.01V219.818H446.089V231.068ZM447.026 223.914C447.026 221.954 447.927 220.569 449.525 220.569C451.17 220.569 452.055 222.029 452.055 223.914C452.055 225.821 451.155 227.302 449.525 227.302C447.943 227.302 447.026 225.891 447.026 223.914ZM456.032 226.652V219.818H455.084V228H456.235L460.539 221.166V228H461.487V219.818H460.352L456.032 226.652ZM469.882 216.75C469.482 217.08 468.891 217.08 468.108 217.08C467.847 217.08 467.565 217.08 467.261 217.091C464.752 217.176 463.57 219.088 463.57 222.902V223.76C463.57 226.642 464.976 228.17 467.123 228.17C469.248 228.17 470.66 226.562 470.66 224.042C470.66 221.496 469.211 220.074 467.33 220.074C466.132 220.074 465.067 220.67 464.523 221.784H464.417C464.571 219.381 465.402 218.071 467.304 217.98C467.517 217.97 467.725 217.964 467.927 217.959C468.966 217.927 469.813 217.901 470.377 217.352L469.882 216.75ZM467.123 227.302C465.509 227.302 464.523 226.077 464.523 224.096C464.539 222.274 465.525 220.942 467.144 220.942C468.689 220.942 469.711 222.087 469.711 224.042C469.711 226.018 468.71 227.302 467.123 227.302ZM473.7 222.977V219.818H472.752V228H475.932C477.769 228 478.813 226.983 478.813 225.464C478.813 223.936 477.775 222.977 475.932 222.977H473.7ZM473.7 223.872H475.932C477.088 223.872 477.865 224.468 477.865 225.507C477.865 226.535 477.088 227.105 475.932 227.105H473.7V223.872ZM480.188 228H481.141V219.818H480.188V228ZM482.859 228H483.2C485.038 228 485.373 226.631 485.501 223.968L485.656 220.713H489.001V228H489.954V219.818H484.755L484.58 223.648C484.457 226.359 484.281 227.105 483.115 227.105H482.859V228ZM493.415 222.977V219.818H492.467V228H495.647C497.485 228 498.529 226.983 498.529 225.464C498.529 223.936 497.49 222.977 495.647 222.977H493.415ZM493.415 223.872H495.647C496.803 223.872 497.581 224.468 497.581 225.507C497.581 226.535 496.803 227.105 495.647 227.105H493.415V223.872Z" fill="#1E1E1E"/>
<circle cx="338.989" cy="122" r="10" fill="#8A2C5B"/>
<circle cx="338.989" cy="197" r="10" fill="#4E2D5E"/>
</svg>
