<svg width="456" height="313" viewBox="0 0 456 313" fill="none" xmlns="http://www.w3.org/2000/svg">
<path d="M2.98486 142.057L452.5 21.6097" stroke="#A7A9AC"/>
<path d="M438.745 17.0491L453.347 21.4654L442.91 32.5912" stroke="#A7A9AC"/>
<rect x="148" y="141" width="70" height="115" fill="#4E2D5E"/>
<rect x="238" width="70" height="256" fill="#8A2C5B"/>
<path d="M166.72 286H173.901V284.588H168.989V284.509L171.157 282.239C173.155 280.221 173.725 279.256 173.725 278.037C173.725 276.284 172.297 274.942 170.241 274.942C168.201 274.942 166.71 276.263 166.71 278.255H168.281C168.276 277.083 169.032 276.316 170.209 276.316C171.317 276.316 172.159 276.998 172.159 278.085C172.159 279.049 171.584 279.741 170.412 280.982L166.72 284.807V286ZM179.717 286.181C182.237 286.181 183.712 284.125 183.712 280.551C183.712 277.003 182.216 274.942 179.717 274.942C177.214 274.942 175.722 276.998 175.717 280.551C175.717 284.12 177.193 286.176 179.717 286.181ZM179.717 284.759C178.242 284.759 177.352 283.278 177.352 280.551C177.358 277.834 178.247 276.337 179.717 276.337C181.182 276.337 182.077 277.834 182.077 280.551C182.077 283.278 181.188 284.759 179.717 284.759ZM189.741 275.091H188.138L185.416 276.87V278.447L188.026 276.742H188.09V286H189.741V275.091ZM193.059 286H194.78L199.526 276.55V275.091H192.314V276.503H197.822V276.582L193.059 286Z" fill="#1E1E1E"/>
<path d="M256.295 286H263.476V284.588H258.565V284.509L260.733 282.239C262.73 280.221 263.3 279.256 263.3 278.037C263.3 276.284 261.873 274.942 259.816 274.942C257.776 274.942 256.285 276.263 256.285 278.255H257.856C257.851 277.083 258.607 276.316 259.784 276.316C260.892 276.316 261.734 276.998 261.734 278.085C261.734 279.049 261.159 279.741 259.987 280.982L256.295 284.807V286ZM269.293 286.181C271.812 286.181 273.288 284.125 273.288 280.551C273.288 277.003 271.791 274.942 269.293 274.942C266.789 274.942 265.298 276.998 265.292 280.551C265.292 284.12 266.768 286.176 269.293 286.181ZM269.293 284.759C267.817 284.759 266.928 283.278 266.928 280.551C266.933 277.834 267.822 276.337 269.293 276.337C270.757 276.337 271.652 277.834 271.652 280.551C271.652 283.278 270.763 284.759 269.293 284.759ZM279.316 275.091H277.713L274.991 276.87V278.447L277.601 276.742H277.665V286H279.316V275.091ZM285.895 274.942C283.604 274.92 282.107 276.566 282.107 278.633C282.113 280.716 283.62 282.218 285.511 282.218C286.667 282.218 287.658 281.653 288.217 280.737H288.302C288.297 283.246 287.354 284.711 285.756 284.711C284.712 284.711 284.041 284.072 283.828 283.14H282.203C282.443 284.903 283.807 286.149 285.756 286.149C288.292 286.149 289.879 283.971 289.879 280.151C289.874 276.167 287.839 274.958 285.895 274.942ZM285.9 276.327C287.162 276.327 288.095 277.397 288.095 278.596C288.1 279.81 287.114 280.876 285.868 280.876C284.616 280.876 283.711 279.874 283.705 278.612C283.705 277.344 284.648 276.327 285.9 276.327Z" fill="#1E1E1E"/>
<path d="M279.169 228.428C279.169 225.651 277.642 223.665 275.529 223.671C273.989 223.665 272.891 224.643 272.661 226.46L272.565 226.46C272.317 225.077 271.339 224.124 269.951 224.13C268.001 224.124 266.467 225.832 266.467 228.392C266.467 230.927 267.952 232.835 270.089 232.871L270.089 230.366C269.148 230.336 268.538 229.472 268.538 228.404C268.538 227.347 269.178 226.641 270.108 226.647C271.08 226.641 271.738 227.468 271.738 228.657L271.738 229.81L273.657 229.81L273.657 228.657C273.657 227.257 274.358 226.381 275.354 226.387C276.338 226.381 277.014 227.227 277.014 228.422C277.014 229.575 276.41 230.438 275.505 230.487L275.505 233.119C277.666 233.076 279.169 231.145 279.169 228.428ZM279.169 217.222C279.169 214.445 277.642 212.459 275.529 212.465C273.989 212.459 272.891 213.437 272.661 215.254L272.565 215.254C272.317 213.871 271.339 212.918 269.951 212.924C268.001 212.918 266.467 214.626 266.467 217.186C266.467 219.721 267.952 221.629 270.089 221.665L270.089 219.16C269.148 219.13 268.538 218.266 268.538 217.198C268.538 216.141 269.178 215.435 270.108 215.441C271.08 215.435 271.738 216.262 271.738 217.451L271.738 218.604L273.657 218.604L273.657 217.451C273.657 216.051 274.358 215.175 275.354 215.181C276.338 215.175 277.014 216.021 277.014 217.216C277.014 218.369 276.41 219.232 275.505 219.281L275.505 221.913C277.666 221.87 279.169 219.939 279.169 217.222ZM277.31 208.115L277.31 210.24L277.986 210.27C279.628 210.343 281.312 210.814 282.018 210.989L282.018 209.323C281.288 209.033 279.574 208.345 277.974 208.182L277.31 208.115ZM279.169 201.372C279.169 198.619 277.376 196.748 274.877 196.754C272.51 196.748 270.808 198.402 270.808 200.629C270.808 201.716 271.261 202.652 271.87 203.086L271.87 203.159L268.773 202.839L268.773 197.436L266.636 197.436L266.636 204.994L273.156 205.58L273.573 203.255C273.06 202.875 272.74 202.139 272.74 201.408C272.746 200.165 273.645 199.271 274.943 199.271C276.229 199.271 277.116 200.146 277.116 201.372C277.116 202.41 276.464 203.249 275.505 203.31L275.505 205.845C277.642 205.797 279.169 203.932 279.169 201.372ZM276.157 185.49L269.727 187.929L269.727 190.972L279 190.972L279 188.515L273.307 188.515L279 186.348L279 184.639L273.102 182.339L279 182.339L279 179.912L269.727 179.912L269.727 182.979L276.157 185.49ZM279 178.466L279 177.694C279 175.726 277.696 174.681 274.581 174.524L271.75 174.379L271.75 172.091L279 172.091L279 169.64L269.727 169.64L269.727 176.691L273.832 176.842C276.181 176.933 276.96 177.295 276.96 178.171L276.96 178.478L279 178.466ZM269.727 165.19L269.727 167.647L279 167.647L279 165.19L275.36 165.19L275.36 162.02L279 162.02L279 159.581L269.727 159.581L269.727 162.02L273.337 162.02L273.337 165.19L269.727 165.19ZM274.527 147.307C274.527 144.433 273.023 142.628 270.627 142.64C268.345 142.628 266.636 144.373 266.636 147.307L266.636 152.136L272.432 152.136L272.432 153.893L274.527 153.893L274.527 152.136L275.324 152.136L275.324 153.893L277.418 153.893L277.418 152.136L279 152.136L279 149.54L277.418 149.54L277.418 146.842L275.324 146.842L275.324 149.54L274.527 149.54L274.527 147.307ZM272.432 149.54L268.761 149.54L268.761 147.307C268.761 145.924 269.594 145.248 270.657 145.254C271.744 145.248 272.432 145.912 272.432 147.379L272.432 149.54Z" fill="white"/>
<path d="M176.636 227.619L176.636 230.076L178.574 233.137L180.892 233.137L179.118 230.305L179.118 230.233L189 230.233L189 227.619L176.636 227.619ZM189.169 220.165C189.169 217.412 187.376 215.541 184.877 215.547C182.51 215.541 180.808 217.195 180.808 219.422C180.808 220.509 181.261 221.445 181.87 221.879L181.87 221.952L178.773 221.632L178.773 216.229L176.636 216.229L176.636 223.787L183.156 224.373L183.573 222.048C183.06 221.668 182.74 220.932 182.74 220.201C182.746 218.958 183.645 218.064 184.943 218.064C186.229 218.064 187.116 218.939 187.116 220.165C187.116 221.203 186.464 222.042 185.505 222.103L185.505 224.638C187.642 224.59 189.169 222.725 189.169 220.165ZM186.157 204.283L179.727 206.722L179.727 209.765L189 209.765L189 207.308L183.307 207.308L189 205.141L189 203.432L183.102 201.132L189 201.132L189 198.705L179.727 198.705L179.727 201.772L186.157 204.283ZM189 197.259L189 196.487C189 194.519 187.696 193.474 184.581 193.317L181.75 193.172L181.75 190.884L189 190.884L189 188.433L179.727 188.433L179.727 195.484L183.832 195.635C186.181 195.726 186.96 196.088 186.96 196.963L186.96 197.271L189 197.259ZM179.727 183.983L179.727 186.44L189 186.44L189 183.983L185.36 183.983L185.36 180.813L189 180.813L189 178.374L179.727 178.374L179.727 180.813L183.337 180.813L183.337 183.983L179.727 183.983ZM184.527 166.1C184.527 163.226 183.023 161.421 180.627 161.433C178.345 161.421 176.636 163.166 176.636 166.1L176.636 170.929L182.432 170.929L182.432 172.686L184.527 172.686L184.527 170.929L185.324 170.929L185.324 172.686L187.418 172.686L187.418 170.929L189 170.929L189 168.333L187.418 168.333L187.418 165.635L185.324 165.635L185.324 168.333L184.527 168.333L184.527 166.1ZM182.432 168.333L178.761 168.333L178.761 166.1C178.761 164.717 179.594 164.041 180.657 164.047C181.744 164.041 182.432 164.705 182.432 166.172L182.432 168.333Z" fill="white"/>
<rect x="3" y="254" width="450" height="2" fill="#1E1E1E"/>
</svg>
